// ArduboyTones stream for file "justGiveMeAReason.mid" created by MIDI2TONES V1.0.0 on Tue Dec 10 01:08:47 2019
// command line: C:\Users\cnorf\Downloads\midi2tones-master\midi2tones_64bit.exe -o2 -c2 justGiveMeAReason 
//   From channel 1
const int score2[] = {
 NOTE_REST,9705, NOTE_B5,292, NOTE_REST,1, NOTE_B5,145, NOTE_REST,1, NOTE_B5,145, NOTE_REST,1, NOTE_B5,292,
 NOTE_REST,295, NOTE_G5,292, NOTE_REST,1, NOTE_A5,145, NOTE_REST,1, NOTE_B5,145, NOTE_REST,1, NOTE_C6,587,
 NOTE_REST,1, NOTE_C6,292, NOTE_REST,1, NOTE_C6,292, NOTE_REST,1, NOTE_C6,292, NOTE_REST,1, NOTE_B5,881,
 NOTE_REST,1, NOTE_G5,292, NOTE_REST,1, NOTE_E6,587, NOTE_REST,295, NOTE_E6,292, NOTE_REST,1, NOTE_D6,587,
 NOTE_REST,1, NOTE_G5,292, NOTE_REST,1, NOTE_B5,292, NOTE_REST,1, NOTE_B5,1175, NOTE_REST,883, NOTE_G5,292,
 NOTE_REST,1, NOTE_B5,292, NOTE_REST,1, NOTE_B5,292, NOTE_REST,1, NOTE_B5,145, NOTE_REST,1, NOTE_B5,145,
 NOTE_REST,1, NOTE_B5,587, NOTE_REST,1, NOTE_G5,292, NOTE_REST,1, NOTE_A5,292, NOTE_REST,1, NOTE_B5,292,
 NOTE_REST,1, NOTE_C6,145, NOTE_REST,1, NOTE_C6,145, NOTE_REST,1, NOTE_C6,292, NOTE_REST,1, NOTE_C6,292,
 NOTE_REST,1, NOTE_B5,145, NOTE_REST,1, NOTE_G5,734, NOTE_REST,295, NOTE_G5,145, NOTE_REST,1, NOTE_G5,145,
 NOTE_REST,1, NOTE_E6,881, NOTE_REST,1, NOTE_E6,292, NOTE_REST,1, NOTE_D6,587, NOTE_REST,1, NOTE_G5,292,
 NOTE_REST,1, NOTE_B5,292, NOTE_REST,1, NOTE_B5,1175, NOTE_REST,883, NOTE_G5,292, NOTE_REST,1, NOTE_G5,292,
 NOTE_REST,1, NOTE_G5,292, NOTE_REST,1, NOTE_G5,292, NOTE_REST,1, NOTE_FS5,292, NOTE_REST,1, NOTE_E5,587,
 NOTE_REST,1, NOTE_A5,587, NOTE_REST,1, NOTE_FS5,587, NOTE_REST,1, NOTE_D5,587, NOTE_REST,1, NOTE_G5,587,
 NOTE_REST,1, NOTE_D5,587, NOTE_REST,1, NOTE_G5,292, NOTE_REST,1, NOTE_G5,292, NOTE_REST,1, NOTE_G5,292,
 NOTE_REST,1, NOTE_FS5,292, NOTE_REST,1, NOTE_E5,587, NOTE_REST,1, NOTE_A5,587, NOTE_REST,1, NOTE_FS5,587,
 NOTE_REST,1, NOTE_D5,587, NOTE_REST,1, NOTE_G5,587, NOTE_REST,1, NOTE_D5,587, NOTE_REST,1, NOTE_G5,292,
 NOTE_REST,1, NOTE_G5,292, NOTE_REST,1, NOTE_G5,292, NOTE_REST,1, NOTE_FS5,292, NOTE_REST,1, NOTE_E5,587,
 NOTE_REST,1, NOTE_A5,587, NOTE_REST,1, NOTE_FS5,587, NOTE_REST,1, NOTE_D5,587, NOTE_REST,1, NOTE_G5,587,
 NOTE_REST,1, NOTE_D5,587, NOTE_REST,1, NOTE_C5,1175, NOTE_REST,1, NOTE_B4,1175, NOTE_REST,1, NOTE_A4,881,
 NOTE_REST,1471, NOTE_B5,292, NOTE_REST,1, NOTE_B5,292, NOTE_REST,1, NOTE_G5,292, NOTE_REST,1, NOTE_G5,292,
 NOTE_REST,1, NOTE_D5,292, NOTE_REST,1, NOTE_D5,292, NOTE_REST,1, NOTE_D5,292, NOTE_REST,1, NOTE_B5,292,
 NOTE_REST,1, NOTE_A5,292, NOTE_REST,1, NOTE_A5,292, NOTE_REST,1, NOTE_FS5,292, NOTE_REST,1, NOTE_FS5,292,
 NOTE_REST,1, NOTE_C5,587, NOTE_REST,1, NOTE_G5,292, NOTE_REST,1, NOTE_A5,292, NOTE_REST,1, NOTE_G5,292,
 NOTE_REST,1, NOTE_G5,292, NOTE_REST,1, NOTE_G5,292, NOTE_REST,1, NOTE_G5,292, NOTE_REST,1, NOTE_G5,292,
 NOTE_REST,1, NOTE_FS5,292, NOTE_REST,1, NOTE_E5,292, NOTE_REST,1, NOTE_FS5,587, NOTE_REST,1, NOTE_D5,292,
 NOTE_REST,1, NOTE_D5,292, NOTE_REST,1, NOTE_D5,292, NOTE_REST,1, NOTE_C6,439, NOTE_REST,1, NOTE_B5,145,
 NOTE_REST,1, NOTE_A5,145, NOTE_REST,1, NOTE_G5,145, NOTE_REST,1, NOTE_B5,587, NOTE_REST,1, NOTE_B5,292,
 NOTE_REST,1, NOTE_G5,292, NOTE_REST,1, NOTE_G5,292, NOTE_REST,1, NOTE_D5,587, NOTE_REST,1, NOTE_D5,292,
 NOTE_REST,1, NOTE_B5,292, NOTE_REST,1, NOTE_A5,292, NOTE_REST,1, NOTE_A5,292, NOTE_REST,1, NOTE_FS5,292,
 NOTE_REST,1, NOTE_FS5,292, NOTE_REST,1, NOTE_C5,292, NOTE_REST,1, NOTE_C5,292, NOTE_REST,1, NOTE_A5,292,
 NOTE_REST,1, NOTE_G5,587, NOTE_REST,295, NOTE_G5,292, NOTE_REST,1, NOTE_G5,292, NOTE_REST,1, NOTE_G5,292,
 NOTE_REST,1, NOTE_FS5,292, NOTE_REST,1, NOTE_E5,292, NOTE_REST,1, NOTE_FS5,587, NOTE_REST,1, NOTE_D5,292,
 NOTE_REST,1, NOTE_D5,292, NOTE_REST,1, NOTE_C6,292, NOTE_REST,1, NOTE_C6,292, NOTE_REST,1, NOTE_B5,292,
 NOTE_REST,1, NOTE_A5,145, NOTE_REST,1, NOTE_G5,145, NOTE_REST,1, NOTE_G5,1469, NOTE_REST,883, NOTE_G5,292,
 NOTE_REST,1, NOTE_G5,881, NOTE_REST,1, NOTE_G5,587, NOTE_REST,1, NOTE_G5,292, NOTE_REST,1, NOTE_A5,292,
 NOTE_REST,1, NOTE_B5,292, NOTE_REST,1, NOTE_C5,881, NOTE_REST,1, NOTE_C5,292, NOTE_REST,1, NOTE_E5,881,
 NOTE_REST,1, NOTE_E5,292, NOTE_REST,1, NOTE_C5,881, NOTE_REST,1, NOTE_C5,881, NOTE_REST,1, NOTE_C5,292,
 NOTE_REST,1, NOTE_D5,292, NOTE_REST,1, NOTE_G5,881, NOTE_REST,1, NOTE_G5,587, NOTE_REST,1, NOTE_G5,292,
 NOTE_REST,1, NOTE_E5,292, NOTE_REST,1, NOTE_D5,292, NOTE_REST,1, NOTE_G5,881, NOTE_REST,1, NOTE_G5,587,
 NOTE_REST,1, NOTE_G4,292, NOTE_REST,1, NOTE_A4,292, NOTE_REST,1, NOTE_B4,292, NOTE_REST,1, NOTE_C5,881,
 NOTE_REST,1, NOTE_C5,292, NOTE_REST,1, NOTE_E5,881, NOTE_REST,1, NOTE_E5,292, NOTE_REST,1, NOTE_C5,881,
 NOTE_REST,1, NOTE_C5,881, NOTE_REST,1, NOTE_C5,292, NOTE_REST,1, NOTE_D5,292, NOTE_REST,1, NOTE_G5,881,
 NOTE_REST,1, NOTE_G5,587, NOTE_REST,1, NOTE_G5,292, NOTE_REST,1, NOTE_E5,292, NOTE_REST,1, NOTE_D5,292,
 NOTE_REST,1, NOTE_G5,292, NOTE_REST,1, NOTE_G5,292, NOTE_REST,1, NOTE_G5,292, NOTE_REST,1, NOTE_FS5,292,
 NOTE_REST,1, NOTE_E5,587, NOTE_REST,1, NOTE_A5,587, NOTE_REST,1, NOTE_FS5,587, NOTE_REST,1, NOTE_D5,587,
 NOTE_REST,1, NOTE_G5,587, NOTE_REST,1, NOTE_D5,292, NOTE_REST,1, NOTE_D5,292, NOTE_REST,1, NOTE_G5,292,
 NOTE_REST,1, NOTE_G5,292, NOTE_REST,1, NOTE_G5,292, NOTE_REST,1, NOTE_FS5,292, NOTE_REST,1, NOTE_E5,587,
 NOTE_REST,1, NOTE_A5,292, NOTE_REST,1, NOTE_FS5,292, NOTE_REST,1, NOTE_FS5,587, NOTE_REST,1, NOTE_D5,587,
 NOTE_REST,1, NOTE_G5,587, NOTE_REST,1, NOTE_D5,292, NOTE_REST,1, NOTE_D5,292, NOTE_REST,1, NOTE_G5,292,
 NOTE_REST,1, NOTE_G5,292, NOTE_REST,1, NOTE_G5,292, NOTE_REST,1, NOTE_FS5,292, NOTE_REST,1, NOTE_E5,587,
 NOTE_REST,1, NOTE_A5,587, NOTE_REST,1, NOTE_FS5,587, NOTE_REST,442, NOTE_D6,145, NOTE_REST,1, NOTE_G6,587,
 NOTE_REST,1, NOTE_D6,292, NOTE_REST,1, NOTE_C6,1469, NOTE_REST,1, NOTE_B5,390, NOTE_REST,1, NOTE_B5,390,
 NOTE_REST,1, NOTE_B5,390, NOTE_REST,1, NOTE_A5,1175, NOTE_REST,1, NOTE_A5,439, NOTE_REST,1, NOTE_A5,439,
 NOTE_REST,1, NOTE_B5,292, NOTE_REST,1, NOTE_C6,1175, NOTE_REST,1, NOTE_D6,1175, NOTE_REST,1, NOTE_D6,2351,
 NOTE_REST,1, NOTE_B5,292, NOTE_REST,1, NOTE_B5,292, NOTE_REST,1, NOTE_G5,292, NOTE_REST,1, NOTE_G5,292,
 NOTE_REST,1, NOTE_D5,292, NOTE_REST,1, NOTE_D5,292, NOTE_REST,1, NOTE_D5,292, NOTE_REST,1, NOTE_B5,292,
 NOTE_REST,1, NOTE_A5,292, NOTE_REST,1, NOTE_A5,292, NOTE_REST,1, NOTE_FS5,292, NOTE_REST,1, NOTE_FS5,292,
 NOTE_REST,1, NOTE_C5,587, NOTE_REST,1, NOTE_G5,292, NOTE_REST,1, NOTE_A5,292, NOTE_REST,1, NOTE_G5,292,
 NOTE_REST,1, NOTE_G5,292, NOTE_REST,1, NOTE_G5,292, NOTE_REST,1, NOTE_G5,292, NOTE_REST,1, NOTE_G5,292,
 NOTE_REST,1, NOTE_FS5,292, NOTE_REST,1, NOTE_E5,292, NOTE_REST,1, NOTE_FS5,587, NOTE_REST,1, NOTE_D5,292,
 NOTE_REST,1, NOTE_D5,292, NOTE_REST,1, NOTE_D5,292, NOTE_REST,1, NOTE_C6,439, NOTE_REST,1, NOTE_B5,145,
 NOTE_REST,1, NOTE_A5,145, NOTE_REST,1, NOTE_G5,145, NOTE_REST,1, NOTE_B5,587, NOTE_REST,1, NOTE_B5,292,
 NOTE_REST,1, NOTE_G5,292, NOTE_REST,1, NOTE_G5,292, NOTE_REST,1, NOTE_D5,587, NOTE_REST,1, NOTE_D5,292,
 NOTE_REST,1, NOTE_B5,292, NOTE_REST,1, NOTE_A5,292, NOTE_REST,1, NOTE_A5,292, NOTE_REST,1, NOTE_FS5,292,
 NOTE_REST,1, NOTE_FS5,292, NOTE_REST,1, NOTE_C5,292, NOTE_REST,1, NOTE_C5,292, NOTE_REST,1, NOTE_A5,292,
 NOTE_REST,1, NOTE_G5,587, NOTE_REST,295, NOTE_G5,292, NOTE_REST,1, NOTE_G5,292, NOTE_REST,1, NOTE_G5,292,
 NOTE_REST,1, NOTE_FS5,292, NOTE_REST,1, NOTE_E5,292, NOTE_REST,1, NOTE_FS5,587, NOTE_REST,1, NOTE_D5,292,
 NOTE_REST,1, NOTE_D5,292, NOTE_REST,1, NOTE_C6,292, NOTE_REST,1, NOTE_C6,292, NOTE_REST,1, NOTE_B5,292,
 NOTE_REST,1, NOTE_A5,145, NOTE_REST,1, NOTE_G5,145, NOTE_REST,1, NOTE_G5,1469, NOTE_REST,883, NOTE_G5,292,
 NOTE_REST,589, NOTE_D6,292, NOTE_REST,1, NOTE_C6,292, NOTE_REST,1, NOTE_C6,292, NOTE_REST,1, NOTE_B5,292,
 NOTE_REST,1, NOTE_G5,292, NOTE_REST,1, NOTE_FS5,587, NOTE_REST,295, NOTE_D6,292, NOTE_REST,1, NOTE_C6,292,
 NOTE_REST,1, NOTE_C6,292, NOTE_REST,1, NOTE_B5,292, NOTE_REST,1, NOTE_FS5,292, NOTE_REST,1, NOTE_E5,587,
 NOTE_REST,295, NOTE_D6,587, NOTE_REST,1, NOTE_C6,292, NOTE_REST,1, NOTE_B5,292, NOTE_REST,1, NOTE_A5,292,
 NOTE_REST,1, NOTE_G5,587, NOTE_REST,1, NOTE_A5,292, NOTE_REST,1, NOTE_A5,292, NOTE_REST,1, NOTE_A5,587,
 NOTE_REST,1, NOTE_G5,292, NOTE_REST,1, NOTE_C6,292, NOTE_REST,1, NOTE_B5,587, NOTE_REST,295, NOTE_D6,292,
 NOTE_REST,1, NOTE_C6,292, NOTE_REST,1, NOTE_C6,292, NOTE_REST,1, NOTE_B5,292, NOTE_REST,1, NOTE_G5,292,
 NOTE_REST,1, NOTE_FS5,587, NOTE_REST,295, NOTE_D6,587, NOTE_REST,1, NOTE_E6,292, NOTE_REST,1, NOTE_D6,292,
 NOTE_REST,1, NOTE_B5,292, NOTE_REST,1, NOTE_C6,587, NOTE_REST,295, NOTE_D6,292, NOTE_REST,1, NOTE_C6,292,
 NOTE_REST,1, NOTE_C6,292, NOTE_REST,1, NOTE_B5,292, NOTE_REST,1, NOTE_A5,292, NOTE_REST,1, NOTE_G5,292,
 NOTE_REST,1, NOTE_E5,881, NOTE_REST,1, NOTE_FS5,292, NOTE_REST,1, NOTE_FS5,881, NOTE_REST,1, NOTE_G5,292,
 NOTE_REST,1, NOTE_G5,881, NOTE_REST,1, NOTE_A5,292, NOTE_REST,1, NOTE_A5,1175, NOTE_REST,1, NOTE_G6,292,
 NOTE_REST,1, NOTE_D6,292, NOTE_REST,1, NOTE_D6,587, NOTE_REST,1, NOTE_D6,145, NOTE_REST,1, NOTE_C6,145,
 NOTE_REST,1, NOTE_B5,881, NOTE_REST,1, NOTE_B5,292, NOTE_REST,1, NOTE_B5,292, NOTE_REST,1, NOTE_G5,292,
 NOTE_REST,1, NOTE_G5,292, NOTE_REST,1, NOTE_D5,292, NOTE_REST,1, NOTE_D5,292, NOTE_REST,1, NOTE_D5,292,
 NOTE_REST,1, NOTE_B5,292, NOTE_REST,1, NOTE_A5,292, NOTE_REST,1, NOTE_A5,292, NOTE_REST,1, NOTE_FS5,292,
 NOTE_REST,1, NOTE_FS5,292, NOTE_REST,1, NOTE_C5,292, NOTE_REST,295, NOTE_G5,292, NOTE_REST,1, NOTE_A5,292,
 NOTE_REST,1, NOTE_G5,292, NOTE_REST,1, NOTE_G5,292, NOTE_REST,1, NOTE_G5,292, NOTE_REST,1, NOTE_G5,292,
 NOTE_REST,1, NOTE_G5,292, NOTE_REST,1, NOTE_FS5,292, NOTE_REST,1, NOTE_E5,292, NOTE_REST,1, NOTE_FS5,587,
 NOTE_REST,1, NOTE_D5,292, NOTE_REST,1, NOTE_D5,292, NOTE_REST,1, NOTE_D5,292, NOTE_REST,1, NOTE_C6,292,
 NOTE_REST,1, NOTE_B5,292, NOTE_REST,1, NOTE_A5,145, NOTE_REST,1, NOTE_G5,145, NOTE_REST,1, NOTE_B5,587,
 NOTE_REST,1, NOTE_B5,292, NOTE_REST,1, NOTE_G5,292, NOTE_REST,1, NOTE_G5,292, NOTE_REST,1, NOTE_D5,587,
 NOTE_REST,1, NOTE_D5,292, NOTE_REST,1, NOTE_B5,292, NOTE_REST,1, NOTE_A5,292, NOTE_REST,1, NOTE_A5,292,
 NOTE_REST,1, NOTE_FS5,292, NOTE_REST,1, NOTE_FS5,292, NOTE_REST,1, NOTE_C5,292, NOTE_REST,1, NOTE_C5,292,
 NOTE_REST,1, NOTE_A5,292, NOTE_REST,1, NOTE_G5,587, NOTE_REST,1, NOTE_G5,292, NOTE_REST,1, NOTE_G5,292,
 NOTE_REST,1, NOTE_G5,292, NOTE_REST,1, NOTE_G5,292, NOTE_REST,1, NOTE_FS5,292, NOTE_REST,1, NOTE_E5,292,
 NOTE_REST,1, NOTE_FS5,587, NOTE_REST,1, NOTE_D5,292, NOTE_REST,1, NOTE_D5,292, NOTE_REST,1, NOTE_C6,292,
 NOTE_REST,1, NOTE_C6,292, NOTE_REST,1, NOTE_B5,292, NOTE_REST,1, NOTE_A5,145, NOTE_REST,1, NOTE_G5,145,
 NOTE_REST,1, NOTE_G5,292, NOTE_REST,1, NOTE_B5,292, NOTE_REST,1, NOTE_B5,292, NOTE_REST,1, NOTE_G5,292,
 NOTE_REST,1, NOTE_G5,292, NOTE_REST,1, NOTE_D5,292, NOTE_REST,1, NOTE_D5,292, NOTE_REST,1, NOTE_D5,292,
 NOTE_REST,1, NOTE_B5,292, NOTE_REST,1, NOTE_A5,292, NOTE_REST,1, NOTE_A5,292, NOTE_REST,1, NOTE_FS5,292,
 NOTE_REST,1, NOTE_FS5,292, NOTE_REST,1, NOTE_C5,587, NOTE_REST,1, NOTE_G5,292, NOTE_REST,1, NOTE_A5,292,
 NOTE_REST,1, NOTE_G5,292, NOTE_REST,1, NOTE_G5,292, NOTE_REST,1, NOTE_G5,292, NOTE_REST,1, NOTE_G5,292,
 NOTE_REST,1, NOTE_G5,292, NOTE_REST,1, NOTE_FS5,292, NOTE_REST,1, NOTE_E5,292, NOTE_REST,1, NOTE_FS5,587,
 NOTE_REST,1, NOTE_D5,292, NOTE_REST,1, NOTE_D5,292, NOTE_REST,1, NOTE_D5,292, NOTE_REST,1, NOTE_C6,439,
 NOTE_REST,1, NOTE_B5,145, NOTE_REST,1, NOTE_A5,145, NOTE_REST,1, NOTE_G5,145, NOTE_REST,1, NOTE_B5,587,
 NOTE_REST,1, NOTE_B5,292, NOTE_REST,1, NOTE_G5,292, NOTE_REST,1, NOTE_G5,292, NOTE_REST,1, NOTE_D5,587,
 NOTE_REST,1, NOTE_D5,292, NOTE_REST,1, NOTE_B5,292, NOTE_REST,1, NOTE_A5,292, NOTE_REST,1, NOTE_A5,292,
 NOTE_REST,1, NOTE_FS5,292, NOTE_REST,1, NOTE_FS5,292, NOTE_REST,1, NOTE_C5,292, NOTE_REST,1, NOTE_C5,292,
 NOTE_REST,1, NOTE_A5,292, NOTE_REST,1, NOTE_G5,587, NOTE_REST,295, NOTE_E5,292, NOTE_REST,1, NOTE_E5,292,
 NOTE_REST,1, NOTE_E5,292, NOTE_REST,1, NOTE_D5,292, NOTE_REST,1, NOTE_C5,292, NOTE_REST,1, NOTE_D5,587,
 NOTE_REST,1, NOTE_B4,292, NOTE_REST,1, NOTE_B4,292, NOTE_REST,1, NOTE_A5,292, NOTE_REST,1, NOTE_C6,292,
 NOTE_REST,1, NOTE_B5,292, NOTE_REST,1, NOTE_A5,145, NOTE_REST,1, NOTE_G5,145, NOTE_REST,1, NOTE_G5,1469,
 NOTE_REST,8236, NOTE_B4,2351,
 0, 1, -1, -1
};
// This score contains 3594 bytes.
