// ArduboyTones stream for file "justGiveMeAReason.mid" created by MIDI2TONES V1.0.0 on Tue Dec 10 01:09:02 2019
// command line: C:\Users\cnorf\Downloads\midi2tones-master\midi2tones_64bit.exe -o2 -c4 justGiveMeAReason 
//   From channel 2
const int score3[] = {
 NOTE_G5,292, NOTE_REST,1, NOTE_G5,292, NOTE_REST,1, NOTE_G5,292, NOTE_REST,1, NOTE_FS5,292, NOTE_REST,1,
 NOTE_E5,587, NOTE_REST,1, NOTE_A5,587, NOTE_REST,1, NOTE_FS5,587, NOTE_REST,1, NOTE_D5,587, NOTE_REST,1,
 NOTE_G5,587, NOTE_REST,1, NOTE_B4,587, NOTE_REST,1, NOTE_C5,1175, NOTE_REST,1, NOTE_B4,1175, NOTE_REST,1,
 NOTE_A4,1175, NOTE_REST,1177, NOTE_B4,881, NOTE_REST,1, NOTE_B4,1469, NOTE_REST,1, NOTE_C5,1175, NOTE_REST,1,
 NOTE_B4,1175, NOTE_REST,1, NOTE_E5,881, NOTE_REST,1, NOTE_E5,881, NOTE_REST,1, NOTE_G4,292, NOTE_REST,1,
 NOTE_B4,292, NOTE_REST,1, NOTE_B4,1175, NOTE_REST,1, NOTE_B4,292, NOTE_REST,1, NOTE_D5,292, NOTE_REST,1,
 NOTE_B4,145, NOTE_REST,1, NOTE_A4,145, NOTE_REST,1, NOTE_G4,292, NOTE_REST,1, NOTE_B4,881, NOTE_REST,1,
 NOTE_B4,587, NOTE_REST,1, NOTE_G4,292, NOTE_REST,1, NOTE_A4,292, NOTE_REST,1, NOTE_B4,292, NOTE_REST,1,
 NOTE_C5,292, NOTE_REST,1, NOTE_G4,292, NOTE_REST,1, NOTE_C5,292, NOTE_REST,1, NOTE_G4,292, NOTE_REST,1,
 NOTE_B4,587, NOTE_REST,1, NOTE_G4,587, NOTE_REST,1, NOTE_E5,881, NOTE_REST,1, NOTE_E5,881, NOTE_REST,1,
 NOTE_G4,292, NOTE_REST,1, NOTE_B4,292, NOTE_REST,1, NOTE_B4,2351, NOTE_REST,1, NOTE_G5,292, NOTE_REST,1,
 NOTE_G5,292, NOTE_REST,1, NOTE_G5,292, NOTE_REST,1, NOTE_FS5,292, NOTE_REST,1, NOTE_E5,587, NOTE_REST,1,
 NOTE_A5,587, NOTE_REST,1, NOTE_FS5,587, NOTE_REST,1, NOTE_D5,587, NOTE_REST,1, NOTE_G5,587, NOTE_REST,1,
 NOTE_D5,587, NOTE_REST,1, NOTE_G5,292, NOTE_REST,1, NOTE_G5,292, NOTE_REST,1, NOTE_G5,292, NOTE_REST,1,
 NOTE_FS5,292, NOTE_REST,1, NOTE_E5,587, NOTE_REST,1, NOTE_A5,587, NOTE_REST,1, NOTE_FS5,587, NOTE_REST,1,
 NOTE_D5,587, NOTE_REST,1, NOTE_G5,587, NOTE_REST,1, NOTE_D5,587, NOTE_REST,1, NOTE_G5,292, NOTE_REST,1,
 NOTE_G5,292, NOTE_REST,1, NOTE_G5,292, NOTE_REST,1, NOTE_FS5,292, NOTE_REST,1, NOTE_E5,587, NOTE_REST,1,
 NOTE_A5,587, NOTE_REST,1, NOTE_FS5,587, NOTE_REST,1, NOTE_D5,587, NOTE_REST,1, NOTE_G5,587, NOTE_REST,1,
 NOTE_B4,587, NOTE_REST,1, NOTE_C5,1175, NOTE_REST,1, NOTE_B4,1175, NOTE_REST,1, NOTE_A4,881, NOTE_REST,1,
 NOTE_G4,292, NOTE_REST,1, NOTE_A4,587, NOTE_REST,1, NOTE_D4,587, NOTE_REST,1, NOTE_B5,292, NOTE_REST,1,
 NOTE_D5,292, NOTE_REST,1, NOTE_B5,292, NOTE_REST,1, NOTE_G5,292, NOTE_REST,1, NOTE_B4,292, NOTE_REST,1,
 NOTE_G5,292, NOTE_REST,1, NOTE_B5,292, NOTE_REST,1, NOTE_D5,292, NOTE_REST,1, NOTE_A5,292, NOTE_REST,1,
 NOTE_D5,292, NOTE_REST,1, NOTE_A5,292, NOTE_REST,1, NOTE_FS5,292, NOTE_REST,1, NOTE_A4,292, NOTE_REST,1,
 NOTE_FS5,292, NOTE_REST,1, NOTE_A5,292, NOTE_REST,1, NOTE_D5,292, NOTE_REST,1, NOTE_G5,292, NOTE_REST,1,
 NOTE_B4,292, NOTE_REST,1, NOTE_G5,292, NOTE_REST,1, NOTE_G5,292, NOTE_REST,1, NOTE_B4,292, NOTE_REST,1,
 NOTE_G5,292, NOTE_REST,1, NOTE_B4,292, NOTE_REST,1, NOTE_G5,292, NOTE_REST,1, NOTE_FS5,292, NOTE_REST,1,
 NOTE_B4,292, NOTE_REST,1, NOTE_FS5,292, NOTE_REST,1, NOTE_FS5,292, NOTE_REST,1, NOTE_C6,292, NOTE_REST,1,
 NOTE_B5,292, NOTE_REST,1, NOTE_A5,292, NOTE_REST,1, NOTE_B5,292, NOTE_REST,1, NOTE_B5,292, NOTE_REST,1,
 NOTE_D5,292, NOTE_REST,1, NOTE_B5,292, NOTE_REST,1, NOTE_G5,292, NOTE_REST,1, NOTE_B4,292, NOTE_REST,1,
 NOTE_G5,292, NOTE_REST,1, NOTE_B5,292, NOTE_REST,1, NOTE_D5,292, NOTE_REST,1, NOTE_A5,292, NOTE_REST,1,
 NOTE_D5,292, NOTE_REST,1, NOTE_A5,292, NOTE_REST,1, NOTE_FS5,292, NOTE_REST,1, NOTE_A4,292, NOTE_REST,1,
 NOTE_FS5,292, NOTE_REST,1, NOTE_A5,292, NOTE_REST,1, NOTE_D5,292, NOTE_REST,1, NOTE_G5,292, NOTE_REST,1,
 NOTE_B4,292, NOTE_REST,1, NOTE_G5,292, NOTE_REST,1, NOTE_G5,292, NOTE_REST,1, NOTE_B4,292, NOTE_REST,1,
 NOTE_G5,292, NOTE_REST,1, NOTE_B4,292, NOTE_REST,1, NOTE_G5,292, NOTE_REST,1, NOTE_FS5,292, NOTE_REST,1,
 NOTE_B4,292, NOTE_REST,1, NOTE_FS5,292, NOTE_REST,1, NOTE_FS5,292, NOTE_REST,1, NOTE_C6,292, NOTE_REST,1,
 NOTE_B5,292, NOTE_REST,1, NOTE_A5,292, NOTE_REST,1, NOTE_B5,292, NOTE_REST,1, NOTE_G5,292, NOTE_REST,1,
 NOTE_G5,145, NOTE_REST,1, NOTE_G5,145, NOTE_REST,1, NOTE_B4,1763, NOTE_REST,1, NOTE_B4,881, NOTE_REST,1,
 NOTE_B4,1469, NOTE_REST,1, NOTE_C5,1175, NOTE_REST,1, NOTE_B4,1175, NOTE_REST,1, NOTE_E5,881, NOTE_REST,1,
 NOTE_E5,881, NOTE_REST,1, NOTE_G4,292, NOTE_REST,1, NOTE_B4,292, NOTE_REST,1, NOTE_B4,1175, NOTE_REST,1,
 NOTE_B4,292, NOTE_REST,1, NOTE_D5,292, NOTE_REST,1, NOTE_B4,145, NOTE_REST,1, NOTE_A4,145, NOTE_REST,1,
 NOTE_G4,292, NOTE_REST,1, NOTE_B4,881, NOTE_REST,1, NOTE_B4,587, NOTE_REST,1, NOTE_G4,292, NOTE_REST,1,
 NOTE_A4,292, NOTE_REST,1, NOTE_B4,292, NOTE_REST,1, NOTE_C5,292, NOTE_REST,1, NOTE_G4,292, NOTE_REST,1,
 NOTE_C5,292, NOTE_REST,1, NOTE_G4,292, NOTE_REST,1, NOTE_B4,587, NOTE_REST,1, NOTE_G4,587, NOTE_REST,1,
 NOTE_E5,881, NOTE_REST,1, NOTE_E5,881, NOTE_REST,1, NOTE_G4,292, NOTE_REST,1, NOTE_B4,292, NOTE_REST,1,
 NOTE_B4,2351, NOTE_REST,1, NOTE_G5,292, NOTE_REST,1, NOTE_G5,292, NOTE_REST,1, NOTE_G5,292, NOTE_REST,1,
 NOTE_FS5,292, NOTE_REST,1, NOTE_E5,587, NOTE_REST,1, NOTE_A5,587, NOTE_REST,1, NOTE_FS5,587, NOTE_REST,1,
 NOTE_D5,587, NOTE_REST,1, NOTE_G5,587, NOTE_REST,1, NOTE_D5,587, NOTE_REST,1, NOTE_G5,292, NOTE_REST,1,
 NOTE_G5,292, NOTE_REST,1, NOTE_G5,292, NOTE_REST,1, NOTE_FS5,292, NOTE_REST,1, NOTE_E5,587, NOTE_REST,1,
 NOTE_A5,587, NOTE_REST,1, NOTE_FS5,587, NOTE_REST,1, NOTE_D5,587, NOTE_REST,1, NOTE_G6,587, NOTE_REST,1,
 NOTE_D6,587, NOTE_REST,1, NOTE_G5,292, NOTE_REST,1, NOTE_G5,292, NOTE_REST,1, NOTE_G5,292, NOTE_REST,1,
 NOTE_FS5,292, NOTE_REST,1, NOTE_E5,587, NOTE_REST,1, NOTE_A5,587, NOTE_REST,1, NOTE_FS5,587, NOTE_REST,1,
 NOTE_D5,587, NOTE_REST,1, NOTE_G5,587, NOTE_REST,1, NOTE_B4,587, NOTE_REST,1, NOTE_C5,1175, NOTE_REST,1,
 NOTE_B4,1175, NOTE_REST,1, NOTE_A4,2351, NOTE_REST,1, NOTE_C5,1175, NOTE_REST,1, NOTE_B4,1175, NOTE_REST,1,
 NOTE_D5,881, NOTE_REST,1, NOTE_G4,292, NOTE_REST,1, NOTE_D5,587, NOTE_REST,1, NOTE_D5,587, NOTE_REST,1,
 NOTE_B5,292, NOTE_REST,1, NOTE_D5,292, NOTE_REST,1, NOTE_B5,292, NOTE_REST,1, NOTE_G5,292, NOTE_REST,1,
 NOTE_B4,292, NOTE_REST,1, NOTE_G5,292, NOTE_REST,1, NOTE_B5,292, NOTE_REST,1, NOTE_D5,292, NOTE_REST,1,
 NOTE_A5,292, NOTE_REST,1, NOTE_D5,292, NOTE_REST,1, NOTE_A5,292, NOTE_REST,1, NOTE_FS5,292, NOTE_REST,1,
 NOTE_A4,292, NOTE_REST,1, NOTE_FS5,292, NOTE_REST,1, NOTE_A5,292, NOTE_REST,1, NOTE_D5,292, NOTE_REST,1,
 NOTE_G5,292, NOTE_REST,1, NOTE_B4,292, NOTE_REST,1, NOTE_G5,292, NOTE_REST,1, NOTE_G5,292, NOTE_REST,1,
 NOTE_B4,292, NOTE_REST,1, NOTE_G5,292, NOTE_REST,1, NOTE_B4,292, NOTE_REST,1, NOTE_G5,292, NOTE_REST,1,
 NOTE_FS5,292, NOTE_REST,1, NOTE_B4,292, NOTE_REST,1, NOTE_FS5,292, NOTE_REST,1, NOTE_FS5,292, NOTE_REST,1,
 NOTE_C6,292, NOTE_REST,1, NOTE_B5,292, NOTE_REST,1, NOTE_A5,292, NOTE_REST,1, NOTE_B5,292, NOTE_REST,1,
 NOTE_B5,292, NOTE_REST,1, NOTE_D5,292, NOTE_REST,1, NOTE_B5,292, NOTE_REST,1, NOTE_G5,292, NOTE_REST,1,
 NOTE_B4,292, NOTE_REST,1, NOTE_G5,292, NOTE_REST,1, NOTE_B5,292, NOTE_REST,1, NOTE_D5,292, NOTE_REST,1,
 NOTE_A5,292, NOTE_REST,1, NOTE_D5,292, NOTE_REST,1, NOTE_A5,292, NOTE_REST,1, NOTE_FS5,292, NOTE_REST,1,
 NOTE_A4,292, NOTE_REST,1, NOTE_FS5,292, NOTE_REST,1, NOTE_A5,292, NOTE_REST,1, NOTE_D5,292, NOTE_REST,1,
 NOTE_G5,292, NOTE_REST,1, NOTE_B4,292, NOTE_REST,1, NOTE_G5,292, NOTE_REST,1, NOTE_G5,292, NOTE_REST,1,
 NOTE_B4,292, NOTE_REST,1, NOTE_G5,292, NOTE_REST,1, NOTE_B4,292, NOTE_REST,1, NOTE_G5,292, NOTE_REST,1,
 NOTE_FS5,292, NOTE_REST,1, NOTE_B4,292, NOTE_REST,1, NOTE_FS5,292, NOTE_REST,1, NOTE_FS5,292, NOTE_REST,1,
 NOTE_C6,292, NOTE_REST,1, NOTE_B5,292, NOTE_REST,1, NOTE_A5,292, NOTE_REST,1, NOTE_B5,292, NOTE_REST,1,
 NOTE_G5,292, NOTE_REST,1, NOTE_G5,145, NOTE_REST,1, NOTE_G5,145, NOTE_REST,1, NOTE_B4,1763, NOTE_REST,1,
 NOTE_G5,292, NOTE_REST,1, NOTE_B4,292, NOTE_REST,1, NOTE_G5,292, NOTE_REST,1, NOTE_G5,587, NOTE_REST,1,
 NOTE_B4,292, NOTE_REST,1, NOTE_G5,292, NOTE_REST,1, NOTE_B4,292, NOTE_REST,1, NOTE_FS5,292, NOTE_REST,1,
 NOTE_B4,292, NOTE_REST,1, NOTE_FS5,292, NOTE_REST,1, NOTE_FS5,587, NOTE_REST,1, NOTE_B4,292, NOTE_REST,1,
 NOTE_FS5,292, NOTE_REST,1, NOTE_B4,292, NOTE_REST,1, NOTE_G5,292, NOTE_REST,1, NOTE_C5,292, NOTE_REST,1,
 NOTE_G5,292, NOTE_REST,1, NOTE_G5,587, NOTE_REST,1, NOTE_C5,292, NOTE_REST,1, NOTE_G5,292, NOTE_REST,1,
 NOTE_C5,292, NOTE_REST,1, NOTE_A5,292, NOTE_REST,1, NOTE_D5,292, NOTE_REST,1, NOTE_A5,292, NOTE_REST,1,
 NOTE_A5,587, NOTE_REST,1, NOTE_D5,292, NOTE_REST,1, NOTE_A5,292, NOTE_REST,1, NOTE_D5,292, NOTE_REST,1,
 NOTE_B5,1763, NOTE_REST,1, NOTE_E6,587, NOTE_REST,1, NOTE_FS6,2057, NOTE_REST,1, NOTE_E6,145, NOTE_REST,1,
 NOTE_FS6,145, NOTE_REST,1, NOTE_G6,1469, NOTE_REST,1, NOTE_G6,145, NOTE_REST,1, NOTE_E6,145, NOTE_REST,1,
 NOTE_FS6,145, NOTE_REST,1, NOTE_D6,145, NOTE_REST,1, NOTE_A5,145, NOTE_REST,1, NOTE_FS5,145, NOTE_REST,1,
 NOTE_E5,292, NOTE_REST,1, NOTE_A4,292, NOTE_REST,1, NOTE_E5,292, NOTE_REST,1, NOTE_E5,292, NOTE_REST,1,
 NOTE_A5,587, NOTE_REST,1, NOTE_C6,587, NOTE_REST,1, NOTE_FS5,292, NOTE_REST,1, NOTE_A4,292, NOTE_REST,1,
 NOTE_G5,587, NOTE_REST,1, NOTE_FS5,587, NOTE_REST,1, NOTE_FS5,587, NOTE_REST,1, NOTE_G6,292, NOTE_REST,1,
 NOTE_D6,292, NOTE_REST,1, NOTE_D6,587, NOTE_REST,1, NOTE_D6,145, NOTE_REST,1, NOTE_C6,145, NOTE_REST,1,
 NOTE_B5,881,
 0, 1, -1, -1
};
// This score contains 2726 bytes.
