// ArduboyTones stream for file "justGiveMeAReason.mid" created by MIDI2TONES V1.0.0 on Tue Dec 10 01:09:35 2019
// command line: C:\Users\cnorf\Downloads\midi2tones-master\midi2tones_64bit.exe -o2 -c32 justGiveMeAReason 
//   From channel 5
const int score4[] = {
 NOTE_E5,292, NOTE_REST,1, NOTE_E5,292, NOTE_REST,1, NOTE_E5,292, NOTE_REST,1, NOTE_D5,292, NOTE_REST,1,
 NOTE_CS5,1175, NOTE_REST,1, NOTE_D5,1175, NOTE_REST,1, NOTE_B4,1175, NOTE_REST,1, NOTE_C5,1175, NOTE_REST,1,
 NOTE_B4,1175, NOTE_REST,1, NOTE_A4,1175, NOTE_REST,1, NOTE_B4,292, NOTE_REST,1, NOTE_D5,292, NOTE_REST,1,
 NOTE_B4,145, NOTE_REST,1, NOTE_A4,145, NOTE_REST,1, NOTE_G4,292, NOTE_REST,1, NOTE_G4,881, NOTE_REST,1,
 NOTE_G4,1469, NOTE_REST,1, NOTE_C4,1175, NOTE_REST,1, NOTE_E4,1175, NOTE_REST,1, NOTE_C5,881, NOTE_REST,1,
 NOTE_C5,1469, NOTE_REST,1, NOTE_G4,881, NOTE_REST,1, NOTE_G4,1469, NOTE_REST,1, NOTE_G4,587, NOTE_REST,1,
 NOTE_G4,1763, NOTE_REST,1, NOTE_C5,1175, NOTE_REST,1, NOTE_E4,1175, NOTE_REST,1, NOTE_C5,2351, NOTE_REST,1,
 NOTE_G4,881, NOTE_REST,1, NOTE_G4,292, NOTE_REST,1, NOTE_G4,1175, NOTE_REST,1, NOTE_E5,292, NOTE_REST,1,
 NOTE_E5,292, NOTE_REST,1, NOTE_E5,292, NOTE_REST,1, NOTE_D5,292, NOTE_REST,1, NOTE_CS5,881, NOTE_REST,1,
 NOTE_CS5,292, NOTE_REST,1, NOTE_D5,2351, NOTE_REST,1, NOTE_E5,292, NOTE_REST,1, NOTE_E5,292, NOTE_REST,1,
 NOTE_E5,292, NOTE_REST,1, NOTE_D5,292, NOTE_REST,1, NOTE_CS5,881, NOTE_REST,1, NOTE_CS5,292, NOTE_REST,1,
 NOTE_D5,2351, NOTE_REST,1, NOTE_E5,292, NOTE_REST,1, NOTE_E5,292, NOTE_REST,1, NOTE_E5,292, NOTE_REST,1,
 NOTE_D5,292, NOTE_REST,1, NOTE_CS5,881, NOTE_REST,1, NOTE_CS5,292, NOTE_REST,1, NOTE_D5,1175, NOTE_REST,1,
 NOTE_B4,587, NOTE_REST,1, NOTE_D5,587, NOTE_REST,1, NOTE_C4,1175, NOTE_REST,1, NOTE_B3,1175, NOTE_REST,1,
 NOTE_D4,1175, NOTE_REST,1, NOTE_D4,1175, NOTE_REST,1, NOTE_G4,881, NOTE_REST,1, NOTE_G4,587, NOTE_REST,1,
 NOTE_D4,292, NOTE_REST,1, NOTE_G4,292, NOTE_REST,1, NOTE_D4,292, NOTE_REST,1, NOTE_FS4,881, NOTE_REST,1,
 NOTE_FS4,587, NOTE_REST,1, NOTE_D4,292, NOTE_REST,1, NOTE_FS4,292, NOTE_REST,1, NOTE_D4,292, NOTE_REST,1,
 NOTE_E4,881, NOTE_REST,1, NOTE_E4,587, NOTE_REST,1, NOTE_D4,292, NOTE_REST,1, NOTE_C4,292, NOTE_REST,1,
 NOTE_B3,587, NOTE_REST,1, NOTE_B3,292, NOTE_REST,1, NOTE_B3,292, NOTE_REST,1, NOTE_D4,587, NOTE_REST,1,
 NOTE_D4,292, NOTE_REST,1, NOTE_D4,292, NOTE_REST,1, NOTE_D4,292, NOTE_REST,1, NOTE_G4,881, NOTE_REST,1,
 NOTE_G4,587, NOTE_REST,1, NOTE_D4,292, NOTE_REST,1, NOTE_G4,292, NOTE_REST,1, NOTE_D4,292, NOTE_REST,1,
 NOTE_FS4,881, NOTE_REST,1, NOTE_FS4,587, NOTE_REST,1, NOTE_D4,292, NOTE_REST,1, NOTE_FS4,292, NOTE_REST,1,
 NOTE_D4,292, NOTE_REST,1, NOTE_E4,881, NOTE_REST,1, NOTE_E4,587, NOTE_REST,1, NOTE_D4,292, NOTE_REST,1,
 NOTE_C4,292, NOTE_REST,1, NOTE_B3,587, NOTE_REST,1, NOTE_B3,292, NOTE_REST,1, NOTE_B3,292, NOTE_REST,1,
 NOTE_D4,587, NOTE_REST,1, NOTE_D4,292, NOTE_REST,1, NOTE_D4,292, NOTE_REST,1, NOTE_D4,292, NOTE_REST,1,
 NOTE_G4,1763, NOTE_REST,295, NOTE_G4,292, NOTE_REST,1, NOTE_B4,292, NOTE_REST,1, NOTE_B4,292, NOTE_REST,1,
 NOTE_B4,292, NOTE_REST,1, NOTE_B4,292, NOTE_REST,1, NOTE_B4,145, NOTE_REST,1, NOTE_G4,145, NOTE_REST,1,
 NOTE_A4,587, NOTE_REST,1, NOTE_B4,292, NOTE_REST,1, NOTE_C5,145, NOTE_REST,1, NOTE_C5,145, NOTE_REST,1,
 NOTE_C5,292, NOTE_REST,1, NOTE_C5,292, NOTE_REST,1, NOTE_B4,145, NOTE_REST,1, NOTE_G4,292, NOTE_REST,1,
 NOTE_G4,439, NOTE_REST,295, NOTE_C5,292, NOTE_REST,1, NOTE_E5,881, NOTE_REST,1, NOTE_E5,292, NOTE_REST,1,
 NOTE_E5,292, NOTE_REST,1, NOTE_C5,292, NOTE_REST,1, NOTE_C5,292, NOTE_REST,1, NOTE_B4,881, NOTE_REST,1471,
 NOTE_G4,292, NOTE_REST,1, NOTE_B4,145, NOTE_REST,1, NOTE_B4,145, NOTE_REST,1, NOTE_B4,292, NOTE_REST,1,
 NOTE_B4,145, NOTE_REST,1, NOTE_B4,145, NOTE_REST,1, NOTE_G4,292, NOTE_REST,1, NOTE_G4,145, NOTE_REST,1,
 NOTE_A4,439, NOTE_REST,295, NOTE_B4,292, NOTE_REST,1, NOTE_C5,292, NOTE_REST,1, NOTE_C5,292, NOTE_REST,1,
 NOTE_C5,292, NOTE_REST,1, NOTE_D5,292, NOTE_REST,1, NOTE_B4,145, NOTE_REST,1, NOTE_G4,145, NOTE_REST,1,
 NOTE_G4,292, NOTE_REST,295, NOTE_G4,292, NOTE_REST,1, NOTE_E5,587, NOTE_REST,1, NOTE_D5,587, NOTE_REST,1,
 NOTE_D5,587, NOTE_REST,1, NOTE_E5,292, NOTE_REST,1, NOTE_B4,881, NOTE_REST,1765, NOTE_E4,292, NOTE_REST,1,
 NOTE_E4,292, NOTE_REST,1, NOTE_E4,292, NOTE_REST,1, NOTE_D4,292, NOTE_REST,1, NOTE_CS4,881, NOTE_REST,1,
 NOTE_CS4,292, NOTE_REST,1, NOTE_D4,881, NOTE_REST,1, NOTE_D4,1469, NOTE_REST,1, NOTE_E4,292, NOTE_REST,1,
 NOTE_E4,292, NOTE_REST,1, NOTE_E4,292, NOTE_REST,1, NOTE_D4,292, NOTE_REST,1, NOTE_CS4,881, NOTE_REST,1,
 NOTE_CS4,292, NOTE_REST,1, NOTE_D4,881, NOTE_REST,1, NOTE_D4,1469, NOTE_REST,1, NOTE_E4,292, NOTE_REST,1,
 NOTE_E4,292, NOTE_REST,1, NOTE_E4,292, NOTE_REST,1, NOTE_D4,292, NOTE_REST,1, NOTE_CS4,881, NOTE_REST,1,
 NOTE_CS4,292, NOTE_REST,1, NOTE_D4,1175, NOTE_REST,1, NOTE_B3,587, NOTE_REST,1, NOTE_D4,587, NOTE_REST,1,
 NOTE_C4,1175, NOTE_REST,1, NOTE_B3,1175, NOTE_REST,1, NOTE_A3,2351, NOTE_REST,1, NOTE_C4,1175, NOTE_REST,1,
 NOTE_B3,1175, NOTE_REST,1, NOTE_D4,292, NOTE_REST,1, NOTE_D4,587, NOTE_REST,1, NOTE_D4,292, NOTE_REST,1,
 NOTE_D4,292, NOTE_REST,1, NOTE_D4,587, NOTE_REST,1, NOTE_D4,292, NOTE_REST,1, NOTE_G4,881, NOTE_REST,1,
 NOTE_G4,587, NOTE_REST,1, NOTE_D4,292, NOTE_REST,1, NOTE_G4,292, NOTE_REST,1, NOTE_D4,292, NOTE_REST,1,
 NOTE_FS4,881, NOTE_REST,1, NOTE_FS4,587, NOTE_REST,1, NOTE_D4,292, NOTE_REST,1, NOTE_FS4,292, NOTE_REST,1,
 NOTE_D4,292, NOTE_REST,1, NOTE_E4,881, NOTE_REST,1, NOTE_E4,587, NOTE_REST,1, NOTE_D4,292, NOTE_REST,1,
 NOTE_C4,292, NOTE_REST,1, NOTE_B3,587, NOTE_REST,1, NOTE_B3,292, NOTE_REST,1, NOTE_B3,292, NOTE_REST,1,
 NOTE_D4,587, NOTE_REST,1, NOTE_D4,292, NOTE_REST,1, NOTE_D4,292, NOTE_REST,1, NOTE_D4,292, NOTE_REST,1,
 NOTE_G4,881, NOTE_REST,1, NOTE_G4,587, NOTE_REST,1, NOTE_D4,292, NOTE_REST,1, NOTE_G4,292, NOTE_REST,1,
 NOTE_D4,292, NOTE_REST,1, NOTE_FS4,881, NOTE_REST,1, NOTE_FS4,587, NOTE_REST,1, NOTE_D4,292, NOTE_REST,1,
 NOTE_FS4,292, NOTE_REST,1, NOTE_D4,292, NOTE_REST,1, NOTE_E4,881, NOTE_REST,1, NOTE_E4,587, NOTE_REST,1,
 NOTE_D4,292, NOTE_REST,1, NOTE_C4,292, NOTE_REST,1, NOTE_B3,587, NOTE_REST,1, NOTE_B3,292, NOTE_REST,1,
 NOTE_B3,292, NOTE_REST,1, NOTE_D4,587, NOTE_REST,1, NOTE_D4,292, NOTE_REST,1, NOTE_D4,292, NOTE_REST,1,
 NOTE_D4,292, NOTE_REST,1, NOTE_G4,1763, NOTE_REST,295, NOTE_G4,292, NOTE_REST,1, NOTE_E4,881, NOTE_REST,1,
 NOTE_E4,587, NOTE_REST,1, NOTE_D4,292, NOTE_REST,1, NOTE_C4,292, NOTE_REST,1, NOTE_B3,1175, NOTE_REST,1,
 NOTE_B3,587, NOTE_REST,1, NOTE_B3,292, NOTE_REST,1, NOTE_A3,292, NOTE_REST,1, NOTE_B3,292, NOTE_REST,1,
 NOTE_C4,881, NOTE_REST,1, NOTE_C4,587, NOTE_REST,1, NOTE_C4,292, NOTE_REST,1, NOTE_B3,292, NOTE_REST,1,
 NOTE_C4,292, NOTE_REST,1, NOTE_D4,881, NOTE_REST,1, NOTE_D4,587, NOTE_REST,1, NOTE_D4,292, NOTE_REST,1,
 NOTE_C4,292, NOTE_REST,1, NOTE_D4,292, NOTE_REST,1, NOTE_E4,881, NOTE_REST,1, NOTE_E4,587, NOTE_REST,1,
 NOTE_D4,292, NOTE_REST,1, NOTE_C4,292, NOTE_REST,1, NOTE_B3,1175, NOTE_REST,1, NOTE_B3,587, NOTE_REST,1,
 NOTE_B3,292, NOTE_REST,1, NOTE_A3,292, NOTE_REST,1, NOTE_B3,292, NOTE_REST,1, NOTE_C4,881, NOTE_REST,1,
 NOTE_C4,587, NOTE_REST,1, NOTE_C4,292, NOTE_REST,1, NOTE_B3,292, NOTE_REST,1, NOTE_B3,292, NOTE_REST,1,
 NOTE_A3,292, NOTE_REST,1, NOTE_A3,292, NOTE_REST,1, NOTE_A3,292, NOTE_REST,1, NOTE_A3,292, NOTE_REST,1,
 NOTE_A3,292, NOTE_REST,1, NOTE_A3,292, NOTE_REST,1, NOTE_A3,292, NOTE_REST,1, NOTE_A3,292, NOTE_REST,1,
 NOTE_D4,292, NOTE_REST,1, NOTE_D4,292, NOTE_REST,1, NOTE_D4,292, NOTE_REST,1, NOTE_D4,292, NOTE_REST,1,
 NOTE_D4,292, NOTE_REST,1, NOTE_D4,292, NOTE_REST,1, NOTE_D4,292, NOTE_REST,1, NOTE_D4,292, NOTE_REST,1,
 NOTE_G5,292, NOTE_REST,1, NOTE_D5,292, NOTE_REST,1, NOTE_D5,587, NOTE_REST,1, NOTE_D5,145, NOTE_REST,1,
 NOTE_C5,145, NOTE_REST,1, NOTE_B4,881, NOTE_REST,1, NOTE_G5,881, NOTE_REST,1, NOTE_G5,587, NOTE_REST,1,
 NOTE_G5,292, NOTE_REST,1, NOTE_G5,292, NOTE_REST,1, NOTE_G5,292, NOTE_REST,1, NOTE_FS5,881, NOTE_REST,1,
 NOTE_FS5,587, NOTE_REST,1, NOTE_FS5,292, NOTE_REST,1, NOTE_FS5,292, NOTE_REST,1, NOTE_FS5,292, NOTE_REST,1,
 NOTE_E5,881, NOTE_REST,1, NOTE_E5,587, NOTE_REST,1, NOTE_E5,292, NOTE_REST,1, NOTE_E5,292, NOTE_REST,1,
 NOTE_E5,292, NOTE_REST,1, NOTE_B4,881, NOTE_REST,1, NOTE_D5,587, NOTE_REST,1, NOTE_B4,292, NOTE_REST,1,
 NOTE_D5,292, NOTE_REST,1, NOTE_B4,292, NOTE_REST,1, NOTE_G4,881, NOTE_REST,1, NOTE_G4,881, NOTE_REST,1,
 NOTE_G4,587, NOTE_REST,1, NOTE_FS4,881, NOTE_REST,1, NOTE_FS4,881, NOTE_REST,1, NOTE_FS4,587, NOTE_REST,1,
 NOTE_E4,881, NOTE_REST,1, NOTE_E4,881, NOTE_REST,1, NOTE_E4,587, NOTE_REST,1, NOTE_B3,881, NOTE_REST,1,
 NOTE_D4,881, NOTE_REST,1, NOTE_D4,587, NOTE_REST,1, NOTE_G4,881, NOTE_REST,1, NOTE_G4,881, NOTE_REST,1,
 NOTE_G4,587, NOTE_REST,1, NOTE_FS4,881, NOTE_REST,1, NOTE_FS4,881, NOTE_REST,1, NOTE_FS4,587, NOTE_REST,1,
 NOTE_E4,881, NOTE_REST,1, NOTE_E4,881, NOTE_REST,1, NOTE_E4,587, NOTE_REST,1, NOTE_B3,881, NOTE_REST,1,
 NOTE_D4,881, NOTE_REST,1, NOTE_D4,587, NOTE_REST,1, NOTE_G4,881, NOTE_REST,1, NOTE_G4,881, NOTE_REST,1,
 NOTE_G4,587, NOTE_REST,1, NOTE_FS4,881, NOTE_REST,1, NOTE_FS4,881, NOTE_REST,1, NOTE_FS4,587, NOTE_REST,1,
 NOTE_E4,881, NOTE_REST,1, NOTE_E4,881, NOTE_REST,1, NOTE_E4,587, NOTE_REST,1, NOTE_B3,881, NOTE_REST,1,
 NOTE_D4,881, NOTE_REST,1, NOTE_D4,587, NOTE_REST,1, NOTE_E5,292, NOTE_REST,1, NOTE_E5,292, NOTE_REST,1,
 NOTE_E5,292, NOTE_REST,1, NOTE_D5,292, NOTE_REST,1, NOTE_CS5,881, NOTE_REST,1, NOTE_CS5,292, NOTE_REST,1,
 NOTE_D4,881, NOTE_REST,1, NOTE_D4,292, NOTE_REST,1, NOTE_B3,1175, NOTE_REST,1, NOTE_C4,1175, NOTE_REST,1,
 NOTE_B3,1175, NOTE_REST,1, NOTE_A3,1175, NOTE_REST,1, NOTE_B4,292, NOTE_REST,1, NOTE_D5,292, NOTE_REST,1,
 NOTE_B4,145, NOTE_REST,1, NOTE_A4,145, NOTE_REST,1, NOTE_G4,292, NOTE_REST,1, NOTE_D4,2351,
 0, 1, -1, -1
};
// This score contains 2846 bytes.
// 4 notes had to be skipped.
