// ArduboyTones stream for file "dancingQueen.mid" created by MIDI2TONES V1.0.0 on Tue Dec 10 00:15:19 2019
// command line: C:\Users\cnorf\Downloads\midi2tones-master\midi2tones_64bit.exe -o2 -c8 dancingQueen 
//   From channel 3
const int score2[] = {
 NOTE_REST,23306, NOTE_B5,585, NOTE_REST,12, NOTE_CS6,149, NOTE_CS6,6, NOTE_REST,124, NOTE_REST,18, NOTE_A5,1774,
 NOTE_REST,317, NOTE_CS6,572, NOTE_REST,24, NOTE_B5,80, NOTE_REST,217, NOTE_B5,1108, NOTE_REST,385, NOTE_CS6,541,
 NOTE_REST,56, NOTE_B5,74, NOTE_REST,224, NOTE_B5,597, NOTE_B5,6, NOTE_REST,803, NOTE_REST,87, NOTE_A5,441,
 NOTE_REST,6, NOTE_B5,441, NOTE_REST,6, NOTE_GS5,292, NOTE_REST,6, NOTE_A5,410, NOTE_REST,37, NOTE_B5,448,
 NOTE_GS5,292, NOTE_REST,6, NOTE_A5,149, NOTE_GS5,149, NOTE_FS5,815, NOTE_REST,80, NOTE_CS6,261, NOTE_REST,37,
 NOTE_B5,149, NOTE_CS6,149, NOTE_B5,149, NOTE_A5,441, NOTE_REST,6, NOTE_GS5,404, NOTE_REST,43, NOTE_A5,99,
 NOTE_REST,348, NOTE_A5,1263, NOTE_REST,230, NOTE_GS5,392, NOTE_REST,56, NOTE_A5,93, NOTE_REST,354, NOTE_A5,846,
 NOTE_REST,49, NOTE_B5,105, NOTE_REST,43, NOTE_A5,93, NOTE_REST,205, NOTE_A5,105, NOTE_REST,43, NOTE_GS5,429,
 NOTE_REST,18, NOTE_A5,118, NOTE_REST,329, NOTE_A5,3666, NOTE_REST,4998, NOTE_CS5,267, NOTE_REST,31, NOTE_E5,68,
 NOTE_REST,80, NOTE_E5,105, NOTE_REST,192, NOTE_E5,105, NOTE_REST,192, NOTE_E5,37, NOTE_REST,112, NOTE_E5,105,
 NOTE_REST,192, NOTE_E5,87, NOTE_REST,211, NOTE_E5,2390, NOTE_REST,597, NOTE_CS5,217, NOTE_REST,80, NOTE_E5,93,
 NOTE_REST,56, NOTE_E5,93, NOTE_REST,205, NOTE_E5,105, NOTE_REST,192, NOTE_E5,74, NOTE_REST,74, NOTE_E5,112,
 NOTE_REST,186, NOTE_E5,105, NOTE_REST,192, NOTE_CS5,2079, NOTE_REST,161, NOTE_B4,105, NOTE_REST,43, NOTE_CS5,130,
 NOTE_REST,18, NOTE_B4,236, NOTE_REST,211, NOTE_B4,180, NOTE_REST,118, NOTE_B4,74, NOTE_REST,74, NOTE_B4,136,
 NOTE_REST,161, NOTE_B4,62, NOTE_REST,87, NOTE_B4,298, NOTE_CS5,205, NOTE_REST,93, NOTE_CS5,149, NOTE_REST,747,
 NOTE_B4,224, NOTE_REST,74, NOTE_B4,62, NOTE_REST,87, NOTE_B4,149, NOTE_REST,149, NOTE_B4,93, NOTE_REST,56,
 NOTE_CS5,466, NOTE_REST,429, NOTE_B4,149, NOTE_B4,12, NOTE_REST,99, NOTE_REST,186, NOTE_GS4,136, NOTE_REST,12,
 NOTE_E4,192, NOTE_REST,255, NOTE_FS4,62, NOTE_REST,87, NOTE_FS4,143, NOTE_REST,155, NOTE_FS4,3280, NOTE_REST,603,
 NOTE_CS5,255, NOTE_REST,43, NOTE_E5,68, NOTE_REST,80, NOTE_E5,105, NOTE_REST,192, NOTE_E5,105, NOTE_REST,192,
 NOTE_E5,56, NOTE_REST,93, NOTE_E5,242, NOTE_REST,56, NOTE_A5,342, NOTE_REST,255, NOTE_FS5,2303, NOTE_REST,385,
 NOTE_CS5,230, NOTE_REST,68, NOTE_E5,74, NOTE_REST,74, NOTE_E5,118, NOTE_REST,180, NOTE_E5,105, NOTE_REST,192,
 NOTE_E5,62, NOTE_REST,87, NOTE_E5,217, NOTE_REST,80, NOTE_E5,149, NOTE_REST,747, NOTE_CS5,2128, NOTE_REST,261,
 NOTE_B4,192, NOTE_REST,105, NOTE_B4,49, NOTE_REST,99, NOTE_B4,155, NOTE_REST,143, NOTE_B4,56, NOTE_REST,93,
 NOTE_B4,217, NOTE_REST,80, NOTE_CS5,192, NOTE_REST,105, NOTE_CS5,143, NOTE_REST,753, NOTE_B4,205, NOTE_REST,93,
 NOTE_B4,56, NOTE_REST,93, NOTE_B4,136, NOTE_REST,161, NOTE_B4,87, NOTE_REST,62, NOTE_CS5,547, NOTE_REST,348,
 NOTE_B4,143, NOTE_REST,6, NOTE_A4,105, NOTE_REST,192, NOTE_GS4,112, NOTE_REST,37, NOTE_E4,236, NOTE_REST,211,
 NOTE_FS4,68, NOTE_REST,80, NOTE_FS4,136, NOTE_REST,161, NOTE_FS4,2153, NOTE_REST,535, NOTE_A4,286, NOTE_REST,161,
 NOTE_B4,336, NOTE_REST,112, NOTE_CS5,112, NOTE_REST,186, NOTE_CS5,317, NOTE_REST,130, NOTE_D5,112, NOTE_REST,336,
 NOTE_D5,1325, NOTE_REST,18, NOTE_CS5,105, NOTE_REST,43, NOTE_B4,946, NOTE_REST,249, NOTE_E5,329, NOTE_REST,118,
 NOTE_FS5,305, NOTE_REST,143, NOTE_GS5,124, NOTE_REST,174, NOTE_GS5,385, NOTE_REST,62, NOTE_A5,118, NOTE_REST,329,
 NOTE_A5,1251, NOTE_REST,242, NOTE_GS5,317, NOTE_REST,130, NOTE_A5,149, NOTE_REST,298, NOTE_A5,554, NOTE_REST,43,
 NOTE_B5,547, NOTE_REST,49, NOTE_A5,124, NOTE_REST,174, NOTE_GS5,404, NOTE_REST,43, NOTE_A5,130, NOTE_REST,317,
 NOTE_A5,3162, NOTE_REST,722, NOTE_GS5,317, NOTE_REST,130, NOTE_A5,112, NOTE_REST,336, NOTE_A5,1207, NOTE_REST,286,
 NOTE_GS5,311, NOTE_REST,136, NOTE_A5,168, NOTE_REST,280, NOTE_A5,572, NOTE_REST,24, NOTE_B5,585, NOTE_REST,12,
 NOTE_A5,273, NOTE_REST,24, NOTE_B5,410, NOTE_REST,37, NOTE_CS6,118, NOTE_REST,329, NOTE_CS6,859, NOTE_REST,37,
 NOTE_B5,591, NOTE_REST,6, NOTE_CS6,149, NOTE_B5,124, NOTE_REST,24, NOTE_A5,1730, NOTE_REST,361, NOTE_CS6,392,
 NOTE_REST,205, NOTE_B5,211, NOTE_REST,87, NOTE_B5,1039, NOTE_REST,454, NOTE_CS6,305, NOTE_REST,292, NOTE_B5,199,
 NOTE_REST,99, NOTE_B5,597, NOTE_B5,43, NOTE_REST,690, NOTE_REST,161, NOTE_A5,435, NOTE_REST,12, NOTE_B5,448,
 NOTE_B5,6, NOTE_REST,286, NOTE_REST,6, NOTE_A5,379, NOTE_REST,68, NOTE_B5,448, NOTE_B5,37, NOTE_REST,255,
 NOTE_REST,6, NOTE_A5,143, NOTE_REST,6, NOTE_GS5,143, NOTE_REST,6, NOTE_FS5,846, NOTE_REST,49, NOTE_CS6,286,
 NOTE_REST,12, NOTE_B5,149, NOTE_B5,31, NOTE_REST,99, NOTE_REST,18, NOTE_B5,143, NOTE_REST,6, NOTE_A5,435,
 NOTE_REST,12, NOTE_GS5,417, NOTE_REST,31, NOTE_A5,136, NOTE_REST,311, NOTE_A5,1319, NOTE_REST,174, NOTE_GS5,361,
 NOTE_REST,87, NOTE_A5,112, NOTE_REST,336, NOTE_A5,883, NOTE_REST,12, NOTE_B5,143, NOTE_REST,6, NOTE_A5,105,
 NOTE_REST,192, NOTE_A5,118, NOTE_REST,31, NOTE_GS5,379, NOTE_REST,68, NOTE_A5,124, NOTE_REST,323, NOTE_A5,6299,
 NOTE_REST,7146, NOTE_CS5,255, NOTE_REST,43, NOTE_E5,68, NOTE_REST,80, NOTE_E5,105, NOTE_REST,192, NOTE_E5,99,
 NOTE_REST,199, NOTE_E5,62, NOTE_REST,87, NOTE_E5,161, NOTE_REST,136, NOTE_E5,292, NOTE_REST,6, NOTE_FS5,2639,
 NOTE_REST,348, NOTE_CS5,242, NOTE_REST,56, NOTE_E5,80, NOTE_REST,68, NOTE_E5,112, NOTE_REST,186, NOTE_E5,105,
 NOTE_REST,192, NOTE_E5,68, NOTE_REST,80, NOTE_E5,211, NOTE_REST,87, NOTE_E5,217, NOTE_REST,678, NOTE_CS5,2185,
 NOTE_REST,205, NOTE_B4,168, NOTE_REST,130, NOTE_B4,68, NOTE_REST,80, NOTE_B4,112, NOTE_REST,186, NOTE_B4,74,
 NOTE_REST,74, NOTE_B4,261, NOTE_REST,37, NOTE_CS5,217, NOTE_REST,80, NOTE_CS5,124, NOTE_REST,771, NOTE_B4,224,
 NOTE_REST,74, NOTE_B4,56, NOTE_REST,93, NOTE_B4,161, NOTE_REST,136, NOTE_B4,105, NOTE_REST,43, NOTE_CS5,448,
 NOTE_REST,448, NOTE_B4,136, NOTE_REST,12, NOTE_A4,99, NOTE_REST,199, NOTE_GS4,112, NOTE_REST,37, NOTE_E4,286,
 NOTE_REST,161, NOTE_FS4,49, NOTE_REST,99, NOTE_FS4,136, NOTE_REST,161, NOTE_FS4,2185, NOTE_REST,504, NOTE_A4,273,
 NOTE_REST,174, NOTE_B4,230, NOTE_REST,217, NOTE_CS5,149, NOTE_REST,149, NOTE_CS5,286, NOTE_REST,161, NOTE_D5,93,
 NOTE_REST,354, NOTE_D5,1319, NOTE_REST,24, NOTE_CS5,105, NOTE_REST,43, NOTE_B4,964, NOTE_REST,230, NOTE_E5,311,
 NOTE_REST,136, NOTE_FS5,273, NOTE_REST,174, NOTE_GS5,118, NOTE_REST,180, NOTE_GS5,323, NOTE_REST,124, NOTE_A5,118,
 NOTE_REST,329, NOTE_A5,1288, NOTE_REST,205, NOTE_GS5,311, NOTE_REST,136, NOTE_A5,155, NOTE_REST,292, NOTE_A5,566,
 NOTE_REST,31, NOTE_B5,473, NOTE_REST,124, NOTE_A5,118, NOTE_REST,180, NOTE_GS5,404, NOTE_REST,43, NOTE_A5,130,
 NOTE_REST,317, NOTE_A5,3548, NOTE_REST,336, NOTE_GS5,286, NOTE_REST,161, NOTE_A5,105, NOTE_REST,342, NOTE_A5,1226,
 NOTE_REST,267, NOTE_GS5,292, NOTE_REST,155, NOTE_A5,124, NOTE_REST,323, NOTE_A5,547, NOTE_REST,49, NOTE_B5,591,
 NOTE_REST,6, NOTE_A5,273, NOTE_REST,24, NOTE_B5,385, NOTE_REST,62, NOTE_CS6,136, NOTE_REST,311, NOTE_CS6,890,
 NOTE_REST,6, NOTE_B5,591, NOTE_REST,6, NOTE_CS6,136, NOTE_REST,12, NOTE_B5,130, NOTE_REST,18, NOTE_A5,1799,
 NOTE_REST,292, NOTE_CS6,554, NOTE_REST,43, NOTE_B5,124, NOTE_REST,174, NOTE_B5,1114, NOTE_REST,379, NOTE_CS6,554,
 NOTE_REST,43, NOTE_B5,112, NOTE_REST,186, NOTE_B5,597, NOTE_B5,6, NOTE_REST,883, NOTE_REST,6, NOTE_A5,385,
 NOTE_REST,62, NOTE_B5,192, NOTE_REST,255, NOTE_GS5,292, NOTE_REST,6, NOTE_A5,342, NOTE_REST,105, NOTE_B5,348,
 NOTE_REST,99, NOTE_GS5,273, NOTE_REST,24, NOTE_A5,143, NOTE_REST,6, NOTE_GS5,136, NOTE_REST,12, NOTE_FS5,865,
 NOTE_REST,31, NOTE_CS6,280, NOTE_REST,18, NOTE_B5,124, NOTE_REST,24, NOTE_CS6,143, NOTE_REST,6, NOTE_B5,149,
 NOTE_A5,435, NOTE_REST,12, NOTE_GS5,410, NOTE_REST,37, NOTE_A5,130, NOTE_REST,317, NOTE_A5,1313, NOTE_REST,180,
 NOTE_GS5,348, NOTE_REST,99, NOTE_A5,130, NOTE_REST,317, NOTE_A5,809, NOTE_REST,87, NOTE_B5,149, NOTE_A5,99,
 NOTE_REST,199, NOTE_A5,105, NOTE_REST,43, NOTE_GS5,367, NOTE_REST,80, NOTE_A5,149, NOTE_REST,298, NOTE_A5,3815,
 NOTE_REST,4251, NOTE_B5,136, NOTE_REST,12, NOTE_A5,87, NOTE_REST,211, NOTE_A5,105, NOTE_REST,43, NOTE_GS5,267,
 NOTE_REST,180, NOTE_A5,161, NOTE_REST,286, NOTE_A5,8154,
 0, 1, -1, -1
};
// This score contains 2290 bytes.
// 8 notes had to be skipped.
