// ArduboyTones stream for file "dancingQueen.mid" created by MIDI2TONES V1.0.0 on Tue Dec 10 00:16:00 2019
// command line: C:\Users\cnorf\Downloads\midi2tones-master\midi2tones_64bit.exe -o2 -c1024 dancingQueen 
//   From channel 10
const int score4[] = {
 NOTE_REST,13614, NOTE_A6,112, NOTE_REST,18, NOTE_A6,448, NOTE_REST,18, NOTE_GS6,112, NOTE_REST,18, NOTE_GS6,448,
 NOTE_REST,18, NOTE_FS6,112, NOTE_REST,18, NOTE_FS6,1232, NOTE_FS6,6, NOTE_REST,12, NOTE_REST,7115, NOTE_E6,578,
 NOTE_REST,18, NOTE_D6,877, NOTE_REST,18, NOTE_CS6,1164, NOTE_CS6,6, NOTE_REST,12, NOTE_REST,7482, NOTE_A5,448,
 NOTE_REST,18, NOTE_B5,410, NOTE_REST,18, NOTE_CS6,280, NOTE_REST,18, NOTE_DS6,448, NOTE_REST,18, NOTE_E6,410,
 NOTE_REST,18, NOTE_FS6,280, NOTE_REST,18, NOTE_E6,2203, NOTE_REST,6, NOTE_REST,4233, NOTE_A6,112, NOTE_REST,18,
 NOTE_A6,448, NOTE_REST,18, NOTE_GS6,112, NOTE_REST,18, NOTE_GS6,448, NOTE_REST,18, NOTE_FS6,112, NOTE_REST,18,
 NOTE_FS6,1462, NOTE_FS6,6, NOTE_FS6,12, NOTE_REST,13925, NOTE_A5,136, NOTE_REST,6, NOTE_REST,155, NOTE_GS5,149,
 NOTE_GS5,136, NOTE_REST,12, NOTE_E5,80, NOTE_REST,12, NOTE_REST,37, NOTE_D5,273, NOTE_D5,12, NOTE_REST,180,
 NOTE_E5,105, NOTE_E5,43, NOTE_REST,280, NOTE_E5,597, NOTE_E5,24, NOTE_E5,31, NOTE_REST,6, NOTE_REST,6,
 NOTE_REST,99, NOTE_A5,124, NOTE_REST,12, NOTE_REST,161, NOTE_GS5,143, NOTE_GS5,31, NOTE_REST,124, NOTE_E5,93,
 NOTE_REST,37, NOTE_D5,448, NOTE_REST,18, NOTE_E5,410, NOTE_REST,18, NOTE_E5,1475, NOTE_REST,18, NOTE_E5,448,
 NOTE_REST,18, NOTE_FS5,410, NOTE_REST,18, NOTE_FS5,1475, NOTE_REST,18, NOTE_E6,448, NOTE_REST,18, NOTE_FS6,410,
 NOTE_REST,18, NOTE_FS6,1238, NOTE_REST,9088, NOTE_A5,136, NOTE_REST,161, NOTE_GS5,143, NOTE_GS5,74, NOTE_REST,80,
 NOTE_E5,112, NOTE_E5,18, NOTE_E5,18, NOTE_REST,249, NOTE_REST,6, NOTE_REST,192, NOTE_E5,105, NOTE_E5,18,
 NOTE_REST,305, NOTE_E5,491, NOTE_REST,31, NOTE_REST,74, NOTE_A5,56, NOTE_REST,6, NOTE_REST,105, NOTE_A5,130,
 NOTE_A5,18, NOTE_REST,149, NOTE_GS5,124, NOTE_GS5,56, NOTE_REST,118, NOTE_E5,93, NOTE_E5,37, NOTE_E5,6,
 NOTE_REST,249, NOTE_REST,12, NOTE_REST,199, NOTE_E5,99, NOTE_E5,37, NOTE_REST,292, NOTE_E5,466, NOTE_E5,43,
 NOTE_REST,87, NOTE_E5,684, NOTE_E5,56, NOTE_REST,155, NOTE_E5,448, NOTE_REST,18, NOTE_FS5,410, NOTE_REST,18,
 NOTE_FS5,1475, NOTE_REST,18, NOTE_E6,448, NOTE_REST,18, NOTE_FS6,410, NOTE_REST,18, NOTE_FS6,1363, NOTE_REST,12,
 NOTE_REST,6561, NOTE_A6,49, NOTE_REST,6, NOTE_REST,12, NOTE_REST,62, NOTE_A6,522, NOTE_A6,12, NOTE_REST,6,
 NOTE_REST,12, NOTE_REST,1705, NOTE_A6,62, NOTE_REST,24, NOTE_REST,43, NOTE_A6,516, NOTE_A6,12, NOTE_REST,18,
 NOTE_REST,1711, NOTE_CS7,112, NOTE_REST,18, NOTE_A6,448, NOTE_REST,18, NOTE_GS6,112, NOTE_REST,18, NOTE_GS6,448,
 NOTE_REST,18, NOTE_FS6,112, NOTE_REST,18, NOTE_FS6,1263, NOTE_FS6,6, NOTE_FS6,6, NOTE_REST,12, NOTE_REST,2166,
 NOTE_A6,49, NOTE_REST,6, NOTE_REST,6, NOTE_REST,68, NOTE_A6,541, NOTE_REST,12, NOTE_REST,6, NOTE_REST,4089,
 NOTE_CS7,112, NOTE_REST,18, NOTE_CS7,448, NOTE_REST,18, NOTE_B6,112, NOTE_REST,18, NOTE_B6,448, NOTE_REST,18,
 NOTE_A6,410, NOTE_REST,18, NOTE_E6,1307, NOTE_REST,6, NOTE_REST,18, NOTE_REST,7333, NOTE_A5,448, NOTE_REST,18,
 NOTE_B5,410, NOTE_REST,18, NOTE_CS6,280, NOTE_REST,18, NOTE_DS6,448, NOTE_REST,18, NOTE_E6,410, NOTE_REST,18,
 NOTE_FS6,280, NOTE_REST,18, NOTE_E6,2402, NOTE_REST,18, NOTE_REST,4021, NOTE_A6,112, NOTE_REST,18, NOTE_A6,448,
 NOTE_REST,18, NOTE_GS6,112, NOTE_REST,18, NOTE_GS6,448, NOTE_REST,18, NOTE_FS6,112, NOTE_REST,18, NOTE_FS6,1500,
 NOTE_REST,12, NOTE_REST,18675, NOTE_A5,99, NOTE_REST,6, NOTE_REST,192, NOTE_GS5,93, NOTE_GS5,49, NOTE_REST,155,
 NOTE_E5,74, NOTE_E5,31, NOTE_REST,24, NOTE_D5,261, NOTE_REST,205, NOTE_E5,74, NOTE_E5,18, NOTE_REST,336,
 NOTE_E5,423, NOTE_REST,118, NOTE_REST,56, NOTE_A5,49, NOTE_REST,118, NOTE_A5,93, NOTE_REST,18, NOTE_REST,186,
 NOTE_GS5,105, NOTE_GS5,18, NOTE_REST,174, NOTE_E5,87, NOTE_REST,6, NOTE_REST,37, NOTE_D5,286, NOTE_REST,180,
 NOTE_E5,136, NOTE_E5,18, NOTE_REST,273, NOTE_E5,429, NOTE_E5,62, NOTE_REST,105, NOTE_E5,597, NOTE_REST,93,
 NOTE_REST,205, NOTE_E5,323, NOTE_REST,124, NOTE_REST,18, NOTE_FS5,155, NOTE_REST,255, NOTE_REST,18, NOTE_FS5,1220,
 NOTE_REST,255, NOTE_REST,18, NOTE_E6,448, NOTE_REST,18, NOTE_FS6,410, NOTE_REST,18, NOTE_FS6,1344, NOTE_FS6,24,
 NOTE_REST,6567, NOTE_A6,49, NOTE_REST,6, NOTE_REST,74, NOTE_A6,622, NOTE_REST,6, NOTE_REST,12, NOTE_REST,1618,
 NOTE_B6,56, NOTE_REST,24, NOTE_REST,12, NOTE_REST,37, NOTE_B6,597, NOTE_B6,24, NOTE_REST,24, NOTE_REST,1612,
 NOTE_A6,112, NOTE_REST,18, NOTE_A6,448, NOTE_REST,18, NOTE_GS6,112, NOTE_REST,18, NOTE_GS6,448, NOTE_REST,18,
 NOTE_FS6,112, NOTE_REST,18, NOTE_FS6,1518, NOTE_FS6,12, NOTE_FS6,24, NOTE_REST,68, NOTE_REST,1830, NOTE_A6,37,
 NOTE_A6,6, NOTE_REST,18, NOTE_REST,68, NOTE_A6,597, NOTE_A6,18, NOTE_REST,43, NOTE_REST,6, NOTE_REST,1593,
 NOTE_D7,43, NOTE_REST,6, NOTE_REST,24, NOTE_REST,56, NOTE_A6,491, NOTE_A6,6, NOTE_A6,12, NOTE_A6,6,
 NOTE_REST,1743, NOTE_E7,112, NOTE_REST,18, NOTE_CS7,448, NOTE_REST,18, NOTE_B6,112, NOTE_REST,18, NOTE_B6,448,
 NOTE_REST,18, NOTE_A6,93, NOTE_A6,6, NOTE_A6,12, NOTE_REST,317, NOTE_E6,1437, NOTE_E6,6, NOTE_E6,6,
 NOTE_REST,4824, NOTE_A5,448, NOTE_REST,18, NOTE_B5,404, NOTE_REST,18, NOTE_REST,6, NOTE_GS5,280, NOTE_REST,18,
 NOTE_A5,448, NOTE_REST,18, NOTE_B5,429, NOTE_B5,6, NOTE_B5,18, NOTE_REST,255, NOTE_REST,18, NOTE_A5,31,
 NOTE_A5,417, NOTE_REST,18, NOTE_B5,398, NOTE_B5,31, NOTE_B5,37, NOTE_REST,261, NOTE_DS6,37, NOTE_DS6,410,
 NOTE_REST,18, NOTE_E6,417, NOTE_REST,12, NOTE_FS6,37, NOTE_FS6,242, NOTE_REST,18, NOTE_E6,2340, NOTE_REST,37,
 NOTE_REST,8845, NOTE_A6,112, NOTE_REST,18, NOTE_A6,448, NOTE_REST,18, NOTE_GS6,112, NOTE_REST,18, NOTE_GS6,448,
 NOTE_REST,18, NOTE_FS6,43, NOTE_FS6,6, NOTE_REST,12, NOTE_REST,68, NOTE_FS6,1755, NOTE_FS6,12, NOTE_FS6,12,
 NOTE_REST,12, NOTE_REST,6442, NOTE_A6,112, NOTE_REST,18, NOTE_A6,448, NOTE_REST,18, NOTE_GS6,112, NOTE_REST,18,
 NOTE_GS6,448, NOTE_REST,18, NOTE_FS6,68, NOTE_REST,62, NOTE_FS6,1618, NOTE_FS6,24, NOTE_REST,12, NOTE_REST,6579,
 NOTE_CS7,112, NOTE_REST,18, NOTE_A6,448, NOTE_REST,18, NOTE_GS6,112, NOTE_REST,18, NOTE_GS6,448, NOTE_REST,18,
 NOTE_FS6,31, NOTE_FS6,6, NOTE_REST,18, NOTE_REST,74, NOTE_FS6,1220, NOTE_FS6,12, NOTE_FS6,12, NOTE_REST,6990,
 NOTE_A6,112, NOTE_REST,18, NOTE_A6,448, NOTE_REST,18, NOTE_GS6,112, NOTE_REST,18, NOTE_GS6,448, NOTE_REST,18,
 NOTE_FS6,49, NOTE_REST,12, NOTE_REST,6, NOTE_REST,6, NOTE_REST,56, NOTE_FS6,1774,
 0, 1, -1, -1
};
// This score contains 1786 bytes.
// 326 notes had to be skipped.
