// ArduboyTones stream for file "dancingQueen.mid" created by MIDI2TONES V1.0.0 on Tue Dec 10 00:14:57 2019
// command line: C:\Users\cnorf\Downloads\midi2tones-master\midi2tones_64bit.exe -o2 -c4 dancingQueen 
//   From channel 2
const int score1[] = {
 NOTE_REST,6499, NOTE_F7,24, NOTE_F7,24, NOTE_F7,24, NOTE_F7,24, NOTE_F7,24, NOTE_F7,24, NOTE_G6,24,
 NOTE_G6,24, NOTE_G6,24, NOTE_G6,24, NOTE_G6,24, NOTE_G6,24, NOTE_A5,24, NOTE_A5,24, NOTE_A5,24,
 NOTE_A5,24, NOTE_A5,24, NOTE_A5,24, NOTE_A4,24, NOTE_A4,24, NOTE_A4,24, NOTE_A4,24, NOTE_A4,24,
 NOTE_A4,24, NOTE_REST,24, NOTE_REST,24, NOTE_REST,24, NOTE_REST,24, NOTE_REST,143, NOTE_A4,68, NOTE_REST,12,
 NOTE_REST,348, NOTE_A4,186, NOTE_A4,31, NOTE_REST,6, NOTE_REST,242, NOTE_A4,192, NOTE_A4,43, NOTE_REST,6,
 NOTE_REST,186, NOTE_A4,441, NOTE_A4,6, NOTE_REST,616, NOTE_A4,105, NOTE_A4,6, NOTE_REST,12, NOTE_REST,305,
 NOTE_A4,168, NOTE_A4,12, NOTE_REST,18, NOTE_REST,267, NOTE_A4,192, NOTE_A4,43, NOTE_REST,18, NOTE_REST,6,
 NOTE_REST,168, NOTE_A4,647, NOTE_A4,12, NOTE_REST,6, NOTE_REST,398, NOTE_A4,80, NOTE_REST,12, NOTE_REST,6,
 NOTE_REST,18, NOTE_REST,311, NOTE_A4,180, NOTE_A4,6, NOTE_A4,6, NOTE_A4,6, NOTE_REST,267, NOTE_A4,192,
 NOTE_REST,6, NOTE_REST,12, NOTE_REST,217, NOTE_A4,659, NOTE_A4,24, NOTE_REST,12, NOTE_REST,18, NOTE_REST,348,
 NOTE_A4,105, NOTE_REST,6, NOTE_REST,317, NOTE_A4,168, NOTE_A4,12, NOTE_REST,12, NOTE_REST,6, NOTE_REST,267,
 NOTE_A4,192, NOTE_A4,6, NOTE_A4,24, NOTE_REST,6, NOTE_REST,199, NOTE_A4,672, NOTE_A4,18, NOTE_A4,12,
 NOTE_A4,18, NOTE_REST,342, NOTE_A4,99, NOTE_A4,6, NOTE_A4,12, NOTE_A4,31, NOTE_REST,280, NOTE_A4,174,
 NOTE_REST,18, NOTE_REST,273, NOTE_A4,199, NOTE_A4,6, NOTE_REST,6, NOTE_REST,24, NOTE_REST,192, NOTE_A4,703,
 NOTE_A4,68, NOTE_REST,18, NOTE_REST,273, NOTE_A4,130, NOTE_A4,6, NOTE_A4,6, NOTE_REST,286, NOTE_A4,168,
 NOTE_A4,6, NOTE_REST,6, NOTE_REST,286, NOTE_A4,186, NOTE_A4,12, NOTE_A4,6, NOTE_A4,18, NOTE_REST,205,
 NOTE_A4,535, NOTE_A4,18, NOTE_REST,24, NOTE_REST,6, NOTE_REST,479, NOTE_B4,118, NOTE_REST,18, NOTE_REST,18,
 NOTE_REST,12, NOTE_REST,261, NOTE_B4,155, NOTE_REST,12, NOTE_REST,37, NOTE_REST,18, NOTE_REST,242, NOTE_CS5,429,
 NOTE_CS5,12, NOTE_REST,12, NOTE_REST,37, NOTE_REST,236, NOTE_B4,249, NOTE_B4,6, NOTE_B4,56, NOTE_REST,286,
 NOTE_B4,242, NOTE_REST,12, NOTE_REST,18, NOTE_REST,24, NOTE_B4,143, NOTE_REST,6, NOTE_REST,6, NOTE_REST,441,
 NOTE_A4,1120, NOTE_A4,6, NOTE_REST,12, NOTE_REST,18, NOTE_REST,336, NOTE_B4,1263, NOTE_B4,37, NOTE_B4,12,
 NOTE_REST,24, NOTE_REST,155, NOTE_B4,161, NOTE_REST,31, NOTE_REST,18, NOTE_REST,87, NOTE_B4,242, NOTE_REST,37,
 NOTE_REST,24, NOTE_REST,43, NOTE_REST,249, NOTE_CS5,1269, NOTE_CS5,12, NOTE_CS5,24, NOTE_REST,6, NOTE_REST,180,
 NOTE_CS5,180, NOTE_REST,12, NOTE_REST,6, NOTE_REST,6, NOTE_REST,93, NOTE_CS5,186, NOTE_CS5,6, NOTE_CS5,12,
 NOTE_CS5,24, NOTE_REST,367, NOTE_CS5,273, NOTE_REST,24, NOTE_REST,12, NOTE_REST,18, NOTE_REST,136, NOTE_CS5,74,
 NOTE_CS5,6, NOTE_REST,12, NOTE_REST,336, NOTE_CS5,1101, NOTE_REST,43, NOTE_REST,6, NOTE_REST,6, NOTE_REST,336,
 NOTE_B4,298, NOTE_REST,6, NOTE_REST,6, NOTE_REST,24, NOTE_REST,130, NOTE_B4,68, NOTE_B4,6, NOTE_B4,12,
 NOTE_REST,6, NOTE_REST,336, NOTE_B4,423, NOTE_B4,18, NOTE_REST,24, NOTE_REST,130, NOTE_B4,68, NOTE_B4,6,
 NOTE_B4,6, NOTE_REST,217, NOTE_B4,267, NOTE_B4,31, NOTE_B4,6, NOTE_B4,24, NOTE_REST,435, NOTE_A4,136,
 NOTE_A4,18, NOTE_REST,6, NOTE_REST,267, NOTE_A4,186, NOTE_A4,12, NOTE_A4,12, NOTE_A4,6, NOTE_REST,249,
 NOTE_A4,161, NOTE_A4,18, NOTE_A4,18, NOTE_REST,230, NOTE_A4,778, NOTE_A4,43, NOTE_A4,6, NOTE_REST,6,
 NOTE_REST,230, NOTE_A4,112, NOTE_REST,6, NOTE_REST,12, NOTE_REST,298, NOTE_A4,199, NOTE_REST,43, NOTE_REST,24,
 NOTE_REST,6, NOTE_REST,192, NOTE_A4,236, NOTE_A4,24, NOTE_REST,6, NOTE_REST,161, NOTE_A4,722, NOTE_A4,18,
 NOTE_A4,43, NOTE_REST,280, NOTE_A4,93, NOTE_REST,12, NOTE_REST,12, NOTE_REST,12, NOTE_REST,298, NOTE_A4,236,
 NOTE_REST,18, NOTE_REST,211, NOTE_A4,192, NOTE_A4,49, NOTE_REST,31, NOTE_REST,155, NOTE_A4,697, NOTE_A4,80,
 NOTE_REST,24, NOTE_REST,6, NOTE_REST,255, NOTE_A4,87, NOTE_A4,6, NOTE_REST,12, NOTE_REST,323, NOTE_A4,205,
 NOTE_A4,24, NOTE_A4,12, NOTE_REST,224, NOTE_A4,161, NOTE_A4,31, NOTE_A4,12, NOTE_REST,18, NOTE_REST,205,
 NOTE_A4,734, NOTE_A4,6, NOTE_A4,24, NOTE_REST,1624, NOTE_A4,155, NOTE_REST,12, NOTE_REST,130, NOTE_A4,255,
 NOTE_A4,6, NOTE_A4,6, NOTE_REST,1823, NOTE_A4,136, NOTE_A4,6, NOTE_REST,6, NOTE_REST,149, NOTE_A4,217,
 NOTE_A4,6, NOTE_A4,24, NOTE_REST,348, NOTE_A4,603, NOTE_A4,18, NOTE_A4,12, NOTE_REST,261, NOTE_A4,1083,
 NOTE_A4,12, NOTE_REST,18, NOTE_REST,379, NOTE_A4,641, NOTE_A4,6, NOTE_REST,6, NOTE_REST,242, NOTE_A4,666,
 NOTE_REST,80, NOTE_REST,37, NOTE_REST,112, NOTE_B4,385, NOTE_REST,43, NOTE_REST,168, NOTE_A4,578, NOTE_A4,31,
 NOTE_REST,286, NOTE_A4,1207, NOTE_A4,24, NOTE_A4,6, NOTE_REST,255, NOTE_A4,572, NOTE_A4,24, NOTE_A4,37,
 NOTE_REST,261, NOTE_A4,1195, NOTE_REST,12, NOTE_REST,286, NOTE_E3,261, NOTE_REST,205, NOTE_E3,105, NOTE_E3,37,
 NOTE_REST,286, NOTE_E3,1213, NOTE_REST,37, NOTE_REST,242, NOTE_E3,317, NOTE_REST,149, NOTE_E3,136, NOTE_E3,18,
 NOTE_REST,273, NOTE_E3,1120, NOTE_REST,80, NOTE_REST,292, NOTE_E3,236, NOTE_REST,49, NOTE_REST,180, NOTE_FS3,112,
 NOTE_FS3,31, NOTE_REST,286, NOTE_FS3,1257, NOTE_REST,80, NOTE_REST,155, NOTE_E4,354, NOTE_REST,43, NOTE_REST,68,
 NOTE_FS4,99, NOTE_FS4,12, NOTE_REST,317, NOTE_FS4,1182, NOTE_REST,99, NOTE_REST,211, NOTE_A4,323, NOTE_REST,18,
 NOTE_REST,12, NOTE_REST,112, NOTE_A4,62, NOTE_REST,6, NOTE_REST,18, NOTE_REST,342, NOTE_A4,1220, NOTE_A4,37,
 NOTE_A4,37, NOTE_A4,6, NOTE_REST,192, NOTE_A4,311, NOTE_A4,6, NOTE_REST,12, NOTE_REST,12, NOTE_REST,124,
 NOTE_A4,56, NOTE_REST,12, NOTE_REST,6, NOTE_REST,12, NOTE_REST,342, NOTE_A4,1238, NOTE_A4,12, NOTE_A4,37,
 NOTE_REST,205, NOTE_A4,342, NOTE_A4,12, NOTE_REST,6, NOTE_REST,31, NOTE_REST,74, NOTE_A4,62, NOTE_A4,6,
 NOTE_REST,18, NOTE_REST,342, NOTE_A4,1220, NOTE_A4,37, NOTE_REST,43, NOTE_REST,192, NOTE_A4,336, NOTE_REST,12,
 NOTE_REST,6, NOTE_REST,112, NOTE_A4,68, NOTE_A4,18, NOTE_REST,342, NOTE_A4,1245, NOTE_A4,18, NOTE_REST,43,
 NOTE_REST,186, NOTE_E3,292, NOTE_REST,12, NOTE_REST,18, NOTE_REST,6, NOTE_REST,24, NOTE_REST,24, NOTE_REST,87,
 NOTE_E3,74, NOTE_E3,6, NOTE_E3,12, NOTE_E3,12, NOTE_E3,31, NOTE_REST,292, NOTE_E3,1182, NOTE_E3,6,
 NOTE_E3,43, NOTE_REST,261, NOTE_E3,336, NOTE_E3,18, NOTE_REST,6, NOTE_REST,12, NOTE_REST,18, NOTE_REST,74,
 NOTE_E3,80, NOTE_E3,12, NOTE_E3,18, NOTE_E3,62, NOTE_REST,255, NOTE_E3,1294, NOTE_E3,6, NOTE_E3,24,
 NOTE_E3,18, NOTE_REST,149, NOTE_E3,236, NOTE_REST,43, NOTE_REST,186, NOTE_FS3,112, NOTE_FS3,37, NOTE_REST,280,
 NOTE_FS3,417, NOTE_REST,49, NOTE_FS3,130, NOTE_FS3,168, NOTE_CS4,99, NOTE_CS4,31, NOTE_CS4,93, NOTE_REST,74,
 NOTE_A4,130, NOTE_A4,37, NOTE_A4,31, NOTE_REST,99, NOTE_A5,18, NOTE_A5,68, NOTE_REST,43, NOTE_B4,311,
 NOTE_REST,31, NOTE_REST,49, NOTE_REST,74, NOTE_A4,56, NOTE_A4,12, NOTE_REST,18, NOTE_REST,342, NOTE_A4,846,
 NOTE_REST,37, NOTE_REST,6, NOTE_REST,603, NOTE_CS5,124, NOTE_CS5,6, NOTE_REST,336, NOTE_D5,118, NOTE_REST,12,
 NOTE_REST,298, NOTE_D5,915, NOTE_D5,74, NOTE_REST,504, NOTE_E4,2072, NOTE_E4,6, NOTE_E4,18, NOTE_E4,31,
 NOTE_E4,112, NOTE_REST,317, NOTE_A4,87, NOTE_REST,18, NOTE_REST,6, NOTE_REST,317, NOTE_A4,205, NOTE_REST,12,
 NOTE_REST,6, NOTE_REST,24, NOTE_REST,217, NOTE_A4,249, NOTE_A4,68, NOTE_REST,31, NOTE_REST,24, NOTE_REST,56,
 NOTE_A4,647, NOTE_A4,24, NOTE_A4,18, NOTE_REST,6, NOTE_REST,367, NOTE_A4,93, NOTE_REST,12, NOTE_REST,323,
 NOTE_A4,186, NOTE_A4,12, NOTE_A4,6, NOTE_REST,6, NOTE_REST,255, NOTE_A4,205, NOTE_A4,18, NOTE_A4,6,
 NOTE_REST,12, NOTE_REST,186, NOTE_A4,722, NOTE_A4,56, NOTE_REST,12, NOTE_REST,6, NOTE_REST,267, NOTE_A4,155,
 NOTE_REST,12, NOTE_REST,261, NOTE_A4,180, NOTE_A4,24, NOTE_REST,18, NOTE_REST,242, NOTE_A4,186, NOTE_A4,37,
 NOTE_A4,12, NOTE_REST,24, NOTE_REST,168, NOTE_A4,734, NOTE_A4,56, NOTE_A4,24, NOTE_A4,6, NOTE_REST,242,
 NOTE_A4,105, NOTE_REST,6, NOTE_REST,12, NOTE_REST,305, NOTE_A4,155, NOTE_REST,6, NOTE_REST,6, NOTE_REST,6,
 NOTE_REST,292, NOTE_A4,155, NOTE_A4,12, NOTE_REST,6, NOTE_REST,6, NOTE_REST,249, NOTE_A4,653, NOTE_A4,6,
 NOTE_A4,24, NOTE_REST,379, NOTE_A4,124, NOTE_A4,6, NOTE_REST,12, NOTE_REST,6, NOTE_REST,280, NOTE_A4,174,
 NOTE_REST,18, NOTE_REST,12, NOTE_REST,261, NOTE_A4,168, NOTE_A4,6, NOTE_A4,12, NOTE_A4,31, NOTE_REST,211,
 NOTE_A4,697, NOTE_A4,62, NOTE_REST,12, NOTE_REST,6, NOTE_REST,286, NOTE_A4,155, NOTE_A4,12, NOTE_A4,24,
 NOTE_REST,236, NOTE_A4,168, NOTE_A4,31, NOTE_REST,12, NOTE_REST,255, NOTE_A4,211, NOTE_A4,6, NOTE_A4,12,
 NOTE_REST,199, NOTE_A4,709, NOTE_A4,24, NOTE_A4,6, NOTE_A4,37, NOTE_REST,286, NOTE_B4,143, NOTE_B4,12,
 NOTE_REST,6, NOTE_REST,267, NOTE_B4,199, NOTE_REST,18, NOTE_REST,37, NOTE_REST,6, NOTE_REST,205, NOTE_CS5,354,
 NOTE_REST,18, NOTE_REST,24, NOTE_REST,6, NOTE_REST,24, NOTE_CS5,130, NOTE_REST,12, NOTE_REST,12, NOTE_REST,24,
 NOTE_REST,118, NOTE_B4,261, NOTE_B4,6, NOTE_B4,18, NOTE_B4,24, NOTE_REST,286, NOTE_A4,342, NOTE_A4,6,
 NOTE_REST,12, NOTE_REST,105, NOTE_A4,80, NOTE_REST,24, NOTE_REST,323, NOTE_A4,1213, NOTE_A4,18, NOTE_REST,6,
 NOTE_REST,255, NOTE_B4,1251, NOTE_B4,24, NOTE_REST,31, NOTE_REST,43, NOTE_REST,143, NOTE_B4,199, NOTE_B4,6,
 NOTE_REST,18, NOTE_REST,18, NOTE_REST,56, NOTE_B4,317, NOTE_REST,12, NOTE_REST,6, NOTE_REST,31, NOTE_REST,230,
 NOTE_CS5,1207, NOTE_CS5,24, NOTE_CS5,18, NOTE_REST,6, NOTE_REST,236, NOTE_CS5,180, NOTE_CS5,6, NOTE_REST,6,
 NOTE_REST,105, NOTE_CS5,261, NOTE_CS5,12, NOTE_CS5,12, NOTE_CS5,143, NOTE_REST,168, NOTE_CS5,311, NOTE_CS5,18,
 NOTE_CS5,6, NOTE_REST,6, NOTE_REST,124, NOTE_CS5,68, NOTE_REST,6, NOTE_REST,6, NOTE_REST,348, NOTE_CS5,1170,
 NOTE_REST,18, NOTE_REST,12, NOTE_REST,31, NOTE_REST,261, NOTE_B4,317, NOTE_B4,12, NOTE_REST,6, NOTE_REST,18,
 NOTE_REST,112, NOTE_B4,68, NOTE_B4,12, NOTE_B4,6, NOTE_REST,31, NOTE_REST,311, NOTE_B4,734, NOTE_REST,6,
 NOTE_REST,6, NOTE_REST,12, NOTE_REST,136, NOTE_B4,361, NOTE_B4,12, NOTE_B4,37, NOTE_REST,354, NOTE_A4,74,
 NOTE_REST,31, NOTE_REST,6, NOTE_REST,6, NOTE_REST,311, NOTE_A4,180, NOTE_A4,24, NOTE_A4,6, NOTE_REST,255,
 NOTE_A4,186, NOTE_A4,37, NOTE_REST,6, NOTE_REST,199, NOTE_A4,765, NOTE_A4,37, NOTE_A4,31, NOTE_REST,24,
 NOTE_REST,205, NOTE_A4,136, NOTE_REST,6, NOTE_REST,286, NOTE_A4,186, NOTE_A4,18, NOTE_A4,18, NOTE_A4,6,
 NOTE_REST,236, NOTE_A4,224, NOTE_A4,24, NOTE_A4,6, NOTE_REST,174, NOTE_A4,734, NOTE_A4,31, NOTE_A4,6,
 NOTE_A4,18, NOTE_REST,273, NOTE_A4,136, NOTE_REST,12, NOTE_REST,12, NOTE_REST,6, NOTE_REST,261, NOTE_A4,205,
 NOTE_A4,12, NOTE_A4,6, NOTE_REST,18, NOTE_REST,224, NOTE_A4,168, NOTE_A4,6, NOTE_A4,18, NOTE_REST,12,
 NOTE_REST,224, NOTE_A4,765, NOTE_A4,87, NOTE_REST,24, NOTE_REST,12, NOTE_REST,174, NOTE_A4,130, NOTE_A4,6,
 NOTE_REST,6, NOTE_REST,6, NOTE_REST,280, NOTE_A4,161, NOTE_A4,37, NOTE_A4,6, NOTE_REST,261, NOTE_A4,161,
 NOTE_A4,18, NOTE_A4,6, NOTE_REST,31, NOTE_REST,211, NOTE_A4,728, NOTE_A4,18, NOTE_A4,24, NOTE_A4,31,
 NOTE_REST,261, NOTE_A4,149, NOTE_A4,6, NOTE_REST,6, NOTE_REST,12, NOTE_REST,255, NOTE_A4,199, NOTE_REST,18,
 NOTE_REST,12, NOTE_REST,236, NOTE_A4,230, NOTE_A4,37, NOTE_REST,12, NOTE_REST,12, NOTE_REST,136, NOTE_A4,834,
 NOTE_A4,6, NOTE_A4,18, NOTE_REST,12, NOTE_REST,192, NOTE_A4,143, NOTE_A4,18, NOTE_A4,6, NOTE_REST,261,
 NOTE_A4,224, NOTE_A4,6, NOTE_A4,18, NOTE_A4,12, NOTE_REST,205, NOTE_A4,211, NOTE_A4,18, NOTE_A4,6,
 NOTE_REST,192, NOTE_A4,809, NOTE_A4,6, NOTE_A4,24, NOTE_REST,1550, NOTE_A4,217, NOTE_REST,12, NOTE_REST,12,
 NOTE_REST,56, NOTE_A4,255, NOTE_REST,6, NOTE_REST,12, NOTE_REST,1817, NOTE_A4,155, NOTE_A4,12, NOTE_REST,130,
 NOTE_A4,205, NOTE_REST,6, NOTE_REST,385, NOTE_A4,709, NOTE_A4,24, NOTE_REST,161, NOTE_A4,1213, NOTE_REST,18,
 NOTE_REST,261, NOTE_A4,603, NOTE_A4,24, NOTE_A4,12, NOTE_A4,24, NOTE_REST,230, NOTE_A4,1201, NOTE_A4,6,
 NOTE_A4,12, NOTE_A4,6, NOTE_REST,267, NOTE_A4,672, NOTE_A4,12, NOTE_REST,12, NOTE_REST,199, NOTE_A4,1207,
 NOTE_A4,37, NOTE_REST,12, NOTE_REST,236, NOTE_A4,641, NOTE_A4,31, NOTE_A4,31, NOTE_REST,192, NOTE_A4,1276,
 NOTE_REST,24, NOTE_REST,18, NOTE_REST,174, NOTE_E3,292, NOTE_E3,6, NOTE_REST,6, NOTE_REST,12, NOTE_REST,24,
 NOTE_REST,124, NOTE_E3,80, NOTE_E3,6, NOTE_E3,12, NOTE_E3,6, NOTE_E3,24, NOTE_REST,298, NOTE_E3,1251,
 NOTE_E3,6, NOTE_E3,6, NOTE_REST,12, NOTE_REST,217, NOTE_E3,348, NOTE_E3,24, NOTE_REST,6, NOTE_REST,12,
 NOTE_REST,18, NOTE_REST,56, NOTE_E3,87, NOTE_E3,12, NOTE_E3,18, NOTE_E3,6, NOTE_E3,37, NOTE_REST,267,
 NOTE_E3,1251, NOTE_E3,6, NOTE_E3,6, NOTE_REST,12, NOTE_REST,217, NOTE_E3,255, NOTE_REST,62, NOTE_REST,149,
 NOTE_FS3,99, NOTE_FS3,62, NOTE_REST,267, NOTE_FS3,311, NOTE_FS3,12, NOTE_REST,143, NOTE_FS3,130, NOTE_FS3,93,
 NOTE_REST,74, NOTE_CS4,43, NOTE_CS4,87, NOTE_CS4,87, NOTE_REST,80, NOTE_A4,130, NOTE_A4,93, NOTE_REST,31,
 NOTE_REST,12, NOTE_REST,31, NOTE_A5,93, NOTE_REST,37, NOTE_B4,329, NOTE_REST,12, NOTE_REST,49, NOTE_REST,74,
 NOTE_A4,68, NOTE_REST,6, NOTE_REST,6, NOTE_REST,348, NOTE_A4,765, NOTE_REST,56, NOTE_REST,18, NOTE_REST,653,
 NOTE_B3,267, NOTE_B3,12, NOTE_B3,12, NOTE_B3,18, NOTE_B3,155, NOTE_B3,87, NOTE_B3,6, NOTE_B3,12,
 NOTE_B3,323, NOTE_B3,1095, NOTE_B3,12, NOTE_B3,24, NOTE_B3,62, NOTE_REST,49, NOTE_REST,249, NOTE_E4,610,
 NOTE_REST,1151, NOTE_REST,12, NOTE_REST,12, NOTE_REST,24, NOTE_REST,747, NOTE_A4,80, NOTE_REST,12, NOTE_REST,6,
 NOTE_REST,329, NOTE_A4,136, NOTE_A4,24, NOTE_A4,12, NOTE_REST,292, NOTE_A4,161, NOTE_REST,6, NOTE_REST,6,
 NOTE_REST,255, NOTE_A4,547, NOTE_A4,24, NOTE_REST,18, NOTE_REST,473, NOTE_A4,118, NOTE_A4,6, NOTE_REST,6,
 NOTE_REST,6, NOTE_REST,292, NOTE_A4,161, NOTE_A4,18, NOTE_A4,6, NOTE_A4,6, NOTE_REST,273, NOTE_A4,186,
 NOTE_A4,43, NOTE_A4,24, NOTE_REST,6, NOTE_REST,168, NOTE_A4,641, NOTE_A4,12, NOTE_A4,31, NOTE_REST,12,
 NOTE_REST,367, NOTE_A4,143, NOTE_A4,6, NOTE_A4,6, NOTE_A4,12, NOTE_REST,261, NOTE_A4,186, NOTE_REST,6,
 NOTE_REST,18, NOTE_REST,255, NOTE_A4,192, NOTE_A4,18, NOTE_REST,18, NOTE_REST,24, NOTE_REST,174, NOTE_A4,678,
 NOTE_A4,37, NOTE_REST,18, NOTE_REST,12, NOTE_REST,317, NOTE_A4,136, NOTE_A4,6, NOTE_A4,12, NOTE_REST,273,
 NOTE_A4,161, NOTE_A4,37, NOTE_A4,6, NOTE_REST,261, NOTE_A4,161, NOTE_A4,31, NOTE_A4,6, NOTE_A4,6,
 NOTE_REST,224, NOTE_A4,784, NOTE_A4,6, NOTE_A4,49, NOTE_A4,18, NOTE_REST,205, NOTE_A4,93, NOTE_REST,24,
 NOTE_REST,6, NOTE_REST,305, NOTE_A4,174, NOTE_REST,6, NOTE_REST,6, NOTE_REST,6, NOTE_REST,273, NOTE_A4,155,
 NOTE_A4,18, NOTE_A4,6, NOTE_REST,249, NOTE_A4,809, NOTE_A4,87, NOTE_REST,37, NOTE_REST,24, NOTE_REST,105,
 NOTE_A4,93, NOTE_A4,6, NOTE_REST,6, NOTE_REST,6, NOTE_REST,317, NOTE_A4,130, NOTE_REST,18, NOTE_REST,6,
 NOTE_REST,311, NOTE_A4,168, NOTE_A4,12, NOTE_A4,37, NOTE_REST,211, NOTE_A4,628, NOTE_REST,18, NOTE_REST,12,
 NOTE_REST,404, NOTE_B4,99, NOTE_REST,12, NOTE_REST,6, NOTE_REST,6, NOTE_REST,305, NOTE_B4,161, NOTE_REST,24,
 NOTE_REST,12, NOTE_REST,267, NOTE_CS5,410, NOTE_CS5,24, NOTE_CS5,6, NOTE_REST,12, NOTE_REST,273, NOTE_B4,292,
 NOTE_B4,6, NOTE_B4,18, NOTE_B4,56, NOTE_REST,224, NOTE_A4,249, NOTE_A4,43, NOTE_A4,6, NOTE_A4,24,
 NOTE_REST,143, NOTE_A4,80, NOTE_A4,24, NOTE_REST,6, NOTE_REST,6, NOTE_REST,311, NOTE_A4,1207, NOTE_A4,12,
 NOTE_REST,31, NOTE_REST,242, NOTE_B4,1207, NOTE_B4,12, NOTE_B4,37, NOTE_REST,236, NOTE_B4,242, NOTE_REST,18,
 NOTE_REST,37, NOTE_B4,261, NOTE_B4,37, NOTE_B4,43, NOTE_REST,255, NOTE_CS5,1220, NOTE_CS5,37, NOTE_CS5,18,
 NOTE_REST,43, NOTE_REST,174, NOTE_CS5,199, NOTE_REST,6, NOTE_REST,18, NOTE_REST,74, NOTE_CS5,230, NOTE_CS5,6,
 NOTE_CS5,18, NOTE_CS5,18, NOTE_REST,323, NOTE_CS5,292, NOTE_CS5,56, NOTE_REST,6, NOTE_REST,6, NOTE_REST,105,
 NOTE_CS5,74, NOTE_REST,18, NOTE_REST,336, NOTE_CS5,1114, NOTE_REST,6, NOTE_REST,12, NOTE_REST,361, NOTE_B4,329,
 NOTE_REST,12, NOTE_REST,6, NOTE_REST,24, NOTE_REST,93, NOTE_B4,74, NOTE_B4,6, NOTE_REST,6, NOTE_REST,12,
 NOTE_REST,329, NOTE_B4,448, NOTE_REST,18, NOTE_REST,18, NOTE_REST,112, NOTE_B4,174, NOTE_REST,12, NOTE_REST,6,
 NOTE_REST,105, NOTE_B4,410, NOTE_B4,12, NOTE_B4,18, NOTE_B4,80, NOTE_REST,242, NOTE_A4,105, NOTE_A4,12,
 NOTE_REST,311, NOTE_A4,192, NOTE_REST,12, NOTE_REST,261, NOTE_A4,180, NOTE_A4,12, NOTE_REST,12, NOTE_REST,6,
 NOTE_REST,217, NOTE_A4,809, NOTE_A4,49, NOTE_REST,18, NOTE_REST,6, NOTE_REST,180, NOTE_A4,118, NOTE_A4,18,
 NOTE_A4,6, NOTE_REST,286, NOTE_A4,174, NOTE_A4,18, NOTE_A4,6, NOTE_REST,267, NOTE_A4,143, NOTE_A4,18,
 NOTE_A4,12, NOTE_REST,255, NOTE_A4,877, NOTE_REST,12, NOTE_REST,18, NOTE_REST,31, NOTE_REST,124, NOTE_A4,118,
 NOTE_A4,12, NOTE_A4,6, NOTE_REST,292, NOTE_A4,161, NOTE_A4,18, NOTE_REST,6, NOTE_REST,280, NOTE_A4,136,
 NOTE_REST,12, NOTE_REST,6, NOTE_REST,6, NOTE_REST,267, NOTE_A4,765, NOTE_A4,56, NOTE_REST,37, NOTE_REST,31,
 NOTE_REST,174, NOTE_A4,130, NOTE_A4,12, NOTE_REST,6, NOTE_REST,280, NOTE_A4,180, NOTE_A4,6, NOTE_A4,6,
 NOTE_REST,24, NOTE_REST,249, NOTE_A4,155, NOTE_A4,18, NOTE_REST,12, NOTE_REST,6, NOTE_REST,236, NOTE_A4,790,
 NOTE_A4,24, NOTE_A4,18, NOTE_A4,12, NOTE_REST,217, NOTE_A4,93, NOTE_REST,18, NOTE_REST,6, NOTE_REST,6,
 NOTE_REST,305, NOTE_A4,161, NOTE_REST,6, NOTE_REST,298, NOTE_A4,174, NOTE_A4,24, NOTE_A4,12, NOTE_A4,24,
 NOTE_REST,192, NOTE_A4,753, NOTE_A4,87, NOTE_REST,12, NOTE_REST,211, NOTE_A4,105, NOTE_REST,12, NOTE_REST,12,
 NOTE_REST,6, NOTE_REST,292, NOTE_A4,180, NOTE_A4,18, NOTE_A4,6, NOTE_A4,18, NOTE_REST,242, NOTE_A4,155,
 NOTE_A4,6, NOTE_REST,6, NOTE_REST,261, NOTE_A4,809, NOTE_A4,31, NOTE_A4,18, NOTE_REST,205, NOTE_A4,130,
 NOTE_REST,12, NOTE_REST,12, NOTE_REST,6, NOTE_REST,267, NOTE_A4,168, NOTE_A4,6, NOTE_REST,24, NOTE_REST,6,
 NOTE_REST,261, NOTE_A4,130, NOTE_REST,31, NOTE_REST,6, NOTE_REST,261, NOTE_A4,765, NOTE_A4,68, NOTE_REST,18,
 NOTE_REST,74, NOTE_REST,136, NOTE_A4,130, NOTE_A4,12, NOTE_A4,18, NOTE_A4,6, NOTE_REST,261, NOTE_A4,168,
 NOTE_A4,6, NOTE_A4,12, NOTE_A4,6, NOTE_REST,273, NOTE_A4,155, NOTE_A4,6, NOTE_REST,267, NOTE_A4,759,
 NOTE_A4,49, NOTE_REST,24, NOTE_REST,230, NOTE_A4,99, NOTE_REST,12, NOTE_REST,6, NOTE_REST,311, NOTE_A4,155,
 NOTE_A4,18, NOTE_REST,6, NOTE_REST,286, NOTE_A4,149, NOTE_REST,12, NOTE_REST,6, NOTE_REST,261, NOTE_A4,759,
 NOTE_A4,56, NOTE_REST,12, NOTE_REST,12, NOTE_REST,224, NOTE_A4,124, NOTE_REST,12, NOTE_REST,12, NOTE_REST,280,
 NOTE_A4,168, NOTE_A4,24, NOTE_A4,6, NOTE_REST,267, NOTE_A4,255, NOTE_A4,37, NOTE_A4,6, NOTE_A4,6,
 NOTE_REST,124, NOTE_A4,286, NOTE_A4,24, NOTE_REST,6, NOTE_REST,149, NOTE_A4,379, NOTE_A4,24, NOTE_A4,43,
 NOTE_REST,149, NOTE_A4,112, NOTE_REST,31, NOTE_REST,12, NOTE_REST,273, NOTE_A4,211, NOTE_A4,24, NOTE_A4,12,
 NOTE_REST,12, NOTE_REST,205, NOTE_A4,211, NOTE_A4,12, NOTE_A4,18, NOTE_REST,186, NOTE_A4,715, NOTE_A4,87,
 NOTE_A4,18, NOTE_REST,242, NOTE_A4,118, NOTE_A4,6, NOTE_A4,18, NOTE_REST,286, NOTE_A4,168, NOTE_REST,12,
 NOTE_REST,286, NOTE_A4,149, NOTE_A4,24, NOTE_A4,31, NOTE_REST,224, NOTE_A4,827, NOTE_A4,18, NOTE_A4,18,
 NOTE_REST,18, NOTE_REST,180, NOTE_A4,143, NOTE_A4,6, NOTE_A4,24, NOTE_REST,255, NOTE_A4,143, NOTE_REST,6,
 NOTE_REST,12, NOTE_REST,305, NOTE_A4,174, NOTE_A4,12, NOTE_REST,6, NOTE_REST,236, NOTE_A4,815, NOTE_A4,31,
 NOTE_A4,12, NOTE_REST,31, NOTE_REST,174, NOTE_A4,174, NOTE_A4,12, NOTE_A4,24, NOTE_REST,217, NOTE_A4,155,
 NOTE_A4,24, NOTE_A4,24, NOTE_REST,261, NOTE_A4,136, NOTE_REST,6, NOTE_REST,12, NOTE_REST,6, NOTE_REST,267,
 NOTE_A4,809, NOTE_A4,6, NOTE_A4,37, NOTE_A4,24, NOTE_REST,186, NOTE_A4,136, NOTE_A4,6, NOTE_REST,12,
 NOTE_REST,6, NOTE_REST,267, NOTE_A4,149, NOTE_REST,12, NOTE_REST,12, NOTE_REST,292, NOTE_A4,155, NOTE_REST,6,
 NOTE_REST,6, NOTE_REST,261, NOTE_A4,821, NOTE_A4,62, NOTE_A4,12, NOTE_REST,31, NOTE_REST,136, NOTE_A4,99,
 NOTE_A4,24, NOTE_A4,6, NOTE_REST,6, NOTE_REST,292, NOTE_A4,161, NOTE_A4,12, NOTE_REST,292, NOTE_A4,180,
 NOTE_A4,12, NOTE_REST,18, NOTE_REST,217, NOTE_A4,827, NOTE_A4,31, NOTE_A4,6, NOTE_A4,6, NOTE_REST,192,
 NOTE_A4,99, NOTE_REST,31, NOTE_REST,298, NOTE_A4,149, NOTE_REST,12, NOTE_REST,6, NOTE_REST,298, NOTE_A4,124,
 NOTE_REST,18, NOTE_REST,6, NOTE_REST,280, NOTE_A4,697, NOTE_A4,118, NOTE_REST,6, NOTE_REST,43, NOTE_REST,199,
 NOTE_A4,118, NOTE_REST,6, NOTE_REST,6, NOTE_REST,18, NOTE_REST,280, NOTE_A4,249, NOTE_A4,24, NOTE_A4,6,
 NOTE_REST,186, NOTE_A4,143, NOTE_A4,12, NOTE_A4,12, NOTE_REST,261, NOTE_A4,261, NOTE_A4,49, NOTE_REST,6,
 NOTE_REST,6, NOTE_REST,143, NOTE_A4,348, NOTE_A4,18, NOTE_A4,12,
 0, 1, -1, -1
};
// This score contains 5942 bytes.
// 972 notes had to be skipped.
