// ArduboyTones stream for file "dancingQueen.mid" created by MIDI2TONES V1.0.0 on Tue Dec 10 00:15:32 2019
// command line: C:\Users\cnorf\Downloads\midi2tones-master\midi2tones_64bit.exe -o2 -c32 dancingQueen 
//   From channel 5
const int score3[] = {
 NOTE_REST,7171, NOTE_CS5,1743, NOTE_REST,49, NOTE_B4,585, NOTE_REST,12, NOTE_D5,1637, NOTE_REST,155, NOTE_CS5,124,
 NOTE_REST,24, NOTE_B4,105, NOTE_REST,192, NOTE_A4,112, NOTE_REST,37, NOTE_B4,410, NOTE_REST,37, NOTE_CS5,311,
 NOTE_REST,136, NOTE_CS5,3554, NOTE_REST,329, NOTE_CS5,1774, NOTE_REST,18, NOTE_B4,547, NOTE_REST,49, NOTE_D5,1755,
 NOTE_REST,37, NOTE_CS5,136, NOTE_REST,12, NOTE_B4,99, NOTE_REST,199, NOTE_A4,112, NOTE_REST,37, NOTE_B4,417,
 NOTE_REST,31, NOTE_CS5,298, NOTE_REST,149, NOTE_CS5,1444, NOTE_REST,49, NOTE_A4,2122, NOTE_REST,267, NOTE_E5,448,
 NOTE_REST,149, NOTE_E5,186, NOTE_REST,112, NOTE_E5,1238, NOTE_REST,255, NOTE_F5,398, NOTE_REST,199, NOTE_F5,280,
 NOTE_REST,18, NOTE_F5,1406, NOTE_REST,87, NOTE_A5,423, NOTE_REST,24, NOTE_B5,373, NOTE_REST,74, NOTE_GS5,249,
 NOTE_REST,49, NOTE_A5,410, NOTE_REST,37, NOTE_B5,423, NOTE_REST,24, NOTE_GS5,273, NOTE_REST,24, NOTE_A5,136,
 NOTE_REST,12, NOTE_GS5,136, NOTE_REST,12, NOTE_FS5,840, NOTE_REST,56, NOTE_CS6,267, NOTE_REST,31, NOTE_B5,130,
 NOTE_REST,18, NOTE_CS6,143, NOTE_REST,6, NOTE_B5,130, NOTE_REST,18, NOTE_A5,292, NOTE_REST,155, NOTE_E5,367,
 NOTE_REST,80, NOTE_E5,205, NOTE_REST,242, NOTE_E5,1251, NOTE_REST,242, NOTE_E5,336, NOTE_REST,112, NOTE_E5,255,
 NOTE_REST,192, NOTE_E5,715, NOTE_REST,180, NOTE_E5,130, NOTE_REST,18, NOTE_D5,118, NOTE_REST,180, NOTE_D5,68,
 NOTE_REST,80, NOTE_D5,417, NOTE_REST,31, NOTE_CS5,168, NOTE_REST,280, NOTE_CS5,1437, NOTE_REST,56, NOTE_D5,2041,
 NOTE_REST,31424, NOTE_FS5,2104, NOTE_REST,13433, NOTE_D5,267, NOTE_REST,180, NOTE_D5,211, NOTE_REST,236, NOTE_D5,149,
 NOTE_REST,149, NOTE_D5,273, NOTE_REST,174, NOTE_CS5,168, NOTE_REST,280, NOTE_CS5,1263, NOTE_REST,230, NOTE_D5,323,
 NOTE_REST,124, NOTE_D5,136, NOTE_REST,311, NOTE_D5,541, NOTE_REST,56, NOTE_D5,441, NOTE_REST,155, NOTE_D5,105,
 NOTE_REST,192, NOTE_D5,273, NOTE_REST,174, NOTE_CS5,205, NOTE_REST,242, NOTE_CS5,1450, NOTE_REST,43, NOTE_D5,2178,
 NOTE_REST,211, NOTE_D5,342, NOTE_REST,105, NOTE_CS5,174, NOTE_REST,273, NOTE_CS5,1257, NOTE_REST,236, NOTE_D5,348,
 NOTE_REST,99, NOTE_D5,273, NOTE_REST,174, NOTE_D5,498, NOTE_REST,99, NOTE_D5,529, NOTE_REST,68, NOTE_B4,273,
 NOTE_REST,24, NOTE_E5,342, NOTE_REST,24, NOTE_REST,80, NOTE_E5,249, NOTE_REST,199, NOTE_E5,753, NOTE_REST,136,
 NOTE_REST,6, NOTE_E5,2963, NOTE_REST,24, NOTE_GS5,491, NOTE_REST,105, NOTE_GS5,143, NOTE_REST,155, NOTE_GS5,1238,
 NOTE_REST,255, NOTE_GS5,423, NOTE_REST,174, NOTE_GS5,130, NOTE_REST,168, NOTE_GS5,597, NOTE_GS5,24, NOTE_REST,728,
 NOTE_REST,143, NOTE_A5,441, NOTE_REST,6, NOTE_B5,435, NOTE_REST,12, NOTE_GS5,292, NOTE_REST,6, NOTE_A5,392,
 NOTE_REST,56, NOTE_B5,410, NOTE_REST,37, NOTE_GS5,249, NOTE_REST,49, NOTE_A5,143, NOTE_REST,6, NOTE_GS5,136,
 NOTE_REST,12, NOTE_FS5,790, NOTE_REST,105, NOTE_CS6,261, NOTE_REST,37, NOTE_B5,149, NOTE_CS6,149, NOTE_CS6,12,
 NOTE_REST,99, NOTE_REST,37, NOTE_A5,435, NOTE_REST,12, NOTE_E5,354, NOTE_REST,93, NOTE_E5,118, NOTE_REST,329,
 NOTE_E5,1257, NOTE_REST,236, NOTE_E5,323, NOTE_REST,124, NOTE_E5,112, NOTE_REST,336, NOTE_E5,759, NOTE_REST,136,
 NOTE_E5,130, NOTE_REST,18, NOTE_D5,130, NOTE_REST,168, NOTE_D5,56, NOTE_REST,93, NOTE_D5,404, NOTE_REST,43,
 NOTE_CS5,192, NOTE_REST,255, NOTE_CS5,1431, NOTE_REST,62, NOTE_D5,2328, NOTE_REST,16795, NOTE_FS5,2079, NOTE_REST,13458,
 NOTE_D5,298, NOTE_REST,149, NOTE_D5,236, NOTE_REST,211, NOTE_D5,93, NOTE_REST,205, NOTE_D5,311, NOTE_REST,136,
 NOTE_CS5,155, NOTE_REST,292, NOTE_CS5,1201, NOTE_REST,292, NOTE_D5,280, NOTE_REST,168, NOTE_D5,112, NOTE_REST,336,
 NOTE_D5,516, NOTE_REST,80, NOTE_D5,441, NOTE_REST,155, NOTE_D5,105, NOTE_REST,192, NOTE_D5,298, NOTE_REST,149,
 NOTE_CS5,161, NOTE_REST,286, NOTE_CS5,1456, NOTE_REST,37, NOTE_D5,2172, NOTE_REST,217, NOTE_D5,311, NOTE_REST,136,
 NOTE_CS5,174, NOTE_REST,273, NOTE_CS5,1282, NOTE_REST,211, NOTE_D5,342, NOTE_REST,105, NOTE_D5,186, NOTE_REST,261,
 NOTE_D5,498, NOTE_REST,99, NOTE_D5,516, NOTE_REST,80, NOTE_B4,273, NOTE_REST,24, NOTE_E5,367, NOTE_REST,12,
 NOTE_REST,68, NOTE_E5,180, NOTE_E5,31, NOTE_REST,236, NOTE_E5,809, NOTE_REST,43, NOTE_REST,43, NOTE_E5,541,
 NOTE_REST,31, NOTE_REST,2402, NOTE_GS5,417, NOTE_REST,192, NOTE_GS5,93, NOTE_REST,205, NOTE_GS5,1226, NOTE_REST,267,
 NOTE_GS5,398, NOTE_REST,199, NOTE_GS5,124, NOTE_REST,174, NOTE_GS5,585, NOTE_REST,12, NOTE_A5,684, NOTE_REST,211,
 NOTE_A5,423, NOTE_REST,24, NOTE_B5,385, NOTE_REST,62, NOTE_GS5,292, NOTE_REST,6, NOTE_A5,429, NOTE_REST,18,
 NOTE_B5,441, NOTE_REST,6, NOTE_GS5,273, NOTE_REST,24, NOTE_A5,143, NOTE_REST,6, NOTE_GS5,143, NOTE_REST,6,
 NOTE_FS5,865, NOTE_REST,31, NOTE_CS6,273, NOTE_REST,24, NOTE_B5,149, NOTE_CS6,143, NOTE_REST,6, NOTE_B5,118,
 NOTE_REST,31, NOTE_A5,273, NOTE_REST,174, NOTE_E5,379, NOTE_REST,68, NOTE_E5,130, NOTE_REST,317, NOTE_E5,1307,
 NOTE_REST,186, NOTE_E5,379, NOTE_REST,68, NOTE_E5,99, NOTE_REST,348, NOTE_E5,747, NOTE_REST,149, NOTE_E5,143,
 NOTE_REST,6, NOTE_D5,118, NOTE_REST,180, NOTE_D5,62, NOTE_REST,87, NOTE_D5,361, NOTE_REST,87, NOTE_CS5,155,
 NOTE_REST,292, NOTE_CS5,1444, NOTE_REST,49, NOTE_D5,2328, NOTE_REST,62, NOTE_CS5,435, NOTE_REST,3747, NOTE_D5,124,
 NOTE_REST,24, NOTE_D5,143, NOTE_REST,155, NOTE_D5,62, NOTE_REST,87, NOTE_D5,298, NOTE_REST,149, NOTE_CS5,217,
 NOTE_REST,230, NOTE_CS5,1462, NOTE_REST,31, NOTE_D5,2365, NOTE_REST,24, NOTE_CS5,2359, NOTE_REST,31, NOTE_D5,2004,
 0, 1, -1, -1
};
// This score contains 1506 bytes.
// 9 notes had to be skipped.
