// ArduboyTones stream for file "su.mid" created by MIDI2TONES V1.0.0 on Wed Dec 11 14:08:08 2019
// command line: C:\Users\cnorf\Downloads\midi2tones-master\midi2tones_64bit.exe -o2 -c1 su 
//   From channel 0
const int score1[] = {
// MIDI out
 NOTE_G3,2666, NOTE_B3,2663, NOTE_C4,503, NOTE_C4,500, NOTE_C4,333, NOTE_C4,500, NOTE_C4,500, NOTE_C4,329,
 NOTE_C4,503, NOTE_C4,496, NOTE_C4,336, NOTE_C4,500, NOTE_C4,500, NOTE_C4,333, NOTE_G3,500, NOTE_D4,500,
 NOTE_D4,329, NOTE_G3,503, NOTE_D4,496, NOTE_D4,336, NOTE_B3,500, NOTE_DS4,500, NOTE_DS4,333, NOTE_B3,500,
 NOTE_DS4,500, NOTE_DS4,329, NOTE_C4,503, NOTE_E4,496, NOTE_E4,336, NOTE_C4,500, NOTE_E4,500, NOTE_E4,333,
 NOTE_C4,2663, NOTE_G3,336, NOTE_D4,329, NOTE_G4,336, NOTE_B4,333, NOTE_D5,329, NOTE_REST,1000, NOTE_G4,2670,
 NOTE_G4,2663, NOTE_G4,1336, NOTE_DS4,1329, NOTE_AS3,1333, NOTE_D4,1336, NOTE_G4,1000, NOTE_F4,329, NOTE_DS4,1333,
 NOTE_AS3,1336, NOTE_D4,500, NOTE_D4,500, NOTE_D4,329, NOTE_C4,503, NOTE_C4,496, NOTE_C4,336, NOTE_C4,500,
 NOTE_C4,500, NOTE_C4,333, NOTE_F3,500, NOTE_A4,500, NOTE_F3,329, NOTE_DS3,503, NOTE_G4,496, NOTE_DS3,336,
 NOTE_AS2,500, NOTE_D4,500, NOTE_AS2,333, NOTE_B2,500, NOTE_DS4,500, NOTE_B2,329, NOTE_E3,503, NOTE_G4,496,
 NOTE_E3,336, NOTE_E3,333, NOTE_E3,329, NOTE_E3,336, NOTE_E3,333, NOTE_G2,500, NOTE_G3,500, NOTE_F3,329,
 NOTE_DS3,503, NOTE_A4,329, NOTE_AS4,166, NOTE_D5,336, NOTE_AS2,500, NOTE_F4,333, NOTE_AS4,163, NOTE_D5,336,
 NOTE_D3,500, NOTE_D4,500, NOTE_D3,329, NOTE_G2,503, NOTE_G3,496, NOTE_F3,336, NOTE_DS3,500, NOTE_A4,333,
 NOTE_AS4,163, NOTE_D5,336, NOTE_AS2,500, NOTE_F4,329, NOTE_AS4,170, NOTE_D5,329, NOTE_D3,503, NOTE_D4,496,
 NOTE_D3,336, NOTE_C3,333, NOTE_DS4,329, NOTE_DS4,336, NOTE_DS4,333, NOTE_D3,329, NOTE_F4,336, NOTE_F4,333,
 NOTE_F4,329, NOTE_G3,336, NOTE_AS4,333, NOTE_AS4,329, NOTE_AS4,336, NOTE_E3,333, NOTE_C4,329, NOTE_C4,336,
 NOTE_C4,333, NOTE_F3,329, NOTE_C4,336, NOTE_F4,333, NOTE_A4,329, NOTE_AS3,336, NOTE_F4,333, NOTE_AS4,329,
 NOTE_D5,336, NOTE_D4,500, NOTE_A4,500, NOTE_D5,333, NOTE_D4,500, NOTE_A4,500, NOTE_D5,329, NOTE_D4,503,
 NOTE_A4,496, NOTE_D5,336, NOTE_D4,500, NOTE_A4,500, NOTE_D5,333, NOTE_D4,500, NOTE_A4,500, NOTE_D5,329,
 NOTE_A3,503, NOTE_E4,496, NOTE_A4,336, NOTE_D4,500, NOTE_A4,500, NOTE_D5,333, NOTE_A3,500, NOTE_E4,500,
 NOTE_A4,329, NOTE_D4,503, NOTE_A4,496, NOTE_D5,336, NOTE_G3,500, NOTE_D4,500, NOTE_G4,333, NOTE_C4,500,
 NOTE_G4,500, NOTE_C5,329, NOTE_B3,503, NOTE_G4,496, NOTE_DS4,336, NOTE_E4,500, NOTE_B4,500, NOTE_E5,333,
 NOTE_B3,500, NOTE_FS4,500, NOTE_B4,329, NOTE_E4,503, NOTE_B4,496, NOTE_E5,336, NOTE_B3,500, NOTE_FS4,500,
 NOTE_B4,333, NOTE_E4,500, NOTE_B4,500, NOTE_E5,329, NOTE_D4,503, NOTE_B4,496, NOTE_D5,336, NOTE_C4,500,
 NOTE_G4,500, NOTE_C5,333, NOTE_E4,500, NOTE_G4,500, NOTE_E4,329, NOTE_D4,170, NOTE_A4,163, NOTE_D5,166,
 NOTE_F5,500, NOTE_D4,336, NOTE_A3,163, NOTE_E4,170, NOTE_A4,163, NOTE_C5,503, NOTE_A3,333, NOTE_D4,163,
 NOTE_A4,166, NOTE_D5,170, NOTE_F5,500, NOTE_D4,329, NOTE_A3,170, NOTE_E4,163, NOTE_A4,166, NOTE_C5,500,
 NOTE_A3,336, NOTE_D4,163, NOTE_A4,170, NOTE_D5,163, NOTE_F5,503, NOTE_D4,333, NOTE_G3,163, NOTE_D4,166,
 NOTE_G4,170, NOTE_B4,500, NOTE_G3,329, NOTE_C4,170, NOTE_G4,163, NOTE_C5,166, NOTE_E5,500, NOTE_C4,336,
 NOTE_B3,163, NOTE_FS4,170, NOTE_B4,166, NOTE_REST,496, NOTE_DS4,336, NOTE_E4,163, NOTE_B4,166, NOTE_E5,170,
 NOTE_G5,500, NOTE_E4,329, NOTE_B3,170, NOTE_FS4,163, NOTE_B4,166, NOTE_DS5,500, NOTE_B3,336, NOTE_E4,163,
 NOTE_B4,170, NOTE_E5,163, NOTE_G5,503, NOTE_E4,333, NOTE_B3,163, NOTE_FS4,166, NOTE_B4,170, NOTE_DS5,500,
 NOTE_B3,329, NOTE_E4,170, NOTE_B4,163, NOTE_E5,166, NOTE_G5,500, NOTE_E4,336, NOTE_D4,163, NOTE_B4,170,
 NOTE_D5,163, NOTE_E5,503, NOTE_D4,333, NOTE_C4,163, NOTE_G4,166, NOTE_C5,170, NOTE_E5,500, NOTE_C4,329,
 NOTE_E4,503, NOTE_E5,496, NOTE_E4,336, NOTE_D4,500, NOTE_D5,500, NOTE_D4,333, NOTE_G3,1329, NOTE_C3,503,
 NOTE_C5,496, NOTE_G4,336, NOTE_C4,1333, NOTE_D3,500, NOTE_D4,500, NOTE_D3,329, NOTE_G3,1333, NOTE_C3,503,
 NOTE_C5,500, NOTE_G4,333, NOTE_C4,1329, NOTE_D3,1333, NOTE_G3,1336, NOTE_C3,666, NOTE_C3,700, NOTE_C3,733,
 NOTE_C3,746, NOTE_C3,20, NOTE_D3,750, NOTE_FS4,750, NOTE_A3,750, NOTE_FS4,750, NOTE_D3,750, NOTE_G4,750,
 NOTE_A3,750, NOTE_G4,750, NOTE_D3,750, NOTE_FS4,750, NOTE_A3,750, NOTE_FS4,750, NOTE_D3,750, NOTE_FS4,715,
 NOTE_A3,681, NOTE_FS4,646, NOTE_G3,663, NOTE_G4,670, NOTE_D3,663, NOTE_G4,666, NOTE_G3,670, NOTE_G4,663,
 NOTE_D3,666, NOTE_G4,670, NOTE_C3,663, NOTE_G4,666, NOTE_F3,670, NOTE_F4,663, NOTE_AS3,666, NOTE_AS4,670,
 NOTE_A3,663, NOTE_D3,666, NOTE_DS3,225, NOTE_AS3,222, NOTE_DS4,222, NOTE_G4,218, NOTE_AS4,225, NOTE_D5,1555,
 NOTE_D3,218, NOTE_A3,225, NOTE_D4,222, NOTE_FS4,222, NOTE_A4,222, NOTE_C5,1552, NOTE_G3,329, NOTE_G3,7,
 NOTE_D4,338, NOTE_D4,7, NOTE_G4,349, NOTE_G4,7, NOTE_A4,361, NOTE_A4,7, NOTE_AS4,738, NOTE_AS4,25,
 NOTE_AS4,784, NOTE_AS4,26, NOTE_G3,375, NOTE_D4,375, NOTE_REST,2250, NOTE_G3,375, NOTE_D4,375, NOTE_AS4,375,
 NOTE_G4,375, NOTE_D5,1500, NOTE_G3,375, NOTE_D4,375, NOTE_AS4,375, NOTE_G4,375, NOTE_D5,1500, NOTE_G3,375,
 NOTE_FS4,375, NOTE_A4,375, NOTE_C5,375, NOTE_DS5,1500, NOTE_G3,375, NOTE_D4,375, NOTE_AS4,375, NOTE_G4,375,
 NOTE_D5,1500, NOTE_G3,375, NOTE_D4,375, NOTE_AS4,375, NOTE_G4,375, NOTE_D5,375, NOTE_REST,1125, NOTE_D3,375,
 NOTE_A3,375, NOTE_F4,375, NOTE_D4,375, NOTE_A4,1500, NOTE_D3,375, NOTE_AS3,375, NOTE_CS4,375, NOTE_E4,375,
 NOTE_A4,1500, NOTE_A3,375, NOTE_E4,375, NOTE_CS5,375, NOTE_A4,375, NOTE_E5,1500, NOTE_A3,375, NOTE_E4,375,
 NOTE_CS5,375, NOTE_A4,375, NOTE_GS4,367, NOTE_GS4,7, NOTE_A4,375, NOTE_A4,8, NOTE_G4,384, NOTE_G4,8,
 NOTE_A4,393, NOTE_A4,8, NOTE_D3,402, NOTE_D3,8, NOTE_A3,410, NOTE_A3,8, NOTE_F4,424, NOTE_D4,433,
 NOTE_A4,424, NOTE_F4,428, NOTE_D5,433, NOTE_A4,424, NOTE_F5,433, NOTE_D5,428, NOTE_REST,857, NOTE_DS4,500,
 NOTE_DS4,1000, NOTE_F4,500, NOTE_F4,1000, NOTE_G4,500, NOTE_G4,1000, NOTE_GS4,500, NOTE_GS4,1000, NOTE_G4,500,
 NOTE_G4,1000, NOTE_C5,500, NOTE_C5,750, NOTE_C5,250, NOTE_F4,500, NOTE_F4,1000, NOTE_AS4,500, NOTE_F4,500,
 NOTE_AS3,500, NOTE_DS3,500, NOTE_DS4,500, NOTE_DS4,500, NOTE_F3,500, NOTE_F4,500, NOTE_F4,500, NOTE_G3,500,
 NOTE_G4,500, NOTE_G4,500, NOTE_GS3,500, NOTE_GS4,500, NOTE_GS4,500, NOTE_G3,500, NOTE_G4,500, NOTE_G4,500,
 NOTE_C4,500, NOTE_C5,500, NOTE_C5,500, NOTE_F3,500, NOTE_F4,500, NOTE_F4,500, NOTE_AS4,500, NOTE_F4,500,
 NOTE_AS3,500, NOTE_GS3,1200, NOTE_AS3,1200, NOTE_DS3,300, NOTE_DS3,300, NOTE_AS3,300, NOTE_AS3,300, NOTE_DS3,300,
 NOTE_DS3,300, NOTE_AS3,300, NOTE_AS3,300, NOTE_G3,300, NOTE_G3,300, NOTE_D4,300, NOTE_D4,300, NOTE_G3,300,
 NOTE_G3,300, NOTE_D4,300, NOTE_D4,300, NOTE_C4,300, NOTE_C4,300, NOTE_G4,300, NOTE_G4,300, NOTE_C4,300,
 NOTE_C4,300, NOTE_G4,300, NOTE_G4,300, NOTE_AS3,300, NOTE_AS3,300, NOTE_F4,300, NOTE_F4,300, NOTE_AS3,1200,
 NOTE_DS3,450, NOTE_DS5,450, NOTE_AS4,300, NOTE_DS4,450, NOTE_DS5,450, NOTE_D4,300, NOTE_C4,450, NOTE_C5,450,
 NOTE_G4,300, NOTE_C4,600, NOTE_C5,300, NOTE_AS3,300, NOTE_GS3,600, NOTE_GS4,300, NOTE_G3,300, NOTE_F3,600,
 NOTE_F4,300, NOTE_F3,300, NOTE_GS3,600, NOTE_GS4,300, NOTE_G3,300, NOTE_F3,600, NOTE_F4,300, NOTE_G3,300,
 NOTE_GS3,600, NOTE_DS4,300, NOTE_GS4,300, NOTE_C5,600, NOTE_GS3,600, NOTE_AS3,300, NOTE_F4,300, NOTE_AS4,600,
 NOTE_D5,1200, NOTE_DS3,300, NOTE_DS3,300, NOTE_AS3,300, NOTE_AS3,300, NOTE_DS3,300, NOTE_DS3,300, NOTE_AS3,300,
 NOTE_AS3,300, NOTE_G3,300, NOTE_G3,300, NOTE_D4,300, NOTE_D4,300, NOTE_G3,300, NOTE_G3,300, NOTE_D4,300,
 NOTE_D4,300, NOTE_C4,300, NOTE_C4,300, NOTE_G4,300, NOTE_G4,300, NOTE_C4,300, NOTE_C4,300, NOTE_G4,300,
 NOTE_G4,300, NOTE_AS3,300, NOTE_F4,300, NOTE_AS4,300, NOTE_D5,300, NOTE_REST,1200, NOTE_GS3,1200, NOTE_C4,600,
 NOTE_G4,300, NOTE_AS3,300, NOTE_GS3,1200, NOTE_C4,600, NOTE_AS3,600, NOTE_GS3,1200, NOTE_C4,600, NOTE_G4,300,
 NOTE_AS3,300, NOTE_GS3,1200, NOTE_C4,600, NOTE_AS3,600, NOTE_CS4,600, NOTE_GS4,300, NOTE_CS4,300, NOTE_G3,600,
 NOTE_D4,300, NOTE_G3,300, NOTE_C4,600, NOTE_AS3,600, NOTE_GS3,600, NOTE_GS4,300, NOTE_DS4,300, NOTE_GS2,600,
 NOTE_GS3,300, NOTE_DS4,300, NOTE_GS4,1200, NOTE_B2,300, NOTE_B2,300, NOTE_B2,300, NOTE_B2,300, NOTE_B2,300,
 NOTE_REST,900, NOTE_GS2,545, NOTE_GS3,269, NOTE_GS2,272, NOTE_G2,411, NOTE_AS2,406, NOTE_C3,545, NOTE_C3,275,
 NOTE_C4,269, NOTE_C3,272, NOTE_AS2,411, NOTE_AS2,406, NOTE_GS2,548, NOTE_GS2,269, NOTE_GS3,272, NOTE_GS2,272,
 NOTE_G2,411, NOTE_AS2,406, NOTE_C3,545, NOTE_C3,272, NOTE_C4,272, NOTE_C3,275, NOTE_AS2,542, NOTE_AS3,272,
 NOTE_AS2,275, NOTE_GS2,542, NOTE_GS3,275, NOTE_GS2,269, NOTE_G2,411, NOTE_AS2,409, NOTE_C3,542, NOTE_C3,272,
 NOTE_C4,275, NOTE_C3,269, NOTE_AS2,411, NOTE_AS2,406, NOTE_GS2,545, NOTE_GS2,275, NOTE_GS3,269, NOTE_GS2,272,
 NOTE_G2,411, NOTE_AS2,406, NOTE_C3,548, NOTE_C4,269, NOTE_G4,272, NOTE_C5,272, NOTE_DS5,1090, NOTE_GS3,1636,
 NOTE_GS4,272, NOTE_DS4,275, NOTE_AS3,542, NOTE_AS3,548, NOTE_REST,269, NOTE_AS4,272, NOTE_F4,275, NOTE_AS3,269,
 NOTE_DS3,2184, NOTE_C3,1088, NOTE_REST,272, NOTE_C3,409, NOTE_AS2,411, NOTE_GS2,545, NOTE_GS3,1090, NOTE_GS4,269,
 NOTE_GS3,272, NOTE_AS2,1090, NOTE_REST,275, NOTE_AS3,269, NOTE_AS2,548, NOTE_DS3,2181, NOTE_C3,2181, NOTE_GS3,409,
 NOTE_C5,409, NOTE_GS3,269, NOTE_C3,411, NOTE_DS4,406, NOTE_C3,272, NOTE_GS3,411, NOTE_C5,406, NOTE_GS3,272,
 NOTE_C3,411, NOTE_DS4,406, NOTE_C3,272, NOTE_GS3,411, NOTE_C5,406, NOTE_GS3,272, NOTE_C3,411, NOTE_DS4,406,
 NOTE_C3,272, NOTE_CS3,548, NOTE_CS3,545, NOTE_G3,542, NOTE_G3,548, NOTE_GS2,406, NOTE_GS3,409, NOTE_GS3,275,
 NOTE_DS2,409, NOTE_DS3,406, NOTE_DS3,275, NOTE_GS2,409, NOTE_GS3,409, NOTE_GS3,269, NOTE_DS2,411, NOTE_DS3,409,
 NOTE_DS3,269, NOTE_GS2,411, NOTE_GS3,409, NOTE_GS3,269, NOTE_DS2,411, NOTE_DS3,406, NOTE_DS3,272, NOTE_G2,1090,
 NOTE_REST,272, NOTE_G2,275, NOTE_G2,272, NOTE_REST,269, NOTE_GS2,548, NOTE_GS3,269, NOTE_GS2,272, NOTE_G2,411,
 NOTE_AS2,406, NOTE_C3,548, NOTE_C3,269, NOTE_C4,272, NOTE_C3,275, NOTE_AS2,406, NOTE_AS2,409, NOTE_GS2,545,
 NOTE_GS2,272, NOTE_GS3,272, NOTE_GS2,275, NOTE_G2,409, NOTE_AS2,409, NOTE_C3,542, NOTE_C3,272, NOTE_C4,275,
 NOTE_C3,269, NOTE_AS2,545, NOTE_AS3,275, NOTE_AS2,269, NOTE_GS2,548, NOTE_GS3,269, NOTE_GS2,272, NOTE_G2,411,
 NOTE_AS2,406, NOTE_C3,545, NOTE_C3,275, NOTE_C4,269, NOTE_C3,272, NOTE_AS2,411, NOTE_AS2,406, NOTE_GS2,548,
 NOTE_GS2,269, NOTE_GS3,272, NOTE_GS2,272, NOTE_G2,411, NOTE_AS2,406, NOTE_C3,545, NOTE_C3,272, NOTE_C4,272,
 NOTE_C3,275, NOTE_AS2,542, NOTE_AS3,272, NOTE_AS2,275, NOTE_GS2,542, NOTE_GS3,275, NOTE_GS2,269, NOTE_G2,411,
 NOTE_AS2,409, NOTE_C3,542, NOTE_C3,272, NOTE_C4,275, NOTE_C3,269, NOTE_AS2,411, NOTE_AS2,406, NOTE_GS2,545,
 NOTE_GS2,275, NOTE_GS3,269, NOTE_GS2,272, NOTE_G2,411, NOTE_AS2,406, NOTE_C3,548, NOTE_C3,269, NOTE_C4,272,
 NOTE_C3,272, NOTE_AS2,548, NOTE_AS3,269, NOTE_AS2,272, NOTE_GS2,548, NOTE_GS3,269, NOTE_GS2,275, NOTE_G2,406,
 NOTE_AS2,409, NOTE_C3,545, NOTE_C3,272, NOTE_C4,272, NOTE_C3,275, NOTE_AS2,409, NOTE_AS2,409, NOTE_GS2,542,
 NOTE_GS2,272, NOTE_GS3,275, NOTE_GS2,269, NOTE_G2,411, NOTE_AS2,409, NOTE_C3,542, NOTE_C3,275, NOTE_C4,269,
 NOTE_C3,267, NOTE_C3,8, NOTE_AS2,543, NOTE_AS2,25, NOTE_AS3,298, NOTE_AS3,6, NOTE_AS2,309, NOTE_AS2,6,
 NOTE_GS2,653, NOTE_GS2,671, NOTE_GS2,26, NOTE_G2,717, NOTE_G2,24, NOTE_B2,608, NOTE_B2,17, NOTE_B2,166,
 NOTE_C4,826, NOTE_C4,870, NOTE_C4,913, NOTE_C4,931, NOTE_C4,10,
 0, 1, -1, -1
};
// This score contains 3254 bytes.
// 379 notes had to be skipped.
