// ArduboyTones stream for file "imagineDragons.mid" created by MIDI2TONES V1.0.0 on Tue Dec 10 00:23:19 2019
// command line: C:\Users\cnorf\Downloads\midi2tones-master\midi2tones_64bit.exe -o2 -c128 imagineDragons 
//   From channel 7
const int score4[] = {
// On top of the world
 NOTE_REST,9600, NOTE_C6,300, NOTE_C6,295, NOTE_REST,5, NOTE_A5,295, NOTE_REST,5, NOTE_G5,295, NOTE_REST,5,
 NOTE_G5,445, NOTE_REST,5, NOTE_D5,295, NOTE_REST,5, NOTE_E5,145, NOTE_REST,5, NOTE_C5,295, NOTE_REST,5,
 NOTE_C6,300, NOTE_C6,295, NOTE_REST,5, NOTE_A5,295, NOTE_REST,5, NOTE_G5,295, NOTE_REST,5, NOTE_G5,445,
 NOTE_REST,5, NOTE_D5,295, NOTE_REST,5, NOTE_E5,145, NOTE_REST,5, NOTE_C5,295, NOTE_REST,5, NOTE_C6,300,
 NOTE_C6,295, NOTE_REST,5, NOTE_A5,295, NOTE_REST,5, NOTE_G5,295, NOTE_REST,5, NOTE_G5,445, NOTE_REST,5,
 NOTE_D5,295, NOTE_REST,5, NOTE_E5,145, NOTE_REST,5, NOTE_C5,295, NOTE_REST,305, NOTE_E5,295, NOTE_REST,5,
 NOTE_D5,295, NOTE_REST,5, NOTE_C5,295, NOTE_REST,5, NOTE_F5,445, NOTE_REST,5, NOTE_E5,445, NOTE_REST,5,
 NOTE_C5,295, NOTE_REST,5, NOTE_C6,300, NOTE_C6,295, NOTE_REST,5, NOTE_A5,295, NOTE_REST,5, NOTE_G5,295,
 NOTE_REST,5, NOTE_G5,445, NOTE_REST,5, NOTE_D5,295, NOTE_REST,5, NOTE_E5,145, NOTE_REST,5, NOTE_C5,295,
 NOTE_REST,5, NOTE_C6,300, NOTE_C6,295, NOTE_REST,5, NOTE_A5,295, NOTE_REST,5, NOTE_G5,295, NOTE_REST,5,
 NOTE_G5,445, NOTE_REST,5, NOTE_D5,295, NOTE_REST,5, NOTE_E5,145, NOTE_REST,5, NOTE_C5,295, NOTE_REST,5,
 NOTE_C6,300, NOTE_C6,295, NOTE_REST,5, NOTE_A5,295, NOTE_REST,5, NOTE_G5,295, NOTE_REST,5, NOTE_G5,445,
 NOTE_REST,5, NOTE_D5,295, NOTE_REST,5, NOTE_E5,145, NOTE_REST,5, NOTE_C5,295, NOTE_REST,305, NOTE_E5,295,
 NOTE_REST,5, NOTE_D5,295, NOTE_REST,5, NOTE_C5,295, NOTE_REST,5, NOTE_F5,445, NOTE_REST,5, NOTE_E5,445,
 NOTE_REST,5, NOTE_D5,295, NOTE_REST,5, NOTE_C6,300, NOTE_C6,295, NOTE_REST,5, NOTE_A5,295, NOTE_REST,5,
 NOTE_G5,295, NOTE_REST,5, NOTE_G5,445, NOTE_REST,5, NOTE_D5,295, NOTE_REST,5, NOTE_E5,145, NOTE_REST,5,
 NOTE_C5,295, NOTE_REST,5, NOTE_C6,300, NOTE_C6,295, NOTE_REST,5, NOTE_A5,295, NOTE_REST,5, NOTE_G5,295,
 NOTE_REST,5, NOTE_G5,445, NOTE_REST,5, NOTE_D5,295, NOTE_REST,5, NOTE_E5,145, NOTE_REST,5, NOTE_C5,295,
 NOTE_REST,5, NOTE_C6,300, NOTE_C6,295, NOTE_REST,5, NOTE_A5,295, NOTE_REST,5, NOTE_G5,295, NOTE_REST,5,
 NOTE_G5,445, NOTE_REST,5, NOTE_D5,295, NOTE_REST,5, NOTE_E5,145, NOTE_REST,5, NOTE_C5,295, NOTE_REST,305,
 NOTE_E5,295, NOTE_REST,5, NOTE_D5,295, NOTE_REST,5, NOTE_C5,295, NOTE_REST,5, NOTE_F5,445, NOTE_REST,5,
 NOTE_E5,445, NOTE_REST,5, NOTE_D5,295, NOTE_REST,5, NOTE_C6,300, NOTE_C6,295, NOTE_REST,5, NOTE_A5,295,
 NOTE_REST,5, NOTE_G5,295, NOTE_REST,5, NOTE_G5,445, NOTE_REST,5, NOTE_D5,295, NOTE_REST,5, NOTE_E5,145,
 NOTE_REST,5, NOTE_C5,295, NOTE_REST,5, NOTE_C6,300, NOTE_C6,295, NOTE_REST,5, NOTE_A5,295, NOTE_REST,5,
 NOTE_G5,295, NOTE_REST,5, NOTE_G5,445, NOTE_REST,5, NOTE_D5,295, NOTE_REST,5, NOTE_E5,145, NOTE_REST,5,
 NOTE_C5,295, NOTE_REST,5, NOTE_C6,300, NOTE_C6,295, NOTE_REST,5, NOTE_A5,295, NOTE_REST,5, NOTE_G5,295,
 NOTE_REST,5, NOTE_G5,445, NOTE_REST,5, NOTE_D5,295, NOTE_REST,5, NOTE_E5,145, NOTE_REST,5, NOTE_C5,295,
 NOTE_REST,305, NOTE_E5,295, NOTE_REST,5, NOTE_D5,295, NOTE_REST,5, NOTE_C5,295, NOTE_REST,5, NOTE_F5,445,
 NOTE_REST,5, NOTE_E5,445, NOTE_REST,5, NOTE_D5,295,
 0, 1, -1, -1
};
// This score contains 914 bytes.
// 12 notes had to be skipped.
