// ArduboyTones stream for file "imagineDragons.mid" created by MIDI2TONES V1.0.0 on Tue Dec 10 00:23:00 2019
// command line: C:\Users\cnorf\Downloads\midi2tones-master\midi2tones_64bit.exe -o2 -c8 imagineDragons 
//   From channel 3
const int score3[] = {
// On top of the world
 NOTE_REST,19800, NOTE_E5,205, NOTE_REST,95, NOTE_E5,65, NOTE_REST,85, NOTE_E5,190, NOTE_REST,110, NOTE_G5,175,
 NOTE_REST,125, NOTE_D5,430, NOTE_REST,20, NOTE_C5,220, NOTE_REST,380, NOTE_D5,110, NOTE_REST,40, NOTE_C5,85,
 NOTE_REST,65, NOTE_D5,205, NOTE_REST,95, NOTE_C5,85, NOTE_REST,65, NOTE_E5,165, NOTE_REST,135, NOTE_D5,140,
 NOTE_REST,160, NOTE_C5,405, NOTE_REST,45, NOTE_G4,355, NOTE_REST,245, NOTE_D5,145, NOTE_REST,155, NOTE_D5,140,
 NOTE_REST,160, NOTE_D5,180, NOTE_REST,120, NOTE_E5,220, NOTE_REST,80, NOTE_D5,80, NOTE_REST,70, NOTE_C5,365,
 NOTE_REST,85, NOTE_G4,150, NOTE_G4,70, NOTE_REST,800, NOTE_REST,30, NOTE_D5,120, NOTE_REST,30, NOTE_C5,835,
 NOTE_REST,965, NOTE_E5,170, NOTE_REST,130, NOTE_E5,215, NOTE_REST,85, NOTE_E5,70, NOTE_REST,80, NOTE_E5,270,
 NOTE_REST,30, NOTE_G5,205, NOTE_REST,95, NOTE_D5,295, NOTE_REST,155, NOTE_D5,165, NOTE_REST,435, NOTE_D5,125,
 NOTE_REST,25, NOTE_C5,75, NOTE_REST,75, NOTE_D5,235, NOTE_REST,65, NOTE_C5,60, NOTE_REST,90, NOTE_E5,175,
 NOTE_REST,125, NOTE_D5,150, NOTE_REST,150, NOTE_C5,360, NOTE_REST,90, NOTE_G4,215, NOTE_REST,385, NOTE_D5,170,
 NOTE_REST,130, NOTE_D5,180, NOTE_REST,120, NOTE_D5,80, NOTE_REST,70, NOTE_E5,240, NOTE_REST,60, NOTE_D5,185,
 NOTE_REST,115, NOTE_C5,405, NOTE_REST,45, NOTE_G4,95, NOTE_REST,55, NOTE_E5,865, NOTE_REST,35, NOTE_D5,105,
 NOTE_REST,45, NOTE_C5,800, NOTE_REST,1000, NOTE_E5,175, NOTE_REST,125, NOTE_E5,230, NOTE_REST,70, NOTE_E5,80,
 NOTE_REST,70, NOTE_E5,260, NOTE_REST,40, NOTE_G5,190, NOTE_REST,110, NOTE_D5,435, NOTE_REST,15, NOTE_C5,410,
 NOTE_REST,190, NOTE_D5,130, NOTE_REST,170, NOTE_D5,260, NOTE_REST,40, NOTE_C5,65, NOTE_REST,85, NOTE_E5,255,
 NOTE_REST,45, NOTE_D5,200, NOTE_REST,100, NOTE_C5,405, NOTE_REST,45, NOTE_G4,255, NOTE_REST,345, NOTE_D5,90,
 NOTE_REST,60, NOTE_C5,75, NOTE_REST,75, NOTE_D5,230, NOTE_REST,70, NOTE_C5,45, NOTE_REST,105, NOTE_E5,230,
 NOTE_REST,70, NOTE_D5,190, NOTE_REST,110, NOTE_C5,270, NOTE_REST,30, NOTE_D5,275, NOTE_REST,25, NOTE_E5,880,
 NOTE_REST,20, NOTE_D5,100, NOTE_REST,50, NOTE_C5,85, NOTE_REST,65, NOTE_C5,575, NOTE_REST,25, NOTE_G4,675,
 NOTE_REST,375, NOTE_G4,235, NOTE_REST,65, NOTE_E5,160, NOTE_REST,140, NOTE_E5,75, NOTE_REST,75, NOTE_E5,195,
 NOTE_REST,105, NOTE_D5,150, NOTE_REST,150, NOTE_C5,175, NOTE_REST,125, NOTE_C5,195, NOTE_REST,105, NOTE_D5,750,
 0, 1, -1, -1
};
// This score contains 674 bytes.
// 1 notes had to be skipped.
