// ArduboyTones stream for file "imagineDragons.mid" created by MIDI2TONES V1.0.0 on Tue Dec 10 00:22:40 2019
// command line: C:\Users\cnorf\Downloads\midi2tones-master\midi2tones_64bit.exe -o2 -c4 imagineDragons 
//   From channel 2
const int score2[] = {
// On top of the world
 NOTE_REST,9600, NOTE_C8,195, NOTE_REST,105, NOTE_G7,220, NOTE_REST,80, NOTE_A7,225, NOTE_REST,75, NOTE_G7,205,
 NOTE_REST,95, NOTE_G7,380, NOTE_REST,70, NOTE_D7,445, NOTE_REST,5, NOTE_C7,210, NOTE_REST,90, NOTE_C8,195,
 NOTE_REST,105, NOTE_G7,220, NOTE_REST,80, NOTE_A7,225, NOTE_REST,75, NOTE_G7,205, NOTE_REST,95, NOTE_G7,380,
 NOTE_REST,70, NOTE_D7,445, NOTE_REST,5, NOTE_C7,210, NOTE_REST,90, NOTE_C8,195, NOTE_REST,105, NOTE_G7,220,
 NOTE_REST,80, NOTE_A7,225, NOTE_REST,75, NOTE_G7,205, NOTE_REST,95, NOTE_G7,380, NOTE_REST,70, NOTE_D7,445,
 NOTE_REST,5, NOTE_C7,210, NOTE_REST,390, NOTE_E7,220, NOTE_REST,80, NOTE_D7,190, NOTE_REST,110, NOTE_C7,190,
 NOTE_REST,110, NOTE_F7,335, NOTE_REST,115, NOTE_E7,315, NOTE_REST,135, NOTE_C7,260, NOTE_REST,40, NOTE_C8,195,
 NOTE_REST,105, NOTE_G7,220, NOTE_REST,80, NOTE_A7,225, NOTE_REST,75, NOTE_G7,205, NOTE_REST,95, NOTE_G7,380,
 NOTE_REST,70, NOTE_D7,445, NOTE_REST,5, NOTE_C7,210, NOTE_REST,90, NOTE_C8,195, NOTE_REST,105, NOTE_G7,220,
 NOTE_REST,80, NOTE_A7,225, NOTE_REST,75, NOTE_G7,205, NOTE_REST,95, NOTE_G7,380, NOTE_REST,70, NOTE_D7,445,
 NOTE_REST,5, NOTE_C7,210, NOTE_REST,90, NOTE_C8,195, NOTE_REST,105, NOTE_G7,220, NOTE_REST,80, NOTE_A7,225,
 NOTE_REST,75, NOTE_G7,205, NOTE_REST,95, NOTE_G7,380, NOTE_REST,70, NOTE_D7,445, NOTE_REST,5, NOTE_C7,210,
 NOTE_REST,390, NOTE_E7,220, NOTE_REST,80, NOTE_D7,190, NOTE_REST,110, NOTE_C7,190, NOTE_REST,110, NOTE_F7,335,
 NOTE_REST,115, NOTE_E7,315, NOTE_REST,135, NOTE_C7,260, NOTE_REST,40, NOTE_C8,195, NOTE_REST,105, NOTE_G7,220,
 NOTE_REST,80, NOTE_A7,225, NOTE_REST,75, NOTE_G7,205, NOTE_REST,95, NOTE_G7,380, NOTE_REST,70, NOTE_D7,445,
 NOTE_REST,5, NOTE_C7,210, NOTE_REST,90, NOTE_C8,195, NOTE_REST,105, NOTE_G7,220, NOTE_REST,80, NOTE_A7,225,
 NOTE_REST,75, NOTE_G7,205, NOTE_REST,95, NOTE_G7,380, NOTE_REST,70, NOTE_D7,445, NOTE_REST,5, NOTE_C7,210,
 NOTE_REST,90, NOTE_C8,195, NOTE_REST,105, NOTE_G7,220, NOTE_REST,80, NOTE_A7,225, NOTE_REST,75, NOTE_G7,205,
 NOTE_REST,95, NOTE_G7,380, NOTE_REST,70, NOTE_D7,445, NOTE_REST,5, NOTE_C7,210, NOTE_REST,390, NOTE_E7,220,
 NOTE_REST,80, NOTE_D7,190, NOTE_REST,110, NOTE_C7,190, NOTE_REST,110, NOTE_F7,335, NOTE_REST,115, NOTE_E7,315,
 NOTE_REST,135, NOTE_D7,260, NOTE_REST,40, NOTE_C8,195, NOTE_REST,105, NOTE_G7,220, NOTE_REST,80, NOTE_A7,225,
 NOTE_REST,75, NOTE_G7,205, NOTE_REST,95, NOTE_G7,380, NOTE_REST,70, NOTE_D7,445, NOTE_REST,5, NOTE_C7,210,
 NOTE_REST,90, NOTE_C8,195, NOTE_REST,105, NOTE_G7,220, NOTE_REST,80, NOTE_A7,225, NOTE_REST,75, NOTE_G7,205,
 NOTE_REST,95, NOTE_G7,380, NOTE_REST,70, NOTE_D7,445, NOTE_REST,5, NOTE_C7,210, NOTE_REST,90, NOTE_C8,195,
 NOTE_REST,105, NOTE_G7,220, NOTE_REST,80, NOTE_A7,225, NOTE_REST,75, NOTE_G7,205, NOTE_REST,95, NOTE_G7,380,
 NOTE_REST,70, NOTE_D7,445, NOTE_REST,5, NOTE_C7,210, NOTE_REST,390, NOTE_E7,220, NOTE_REST,80, NOTE_D7,190,
 NOTE_REST,110, NOTE_C7,190, NOTE_REST,110, NOTE_F7,335, NOTE_REST,115, NOTE_E7,315, NOTE_REST,135, NOTE_C7,260,
 0, 1, -1, -1
};
// This score contains 866 bytes.
