// ArduboyTones stream for file "imagineDragons.mid" created by MIDI2TONES V1.0.0 on Tue Dec 10 00:22:21 2019
// command line: C:\Users\cnorf\Downloads\midi2tones-master\midi2tones_64bit.exe -o2 -c1 imagineDragons 
//   From channel 0
const int score1[] = {
// On top of the world
 NOTE_REST,9600, NOTE_C4,295, NOTE_REST,5, NOTE_C4,295, NOTE_REST,5, NOTE_C4,295, NOTE_REST,5, NOTE_C4,295,
 NOTE_REST,5, NOTE_C4,295, NOTE_REST,5, NOTE_C4,145, NOTE_REST,5, NOTE_C4,295, NOTE_REST,5, NOTE_C4,145,
 NOTE_REST,5, NOTE_C4,145, NOTE_REST,5, NOTE_C4,145, NOTE_REST,5, NOTE_F4,295, NOTE_REST,5, NOTE_F4,295,
 NOTE_REST,5, NOTE_F4,295, NOTE_REST,5, NOTE_F4,295, NOTE_REST,5, NOTE_F4,295, NOTE_REST,5, NOTE_F4,145,
 NOTE_REST,5, NOTE_F4,295, NOTE_REST,5, NOTE_F4,145, NOTE_REST,5, NOTE_F4,145, NOTE_REST,5, NOTE_F4,145,
 NOTE_REST,5, NOTE_D4,295, NOTE_REST,5, NOTE_D4,295, NOTE_REST,5, NOTE_D4,295, NOTE_REST,5, NOTE_D4,295,
 NOTE_REST,5, NOTE_D4,295, NOTE_REST,5, NOTE_D4,145, NOTE_REST,5, NOTE_D4,295, NOTE_REST,5, NOTE_D4,145,
 NOTE_REST,5, NOTE_D4,145, NOTE_REST,5, NOTE_D4,145, NOTE_REST,5, NOTE_D4,295, NOTE_REST,5, NOTE_D4,295,
 NOTE_REST,5, NOTE_D4,295, NOTE_REST,5, NOTE_D4,295, NOTE_REST,5, NOTE_D4,295, NOTE_REST,5, NOTE_D4,145,
 NOTE_REST,5, NOTE_D4,295, NOTE_REST,5, NOTE_D4,145, NOTE_REST,5, NOTE_D4,145, NOTE_REST,5, NOTE_D4,145,
 NOTE_REST,19205, NOTE_C4,295, NOTE_REST,5, NOTE_C4,295, NOTE_REST,5, NOTE_C4,295, NOTE_REST,5, NOTE_C4,295,
 NOTE_REST,5, NOTE_C4,295, NOTE_REST,5, NOTE_C4,145, NOTE_REST,5, NOTE_C4,295, NOTE_REST,5, NOTE_C4,145,
 NOTE_REST,5, NOTE_C4,145, NOTE_REST,5, NOTE_C4,145, NOTE_REST,5, NOTE_F4,295, NOTE_REST,5, NOTE_F4,295,
 NOTE_REST,5, NOTE_F4,295, NOTE_REST,5, NOTE_F4,295, NOTE_REST,5, NOTE_F4,295, NOTE_REST,5, NOTE_F4,145,
 NOTE_REST,5, NOTE_F4,295, NOTE_REST,5, NOTE_F4,145, NOTE_REST,5, NOTE_F4,145, NOTE_REST,5, NOTE_F4,145,
 NOTE_REST,5, NOTE_D4,295, NOTE_REST,5, NOTE_D4,295, NOTE_REST,5, NOTE_D4,295, NOTE_REST,5, NOTE_D4,295,
 NOTE_REST,5, NOTE_D4,295, NOTE_REST,5, NOTE_D4,145, NOTE_REST,5, NOTE_D4,295, NOTE_REST,5, NOTE_D4,145,
 NOTE_REST,5, NOTE_D4,145, NOTE_REST,5, NOTE_D4,145, NOTE_REST,5, NOTE_D4,295, NOTE_REST,5, NOTE_D4,295,
 NOTE_REST,5, NOTE_D4,295, NOTE_REST,5, NOTE_D4,295, NOTE_REST,5, NOTE_D4,295, NOTE_REST,5, NOTE_D4,145,
 NOTE_REST,5, NOTE_D4,295, NOTE_REST,5, NOTE_D4,145, NOTE_REST,5, NOTE_D4,145, NOTE_REST,5, NOTE_D4,145,
 NOTE_REST,5, NOTE_A3,2260, NOTE_REST,5, NOTE_G3,20, NOTE_G3,15, NOTE_G3,15, NOTE_G3,10, NOTE_G3,30,
 NOTE_G3,20, NOTE_G3,25, NOTE_G3,600,
 0, 1, -1, -1
};
// This score contains 686 bytes.
// 308 notes had to be skipped.
