// ArduboyTones stream for file "ringxms.mid" created by MIDI2TONES V1.0.0 on Wed Dec 11 14:32:04 2019
// command line: C:\Users\cnorf\Downloads\midi2tones-master\midi2tones_64bit.exe -o2 -c16 ringxms 
//   From channel 4
const int score2[] = {
 NOTE_REST,4235, NOTE_FS5,1058, NOTE_E5,1058, NOTE_D5,1058, NOTE_CS5,1058, NOTE_FS5,1058, NOTE_E5,1058, NOTE_D5,1058,
 NOTE_CS5,1058, NOTE_FS5,352, NOTE_FS5,176, NOTE_FS5,176, NOTE_FS5,352, NOTE_FS5,352, NOTE_FS5,176, NOTE_FS5,176,
 NOTE_FS5,352, NOTE_FS5,352, NOTE_FS5,176, NOTE_FS5,176, NOTE_FS5,352, NOTE_FS5,352, NOTE_FS5,176, NOTE_FS5,176,
 NOTE_FS5,352, NOTE_CS6,352, NOTE_B5,176, NOTE_CS6,176, NOTE_A5,352, NOTE_CS6,352, NOTE_B5,176, NOTE_CS6,176,
 NOTE_A5,352, NOTE_CS6,352, NOTE_B5,176, NOTE_CS6,176, NOTE_A5,352, NOTE_CS6,352, NOTE_B5,176, NOTE_CS6,176,
 NOTE_A5,352, NOTE_FS5,352, NOTE_FS5,176, NOTE_FS5,176, NOTE_FS5,352, NOTE_FS5,352, NOTE_FS5,176, NOTE_FS5,176,
 NOTE_FS5,352, NOTE_FS5,352, NOTE_FS5,176, NOTE_FS5,176, NOTE_FS5,352, NOTE_FS5,352, NOTE_FS5,176, NOTE_FS5,176,
 NOTE_FS5,352, NOTE_CS5,1058, NOTE_DS5,352, NOTE_F5,352, NOTE_FS5,352, NOTE_CS5,1058, NOTE_DS5,352, NOTE_F5,352,
 NOTE_FS5,352, NOTE_CS5,1058, NOTE_CS5,1058, NOTE_E5,1058, NOTE_D5,1058, NOTE_CS5,1058, NOTE_REST,3176, NOTE_FS5,1058,
 NOTE_E5,1058, NOTE_D5,1058, NOTE_CS5,1058, NOTE_FS5,1058, NOTE_E5,1058, NOTE_D5,1058, NOTE_CS5,1058, NOTE_FS5,352,
 NOTE_FS5,176, NOTE_FS5,176, NOTE_FS5,352, NOTE_FS5,352, NOTE_FS5,176, NOTE_FS5,176, NOTE_FS5,352, NOTE_FS5,352,
 NOTE_FS5,176, NOTE_FS5,176, NOTE_FS5,352, NOTE_FS5,352, NOTE_FS5,176, NOTE_FS5,176, NOTE_FS5,352, NOTE_CS6,352,
 NOTE_B5,176, NOTE_CS6,176, NOTE_A5,352, NOTE_CS6,352, NOTE_B5,176, NOTE_CS6,176, NOTE_A5,352, NOTE_CS6,352,
 NOTE_B5,176, NOTE_CS6,176, NOTE_A5,352, NOTE_CS6,352, NOTE_B5,176, NOTE_CS6,176, NOTE_A5,352, NOTE_FS5,352,
 NOTE_FS5,176, NOTE_FS5,176, NOTE_FS5,352, NOTE_FS5,352, NOTE_FS5,176, NOTE_FS5,176, NOTE_FS5,352, NOTE_FS5,352,
 NOTE_FS5,176, NOTE_FS5,176, NOTE_FS5,352, NOTE_FS5,352, NOTE_FS5,176, NOTE_FS5,176, NOTE_FS5,352, NOTE_CS5,1058,
 NOTE_DS5,352, NOTE_F5,352, NOTE_FS5,352, NOTE_CS5,1058, NOTE_DS5,352, NOTE_F5,352, NOTE_FS5,352, NOTE_CS5,1058,
 NOTE_CS5,1058, NOTE_E5,1058, NOTE_D5,1058, NOTE_CS5,1058, NOTE_REST,3176, NOTE_FS5,1058, NOTE_E5,1058, NOTE_D5,1058,
 NOTE_CS5,1058, NOTE_FS5,1058, NOTE_E5,1058, NOTE_D5,1058, NOTE_CS5,1058, NOTE_FS5,352, NOTE_FS5,176, NOTE_FS5,176,
 NOTE_FS5,352, NOTE_FS5,352, NOTE_FS5,176, NOTE_FS5,176, NOTE_FS5,352, NOTE_FS5,352, NOTE_FS5,176, NOTE_FS5,176,
 NOTE_FS5,352, NOTE_FS5,352, NOTE_FS5,176, NOTE_FS5,176, NOTE_FS5,352, NOTE_CS6,352, NOTE_B5,176, NOTE_CS6,176,
 NOTE_A5,352, NOTE_CS6,352, NOTE_B5,176, NOTE_CS6,176, NOTE_A5,352, NOTE_CS6,352, NOTE_B5,176, NOTE_CS6,176,
 NOTE_A5,352, NOTE_CS6,352, NOTE_B5,176, NOTE_CS6,176, NOTE_A5,352, NOTE_FS5,352, NOTE_FS5,176, NOTE_FS5,176,
 NOTE_FS5,352, NOTE_FS5,352, NOTE_FS5,176, NOTE_FS5,176, NOTE_FS5,352, NOTE_FS5,352, NOTE_FS5,176, NOTE_FS5,176,
 NOTE_FS5,352, NOTE_FS5,352, NOTE_FS5,176, NOTE_FS5,176, NOTE_FS5,352, NOTE_CS5,1058, NOTE_DS5,352, NOTE_F5,352,
 NOTE_FS5,352, NOTE_CS5,1058, NOTE_DS5,352, NOTE_F5,352, NOTE_FS5,352, NOTE_CS5,1058, NOTE_CS5,1058, NOTE_E5,1058,
 NOTE_D5,1058, NOTE_CS5,1058, NOTE_CS5,1058, NOTE_CS5,1058, NOTE_A4,352, NOTE_GS4,176, NOTE_A4,176, NOTE_FS4,2117,
 0, 1, -1, -1
};
// This score contains 866 bytes.
// 237 notes had to be skipped.
