// ArduboyTones stream for file "ringxms.mid" created by MIDI2TONES V1.0.0 on Wed Dec 11 14:32:29 2019
// command line: C:\Users\cnorf\Downloads\midi2tones-master\midi2tones_64bit.exe -o2 -c64 ringxms 
//   From channel 6
const int score4[] = {
 NOTE_REST,12705, NOTE_D4,352, NOTE_D4,176, NOTE_D4,176, NOTE_D4,352, NOTE_FS4,352, NOTE_FS4,176, NOTE_FS4,176,
 NOTE_FS4,352, NOTE_B4,352, NOTE_B4,176, NOTE_B4,176, NOTE_B4,352, NOTE_FS4,352, NOTE_FS4,176, NOTE_FS4,176,
 NOTE_FS4,352, NOTE_FS4,352, NOTE_FS4,176, NOTE_FS4,176, NOTE_FS4,352, NOTE_FS4,352, NOTE_FS4,176, NOTE_FS4,176,
 NOTE_FS4,352, NOTE_FS4,352, NOTE_FS4,176, NOTE_FS4,176, NOTE_FS4,352, NOTE_FS4,352, NOTE_FS4,176, NOTE_FS4,176,
 NOTE_FS4,352, NOTE_A4,352, NOTE_GS4,176, NOTE_A4,176, NOTE_FS4,176, NOTE_FS4,176, NOTE_A4,352, NOTE_GS4,176,
 NOTE_A4,176, NOTE_FS4,176, NOTE_FS4,176, NOTE_A4,352, NOTE_GS4,176, NOTE_A4,176, NOTE_FS4,176, NOTE_FS4,176,
 NOTE_A4,352, NOTE_GS4,176, NOTE_A4,176, NOTE_FS4,176, NOTE_FS4,176, NOTE_CS4,1058, NOTE_CS4,1058, NOTE_CS4,1058,
 NOTE_CS4,1058, NOTE_E4,1058, NOTE_D4,1058, NOTE_CS4,1058, NOTE_B3,1058, NOTE_FS3,1058, NOTE_REST,11647, NOTE_D4,352,
 NOTE_D4,176, NOTE_D4,176, NOTE_D4,352, NOTE_FS4,352, NOTE_FS4,176, NOTE_FS4,176, NOTE_FS4,352, NOTE_B4,352,
 NOTE_B4,176, NOTE_B4,176, NOTE_B4,352, NOTE_FS4,352, NOTE_FS4,176, NOTE_FS4,176, NOTE_FS4,352, NOTE_FS4,352,
 NOTE_FS4,176, NOTE_FS4,176, NOTE_FS4,352, NOTE_FS4,352, NOTE_FS4,176, NOTE_FS4,176, NOTE_FS4,352, NOTE_FS4,352,
 NOTE_FS4,176, NOTE_FS4,176, NOTE_FS4,352, NOTE_FS4,352, NOTE_FS4,176, NOTE_FS4,176, NOTE_FS4,352, NOTE_A4,352,
 NOTE_GS4,176, NOTE_A4,176, NOTE_FS4,176, NOTE_FS4,176, NOTE_A4,352, NOTE_GS4,176, NOTE_A4,176, NOTE_FS4,176,
 NOTE_FS4,176, NOTE_A4,352, NOTE_GS4,176, NOTE_A4,176, NOTE_FS4,176, NOTE_FS4,176, NOTE_A4,352, NOTE_GS4,176,
 NOTE_A4,176, NOTE_FS4,176, NOTE_FS4,176, NOTE_CS4,1058, NOTE_CS4,1058, NOTE_CS4,1058, NOTE_CS4,1058, NOTE_E4,1058,
 NOTE_D4,1058, NOTE_CS4,1058, NOTE_B3,1058, NOTE_FS3,1058, NOTE_REST,11647, NOTE_D4,352, NOTE_D4,176, NOTE_D4,176,
 NOTE_D4,352, NOTE_FS4,352, NOTE_FS4,176, NOTE_FS4,176, NOTE_FS4,352, NOTE_B4,352, NOTE_B4,176, NOTE_B4,176,
 NOTE_B4,352, NOTE_FS4,352, NOTE_FS4,176, NOTE_FS4,176, NOTE_FS4,352, NOTE_FS4,352, NOTE_FS4,176, NOTE_FS4,176,
 NOTE_FS4,352, NOTE_FS4,352, NOTE_FS4,176, NOTE_FS4,176, NOTE_FS4,352, NOTE_FS4,352, NOTE_FS4,176, NOTE_FS4,176,
 NOTE_FS4,352, NOTE_FS4,352, NOTE_FS4,176, NOTE_FS4,176, NOTE_FS4,352, NOTE_A4,352, NOTE_GS4,176, NOTE_A4,176,
 NOTE_FS4,176, NOTE_FS4,176, NOTE_A4,352, NOTE_GS4,176, NOTE_A4,176, NOTE_FS4,176, NOTE_FS4,176, NOTE_A4,352,
 NOTE_GS4,176, NOTE_A4,176, NOTE_FS4,176, NOTE_FS4,176, NOTE_A4,352, NOTE_GS4,176, NOTE_A4,176, NOTE_FS4,176,
 NOTE_FS4,176, NOTE_CS4,1058, NOTE_CS4,1058, NOTE_CS4,1058, NOTE_CS4,1058, NOTE_E4,1058, NOTE_D4,1058, NOTE_CS4,1058,
 NOTE_B3,1058, NOTE_FS3,1058, NOTE_FS3,1058, NOTE_FS3,1058, NOTE_REST,1058, NOTE_FS3,2823,
 0, 1, -1, -1
};
// This score contains 762 bytes.
// 186 notes had to be skipped.
