// ArduboyTones stream for file "ringxms.mid" created by MIDI2TONES V1.0.0 on Wed Dec 11 14:32:16 2019
// command line: C:\Users\cnorf\Downloads\midi2tones-master\midi2tones_64bit.exe -o2 -c32 ringxms 
//   From channel 5
const int score3[] = {
 NOTE_REST,12705, NOTE_B4,352, NOTE_B4,176, NOTE_B4,176, NOTE_B4,352, NOTE_CS5,352, NOTE_CS5,176, NOTE_CS5,176,
 NOTE_CS5,352, NOTE_D5,352, NOTE_D5,176, NOTE_D5,176, NOTE_D5,352, NOTE_CS5,352, NOTE_CS5,176, NOTE_CS5,176,
 NOTE_CS5,352, NOTE_CS5,352, NOTE_CS5,176, NOTE_CS5,176, NOTE_CS5,352, NOTE_DS5,352, NOTE_DS5,176, NOTE_DS5,176,
 NOTE_DS5,352, NOTE_E5,352, NOTE_D5,176, NOTE_D5,176, NOTE_CS5,352, NOTE_FS5,176, NOTE_E5,176, NOTE_D5,176,
 NOTE_D5,176, NOTE_CS5,352, NOTE_CS5,352, NOTE_D5,176, NOTE_D5,176, NOTE_CS5,176, NOTE_B4,176, NOTE_CS5,352,
 NOTE_CS5,176, NOTE_CS5,176, NOTE_CS5,176, NOTE_CS5,176, NOTE_D5,352, NOTE_D5,176, NOTE_D5,176, NOTE_E5,176,
 NOTE_D5,176, NOTE_CS5,352, NOTE_CS5,176, NOTE_CS5,176, NOTE_CS5,176, NOTE_CS5,176, NOTE_A4,352, NOTE_GS4,176,
 NOTE_A4,176, NOTE_FS4,352, NOTE_A4,352, NOTE_GS4,176, NOTE_A4,176, NOTE_FS4,352, NOTE_A4,352, NOTE_GS4,176,
 NOTE_A4,176, NOTE_FS4,352, NOTE_A4,352, NOTE_GS4,176, NOTE_A4,176, NOTE_FS4,352, NOTE_FS4,1058, NOTE_FS4,1058,
 NOTE_FS4,1058, NOTE_FS4,1058, NOTE_FS4,1058, NOTE_REST,11647, NOTE_B4,352, NOTE_B4,176, NOTE_B4,176, NOTE_B4,352,
 NOTE_CS5,352, NOTE_CS5,176, NOTE_CS5,176, NOTE_CS5,352, NOTE_D5,352, NOTE_D5,176, NOTE_D5,176, NOTE_D5,352,
 NOTE_CS5,352, NOTE_CS5,176, NOTE_CS5,176, NOTE_CS5,352, NOTE_CS5,352, NOTE_CS5,176, NOTE_CS5,176, NOTE_CS5,352,
 NOTE_DS5,352, NOTE_DS5,176, NOTE_DS5,176, NOTE_DS5,352, NOTE_E5,352, NOTE_D5,176, NOTE_D5,176, NOTE_CS5,352,
 NOTE_FS5,176, NOTE_E5,176, NOTE_D5,176, NOTE_D5,176, NOTE_CS5,352, NOTE_CS5,352, NOTE_D5,176, NOTE_D5,176,
 NOTE_CS5,176, NOTE_B4,176, NOTE_CS5,352, NOTE_CS5,176, NOTE_CS5,176, NOTE_CS5,176, NOTE_CS5,176, NOTE_D5,352,
 NOTE_D5,176, NOTE_D5,176, NOTE_E5,176, NOTE_D5,176, NOTE_CS5,352, NOTE_CS5,176, NOTE_CS5,176, NOTE_CS5,176,
 NOTE_CS5,176, NOTE_A4,352, NOTE_GS4,176, NOTE_A4,176, NOTE_FS4,352, NOTE_A4,352, NOTE_GS4,176, NOTE_A4,176,
 NOTE_FS4,352, NOTE_A4,352, NOTE_GS4,176, NOTE_A4,176, NOTE_FS4,352, NOTE_A4,352, NOTE_GS4,176, NOTE_A4,176,
 NOTE_FS4,352, NOTE_FS4,1058, NOTE_FS4,1058, NOTE_FS4,1058, NOTE_FS4,1058, NOTE_FS4,1058, NOTE_REST,11647, NOTE_B4,352,
 NOTE_B4,176, NOTE_B4,176, NOTE_B4,352, NOTE_CS5,352, NOTE_CS5,176, NOTE_CS5,176, NOTE_CS5,352, NOTE_D5,352,
 NOTE_D5,176, NOTE_D5,176, NOTE_D5,352, NOTE_CS5,352, NOTE_CS5,176, NOTE_CS5,176, NOTE_CS5,352, NOTE_CS5,352,
 NOTE_CS5,176, NOTE_CS5,176, NOTE_CS5,352, NOTE_DS5,352, NOTE_DS5,176, NOTE_DS5,176, NOTE_DS5,352, NOTE_E5,352,
 NOTE_D5,176, NOTE_D5,176, NOTE_CS5,352, NOTE_FS5,176, NOTE_E5,176, NOTE_D5,176, NOTE_D5,176, NOTE_CS5,352,
 NOTE_CS5,352, NOTE_D5,176, NOTE_D5,176, NOTE_CS5,176, NOTE_B4,176, NOTE_CS5,352, NOTE_CS5,176, NOTE_CS5,176,
 NOTE_CS5,176, NOTE_CS5,176, NOTE_D5,352, NOTE_D5,176, NOTE_D5,176, NOTE_E5,176, NOTE_D5,176, NOTE_CS5,352,
 NOTE_CS5,176, NOTE_CS5,176, NOTE_CS5,176, NOTE_CS5,176, NOTE_A4,352, NOTE_GS4,176, NOTE_A4,176, NOTE_FS4,352,
 NOTE_A4,352, NOTE_GS4,176, NOTE_A4,176, NOTE_FS4,352, NOTE_A4,352, NOTE_GS4,176, NOTE_A4,176, NOTE_FS4,352,
 NOTE_A4,352, NOTE_GS4,176, NOTE_A4,176, NOTE_FS4,352, NOTE_FS4,1058, NOTE_FS4,1058, NOTE_FS4,1058, NOTE_FS4,1058,
 NOTE_A4,352, NOTE_GS4,176, NOTE_A4,176, NOTE_FS4,352, NOTE_A4,352, NOTE_GS4,176, NOTE_A4,176, NOTE_FS4,352,
 NOTE_A4,352, NOTE_GS4,176, NOTE_A4,176, NOTE_FS4,2823,
 0, 1, -1, -1
};
// This score contains 946 bytes.
// 233 notes had to be skipped.
