// ArduboyTones stream for file "ringxms.mid" created by MIDI2TONES V1.0.0 on Wed Dec 11 14:31:47 2019
// command line: C:\Users\cnorf\Downloads\midi2tones-master\midi2tones_64bit.exe -o2 -c8 ringxms 
//   From channel 3
const int score1[] = {
 NOTE_A5,352, NOTE_GS5,176, NOTE_A5,176, NOTE_FS5,352, NOTE_A5,352, NOTE_GS5,176, NOTE_A5,176, NOTE_FS5,352,
 NOTE_A5,352, NOTE_GS5,176, NOTE_A5,176, NOTE_FS5,352, NOTE_A5,352, NOTE_GS5,176, NOTE_A5,176, NOTE_FS5,352,
 NOTE_A5,352, NOTE_GS5,176, NOTE_A5,176, NOTE_FS5,352, NOTE_A5,352, NOTE_GS5,176, NOTE_A5,176, NOTE_FS5,352,
 NOTE_A5,352, NOTE_GS5,176, NOTE_A5,176, NOTE_FS5,352, NOTE_A5,352, NOTE_GS5,176, NOTE_A5,176, NOTE_FS5,352,
 NOTE_A5,352, NOTE_GS5,176, NOTE_A5,176, NOTE_FS5,352, NOTE_A5,352, NOTE_GS5,176, NOTE_A5,176, NOTE_FS5,352,
 NOTE_A5,352, NOTE_GS5,176, NOTE_A5,176, NOTE_FS5,352, NOTE_A5,352, NOTE_GS5,176, NOTE_A5,176, NOTE_FS5,352,
 NOTE_A5,352, NOTE_GS5,176, NOTE_A5,176, NOTE_FS5,352, NOTE_A5,352, NOTE_GS5,176, NOTE_A5,176, NOTE_FS5,352,
 NOTE_A5,352, NOTE_GS5,176, NOTE_A5,176, NOTE_FS5,352, NOTE_A5,352, NOTE_GS5,176, NOTE_A5,176, NOTE_FS5,352,
 NOTE_A5,352, NOTE_GS5,176, NOTE_A5,176, NOTE_FS5,352, NOTE_A5,352, NOTE_GS5,176, NOTE_A5,176, NOTE_FS5,352,
 NOTE_A5,352, NOTE_GS5,176, NOTE_A5,176, NOTE_FS5,352, NOTE_A5,352, NOTE_GS5,176, NOTE_A5,176, NOTE_FS5,352,
 NOTE_FS6,352, NOTE_FS6,176, NOTE_FS6,176, NOTE_E6,176, NOTE_D6,176, NOTE_CS6,352, NOTE_CS6,176, NOTE_CS6,176,
 NOTE_B5,176, NOTE_A5,176, NOTE_B5,352, NOTE_B5,176, NOTE_B5,176, NOTE_CS6,176, NOTE_B5,176, NOTE_FS5,352,
 NOTE_FS5,176, NOTE_FS5,176, NOTE_FS5,176, NOTE_FS5,176, NOTE_CS5,176, NOTE_DS5,176, NOTE_F5,176, NOTE_FS5,176,
 NOTE_GS5,176, NOTE_A5,176, NOTE_B5,176, NOTE_CS6,176, NOTE_B5,352, NOTE_A5,352, NOTE_CS5,176, NOTE_DS5,176,
 NOTE_F5,176, NOTE_FS5,176, NOTE_GS5,176, NOTE_A5,176, NOTE_B5,176, NOTE_CS6,176, NOTE_B5,352, NOTE_A5,352,
 NOTE_A5,352, NOTE_GS5,176, NOTE_A5,176, NOTE_FS5,352, NOTE_A5,352, NOTE_GS5,176, NOTE_A5,176, NOTE_FS5,352,
 NOTE_A5,352, NOTE_GS5,176, NOTE_A5,176, NOTE_FS5,352, NOTE_A5,352, NOTE_GS5,176, NOTE_A5,176, NOTE_FS5,352,
 NOTE_A5,352, NOTE_GS5,176, NOTE_A5,176, NOTE_FS5,352, NOTE_A5,352, NOTE_GS5,176, NOTE_A5,176, NOTE_FS5,352,
 NOTE_A5,352, NOTE_GS5,176, NOTE_A5,176, NOTE_FS5,352, NOTE_A5,352, NOTE_GS5,176, NOTE_A5,176, NOTE_FS5,352,
 NOTE_A5,352, NOTE_GS5,176, NOTE_A5,176, NOTE_FS5,352, NOTE_A5,352, NOTE_GS5,176, NOTE_A5,176, NOTE_FS5,352,
 NOTE_A5,352, NOTE_GS5,176, NOTE_A5,176, NOTE_FS5,352, NOTE_A5,352, NOTE_GS5,176, NOTE_A5,176, NOTE_FS5,352,
 NOTE_A5,352, NOTE_GS5,176, NOTE_A5,176, NOTE_FS5,352, NOTE_A5,352, NOTE_GS5,176, NOTE_A5,176, NOTE_FS5,352,
 NOTE_A5,352, NOTE_GS5,176, NOTE_A5,176, NOTE_FS5,352, NOTE_A5,352, NOTE_GS5,176, NOTE_A5,176, NOTE_FS5,352,
 NOTE_A5,352, NOTE_GS5,176, NOTE_A5,176, NOTE_FS5,352, NOTE_A5,352, NOTE_GS5,176, NOTE_A5,176, NOTE_FS5,352,
 NOTE_A5,352, NOTE_GS5,176, NOTE_A5,176, NOTE_FS5,352, NOTE_A5,352, NOTE_GS5,176, NOTE_A5,176, NOTE_FS5,352,
 NOTE_A5,352, NOTE_GS5,176, NOTE_A5,176, NOTE_FS5,352, NOTE_A5,352, NOTE_GS5,176, NOTE_A5,176, NOTE_FS5,352,
 NOTE_A5,352, NOTE_GS5,176, NOTE_A5,176, NOTE_FS5,352, NOTE_A5,352, NOTE_GS5,176, NOTE_A5,176, NOTE_FS5,352,
 NOTE_FS6,352, NOTE_FS6,176, NOTE_FS6,176, NOTE_E6,176, NOTE_D6,176, NOTE_CS6,352, NOTE_CS6,176, NOTE_CS6,176,
 NOTE_B5,176, NOTE_A5,176, NOTE_B5,352, NOTE_B5,176, NOTE_B5,176, NOTE_CS6,176, NOTE_B5,176, NOTE_FS5,352,
 NOTE_FS5,176, NOTE_FS5,176, NOTE_FS5,176, NOTE_FS5,176, NOTE_CS5,176, NOTE_DS5,176, NOTE_F5,176, NOTE_FS5,176,
 NOTE_GS5,176, NOTE_A5,176, NOTE_B5,176, NOTE_CS6,176, NOTE_B5,352, NOTE_A5,352, NOTE_CS5,176, NOTE_DS5,176,
 NOTE_F5,176, NOTE_FS5,176, NOTE_GS5,176, NOTE_A5,176, NOTE_B5,176, NOTE_CS6,176, NOTE_B5,352, NOTE_A5,352,
 NOTE_A5,352, NOTE_GS5,176, NOTE_A5,176, NOTE_FS5,352, NOTE_A5,352, NOTE_GS5,176, NOTE_A5,176, NOTE_FS5,352,
 NOTE_A5,352, NOTE_GS5,176, NOTE_A5,176, NOTE_FS5,352, NOTE_A5,352, NOTE_GS5,176, NOTE_A5,176, NOTE_FS5,352,
 NOTE_A5,352, NOTE_GS5,176, NOTE_A5,176, NOTE_FS5,352, NOTE_A5,352, NOTE_GS5,176, NOTE_A5,176, NOTE_FS5,352,
 NOTE_A5,352, NOTE_GS5,176, NOTE_A5,176, NOTE_FS5,352, NOTE_A5,352, NOTE_GS5,176, NOTE_A5,176, NOTE_FS5,352,
 NOTE_A5,352, NOTE_GS5,176, NOTE_A5,176, NOTE_FS5,352, NOTE_A5,352, NOTE_GS5,176, NOTE_A5,176, NOTE_FS5,352,
 NOTE_A5,352, NOTE_GS5,176, NOTE_A5,176, NOTE_FS5,352, NOTE_A5,352, NOTE_GS5,176, NOTE_A5,176, NOTE_FS5,352,
 NOTE_A5,352, NOTE_GS5,176, NOTE_A5,176, NOTE_FS5,352, NOTE_A5,352, NOTE_GS5,176, NOTE_A5,176, NOTE_FS5,352,
 NOTE_A5,352, NOTE_GS5,176, NOTE_A5,176, NOTE_FS5,352, NOTE_A5,352, NOTE_GS5,176, NOTE_A5,176, NOTE_FS5,352,
 NOTE_A5,352, NOTE_GS5,176, NOTE_A5,176, NOTE_FS5,352, NOTE_A5,352, NOTE_GS5,176, NOTE_A5,176, NOTE_FS5,352,
 NOTE_A5,352, NOTE_GS5,176, NOTE_A5,176, NOTE_FS5,352, NOTE_A5,352, NOTE_GS5,176, NOTE_A5,176, NOTE_FS5,352,
 NOTE_A5,352, NOTE_GS5,176, NOTE_A5,176, NOTE_FS5,352, NOTE_A5,352, NOTE_GS5,176, NOTE_A5,176, NOTE_FS5,352,
 NOTE_A5,352, NOTE_GS5,176, NOTE_A5,176, NOTE_FS5,352, NOTE_A5,352, NOTE_GS5,176, NOTE_A5,176, NOTE_FS5,352,
 NOTE_FS6,352, NOTE_FS6,176, NOTE_FS6,176, NOTE_E6,176, NOTE_D6,176, NOTE_CS6,352, NOTE_CS6,176, NOTE_CS6,176,
 NOTE_B5,176, NOTE_A5,176, NOTE_B5,352, NOTE_B5,176, NOTE_B5,176, NOTE_CS6,176, NOTE_B5,176, NOTE_FS5,352,
 NOTE_FS5,176, NOTE_FS5,176, NOTE_FS5,176, NOTE_FS5,176, NOTE_CS5,176, NOTE_DS5,176, NOTE_F5,176, NOTE_FS5,176,
 NOTE_GS5,176, NOTE_A5,176, NOTE_B5,176, NOTE_CS6,176, NOTE_B5,352, NOTE_A5,352, NOTE_CS5,176, NOTE_DS5,176,
 NOTE_F5,176, NOTE_FS5,176, NOTE_GS5,176, NOTE_A5,176, NOTE_B5,176, NOTE_CS6,176, NOTE_B5,352, NOTE_A5,352,
 NOTE_A5,352, NOTE_GS5,176, NOTE_A5,176, NOTE_FS5,352, NOTE_A5,352, NOTE_GS5,176, NOTE_A5,176, NOTE_FS5,352,
 NOTE_A5,352, NOTE_GS5,176, NOTE_A5,176, NOTE_FS5,352, NOTE_A5,352, NOTE_GS5,176, NOTE_A5,176, NOTE_FS5,352,
 NOTE_FS5,1058, NOTE_FS5,1058, NOTE_FS5,1058, NOTE_CS6,352, NOTE_B5,176, NOTE_CS6,176, NOTE_FS5,1235,
 0, 1, -1, -1
};
// This score contains 1662 bytes.
// 415 notes had to be skipped.
