// ArduboyTones stream for file "friendInMe.mid" created by MIDI2TONES V1.0.0 on Tue Dec 10 00:35:30 2019
// command line: C:\Users\cnorf\Downloads\midi2tones-master\midi2tones_64bit.exe -o2 -c128 friendInMe 
//   From channel 7
const int score4[] = {
// Randy Newman - You've got a fri
 NOTE_REST,1714, NOTE_REST,6508, NOTE_G5,173, NOTE_G5,278, NOTE_G5,69, NOTE_G5,173, NOTE_G5,13, NOTE_G5,221,
 NOTE_REST,226, NOTE_REST,60, NOTE_D5,417, NOTE_D5,52, NOTE_REST,52, NOTE_DS5,347, NOTE_DS5,121, NOTE_REST,52,
 NOTE_DS5,369, NOTE_REST,113, NOTE_REST,560, NOTE_DS5,430, NOTE_DS5,39, NOTE_REST,52, NOTE_F5,491, NOTE_REST,30,
 NOTE_D5,443, NOTE_REST,47, NOTE_REST,30, NOTE_D5,443, NOTE_REST,78, NOTE_F5,460, NOTE_REST,13, NOTE_REST,395,
 NOTE_G5,173, NOTE_G5,473, NOTE_G5,8, NOTE_REST,39, NOTE_D5,421, NOTE_D5,21, NOTE_REST,78, NOTE_D5,417,
 NOTE_D5,52, NOTE_REST,399, NOTE_F5,173, NOTE_F5,430, NOTE_F5,52, NOTE_REST,39, NOTE_D5,299, NOTE_REST,47,
 NOTE_D5,73, NOTE_D5,86, NOTE_REST,13, NOTE_D5,417, NOTE_D5,52, NOTE_REST,52, NOTE_DS5,469, NOTE_REST,52,
 NOTE_DS5,399, NOTE_REST,121, NOTE_D5,421, NOTE_D5,8, NOTE_REST,91, NOTE_D5,460, NOTE_D5,8, NOTE_REST,52,
 NOTE_DS5,347, NOTE_DS5,121, NOTE_REST,52, NOTE_CS5,430, NOTE_CS5,43, NOTE_REST,8, NOTE_REST,39, NOTE_DS5,347,
 NOTE_DS5,65, NOTE_REST,8, NOTE_REST,99, NOTE_DS5,469, NOTE_REST,17, NOTE_REST,8, NOTE_REST,26, NOTE_DS5,469,
 NOTE_REST,52, NOTE_DS5,413, NOTE_REST,108, NOTE_DS5,391, NOTE_REST,30, NOTE_REST,99, NOTE_DS5,469, NOTE_REST,13,
 NOTE_REST,39, NOTE_DS5,469, NOTE_REST,52, NOTE_DS5,421, NOTE_REST,99, NOTE_DS5,421, NOTE_DS5,13, NOTE_REST,86,
 NOTE_DS5,469, NOTE_REST,52, NOTE_GS5,521, NOTE_GS5,243, NOTE_REST,239, NOTE_REST,39, NOTE_D5,421, NOTE_D5,13,
 NOTE_REST,86, NOTE_D5,434, NOTE_D5,34, NOTE_REST,573, NOTE_D5,460, NOTE_D5,4, NOTE_REST,56, NOTE_DS5,434,
 NOTE_REST,86, NOTE_DS5,434, NOTE_DS5,34, NOTE_REST,52, NOTE_DS5,347, NOTE_DS5,121, NOTE_REST,52, NOTE_DS5,404,
 NOTE_REST,78, NOTE_REST,39, NOTE_D5,404, NOTE_REST,17, NOTE_REST,99, NOTE_D5,373, NOTE_D5,95, NOTE_REST,52,
 NOTE_D5,469, NOTE_D5,8, NOTE_REST,43, NOTE_D5,452, NOTE_REST,8, NOTE_REST,60, NOTE_DS5,434, NOTE_REST,86,
 0, 1, -1, -1
};
// This score contains 546 bytes.
// 35 notes had to be skipped.
