// ArduboyTones stream for file "weAreNumberOne.mid" created by MIDI2TONES V1.0.0 on Wed Dec 11 14:39:33 2019
// command line: C:\Users\cnorf\Downloads\midi2tones-master\midi2tones_64bit.exe -o2 -c2 weAreNumberOne 
//   From channel 1
const int score2[] = {
 NOTE_REST,5625, NOTE_F6,250, NOTE_REST,125, NOTE_F5,374, NOTE_REST,188, NOTE_C6,186, NOTE_REST,0, NOTE_B5,92,
 NOTE_REST,0, NOTE_C6,92, NOTE_REST,0, NOTE_B5,92, NOTE_REST,0, NOTE_C6,92, NOTE_REST,0, NOTE_B5,92,
 NOTE_REST,94, NOTE_C6,92, NOTE_REST,94, NOTE_GS5,374, NOTE_REST,0, NOTE_F5,374, NOTE_REST,188, NOTE_F5,92,
 NOTE_REST,94, NOTE_GS5,92, NOTE_REST,94, NOTE_C6,92, NOTE_REST,94, NOTE_CS6,374, NOTE_REST,0, NOTE_GS5,374,
 NOTE_REST,0, NOTE_CS6,374, NOTE_REST,0, NOTE_DS6,374, NOTE_REST,0, NOTE_C6,186, NOTE_REST,0, NOTE_CS6,186,
 NOTE_REST,0, NOTE_C6,186, NOTE_REST,0, NOTE_CS6,186, NOTE_REST,0, NOTE_C6,186, NOTE_REST,188, NOTE_F6,374,
 NOTE_REST,0, NOTE_F5,374, NOTE_REST,188, NOTE_C6,186, NOTE_REST,0, NOTE_B5,92, NOTE_REST,0, NOTE_C6,92,
 NOTE_REST,0, NOTE_B5,92, NOTE_REST,0, NOTE_C6,92, NOTE_REST,0, NOTE_B5,92, NOTE_REST,94, NOTE_C6,92,
 NOTE_REST,94, NOTE_GS5,374, NOTE_REST,0, NOTE_F5,374, NOTE_REST,188, NOTE_F5,92, NOTE_REST,94, NOTE_GS5,92,
 NOTE_REST,94, NOTE_C6,92, NOTE_REST,94, NOTE_CS6,374, NOTE_REST,0, NOTE_GS5,374, NOTE_REST,0, NOTE_CS6,374,
 NOTE_REST,0, NOTE_DS6,374, NOTE_REST,0, NOTE_C6,186, NOTE_REST,0, NOTE_CS6,186, NOTE_REST,0, NOTE_C6,186,
 NOTE_REST,0, NOTE_CS6,186, NOTE_REST,0, NOTE_C6,186, NOTE_REST,188, NOTE_F6,374, NOTE_REST,27000, NOTE_F5,374,
 NOTE_REST,188, NOTE_C6,186, NOTE_REST,0, NOTE_B5,92, NOTE_REST,0, NOTE_C6,92, NOTE_REST,0, NOTE_B5,92,
 NOTE_REST,0, NOTE_C6,92, NOTE_REST,0, NOTE_B5,92, NOTE_REST,94, NOTE_C6,92, NOTE_REST,94, NOTE_GS5,374,
 NOTE_REST,0, NOTE_F5,374, NOTE_REST,188, NOTE_F5,92, NOTE_REST,94, NOTE_GS5,92, NOTE_REST,94, NOTE_C6,92,
 NOTE_REST,94, NOTE_CS6,374, NOTE_REST,0, NOTE_GS5,374, NOTE_REST,0, NOTE_CS6,374, NOTE_REST,0, NOTE_DS6,374,
 NOTE_REST,0, NOTE_C6,186, NOTE_REST,0, NOTE_CS6,186, NOTE_REST,0, NOTE_C6,186, NOTE_REST,0, NOTE_CS6,186,
 NOTE_REST,0, NOTE_C6,186, NOTE_REST,188, NOTE_F6,374, NOTE_REST,0, NOTE_F5,374, NOTE_REST,188, NOTE_C6,186,
 NOTE_REST,0, NOTE_B5,92, NOTE_REST,0, NOTE_C6,92, NOTE_REST,0, NOTE_B5,92, NOTE_REST,0, NOTE_C6,92,
 NOTE_REST,0, NOTE_B5,92, NOTE_REST,94, NOTE_C6,92, NOTE_REST,94, NOTE_GS5,374, NOTE_REST,0, NOTE_F5,374,
 NOTE_REST,188, NOTE_F5,92, NOTE_REST,94, NOTE_GS5,92, NOTE_REST,94, NOTE_C6,92, NOTE_REST,94, NOTE_CS6,374,
 NOTE_REST,0, NOTE_GS5,374, NOTE_REST,0, NOTE_CS6,374, NOTE_REST,0, NOTE_DS6,374, NOTE_REST,0, NOTE_C6,186,
 NOTE_REST,0, NOTE_CS6,186, NOTE_REST,0, NOTE_C6,186, NOTE_REST,0, NOTE_CS6,186, NOTE_REST,0, NOTE_C6,186,
 NOTE_REST,188, NOTE_F6,374, NOTE_REST,1500, NOTE_F5,374, NOTE_REST,188, NOTE_C6,186, NOTE_REST,0, NOTE_B5,92,
 NOTE_REST,0, NOTE_C6,92, NOTE_REST,0, NOTE_B5,92, NOTE_REST,0, NOTE_C6,92, NOTE_REST,0, NOTE_B5,92,
 NOTE_REST,94, NOTE_C6,92, NOTE_REST,94, NOTE_GS5,374, NOTE_REST,0, NOTE_F5,374, NOTE_REST,188, NOTE_F5,92,
 NOTE_REST,94, NOTE_GS5,92, NOTE_REST,94, NOTE_C6,92, NOTE_REST,94, NOTE_CS6,374, NOTE_REST,0, NOTE_GS5,374,
 NOTE_REST,0, NOTE_CS6,374, NOTE_REST,0, NOTE_DS6,374, NOTE_REST,0, NOTE_C6,186, NOTE_REST,0, NOTE_CS6,186,
 NOTE_REST,0, NOTE_C6,186, NOTE_REST,0, NOTE_CS6,186, NOTE_REST,0, NOTE_C6,186, NOTE_REST,188, NOTE_F6,374,
 NOTE_REST,0, NOTE_F5,374, NOTE_REST,188, NOTE_C6,186, NOTE_REST,0, NOTE_B5,92, NOTE_REST,0, NOTE_C6,92,
 NOTE_REST,0, NOTE_B5,92, NOTE_REST,0, NOTE_C6,92, NOTE_REST,0, NOTE_B5,92, NOTE_REST,94, NOTE_C6,92,
 NOTE_REST,94, NOTE_GS5,374, NOTE_REST,0, NOTE_F5,374, NOTE_REST,188, NOTE_F5,92, NOTE_REST,94, NOTE_GS5,92,
 NOTE_REST,94, NOTE_C6,92, NOTE_REST,94, NOTE_CS6,374, NOTE_REST,0, NOTE_GS5,374, NOTE_REST,0, NOTE_CS6,374,
 NOTE_REST,0, NOTE_DS6,374, NOTE_REST,0, NOTE_C6,186, NOTE_REST,0, NOTE_CS6,186, NOTE_REST,0, NOTE_C6,186,
 NOTE_REST,0, NOTE_CS6,186, NOTE_REST,0, NOTE_C6,186, NOTE_REST,188, NOTE_F6,374, NOTE_REST,0, NOTE_F5,374,
 NOTE_REST,188, NOTE_C6,186, NOTE_REST,0, NOTE_B5,92, NOTE_REST,0, NOTE_C6,92, NOTE_REST,0, NOTE_B5,92,
 NOTE_REST,0, NOTE_C6,92, NOTE_REST,0, NOTE_B5,92, NOTE_REST,94, NOTE_C6,92, NOTE_REST,94, NOTE_GS5,374,
 NOTE_REST,0, NOTE_F5,374, NOTE_REST,188, NOTE_F5,92, NOTE_REST,94, NOTE_GS5,92, NOTE_REST,94, NOTE_C6,92,
 NOTE_REST,94, NOTE_CS6,374, NOTE_REST,0, NOTE_GS5,374, NOTE_REST,0, NOTE_CS6,374, NOTE_REST,0, NOTE_DS6,374,
 NOTE_REST,0, NOTE_C6,186, NOTE_REST,0, NOTE_CS6,186, NOTE_REST,0, NOTE_C6,186, NOTE_REST,0, NOTE_CS6,186,
 NOTE_REST,0, NOTE_C6,186, NOTE_REST,188, NOTE_F6,374, NOTE_REST,0, NOTE_F5,374, NOTE_REST,188, NOTE_C6,186,
 NOTE_REST,0, NOTE_B5,92, NOTE_REST,0, NOTE_C6,92, NOTE_REST,0, NOTE_B5,92, NOTE_REST,0, NOTE_C6,92,
 NOTE_REST,0, NOTE_B5,92, NOTE_REST,94, NOTE_C6,92, NOTE_REST,94, NOTE_GS5,374, NOTE_REST,0, NOTE_F5,374,
 NOTE_REST,188, NOTE_F5,92, NOTE_REST,94, NOTE_GS5,92, NOTE_REST,94, NOTE_C6,92, NOTE_REST,94, NOTE_CS6,374,
 NOTE_REST,0, NOTE_GS5,374, NOTE_REST,0, NOTE_CS6,374, NOTE_REST,0, NOTE_DS6,374, NOTE_REST,0, NOTE_C6,186,
 NOTE_REST,0, NOTE_CS6,186, NOTE_REST,0, NOTE_C6,186, NOTE_REST,0, NOTE_CS6,186, NOTE_REST,0, NOTE_C6,186,
 NOTE_REST,188, NOTE_F6,374, NOTE_REST,0, NOTE_FS5,374, NOTE_REST,188, NOTE_CS6,186, NOTE_REST,0, NOTE_C6,92,
 NOTE_REST,0, NOTE_CS6,92, NOTE_REST,0, NOTE_C6,92, NOTE_REST,0, NOTE_CS6,92, NOTE_REST,0, NOTE_C6,92,
 NOTE_REST,94, NOTE_CS6,92, NOTE_REST,94, NOTE_A5,374, NOTE_REST,0, NOTE_FS5,374, NOTE_REST,188, NOTE_FS5,92,
 NOTE_REST,94, NOTE_A5,92, NOTE_REST,94, NOTE_CS6,92, NOTE_REST,94, NOTE_D6,374, NOTE_REST,0, NOTE_A5,374,
 NOTE_REST,0, NOTE_D6,374, NOTE_REST,0, NOTE_E6,374, NOTE_REST,0, NOTE_CS6,186, NOTE_REST,0, NOTE_D6,186,
 NOTE_REST,0, NOTE_CS6,186, NOTE_REST,0, NOTE_D6,186, NOTE_REST,0, NOTE_CS6,186, NOTE_REST,188, NOTE_FS5,374,
 NOTE_REST,0, NOTE_FS5,374, NOTE_REST,188, NOTE_CS6,186, NOTE_REST,0, NOTE_C6,92, NOTE_REST,0, NOTE_CS6,92,
 NOTE_REST,0, NOTE_C6,92, NOTE_REST,0, NOTE_CS6,92, NOTE_REST,0, NOTE_C6,92, NOTE_REST,94, NOTE_CS6,92,
 NOTE_REST,94, NOTE_A5,374, NOTE_REST,0, NOTE_FS5,374, NOTE_REST,188, NOTE_FS5,92, NOTE_REST,94, NOTE_A5,92,
 NOTE_REST,94, NOTE_CS6,92, NOTE_REST,94, NOTE_D6,374, NOTE_REST,0, NOTE_A5,374, NOTE_REST,0, NOTE_D6,374,
 NOTE_REST,0, NOTE_E6,374, NOTE_REST,0, NOTE_CS6,186, NOTE_REST,0, NOTE_D6,186, NOTE_REST,0, NOTE_CS6,186,
 NOTE_REST,0, NOTE_D6,186, NOTE_REST,0, NOTE_CS6,186, NOTE_REST,188, NOTE_FS5,374, NOTE_REST,0, NOTE_FS5,374,
 NOTE_REST,188, NOTE_CS6,186, NOTE_REST,0, NOTE_C6,92, NOTE_REST,0, NOTE_CS6,92, NOTE_REST,0, NOTE_C6,92,
 NOTE_REST,0, NOTE_CS6,92, NOTE_REST,0, NOTE_C6,92, NOTE_REST,94, NOTE_CS6,92, NOTE_REST,94, NOTE_A5,374,
 NOTE_REST,0, NOTE_FS5,374, NOTE_REST,188, NOTE_FS5,92, NOTE_REST,94, NOTE_A5,92, NOTE_REST,94, NOTE_CS6,92,
 NOTE_REST,94, NOTE_D6,374, NOTE_REST,0, NOTE_A5,374, NOTE_REST,0, NOTE_D6,374, NOTE_REST,0, NOTE_E6,374,
 NOTE_REST,0, NOTE_CS6,186, NOTE_REST,0, NOTE_D6,186, NOTE_REST,0, NOTE_CS6,186, NOTE_REST,0, NOTE_D6,186,
 NOTE_REST,0, NOTE_CS6,186, NOTE_REST,188, NOTE_FS5,374, NOTE_REST,0, NOTE_FS5,374, NOTE_REST,188, NOTE_CS6,186,
 NOTE_REST,0, NOTE_C6,92, NOTE_REST,0, NOTE_CS6,92, NOTE_REST,0, NOTE_C6,92, NOTE_REST,0, NOTE_CS6,92,
 NOTE_REST,0, NOTE_C6,92, NOTE_REST,94, NOTE_CS6,92, NOTE_REST,94, NOTE_A5,374, NOTE_REST,0, NOTE_FS5,374,
 NOTE_REST,188, NOTE_FS5,92, NOTE_REST,94, NOTE_A5,92, NOTE_REST,94, NOTE_CS6,92, NOTE_REST,94, NOTE_D6,374,
 NOTE_REST,0, NOTE_A5,374, NOTE_REST,0, NOTE_D6,374, NOTE_REST,0, NOTE_E6,374, NOTE_REST,0, NOTE_CS6,186,
 NOTE_REST,0, NOTE_D6,186, NOTE_REST,0, NOTE_CS6,186, NOTE_REST,0, NOTE_D6,186, NOTE_REST,0, NOTE_CS6,186,
 NOTE_REST,563, NOTE_CS6,186, NOTE_REST,0, NOTE_D6,186, NOTE_REST,0, NOTE_CS6,186, NOTE_REST,0, NOTE_D6,186,
 NOTE_REST,0, NOTE_CS6,186, NOTE_REST,1688, NOTE_CS6,186, NOTE_REST,188, NOTE_FS6,250,
 0, 1, -1, -1
};
// This score contains 2266 bytes.
