// ArduboyTones stream for file "weAreNumberOne.mid" created by MIDI2TONES V1.0.0 on Wed Dec 11 14:39:55 2019
// command line: C:\Users\cnorf\Downloads\midi2tones-master\midi2tones_64bit.exe -o2 -c16 weAreNumberOne 
//   From channel 4
const int score4[] = {
 NOTE_REST,5625, NOTE_F3,374, NOTE_REST,0, NOTE_F2,374, NOTE_REST,0, NOTE_GS2,374, NOTE_REST,0, NOTE_C3,374,
 NOTE_REST,0, NOTE_GS2,374, NOTE_REST,0, NOTE_F2,374, NOTE_REST,0, NOTE_GS2,374, NOTE_REST,0, NOTE_C3,374,
 NOTE_REST,0, NOTE_GS2,374, NOTE_REST,0, NOTE_CS3,374, NOTE_REST,0, NOTE_F3,374, NOTE_REST,0, NOTE_GS3,374,
 NOTE_REST,0, NOTE_F3,374, NOTE_REST,0, NOTE_C3,374, NOTE_REST,0, NOTE_E3,374, NOTE_REST,0, NOTE_C3,374,
 NOTE_REST,0, NOTE_G2,374, NOTE_REST,0, NOTE_F2,374, NOTE_REST,0, NOTE_GS2,374, NOTE_REST,0, NOTE_C3,374,
 NOTE_REST,0, NOTE_GS2,374, NOTE_REST,0, NOTE_F2,374, NOTE_REST,0, NOTE_GS2,374, NOTE_REST,0, NOTE_C3,374,
 NOTE_REST,0, NOTE_GS2,374, NOTE_REST,0, NOTE_CS3,374, NOTE_REST,0, NOTE_F3,374, NOTE_REST,0, NOTE_GS3,374,
 NOTE_REST,0, NOTE_F3,374, NOTE_REST,0, NOTE_C3,374, NOTE_REST,0, NOTE_E3,374, NOTE_REST,0, NOTE_C3,374,
 NOTE_REST,0, NOTE_G2,374, NOTE_REST,0, NOTE_F2,124, NOTE_REST,250, NOTE_GS2,124, NOTE_REST,250, NOTE_C3,124,
 NOTE_REST,250, NOTE_GS2,124, NOTE_REST,250, NOTE_F2,186, NOTE_REST,188, NOTE_GS2,186, NOTE_REST,188, NOTE_CS3,92,
 NOTE_REST,94, NOTE_C3,92, NOTE_REST,94, NOTE_GS2,186, NOTE_REST,188, NOTE_F2,374, NOTE_REST,0, NOTE_GS2,374,
 NOTE_REST,0, NOTE_C3,374, NOTE_REST,0, NOTE_GS2,374, NOTE_REST,0, NOTE_F2,374, NOTE_REST,0, NOTE_GS2,374,
 NOTE_REST,0, NOTE_C3,374, NOTE_REST,0, NOTE_GS2,374, NOTE_REST,0, NOTE_CS3,374, NOTE_REST,0, NOTE_F3,374,
 NOTE_REST,0, NOTE_GS3,374, NOTE_REST,0, NOTE_F3,374, NOTE_REST,0, NOTE_C3,374, NOTE_REST,0, NOTE_E3,374,
 NOTE_REST,0, NOTE_C3,374, NOTE_REST,0, NOTE_G2,374, NOTE_REST,0, NOTE_F2,374, NOTE_REST,0, NOTE_GS2,374,
 NOTE_REST,0, NOTE_C3,374, NOTE_REST,0, NOTE_GS2,374, NOTE_REST,0, NOTE_F2,374, NOTE_REST,0, NOTE_GS2,374,
 NOTE_REST,0, NOTE_C3,374, NOTE_REST,0, NOTE_GS2,374, NOTE_REST,0, NOTE_CS3,374, NOTE_REST,0, NOTE_F3,374,
 NOTE_REST,0, NOTE_GS3,374, NOTE_REST,0, NOTE_F3,374, NOTE_REST,0, NOTE_C3,374, NOTE_REST,0, NOTE_E3,374,
 NOTE_REST,0, NOTE_C3,374, NOTE_REST,0, NOTE_G2,374, NOTE_REST,3000, NOTE_C3,374, NOTE_REST,0, NOTE_DS3,186,
 NOTE_REST,0, NOTE_DS3,186, NOTE_REST,0, NOTE_G3,186, NOTE_REST,0, NOTE_G3,186, NOTE_REST,0, NOTE_DS3,186,
 NOTE_REST,188, NOTE_CS3,186, NOTE_REST,0, NOTE_CS3,186, NOTE_REST,0, NOTE_F3,186, NOTE_REST,0, NOTE_F3,186,
 NOTE_REST,0, NOTE_GS3,186, NOTE_REST,188, NOTE_F3,186, NOTE_REST,188, NOTE_DS3,374, NOTE_REST,0, NOTE_FS3,186,
 NOTE_REST,0, NOTE_FS3,186, NOTE_REST,0, NOTE_AS3,186, NOTE_REST,0, NOTE_AS3,186, NOTE_REST,0, NOTE_FS3,186,
 NOTE_REST,188, NOTE_G3,1499, NOTE_REST,1875, NOTE_GS3,186, NOTE_REST,188, NOTE_G3,186, NOTE_REST,188, NOTE_C3,186,
 NOTE_REST,188, NOTE_F2,374, NOTE_REST,0, NOTE_GS2,374, NOTE_REST,0, NOTE_C3,374, NOTE_REST,0, NOTE_GS2,374,
 NOTE_REST,0, NOTE_F2,374, NOTE_REST,0, NOTE_GS2,374, NOTE_REST,0, NOTE_C3,374, NOTE_REST,0, NOTE_GS2,374,
 NOTE_REST,0, NOTE_CS3,374, NOTE_REST,0, NOTE_F3,374, NOTE_REST,0, NOTE_GS3,374, NOTE_REST,0, NOTE_F3,374,
 NOTE_REST,0, NOTE_C3,374, NOTE_REST,0, NOTE_E3,374, NOTE_REST,0, NOTE_C3,374, NOTE_REST,0, NOTE_G2,374,
 NOTE_REST,0, NOTE_F2,374, NOTE_REST,0, NOTE_GS2,374, NOTE_REST,0, NOTE_C3,374, NOTE_REST,0, NOTE_GS2,374,
 NOTE_REST,0, NOTE_F2,374, NOTE_REST,0, NOTE_GS2,374, NOTE_REST,0, NOTE_C3,374, NOTE_REST,0, NOTE_GS2,374,
 NOTE_REST,0, NOTE_CS3,374, NOTE_REST,0, NOTE_F3,374, NOTE_REST,0, NOTE_GS3,374, NOTE_REST,0, NOTE_F3,374,
 NOTE_REST,0, NOTE_C3,374, NOTE_REST,0, NOTE_E3,374, NOTE_REST,0, NOTE_C3,374, NOTE_REST,0, NOTE_G2,374,
 NOTE_REST,13500, NOTE_F2,374, NOTE_REST,0, NOTE_GS2,374, NOTE_REST,0, NOTE_C3,374, NOTE_REST,0, NOTE_GS2,374,
 NOTE_REST,0, NOTE_F2,374, NOTE_REST,0, NOTE_GS2,374, NOTE_REST,0, NOTE_C3,374, NOTE_REST,0, NOTE_GS2,374,
 NOTE_REST,0, NOTE_CS3,374, NOTE_REST,0, NOTE_F3,374, NOTE_REST,0, NOTE_GS3,374, NOTE_REST,0, NOTE_F3,374,
 NOTE_REST,0, NOTE_C3,374, NOTE_REST,0, NOTE_E3,374, NOTE_REST,0, NOTE_C3,374, NOTE_REST,0, NOTE_G2,374,
 NOTE_REST,0, NOTE_F2,374, NOTE_REST,0, NOTE_GS2,374, NOTE_REST,0, NOTE_C3,374, NOTE_REST,0, NOTE_GS2,374,
 NOTE_REST,0, NOTE_F2,374, NOTE_REST,0, NOTE_GS2,374, NOTE_REST,0, NOTE_C3,374, NOTE_REST,0, NOTE_GS2,374,
 NOTE_REST,0, NOTE_CS3,374, NOTE_REST,0, NOTE_F3,374, NOTE_REST,0, NOTE_GS3,374, NOTE_REST,0, NOTE_F3,374,
 NOTE_REST,0, NOTE_C3,374, NOTE_REST,0, NOTE_E3,374, NOTE_REST,0, NOTE_C3,374, NOTE_REST,0, NOTE_G2,374,
 NOTE_REST,0, NOTE_FS2,374, NOTE_REST,0, NOTE_A2,374, NOTE_REST,0, NOTE_CS3,374, NOTE_REST,0, NOTE_A2,374,
 NOTE_REST,0, NOTE_FS2,374, NOTE_REST,0, NOTE_A2,374, NOTE_REST,0, NOTE_CS3,374, NOTE_REST,0, NOTE_A2,374,
 NOTE_REST,0, NOTE_D3,374, NOTE_REST,0, NOTE_FS3,374, NOTE_REST,0, NOTE_A3,374, NOTE_REST,0, NOTE_FS3,374,
 NOTE_REST,0, NOTE_CS3,374, NOTE_REST,0, NOTE_F3,374, NOTE_REST,0, NOTE_CS3,374, NOTE_REST,0, NOTE_GS2,374,
 NOTE_REST,0, NOTE_FS2,374, NOTE_REST,0, NOTE_A2,374, NOTE_REST,0, NOTE_CS3,374, NOTE_REST,0, NOTE_A2,374,
 NOTE_REST,0, NOTE_FS2,374, NOTE_REST,0, NOTE_A2,374, NOTE_REST,0, NOTE_CS3,374, NOTE_REST,0, NOTE_A2,374,
 NOTE_REST,0, NOTE_D3,374, NOTE_REST,0, NOTE_FS3,374, NOTE_REST,0, NOTE_A3,374, NOTE_REST,0, NOTE_FS3,374,
 NOTE_REST,0, NOTE_CS3,374, NOTE_REST,0, NOTE_F3,374, NOTE_REST,0, NOTE_CS3,374, NOTE_REST,0, NOTE_GS2,374,
 NOTE_REST,0, NOTE_FS2,374, NOTE_REST,0, NOTE_A2,374, NOTE_REST,0, NOTE_CS3,374, NOTE_REST,0, NOTE_A2,374,
 NOTE_REST,0, NOTE_FS2,374, NOTE_REST,0, NOTE_A2,374, NOTE_REST,0, NOTE_CS3,374, NOTE_REST,0, NOTE_A2,374,
 NOTE_REST,0, NOTE_D3,374, NOTE_REST,0, NOTE_FS3,374, NOTE_REST,0, NOTE_A3,374, NOTE_REST,0, NOTE_FS3,374,
 NOTE_REST,0, NOTE_CS3,374, NOTE_REST,0, NOTE_F3,374, NOTE_REST,0, NOTE_CS3,374, NOTE_REST,0, NOTE_GS2,374,
 NOTE_REST,0, NOTE_FS2,374, NOTE_REST,0, NOTE_A2,374, NOTE_REST,0, NOTE_CS3,374, NOTE_REST,0, NOTE_A2,374,
 NOTE_REST,0, NOTE_FS2,374, NOTE_REST,0, NOTE_A2,374, NOTE_REST,0, NOTE_CS3,374, NOTE_REST,0, NOTE_A2,374,
 NOTE_REST,0, NOTE_D3,374, NOTE_REST,0, NOTE_FS3,374, NOTE_REST,0, NOTE_A3,374, NOTE_REST,0, NOTE_FS3,374,
 NOTE_REST,0, NOTE_CS3,374, NOTE_REST,0, NOTE_F3,374, NOTE_REST,0, NOTE_CS3,374, NOTE_REST,0, NOTE_GS2,374,
 NOTE_REST,0, NOTE_CS3,374, NOTE_REST,0, NOTE_F3,374, NOTE_REST,0, NOTE_CS3,374, NOTE_REST,0, NOTE_GS2,374,
 NOTE_REST,1125, NOTE_CS3,250, NOTE_REST,125, NOTE_FS3,250,
 0, 1, -1, -1
};
// This score contains 1842 bytes.
