// ArduboyTones stream for file "weAreNumberOne.mid" created by MIDI2TONES V1.0.0 on Wed Dec 11 14:39:43 2019
// command line: C:\Users\cnorf\Downloads\midi2tones-master\midi2tones_64bit.exe -o2 -c8 weAreNumberOne 
//   From channel 3
const int score3[] = {
 NOTE_REST,5625, NOTE_F5,250, NOTE_REST,125, NOTE_F4,374, NOTE_REST,188, NOTE_C5,186, NOTE_REST,0, NOTE_B4,92,
 NOTE_REST,0, NOTE_C5,92, NOTE_REST,0, NOTE_B4,92, NOTE_REST,0, NOTE_C5,92, NOTE_REST,0, NOTE_B4,92,
 NOTE_REST,94, NOTE_C5,92, NOTE_REST,94, NOTE_GS4,374, NOTE_REST,0, NOTE_F4,374, NOTE_REST,188, NOTE_F4,92,
 NOTE_REST,94, NOTE_GS4,92, NOTE_REST,94, NOTE_C5,92, NOTE_REST,94, NOTE_CS5,374, NOTE_REST,0, NOTE_GS4,374,
 NOTE_REST,0, NOTE_CS5,374, NOTE_REST,0, NOTE_DS5,374, NOTE_REST,0, NOTE_C5,186, NOTE_REST,0, NOTE_CS5,186,
 NOTE_REST,0, NOTE_C5,186, NOTE_REST,0, NOTE_CS5,186, NOTE_REST,0, NOTE_C5,186, NOTE_REST,188, NOTE_F4,374,
 NOTE_REST,0, NOTE_F4,374, NOTE_REST,188, NOTE_C5,186, NOTE_REST,0, NOTE_B4,92, NOTE_REST,0, NOTE_C5,92,
 NOTE_REST,0, NOTE_B4,92, NOTE_REST,0, NOTE_C5,92, NOTE_REST,0, NOTE_B4,92, NOTE_REST,94, NOTE_C5,92,
 NOTE_REST,94, NOTE_GS4,374, NOTE_REST,0, NOTE_F4,374, NOTE_REST,188, NOTE_F4,92, NOTE_REST,94, NOTE_GS4,92,
 NOTE_REST,94, NOTE_C5,92, NOTE_REST,94, NOTE_CS5,374, NOTE_REST,0, NOTE_GS4,374, NOTE_REST,0, NOTE_CS5,374,
 NOTE_REST,0, NOTE_DS5,374, NOTE_REST,0, NOTE_C5,186, NOTE_REST,0, NOTE_CS5,186, NOTE_REST,0, NOTE_C5,186,
 NOTE_REST,0, NOTE_CS5,186, NOTE_REST,0, NOTE_C5,186, NOTE_REST,188, NOTE_F4,374, NOTE_REST,3000, NOTE_F4,186,
 NOTE_REST,0, NOTE_F4,186, NOTE_REST,0, NOTE_F4,186, NOTE_REST,0, NOTE_F4,186, NOTE_REST,0, NOTE_F4,186,
 NOTE_REST,0, NOTE_F4,186, NOTE_REST,188, NOTE_F4,186, NOTE_REST,0, NOTE_GS4,186, NOTE_REST,188, NOTE_F4,186,
 NOTE_REST,0, NOTE_C5,561, NOTE_REST,375, NOTE_CS5,186, NOTE_REST,0, NOTE_CS5,186, NOTE_REST,0, NOTE_CS5,186,
 NOTE_REST,0, NOTE_CS5,186, NOTE_REST,0, NOTE_CS5,374, NOTE_REST,0, NOTE_DS5,374, NOTE_REST,0, NOTE_C5,374,
 NOTE_REST,0, NOTE_CS5,186, NOTE_REST,0, NOTE_C5,561, NOTE_REST,188, NOTE_GS4,374, NOTE_REST,0, NOTE_GS4,186,
 NOTE_REST,0, NOTE_G4,186, NOTE_REST,0, NOTE_F4,186, NOTE_REST,0, NOTE_GS4,186, NOTE_REST,0, NOTE_GS4,186,
 NOTE_REST,0, NOTE_G4,186, NOTE_REST,0, NOTE_F4,186, NOTE_REST,0, NOTE_GS4,186, NOTE_REST,188, NOTE_F4,186,
 NOTE_REST,0, NOTE_C5,561, NOTE_REST,188, NOTE_C5,186, NOTE_REST,0, NOTE_CS5,186, NOTE_REST,0, NOTE_CS5,186,
 NOTE_REST,0, NOTE_CS5,186, NOTE_REST,0, NOTE_CS5,186, NOTE_REST,0, NOTE_CS5,186, NOTE_REST,0, NOTE_CS5,186,
 NOTE_REST,0, NOTE_CS5,186, NOTE_REST,0, NOTE_DS5,186, NOTE_REST,0, NOTE_C5,249, NOTE_REST,0, NOTE_CS5,249,
 NOTE_REST,0, NOTE_C5,624, NOTE_REST,12375, NOTE_F4,374, NOTE_REST,188, NOTE_C5,186, NOTE_REST,0, NOTE_B4,92,
 NOTE_REST,0, NOTE_C5,92, NOTE_REST,0, NOTE_B4,92, NOTE_REST,0, NOTE_C5,92, NOTE_REST,0, NOTE_B4,92,
 NOTE_REST,94, NOTE_C5,92, NOTE_REST,94, NOTE_GS4,374, NOTE_REST,0, NOTE_F4,374, NOTE_REST,188, NOTE_F4,92,
 NOTE_REST,94, NOTE_GS4,92, NOTE_REST,94, NOTE_C5,92, NOTE_REST,94, NOTE_CS5,374, NOTE_REST,0, NOTE_GS4,374,
 NOTE_REST,0, NOTE_CS5,374, NOTE_REST,0, NOTE_DS5,374, NOTE_REST,0, NOTE_C5,186, NOTE_REST,0, NOTE_CS5,186,
 NOTE_REST,0, NOTE_C5,186, NOTE_REST,0, NOTE_CS5,186, NOTE_REST,0, NOTE_C5,186, NOTE_REST,188, NOTE_F4,374,
 NOTE_REST,0, NOTE_F4,374, NOTE_REST,188, NOTE_C5,186, NOTE_REST,0, NOTE_B4,92, NOTE_REST,0, NOTE_C5,92,
 NOTE_REST,0, NOTE_B4,92, NOTE_REST,0, NOTE_C5,92, NOTE_REST,0, NOTE_B4,92, NOTE_REST,94, NOTE_C5,92,
 NOTE_REST,94, NOTE_GS4,374, NOTE_REST,0, NOTE_F4,374, NOTE_REST,188, NOTE_F4,92, NOTE_REST,94, NOTE_GS4,92,
 NOTE_REST,94, NOTE_C5,92, NOTE_REST,94, NOTE_CS5,374, NOTE_REST,0, NOTE_GS4,374, NOTE_REST,0, NOTE_CS5,374,
 NOTE_REST,0, NOTE_DS5,374, NOTE_REST,0, NOTE_C5,186, NOTE_REST,0, NOTE_CS5,186, NOTE_REST,0, NOTE_C5,186,
 NOTE_REST,0, NOTE_CS5,186, NOTE_REST,0, NOTE_C5,186, NOTE_REST,188, NOTE_F4,374, NOTE_REST,0, NOTE_A3,186,
 NOTE_REST,0, NOTE_AS3,186, NOTE_REST,0, NOTE_B3,186, NOTE_REST,0, NOTE_C4,186, NOTE_REST,0, NOTE_CS4,186,
 NOTE_REST,0, NOTE_D4,186, NOTE_REST,0, NOTE_DS4,186, NOTE_REST,0, NOTE_E4,186, NOTE_REST,12000, NOTE_F4,374,
 NOTE_REST,188, NOTE_C5,186, NOTE_REST,0, NOTE_B4,92, NOTE_REST,0, NOTE_C5,92, NOTE_REST,0, NOTE_B4,92,
 NOTE_REST,0, NOTE_C5,92, NOTE_REST,0, NOTE_B4,92, NOTE_REST,94, NOTE_C5,92, NOTE_REST,94, NOTE_GS4,374,
 NOTE_REST,0, NOTE_F4,374, NOTE_REST,188, NOTE_F4,92, NOTE_REST,94, NOTE_GS4,92, NOTE_REST,94, NOTE_C5,92,
 NOTE_REST,94, NOTE_CS5,374, NOTE_REST,0, NOTE_GS4,374, NOTE_REST,0, NOTE_CS5,374, NOTE_REST,0, NOTE_DS5,374,
 NOTE_REST,0, NOTE_C5,186, NOTE_REST,0, NOTE_CS5,186, NOTE_REST,0, NOTE_C5,186, NOTE_REST,0, NOTE_CS5,186,
 NOTE_REST,0, NOTE_C5,186, NOTE_REST,188, NOTE_F4,374, NOTE_REST,0, NOTE_F4,374, NOTE_REST,188, NOTE_C5,186,
 NOTE_REST,0, NOTE_B4,92, NOTE_REST,0, NOTE_C5,92, NOTE_REST,0, NOTE_B4,92, NOTE_REST,0, NOTE_C5,92,
 NOTE_REST,0, NOTE_B4,92, NOTE_REST,94, NOTE_C5,92, NOTE_REST,94, NOTE_GS4,374, NOTE_REST,0, NOTE_F4,374,
 NOTE_REST,188, NOTE_F4,92, NOTE_REST,94, NOTE_GS4,92, NOTE_REST,94, NOTE_C5,92, NOTE_REST,94, NOTE_CS5,374,
 NOTE_REST,0, NOTE_GS4,374, NOTE_REST,0, NOTE_CS5,374, NOTE_REST,0, NOTE_DS5,374, NOTE_REST,0, NOTE_C5,186,
 NOTE_REST,0, NOTE_CS5,186, NOTE_REST,0, NOTE_C5,186, NOTE_REST,0, NOTE_CS5,186, NOTE_REST,0, NOTE_C5,186,
 NOTE_REST,188, NOTE_F4,374, NOTE_REST,12000, NOTE_FS4,374, NOTE_REST,188, NOTE_CS5,186, NOTE_REST,0, NOTE_C5,92,
 NOTE_REST,0, NOTE_CS5,92, NOTE_REST,0, NOTE_C5,92, NOTE_REST,0, NOTE_CS5,92, NOTE_REST,0, NOTE_C5,92,
 NOTE_REST,94, NOTE_CS5,92, NOTE_REST,94, NOTE_A4,374, NOTE_REST,0, NOTE_FS4,374, NOTE_REST,188, NOTE_FS4,92,
 NOTE_REST,94, NOTE_A4,92, NOTE_REST,94, NOTE_CS5,92, NOTE_REST,94, NOTE_D5,374, NOTE_REST,0, NOTE_A4,374,
 NOTE_REST,0, NOTE_D5,374, NOTE_REST,0, NOTE_E5,374, NOTE_REST,0, NOTE_CS5,186, NOTE_REST,0, NOTE_D5,186,
 NOTE_REST,0, NOTE_CS5,186, NOTE_REST,0, NOTE_D5,186, NOTE_REST,0, NOTE_CS5,186, NOTE_REST,188, NOTE_FS4,374,
 NOTE_REST,0, NOTE_FS4,374, NOTE_REST,188, NOTE_CS5,186, NOTE_REST,0, NOTE_C5,92, NOTE_REST,0, NOTE_CS5,92,
 NOTE_REST,0, NOTE_C5,92, NOTE_REST,0, NOTE_CS5,92, NOTE_REST,0, NOTE_C5,92, NOTE_REST,94, NOTE_CS5,92,
 NOTE_REST,94, NOTE_A4,374, NOTE_REST,0, NOTE_FS4,374, NOTE_REST,188, NOTE_FS4,92, NOTE_REST,94, NOTE_A4,92,
 NOTE_REST,94, NOTE_CS5,92, NOTE_REST,94, NOTE_D5,374, NOTE_REST,0, NOTE_A4,374, NOTE_REST,0, NOTE_D5,374,
 NOTE_REST,0, NOTE_E5,374, NOTE_REST,0, NOTE_CS5,186, NOTE_REST,0, NOTE_D5,186, NOTE_REST,0, NOTE_CS5,186,
 NOTE_REST,0, NOTE_D5,186, NOTE_REST,0, NOTE_CS5,186, NOTE_REST,563, NOTE_CS5,186, NOTE_REST,0, NOTE_D5,186,
 NOTE_REST,0, NOTE_CS5,186, NOTE_REST,0, NOTE_D5,186, NOTE_REST,0, NOTE_CS5,186, NOTE_REST,563, NOTE_CS5,186,
 NOTE_REST,0, NOTE_D5,186, NOTE_REST,0, NOTE_CS5,186, NOTE_REST,0, NOTE_D5,186, NOTE_REST,0, NOTE_CS5,186,
 NOTE_REST,188, NOTE_CS4,250, NOTE_REST,125, NOTE_FS4,250,
 0, 1, -1, -1
};
// This score contains 1970 bytes.
