// ArduboyTones stream for file "heySoulSister.mid" created by MIDI2TONES V1.0.0 on Thu Dec 12 12:01:43 2019
// command line: C:\Users\cnorf\Downloads\midi2tones-master\midi2tones_64bit.exe -o2 -c64 heySoulSister 
//   From channel 6
const int score3[] = {
 NOTE_GS4,299, NOTE_GS4,298, NOTE_GS4,301, NOTE_GS4,298, NOTE_REST,1, NOTE_GS4,299, NOTE_GS4,298, NOTE_GS4,301,
 NOTE_GS4,298, NOTE_REST,1, NOTE_FS4,299, NOTE_FS4,298, NOTE_FS4,301, NOTE_FS4,298, NOTE_REST,1, NOTE_B3,299,
 NOTE_B3,298, NOTE_B3,301, NOTE_B3,298, NOTE_REST,1, NOTE_CS4,299, NOTE_CS4,298, NOTE_CS4,301, NOTE_CS4,298,
 NOTE_REST,1, NOTE_CS4,299, NOTE_CS4,298, NOTE_CS4,301, NOTE_CS4,298, NOTE_REST,1, NOTE_A4,299, NOTE_A4,298,
 NOTE_A4,301, NOTE_A4,298, NOTE_REST,1, NOTE_A4,299, NOTE_A4,298, NOTE_A4,301, NOTE_A4,298, NOTE_REST,1,
 NOTE_E4,299, NOTE_E4,298, NOTE_E4,301, NOTE_E4,298, NOTE_REST,1, NOTE_E4,299, NOTE_E4,298, NOTE_E4,301,
 NOTE_E4,298, NOTE_REST,1, NOTE_B4,299, NOTE_B4,298, NOTE_B4,301, NOTE_B4,298, NOTE_REST,1, NOTE_B4,299,
 NOTE_B4,298, NOTE_B4,301, NOTE_B4,298, NOTE_REST,1, NOTE_CS5,299, NOTE_CS5,298, NOTE_CS5,301, NOTE_CS5,298,
 NOTE_REST,1, NOTE_CS5,299, NOTE_CS5,298, NOTE_CS5,301, NOTE_CS5,298, NOTE_REST,1, NOTE_A4,299, NOTE_A4,298,
 NOTE_A4,301, NOTE_A4,298, NOTE_REST,1, NOTE_A4,299, NOTE_A4,298, NOTE_A4,301, NOTE_A4,298, NOTE_REST,1,
 NOTE_E4,299, NOTE_E4,298, NOTE_E4,301, NOTE_E4,298, NOTE_REST,1, NOTE_E4,299, NOTE_E4,298, NOTE_E4,301,
 NOTE_E4,298, NOTE_REST,1, NOTE_B4,299, NOTE_B4,298, NOTE_B4,301, NOTE_B4,298, NOTE_REST,1, NOTE_B4,299,
 NOTE_B4,298, NOTE_B4,301, NOTE_B4,298, NOTE_REST,1, NOTE_CS5,299, NOTE_CS5,298, NOTE_CS5,301, NOTE_CS5,298,
 NOTE_REST,1, NOTE_CS5,299, NOTE_CS5,298, NOTE_CS5,301, NOTE_CS5,298, NOTE_REST,1, NOTE_A4,299, NOTE_A4,298,
 NOTE_A4,301, NOTE_A4,298, NOTE_REST,1, NOTE_B4,299, NOTE_B4,298, NOTE_B4,301, NOTE_B4,298, NOTE_REST,1,
 NOTE_E4,299, NOTE_E4,298, NOTE_E4,301, NOTE_E4,298, NOTE_REST,1, NOTE_E4,299, NOTE_E4,298, NOTE_E4,301,
 NOTE_E4,298, NOTE_REST,1, NOTE_B4,299, NOTE_B4,298, NOTE_B4,301, NOTE_B4,298, NOTE_REST,1, NOTE_B4,299,
 NOTE_B4,298, NOTE_B4,301, NOTE_B4,298, NOTE_REST,1, NOTE_CS5,299, NOTE_CS5,298, NOTE_CS5,301, NOTE_CS5,298,
 NOTE_REST,1, NOTE_CS5,299, NOTE_CS5,298, NOTE_CS5,301, NOTE_CS5,298, NOTE_REST,1, NOTE_A4,299, NOTE_A4,298,
 NOTE_A4,301, NOTE_A4,298, NOTE_REST,1, NOTE_A4,299, NOTE_A4,298, NOTE_A4,301, NOTE_A4,298, NOTE_REST,1,
 NOTE_E4,299, NOTE_E4,298, NOTE_E4,301, NOTE_E4,298, NOTE_REST,1, NOTE_E4,299, NOTE_E4,298, NOTE_E4,301,
 NOTE_E4,298, NOTE_REST,1, NOTE_B4,299, NOTE_B4,298, NOTE_B4,301, NOTE_B4,298, NOTE_REST,1, NOTE_B4,299,
 NOTE_B4,298, NOTE_B4,301, NOTE_B4,298, NOTE_REST,1, NOTE_CS5,299, NOTE_CS5,298, NOTE_CS5,301, NOTE_CS5,298,
 NOTE_REST,1, NOTE_CS5,299, NOTE_CS5,298, NOTE_CS5,301, NOTE_CS5,298, NOTE_REST,1, NOTE_A4,299, NOTE_A4,298,
 NOTE_A4,301, NOTE_A4,298, NOTE_REST,1, NOTE_B4,299, NOTE_B4,298, NOTE_B4,301, NOTE_B4,298, NOTE_REST,1,
 NOTE_A4,299, NOTE_A4,298, NOTE_A4,301, NOTE_A4,298, NOTE_REST,1, NOTE_A4,299, NOTE_A4,298, NOTE_A4,301,
 NOTE_A4,298, NOTE_REST,1, NOTE_B4,299, NOTE_B4,298, NOTE_B4,301, NOTE_B4,298, NOTE_REST,1, NOTE_E5,299,
 NOTE_E5,298, NOTE_REST,1, NOTE_B4,299, NOTE_B4,298, NOTE_REST,1, NOTE_A4,299, NOTE_A4,298, NOTE_A4,301,
 NOTE_A4,298, NOTE_REST,1, NOTE_A4,299, NOTE_A4,298, NOTE_A4,301, NOTE_A4,298, NOTE_REST,1, NOTE_B4,299,
 NOTE_B4,298, NOTE_B4,301, NOTE_B4,298, NOTE_REST,1, NOTE_E5,299, NOTE_E5,298, NOTE_REST,1, NOTE_B4,299,
 NOTE_B4,298, NOTE_REST,1, NOTE_A4,299, NOTE_A4,298, NOTE_A4,301, NOTE_A4,298, NOTE_REST,1, NOTE_A4,299,
 NOTE_A4,298, NOTE_A4,301, NOTE_A4,298, NOTE_REST,1, NOTE_B4,299, NOTE_B4,298, NOTE_B4,301, NOTE_B4,298,
 NOTE_REST,1, NOTE_E5,299, NOTE_E5,298, NOTE_REST,1, NOTE_B4,299, NOTE_B4,298, NOTE_REST,1, NOTE_A4,299,
 NOTE_A4,298, NOTE_A4,301, NOTE_A4,298, NOTE_REST,1, NOTE_A4,299, NOTE_A4,298, NOTE_A4,301, NOTE_A4,298,
 NOTE_REST,1, NOTE_B4,299, NOTE_B4,298, NOTE_B4,301, NOTE_B4,298, NOTE_REST,1, NOTE_B4,299, NOTE_B4,298,
 NOTE_REST,299, NOTE_REST,301, NOTE_E4,298, NOTE_E4,1, NOTE_E4,298, NOTE_E4,1, NOTE_E4,298, NOTE_E4,1,
 NOTE_E4,298, NOTE_REST,1, NOTE_E4,298, NOTE_E4,1, NOTE_E4,298, NOTE_E4,1, NOTE_E4,298, NOTE_E4,1,
 NOTE_E4,298, NOTE_REST,1, NOTE_B4,298, NOTE_B4,1, NOTE_B4,298, NOTE_B4,1, NOTE_B4,298, NOTE_B4,1,
 NOTE_B4,298, NOTE_REST,1, NOTE_B4,298, NOTE_B4,1, NOTE_B4,298, NOTE_B4,1, NOTE_B4,298, NOTE_B4,1,
 NOTE_B4,298, NOTE_REST,1, NOTE_CS4,298, NOTE_CS4,1, NOTE_CS4,298, NOTE_CS4,1, NOTE_CS4,298, NOTE_CS4,1,
 NOTE_CS4,298, NOTE_REST,1, NOTE_CS4,298, NOTE_CS4,1, NOTE_CS4,298, NOTE_CS4,1, NOTE_CS4,298, NOTE_CS4,1,
 NOTE_CS4,298, NOTE_REST,1, NOTE_A4,298, NOTE_A4,1, NOTE_A4,298, NOTE_A4,1, NOTE_A4,298, NOTE_A4,1,
 NOTE_A4,298, NOTE_REST,1, NOTE_A4,298, NOTE_A4,1, NOTE_A4,298, NOTE_A4,1, NOTE_A4,298, NOTE_A4,1,
 NOTE_A4,298, NOTE_REST,1, NOTE_E4,299, NOTE_E4,298, NOTE_E4,301, NOTE_E4,298, NOTE_REST,1, NOTE_E4,299,
 NOTE_E4,298, NOTE_E4,301, NOTE_E4,298, NOTE_REST,1, NOTE_B4,299, NOTE_B4,298, NOTE_B4,301, NOTE_B4,298,
 NOTE_REST,1, NOTE_B4,299, NOTE_B4,298, NOTE_B4,301, NOTE_B4,298, NOTE_REST,1, NOTE_CS5,299, NOTE_CS5,298,
 NOTE_CS5,301, NOTE_CS5,298, NOTE_REST,1, NOTE_CS5,299, NOTE_CS5,298, NOTE_CS5,301, NOTE_CS5,298, NOTE_REST,1,
 NOTE_A4,299, NOTE_A4,298, NOTE_A4,301, NOTE_A4,298, NOTE_REST,1, NOTE_A4,299, NOTE_A4,298, NOTE_A4,301,
 NOTE_A4,298, NOTE_REST,1, NOTE_E4,299, NOTE_E4,298, NOTE_E4,301, NOTE_E4,298, NOTE_REST,1, NOTE_E4,299,
 NOTE_E4,298, NOTE_E4,301, NOTE_E4,298, NOTE_REST,1, NOTE_B4,299, NOTE_B4,298, NOTE_B4,301, NOTE_B4,298,
 NOTE_REST,1, NOTE_B4,299, NOTE_B4,298, NOTE_B4,301, NOTE_B4,298, NOTE_REST,1, NOTE_CS5,299, NOTE_CS5,298,
 NOTE_CS5,301, NOTE_CS5,298, NOTE_REST,1, NOTE_CS5,299, NOTE_CS5,298, NOTE_CS5,301, NOTE_CS5,298, NOTE_REST,1,
 NOTE_A4,299, NOTE_A4,298, NOTE_A4,301, NOTE_A4,298, NOTE_REST,1, NOTE_B4,299, NOTE_B4,298, NOTE_B4,301,
 NOTE_B4,298, NOTE_REST,1, NOTE_E4,299, NOTE_E4,298, NOTE_E4,301, NOTE_E4,298, NOTE_REST,1, NOTE_E4,299,
 NOTE_E4,298, NOTE_E4,301, NOTE_E4,298, NOTE_REST,1, NOTE_B4,299, NOTE_B4,298, NOTE_B4,301, NOTE_B4,298,
 NOTE_REST,1, NOTE_B4,299, NOTE_B4,298, NOTE_B4,301, NOTE_B4,298, NOTE_REST,1, NOTE_CS5,299, NOTE_CS5,298,
 NOTE_CS5,301, NOTE_CS5,298, NOTE_REST,1, NOTE_CS5,299, NOTE_CS5,298, NOTE_CS5,301, NOTE_CS5,298, NOTE_REST,1,
 NOTE_A4,299, NOTE_A4,298, NOTE_A4,301, NOTE_A4,298, NOTE_REST,1, NOTE_A4,299, NOTE_A4,298, NOTE_A4,301,
 NOTE_A4,298, NOTE_REST,1, NOTE_E4,299, NOTE_E4,298, NOTE_E4,301, NOTE_E4,298, NOTE_REST,1, NOTE_E4,299,
 NOTE_E4,298, NOTE_E4,301, NOTE_E4,298, NOTE_REST,1, NOTE_B4,299, NOTE_B4,298, NOTE_B4,301, NOTE_B4,298,
 NOTE_REST,1, NOTE_B4,299, NOTE_B4,298, NOTE_B4,301, NOTE_B4,298, NOTE_REST,1, NOTE_CS5,299, NOTE_CS5,298,
 NOTE_CS5,301, NOTE_CS5,298, NOTE_REST,1, NOTE_CS5,299, NOTE_CS5,298, NOTE_CS5,301, NOTE_CS5,298, NOTE_REST,1,
 NOTE_A4,299, NOTE_A4,298, NOTE_A4,301, NOTE_A4,298, NOTE_REST,1, NOTE_B4,299, NOTE_B4,298, NOTE_B4,301,
 NOTE_B4,298, NOTE_REST,1, NOTE_A4,299, NOTE_A4,298, NOTE_A4,301, NOTE_A4,298, NOTE_REST,1, NOTE_A4,299,
 NOTE_A4,298, NOTE_A4,301, NOTE_A4,298, NOTE_REST,1, NOTE_B4,299, NOTE_B4,298, NOTE_B4,301, NOTE_B4,298,
 NOTE_REST,1, NOTE_E5,299, NOTE_E5,298, NOTE_REST,1, NOTE_B4,299, NOTE_B4,298, NOTE_REST,1, NOTE_A4,299,
 NOTE_A4,298, NOTE_A4,301, NOTE_A4,298, NOTE_REST,1, NOTE_A4,299, NOTE_A4,298, NOTE_A4,301, NOTE_A4,298,
 NOTE_REST,1, NOTE_B4,299, NOTE_B4,298, NOTE_B4,301, NOTE_B4,298, NOTE_REST,1, NOTE_E5,299, NOTE_E5,298,
 NOTE_REST,1, NOTE_B4,299, NOTE_B4,298, NOTE_REST,1, NOTE_A4,299, NOTE_A4,298, NOTE_A4,301, NOTE_A4,298,
 NOTE_REST,1, NOTE_A4,299, NOTE_A4,298, NOTE_A4,301, NOTE_A4,298, NOTE_REST,1, NOTE_B4,299, NOTE_B4,298,
 NOTE_B4,301, NOTE_B4,298, NOTE_REST,1, NOTE_E5,299, NOTE_E5,298, NOTE_REST,1, NOTE_B4,299, NOTE_B4,298,
 NOTE_REST,1, NOTE_A4,299, NOTE_A4,298, NOTE_A4,301, NOTE_A4,298, NOTE_REST,1, NOTE_A4,299, NOTE_A4,298,
 NOTE_A4,301, NOTE_A4,298, NOTE_REST,1, NOTE_B4,299, NOTE_B4,298, NOTE_B4,301, NOTE_B4,298, NOTE_REST,1,
 NOTE_B4,299, NOTE_B4,298, NOTE_REST,299, NOTE_REST,301, NOTE_E4,299, NOTE_E4,298, NOTE_E4,301, NOTE_E4,298,
 NOTE_REST,1, NOTE_E4,299, NOTE_E4,298, NOTE_E4,301, NOTE_E4,298, NOTE_REST,1, NOTE_B4,299, NOTE_B4,298,
 NOTE_B4,301, NOTE_B4,298, NOTE_REST,1, NOTE_B4,299, NOTE_B4,298, NOTE_B4,301, NOTE_B4,298, NOTE_REST,1,
 NOTE_CS5,299, NOTE_CS5,298, NOTE_CS5,301, NOTE_CS5,298, NOTE_REST,1, NOTE_CS5,299, NOTE_CS5,298, NOTE_CS5,301,
 NOTE_CS5,298, NOTE_REST,1, NOTE_CS5,299, NOTE_CS5,298, NOTE_CS5,301, NOTE_CS5,298, NOTE_REST,1, NOTE_CS5,299,
 NOTE_CS5,298, NOTE_CS5,301, NOTE_CS5,298, NOTE_REST,1, NOTE_B4,299, NOTE_B4,298, NOTE_B4,301, NOTE_B4,298,
 NOTE_REST,1, NOTE_B4,299, NOTE_B4,298, NOTE_B4,301, NOTE_B4,298, NOTE_REST,1, NOTE_B4,299, NOTE_B4,298,
 NOTE_B4,301, NOTE_B4,298, NOTE_REST,1, NOTE_B4,299, NOTE_B4,298, NOTE_B4,301, NOTE_B4,298, NOTE_REST,1,
 NOTE_CS5,299, NOTE_CS5,298, NOTE_CS5,301, NOTE_CS5,298, NOTE_REST,1, NOTE_B4,299, NOTE_B4,298, NOTE_B4,301,
 NOTE_B4,298, NOTE_REST,1, NOTE_A4,299, NOTE_A4,298, NOTE_A4,301, NOTE_A4,298, NOTE_REST,1, NOTE_B4,299,
 NOTE_B4,298, NOTE_B4,301, NOTE_B4,298, NOTE_REST,301, NOTE_CS6,298, NOTE_REST,301, NOTE_CS6,298, NOTE_REST,301,
 NOTE_CS6,298, NOTE_REST,301, NOTE_CS6,298, NOTE_REST,301, NOTE_B5,298, NOTE_REST,301, NOTE_B5,298, NOTE_REST,301,
 NOTE_B5,298, NOTE_REST,301, NOTE_B5,298, NOTE_REST,301, NOTE_CS6,298, NOTE_REST,301, NOTE_CS6,298, NOTE_REST,301,
 NOTE_CS6,298, NOTE_REST,301, NOTE_CS6,298, NOTE_REST,301, NOTE_B5,298, NOTE_REST,301, NOTE_B5,298, NOTE_REST,1,
 NOTE_E5,299, NOTE_E5,298, NOTE_REST,1, NOTE_B4,299, NOTE_B4,298, NOTE_REST,1, NOTE_A4,299, NOTE_A4,298,
 NOTE_A4,301, NOTE_A4,298, NOTE_REST,1, NOTE_A4,299, NOTE_A4,298, NOTE_A4,301, NOTE_A4,298, NOTE_REST,1,
 NOTE_B4,299, NOTE_B4,298, NOTE_B4,301, NOTE_B4,298, NOTE_REST,1, NOTE_E5,299, NOTE_E5,298, NOTE_REST,1,
 NOTE_B4,299, NOTE_B4,298, NOTE_REST,1, NOTE_A4,299, NOTE_A4,298, NOTE_A4,301, NOTE_A4,298, NOTE_REST,1,
 NOTE_A4,299, NOTE_A4,298, NOTE_A4,301, NOTE_A4,298, NOTE_REST,1, NOTE_B4,299, NOTE_B4,298, NOTE_B4,301,
 NOTE_B4,298, NOTE_REST,1, NOTE_B4,299, NOTE_B4,298, NOTE_REST,299, NOTE_REST,301, NOTE_A4,299, NOTE_A4,298,
 NOTE_A4,301, NOTE_A4,298, NOTE_REST,1, NOTE_A4,299, NOTE_A4,298, NOTE_A4,301, NOTE_A4,298, NOTE_REST,1,
 NOTE_B4,299, NOTE_B4,298, NOTE_B4,301, NOTE_B4,298, NOTE_REST,1, NOTE_E5,299, NOTE_E5,298, NOTE_REST,1,
 NOTE_B4,299, NOTE_B4,298, NOTE_REST,1, NOTE_A4,299, NOTE_A4,298, NOTE_A4,301, NOTE_A4,298, NOTE_REST,1,
 NOTE_A4,299, NOTE_A4,298, NOTE_A4,301, NOTE_A4,298, NOTE_REST,1, NOTE_B4,299, NOTE_B4,298, NOTE_B4,301,
 NOTE_B4,298, NOTE_REST,1, NOTE_B4,299, NOTE_B4,298, NOTE_B4,301, NOTE_B4,298, NOTE_REST,1, NOTE_E4,299,
 NOTE_E4,298, NOTE_E4,301, NOTE_E4,298, NOTE_REST,1, NOTE_E4,299, NOTE_E4,298, NOTE_E4,301, NOTE_E4,298,
 NOTE_REST,1, NOTE_B4,299, NOTE_B4,298, NOTE_B4,301, NOTE_B4,298, NOTE_REST,1, NOTE_B4,299, NOTE_B4,298,
 NOTE_B4,301, NOTE_B4,298, NOTE_REST,1, NOTE_CS4,299, NOTE_CS4,298, NOTE_CS4,301, NOTE_CS4,298, NOTE_REST,1,
 NOTE_CS4,299, NOTE_CS4,298, NOTE_CS4,301, NOTE_CS4,298, NOTE_REST,1, NOTE_A4,299, NOTE_A4,298, NOTE_A4,301,
 NOTE_A4,298, NOTE_REST,1, NOTE_A4,299, NOTE_A4,298, NOTE_A4,301, NOTE_A4,298, NOTE_REST,1, NOTE_E4,299,
 NOTE_E4,298, NOTE_E4,301, NOTE_E4,298, NOTE_REST,1, NOTE_E4,299, NOTE_E4,298, NOTE_E4,301, NOTE_E4,298,
 NOTE_REST,1, NOTE_B4,299, NOTE_B4,298, NOTE_B4,301, NOTE_B4,298, NOTE_REST,1, NOTE_B4,299, NOTE_B4,298,
 NOTE_B4,301, NOTE_B4,298, NOTE_REST,1, NOTE_CS4,299, NOTE_CS4,298, NOTE_CS4,301, NOTE_CS4,298, NOTE_REST,1,
 NOTE_CS4,299, NOTE_CS4,298, NOTE_CS4,301, NOTE_CS4,298, NOTE_REST,1, NOTE_A4,299, NOTE_A4,298, NOTE_A4,301,
 NOTE_A4,298, NOTE_REST,1, NOTE_B4,1198, NOTE_REST,1, NOTE_E4,2398,
 0, 1, -1, -1
};
// This score contains 3446 bytes.
// 969 notes had to be skipped.
