// ArduboyTones stream for file "heySoulSister.mid" created by MIDI2TONES V1.0.0 on Thu Dec 12 12:01:16 2019
// command line: C:\Users\cnorf\Downloads\midi2tones-master\midi2tones_64bit.exe -o2 -c8 heySoulSister 
//   From channel 3
const int score2[] = {
 NOTE_E4,1198, NOTE_REST,1, NOTE_E4,1198, NOTE_REST,1, NOTE_B4,1198, NOTE_REST,1, NOTE_B4,1198, NOTE_REST,1,
 NOTE_CS5,1198, NOTE_REST,1, NOTE_CS5,1198, NOTE_REST,1, NOTE_A4,1198, NOTE_REST,1, NOTE_A4,1198, NOTE_REST,1,
 NOTE_E4,1198, NOTE_REST,1, NOTE_E4,1198, NOTE_REST,1, NOTE_B4,1198, NOTE_REST,1, NOTE_B4,1198, NOTE_REST,1,
 NOTE_CS5,1198, NOTE_REST,1, NOTE_CS5,1198, NOTE_REST,1, NOTE_A4,1198, NOTE_REST,1, NOTE_A4,1198, NOTE_REST,1,
 NOTE_E4,1198, NOTE_REST,1, NOTE_E4,1198, NOTE_REST,1, NOTE_B4,1198, NOTE_REST,1, NOTE_B4,1198, NOTE_REST,1,
 NOTE_CS5,1198, NOTE_REST,1, NOTE_CS5,1198, NOTE_REST,1, NOTE_A4,1198, NOTE_REST,1, NOTE_B4,1198, NOTE_REST,1,
 NOTE_E4,1198, NOTE_REST,1, NOTE_E4,1198, NOTE_REST,1, NOTE_B4,1198, NOTE_REST,1, NOTE_B4,1198, NOTE_REST,1,
 NOTE_CS5,1198, NOTE_REST,1, NOTE_CS5,1198, NOTE_REST,1, NOTE_A4,1198, NOTE_REST,1, NOTE_A4,1198, NOTE_REST,1,
 NOTE_E4,1198, NOTE_REST,1, NOTE_E4,1198, NOTE_REST,1, NOTE_B4,1198, NOTE_REST,1, NOTE_B4,1198, NOTE_REST,1,
 NOTE_CS5,1198, NOTE_REST,1, NOTE_CS5,1198, NOTE_REST,1, NOTE_A4,1198, NOTE_REST,1, NOTE_B4,1198, NOTE_REST,1,
 NOTE_A4,1198, NOTE_REST,1, NOTE_A4,1198, NOTE_REST,1, NOTE_B4,1198, NOTE_REST,1, NOTE_E5,598, NOTE_REST,1,
 NOTE_B4,598, NOTE_REST,1, NOTE_A4,1198, NOTE_REST,1, NOTE_A4,1198, NOTE_REST,1, NOTE_B4,1198, NOTE_REST,1,
 NOTE_E5,598, NOTE_REST,1, NOTE_B4,598, NOTE_REST,1, NOTE_A4,1198, NOTE_REST,1, NOTE_A4,1198, NOTE_REST,1,
 NOTE_B4,1198, NOTE_REST,1, NOTE_E5,598, NOTE_REST,1, NOTE_B4,598, NOTE_REST,1, NOTE_A4,1198, NOTE_REST,1,
 NOTE_A4,1198, NOTE_REST,1, NOTE_B4,1198, NOTE_REST,1, NOTE_B4,598, NOTE_REST,901, NOTE_E4,298, NOTE_REST,301,
 NOTE_E4,298, NOTE_REST,301, NOTE_E4,298, NOTE_REST,301, NOTE_E4,298, NOTE_REST,301, NOTE_B4,298, NOTE_REST,301,
 NOTE_B4,298, NOTE_REST,301, NOTE_B4,298, NOTE_REST,301, NOTE_B4,298, NOTE_REST,301, NOTE_CS4,298, NOTE_REST,301,
 NOTE_CS4,298, NOTE_REST,301, NOTE_CS4,298, NOTE_REST,301, NOTE_CS4,298, NOTE_REST,301, NOTE_A4,298, NOTE_REST,301,
 NOTE_A4,298, NOTE_REST,301, NOTE_A4,298, NOTE_REST,301, NOTE_A4,298, NOTE_REST,1, NOTE_E4,1198, NOTE_REST,1,
 NOTE_E4,1198, NOTE_REST,1, NOTE_B4,1198, NOTE_REST,1, NOTE_B4,1198, NOTE_REST,1, NOTE_CS5,1198, NOTE_REST,1,
 NOTE_CS5,1198, NOTE_REST,1, NOTE_A4,1198, NOTE_REST,1, NOTE_A4,1198, NOTE_REST,1, NOTE_E4,1198, NOTE_REST,1,
 NOTE_E4,1198, NOTE_REST,1, NOTE_B4,1198, NOTE_REST,1, NOTE_B4,1198, NOTE_REST,1, NOTE_CS5,1198, NOTE_REST,1,
 NOTE_CS5,1198, NOTE_REST,1, NOTE_A4,1198, NOTE_REST,1, NOTE_B4,1198, NOTE_REST,1, NOTE_E4,1198, NOTE_REST,1,
 NOTE_E4,1198, NOTE_REST,1, NOTE_B4,1198, NOTE_REST,1, NOTE_B4,1198, NOTE_REST,1, NOTE_CS5,1198, NOTE_REST,1,
 NOTE_CS5,1198, NOTE_REST,1, NOTE_A4,1198, NOTE_REST,1, NOTE_A4,1198, NOTE_REST,1, NOTE_E4,1198, NOTE_REST,1,
 NOTE_E4,1198, NOTE_REST,1, NOTE_B4,1198, NOTE_REST,1, NOTE_B4,1198, NOTE_REST,1, NOTE_CS5,1198, NOTE_REST,1,
 NOTE_CS5,1198, NOTE_REST,1, NOTE_A4,1198, NOTE_REST,1, NOTE_B4,1198, NOTE_REST,1, NOTE_A4,1198, NOTE_REST,1,
 NOTE_A4,1198, NOTE_REST,1, NOTE_B4,1198, NOTE_REST,1, NOTE_E5,598, NOTE_REST,1, NOTE_B4,598, NOTE_REST,1,
 NOTE_A4,1198, NOTE_REST,1, NOTE_A4,1198, NOTE_REST,1, NOTE_B4,1198, NOTE_REST,1, NOTE_E5,598, NOTE_REST,1,
 NOTE_B4,598, NOTE_REST,1, NOTE_A4,1198, NOTE_REST,1, NOTE_A4,1198, NOTE_REST,1, NOTE_B4,1198, NOTE_REST,1,
 NOTE_E5,598, NOTE_REST,1, NOTE_B4,598, NOTE_REST,1, NOTE_A4,1198, NOTE_REST,1, NOTE_A4,1198, NOTE_REST,1,
 NOTE_B4,1198, NOTE_REST,1, NOTE_B4,598, NOTE_REST,601, NOTE_E4,1198, NOTE_REST,1, NOTE_E4,1198, NOTE_REST,1,
 NOTE_B4,1198, NOTE_REST,1, NOTE_B4,1198, NOTE_REST,1, NOTE_CS5,1198, NOTE_REST,1, NOTE_CS5,1198, NOTE_REST,1,
 NOTE_CS5,1198, NOTE_REST,1, NOTE_CS5,1198, NOTE_REST,1, NOTE_B4,1198, NOTE_REST,1, NOTE_B4,1198, NOTE_REST,1,
 NOTE_B4,1198, NOTE_REST,1, NOTE_B4,1198, NOTE_REST,1, NOTE_CS5,1198, NOTE_REST,1, NOTE_B4,1198, NOTE_REST,1,
 NOTE_A4,1198, NOTE_REST,1, NOTE_B4,1198, NOTE_REST,8401, NOTE_E5,598, NOTE_REST,1, NOTE_B4,598, NOTE_REST,1,
 NOTE_A4,1198, NOTE_REST,1, NOTE_A4,1198, NOTE_REST,1, NOTE_B4,1198, NOTE_REST,1, NOTE_E5,598, NOTE_REST,1,
 NOTE_B4,598, NOTE_REST,1, NOTE_A4,1198, NOTE_REST,1, NOTE_A4,1198, NOTE_REST,1, NOTE_B4,1198, NOTE_REST,1,
 NOTE_B4,598, NOTE_REST,601, NOTE_A4,1198, NOTE_REST,1, NOTE_A4,1198, NOTE_REST,1, NOTE_B4,1198, NOTE_REST,1,
 NOTE_E5,598, NOTE_REST,1, NOTE_B4,598, NOTE_REST,1, NOTE_A4,1198, NOTE_REST,1, NOTE_A4,1198, NOTE_REST,1,
 NOTE_B4,1198, NOTE_REST,1, NOTE_B4,1198, NOTE_REST,1, NOTE_E4,1198, NOTE_REST,1, NOTE_E4,1198, NOTE_REST,1,
 NOTE_B4,1198, NOTE_REST,1, NOTE_B4,1198, NOTE_REST,1, NOTE_CS4,1198, NOTE_REST,1, NOTE_CS4,1198, NOTE_REST,1,
 NOTE_A4,1198, NOTE_REST,1, NOTE_A4,1198, NOTE_REST,1, NOTE_E4,1198, NOTE_REST,1, NOTE_E4,1198, NOTE_REST,1,
 NOTE_B4,1198, NOTE_REST,1, NOTE_B4,1198, NOTE_REST,1, NOTE_CS4,1198, NOTE_REST,1, NOTE_CS4,1198, NOTE_REST,1,
 NOTE_A4,1198, NOTE_REST,1, NOTE_B4,1198, NOTE_REST,1, NOTE_E4,2398,
 0, 1, -1, -1
};
// This score contains 1430 bytes.
