// ArduboyTones stream for file "heySoulSister.mid" created by MIDI2TONES V1.0.0 on Thu Dec 12 12:01:30 2019
// command line: C:\Users\cnorf\Downloads\midi2tones-master\midi2tones_64bit.exe -o2 -c1 heySoulSister 
//   From channel 0
const int score1[] = {
 NOTE_REST,1799, NOTE_GS6,598, NOTE_REST,1, NOTE_FS6,598, NOTE_REST,601, NOTE_E6,298, NOTE_REST,1, NOTE_FS6,298,
 NOTE_REST,1, NOTE_GS6,298, NOTE_REST,1, NOTE_E6,298, NOTE_REST,1, NOTE_CS6,598, NOTE_REST,601, NOTE_E6,298,
 NOTE_REST,1, NOTE_FS6,298, NOTE_REST,1, NOTE_GS6,298, NOTE_REST,1, NOTE_E6,298, NOTE_REST,1, NOTE_CS6,598,
 NOTE_REST,1501, NOTE_B5,298, NOTE_REST,1, NOTE_GS6,598, NOTE_REST,1, NOTE_GS6,598, NOTE_REST,1, NOTE_GS6,1198,
 NOTE_REST,601, NOTE_FS6,298, NOTE_REST,1, NOTE_GS6,298, NOTE_REST,1, NOTE_A6,298, NOTE_REST,1, NOTE_GS6,298,
 NOTE_REST,1, NOTE_FS6,298, NOTE_REST,1, NOTE_E6,298, NOTE_REST,1, NOTE_GS6,598, NOTE_REST,1, NOTE_GS6,598,
 NOTE_REST,1, NOTE_GS6,1198, NOTE_REST,901, NOTE_FS6,148, NOTE_REST,1, NOTE_A6,298, NOTE_REST,1, NOTE_GS6,298,
 NOTE_REST,1, NOTE_FS6,298, NOTE_REST,1, NOTE_FS6,298, NOTE_REST,1, NOTE_E6,148, NOTE_REST,1, NOTE_GS6,298,
 NOTE_REST,1, NOTE_E6,598, NOTE_REST,1, NOTE_FS6,298, NOTE_REST,1, NOTE_A6,148, NOTE_REST,1, NOTE_GS6,298,
 NOTE_REST,1, NOTE_FS6,298, NOTE_REST,1, NOTE_E6,298, NOTE_REST,1, NOTE_DS6,748, NOTE_REST,1, NOTE_B5,298,
 NOTE_REST,1, NOTE_DS6,598, NOTE_REST,1, NOTE_E6,598, NOTE_REST,1, NOTE_CS6,898, NOTE_REST,3901, NOTE_E6,298,
 NOTE_REST,1, NOTE_GS6,598, NOTE_REST,1, NOTE_E6,598, NOTE_REST,1, NOTE_B5,1198, NOTE_REST,301, NOTE_B5,298,
 NOTE_REST,1, NOTE_FS6,148, NOTE_REST,1, NOTE_GS6,298, NOTE_REST,1, NOTE_A6,448, NOTE_REST,1, NOTE_GS6,298,
 NOTE_REST,1, NOTE_FS6,298, NOTE_REST,1, NOTE_E6,298, NOTE_REST,1, NOTE_GS6,598, NOTE_REST,1, NOTE_E6,598,
 NOTE_REST,1, NOTE_E6,398, NOTE_REST,1, NOTE_FS6,398, NOTE_REST,1, NOTE_CS6,998, NOTE_REST,301, NOTE_FS6,298,
 NOTE_REST,1, NOTE_A6,298, NOTE_REST,1, NOTE_GS6,298, NOTE_REST,1, NOTE_FS6,298, NOTE_REST,1, NOTE_E6,148,
 NOTE_REST,1, NOTE_GS6,298, NOTE_REST,1, NOTE_E6,448, NOTE_REST,1, NOTE_E6,148, NOTE_REST,1, NOTE_FS6,298,
 NOTE_REST,1, NOTE_A6,298, NOTE_REST,1, NOTE_GS6,448, NOTE_REST,1, NOTE_FS6,298, NOTE_REST,1, NOTE_E6,298,
 NOTE_REST,1, NOTE_DS6,298, NOTE_REST,1, NOTE_B5,298, NOTE_REST,301, NOTE_B5,298, NOTE_REST,1, NOTE_DS6,398,
 NOTE_REST,1, NOTE_E6,398, NOTE_REST,1, NOTE_CS6,1598, NOTE_REST,3601, NOTE_B6,598, NOTE_REST,1, NOTE_GS6,598,
 NOTE_REST,1, NOTE_FS6,298, NOTE_REST,1, NOTE_E6,598, NOTE_REST,1, NOTE_B6,598, NOTE_REST,1, NOTE_B6,298,
 NOTE_REST,1, NOTE_GS6,298, NOTE_REST,1, NOTE_GS6,298, NOTE_REST,1, NOTE_FS6,298, NOTE_REST,1, NOTE_E6,298,
 NOTE_REST,1, NOTE_E6,298, NOTE_REST,1, NOTE_FS6,298, NOTE_REST,1, NOTE_GS6,298, NOTE_REST,1, NOTE_E6,148,
 NOTE_REST,1, NOTE_E6,448, NOTE_REST,301, NOTE_GS6,298, NOTE_REST,1, NOTE_E6,148, NOTE_REST,1, NOTE_E6,298,
 NOTE_REST,1, NOTE_GS6,298, NOTE_REST,1, NOTE_GS6,298, NOTE_REST,1, NOTE_GS6,298, NOTE_REST,1, NOTE_GS6,298,
 NOTE_REST,1, NOTE_GS6,448, NOTE_REST,1, NOTE_FS6,298, NOTE_REST,1, NOTE_CS6,148, NOTE_REST,1, NOTE_E6,748,
 NOTE_REST,1, NOTE_B6,598, NOTE_REST,1, NOTE_GS6,598, NOTE_REST,1, NOTE_FS6,298, NOTE_REST,1, NOTE_E6,598,
 NOTE_REST,1, NOTE_B6,598, NOTE_REST,1, NOTE_B6,298, NOTE_REST,1, NOTE_GS6,298, NOTE_REST,1, NOTE_GS6,298,
 NOTE_REST,1, NOTE_FS6,298, NOTE_REST,1, NOTE_E6,298, NOTE_REST,1, NOTE_E6,298, NOTE_REST,1, NOTE_FS6,298,
 NOTE_REST,1, NOTE_GS6,598, NOTE_REST,1, NOTE_CS6,298, NOTE_REST,1, NOTE_E6,598, NOTE_REST,1, NOTE_FS6,2098,
 NOTE_REST,901, NOTE_E6,148, NOTE_REST,1, NOTE_E6,448, NOTE_REST,1501, NOTE_GS6,598, NOTE_REST,1, NOTE_FS6,598,
 NOTE_REST,601, NOTE_E6,298, NOTE_REST,1, NOTE_FS6,298, NOTE_REST,1, NOTE_GS6,298, NOTE_REST,1, NOTE_E6,148,
 NOTE_REST,1, NOTE_CS6,748, NOTE_REST,601, NOTE_E6,298, NOTE_REST,1, NOTE_FS6,298, NOTE_REST,1, NOTE_GS6,298,
 NOTE_REST,1, NOTE_E6,148, NOTE_REST,1, NOTE_CS6,748, NOTE_REST,1801, NOTE_GS6,598, NOTE_REST,1, NOTE_GS6,598,
 NOTE_REST,1, NOTE_GS6,1198, NOTE_REST,601, NOTE_FS6,298, NOTE_REST,1, NOTE_GS6,298, NOTE_REST,1, NOTE_A6,298,
 NOTE_REST,1, NOTE_GS6,298, NOTE_REST,1, NOTE_FS6,298, NOTE_REST,1, NOTE_E6,298, NOTE_REST,1, NOTE_GS6,598,
 NOTE_REST,1, NOTE_GS6,598, NOTE_REST,1, NOTE_GS6,1198, NOTE_REST,901, NOTE_FS6,148, NOTE_REST,1, NOTE_A6,298,
 NOTE_REST,1, NOTE_GS6,298, NOTE_REST,1, NOTE_FS6,298, NOTE_REST,1, NOTE_FS6,298, NOTE_REST,1, NOTE_E6,148,
 NOTE_REST,1, NOTE_GS6,298, NOTE_REST,1, NOTE_E6,598, NOTE_REST,1, NOTE_FS6,298, NOTE_REST,1, NOTE_A6,148,
 NOTE_REST,1, NOTE_GS6,298, NOTE_REST,1, NOTE_FS6,298, NOTE_REST,1, NOTE_E6,298, NOTE_REST,1, NOTE_DS6,748,
 NOTE_REST,1, NOTE_B5,298, NOTE_REST,1, NOTE_DS6,598, NOTE_REST,1, NOTE_E6,598, NOTE_REST,1, NOTE_CS6,898,
 NOTE_REST,3901, NOTE_E6,298, NOTE_REST,1, NOTE_GS6,598, NOTE_REST,1, NOTE_E6,598, NOTE_REST,1, NOTE_B5,1198,
 NOTE_REST,301, NOTE_B5,298, NOTE_REST,1, NOTE_FS6,148, NOTE_REST,1, NOTE_GS6,298, NOTE_REST,1, NOTE_A6,448,
 NOTE_REST,1, NOTE_GS6,298, NOTE_REST,1, NOTE_FS6,298, NOTE_REST,1, NOTE_E6,298, NOTE_REST,1, NOTE_GS6,598,
 NOTE_REST,1, NOTE_E6,598, NOTE_REST,1, NOTE_E6,398, NOTE_REST,1, NOTE_FS6,398, NOTE_REST,1, NOTE_CS6,998,
 NOTE_REST,301, NOTE_FS6,298, NOTE_REST,1, NOTE_A6,298, NOTE_REST,1, NOTE_GS6,298, NOTE_REST,1, NOTE_FS6,298,
 NOTE_REST,1, NOTE_E6,148, NOTE_REST,1, NOTE_GS6,298, NOTE_REST,1, NOTE_E6,448, NOTE_REST,1, NOTE_E6,148,
 NOTE_REST,1, NOTE_FS6,298, NOTE_REST,1, NOTE_A6,298, NOTE_REST,1, NOTE_GS6,448, NOTE_REST,1, NOTE_FS6,298,
 NOTE_REST,1, NOTE_E6,298, NOTE_REST,1, NOTE_DS6,298, NOTE_REST,1, NOTE_B5,298, NOTE_REST,301, NOTE_B5,298,
 NOTE_REST,1, NOTE_DS6,398, NOTE_REST,1, NOTE_E6,398, NOTE_REST,1, NOTE_CS6,1598, NOTE_REST,3601, NOTE_B6,598,
 NOTE_REST,1, NOTE_GS6,598, NOTE_REST,1, NOTE_FS6,298, NOTE_REST,1, NOTE_E6,598, NOTE_REST,1, NOTE_B6,598,
 NOTE_REST,1, NOTE_B6,298, NOTE_REST,1, NOTE_GS6,298, NOTE_REST,1, NOTE_GS6,298, NOTE_REST,1, NOTE_FS6,298,
 NOTE_REST,1, NOTE_E6,298, NOTE_REST,1, NOTE_E6,298, NOTE_REST,1, NOTE_FS6,298, NOTE_REST,1, NOTE_GS6,298,
 NOTE_REST,1, NOTE_E6,148, NOTE_REST,1, NOTE_E6,448, NOTE_REST,301, NOTE_GS6,298, NOTE_REST,1, NOTE_E6,148,
 NOTE_REST,1, NOTE_E6,298, NOTE_REST,1, NOTE_GS6,298, NOTE_REST,1, NOTE_GS6,298, NOTE_REST,1, NOTE_GS6,298,
 NOTE_REST,1, NOTE_GS6,298, NOTE_REST,1, NOTE_GS6,448, NOTE_REST,1, NOTE_FS6,298, NOTE_REST,1, NOTE_CS6,148,
 NOTE_REST,1, NOTE_E6,748, NOTE_REST,1, NOTE_B6,598, NOTE_REST,1, NOTE_GS6,598, NOTE_REST,1, NOTE_FS6,298,
 NOTE_REST,1, NOTE_E6,598, NOTE_REST,1, NOTE_B6,598, NOTE_REST,1, NOTE_B6,298, NOTE_REST,1, NOTE_GS6,298,
 NOTE_REST,1, NOTE_GS6,298, NOTE_REST,1, NOTE_FS6,298, NOTE_REST,1, NOTE_E6,298, NOTE_REST,1, NOTE_E6,298,
 NOTE_REST,1, NOTE_FS6,298, NOTE_REST,1, NOTE_GS6,598, NOTE_REST,1, NOTE_CS6,298, NOTE_REST,1, NOTE_E6,598,
 NOTE_REST,1, NOTE_FS6,2098, NOTE_REST,901, NOTE_E6,148, NOTE_REST,1, NOTE_E6,448, NOTE_REST,1, NOTE_GS6,298,
 NOTE_REST,1, NOTE_GS6,298, NOTE_REST,1, NOTE_GS6,298, NOTE_REST,1, NOTE_GS6,148, NOTE_REST,1, NOTE_GS6,298,
 NOTE_REST,1, NOTE_GS6,748, NOTE_REST,1, NOTE_FS6,298, NOTE_REST,1, NOTE_E6,148, NOTE_REST,1, NOTE_FS6,448,
 NOTE_REST,1, NOTE_E6,148, NOTE_REST,1, NOTE_FS6,298, NOTE_REST,1, NOTE_FS6,298, NOTE_REST,1, NOTE_B6,298,
 NOTE_REST,1, NOTE_B6,298, NOTE_REST,1, NOTE_GS6,448, NOTE_REST,1, NOTE_GS6,598, NOTE_REST,1, NOTE_E6,148,
 NOTE_REST,1, NOTE_GS6,298, NOTE_REST,1, NOTE_GS6,298, NOTE_REST,1, NOTE_GS6,448, NOTE_REST,1, NOTE_E6,148,
 NOTE_REST,1, NOTE_FS6,148, NOTE_REST,1, NOTE_GS6,298, NOTE_REST,1, NOTE_E6,148, NOTE_REST,1, NOTE_E6,298,
 NOTE_REST,1, NOTE_FS6,298, NOTE_REST,1, NOTE_GS6,298, NOTE_REST,1, NOTE_E6,298, NOTE_REST,1, NOTE_E6,448,
 NOTE_REST,1, NOTE_E6,148, NOTE_REST,1, NOTE_E6,448, NOTE_REST,1, NOTE_GS6,148, NOTE_REST,1, NOTE_GS6,148,
 NOTE_REST,1, NOTE_GS6,298, NOTE_REST,1, NOTE_GS6,298, NOTE_REST,1, NOTE_B6,298, NOTE_REST,1, NOTE_B6,298,
 NOTE_REST,1, NOTE_B6,298, NOTE_REST,1, NOTE_B6,148, NOTE_REST,1, NOTE_FS6,448, NOTE_REST,1, NOTE_E6,148,
 NOTE_REST,1, NOTE_FS6,298, NOTE_REST,1, NOTE_E6,448, NOTE_REST,1, NOTE_FS6,298, NOTE_REST,1, NOTE_E6,298,
 NOTE_REST,1, NOTE_GS6,298, NOTE_REST,1, NOTE_E6,148, NOTE_REST,1, NOTE_E6,148, NOTE_REST,751, NOTE_CS6,148,
 NOTE_REST,1, NOTE_E6,148, NOTE_REST,1, NOTE_FS6,148, NOTE_REST,1, NOTE_GS6,298, NOTE_REST,1, NOTE_E6,148,
 NOTE_REST,1, NOTE_E6,298, NOTE_REST,1, NOTE_FS6,448, NOTE_REST,1, NOTE_E6,748, NOTE_REST,1, NOTE_FS6,448,
 NOTE_REST,1, NOTE_FS6,1198, NOTE_REST,1, NOTE_B6,598, NOTE_REST,1, NOTE_GS6,598, NOTE_REST,1, NOTE_FS6,298,
 NOTE_REST,1, NOTE_E6,598, NOTE_REST,1, NOTE_B6,598, NOTE_REST,1, NOTE_B6,298, NOTE_REST,1, NOTE_GS6,298,
 NOTE_REST,1, NOTE_GS6,298, NOTE_REST,1, NOTE_FS6,298, NOTE_REST,1, NOTE_E6,298, NOTE_REST,1, NOTE_E6,298,
 NOTE_REST,1, NOTE_FS6,298, NOTE_REST,1, NOTE_GS6,298, NOTE_REST,1, NOTE_E6,148, NOTE_REST,1, NOTE_E6,448,
 NOTE_REST,301, NOTE_GS6,298, NOTE_REST,1, NOTE_E6,148, NOTE_REST,1, NOTE_E6,298, NOTE_REST,1, NOTE_GS6,298,
 NOTE_REST,1, NOTE_GS6,298, NOTE_REST,1, NOTE_GS6,298, NOTE_REST,1, NOTE_GS6,298, NOTE_REST,1, NOTE_GS6,448,
 NOTE_REST,1, NOTE_FS6,298, NOTE_REST,1, NOTE_CS6,148, NOTE_REST,1, NOTE_E6,748, NOTE_REST,1, NOTE_B6,598,
 NOTE_REST,1, NOTE_GS6,598, NOTE_REST,1, NOTE_FS6,298, NOTE_REST,1, NOTE_E6,598, NOTE_REST,1, NOTE_B6,598,
 NOTE_REST,1, NOTE_B6,298, NOTE_REST,1, NOTE_GS6,298, NOTE_REST,1, NOTE_GS6,298, NOTE_REST,1, NOTE_FS6,298,
 NOTE_REST,1, NOTE_E6,298, NOTE_REST,1, NOTE_E6,298, NOTE_REST,1, NOTE_FS6,298, NOTE_REST,1, NOTE_GS6,598,
 NOTE_REST,1, NOTE_CS6,298, NOTE_REST,1, NOTE_E6,598, NOTE_REST,1, NOTE_FS6,3298, NOTE_REST,1, NOTE_B6,598,
 NOTE_REST,1, NOTE_GS6,598, NOTE_REST,1, NOTE_FS6,298, NOTE_REST,1, NOTE_E6,598, NOTE_REST,1, NOTE_B6,598,
 NOTE_REST,1, NOTE_B6,298, NOTE_REST,1, NOTE_GS6,298, NOTE_REST,1, NOTE_GS6,298, NOTE_REST,1, NOTE_FS6,298,
 NOTE_REST,1, NOTE_E6,298, NOTE_REST,1, NOTE_E6,298, NOTE_REST,1, NOTE_FS6,298, NOTE_REST,1, NOTE_GS6,598,
 NOTE_REST,1, NOTE_CS6,298, NOTE_REST,1, NOTE_E6,598, NOTE_REST,1, NOTE_FS6,2098, NOTE_REST,901, NOTE_E6,148,
 NOTE_REST,1, NOTE_E6,448, NOTE_REST,1501, NOTE_GS6,598, NOTE_REST,1, NOTE_FS6,598, NOTE_REST,601, NOTE_E6,298,
 NOTE_REST,1, NOTE_FS6,298, NOTE_REST,1, NOTE_GS6,298, NOTE_REST,1, NOTE_E6,148, NOTE_REST,1, NOTE_CS6,748,
 NOTE_REST,601, NOTE_E6,298, NOTE_REST,1, NOTE_FS6,298, NOTE_REST,1, NOTE_GS6,298, NOTE_REST,1, NOTE_E6,148,
 NOTE_REST,1, NOTE_CS6,748, NOTE_REST,1501, NOTE_E6,148, NOTE_REST,1, NOTE_E6,448, NOTE_REST,1501, NOTE_GS6,598,
 NOTE_REST,1, NOTE_FS6,598, NOTE_REST,601, NOTE_E6,298, NOTE_REST,1, NOTE_FS6,298, NOTE_REST,1, NOTE_GS6,298,
 NOTE_REST,1, NOTE_E6,148, NOTE_REST,1, NOTE_CS6,748, NOTE_REST,601, NOTE_E6,298, NOTE_REST,1, NOTE_FS6,298,
 NOTE_REST,1, NOTE_GS6,298, NOTE_REST,1, NOTE_E6,148, NOTE_REST,1, NOTE_CS6,748, NOTE_REST,1501, NOTE_E6,148,
 NOTE_REST,1, NOTE_E6,2548,
 0, 1, -1, -1
};
// This score contains 3114 bytes.
