// ArduboyTones stream for file "cantinaBand.mid" created by MIDI2TONES V1.0.0 on Tue Dec 10 00:42:22 2019
// command line: C:\Users\cnorf\Downloads\midi2tones-master\midi2tones_64bit.exe -o2 -c8 cantinaBand 
//   From channel 3
const int score2[] = {
// eCANTINA.SB16
 NOTE_REST,18250, NOTE_A7,34, NOTE_REST,10, NOTE_REST,2, NOTE_REST,453, NOTE_A7,50, NOTE_REST,2, NOTE_REST,3,
 NOTE_REST,444, NOTE_A7,46, NOTE_REST,3, NOTE_REST,2, NOTE_REST,447, NOTE_A7,44, NOTE_REST,7, NOTE_REST,447,
 NOTE_A7,52, NOTE_REST,5, NOTE_REST,442, NOTE_A7,44, NOTE_REST,2, NOTE_REST,453, NOTE_A7,46, NOTE_A7,3,
 NOTE_REST,5, NOTE_REST,444, NOTE_A7,55, NOTE_REST,10, NOTE_REST,434, NOTE_A7,39, NOTE_REST,2, NOTE_REST,458,
 NOTE_A7,39, NOTE_REST,2, NOTE_REST,5, NOTE_REST,453, NOTE_E7,46, NOTE_REST,453, NOTE_A7,50, NOTE_REST,2,
 NOTE_REST,3, NOTE_REST,444, NOTE_F7,52, NOTE_REST,5, NOTE_REST,3, NOTE_REST,439, NOTE_F7,44, NOTE_REST,5,
 NOTE_REST,2, NOTE_REST,447, NOTE_E7,31, NOTE_REST,13, NOTE_REST,15, NOTE_REST,439, NOTE_G7,39, NOTE_REST,10,
 NOTE_REST,450, NOTE_A7,46, NOTE_A7,3, NOTE_REST,5, NOTE_REST,444, NOTE_E7,52, NOTE_E7,3, NOTE_REST,444,
 NOTE_F7,46, NOTE_REST,8, NOTE_REST,444, NOTE_A7,52, NOTE_REST,3, NOTE_REST,444, NOTE_A7,50, NOTE_REST,5,
 NOTE_REST,2, NOTE_REST,442, NOTE_A7,44, NOTE_REST,2, NOTE_REST,8, NOTE_REST,444, NOTE_E7,46, NOTE_REST,3,
 NOTE_REST,450, NOTE_A7,50, NOTE_REST,5, NOTE_REST,444, NOTE_D7,44, NOTE_REST,10, NOTE_REST,2, NOTE_REST,442,
 NOTE_D7,44, NOTE_REST,5, NOTE_REST,7, NOTE_REST,442, NOTE_F7,44, NOTE_F7,5, NOTE_F7,2, NOTE_REST,447,
 NOTE_D7,44, NOTE_REST,2, NOTE_REST,10, NOTE_REST,442, NOTE_F7,50, NOTE_F7,2, NOTE_REST,197, NOTE_B6,46,
 NOTE_REST,3, NOTE_REST,75, NOTE_A7,50, NOTE_REST,5, NOTE_REST,194, NOTE_A6,39, NOTE_REST,9371, NOTE_D5,55,
 NOTE_REST,43, NOTE_D5,57, NOTE_REST,29, NOTE_D5,50, NOTE_REST,45, NOTE_D5,52, NOTE_REST,39, NOTE_D5,36,
 NOTE_REST,33, NOTE_D5,57, NOTE_REST,41, NOTE_D5,41, NOTE_REST,31, NOTE_D5,62, NOTE_REST,26, NOTE_D5,41,
 NOTE_REST,39, NOTE_D5,46, NOTE_REST,20, NOTE_D5,46, NOTE_REST,43, NOTE_D5,31, NOTE_REST,26, NOTE_D5,72,
 NOTE_REST,26, NOTE_D5,52, NOTE_REST,57, NOTE_CS5,323, NOTE_REST,415, NOTE_D5,55, NOTE_REST,41, NOTE_D5,72,
 NOTE_REST,31, NOTE_D5,46, NOTE_REST,36, NOTE_D5,55, NOTE_REST,38, NOTE_D5,34, NOTE_REST,40, NOTE_D5,60,
 NOTE_REST,20, NOTE_D5,46, NOTE_REST,46, NOTE_D5,57, NOTE_REST,15, NOTE_D5,52, NOTE_REST,38, NOTE_D5,60,
 NOTE_REST,22, NOTE_D5,55, NOTE_REST,38, NOTE_D5,154, NOTE_REST,22, NOTE_D5,44, NOTE_REST,83, NOTE_CS5,295,
 NOTE_REST,454, NOTE_D5,50, NOTE_REST,40, NOTE_D5,67, NOTE_REST,26, NOTE_D5,44, NOTE_REST,46, NOTE_D5,50,
 NOTE_REST,40, NOTE_D5,34, NOTE_REST,38, NOTE_D5,57, NOTE_REST,31, NOTE_D5,44, NOTE_REST,46, NOTE_D5,55,
 NOTE_REST,19, NOTE_D5,52, NOTE_REST,44, NOTE_D5,117, NOTE_REST,56, NOTE_D5,107, NOTE_REST,38, NOTE_D5,65,
 NOTE_REST,41, NOTE_CS5,307, NOTE_REST,220, NOTE_D5,39, NOTE_REST,234, NOTE_D5,44, NOTE_REST,347, NOTE_D5,39,
 NOTE_REST,163, NOTE_D5,46, NOTE_REST,1078, NOTE_C4,36, NOTE_C4,8, NOTE_REST,106, NOTE_E6,91, NOTE_E6,15,
 NOTE_E6,10, NOTE_E6,3, NOTE_E6,20, NOTE_E6,10, NOTE_E6,4, NOTE_REST,9, NOTE_REST,68, NOTE_G5,16,
 NOTE_G5,48, NOTE_REST,67, NOTE_D6,109, NOTE_D6,41, NOTE_REST,69, NOTE_B4,5, NOTE_B4,8, NOTE_B4,22,
 NOTE_B4,10, NOTE_REST,44, NOTE_REST,156, NOTE_E5,5, NOTE_E5,78, NOTE_E5,10, NOTE_REST,65, NOTE_REST,267,
 NOTE_C6,26, NOTE_C6,44, NOTE_C6,3, NOTE_C6,5, NOTE_C6,39, NOTE_C6,189, NOTE_C6,39, NOTE_C6,40,
 NOTE_REST,22, NOTE_REST,156, NOTE_A6,13, NOTE_A6,3, NOTE_A6,41, NOTE_A6,3, NOTE_A6,68, NOTE_A6,57,
 NOTE_REST,41, NOTE_F4,10, NOTE_F4,7, NOTE_F4,20, NOTE_F4,13, NOTE_F4,7, NOTE_F4,1, NOTE_REST,12,
 NOTE_REST,20, NOTE_REST,166, NOTE_G6,137, NOTE_G6,60, NOTE_REST,56, NOTE_AS5,29, NOTE_AS5,3, NOTE_AS5,31,
 NOTE_AS5,2, NOTE_AS5,5, NOTE_AS5,22, NOTE_REST,160, NOTE_F6,7, NOTE_F6,2, NOTE_F6,3, NOTE_F6,20,
 NOTE_F6,3, NOTE_F6,219, NOTE_F6,3, NOTE_F6,44, NOTE_F6,25, NOTE_F6,13, NOTE_REST,159, NOTE_E4,41,
 NOTE_REST,8, NOTE_REST,150, NOTE_A5,8, NOTE_A5,10, NOTE_A5,17, NOTE_A5,34, NOTE_A5,17, NOTE_A5,83,
 NOTE_A5,10, NOTE_A5,25, NOTE_REST,102, NOTE_E6,7, NOTE_E6,3, NOTE_E6,3, NOTE_E6,4, NOTE_E6,102,
 NOTE_E6,2, NOTE_E6,16, NOTE_REST,88, NOTE_REST,2, NOTE_REST,30, NOTE_C5,7, NOTE_C5,20, NOTE_C5,31,
 NOTE_C5,5, NOTE_C5,3, NOTE_REST,163, NOTE_F5,10, NOTE_F5,12, NOTE_F5,110, NOTE_REST,46, NOTE_REST,40,
 NOTE_REST,52, NOTE_D5,5, NOTE_D5,5, NOTE_D5,41, NOTE_D5,13, NOTE_D5,5, NOTE_REST,143, NOTE_E5,2,
 NOTE_E5,107, NOTE_REST,10, NOTE_REST,14, NOTE_REST,10, NOTE_D6,52, NOTE_D6,31, NOTE_REST,7, NOTE_REST,1,
 NOTE_F6,26, NOTE_F6,5, NOTE_REST,7, NOTE_G4,3, NOTE_G4,17, NOTE_G4,26, NOTE_G4,39, NOTE_G4,8,
 NOTE_G4,2, NOTE_G4,2, NOTE_G4,3, NOTE_REST,36, NOTE_REST,293, NOTE_E3,89, NOTE_E3,2, NOTE_E3,10,
 NOTE_E3,153, NOTE_E3,13, NOTE_REST,52, NOTE_C6,15, NOTE_C6,2, NOTE_C6,3, NOTE_C6,10, NOTE_C6,59,
 NOTE_C6,1, NOTE_C6,111, NOTE_REST,43, NOTE_REST,29, NOTE_REST,5, NOTE_C5,2, NOTE_C5,46, NOTE_C5,3,
 NOTE_REST,7, NOTE_REST,91, NOTE_AS5,64, NOTE_AS5,18, NOTE_AS5,5, NOTE_AS5,57, NOTE_AS5,8, NOTE_AS5,97,
 NOTE_REST,83, NOTE_REST,13, NOTE_E4,60, NOTE_REST,5, NOTE_REST,12, NOTE_REST,20, NOTE_A5,17, NOTE_A5,20,
 NOTE_A5,42, NOTE_REST,66, NOTE_REST,5, NOTE_D4,3, NOTE_D4,10, NOTE_D4,88, NOTE_D4,8, NOTE_D4,52,
 NOTE_D4,33, NOTE_D4,12, NOTE_D4,2, NOTE_REST,29, NOTE_FS4,3, NOTE_FS4,12, NOTE_FS4,10, NOTE_FS4,1,
 NOTE_FS4,30, NOTE_REST,1, NOTE_REST,17, NOTE_REST,22, NOTE_A5,67, NOTE_A5,8, NOTE_REST,46, NOTE_REST,22,
 NOTE_A5,10, NOTE_A5,8, NOTE_A5,26, NOTE_A5,17, NOTE_A5,1, NOTE_A5,38, NOTE_REST,2, NOTE_C5,8,
 NOTE_C5,7, NOTE_C5,39, NOTE_REST,330, NOTE_AS3,3, NOTE_AS3,2, NOTE_AS3,34, NOTE_REST,5, NOTE_REST,127,
 NOTE_REST,13, NOTE_F6,20, NOTE_F6,23, NOTE_REST,35, NOTE_AS6,3, NOTE_AS6,26, NOTE_AS6,13, NOTE_AS6,2,
 NOTE_REST,109, NOTE_AS6,2, NOTE_AS6,3, NOTE_AS6,88, NOTE_AS6,5, NOTE_AS6,140, NOTE_AS6,10, NOTE_AS6,12,
 NOTE_AS6,20, NOTE_REST,2, NOTE_REST,7, NOTE_REST,19, NOTE_REST,28, NOTE_F5,29, NOTE_REST,145, NOTE_B3,2,
 NOTE_B3,29, NOTE_REST,10, NOTE_REST,20, NOTE_D6,81, NOTE_REST,80, NOTE_F6,46, NOTE_REST,38, NOTE_B6,50,
 NOTE_REST,98, NOTE_B6,2, NOTE_B6,3, NOTE_B6,221, NOTE_B6,12, NOTE_REST,2, NOTE_REST,13, NOTE_B4,69,
 NOTE_B4,5, NOTE_B4,21, NOTE_REST,12, NOTE_REST,5, NOTE_REST,106, NOTE_C5,26, NOTE_REST,62, NOTE_C4,34,
 NOTE_C4,93, NOTE_C4,14, NOTE_REST,63, NOTE_A5,2, NOTE_A5,3, NOTE_A5,26, NOTE_A5,2, NOTE_A5,6,
 NOTE_REST,15, NOTE_REST,38, NOTE_A6,5, NOTE_A6,36, NOTE_REST,5, NOTE_REST,8, NOTE_REST,106, NOTE_G5,12,
 NOTE_G5,5, NOTE_G5,3, NOTE_G5,13, NOTE_REST,7, NOTE_REST,111, NOTE_REST,17, NOTE_REST,15, NOTE_REST,47,
 NOTE_CS4,151, NOTE_REST,116, NOTE_D7,5, NOTE_D7,3, NOTE_D7,26, NOTE_D7,10, NOTE_D7,15, NOTE_D7,10,
 NOTE_D7,15, NOTE_D7,75, NOTE_D7,13, NOTE_D7,7, NOTE_REST,1, NOTE_REST,7, NOTE_REST,2, NOTE_D6,5,
 NOTE_D6,29, NOTE_D6,5, NOTE_REST,2, NOTE_D7,36, NOTE_REST,3, NOTE_D6,17, NOTE_D6,5, NOTE_D6,13,
 NOTE_REST,12, NOTE_C5,3, NOTE_C5,10, NOTE_C5,20, NOTE_C5,15, NOTE_REST,10, NOTE_REST,8, NOTE_REST,35,
 NOTE_REST,13, NOTE_D6,26, NOTE_REST,7, NOTE_D7,29, NOTE_REST,12, NOTE_D6,26, NOTE_D6,10, NOTE_D6,3,
 NOTE_REST,15, NOTE_AS4,5, NOTE_AS4,12, NOTE_AS4,37, NOTE_REST,17, NOTE_REST,79, NOTE_REST,5, NOTE_REST,8,
 NOTE_REST,70, NOTE_A4,5, NOTE_A4,46, NOTE_REST,8, NOTE_REST,205, NOTE_F7,145, NOTE_F7,20, NOTE_F7,5,
 NOTE_F7,13, NOTE_REST,38, NOTE_REST,31, NOTE_F3,3, NOTE_F3,22, NOTE_F3,117, NOTE_F3,7, NOTE_REST,13,
 NOTE_F4,5, NOTE_F4,83, NOTE_E3,7, NOTE_E3,18, NOTE_E3,109, NOTE_E3,3, NOTE_REST,7, NOTE_D7,5,
 NOTE_D7,78, NOTE_D7,5, NOTE_D7,22, NOTE_D7,6, NOTE_REST,125, NOTE_REST,4, NOTE_D4,13, NOTE_D4,10,
 NOTE_D4,20, NOTE_D4,41, NOTE_REST,12, NOTE_E7,5, NOTE_E7,117, NOTE_REST,2, NOTE_G7,20, NOTE_G7,10,
 NOTE_G7,76, NOTE_REST,20, NOTE_AS2,5, NOTE_AS2,143, NOTE_REST,7, NOTE_AS3,3, NOTE_AS3,67, NOTE_REST,30,
 NOTE_AS6,8, NOTE_AS6,18, NOTE_AS6,113, NOTE_AS6,3, NOTE_AS6,17, NOTE_A3,83, NOTE_G2,3, NOTE_G2,7,
 NOTE_G2,130, NOTE_G2,11, NOTE_G2,2, NOTE_REST,5, NOTE_G3,70, NOTE_REST,19, NOTE_F6,10, NOTE_F6,13,
 NOTE_F6,127, NOTE_F6,18, NOTE_REST,62, NOTE_REST,5, NOTE_REST,137, NOTE_F4,20, NOTE_F4,104, NOTE_F4,10,
 NOTE_F4,3, NOTE_F4,17, NOTE_F4,8, NOTE_REST,54, NOTE_REST,1, NOTE_REST,72, NOTE_REST,262, NOTE_F6,14,
 NOTE_REST,1, NOTE_A6,18, NOTE_REST,2, NOTE_C7,2, NOTE_C7,10, NOTE_C7,15, NOTE_C7,8, NOTE_C7,10,
 NOTE_C7,6, NOTE_C7,39, NOTE_C7,4, NOTE_C7,39, NOTE_C7,7, NOTE_REST,7, NOTE_REST,14, NOTE_REST,18,
 NOTE_F6,3, NOTE_F6,57, NOTE_F6,14, NOTE_REST,56, NOTE_REST,20, NOTE_F6,58, NOTE_REST,14, NOTE_F7,35,
 NOTE_REST,14, NOTE_F6,3, NOTE_F6,55, NOTE_F6,20, NOTE_REST,60, NOTE_REST,6, NOTE_F6,70, NOTE_REST,10,
 NOTE_F7,45, NOTE_REST,10, NOTE_F6,54, NOTE_REST,35, NOTE_F7,33, NOTE_F7,54, NOTE_F7,39, NOTE_REST,14068,
 NOTE_C6,98, NOTE_REST,26, NOTE_C6,119, NOTE_REST,255, NOTE_C6,102, NOTE_REST,22, NOTE_C6,128, NOTE_REST,246,
 NOTE_C6,107, NOTE_REST,17, NOTE_C6,96, NOTE_REST,278, NOTE_C6,103, NOTE_REST,21, NOTE_C6,102, NOTE_REST,272,
 NOTE_C6,104, NOTE_REST,145, NOTE_E6,273, NOTE_REST,1476, NOTE_C6,117, NOTE_REST,7, NOTE_C6,107, NOTE_REST,267,
 NOTE_C6,107, NOTE_REST,17, NOTE_C6,107, NOTE_REST,267, NOTE_C6,112, NOTE_REST,12, NOTE_C6,102, NOTE_REST,272,
 NOTE_C6,112, NOTE_REST,12, NOTE_C6,104, NOTE_REST,270, NOTE_AS4,114, NOTE_REST,10, NOTE_CS5,112, NOTE_REST,12,
 NOTE_FS5,114, NOTE_REST,10, NOTE_AS5,91, NOTE_REST,33, NOTE_C5,116, NOTE_REST,8, NOTE_E5,118, NOTE_REST,6,
 NOTE_G5,108, NOTE_REST,16, NOTE_C6,118, NOTE_REST,6, NOTE_CS6,115, NOTE_REST,9, NOTE_CS5,91, NOTE_REST,158,
 NOTE_C5,119, NOTE_REST,5, NOTE_CS5,154,
 0, 1, -1, -1
};
// This score contains 2862 bytes.
// 222 notes had to be skipped.
