// ArduboyTones stream for file "cantinaBand.mid" created by MIDI2TONES V1.0.0 on Tue Dec 10 00:42:48 2019
// command line: C:\Users\cnorf\Downloads\midi2tones-master\midi2tones_64bit.exe -o2 -c64 cantinaBand 
//   From channel 6
const int score4[] = {
// eCANTINA.SB16
 NOTE_REST,2000, NOTE_A4,91, NOTE_REST,158, NOTE_D5,112, NOTE_REST,137, NOTE_A4,154, NOTE_REST,95, NOTE_D5,135,
 NOTE_REST,114, NOTE_A4,100, NOTE_REST,25, NOTE_D5,133, NOTE_REST,116, NOTE_A4,362, NOTE_REST,262, NOTE_A4,88,
 NOTE_REST,161, NOTE_A4,286, NOTE_REST,213, NOTE_G4,159, NOTE_REST,90, NOTE_F4,326, NOTE_REST,48, NOTE_D4,315,
 NOTE_REST,309, NOTE_A4,112, NOTE_REST,137, NOTE_D5,148, NOTE_REST,101, NOTE_A4,135, NOTE_REST,114, NOTE_D5,161,
 NOTE_REST,88, NOTE_A4,108, NOTE_REST,16, NOTE_D5,148, NOTE_REST,101, NOTE_A4,343, NOTE_REST,281, NOTE_G4,93,
 NOTE_REST,156, NOTE_G4,273, NOTE_REST,226, NOTE_G4,241, NOTE_REST,8, NOTE_C5,250, NOTE_REST,500, NOTE_G4,234,
 NOTE_REST,15, NOTE_A4,81, NOTE_REST,168, NOTE_D5,88, NOTE_REST,161, NOTE_A4,78, NOTE_REST,171, NOTE_D5,83,
 NOTE_REST,166, NOTE_A4,93, NOTE_REST,31, NOTE_D5,88, NOTE_REST,161, NOTE_A4,102, NOTE_REST,522, NOTE_C5,76,
 NOTE_REST,173, NOTE_C5,104, NOTE_REST,395, NOTE_G4,70, NOTE_REST,179, NOTE_F4,357, NOTE_REST,52, NOTE_D4,112,
 NOTE_REST,603, NOTE_CS4,98, NOTE_REST,26, NOTE_D4,114, NOTE_REST,10, NOTE_DS4,102, NOTE_REST,22, NOTE_E4,113,
 NOTE_REST,11, NOTE_F4,117, NOTE_REST,7, NOTE_FS4,93, NOTE_REST,31, NOTE_G4,104, NOTE_REST,20, NOTE_GS4,96,
 NOTE_REST,28, NOTE_A4,91, NOTE_REST,33, NOTE_AS4,98, NOTE_REST,26, NOTE_B4,78, NOTE_REST,46, NOTE_C5,62,
 NOTE_REST,937, NOTE_GS4,104, NOTE_REST,20, NOTE_A4,91, NOTE_REST,158, NOTE_F4,190, NOTE_REST,1184, NOTE_A4,76,
 NOTE_REST,423, NOTE_A4,72, NOTE_REST,427, NOTE_A4,65, NOTE_REST,434, NOTE_A4,76, NOTE_REST,423, NOTE_A4,70,
 NOTE_REST,429, NOTE_A4,62, NOTE_REST,437, NOTE_A4,67, NOTE_REST,432, NOTE_A4,67, NOTE_REST,432, NOTE_A4,65,
 NOTE_REST,434, NOTE_A4,72, NOTE_REST,427, NOTE_A4,67, NOTE_REST,432, NOTE_A4,62, NOTE_REST,437, NOTE_A4,62,
 NOTE_REST,437, NOTE_A4,70, NOTE_REST,429, NOTE_AS4,62, NOTE_REST,437, NOTE_C5,67, NOTE_REST,432, NOTE_D4,52,
 NOTE_REST,72, NOTE_D4,60, NOTE_REST,314, NOTE_D4,60, NOTE_REST,439, NOTE_D4,50, NOTE_REST,75, NOTE_D4,62,
 NOTE_REST,312, NOTE_D4,50, NOTE_REST,450, NOTE_D4,50, NOTE_REST,75, NOTE_D4,62, NOTE_REST,312, NOTE_D4,60,
 NOTE_REST,439, NOTE_D4,52, NOTE_REST,72, NOTE_D4,65, NOTE_REST,309, NOTE_D4,65, NOTE_REST,434, NOTE_F4,60,
 NOTE_REST,439, NOTE_F4,62, NOTE_REST,187, NOTE_F4,50, NOTE_REST,75, NOTE_F4,67, NOTE_REST,182, NOTE_D4,88,
 NOTE_REST,1036, NOTE_C4,268, NOTE_REST,106, NOTE_F4,114, NOTE_REST,1010, NOTE_F4,91, NOTE_REST,283, NOTE_GS4,180,
 NOTE_REST,69, NOTE_F4,109, NOTE_REST,15, NOTE_G4,159, NOTE_REST,215, NOTE_F4,81, NOTE_REST,43, NOTE_GS4,117,
 NOTE_REST,7, NOTE_F4,96, NOTE_REST,28, NOTE_G4,104, NOTE_REST,20, NOTE_F4,98, NOTE_REST,26, NOTE_GS4,104,
 NOTE_REST,20, NOTE_D4,107, NOTE_REST,17, NOTE_F4,154, NOTE_REST,220, NOTE_GS4,177, NOTE_REST,72, NOTE_F4,78,
 NOTE_REST,46, NOTE_G4,177, NOTE_REST,197, NOTE_F4,91, NOTE_REST,33, NOTE_GS4,110, NOTE_REST,14, NOTE_F4,91,
 NOTE_REST,33, NOTE_G4,114, NOTE_REST,10, NOTE_F4,91, NOTE_REST,33, NOTE_GS4,122, NOTE_REST,2, NOTE_D4,112,
 NOTE_REST,12, NOTE_F4,195, NOTE_REST,179, NOTE_GS4,182, NOTE_REST,67, NOTE_F4,109, NOTE_REST,15, NOTE_G4,216,
 NOTE_REST,158, NOTE_F4,72, NOTE_REST,52, NOTE_GS4,115, NOTE_REST,9, NOTE_F4,104, NOTE_REST,20, NOTE_G4,117,
 NOTE_REST,7, NOTE_F4,107, NOTE_REST,17, NOTE_GS4,112, NOTE_REST,12, NOTE_D4,91, NOTE_REST,33, NOTE_F4,125,
 NOTE_F4,125, NOTE_GS4,114, NOTE_REST,10, NOTE_F4,83, NOTE_REST,41, NOTE_G4,117, NOTE_REST,7, NOTE_F4,83,
 NOTE_REST,41, NOTE_GS4,117, NOTE_REST,7, NOTE_F4,93, NOTE_REST,31, NOTE_G4,109, NOTE_REST,15, NOTE_F4,70,
 NOTE_REST,54, NOTE_GS4,112, NOTE_REST,12, NOTE_F4,83, NOTE_REST,41, NOTE_G4,122, NOTE_REST,2, NOTE_F4,86,
 NOTE_REST,38, NOTE_GS4,119, NOTE_REST,5, NOTE_D4,65, NOTE_REST,59, NOTE_F4,91, NOTE_REST,283, NOTE_GS4,180,
 NOTE_REST,69, NOTE_F4,109, NOTE_REST,15, NOTE_G4,159, NOTE_REST,215, NOTE_F4,81, NOTE_REST,43, NOTE_GS4,121,
 NOTE_REST,3, NOTE_F4,96, NOTE_REST,28, NOTE_G4,103, NOTE_REST,21, NOTE_F4,98, NOTE_REST,26, NOTE_GS4,118,
 NOTE_REST,6, NOTE_D4,122, NOTE_REST,2, NOTE_F4,154, NOTE_REST,220, NOTE_GS4,177, NOTE_REST,72, NOTE_F4,78,
 NOTE_REST,46, NOTE_G4,177, NOTE_REST,197, NOTE_F4,91, NOTE_REST,33, NOTE_GS4,113, NOTE_REST,11, NOTE_F4,91,
 NOTE_REST,33, NOTE_G4,105, NOTE_REST,19, NOTE_F4,91, NOTE_REST,33, NOTE_GS4,113, NOTE_REST,11, NOTE_D4,109,
 NOTE_REST,15, NOTE_F4,195, NOTE_REST,179, NOTE_GS4,182, NOTE_REST,67, NOTE_F4,109, NOTE_REST,15, NOTE_G4,216,
 NOTE_REST,158, NOTE_F4,72, NOTE_REST,52, NOTE_GS4,115, NOTE_REST,9, NOTE_F4,104, NOTE_REST,20, NOTE_G4,117,
 NOTE_REST,7, NOTE_F4,107, NOTE_REST,17, NOTE_GS4,112, NOTE_REST,12, NOTE_D4,91, NOTE_REST,33, NOTE_F4,109,
 NOTE_REST,15, NOTE_F4,125, NOTE_GS4,117, NOTE_REST,7, NOTE_F4,83, NOTE_REST,41, NOTE_GS4,60, NOTE_REST,64,
 NOTE_GS4,86, NOTE_REST,163, NOTE_F4,70, NOTE_REST,31054, NOTE_C4,67, NOTE_REST,57, NOTE_C4,67, NOTE_REST,307,
 NOTE_C4,57, NOTE_REST,67, NOTE_C4,44, NOTE_REST,330, NOTE_C4,52, NOTE_REST,72, NOTE_C4,52, NOTE_REST,322,
 NOTE_C4,52, NOTE_REST,72, NOTE_C4,39, NOTE_REST,335, NOTE_C4,67, NOTE_REST,182, NOTE_E4,322, NOTE_REST,1302,
 NOTE_FS4,67, NOTE_REST,57, NOTE_C5,83, NOTE_REST,41, NOTE_C5,76, NOTE_REST,173, NOTE_FS4,62, NOTE_REST,62,
 NOTE_C5,78, NOTE_REST,46, NOTE_C5,86, NOTE_REST,163, NOTE_B3,125, NOTE_C5,81, NOTE_REST,43, NOTE_C5,88,
 NOTE_REST,161, NOTE_B3,107, NOTE_REST,17, NOTE_C5,67, NOTE_REST,57, NOTE_C5,93, NOTE_REST,281, NOTE_CS4,46,
 NOTE_REST,78, NOTE_CS4,76, NOTE_REST,48, NOTE_AS4,44, NOTE_REST,80, NOTE_AS4,36, NOTE_REST,88, NOTE_DS4,46,
 NOTE_REST,78, NOTE_DS4,67, NOTE_REST,57, NOTE_C5,44, NOTE_REST,80, NOTE_C5,44, NOTE_REST,80, NOTE_CS5,119,
 NOTE_REST,5, NOTE_CS4,55, NOTE_REST,319, NOTE_CS4,104, NOTE_REST,8395, NOTE_A4,91, NOTE_REST,158, NOTE_D5,112,
 NOTE_REST,137, NOTE_A4,154, NOTE_REST,95, NOTE_D5,135, NOTE_REST,114, NOTE_A4,109, NOTE_REST,15, NOTE_D5,133,
 NOTE_REST,116, NOTE_A4,362, NOTE_REST,262, NOTE_A4,88, NOTE_REST,161, NOTE_A4,286, NOTE_REST,213, NOTE_G4,159,
 NOTE_REST,90, NOTE_F4,326, NOTE_REST,48, NOTE_D4,315, NOTE_REST,309, NOTE_A4,112, NOTE_REST,137, NOTE_D5,148,
 0, 1, -1, -1
};
// This score contains 2066 bytes.
