// ArduboyTones stream for file "cantinaBand.mid" created by MIDI2TONES V1.0.0 on Tue Dec 10 00:42:06 2019
// command line: C:\Users\cnorf\Downloads\midi2tones-master\midi2tones_64bit.exe -o2 -c4 cantinaBand 
//   From channel 2
const int score1[] = {
// eCANTINA.SB16
 NOTE_REST,2000, NOTE_F5,65, NOTE_REST,15, NOTE_REST,168, NOTE_F5,88, NOTE_F5,8, NOTE_REST,153, NOTE_F5,93,
 NOTE_REST,156, NOTE_A5,88, NOTE_REST,8, NOTE_REST,153, NOTE_F5,102, NOTE_F5,13, NOTE_REST,9, NOTE_A5,4,
 NOTE_A5,96, NOTE_A5,8, NOTE_REST,140, NOTE_D5,96, NOTE_REST,36, NOTE_REST,116, NOTE_E5,86, NOTE_E5,23,
 NOTE_REST,14, NOTE_F5,102, NOTE_REST,10, NOTE_REST,137, NOTE_A5,101, NOTE_A5,2, NOTE_A5,14, NOTE_REST,7,
 NOTE_GS5,64, NOTE_GS5,43, NOTE_GS5,4, NOTE_REST,12, NOTE_A5,94, NOTE_A5,12, NOTE_A5,5, NOTE_REST,12,
 NOTE_G5,96, NOTE_G5,20, NOTE_G5,33, NOTE_REST,98, NOTE_FS5,88, NOTE_REST,11, NOTE_REST,25, NOTE_G5,114,
 NOTE_REST,3, NOTE_REST,2, NOTE_REST,5, NOTE_FS5,104, NOTE_REST,5, NOTE_REST,5, NOTE_REST,10, NOTE_F5,289,
 NOTE_REST,72, NOTE_REST,5, NOTE_REST,7, NOTE_D5,86, NOTE_REST,10, NOTE_REST,12, NOTE_REST,515, NOTE_D5,88,
 NOTE_D5,23, NOTE_REST,137, NOTE_E5,70, NOTE_REST,7, NOTE_REST,171, NOTE_D5,93, NOTE_REST,156, NOTE_E5,70,
 NOTE_REST,7, NOTE_REST,171, NOTE_F5,108, NOTE_F5,7, NOTE_REST,9, NOTE_GS4,86, NOTE_REST,5, NOTE_REST,158,
 NOTE_D5,102, NOTE_D5,5, NOTE_REST,142, NOTE_E5,83, NOTE_REST,9, NOTE_REST,32, NOTE_F5,102, NOTE_REST,28,
 NOTE_REST,119, NOTE_G5,76, NOTE_G5,2, NOTE_G5,3, NOTE_REST,168, NOTE_G5,327, NOTE_G5,14, NOTE_REST,4,
 NOTE_REST,29, NOTE_FS5,111, NOTE_FS5,5, NOTE_FS5,1, NOTE_REST,7, NOTE_G5,91, NOTE_G5,20, NOTE_REST,5,
 NOTE_REST,132, NOTE_C6,102, NOTE_REST,5, NOTE_REST,17, NOTE_AS5,206, NOTE_AS5,20, NOTE_AS5,5, NOTE_REST,17,
 NOTE_A5,218, NOTE_A5,10, NOTE_A5,3, NOTE_REST,17, NOTE_G5,171, NOTE_G5,34, NOTE_G5,33, NOTE_REST,135,
 NOTE_D5,81, NOTE_REST,2, NOTE_REST,166, NOTE_F5,88, NOTE_REST,20, NOTE_REST,140, NOTE_F5,86, NOTE_F5,7,
 NOTE_REST,156, NOTE_A5,81, NOTE_A5,5, NOTE_REST,163, NOTE_F5,107, NOTE_F5,12, NOTE_REST,5, NOTE_A5,96,
 NOTE_A5,2, NOTE_REST,151, NOTE_D5,96, NOTE_REST,15, NOTE_REST,137, NOTE_E5,116, NOTE_REST,8, NOTE_D5,88,
 NOTE_REST,15, NOTE_REST,145, NOTE_C6,67, NOTE_C6,8, NOTE_REST,7, NOTE_REST,166, NOTE_C6,247, NOTE_REST,93,
 NOTE_REST,7, NOTE_REST,26, NOTE_A5,91, NOTE_REST,3, NOTE_REST,2, NOTE_REST,28, NOTE_G5,93, NOTE_G5,3,
 NOTE_REST,67, NOTE_REST,85, NOTE_F5,333, NOTE_REST,28, NOTE_REST,10, NOTE_REST,3, NOTE_D5,130, NOTE_D5,3,
 NOTE_D5,33, NOTE_REST,471, NOTE_F4,22, NOTE_F4,244, NOTE_F4,10, NOTE_F4,128, NOTE_F4,17, NOTE_F4,35,
 NOTE_REST,9, NOTE_G4,39, NOTE_REST,2, NOTE_REST,2, NOTE_A4,22, NOTE_REST,3, NOTE_AS4,309, NOTE_AS4,6,
 NOTE_AS4,96, NOTE_AS4,2, NOTE_AS4,41, NOTE_REST,3, NOTE_REST,4, NOTE_B4,42, NOTE_REST,2, NOTE_C5,326,
 NOTE_C5,7, NOTE_C5,31, NOTE_C5,69, NOTE_C5,8, NOTE_C5,2, NOTE_C5,2, NOTE_REST,7, NOTE_REST,1,
 NOTE_FS5,291, NOTE_FS5,60, NOTE_REST,132, NOTE_DS6,72, NOTE_DS6,18, NOTE_REST,158, NOTE_D6,57, NOTE_D6,5,
 NOTE_REST,187, NOTE_GS5,88, NOTE_REST,22, NOTE_REST,8, NOTE_REST,5, NOTE_A5,67, NOTE_A5,70, NOTE_A5,12,
 NOTE_REST,98, NOTE_F5,122, NOTE_REST,22, NOTE_REST,18, NOTE_REST,1085, NOTE_D6,83, NOTE_D6,13, NOTE_REST,28,
 NOTE_A5,88, NOTE_REST,36, NOTE_A5,81, NOTE_A5,29, NOTE_REST,14, NOTE_D6,107, NOTE_D6,2, NOTE_REST,140,
 NOTE_A5,88, NOTE_REST,286, NOTE_D6,98, NOTE_D6,10, NOTE_REST,15, NOTE_A5,65, NOTE_REST,59, NOTE_A5,81,
 NOTE_A5,38, NOTE_REST,5, NOTE_D6,86, NOTE_D6,20, NOTE_REST,142, NOTE_A5,91, NOTE_REST,283, NOTE_D6,86,
 NOTE_REST,5, NOTE_REST,33, NOTE_A5,76, NOTE_REST,48, NOTE_A5,72, NOTE_REST,45, NOTE_REST,6, NOTE_D6,118,
 NOTE_D6,4, NOTE_REST,2, NOTE_CS6,88, NOTE_REST,36, NOTE_A5,18, NOTE_A5,46, NOTE_REST,59, NOTE_A5,375,
 NOTE_A5,52, NOTE_A5,10, NOTE_REST,15, NOTE_REST,46, NOTE_F5,232, NOTE_F5,26, NOTE_REST,116, NOTE_A5,78,
 NOTE_REST,296, NOTE_D6,83, NOTE_D6,3, NOTE_REST,38, NOTE_A5,81, NOTE_REST,43, NOTE_A5,78, NOTE_A5,20,
 NOTE_REST,26, NOTE_D6,91, NOTE_D6,10, NOTE_REST,147, NOTE_A5,88, NOTE_REST,286, NOTE_D6,76, NOTE_D6,22,
 NOTE_REST,26, NOTE_A5,78, NOTE_REST,46, NOTE_A5,86, NOTE_A5,7, NOTE_REST,31, NOTE_D6,91, NOTE_D6,10,
 NOTE_REST,147, NOTE_A5,78, NOTE_REST,296, NOTE_D6,91, NOTE_D6,7, NOTE_REST,26, NOTE_A5,81, NOTE_REST,43,
 NOTE_A5,78, NOTE_REST,46, NOTE_D6,86, NOTE_REST,19, NOTE_REST,18, NOTE_D6,102, NOTE_D6,17, NOTE_REST,5,
 NOTE_A5,102, NOTE_REST,22, NOTE_CS6,39, NOTE_CS6,335, NOTE_CS6,88, NOTE_CS6,68, NOTE_CS6,9, NOTE_CS6,13,
 NOTE_REST,12, NOTE_AS5,55, NOTE_REST,2, NOTE_A5,23, NOTE_REST,5, NOTE_G5,220, NOTE_G5,109, NOTE_G5,8,
 NOTE_REST,72, NOTE_REST,184, NOTE_D6,70, NOTE_D6,22, NOTE_REST,31, NOTE_A5,78, NOTE_REST,46, NOTE_A5,76,
 NOTE_A5,38, NOTE_REST,10, NOTE_D6,96, NOTE_D6,20, NOTE_REST,132, NOTE_A5,76, NOTE_REST,298, NOTE_D6,70,
 NOTE_D6,22, NOTE_REST,31, NOTE_A5,86, NOTE_REST,38, NOTE_A5,76, NOTE_A5,38, NOTE_REST,10, NOTE_D6,88,
 NOTE_D6,13, NOTE_REST,147, NOTE_A5,109, NOTE_REST,265, NOTE_D6,67, NOTE_REST,18, NOTE_REST,38, NOTE_A5,86,
 NOTE_REST,38, NOTE_A5,67, NOTE_REST,29, NOTE_REST,28, NOTE_D6,119, NOTE_D6,2, NOTE_REST,3, NOTE_CS6,107,
 NOTE_REST,15, NOTE_REST,2, NOTE_A5,88, NOTE_REST,36, NOTE_A5,375, NOTE_A5,44, NOTE_REST,38, NOTE_REST,29,
 NOTE_REST,12, NOTE_F5,145, NOTE_REST,34, NOTE_REST,194, NOTE_A5,104, NOTE_REST,145, NOTE_AS4,118, NOTE_REST,6,
 NOTE_D5,120, NOTE_REST,4, NOTE_AS5,86, NOTE_AS5,33, NOTE_REST,130, NOTE_B4,118, NOTE_REST,6, NOTE_D5,106,
 NOTE_REST,18, NOTE_B5,83, NOTE_B5,62, NOTE_REST,104, NOTE_C6,121, NOTE_C6,3, NOTE_C6,8, NOTE_REST,90,
 NOTE_REST,151, NOTE_FS5,169, NOTE_REST,5, NOTE_REST,450, NOTE_D5,119, NOTE_REST,5, NOTE_F5,117, NOTE_REST,7,
 NOTE_C6,117, NOTE_REST,5, NOTE_REST,2, NOTE_D5,93, NOTE_REST,31, NOTE_GS5,112, NOTE_REST,1, NOTE_REST,3,
 NOTE_REST,8, NOTE_A5,72, NOTE_A5,52, NOTE_A5,78, NOTE_REST,46, NOTE_F5,164, NOTE_REST,10, NOTE_REST,12,
 NOTE_REST,937, NOTE_D5,122, NOTE_REST,252, NOTE_F5,232, NOTE_REST,17, NOTE_D5,83, NOTE_REST,41, NOTE_E5,187,
 NOTE_REST,187, NOTE_D5,96, NOTE_REST,28, NOTE_F5,114, NOTE_REST,10, NOTE_D5,117, NOTE_REST,7, NOTE_E5,104,
 NOTE_REST,20, NOTE_D5,107, NOTE_REST,17, NOTE_F5,107, NOTE_REST,142, NOTE_D5,145, NOTE_REST,229, NOTE_F5,180,
 NOTE_REST,69, NOTE_D5,104, NOTE_REST,20, NOTE_E5,125, NOTE_REST,250, NOTE_D5,102, NOTE_REST,22, NOTE_F5,95,
 NOTE_REST,29, NOTE_D5,91, NOTE_REST,33, NOTE_E5,89, NOTE_REST,35, NOTE_D5,107, NOTE_REST,17, NOTE_F5,102,
 NOTE_REST,147, NOTE_D5,109, NOTE_REST,265, NOTE_F5,180, NOTE_REST,69, NOTE_D5,107, NOTE_REST,17, NOTE_E5,154,
 NOTE_REST,220, NOTE_D5,86, NOTE_REST,38, NOTE_F5,84, NOTE_REST,40, NOTE_D5,112, NOTE_REST,12, NOTE_E5,87,
 NOTE_REST,37, NOTE_D5,88, NOTE_REST,36, NOTE_F5,102, NOTE_REST,272, NOTE_D6,91, NOTE_REST,33, NOTE_F6,96,
 NOTE_REST,28, NOTE_D6,93, NOTE_REST,31, NOTE_E6,117, NOTE_REST,7, NOTE_D6,91, NOTE_REST,33, NOTE_F6,98,
 NOTE_REST,26, NOTE_D6,102, NOTE_REST,22, NOTE_E6,98, NOTE_REST,26, NOTE_D6,86, NOTE_REST,38, NOTE_F6,95,
 NOTE_REST,29, NOTE_D6,117, NOTE_REST,7, NOTE_E6,119, NOTE_REST,5, NOTE_D6,104, NOTE_REST,20, NOTE_F6,122,
 NOTE_REST,127, NOTE_D6,122, NOTE_REST,252, NOTE_F6,247, NOTE_REST,2, NOTE_D6,83, NOTE_REST,41, NOTE_E6,187,
 NOTE_REST,187, NOTE_D6,96, NOTE_REST,28, NOTE_F6,100, NOTE_REST,25, NOTE_D6,117, NOTE_REST,7, NOTE_E6,89,
 NOTE_REST,35, NOTE_D6,107, NOTE_REST,17, NOTE_F6,107, NOTE_REST,142, NOTE_D6,145, NOTE_REST,229, NOTE_F6,180,
 NOTE_REST,69, NOTE_D6,111, NOTE_REST,13, NOTE_E6,125, NOTE_REST,250, NOTE_D6,102, NOTE_REST,22, NOTE_F6,103,
 NOTE_REST,21, NOTE_D6,91, NOTE_REST,33, NOTE_E6,96, NOTE_REST,28, NOTE_D6,107, NOTE_REST,17, NOTE_F6,102,
 NOTE_REST,147, NOTE_D6,109, NOTE_REST,265, NOTE_F6,180, NOTE_REST,69, NOTE_D6,107, NOTE_REST,17, NOTE_E6,154,
 NOTE_REST,220, NOTE_D6,86, NOTE_REST,38, NOTE_F6,98, NOTE_REST,26, NOTE_D6,112, NOTE_REST,12, NOTE_E6,102,
 NOTE_REST,22, NOTE_D6,88, NOTE_REST,36, NOTE_F6,102, NOTE_REST,147, NOTE_D6,91, NOTE_REST,33, NOTE_D6,96,
 NOTE_REST,28, NOTE_F6,93, NOTE_REST,31, NOTE_D6,117, NOTE_REST,7, NOTE_F6,91, NOTE_REST,33, NOTE_F6,128,
 NOTE_REST,121, NOTE_D6,128, NOTE_REST,16996, NOTE_F5,110, NOTE_REST,8, NOTE_REST,3, NOTE_REST,3, NOTE_E5,89,
 NOTE_REST,25, NOTE_REST,4, NOTE_REST,6, NOTE_CS5,114, NOTE_CS5,2, NOTE_CS5,2, NOTE_REST,6, NOTE_D5,118,
 NOTE_REST,2, NOTE_REST,4, NOTE_CS5,116, NOTE_CS5,2, NOTE_CS5,2, NOTE_REST,4, NOTE_D5,102, NOTE_D5,8,
 NOTE_REST,6, NOTE_REST,8, NOTE_CS5,112, NOTE_CS5,2, NOTE_REST,2, NOTE_REST,8, NOTE_D5,110, NOTE_REST,2,
 NOTE_REST,9, NOTE_REST,3, NOTE_CS5,116, NOTE_REST,5, NOTE_REST,1, NOTE_REST,2, NOTE_C5,67, NOTE_C5,10,
 NOTE_C5,5, NOTE_REST,166, NOTE_CS5,110, NOTE_CS5,6, NOTE_CS5,1, NOTE_REST,7, NOTE_C5,86, NOTE_REST,2,
 NOTE_REST,5, NOTE_REST,156, NOTE_CS5,112, NOTE_CS5,5, NOTE_REST,7, NOTE_C5,72, NOTE_C5,3, NOTE_REST,22,
 NOTE_REST,151, NOTE_CS5,91, NOTE_CS5,8, NOTE_REST,8, NOTE_REST,16, NOTE_D5,110, NOTE_REST,4, NOTE_REST,5,
 NOTE_REST,5, NOTE_DS5,113, NOTE_DS5,1, NOTE_REST,6, NOTE_REST,4, NOTE_E5,114, NOTE_E5,1, NOTE_REST,4,
 NOTE_REST,5, NOTE_DS5,110, NOTE_REST,9, NOTE_REST,1, NOTE_REST,4, NOTE_D5,70, NOTE_D5,5, NOTE_REST,12,
 NOTE_REST,161, NOTE_CS5,102, NOTE_REST,16, NOTE_REST,2, NOTE_REST,4, NOTE_D5,100, NOTE_D5,8, NOTE_D5,6,
 NOTE_REST,10, NOTE_CS5,108, NOTE_CS5,4, NOTE_CS5,6, NOTE_REST,6, NOTE_D5,101, NOTE_D5,1, NOTE_D5,16,
 NOTE_REST,6, NOTE_CS5,112, NOTE_CS5,8, NOTE_REST,3, NOTE_REST,1, NOTE_D5,104, NOTE_D5,8, NOTE_REST,6,
 NOTE_REST,6, NOTE_CS5,110, NOTE_CS5,2, NOTE_REST,6, NOTE_REST,6, NOTE_D5,57, NOTE_REST,55, NOTE_REST,2,
 NOTE_REST,10, NOTE_CS5,102, NOTE_CS5,7, NOTE_CS5,1, NOTE_REST,14, NOTE_C5,70, NOTE_C5,5, NOTE_C5,26,
 NOTE_REST,147, NOTE_F5,115, NOTE_F5,2, NOTE_F5,3, NOTE_REST,4, NOTE_C5,96, NOTE_REST,12, NOTE_REST,140,
 NOTE_CS5,102, NOTE_REST,2, NOTE_REST,20, NOTE_D5,114, NOTE_REST,4, NOTE_REST,6, NOTE_DS5,112, NOTE_REST,2,
 NOTE_REST,10, NOTE_D5,108, NOTE_REST,6, NOTE_REST,2, NOTE_REST,8, NOTE_G5,310, NOTE_G5,10, NOTE_REST,43,
 NOTE_REST,10, NOTE_FS5,102, NOTE_REST,7, NOTE_REST,7, NOTE_REST,8, NOTE_G5,116, NOTE_G5,6, NOTE_REST,2,
 NOTE_FS5,87, NOTE_REST,27, NOTE_REST,3, NOTE_REST,7, NOTE_DS5,109, NOTE_DS5,1, NOTE_REST,7, NOTE_REST,7,
 NOTE_FS5,85, NOTE_REST,27, NOTE_REST,2, NOTE_REST,10, NOTE_DS5,110, NOTE_REST,7, NOTE_REST,7, NOTE_GS5,113,
 NOTE_GS5,2, NOTE_REST,3, NOTE_REST,6, NOTE_A5,96, NOTE_A5,67, NOTE_REST,28, NOTE_REST,57, NOTE_DS5,105,
 NOTE_DS5,9, NOTE_DS5,6, NOTE_REST,4, NOTE_CS5,72, NOTE_REST,47, NOTE_REST,4, NOTE_CS5,106, NOTE_CS5,4,
 NOTE_CS5,5, NOTE_REST,9, NOTE_D5,110, NOTE_REST,7, NOTE_REST,5, NOTE_REST,2, NOTE_F5,108, NOTE_F5,7,
 NOTE_REST,9, NOTE_E5,112, NOTE_REST,3, NOTE_REST,7, NOTE_REST,2, NOTE_F5,100, NOTE_REST,4, NOTE_REST,6,
 NOTE_REST,14, NOTE_D5,107, NOTE_D5,3, NOTE_D5,4, NOTE_REST,10, NOTE_CS5,100, NOTE_CS5,10, NOTE_REST,14,
 NOTE_D5,112, NOTE_D5,7, NOTE_REST,5, NOTE_CS5,113, NOTE_CS5,1, NOTE_REST,3, NOTE_REST,7, NOTE_C5,70,
 NOTE_REST,2, NOTE_REST,177, NOTE_C5,112, NOTE_C5,3, NOTE_C5,6, NOTE_REST,3, NOTE_CS5,78, NOTE_REST,10,
 NOTE_REST,8, NOTE_REST,153, NOTE_CS5,46, NOTE_REST,13, NOTE_REST,62, NOTE_REST,2, NOTE_CS5,44, NOTE_REST,70,
 NOTE_REST,1, NOTE_REST,8, NOTE_CS5,102, NOTE_REST,4, NOTE_REST,7, NOTE_REST,11, NOTE_C5,104, NOTE_REST,9,
 NOTE_REST,1, NOTE_REST,10, NOTE_CS5,293, NOTE_REST,31, NOTE_REST,38, NOTE_REST,11, NOTE_F5,112, NOTE_F5,7,
 NOTE_F5,1, NOTE_REST,4, NOTE_FS5,110, NOTE_FS5,7, NOTE_FS5,1, NOTE_REST,6, NOTE_DS5,59, NOTE_DS5,59,
 NOTE_REST,1, NOTE_REST,5, NOTE_E5,103, NOTE_E5,11, NOTE_REST,5, NOTE_REST,5, NOTE_C5,104, NOTE_C5,10,
 NOTE_REST,3, NOTE_REST,7, NOTE_G4,106, NOTE_G4,3, NOTE_REST,15, NOTE_G4,70, NOTE_G4,31, NOTE_REST,22,
 NOTE_REST,125, NOTE_G4,44, NOTE_REST,26, NOTE_REST,46, NOTE_REST,7, NOTE_G4,41, NOTE_REST,18, NOTE_REST,59,
 NOTE_REST,5, NOTE_G4,52, NOTE_REST,39, NOTE_REST,26, NOTE_REST,7, NOTE_AS4,104, NOTE_REST,5, NOTE_REST,15,
 NOTE_FS4,31, NOTE_REST,20, NOTE_REST,15, NOTE_REST,182, NOTE_AS4,100, NOTE_REST,12, NOTE_REST,10, NOTE_REST,2,
 NOTE_D5,111, NOTE_D5,4, NOTE_REST,6, NOTE_REST,3, NOTE_B4,55, NOTE_REST,2, NOTE_REST,8, NOTE_REST,184,
 NOTE_D5,106, NOTE_D5,8, NOTE_D5,2, NOTE_REST,8, NOTE_CS5,100, NOTE_REST,10, NOTE_REST,14, NOTE_C5,110,
 NOTE_C5,4, NOTE_REST,6, NOTE_REST,4, NOTE_CS5,110, NOTE_CS5,2, NOTE_CS5,7, NOTE_REST,5, NOTE_D5,114,
 NOTE_D5,4, NOTE_REST,6, NOTE_E5,108, NOTE_REST,2, NOTE_REST,5, NOTE_REST,9, NOTE_G4,57, NOTE_G4,13,
 NOTE_REST,10, NOTE_REST,168, NOTE_E5,46, NOTE_E5,3, NOTE_REST,69, NOTE_REST,5, NOTE_C5,88, NOTE_REST,8,
 NOTE_REST,13, NOTE_REST,14, NOTE_G5,117, NOTE_REST,7, NOTE_GS5,114, NOTE_REST,10, NOTE_A5,120, NOTE_REST,4,
 NOTE_FS5,67, NOTE_FS5,15, NOTE_REST,35, NOTE_REST,6, NOTE_A5,116, NOTE_REST,8, NOTE_AS5,112, NOTE_REST,12,
 NOTE_B5,86, NOTE_REST,38, NOTE_G5,65, NOTE_G5,2, NOTE_REST,39, NOTE_REST,17, NOTE_E5,55, NOTE_REST,10,
 NOTE_REST,54, NOTE_REST,255, NOTE_E5,52, NOTE_REST,10, NOTE_REST,52, NOTE_REST,10, NOTE_G5,55, NOTE_G5,10,
 NOTE_REST,52, NOTE_REST,257, NOTE_F5,62, NOTE_REST,10, NOTE_REST,36, NOTE_REST,15, NOTE_F5,70, NOTE_REST,5,
 NOTE_REST,38, NOTE_REST,260, NOTE_A5,57, NOTE_A5,5, NOTE_REST,46, NOTE_REST,15, NOTE_A5,57, NOTE_A5,5,
 NOTE_REST,50, NOTE_REST,262, NOTE_E5,70, NOTE_REST,2, NOTE_REST,46, NOTE_REST,130, NOTE_C6,307, NOTE_C6,78,
 NOTE_C6,13, NOTE_REST,101, NOTE_CS4,109, NOTE_CS4,9, NOTE_REST,6, NOTE_F4,117, NOTE_REST,5, NOTE_REST,2,
 NOTE_A4,93, NOTE_REST,22, NOTE_REST,8, NOTE_AS4,117, NOTE_REST,1, NOTE_REST,6, NOTE_B4,100, NOTE_B4,16,
 NOTE_REST,8, NOTE_C5,109, NOTE_REST,4, NOTE_REST,11, NOTE_CS5,159, NOTE_REST,28, NOTE_REST,187, NOTE_G4,72,
 NOTE_G4,18, NOTE_REST,33, NOTE_E5,72, NOTE_E5,3, NOTE_REST,48, NOTE_E5,76, NOTE_E5,15, NOTE_REST,158,
 NOTE_G4,70, NOTE_G4,10, NOTE_REST,43, NOTE_E5,67, NOTE_E5,5, NOTE_REST,52, NOTE_E5,91, NOTE_REST,22,
 NOTE_REST,135, NOTE_FS5,67, NOTE_REST,34, NOTE_REST,22, NOTE_A5,76, NOTE_REST,17, NOTE_REST,31, NOTE_F5,83,
 NOTE_F5,10, NOTE_REST,156, NOTE_B4,60, NOTE_B4,15, NOTE_REST,48, NOTE_A5,72, NOTE_REST,13, NOTE_REST,38,
 NOTE_A5,76, NOTE_REST,22, NOTE_REST,151, NOTE_D4,100, NOTE_REST,25, NOTE_CS4,110, NOTE_REST,14, NOTE_C5,115,
 NOTE_REST,4, NOTE_REST,5, NOTE_CS5,106, NOTE_CS5,2, NOTE_REST,16, NOTE_GS5,122, NOTE_REST,2, NOTE_GS4,107,
 NOTE_REST,2, NOTE_REST,15, NOTE_C5,112, NOTE_REST,5, NOTE_REST,7, NOTE_E5,101, NOTE_E5,13, NOTE_REST,10,
 NOTE_G5,60, NOTE_G5,5, NOTE_REST,59, NOTE_CS6,103, NOTE_CS6,6, NOTE_REST,15, NOTE_F4,133, NOTE_REST,26,
 NOTE_REST,90, NOTE_E4,120, NOTE_REST,4, NOTE_F4,159, NOTE_REST,12, NOTE_REST,560, NOTE_GS5,93, NOTE_REST,12,
 NOTE_AS5,73, NOTE_REST,12, NOTE_GS5,102, NOTE_REST,4, NOTE_AS5,65, NOTE_REST,7, NOTE_GS5,65, NOTE_REST,20,
 NOTE_AS5,52, NOTE_REST,2, NOTE_GS5,60, NOTE_REST,7, NOTE_AS5,58, NOTE_REST,4, NOTE_GS5,67, NOTE_REST,8,
 NOTE_AS5,58, NOTE_REST,9, NOTE_GS5,71, NOTE_REST,8, NOTE_AS5,63, NOTE_REST,7, NOTE_GS5,70, NOTE_REST,12,
 NOTE_AS5,54, NOTE_REST,10, NOTE_GS5,60, NOTE_REST,17, NOTE_AS5,61, NOTE_REST,19, NOTE_GS5,100, NOTE_REST,14,
 NOTE_F5,106, NOTE_REST,20, NOTE_D5,102, NOTE_REST,416, NOTE_GS5,60, NOTE_REST,12, NOTE_AS5,83, NOTE_REST,15,
 NOTE_GS5,91, NOTE_REST,12, NOTE_AS5,46, NOTE_REST,12, NOTE_GS5,62, NOTE_REST,15, NOTE_AS5,60, NOTE_REST,5,
 NOTE_GS5,68, NOTE_REST,9, NOTE_AS5,65, NOTE_REST,9, NOTE_GS5,58, NOTE_REST,9, NOTE_AS5,52, NOTE_REST,13,
 NOTE_GS5,58, NOTE_REST,11, NOTE_AS5,57, NOTE_REST,8, NOTE_GS5,62, NOTE_REST,15, NOTE_AS5,57, NOTE_REST,2,
 NOTE_GS5,66, NOTE_REST,14, NOTE_AS5,112, NOTE_REST,30, NOTE_GS5,86, NOTE_REST,46, NOTE_F5,91, NOTE_REST,19,
 NOTE_D5,102, NOTE_REST,380, NOTE_GS5,93, NOTE_REST,20, NOTE_AS5,50, NOTE_REST,9, NOTE_GS5,83, NOTE_REST,5,
 NOTE_AS5,70, NOTE_REST,7, NOTE_GS5,78, NOTE_REST,8, NOTE_AS5,72, NOTE_REST,2, NOTE_GS5,72, NOTE_REST,5,
 0, 1, -1, -1
};
// This score contains 5726 bytes.
// 468 notes had to be skipped.
