// ArduboyTones stream for file "cantinaBand.mid" created by MIDI2TONES V1.0.0 on Tue Dec 10 00:42:36 2019
// command line: C:\Users\cnorf\Downloads\midi2tones-master\midi2tones_64bit.exe -o2 -c32 cantinaBand 
//   From channel 5
const int score3[] = {
// eCANTINA.SB16
 NOTE_REST,2000, NOTE_A6,72, NOTE_REST,177, NOTE_D7,91, NOTE_REST,158, NOTE_A6,83, NOTE_REST,166, NOTE_D7,91,
 NOTE_REST,158, NOTE_A6,102, NOTE_REST,22, NOTE_D7,102, NOTE_REST,147, NOTE_A6,109, NOTE_REST,140, NOTE_GS6,116,
 NOTE_REST,8, NOTE_A6,102, NOTE_REST,147, NOTE_A6,117, NOTE_REST,7, NOTE_GS6,112, NOTE_REST,12, NOTE_A6,107,
 NOTE_REST,17, NOTE_G6,112, NOTE_REST,137, NOTE_FS6,117, NOTE_REST,7, NOTE_G6,112, NOTE_REST,12, NOTE_FS6,107,
 NOTE_REST,17, NOTE_F6,346, NOTE_REST,28, NOTE_D6,203, NOTE_REST,421, NOTE_A6,76, NOTE_REST,173, NOTE_D7,88,
 NOTE_REST,161, NOTE_A6,81, NOTE_REST,168, NOTE_D7,86, NOTE_REST,163, NOTE_A6,96, NOTE_REST,28, NOTE_D7,93,
 NOTE_REST,156, NOTE_A6,133, NOTE_REST,116, NOTE_GS6,115, NOTE_REST,9, NOTE_A6,107, NOTE_REST,142, NOTE_G6,81,
 NOTE_REST,168, NOTE_G6,312, NOTE_REST,13, NOTE_FS6,101, NOTE_REST,10, NOTE_G6,112, NOTE_REST,200, NOTE_C7,110,
 NOTE_REST,14, NOTE_AS6,240, NOTE_REST,9, NOTE_A6,240, NOTE_REST,9, NOTE_G6,239, NOTE_REST,135, NOTE_A6,72,
 NOTE_REST,177, NOTE_D7,86, NOTE_REST,163, NOTE_A6,76, NOTE_REST,173, NOTE_D7,81, NOTE_REST,168, NOTE_A6,101,
 NOTE_REST,23, NOTE_D7,96, NOTE_REST,153, NOTE_A6,122, NOTE_REST,127, NOTE_GS6,121, NOTE_REST,3, NOTE_A6,107,
 NOTE_REST,142, NOTE_C7,83, NOTE_REST,166, NOTE_C7,348, NOTE_REST,26, NOTE_A6,116, NOTE_REST,8, NOTE_G6,86,
 NOTE_REST,163, NOTE_F6,364, NOTE_REST,10, NOTE_D6,70, NOTE_REST,554, NOTE_D6,430, NOTE_REST,69, NOTE_F6,367,
 NOTE_REST,7, NOTE_GS6,118, NOTE_REST,6, NOTE_A6,473, NOTE_REST,26, NOTE_C7,281, NOTE_REST,218, NOTE_DS7,122,
 NOTE_REST,127, NOTE_D7,67, NOTE_REST,182, NOTE_GS6,111, NOTE_REST,13, NOTE_A6,159, NOTE_REST,90, NOTE_F6,118,
 NOTE_REST,1131, NOTE_A6,81, NOTE_REST,168, NOTE_F6,78, NOTE_REST,46, NOTE_A6,96, NOTE_REST,528, NOTE_A6,81,
 NOTE_REST,168, NOTE_F6,91, NOTE_REST,33, NOTE_A6,83, NOTE_REST,541, NOTE_A6,83, NOTE_REST,166, NOTE_F6,88,
 NOTE_REST,36, NOTE_GS6,101, NOTE_REST,23, NOTE_A6,86, NOTE_REST,163, NOTE_F6,479, NOTE_REST,20, NOTE_D6,302,
 NOTE_REST,447, NOTE_A6,81, NOTE_REST,168, NOTE_F6,76, NOTE_REST,48, NOTE_A6,91, NOTE_REST,533, NOTE_A6,86,
 NOTE_REST,163, NOTE_F6,70, NOTE_REST,54, NOTE_A6,91, NOTE_REST,533, NOTE_A6,93, NOTE_REST,156, NOTE_F6,93,
 NOTE_REST,31, NOTE_GS6,115, NOTE_REST,9, NOTE_A6,78, NOTE_REST,171, NOTE_G6,541, NOTE_REST,36, NOTE_F6,9,
 NOTE_REST,1, NOTE_E6,17, NOTE_REST,1, NOTE_D6,34, NOTE_REST,2, NOTE_C6,291, NOTE_REST,314, NOTE_A6,86,
 NOTE_REST,163, NOTE_F6,98, NOTE_REST,26, NOTE_A6,96, NOTE_REST,528, NOTE_A6,88, NOTE_REST,161, NOTE_F6,81,
 NOTE_REST,43, NOTE_A6,88, NOTE_REST,536, NOTE_A6,88, NOTE_REST,161, NOTE_F6,91, NOTE_REST,33, NOTE_GS6,117,
 NOTE_REST,7, NOTE_A6,109, NOTE_REST,140, NOTE_F6,493, NOTE_REST,6, NOTE_D6,276, NOTE_REST,348, NOTE_AS5,120,
 NOTE_REST,4, NOTE_D6,119, NOTE_REST,5, NOTE_F6,72, NOTE_REST,177, NOTE_B5,121, NOTE_REST,3, NOTE_D6,123,
 NOTE_REST,1, NOTE_F6,76, NOTE_REST,173, NOTE_GS6,119, NOTE_REST,5, NOTE_A6,125, NOTE_REST,125, NOTE_D6,234,
 NOTE_REST,390, NOTE_D5,123, NOTE_REST,1, NOTE_F5,119, NOTE_REST,5, NOTE_AS5,118, NOTE_REST,6, NOTE_D6,119,
 NOTE_REST,5, NOTE_GS5,116, NOTE_REST,8, NOTE_A5,143, NOTE_REST,106, NOTE_F5,161, NOTE_REST,963, NOTE_B5,114,
 NOTE_REST,260, NOTE_D6,213, NOTE_REST,36, NOTE_B5,88, NOTE_REST,36, NOTE_CS6,154, NOTE_REST,220, NOTE_B5,86,
 NOTE_REST,38, NOTE_D6,98, NOTE_REST,26, NOTE_B5,117, NOTE_REST,7, NOTE_CS6,102, NOTE_REST,22, NOTE_B5,93,
 NOTE_REST,31, NOTE_D6,122, NOTE_REST,2, NOTE_GS5,104, NOTE_REST,20, NOTE_B5,169, NOTE_REST,205, NOTE_D6,206,
 NOTE_REST,43, NOTE_B5,109, NOTE_REST,15, NOTE_CS6,138, NOTE_REST,236, NOTE_B5,76, NOTE_REST,48, NOTE_D6,119,
 NOTE_REST,5, NOTE_B5,96, NOTE_REST,28, NOTE_CS6,83, NOTE_REST,41, NOTE_B5,76, NOTE_REST,48, NOTE_D6,109,
 NOTE_REST,15, NOTE_GS5,72, NOTE_REST,52, NOTE_B5,117, NOTE_REST,257, NOTE_D6,208, NOTE_REST,41, NOTE_B5,88,
 NOTE_REST,36, NOTE_CS6,96, NOTE_REST,278, NOTE_B5,107, NOTE_REST,17, NOTE_D6,81, NOTE_REST,43, NOTE_B5,117,
 NOTE_REST,7, NOTE_CS6,122, NOTE_REST,2, NOTE_B5,86, NOTE_REST,38, NOTE_D6,98, NOTE_REST,26, NOTE_GS5,93,
 NOTE_REST,31, NOTE_B5,78, NOTE_REST,46, NOTE_B5,81, NOTE_REST,43, NOTE_D6,98, NOTE_REST,26, NOTE_B5,104,
 NOTE_REST,20, NOTE_CS6,96, NOTE_REST,28, NOTE_B5,96, NOTE_REST,28, NOTE_D6,117, NOTE_REST,7, NOTE_B5,102,
 NOTE_REST,22, NOTE_CS6,86, NOTE_REST,38, NOTE_B5,93, NOTE_REST,31, NOTE_D6,114, NOTE_REST,10, NOTE_B5,98,
 NOTE_REST,26, NOTE_CS6,109, NOTE_REST,15, NOTE_B5,88, NOTE_REST,36, NOTE_D6,109, NOTE_REST,15, NOTE_B5,78,
 NOTE_REST,46, NOTE_B5,114, NOTE_REST,260, NOTE_D6,223, NOTE_REST,26, NOTE_B5,98, NOTE_REST,26, NOTE_CS6,154,
 NOTE_REST,220, NOTE_B5,86, NOTE_REST,38, NOTE_D6,109, NOTE_REST,15, NOTE_B5,117, NOTE_REST,7, NOTE_CS6,112,
 NOTE_REST,12, NOTE_B5,93, NOTE_REST,31, NOTE_D6,102, NOTE_REST,22, NOTE_GS5,104, NOTE_REST,20, NOTE_B5,169,
 NOTE_REST,205, NOTE_D6,206, NOTE_REST,43, NOTE_B5,109, NOTE_REST,15, NOTE_CS6,138, NOTE_REST,236, NOTE_B5,76,
 NOTE_REST,48, NOTE_D6,119, NOTE_REST,5, NOTE_B5,107, NOTE_REST,17, NOTE_CS6,114, NOTE_REST,10, NOTE_B5,76,
 NOTE_REST,48, NOTE_D6,119, NOTE_REST,5, NOTE_GS5,72, NOTE_REST,52, NOTE_B5,117, NOTE_REST,257, NOTE_D6,208,
 NOTE_REST,41, NOTE_B5,88, NOTE_REST,36, NOTE_CS6,96, NOTE_REST,278, NOTE_B5,107, NOTE_REST,17, NOTE_D6,102,
 NOTE_REST,22, NOTE_B5,107, NOTE_REST,17, NOTE_CS6,112, NOTE_REST,12, NOTE_B5,107, NOTE_REST,17, NOTE_D6,98,
 NOTE_REST,26, NOTE_GS5,93, NOTE_REST,31, NOTE_B5,78, NOTE_REST,46, NOTE_B5,81, NOTE_REST,43, NOTE_D6,98,
 NOTE_REST,26, NOTE_B5,114, NOTE_REST,10, NOTE_D6,128, NOTE_REST,246, NOTE_B5,133, NOTE_REST,16991, NOTE_GS5,119,
 NOTE_REST,5, NOTE_G5,119, NOTE_REST,5, NOTE_GS5,114, NOTE_REST,10, NOTE_G5,121, NOTE_REST,3, NOTE_GS5,116,
 NOTE_REST,8, NOTE_G5,116, NOTE_REST,8, NOTE_GS5,116, NOTE_REST,8, NOTE_G5,122, NOTE_REST,2, NOTE_GS5,108,
 NOTE_REST,16, NOTE_CS6,67, NOTE_REST,182, NOTE_GS5,119, NOTE_REST,5, NOTE_CS6,88, NOTE_REST,161, NOTE_GS5,119,
 NOTE_REST,5, NOTE_CS6,98, NOTE_REST,151, NOTE_GS5,112, NOTE_REST,12, NOTE_AS5,119, NOTE_REST,5, NOTE_B5,112,
 NOTE_REST,12, NOTE_C6,121, NOTE_REST,3, NOTE_B5,119, NOTE_REST,5, NOTE_AS5,70, NOTE_REST,179, NOTE_GS5,117,
 NOTE_REST,7, NOTE_G5,114, NOTE_REST,10, NOTE_GS5,115, NOTE_REST,9, NOTE_G5,117, NOTE_REST,7, NOTE_GS5,115,
 NOTE_REST,9, NOTE_G5,122, NOTE_REST,2, NOTE_GS5,113, NOTE_REST,11, NOTE_G5,114, NOTE_REST,10, NOTE_GS5,111,
 NOTE_REST,13, NOTE_CS6,70, NOTE_REST,179, NOTE_GS5,123, NOTE_REST,1, NOTE_CS6,109, NOTE_REST,140, NOTE_GS5,111,
 NOTE_REST,13, NOTE_A5,123, NOTE_REST,1, NOTE_AS5,115, NOTE_REST,9, NOTE_A5,118, NOTE_REST,6, NOTE_AS5,364,
 NOTE_REST,10, NOTE_A5,106, NOTE_REST,18, NOTE_AS5,118, NOTE_REST,6, NOTE_A5,116, NOTE_REST,8, NOTE_AS5,106,
 NOTE_REST,18, NOTE_A5,93, NOTE_REST,31, NOTE_AS5,88, NOTE_REST,36, NOTE_B5,106, NOTE_REST,18, NOTE_C6,142,
 NOTE_REST,107, NOTE_FS5,114, NOTE_REST,10, NOTE_G5,119, NOTE_REST,5, NOTE_GS5,114, NOTE_REST,10, NOTE_G5,122,
 NOTE_REST,2, NOTE_GS5,116, NOTE_REST,8, NOTE_G5,122, NOTE_REST,2, NOTE_GS5,111, NOTE_REST,13, NOTE_G5,119,
 NOTE_REST,5, NOTE_GS5,106, NOTE_REST,18, NOTE_G5,117, NOTE_REST,7, NOTE_GS5,119, NOTE_REST,5, NOTE_CS6,70,
 NOTE_REST,179, NOTE_GS5,118, NOTE_REST,6, NOTE_CS6,88, NOTE_REST,161, NOTE_GS5,122, NOTE_REST,2, NOTE_A5,116,
 NOTE_REST,8, NOTE_AS5,116, NOTE_REST,8, NOTE_A5,116, NOTE_REST,8, NOTE_AS5,366, NOTE_REST,8, NOTE_A5,119,
 NOTE_REST,5, NOTE_AS5,117, NOTE_REST,7, NOTE_B5,122, NOTE_REST,2, NOTE_C6,113, NOTE_REST,11, NOTE_G5,117,
 NOTE_REST,7, NOTE_E5,112, NOTE_REST,12, NOTE_C5,70, NOTE_REST,179, NOTE_C5,117, NOTE_REST,7, NOTE_CS5,119,
 NOTE_REST,5, NOTE_C5,120, NOTE_REST,4, NOTE_CS5,103, NOTE_REST,21, NOTE_AS4,52, NOTE_REST,197, NOTE_CS5,112,
 NOTE_REST,12, NOTE_E5,118, NOTE_REST,6, NOTE_CS5,65, NOTE_REST,184, NOTE_E5,122, NOTE_REST,2, NOTE_F5,119,
 NOTE_REST,5, NOTE_E5,118, NOTE_REST,6, NOTE_F5,122, NOTE_REST,2, NOTE_FS5,117, NOTE_REST,7, NOTE_G5,103,
 NOTE_REST,21, NOTE_C5,81, NOTE_REST,168, NOTE_G5,119, NOTE_REST,5, NOTE_GS5,119, NOTE_REST,5, NOTE_G5,117,
 NOTE_REST,7, NOTE_GS5,114, NOTE_REST,10, NOTE_A5,122, NOTE_REST,2, NOTE_AS5,106, NOTE_REST,18, NOTE_A5,117,
 NOTE_REST,7, NOTE_AS5,109, NOTE_REST,15, NOTE_B5,86, NOTE_REST,38, NOTE_C6,76, NOTE_REST,48, NOTE_C6,76,
 NOTE_REST,298, NOTE_C6,67, NOTE_REST,57, NOTE_C6,57, NOTE_REST,317, NOTE_C6,67, NOTE_REST,57, NOTE_C6,70,
 NOTE_REST,304, NOTE_C6,67, NOTE_REST,57, NOTE_C6,70, NOTE_REST,304, NOTE_C6,78, NOTE_REST,171, NOTE_E6,359,
 NOTE_REST,140, NOTE_F6,111, NOTE_REST,13, NOTE_CS6,122, NOTE_REST,2, NOTE_GS5,119, NOTE_REST,5, NOTE_F5,119,
 NOTE_REST,5, NOTE_E5,112, NOTE_REST,12, NOTE_DS5,122, NOTE_REST,2, NOTE_D5,78, NOTE_REST,296, NOTE_FS5,60,
 NOTE_REST,64, NOTE_C6,76, NOTE_REST,48, NOTE_C6,83, NOTE_REST,166, NOTE_FS5,65, NOTE_REST,59, NOTE_C6,81,
 NOTE_REST,43, NOTE_C6,81, NOTE_REST,168, NOTE_B5,62, NOTE_REST,62, NOTE_C6,78, NOTE_REST,46, NOTE_C6,83,
 NOTE_REST,166, NOTE_B5,70, NOTE_REST,54, NOTE_C6,78, NOTE_REST,46, NOTE_C6,72, NOTE_REST,177, NOTE_C6,119,
 NOTE_REST,5, NOTE_AS4,120, NOTE_REST,4, NOTE_CS5,102, NOTE_REST,22, NOTE_FS5,118, NOTE_REST,6, NOTE_AS5,102,
 NOTE_REST,22, NOTE_C4,117, NOTE_C4,7, NOTE_C4,13, NOTE_REST,106, NOTE_REST,5, NOTE_F4,31, NOTE_F4,81,
 NOTE_F4,12, NOTE_F4,15, NOTE_REST,98, NOTE_REST,10, NOTE_G4,13, NOTE_G4,85, NOTE_G4,26, NOTE_G4,20,
 NOTE_REST,41, NOTE_REST,26, NOTE_REST,161, NOTE_C4,62, NOTE_REST,58, NOTE_REST,4, NOTE_C4,86, NOTE_REST,116,
 NOTE_REST,8296, NOTE_A6,72, NOTE_REST,177, NOTE_D7,91, NOTE_REST,158, NOTE_A6,83, NOTE_REST,166, NOTE_D7,91,
 NOTE_REST,158, NOTE_A6,102, NOTE_REST,22, NOTE_D7,102, NOTE_REST,147, NOTE_A6,109, NOTE_REST,140, NOTE_GS6,119,
 NOTE_REST,5, NOTE_A6,114, NOTE_REST,135, NOTE_A6,114, NOTE_REST,10, NOTE_GS6,119, NOTE_REST,5, NOTE_A6,119,
 NOTE_REST,5, NOTE_G6,125, NOTE_REST,125, NOTE_FS6,111, NOTE_REST,13, NOTE_G6,120, NOTE_REST,4, NOTE_FS6,107,
 NOTE_REST,17, NOTE_F6,346, NOTE_REST,28, NOTE_D6,203, NOTE_REST,421, NOTE_A6,76, NOTE_REST,173, NOTE_D7,88,
 NOTE_REST,161, NOTE_A6,81, NOTE_REST,168, NOTE_D7,86, NOTE_REST,163, NOTE_A6,96, NOTE_REST,28, NOTE_D7,93,
 NOTE_REST,156, NOTE_A6,133, NOTE_REST,116, NOTE_GS6,115, NOTE_REST,9, NOTE_A6,107, NOTE_REST,142, NOTE_G6,81,
 NOTE_REST,168, NOTE_G6,322, NOTE_REST,3, NOTE_FS6,98, NOTE_REST,12, NOTE_G6,112, NOTE_REST,200, NOTE_C7,116,
 NOTE_REST,8, NOTE_AS6,246, NOTE_REST,3, NOTE_A6,205, NOTE_REST,44, NOTE_G6,239, NOTE_REST,135, NOTE_A6,72,
 NOTE_REST,177, NOTE_D7,86, NOTE_REST,163, NOTE_A6,76, NOTE_REST,173, NOTE_D7,81, NOTE_REST,168, NOTE_A6,92,
 NOTE_REST,32, NOTE_D7,96, NOTE_REST,153, NOTE_A6,122, NOTE_REST,127, NOTE_GS6,125, NOTE_GS6,1, NOTE_REST,106,
 NOTE_REST,142, NOTE_C7,83, NOTE_REST,166, NOTE_C7,348, NOTE_REST,26, NOTE_A6,108, NOTE_REST,16, NOTE_G6,86,
 NOTE_REST,163, NOTE_F6,368, NOTE_REST,6, NOTE_D6,233, NOTE_REST,391, NOTE_D6,367, NOTE_REST,7, NOTE_E6,117,
 NOTE_REST,7, NOTE_F6,357, NOTE_REST,17, NOTE_GS6,118, NOTE_REST,6, NOTE_A6,373, NOTE_REST,1, NOTE_AS6,60,
 NOTE_REST,7, NOTE_B6,37, NOTE_REST,7, NOTE_C7,281, NOTE_REST,69, NOTE_C7,30, NOTE_REST,4, NOTE_CS7,56,
 NOTE_REST,6, NOTE_D7,14, NOTE_REST,1, NOTE_DS7,122, NOTE_REST,2, NOTE_E7,53, NOTE_REST,120, NOTE_D7,67,
 NOTE_REST,190, NOTE_GS6,111, NOTE_REST,5, NOTE_A6,159, NOTE_REST,101, NOTE_F6,81, NOTE_REST,267, NOTE_C6,45,
 NOTE_REST,6, NOTE_D6,69, NOTE_REST,6, NOTE_E6,70, NOTE_REST,14, NOTE_F6,52, NOTE_F6,177, NOTE_REST,39,
 0, 1, -1, -1
};
// This score contains 3330 bytes.
// 13 notes had to be skipped.
