// ArduboyTones stream for file "callMeMaybe.mid" created by MIDI2TONES V1.0.0 on Tue Dec 10 01:17:31 2019
// command line: C:\Users\cnorf\Downloads\midi2tones-master\midi2tones_64bit.exe -o2 -c4 callMeMaybe 
//   From channel 2
const int score3[] = {
 NOTE_D5,0, NOTE_REST,0, NOTE_D5,0, NOTE_REST,0, NOTE_D5,0, NOTE_REST,0, NOTE_D5,0, NOTE_REST,0,
 NOTE_D5,0, NOTE_REST,0, NOTE_D5,0, NOTE_REST,0, NOTE_D5,0, NOTE_REST,0, NOTE_D5,0, NOTE_REST,0,
 NOTE_D5,0, NOTE_REST,0, NOTE_D5,0, NOTE_REST,0, NOTE_D5,0, NOTE_REST,0, NOTE_D5,0, NOTE_REST,0,
 NOTE_D5,0, NOTE_REST,0, NOTE_D5,0, NOTE_REST,0, NOTE_D5,0, NOTE_REST,0, NOTE_D5,0, NOTE_REST,0,
 NOTE_D5,0, NOTE_REST,0, NOTE_D5,0, NOTE_REST,0, NOTE_D5,0, NOTE_REST,0, NOTE_D5,0, NOTE_REST,0,
 NOTE_D5,0, NOTE_REST,0, NOTE_D5,0, NOTE_REST,0, NOTE_D5,0, NOTE_REST,0, NOTE_D5,0, NOTE_REST,0,
 NOTE_D5,0, NOTE_REST,0, NOTE_D5,0, NOTE_REST,0, NOTE_D5,0, NOTE_REST,0, NOTE_D5,0, NOTE_REST,0,
 NOTE_D5,0, NOTE_REST,0, NOTE_D5,0, NOTE_REST,0, NOTE_D5,0, NOTE_REST,0, NOTE_D5,0, NOTE_REST,0,
 NOTE_D5,0, NOTE_REST,0, NOTE_D5,0, NOTE_REST,0, NOTE_D5,0, NOTE_REST,0, NOTE_D5,0, NOTE_REST,0,
 NOTE_D5,0, NOTE_REST,0, NOTE_D5,0, NOTE_REST,0, NOTE_D5,0, NOTE_REST,0, NOTE_D5,0, NOTE_REST,0,
 NOTE_D5,0, NOTE_REST,0, NOTE_D5,0, NOTE_REST,0, NOTE_D5,0, NOTE_REST,0, NOTE_D5,0, NOTE_REST,0,
 NOTE_G5,0, NOTE_REST,0, NOTE_G5,0, NOTE_REST,0, NOTE_E5,0, NOTE_REST,0, NOTE_D5,0, NOTE_REST,0,
 NOTE_D5,0, NOTE_REST,0, NOTE_D5,0, NOTE_REST,0, NOTE_D5,0, NOTE_REST,0, NOTE_D5,0, NOTE_REST,0,
 NOTE_D5,0, NOTE_REST,0, NOTE_D5,0, NOTE_REST,0, NOTE_D5,0, NOTE_REST,0, NOTE_D5,0, NOTE_REST,0,
 NOTE_D5,0, NOTE_REST,0, NOTE_D5,0, NOTE_REST,0, NOTE_D5,0, NOTE_REST,0, NOTE_D5,0, NOTE_REST,0,
 NOTE_D5,0, NOTE_REST,0, NOTE_D5,0, NOTE_REST,0, NOTE_D5,0, NOTE_REST,0, NOTE_D5,0, NOTE_REST,0,
 NOTE_D5,0, NOTE_REST,0, NOTE_D5,0, NOTE_REST,0, NOTE_D5,0, NOTE_REST,0, NOTE_D5,0, NOTE_REST,0,
 NOTE_D5,0, NOTE_REST,0, NOTE_D5,0, NOTE_REST,0, NOTE_D5,0, NOTE_REST,0, NOTE_D5,0, NOTE_REST,0,
 NOTE_D5,0, NOTE_REST,0, NOTE_D5,0, NOTE_REST,0, NOTE_D5,0, NOTE_REST,0, NOTE_G5,0, NOTE_REST,0,
 NOTE_G5,0, NOTE_REST,0, NOTE_E5,0, NOTE_REST,0, NOTE_D5,0, NOTE_REST,0, NOTE_D5,0, NOTE_REST,0,
 NOTE_D5,0, NOTE_REST,0, NOTE_D5,0, NOTE_REST,0, NOTE_D5,0, NOTE_REST,0, NOTE_D5,0, NOTE_REST,0,
 NOTE_D5,0, NOTE_REST,0, NOTE_D5,0, NOTE_REST,0, NOTE_D5,0, NOTE_REST,0, NOTE_D5,0, NOTE_REST,0,
 NOTE_D5,0, NOTE_REST,0, NOTE_D5,0, NOTE_REST,0, NOTE_D5,0, NOTE_REST,0, NOTE_D5,0, NOTE_REST,0,
 NOTE_D5,0, NOTE_REST,0, NOTE_D5,0, NOTE_REST,0, NOTE_D5,0, NOTE_REST,0, NOTE_D5,0, NOTE_REST,0,
 NOTE_D5,0, NOTE_REST,0, NOTE_D5,0, NOTE_REST,0, NOTE_D5,0, NOTE_REST,0, NOTE_D5,0, NOTE_REST,0,
 NOTE_D5,0, NOTE_REST,0, NOTE_D5,0, NOTE_REST,0, NOTE_D5,0, NOTE_REST,0, NOTE_D5,0, NOTE_REST,0,
 NOTE_D5,0, NOTE_REST,0, NOTE_D5,0, NOTE_REST,0, NOTE_D5,0, NOTE_REST,0, NOTE_D5,0, NOTE_REST,0,
 NOTE_E5,0, NOTE_REST,0, NOTE_G5,0, NOTE_REST,0, NOTE_D5,0, NOTE_REST,0, NOTE_D5,0, NOTE_REST,0,
 NOTE_E5,0, NOTE_REST,0, NOTE_C5,0, NOTE_REST,0, NOTE_C5,0, NOTE_REST,0, NOTE_G5,0, NOTE_REST,0,
 NOTE_D5,0, NOTE_REST,0, NOTE_D5,0, NOTE_REST,0, NOTE_E5,0, NOTE_REST,0, NOTE_G5,0, NOTE_REST,0,
 NOTE_D5,0, NOTE_REST,0, NOTE_D5,0, NOTE_REST,0, NOTE_E5,0, NOTE_REST,0, NOTE_C5,0, NOTE_REST,0,
 NOTE_C5,0, NOTE_REST,0, NOTE_G5,0, NOTE_REST,0, NOTE_D5,0, NOTE_REST,0, NOTE_D5,0, NOTE_REST,0,
 NOTE_G5,0, NOTE_REST,0, NOTE_FS5,0, NOTE_REST,0, NOTE_E5,0, NOTE_REST,0, NOTE_D5,0, NOTE_REST,0,
 NOTE_G5,0, NOTE_REST,0, NOTE_FS5,0, NOTE_REST,0, NOTE_E5,0, NOTE_REST,0, NOTE_D5,0, NOTE_REST,0,
 NOTE_G5,0, NOTE_REST,0, NOTE_D5,0, NOTE_REST,0, NOTE_D5,0, NOTE_REST,0, NOTE_G5,0, NOTE_REST,0,
 NOTE_D5,0, NOTE_REST,0, NOTE_D5,0, NOTE_REST,0, NOTE_G5,0, NOTE_REST,0, NOTE_D5,0, NOTE_REST,0,
 NOTE_D5,0, NOTE_REST,0, NOTE_G5,0, NOTE_REST,0, NOTE_D5,0, NOTE_REST,0, NOTE_D5,0, NOTE_REST,0,
 NOTE_G5,0, NOTE_REST,0, NOTE_D5,0, NOTE_REST,0, NOTE_D5,0, NOTE_REST,0, NOTE_G5,0, NOTE_REST,0,
 NOTE_D5,0, NOTE_REST,0, NOTE_D5,0, NOTE_REST,0, NOTE_G5,0, NOTE_REST,0, NOTE_D5,0, NOTE_REST,0,
 NOTE_D5,0, NOTE_REST,0, NOTE_G5,0, NOTE_REST,0, NOTE_D5,0, NOTE_REST,0, NOTE_D5,0, NOTE_REST,0,
 NOTE_G5,0, NOTE_REST,0, NOTE_D5,0, NOTE_REST,0, NOTE_D5,0, NOTE_REST,0, NOTE_G5,0, NOTE_REST,0,
 NOTE_D5,0, NOTE_REST,0, NOTE_D5,0, NOTE_REST,0, NOTE_G5,0, NOTE_REST,0, NOTE_D5,0, NOTE_REST,0,
 NOTE_D5,0, NOTE_REST,0, NOTE_G5,0, NOTE_REST,0, NOTE_D5,0, NOTE_REST,0, NOTE_D5,0, NOTE_REST,0,
 NOTE_G5,0, NOTE_REST,0, NOTE_D5,0, NOTE_REST,0, NOTE_D5,0, NOTE_REST,0, NOTE_G5,0, NOTE_REST,0,
 NOTE_D5,0, NOTE_REST,0, NOTE_D5,0, NOTE_REST,0, NOTE_G5,0, NOTE_REST,0, NOTE_D5,0, NOTE_REST,0,
 NOTE_D5,0, NOTE_REST,0, NOTE_G5,0, NOTE_REST,0, NOTE_D5,0, NOTE_REST,0, NOTE_D5,0, NOTE_REST,0,
 NOTE_G5,0, NOTE_REST,0, NOTE_D5,0, NOTE_REST,0, NOTE_D5,0, NOTE_REST,0, NOTE_G5,0, NOTE_REST,0,
 NOTE_D5,0, NOTE_REST,0, NOTE_D5,0, NOTE_REST,0, NOTE_G5,0, NOTE_REST,0, NOTE_D5,0, NOTE_REST,0,
 NOTE_D5,0, NOTE_REST,0, NOTE_G5,0, NOTE_REST,0, NOTE_D5,0, NOTE_REST,0, NOTE_D5,0, NOTE_REST,0,
 NOTE_G5,0, NOTE_REST,0, NOTE_D5,0, NOTE_REST,0, NOTE_D5,0, NOTE_REST,0, NOTE_G5,0, NOTE_REST,0,
 NOTE_D5,0, NOTE_REST,0, NOTE_D5,0, NOTE_REST,0, NOTE_G5,0, NOTE_REST,0, NOTE_D5,0, NOTE_REST,0,
 NOTE_D5,0, NOTE_REST,0, NOTE_G5,0, NOTE_REST,0, NOTE_D5,0, NOTE_REST,0, NOTE_D5,0, NOTE_REST,0,
 NOTE_G5,0, NOTE_REST,0, NOTE_D5,0, NOTE_REST,0, NOTE_D5,0, NOTE_REST,0, NOTE_G5,0, NOTE_REST,0,
 NOTE_D5,0, NOTE_REST,0, NOTE_D5,0, NOTE_REST,0, NOTE_G5,0, NOTE_REST,0, NOTE_D5,0, NOTE_REST,0,
 NOTE_D5,0, NOTE_REST,0, NOTE_G5,0, NOTE_REST,0, NOTE_D5,0, NOTE_REST,0, NOTE_D5,0, NOTE_REST,0,
 NOTE_G5,0, NOTE_REST,0, NOTE_D5,0, NOTE_REST,0, NOTE_D5,0, NOTE_REST,0, NOTE_G5,0, NOTE_REST,0,
 NOTE_D5,0, NOTE_REST,0, NOTE_D5,0, NOTE_REST,0, NOTE_G5,0, NOTE_REST,0, NOTE_D5,0, NOTE_REST,0,
 NOTE_D5,0, NOTE_REST,0, NOTE_G5,0, NOTE_REST,0, NOTE_D5,0, NOTE_REST,0, NOTE_D5,0, NOTE_REST,0,
 NOTE_D5,0, NOTE_REST,0, NOTE_D5,0, NOTE_REST,0, NOTE_D5,0, NOTE_REST,0, NOTE_D5,0, NOTE_REST,0,
 NOTE_D5,0, NOTE_REST,0, NOTE_D5,0, NOTE_REST,0, NOTE_D5,0, NOTE_REST,0, NOTE_D5,0, NOTE_REST,0,
 NOTE_D5,0, NOTE_REST,0, NOTE_D5,0, NOTE_REST,0, NOTE_D5,0, NOTE_REST,0, NOTE_D5,0, NOTE_REST,0,
 NOTE_D5,0, NOTE_REST,0, NOTE_D5,0, NOTE_REST,0, NOTE_D5,0, NOTE_REST,0, NOTE_D5,0, NOTE_REST,0,
 NOTE_D5,0, NOTE_REST,0, NOTE_D5,0, NOTE_REST,0, NOTE_D5,0, NOTE_REST,0, NOTE_D5,0, NOTE_REST,0,
 NOTE_D5,0, NOTE_REST,0, NOTE_D5,0, NOTE_REST,0, NOTE_D5,0, NOTE_REST,0, NOTE_D5,0, NOTE_REST,0,
 NOTE_D5,0, NOTE_REST,0, NOTE_D5,0, NOTE_REST,0, NOTE_D5,0, NOTE_REST,0, NOTE_D5,0, NOTE_REST,0,
 NOTE_D5,0, NOTE_REST,0, NOTE_D5,0, NOTE_REST,0, NOTE_D5,0, NOTE_REST,0, NOTE_D5,0, NOTE_REST,0,
 NOTE_D5,0, NOTE_REST,0, NOTE_D5,0, NOTE_REST,0, NOTE_D5,0, NOTE_REST,0, NOTE_D5,0, NOTE_REST,0,
 NOTE_D5,0, NOTE_REST,0, NOTE_D5,0, NOTE_REST,0, NOTE_D5,0, NOTE_REST,0, NOTE_D5,0, NOTE_REST,0,
 NOTE_D5,0, NOTE_REST,0, NOTE_D5,0, NOTE_REST,0, NOTE_D5,0, NOTE_REST,0, NOTE_D5,0, NOTE_REST,0,
 NOTE_G5,0, NOTE_REST,0, NOTE_G5,0, NOTE_REST,0, NOTE_E5,0, NOTE_REST,0, NOTE_D5,0, NOTE_REST,0,
 NOTE_D5,0, NOTE_REST,0, NOTE_D5,0, NOTE_REST,0, NOTE_D5,0, NOTE_REST,0, NOTE_D5,0, NOTE_REST,0,
 NOTE_D5,0, NOTE_REST,0, NOTE_D5,0, NOTE_REST,0, NOTE_D5,0, NOTE_REST,0, NOTE_D5,0, NOTE_REST,0,
 NOTE_D5,0, NOTE_REST,0, NOTE_D5,0, NOTE_REST,0, NOTE_D5,0, NOTE_REST,0, NOTE_D5,0, NOTE_REST,0,
 NOTE_D5,0, NOTE_REST,0, NOTE_D5,0, NOTE_REST,0, NOTE_D5,0, NOTE_REST,0, NOTE_D5,0, NOTE_REST,0,
 NOTE_D5,0, NOTE_REST,0, NOTE_D5,0, NOTE_REST,0, NOTE_D5,0, NOTE_REST,0, NOTE_D5,0, NOTE_REST,0,
 NOTE_D5,0, NOTE_REST,0, NOTE_D5,0, NOTE_REST,0, NOTE_D5,0, NOTE_REST,0, NOTE_D5,0, NOTE_REST,0,
 NOTE_D5,0, NOTE_REST,0, NOTE_D5,0, NOTE_REST,0, NOTE_D5,0, NOTE_REST,0, NOTE_G5,0, NOTE_REST,0,
 NOTE_G5,0, NOTE_REST,0, NOTE_E5,0, NOTE_REST,0, NOTE_D5,0, NOTE_REST,0, NOTE_D5,0, NOTE_REST,0,
 NOTE_D5,0, NOTE_REST,0, NOTE_D5,0, NOTE_REST,0, NOTE_D5,0, NOTE_REST,0, NOTE_D5,0, NOTE_REST,0,
 NOTE_D5,0, NOTE_REST,0, NOTE_D5,0, NOTE_REST,0, NOTE_D5,0, NOTE_REST,0, NOTE_D5,0, NOTE_REST,0,
 NOTE_D5,0, NOTE_REST,0, NOTE_D5,0, NOTE_REST,0, NOTE_D5,0, NOTE_REST,0, NOTE_D5,0, NOTE_REST,0,
 NOTE_D5,0, NOTE_REST,0, NOTE_D5,0, NOTE_REST,0, NOTE_D5,0, NOTE_REST,0, NOTE_D5,0, NOTE_REST,0,
 NOTE_D5,0, NOTE_REST,0, NOTE_D5,0, NOTE_REST,0, NOTE_D5,0, NOTE_REST,0, NOTE_D5,0, NOTE_REST,0,
 NOTE_D5,0, NOTE_REST,0, NOTE_D5,0, NOTE_REST,0, NOTE_D5,0, NOTE_REST,0, NOTE_D5,0, NOTE_REST,0,
 NOTE_D5,0, NOTE_REST,0, NOTE_D5,0, NOTE_REST,0, NOTE_D5,0, NOTE_REST,0, NOTE_D5,0, NOTE_REST,0,
 NOTE_E5,0, NOTE_REST,0, NOTE_G5,0, NOTE_REST,0, NOTE_D5,0, NOTE_REST,0, NOTE_D5,0, NOTE_REST,0,
 NOTE_E5,0, NOTE_REST,0, NOTE_C5,0, NOTE_REST,0, NOTE_C5,0, NOTE_REST,0, NOTE_G5,0, NOTE_REST,0,
 NOTE_D5,0, NOTE_REST,0, NOTE_D5,0, NOTE_REST,0, NOTE_E5,0, NOTE_REST,0, NOTE_G5,0, NOTE_REST,0,
 NOTE_D5,0, NOTE_REST,0, NOTE_D5,0, NOTE_REST,0, NOTE_E5,0, NOTE_REST,0, NOTE_C5,0, NOTE_REST,0,
 NOTE_C5,0, NOTE_REST,0, NOTE_G5,0, NOTE_REST,0, NOTE_D5,0, NOTE_REST,0, NOTE_D5,0, NOTE_REST,0,
 NOTE_G5,0, NOTE_REST,0, NOTE_FS5,0, NOTE_REST,0, NOTE_E5,0, NOTE_REST,0, NOTE_D5,0, NOTE_REST,0,
 NOTE_G5,0, NOTE_REST,0, NOTE_FS5,0, NOTE_REST,0, NOTE_E5,0, NOTE_REST,0, NOTE_D5,0, NOTE_REST,0,
 NOTE_G5,0, NOTE_REST,0, NOTE_D5,0, NOTE_REST,0, NOTE_D5,0, NOTE_REST,0, NOTE_G5,0, NOTE_REST,0,
 NOTE_D5,0, NOTE_REST,0, NOTE_D5,0, NOTE_REST,0, NOTE_G5,0, NOTE_REST,0, NOTE_D5,0, NOTE_REST,0,
 NOTE_D5,0, NOTE_REST,0, NOTE_G5,0, NOTE_REST,0, NOTE_D5,0, NOTE_REST,0, NOTE_D5,0, NOTE_REST,0,
 NOTE_G5,0, NOTE_REST,0, NOTE_D5,0, NOTE_REST,0, NOTE_D5,0, NOTE_REST,0, NOTE_G5,0, NOTE_REST,0,
 NOTE_D5,0, NOTE_REST,0, NOTE_D5,0, NOTE_REST,0, NOTE_G5,0, NOTE_REST,0, NOTE_D5,0, NOTE_REST,0,
 NOTE_D5,0, NOTE_REST,0, NOTE_G5,0, NOTE_REST,0, NOTE_D5,0, NOTE_REST,0, NOTE_D5,0, NOTE_REST,0,
 NOTE_G5,0, NOTE_REST,0, NOTE_D5,0, NOTE_REST,0, NOTE_D5,0, NOTE_REST,0, NOTE_G5,0, NOTE_REST,0,
 NOTE_D5,0, NOTE_REST,0, NOTE_D5,0, NOTE_REST,0, NOTE_G5,0, NOTE_REST,0, NOTE_D5,0, NOTE_REST,0,
 NOTE_D5,0, NOTE_REST,0, NOTE_G5,0, NOTE_REST,0, NOTE_D5,0, NOTE_REST,0, NOTE_D5,0, NOTE_REST,0,
 NOTE_G5,0, NOTE_REST,0, NOTE_D5,0, NOTE_REST,0, NOTE_D5,0, NOTE_REST,0, NOTE_G5,0, NOTE_REST,0,
 NOTE_D5,0, NOTE_REST,0, NOTE_D5,0, NOTE_REST,0, NOTE_G5,0, NOTE_REST,0, NOTE_D5,0, NOTE_REST,0,
 NOTE_D5,0, NOTE_REST,0, NOTE_G5,0, NOTE_REST,0, NOTE_D5,0, NOTE_REST,0, NOTE_D5,0, NOTE_REST,0,
 NOTE_G5,0, NOTE_REST,0, NOTE_D5,0, NOTE_REST,0, NOTE_D5,0, NOTE_REST,0, NOTE_G5,0, NOTE_REST,0,
 NOTE_D5,0, NOTE_REST,0, NOTE_D5,0, NOTE_REST,0, NOTE_G5,0, NOTE_REST,0, NOTE_D5,0, NOTE_REST,0,
 NOTE_D5,0, NOTE_REST,0, NOTE_G5,0, NOTE_REST,0, NOTE_D5,0, NOTE_REST,0, NOTE_D5,0, NOTE_REST,0,
 NOTE_G5,0, NOTE_REST,0, NOTE_D5,0, NOTE_REST,0, NOTE_D5,0, NOTE_REST,0, NOTE_G5,0, NOTE_REST,0,
 NOTE_D5,0, NOTE_REST,0, NOTE_D5,0, NOTE_REST,0, NOTE_G5,0, NOTE_REST,0, NOTE_D5,0, NOTE_REST,0,
 NOTE_D5,0, NOTE_REST,0, NOTE_G5,0, NOTE_REST,0, NOTE_D5,0, NOTE_REST,0, NOTE_D5,0, NOTE_REST,0,
 NOTE_G5,0, NOTE_REST,0, NOTE_D5,0, NOTE_REST,0, NOTE_D5,0, NOTE_REST,0, NOTE_G5,0, NOTE_REST,0,
 NOTE_D5,0, NOTE_REST,0, NOTE_D5,0, NOTE_REST,0, NOTE_G5,0, NOTE_REST,0, NOTE_D5,0, NOTE_REST,0,
 NOTE_D5,0, NOTE_REST,0, NOTE_G5,0, NOTE_REST,0, NOTE_D5,0, NOTE_REST,0, NOTE_D5,0, NOTE_REST,0,
 NOTE_G5,0, NOTE_REST,0, NOTE_D5,0, NOTE_REST,0, NOTE_D5,0, NOTE_REST,0, NOTE_G5,0, NOTE_REST,0,
 NOTE_D5,0, NOTE_REST,0, NOTE_D5,0, NOTE_REST,0, NOTE_G5,0, NOTE_REST,0, NOTE_D5,0, NOTE_REST,0,
 NOTE_D5,0, NOTE_REST,0, NOTE_G5,0, NOTE_REST,0, NOTE_D5,0, NOTE_REST,0, NOTE_D5,0, NOTE_REST,0,
 NOTE_G5,0, NOTE_REST,0, NOTE_D5,0, NOTE_REST,0, NOTE_D5,0, NOTE_REST,0, NOTE_G5,0, NOTE_REST,0,
 NOTE_D5,0, NOTE_REST,0, NOTE_D5,0, NOTE_REST,0, NOTE_G5,0, NOTE_REST,0, NOTE_D5,0, NOTE_REST,0,
 NOTE_D5,0, NOTE_REST,0, NOTE_G5,0, NOTE_REST,0, NOTE_D5,0, NOTE_REST,0, NOTE_D5,0, NOTE_REST,0,
 NOTE_G5,0, NOTE_REST,0, NOTE_D5,0, NOTE_REST,0, NOTE_D5,0, NOTE_REST,0, NOTE_G5,0, NOTE_REST,0,
 NOTE_D5,0, NOTE_REST,0, NOTE_D5,0, NOTE_REST,0, NOTE_G5,0, NOTE_REST,0, NOTE_D5,0, NOTE_REST,0,
 NOTE_D5,0, NOTE_REST,0, NOTE_G5,0, NOTE_REST,0, NOTE_D5,0, NOTE_REST,0, NOTE_D5,0, NOTE_REST,0,
 NOTE_G5,0, NOTE_REST,0, NOTE_D5,0, NOTE_REST,0, NOTE_D5,0, NOTE_REST,0, NOTE_G5,0, NOTE_REST,0,
 NOTE_D5,0, NOTE_REST,0, NOTE_D5,0, NOTE_REST,0, NOTE_G5,0, NOTE_REST,0, NOTE_D5,0, NOTE_REST,0,
 NOTE_D5,0, NOTE_REST,0, NOTE_G5,0, NOTE_REST,0, NOTE_D5,0, NOTE_REST,0, NOTE_D5,0, NOTE_REST,0,
 NOTE_G5,0, NOTE_REST,0, NOTE_D5,0, NOTE_REST,0, NOTE_D5,0, NOTE_REST,0, NOTE_G5,0, NOTE_REST,0,
 NOTE_D5,0, NOTE_REST,0, NOTE_D5,0, NOTE_REST,0, NOTE_G5,0, NOTE_REST,0, NOTE_D5,0, NOTE_REST,0,
 NOTE_D5,0, NOTE_REST,0, NOTE_G5,0, NOTE_REST,0, NOTE_D5,0, NOTE_REST,0, NOTE_D5,0, NOTE_REST,0,
 NOTE_G5,0, NOTE_REST,0, NOTE_D5,0, NOTE_REST,0, NOTE_D5,0, NOTE_REST,0, NOTE_G5,0, NOTE_REST,0,
 NOTE_D5,0, NOTE_REST,0, NOTE_D5,0, NOTE_REST,0, NOTE_G5,0, NOTE_REST,0, NOTE_D5,0, NOTE_REST,0,
 NOTE_D5,0, NOTE_REST,0, NOTE_G5,0, NOTE_REST,0, NOTE_D5,0, NOTE_REST,0, NOTE_D5,0, NOTE_REST,0,
 NOTE_G5,0, NOTE_REST,0, NOTE_D5,0, NOTE_REST,0, NOTE_D5,0, NOTE_REST,0, NOTE_G5,0, NOTE_REST,0,
 NOTE_D5,0, NOTE_REST,0, NOTE_D5,0, NOTE_REST,0, NOTE_G5,0, NOTE_REST,0, NOTE_D5,0, NOTE_REST,0,
 NOTE_D5,0, NOTE_REST,0, NOTE_G5,0, NOTE_REST,0, NOTE_D5,0, NOTE_REST,0, NOTE_D5,0, NOTE_REST,0,
 NOTE_G5,0, NOTE_REST,0, NOTE_D5,0, NOTE_REST,0, NOTE_D5,0, NOTE_REST,0, NOTE_G5,0, NOTE_REST,0,
 NOTE_D5,0, NOTE_REST,0, NOTE_D5,0, NOTE_REST,0, NOTE_G5,0, NOTE_REST,0, NOTE_D5,0, NOTE_REST,0,
 NOTE_D5,0, NOTE_REST,0, NOTE_G5,0, NOTE_REST,0, NOTE_D5,0, NOTE_REST,0, NOTE_D5,0, NOTE_REST,0,
 NOTE_G5,0, NOTE_REST,0, NOTE_D5,0, NOTE_REST,0, NOTE_D5,0, NOTE_REST,0, NOTE_G5,0, NOTE_REST,0,
 NOTE_D5,0, NOTE_REST,0, NOTE_D5,0, NOTE_REST,0, NOTE_G5,0, NOTE_REST,0, NOTE_D5,0, NOTE_REST,0,
 NOTE_D5,0, NOTE_REST,0, NOTE_G5,0, NOTE_REST,0, NOTE_D5,0, NOTE_REST,0, NOTE_D5,0, NOTE_REST,0,
 NOTE_E5,0, NOTE_REST,0, NOTE_G5,0, NOTE_REST,0, NOTE_D5,0, NOTE_REST,0, NOTE_D5,0, NOTE_REST,0,
 NOTE_E5,0, NOTE_REST,0, NOTE_C5,0, NOTE_REST,0, NOTE_C5,0, NOTE_REST,0, NOTE_G5,0, NOTE_REST,0,
 NOTE_D5,0, NOTE_REST,0, NOTE_D5,0, NOTE_REST,0, NOTE_E5,0, NOTE_REST,0, NOTE_G5,0, NOTE_REST,0,
 NOTE_D5,0, NOTE_REST,0, NOTE_D5,0, NOTE_REST,0, NOTE_E5,0, NOTE_REST,0, NOTE_C5,0, NOTE_REST,0,
 NOTE_C5,0, NOTE_REST,0, NOTE_G5,0, NOTE_REST,0, NOTE_D5,0, NOTE_REST,0, NOTE_D5,0, NOTE_REST,0,
 NOTE_E5,0, NOTE_REST,0, NOTE_G5,0, NOTE_REST,0, NOTE_D5,0, NOTE_REST,0, NOTE_D5,0, NOTE_REST,0,
 NOTE_E5,0, NOTE_REST,0, NOTE_C5,0, NOTE_REST,0, NOTE_C5,0, NOTE_REST,0, NOTE_G5,0, NOTE_REST,0,
 NOTE_D5,0, NOTE_REST,0, NOTE_D5,0, NOTE_REST,0, NOTE_E5,0, NOTE_REST,0, NOTE_G5,0, NOTE_REST,0,
 NOTE_D5,0, NOTE_REST,0, NOTE_D5,0, NOTE_REST,0, NOTE_E5,0, NOTE_REST,0, NOTE_C5,0, NOTE_REST,0,
 NOTE_C5,0, NOTE_REST,0, NOTE_G5,0, NOTE_REST,0, NOTE_D5,0, NOTE_REST,0, NOTE_D5,0, NOTE_REST,0,
 NOTE_G5,0, NOTE_REST,0, NOTE_FS5,0, NOTE_REST,0, NOTE_E5,0, NOTE_REST,0, NOTE_D5,0, NOTE_REST,0,
 NOTE_G5,0, NOTE_REST,0, NOTE_FS5,0, NOTE_REST,0, NOTE_E5,0, NOTE_REST,0, NOTE_D5,0, NOTE_REST,0,
 NOTE_G5,0, NOTE_REST,0, NOTE_D5,0, NOTE_REST,0, NOTE_D5,0, NOTE_REST,0, NOTE_G5,0, NOTE_REST,0,
 NOTE_D5,0, NOTE_REST,0, NOTE_D5,0, NOTE_REST,0, NOTE_G5,0, NOTE_REST,0, NOTE_D5,0, NOTE_REST,0,
 NOTE_D5,0, NOTE_REST,0, NOTE_G5,0, NOTE_REST,0, NOTE_D5,0, NOTE_REST,0, NOTE_D5,0, NOTE_REST,0,
 NOTE_G5,0, NOTE_REST,0, NOTE_D5,0, NOTE_REST,0, NOTE_D5,0, NOTE_REST,0, NOTE_G5,0, NOTE_REST,0,
 NOTE_D5,0, NOTE_REST,0, NOTE_D5,0, NOTE_REST,0, NOTE_G5,0, NOTE_REST,0, NOTE_D5,0, NOTE_REST,0,
 NOTE_D5,0, NOTE_REST,0, NOTE_G5,0, NOTE_REST,0, NOTE_D5,0, NOTE_REST,0, NOTE_D5,0, NOTE_REST,0,
 NOTE_G5,0, NOTE_REST,0, NOTE_D5,0, NOTE_REST,0, NOTE_D5,0, NOTE_REST,0, NOTE_G5,0, NOTE_REST,0,
 NOTE_D5,0, NOTE_REST,0, NOTE_D5,0, NOTE_REST,0, NOTE_G5,0, NOTE_REST,0, NOTE_D5,0, NOTE_REST,0,
 NOTE_D5,0, NOTE_REST,0, NOTE_G5,0, NOTE_REST,0, NOTE_D5,0, NOTE_REST,0, NOTE_D5,0, NOTE_REST,0,
 NOTE_G5,0, NOTE_REST,0, NOTE_D5,0, NOTE_REST,0, NOTE_D5,0, NOTE_REST,0, NOTE_G5,0, NOTE_REST,0,
 NOTE_D5,0, NOTE_REST,0, NOTE_D5,0, NOTE_REST,0, NOTE_G5,0, NOTE_REST,0, NOTE_D5,0, NOTE_REST,0,
 NOTE_D5,0, NOTE_REST,0, NOTE_G5,0, NOTE_REST,0, NOTE_D5,0, NOTE_REST,0, NOTE_D5,0, NOTE_REST,0,
 NOTE_G5,0, NOTE_REST,0, NOTE_D5,0, NOTE_REST,0, NOTE_D5,0, NOTE_REST,0, NOTE_G5,0, NOTE_REST,0,
 NOTE_D5,0, NOTE_REST,0, NOTE_D5,0, NOTE_REST,0, NOTE_G5,0, NOTE_REST,0, NOTE_D5,0, NOTE_REST,0,
 NOTE_D5,0, NOTE_REST,0, NOTE_G5,0, NOTE_REST,0, NOTE_D5,0, NOTE_REST,0, NOTE_D5,0, NOTE_REST,0,
 NOTE_G5,0, NOTE_REST,0, NOTE_D5,0, NOTE_REST,0, NOTE_D5,0, NOTE_REST,0, NOTE_G5,0, NOTE_REST,0,
 NOTE_D5,0, NOTE_REST,0, NOTE_D5,0, NOTE_REST,0, NOTE_G5,0, NOTE_REST,0, NOTE_D5,0, NOTE_REST,0,
 NOTE_D5,0, NOTE_REST,0, NOTE_G5,0, NOTE_REST,0, NOTE_D5,0, NOTE_REST,0, NOTE_D5,0, NOTE_REST,0,
 NOTE_G5,0, NOTE_REST,0, NOTE_D5,0, NOTE_REST,0, NOTE_D5,0, NOTE_REST,0, NOTE_G5,0, NOTE_REST,0,
 NOTE_D5,0, NOTE_REST,0, NOTE_D5,0, NOTE_REST,0, NOTE_G5,0, NOTE_REST,0, NOTE_D5,0, NOTE_REST,0,
 NOTE_D5,0, NOTE_REST,0, NOTE_G5,0, NOTE_REST,0, NOTE_D5,0, NOTE_REST,0, NOTE_D5,0, NOTE_REST,0,
 NOTE_G5,0, NOTE_REST,0, NOTE_D5,0, NOTE_REST,0, NOTE_D5,0, NOTE_REST,0, NOTE_G5,0, NOTE_REST,0,
 NOTE_D5,0, NOTE_REST,0, NOTE_D5,0, NOTE_REST,0, NOTE_G5,0, NOTE_REST,0, NOTE_D5,0, NOTE_REST,0,
 NOTE_D5,0, NOTE_REST,0, NOTE_G5,0, NOTE_REST,0, NOTE_D5,0, NOTE_REST,0, NOTE_D5,0,
 0, 1, -1, -1
};
// This score contains 5630 bytes.
