// ArduboyTones stream for file "callMeMaybe.mid" created by MIDI2TONES V1.0.0 on Tue Dec 10 01:17:19 2019
// command line: C:\Users\cnorf\Downloads\midi2tones-master\midi2tones_64bit.exe -o2 -c2 callMeMaybe 
//   From channel 1
const int score2[] = {
 NOTE_D6,0, NOTE_REST,0, NOTE_D6,0, NOTE_REST,0, NOTE_D6,0, NOTE_REST,0, NOTE_D6,0, NOTE_REST,0,
 NOTE_D6,0, NOTE_REST,0, NOTE_D6,0, NOTE_REST,0, NOTE_D6,0, NOTE_REST,0, NOTE_D6,0, NOTE_REST,0,
 NOTE_D6,0, NOTE_REST,0, NOTE_D6,0, NOTE_REST,0, NOTE_D6,0, NOTE_REST,0, NOTE_D6,0, NOTE_REST,0,
 NOTE_D6,0, NOTE_REST,0, NOTE_D6,0, NOTE_REST,0, NOTE_D6,0, NOTE_REST,0, NOTE_D6,0, NOTE_REST,0,
 NOTE_B5,0, NOTE_REST,0, NOTE_E6,0, NOTE_REST,0, NOTE_D6,0, NOTE_REST,0, NOTE_E6,0, NOTE_REST,0,
 NOTE_B5,0, NOTE_REST,0, NOTE_E6,0, NOTE_REST,0, NOTE_D6,0, NOTE_REST,0, NOTE_G6,0, NOTE_REST,0,
 NOTE_D6,0, NOTE_REST,0, NOTE_E6,0, NOTE_REST,0, NOTE_D6,0, NOTE_REST,0, NOTE_E6,0, NOTE_REST,0,
 NOTE_B5,0, NOTE_REST,0, NOTE_E6,0, NOTE_REST,0, NOTE_D6,0, NOTE_REST,0, NOTE_E6,0, NOTE_REST,0,
 NOTE_D6,0, NOTE_REST,0, NOTE_G6,0, NOTE_REST,0, NOTE_D6,0, NOTE_REST,0, NOTE_E6,0, NOTE_REST,0,
 NOTE_D6,0, NOTE_REST,0, NOTE_E6,0, NOTE_REST,0, NOTE_B5,0, NOTE_REST,0, NOTE_E6,0, NOTE_REST,0,
 NOTE_D6,0, NOTE_REST,0, NOTE_G6,0, NOTE_REST,0, NOTE_G6,0, NOTE_REST,0, NOTE_G6,0, NOTE_REST,0,
 NOTE_G6,0, NOTE_REST,0, NOTE_G6,0, NOTE_REST,0, NOTE_G6,0, NOTE_REST,0, NOTE_G6,0, NOTE_REST,0,
 NOTE_G6,0, NOTE_REST,0, NOTE_FS6,0, NOTE_REST,0, NOTE_FS6,0, NOTE_REST,0, NOTE_G6,0, NOTE_REST,0,
 NOTE_E6,0, NOTE_REST,0, NOTE_E6,0, NOTE_REST,0, NOTE_G6,0, NOTE_REST,0, NOTE_FS6,0, NOTE_REST,0,
 NOTE_FS6,0, NOTE_REST,0, NOTE_G6,0, NOTE_REST,0, NOTE_G6,0, NOTE_REST,0, NOTE_FS6,0, NOTE_REST,0,
 NOTE_FS6,0, NOTE_REST,0, NOTE_G6,0, NOTE_REST,0, NOTE_E6,0, NOTE_REST,0, NOTE_E6,0, NOTE_REST,0,
 NOTE_G6,0, NOTE_REST,0, NOTE_FS6,0, NOTE_REST,0, NOTE_FS6,0, NOTE_REST,0, NOTE_G6,0, NOTE_REST,0,
 NOTE_FS6,0, NOTE_REST,0, NOTE_E6,0, NOTE_REST,0, NOTE_D6,0, NOTE_REST,0, NOTE_G6,0, NOTE_REST,0,
 NOTE_FS6,0, NOTE_REST,0, NOTE_E6,0, NOTE_REST,0, NOTE_D6,0, NOTE_REST,0, NOTE_G6,0, NOTE_REST,0,
 NOTE_G6,0, NOTE_REST,0, NOTE_FS6,0, NOTE_REST,0, NOTE_FS6,0, NOTE_REST,0, NOTE_G6,0, NOTE_REST,0,
 NOTE_E6,0, NOTE_REST,0, NOTE_E6,0, NOTE_REST,0, NOTE_G6,0, NOTE_REST,0, NOTE_FS6,0, NOTE_REST,0,
 NOTE_FS6,0, NOTE_REST,0, NOTE_G6,0, NOTE_REST,0, NOTE_G6,0, NOTE_REST,0, NOTE_FS6,0, NOTE_REST,0,
 NOTE_FS6,0, NOTE_REST,0, NOTE_G6,0, NOTE_REST,0, NOTE_E6,0, NOTE_REST,0, NOTE_E6,0, NOTE_REST,0,
 NOTE_G6,0, NOTE_REST,0, NOTE_FS6,0, NOTE_REST,0, NOTE_FS6,0, NOTE_REST,0, NOTE_G6,0, NOTE_REST,0,
 NOTE_FS6,0, NOTE_REST,0, NOTE_E6,0, NOTE_REST,0, NOTE_D6,0, NOTE_REST,0, NOTE_G6,0, NOTE_REST,0,
 NOTE_FS6,0, NOTE_REST,0, NOTE_E6,0, NOTE_REST,0, NOTE_D6,0, NOTE_REST,0, NOTE_D6,0, NOTE_REST,0,
 NOTE_D6,0, NOTE_REST,0, NOTE_D6,0, NOTE_REST,0, NOTE_D6,0, NOTE_REST,0, NOTE_D6,0, NOTE_REST,0,
 NOTE_D6,0, NOTE_REST,0, NOTE_D6,0, NOTE_REST,0, NOTE_D6,0, NOTE_REST,0, NOTE_D6,0, NOTE_REST,0,
 NOTE_D6,0, NOTE_REST,0, NOTE_D6,0, NOTE_REST,0, NOTE_D6,0, NOTE_REST,0, NOTE_D6,0, NOTE_REST,0,
 NOTE_D6,0, NOTE_REST,0, NOTE_D6,0, NOTE_REST,0, NOTE_D6,0, NOTE_REST,0, NOTE_B5,0, NOTE_REST,0,
 NOTE_E6,0, NOTE_REST,0, NOTE_D6,0, NOTE_REST,0, NOTE_E6,0, NOTE_REST,0, NOTE_B5,0, NOTE_REST,0,
 NOTE_E6,0, NOTE_REST,0, NOTE_D6,0, NOTE_REST,0, NOTE_G6,0, NOTE_REST,0, NOTE_D6,0, NOTE_REST,0,
 NOTE_E6,0, NOTE_REST,0, NOTE_D6,0, NOTE_REST,0, NOTE_E6,0, NOTE_REST,0, NOTE_B5,0, NOTE_REST,0,
 NOTE_E6,0, NOTE_REST,0, NOTE_D6,0, NOTE_REST,0, NOTE_E6,0, NOTE_REST,0, NOTE_D6,0, NOTE_REST,0,
 NOTE_G6,0, NOTE_REST,0, NOTE_D6,0, NOTE_REST,0, NOTE_E6,0, NOTE_REST,0, NOTE_D6,0, NOTE_REST,0,
 NOTE_E6,0, NOTE_REST,0, NOTE_B5,0, NOTE_REST,0, NOTE_E6,0, NOTE_REST,0, NOTE_D6,0, NOTE_REST,0,
 NOTE_G6,0, NOTE_REST,0, NOTE_G6,0, NOTE_REST,0, NOTE_G6,0, NOTE_REST,0, NOTE_G6,0, NOTE_REST,0,
 NOTE_G6,0, NOTE_REST,0, NOTE_G6,0, NOTE_REST,0, NOTE_G6,0, NOTE_REST,0, NOTE_G6,0, NOTE_REST,0,
 NOTE_FS6,0, NOTE_REST,0, NOTE_FS6,0, NOTE_REST,0, NOTE_G6,0, NOTE_REST,0, NOTE_E6,0, NOTE_REST,0,
 NOTE_E6,0, NOTE_REST,0, NOTE_G6,0, NOTE_REST,0, NOTE_FS6,0, NOTE_REST,0, NOTE_FS6,0, NOTE_REST,0,
 NOTE_G6,0, NOTE_REST,0, NOTE_G6,0, NOTE_REST,0, NOTE_FS6,0, NOTE_REST,0, NOTE_FS6,0, NOTE_REST,0,
 NOTE_G6,0, NOTE_REST,0, NOTE_E6,0, NOTE_REST,0, NOTE_E6,0, NOTE_REST,0, NOTE_G6,0, NOTE_REST,0,
 NOTE_FS6,0, NOTE_REST,0, NOTE_FS6,0, NOTE_REST,0, NOTE_G6,0, NOTE_REST,0, NOTE_FS6,0, NOTE_REST,0,
 NOTE_E6,0, NOTE_REST,0, NOTE_D6,0, NOTE_REST,0, NOTE_G6,0, NOTE_REST,0, NOTE_FS6,0, NOTE_REST,0,
 NOTE_E6,0, NOTE_REST,0, NOTE_D6,0, NOTE_REST,0, NOTE_G6,0, NOTE_REST,0, NOTE_G6,0, NOTE_REST,0,
 NOTE_FS6,0, NOTE_REST,0, NOTE_FS6,0, NOTE_REST,0, NOTE_G6,0, NOTE_REST,0, NOTE_E6,0, NOTE_REST,0,
 NOTE_E6,0, NOTE_REST,0, NOTE_G6,0, NOTE_REST,0, NOTE_FS6,0, NOTE_REST,0, NOTE_FS6,0, NOTE_REST,0,
 NOTE_G6,0, NOTE_REST,0, NOTE_G6,0, NOTE_REST,0, NOTE_FS6,0, NOTE_REST,0, NOTE_FS6,0, NOTE_REST,0,
 NOTE_G6,0, NOTE_REST,0, NOTE_E6,0, NOTE_REST,0, NOTE_E6,0, NOTE_REST,0, NOTE_G6,0, NOTE_REST,0,
 NOTE_FS6,0, NOTE_REST,0, NOTE_FS6,0, NOTE_REST,0, NOTE_G6,0, NOTE_REST,0, NOTE_FS6,0, NOTE_REST,0,
 NOTE_E6,0, NOTE_REST,0, NOTE_D6,0, NOTE_REST,0, NOTE_G6,0, NOTE_REST,0, NOTE_FS6,0, NOTE_REST,0,
 NOTE_E6,0, NOTE_REST,0, NOTE_D6,0, NOTE_REST,0, NOTE_G6,0, NOTE_REST,0, NOTE_G6,0, NOTE_REST,0,
 NOTE_FS6,0, NOTE_REST,0, NOTE_FS6,0, NOTE_REST,0, NOTE_G6,0, NOTE_REST,0, NOTE_E6,0, NOTE_REST,0,
 NOTE_E6,0, NOTE_REST,0, NOTE_G6,0, NOTE_REST,0, NOTE_FS6,0, NOTE_REST,0, NOTE_FS6,0, NOTE_REST,0,
 NOTE_G6,0, NOTE_REST,0, NOTE_G6,0, NOTE_REST,0, NOTE_FS6,0, NOTE_REST,0, NOTE_FS6,0, NOTE_REST,0,
 NOTE_G6,0, NOTE_REST,0, NOTE_E6,0, NOTE_REST,0, NOTE_E6,0, NOTE_REST,0, NOTE_G6,0, NOTE_REST,0,
 NOTE_FS6,0, NOTE_REST,0, NOTE_FS6,0, NOTE_REST,0, NOTE_G6,0, NOTE_REST,0, NOTE_G6,0, NOTE_REST,0,
 NOTE_FS6,0, NOTE_REST,0, NOTE_FS6,0, NOTE_REST,0, NOTE_G6,0, NOTE_REST,0, NOTE_E6,0, NOTE_REST,0,
 NOTE_E6,0, NOTE_REST,0, NOTE_G6,0, NOTE_REST,0, NOTE_FS6,0, NOTE_REST,0, NOTE_FS6,0, NOTE_REST,0,
 NOTE_G6,0, NOTE_REST,0, NOTE_FS6,0, NOTE_REST,0, NOTE_E6,0, NOTE_REST,0, NOTE_D6,0, NOTE_REST,0,
 NOTE_G6,0, NOTE_REST,0, NOTE_FS6,0, NOTE_REST,0, NOTE_E6,0, NOTE_REST,0, NOTE_D6,0, NOTE_REST,0,
 NOTE_G6,0, NOTE_REST,0, NOTE_G6,0, NOTE_REST,0, NOTE_FS6,0, NOTE_REST,0, NOTE_FS6,0, NOTE_REST,0,
 NOTE_G6,0, NOTE_REST,0, NOTE_E6,0, NOTE_REST,0, NOTE_E6,0, NOTE_REST,0, NOTE_G6,0, NOTE_REST,0,
 NOTE_FS6,0, NOTE_REST,0, NOTE_FS6,0, NOTE_REST,0, NOTE_G6,0, NOTE_REST,0, NOTE_G6,0, NOTE_REST,0,
 NOTE_FS6,0, NOTE_REST,0, NOTE_FS6,0, NOTE_REST,0, NOTE_G6,0, NOTE_REST,0, NOTE_E6,0, NOTE_REST,0,
 NOTE_E6,0, NOTE_REST,0, NOTE_G6,0, NOTE_REST,0, NOTE_FS6,0, NOTE_REST,0, NOTE_FS6,0, NOTE_REST,0,
 NOTE_G6,0, NOTE_REST,0, NOTE_G6,0, NOTE_REST,0, NOTE_FS6,0, NOTE_REST,0, NOTE_FS6,0, NOTE_REST,0,
 NOTE_G6,0, NOTE_REST,0, NOTE_E6,0, NOTE_REST,0, NOTE_E6,0, NOTE_REST,0, NOTE_G6,0, NOTE_REST,0,
 NOTE_FS6,0, NOTE_REST,0, NOTE_FS6,0, NOTE_REST,0, NOTE_G6,0, NOTE_REST,0, NOTE_FS6,0, NOTE_REST,0,
 NOTE_E6,0, NOTE_REST,0, NOTE_D6,0, NOTE_REST,0, NOTE_G6,0, NOTE_REST,0, NOTE_FS6,0, NOTE_REST,0,
 NOTE_E6,0, NOTE_REST,0, NOTE_D6,0, NOTE_REST,0, NOTE_G6,0, NOTE_REST,0, NOTE_G6,0, NOTE_REST,0,
 NOTE_FS6,0, NOTE_REST,0, NOTE_FS6,0, NOTE_REST,0, NOTE_G6,0, NOTE_REST,0, NOTE_E6,0, NOTE_REST,0,
 NOTE_E6,0, NOTE_REST,0, NOTE_G6,0, NOTE_REST,0, NOTE_FS6,0, NOTE_REST,0, NOTE_FS6,0, NOTE_REST,0,
 NOTE_G6,0, NOTE_REST,0, NOTE_G6,0, NOTE_REST,0, NOTE_FS6,0, NOTE_REST,0, NOTE_FS6,0, NOTE_REST,0,
 NOTE_G6,0, NOTE_REST,0, NOTE_E6,0, NOTE_REST,0, NOTE_E6,0, NOTE_REST,0, NOTE_G6,0, NOTE_REST,0,
 NOTE_FS6,0, NOTE_REST,0, NOTE_FS6,0,
 0, 1, -1, -1
};
// This score contains 2414 bytes.
