// ArduboyTones stream for file "callMeMaybe.mid" created by MIDI2TONES V1.0.0 on Tue Dec 10 01:16:53 2019
// command line: C:\Users\cnorf\Downloads\midi2tones-master\midi2tones_64bit.exe -o2 -c1 callMeMaybe 
//   From channel 0
const int score1[] = {
 NOTE_REST,0, NOTE_B4,0, NOTE_REST,0, NOTE_B4,0, NOTE_REST,0, NOTE_B4,0, NOTE_REST,0, NOTE_B4,0,
 NOTE_REST,0, NOTE_B4,0, NOTE_REST,0, NOTE_A4,0, NOTE_REST,0, NOTE_B4,0, NOTE_REST,0, NOTE_B4,0,
 NOTE_REST,0, NOTE_B4,0, NOTE_REST,0, NOTE_B4,0, NOTE_REST,0, NOTE_B4,0, NOTE_REST,0, NOTE_B4,0,
 NOTE_REST,0, NOTE_A4,0, NOTE_REST,0, NOTE_B4,0, NOTE_REST,0, NOTE_B4,0, NOTE_REST,0, NOTE_B4,0,
 NOTE_REST,0, NOTE_B4,0, NOTE_REST,0, NOTE_B4,0, NOTE_REST,0, NOTE_B4,0, NOTE_REST,0, NOTE_A4,0,
 NOTE_REST,0, NOTE_A4,0, NOTE_REST,0, NOTE_A4,0, NOTE_REST,0, NOTE_A4,0, NOTE_REST,0, NOTE_G4,0,
 NOTE_REST,0, NOTE_G4,0, NOTE_REST,0, NOTE_D5,0, NOTE_REST,0, NOTE_B4,0, NOTE_REST,0, NOTE_B4,0,
 NOTE_REST,0, NOTE_B4,0, NOTE_REST,0, NOTE_B4,0, NOTE_REST,0, NOTE_B4,0, NOTE_REST,0, NOTE_B4,0,
 NOTE_REST,0, NOTE_A4,0, NOTE_REST,0, NOTE_B4,0, NOTE_REST,0, NOTE_B4,0, NOTE_REST,0, NOTE_B4,0,
 NOTE_REST,0, NOTE_B4,0, NOTE_REST,0, NOTE_B4,0, NOTE_REST,0, NOTE_B4,0, NOTE_REST,0, NOTE_A4,0,
 NOTE_REST,0, NOTE_B4,0, NOTE_REST,0, NOTE_B4,0, NOTE_REST,0, NOTE_B4,0, NOTE_REST,0, NOTE_B4,0,
 NOTE_REST,0, NOTE_B4,0, NOTE_REST,0, NOTE_B4,0, NOTE_REST,0, NOTE_A4,0, NOTE_REST,0, NOTE_A4,0,
 NOTE_REST,0, NOTE_A4,0, NOTE_REST,0, NOTE_A4,0, NOTE_REST,0, NOTE_G4,0, NOTE_REST,0, NOTE_G4,0,
 NOTE_REST,0, NOTE_D5,0, NOTE_REST,0, NOTE_B4,0, NOTE_REST,0, NOTE_D5,0, NOTE_REST,0, NOTE_D5,0,
 NOTE_REST,0, NOTE_B4,0, NOTE_REST,0, NOTE_A4,0, NOTE_REST,0, NOTE_G4,0, NOTE_REST,0, NOTE_D5,0,
 NOTE_REST,0, NOTE_D5,0, NOTE_REST,0, NOTE_D5,0, NOTE_REST,0, NOTE_B4,0, NOTE_REST,0, NOTE_A4,0,
 NOTE_REST,0, NOTE_G4,0, NOTE_REST,0, NOTE_D5,0, NOTE_REST,0, NOTE_D5,0, NOTE_REST,0, NOTE_D5,0,
 NOTE_REST,0, NOTE_B4,0, NOTE_REST,0, NOTE_A4,0, NOTE_REST,0, NOTE_G4,0, NOTE_REST,0, NOTE_G5,0,
 NOTE_REST,0, NOTE_G5,0, NOTE_REST,0, NOTE_G5,0, NOTE_REST,0, NOTE_G5,0, NOTE_REST,0, NOTE_G5,0,
 NOTE_REST,0, NOTE_G5,0, NOTE_REST,0, NOTE_A5,0, NOTE_REST,0, NOTE_B5,0, NOTE_REST,0, NOTE_G5,0,
 NOTE_REST,0, NOTE_D5,0, NOTE_REST,0, NOTE_D5,0, NOTE_REST,0, NOTE_G5,0, NOTE_REST,0, NOTE_D5,0,
 NOTE_REST,0, NOTE_D5,0, NOTE_REST,0, NOTE_D5,0, NOTE_REST,0, NOTE_D5,0, NOTE_REST,0, NOTE_B5,0,
 NOTE_REST,0, NOTE_G5,0, NOTE_REST,0, NOTE_G5,0, NOTE_REST,0, NOTE_B5,0, NOTE_REST,0, NOTE_C6,0,
 NOTE_REST,0, NOTE_B5,0, NOTE_REST,0, NOTE_G5,0, NOTE_REST,0, NOTE_G5,0, NOTE_REST,0, NOTE_B5,0,
 NOTE_REST,0, NOTE_A5,0, NOTE_REST,0, NOTE_A5,0, NOTE_REST,0, NOTE_G5,0, NOTE_REST,0, NOTE_G5,0,
 NOTE_REST,0, NOTE_D5,0, NOTE_REST,0, NOTE_D5,0, NOTE_REST,0, NOTE_G5,0, NOTE_REST,0, NOTE_D5,0,
 NOTE_REST,0, NOTE_D5,0, NOTE_REST,0, NOTE_D5,0, NOTE_REST,0, NOTE_B5,0, NOTE_REST,0, NOTE_G5,0,
 NOTE_REST,0, NOTE_G5,0, NOTE_REST,0, NOTE_B5,0, NOTE_REST,0, NOTE_C6,0, NOTE_REST,0, NOTE_B5,0,
 NOTE_REST,0, NOTE_G5,0, NOTE_REST,0, NOTE_G5,0, NOTE_REST,0, NOTE_B5,0, NOTE_REST,0, NOTE_A5,0,
 NOTE_REST,0, NOTE_A5,0, NOTE_REST,0, NOTE_G5,0, NOTE_REST,0, NOTE_G5,0, NOTE_REST,0, NOTE_D5,0,
 NOTE_REST,0, NOTE_D5,0, NOTE_REST,0, NOTE_G5,0, NOTE_REST,0, NOTE_D5,0, NOTE_REST,0, NOTE_D5,0,
 NOTE_REST,0, NOTE_D5,0, NOTE_REST,0, NOTE_D5,0, NOTE_REST,0, NOTE_B5,0, NOTE_REST,0, NOTE_G5,0,
 NOTE_REST,0, NOTE_G5,0, NOTE_REST,0, NOTE_B5,0, NOTE_REST,0, NOTE_C6,0, NOTE_REST,0, NOTE_B5,0,
 NOTE_REST,0, NOTE_G5,0, NOTE_REST,0, NOTE_G5,0, NOTE_REST,0, NOTE_B5,0, NOTE_REST,0, NOTE_A5,0,
 NOTE_REST,0, NOTE_A5,0, NOTE_REST,0, NOTE_G5,0, NOTE_REST,0, NOTE_G5,0, NOTE_REST,0, NOTE_D5,0,
 NOTE_REST,0, NOTE_D5,0, NOTE_REST,0, NOTE_G5,0, NOTE_REST,0, NOTE_G5,0, NOTE_REST,0, NOTE_D5,0,
 NOTE_REST,0, NOTE_D5,0, NOTE_REST,0, NOTE_D5,0, NOTE_REST,0, NOTE_B5,0, NOTE_REST,0, NOTE_G5,0,
 NOTE_REST,0, NOTE_G5,0, NOTE_REST,0, NOTE_B5,0, NOTE_REST,0, NOTE_C6,0, NOTE_REST,0, NOTE_B5,0,
 NOTE_REST,0, NOTE_G5,0, NOTE_REST,0, NOTE_G5,0, NOTE_REST,0, NOTE_B5,0, NOTE_REST,0, NOTE_A5,0,
 NOTE_REST,0, NOTE_A5,0, NOTE_REST,0, NOTE_G5,0, NOTE_REST,0, NOTE_B4,0, NOTE_REST,0, NOTE_B4,0,
 NOTE_REST,0, NOTE_B4,0, NOTE_REST,0, NOTE_B4,0, NOTE_REST,0, NOTE_B4,0, NOTE_REST,0, NOTE_A4,0,
 NOTE_REST,0, NOTE_B4,0, NOTE_REST,0, NOTE_B4,0, NOTE_REST,0, NOTE_B4,0, NOTE_REST,0, NOTE_B4,0,
 NOTE_REST,0, NOTE_B4,0, NOTE_REST,0, NOTE_B4,0, NOTE_REST,0, NOTE_A4,0, NOTE_REST,0, NOTE_B4,0,
 NOTE_REST,0, NOTE_B4,0, NOTE_REST,0, NOTE_B4,0, NOTE_REST,0, NOTE_B4,0, NOTE_REST,0, NOTE_B4,0,
 NOTE_REST,0, NOTE_B4,0, NOTE_REST,0, NOTE_A4,0, NOTE_REST,0, NOTE_A4,0, NOTE_REST,0, NOTE_A4,0,
 NOTE_REST,0, NOTE_A4,0, NOTE_REST,0, NOTE_G4,0, NOTE_REST,0, NOTE_G4,0, NOTE_REST,0, NOTE_D5,0,
 NOTE_REST,0, NOTE_B4,0, NOTE_REST,0, NOTE_B4,0, NOTE_REST,0, NOTE_B4,0, NOTE_REST,0, NOTE_B4,0,
 NOTE_REST,0, NOTE_B4,0, NOTE_REST,0, NOTE_B4,0, NOTE_REST,0, NOTE_A4,0, NOTE_REST,0, NOTE_B4,0,
 NOTE_REST,0, NOTE_B4,0, NOTE_REST,0, NOTE_B4,0, NOTE_REST,0, NOTE_B4,0, NOTE_REST,0, NOTE_B4,0,
 NOTE_REST,0, NOTE_B4,0, NOTE_REST,0, NOTE_A4,0, NOTE_REST,0, NOTE_B4,0, NOTE_REST,0, NOTE_B4,0,
 NOTE_REST,0, NOTE_B4,0, NOTE_REST,0, NOTE_B4,0, NOTE_REST,0, NOTE_B4,0, NOTE_REST,0, NOTE_B4,0,
 NOTE_REST,0, NOTE_A4,0, NOTE_REST,0, NOTE_A4,0, NOTE_REST,0, NOTE_A4,0, NOTE_REST,0, NOTE_A4,0,
 NOTE_REST,0, NOTE_G4,0, NOTE_REST,0, NOTE_G4,0, NOTE_REST,0, NOTE_D5,0, NOTE_REST,0, NOTE_B4,0,
 NOTE_REST,0, NOTE_D5,0, NOTE_REST,0, NOTE_D5,0, NOTE_REST,0, NOTE_B4,0, NOTE_REST,0, NOTE_A4,0,
 NOTE_REST,0, NOTE_G4,0, NOTE_REST,0, NOTE_D5,0, NOTE_REST,0, NOTE_D5,0, NOTE_REST,0, NOTE_D5,0,
 NOTE_REST,0, NOTE_B4,0, NOTE_REST,0, NOTE_A4,0, NOTE_REST,0, NOTE_G4,0, NOTE_REST,0, NOTE_D5,0,
 NOTE_REST,0, NOTE_D5,0, NOTE_REST,0, NOTE_D5,0, NOTE_REST,0, NOTE_B4,0, NOTE_REST,0, NOTE_A4,0,
 NOTE_REST,0, NOTE_G4,0, NOTE_REST,0, NOTE_G5,0, NOTE_REST,0, NOTE_G5,0, NOTE_REST,0, NOTE_G5,0,
 NOTE_REST,0, NOTE_G5,0, NOTE_REST,0, NOTE_G5,0, NOTE_REST,0, NOTE_G5,0, NOTE_REST,0, NOTE_A5,0,
 NOTE_REST,0, NOTE_B5,0, NOTE_REST,0, NOTE_G5,0, NOTE_REST,0, NOTE_D5,0, NOTE_REST,0, NOTE_D5,0,
 NOTE_REST,0, NOTE_G5,0, NOTE_REST,0, NOTE_D5,0, NOTE_REST,0, NOTE_D5,0, NOTE_REST,0, NOTE_D5,0,
 NOTE_REST,0, NOTE_D5,0, NOTE_REST,0, NOTE_B5,0, NOTE_REST,0, NOTE_G5,0, NOTE_REST,0, NOTE_G5,0,
 NOTE_REST,0, NOTE_B5,0, NOTE_REST,0, NOTE_C6,0, NOTE_REST,0, NOTE_B5,0, NOTE_REST,0, NOTE_G5,0,
 NOTE_REST,0, NOTE_G5,0, NOTE_REST,0, NOTE_B5,0, NOTE_REST,0, NOTE_A5,0, NOTE_REST,0, NOTE_A5,0,
 NOTE_REST,0, NOTE_G5,0, NOTE_REST,0, NOTE_G5,0, NOTE_REST,0, NOTE_D5,0, NOTE_REST,0, NOTE_D5,0,
 NOTE_REST,0, NOTE_G5,0, NOTE_REST,0, NOTE_D5,0, NOTE_REST,0, NOTE_D5,0, NOTE_REST,0, NOTE_D5,0,
 NOTE_REST,0, NOTE_B5,0, NOTE_REST,0, NOTE_G5,0, NOTE_REST,0, NOTE_G5,0, NOTE_REST,0, NOTE_B5,0,
 NOTE_REST,0, NOTE_C6,0, NOTE_REST,0, NOTE_B5,0, NOTE_REST,0, NOTE_G5,0, NOTE_REST,0, NOTE_G5,0,
 NOTE_REST,0, NOTE_B5,0, NOTE_REST,0, NOTE_A5,0, NOTE_REST,0, NOTE_A5,0, NOTE_REST,0, NOTE_G5,0,
 NOTE_REST,0, NOTE_G5,0, NOTE_REST,0, NOTE_D5,0, NOTE_REST,0, NOTE_D5,0, NOTE_REST,0, NOTE_G5,0,
 NOTE_REST,0, NOTE_D5,0, NOTE_REST,0, NOTE_D5,0, NOTE_REST,0, NOTE_D5,0, NOTE_REST,0, NOTE_D5,0,
 NOTE_REST,0, NOTE_B5,0, NOTE_REST,0, NOTE_G5,0, NOTE_REST,0, NOTE_G5,0, NOTE_REST,0, NOTE_B5,0,
 NOTE_REST,0, NOTE_C6,0, NOTE_REST,0, NOTE_B5,0, NOTE_REST,0, NOTE_G5,0, NOTE_REST,0, NOTE_G5,0,
 NOTE_REST,0, NOTE_B5,0, NOTE_REST,0, NOTE_A5,0, NOTE_REST,0, NOTE_A5,0, NOTE_REST,0, NOTE_G5,0,
 NOTE_REST,0, NOTE_G5,0, NOTE_REST,0, NOTE_D5,0, NOTE_REST,0, NOTE_D5,0, NOTE_REST,0, NOTE_G5,0,
 NOTE_REST,0, NOTE_G5,0, NOTE_REST,0, NOTE_D5,0, NOTE_REST,0, NOTE_D5,0, NOTE_REST,0, NOTE_D5,0,
 NOTE_REST,0, NOTE_B5,0, NOTE_REST,0, NOTE_G5,0, NOTE_REST,0, NOTE_G5,0, NOTE_REST,0, NOTE_B5,0,
 NOTE_REST,0, NOTE_C6,0, NOTE_REST,0, NOTE_B5,0, NOTE_REST,0, NOTE_G5,0, NOTE_REST,0, NOTE_G5,0,
 NOTE_REST,0, NOTE_B5,0, NOTE_REST,0, NOTE_A5,0, NOTE_REST,0, NOTE_A5,0, NOTE_REST,0, NOTE_G5,0,
 NOTE_REST,0, NOTE_B5,0, NOTE_REST,0, NOTE_B5,0, NOTE_REST,0, NOTE_A5,0, NOTE_REST,0, NOTE_A5,0,
 NOTE_REST,0, NOTE_G5,0, NOTE_REST,0, NOTE_G5,0, NOTE_REST,0, NOTE_D5,0, NOTE_REST,0, NOTE_D5,0,
 NOTE_REST,0, NOTE_D5,0, NOTE_REST,0, NOTE_D5,0, NOTE_REST,0, NOTE_D5,0, NOTE_REST,0, NOTE_A5,0,
 NOTE_REST,0, NOTE_G5,0, NOTE_REST,0, NOTE_D5,0, NOTE_REST,0, NOTE_D5,0, NOTE_REST,0, NOTE_D5,0,
 NOTE_REST,0, NOTE_A5,0, NOTE_REST,0, NOTE_G5,0, NOTE_REST,0, NOTE_D5,0, NOTE_REST,0, NOTE_D5,0,
 NOTE_REST,0, NOTE_D5,0, NOTE_REST,0, NOTE_A5,0, NOTE_REST,0, NOTE_A5,0, NOTE_REST,0, NOTE_G5,0,
 NOTE_REST,0, NOTE_B5,0, NOTE_REST,0, NOTE_B5,0, NOTE_REST,0, NOTE_A5,0, NOTE_REST,0, NOTE_A5,0,
 NOTE_REST,0, NOTE_G5,0, NOTE_REST,0, NOTE_G5,0, NOTE_REST,0, NOTE_D5,0, NOTE_REST,0, NOTE_D5,0,
 NOTE_REST,0, NOTE_D5,0, NOTE_REST,0, NOTE_D5,0, NOTE_REST,0, NOTE_D5,0, NOTE_REST,0, NOTE_A5,0,
 NOTE_REST,0, NOTE_G5,0, NOTE_REST,0, NOTE_D5,0, NOTE_REST,0, NOTE_D5,0, NOTE_REST,0, NOTE_D5,0,
 NOTE_REST,0, NOTE_A5,0, NOTE_REST,0, NOTE_G5,0, NOTE_REST,0, NOTE_D5,0, NOTE_REST,0, NOTE_D5,0,
 NOTE_REST,0, NOTE_D5,0, NOTE_REST,0, NOTE_A5,0, NOTE_REST,0, NOTE_A5,0, NOTE_REST,0, NOTE_G5,0,
 NOTE_REST,0, NOTE_G5,0, NOTE_REST,0, NOTE_D5,0, NOTE_REST,0, NOTE_D5,0, NOTE_REST,0, NOTE_G5,0,
 NOTE_REST,0, NOTE_D5,0, NOTE_REST,0, NOTE_D5,0, NOTE_REST,0, NOTE_D5,0, NOTE_REST,0, NOTE_B5,0,
 NOTE_REST,0, NOTE_G5,0, NOTE_REST,0, NOTE_G5,0, NOTE_REST,0, NOTE_B5,0, NOTE_REST,0, NOTE_C6,0,
 NOTE_REST,0, NOTE_B5,0, NOTE_REST,0, NOTE_G5,0, NOTE_REST,0, NOTE_G5,0, NOTE_REST,0, NOTE_B5,0,
 NOTE_REST,0, NOTE_A5,0, NOTE_REST,0, NOTE_A5,0, NOTE_REST,0, NOTE_G5,0, NOTE_REST,0, NOTE_G5,0,
 NOTE_REST,0, NOTE_D5,0, NOTE_REST,0, NOTE_D5,0, NOTE_REST,0, NOTE_G5,0, NOTE_REST,0, NOTE_D5,0,
 NOTE_REST,0, NOTE_D5,0, NOTE_REST,0, NOTE_D5,0, NOTE_REST,0, NOTE_D5,0, NOTE_REST,0, NOTE_B5,0,
 NOTE_REST,0, NOTE_G5,0, NOTE_REST,0, NOTE_G5,0, NOTE_REST,0, NOTE_B5,0, NOTE_REST,0, NOTE_C6,0,
 NOTE_REST,0, NOTE_B5,0, NOTE_REST,0, NOTE_G5,0, NOTE_REST,0, NOTE_G5,0, NOTE_REST,0, NOTE_B5,0,
 NOTE_REST,0, NOTE_A5,0, NOTE_REST,0, NOTE_A5,0, NOTE_REST,0, NOTE_G5,0, NOTE_REST,0, NOTE_G5,0,
 NOTE_REST,0, NOTE_D5,0, NOTE_REST,0, NOTE_D5,0, NOTE_REST,0, NOTE_G5,0, NOTE_REST,0, NOTE_G5,0,
 NOTE_REST,0, NOTE_D5,0, NOTE_REST,0, NOTE_D5,0, NOTE_REST,0, NOTE_D5,0, NOTE_REST,0, NOTE_B5,0,
 NOTE_REST,0, NOTE_G5,0, NOTE_REST,0, NOTE_G5,0, NOTE_REST,0, NOTE_B5,0, NOTE_REST,0, NOTE_C6,0,
 NOTE_REST,0, NOTE_B5,0, NOTE_REST,0, NOTE_G5,0, NOTE_REST,0, NOTE_G5,0, NOTE_REST,0, NOTE_B5,0,
 NOTE_REST,0, NOTE_A5,0, NOTE_REST,0, NOTE_A5,0, NOTE_REST,0, NOTE_G5,0, NOTE_REST,0, NOTE_B5,0,
 NOTE_REST,0, NOTE_B5,0, NOTE_REST,0, NOTE_A5,0, NOTE_REST,0, NOTE_A5,0, NOTE_REST,0, NOTE_G5,0,
 NOTE_REST,0, NOTE_G5,0, NOTE_REST,0, NOTE_D5,0, NOTE_REST,0, NOTE_D5,0, NOTE_REST,0, NOTE_D5,0,
 NOTE_REST,0, NOTE_D5,0, NOTE_REST,0, NOTE_D5,0, NOTE_REST,0, NOTE_A5,0, NOTE_REST,0, NOTE_G5,0,
 NOTE_REST,0, NOTE_D5,0, NOTE_REST,0, NOTE_D5,0, NOTE_REST,0, NOTE_D5,0, NOTE_REST,0, NOTE_A5,0,
 NOTE_REST,0, NOTE_G5,0, NOTE_REST,0, NOTE_D5,0, NOTE_REST,0, NOTE_D5,0, NOTE_REST,0, NOTE_D5,0,
 NOTE_REST,0, NOTE_A5,0, NOTE_REST,0, NOTE_A5,0, NOTE_REST,0, NOTE_G5,0, NOTE_REST,0, NOTE_B5,0,
 NOTE_REST,0, NOTE_B5,0, NOTE_REST,0, NOTE_A5,0, NOTE_REST,0, NOTE_A5,0, NOTE_REST,0, NOTE_G5,0,
 NOTE_REST,0, NOTE_G5,0, NOTE_REST,0, NOTE_D5,0, NOTE_REST,0, NOTE_D5,0, NOTE_REST,0, NOTE_D5,0,
 NOTE_REST,0, NOTE_D5,0, NOTE_REST,0, NOTE_D5,0, NOTE_REST,0, NOTE_A5,0, NOTE_REST,0, NOTE_G5,0,
 NOTE_REST,0, NOTE_D5,0, NOTE_REST,0, NOTE_D5,0, NOTE_REST,0, NOTE_D5,0, NOTE_REST,0, NOTE_A5,0,
 NOTE_REST,0, NOTE_G5,0, NOTE_REST,0, NOTE_D5,0, NOTE_REST,0, NOTE_D5,0, NOTE_REST,0, NOTE_D5,0,
 NOTE_REST,0, NOTE_A5,0, NOTE_REST,0, NOTE_A5,0, NOTE_REST,0, NOTE_G5,0,
 0, 1, -1, -1
};
// This score contains 3770 bytes.
