// ArduboyTones stream for file "daisy.mid" created by MIDI2TONES V1.0.0 on Sun Dec 01 18:52:53 2019
// command line: C:\Users\cnorf\Downloads\midi2tones-master\midi2tones_64bit.exe -o2 -c2 daisy 
//   From channel 1
const uint16_t score[] PROGMEM = {
 NOTE_REST,9999, NOTE_C6,1111, NOTE_A5,1111, NOTE_F5,1111, NOTE_C5,1111, NOTE_D5,370, NOTE_E5,370, NOTE_F5,370,
 NOTE_D5,740, NOTE_F5,370, NOTE_C5,2222, NOTE_G5,1111, NOTE_C6,1111, NOTE_A5,1111, NOTE_F5,1111, NOTE_D5,370,
 NOTE_E5,370, NOTE_F5,370, NOTE_G5,740, NOTE_A5,370, NOTE_G5,1481, NOTE_REST,370, NOTE_A5,370, NOTE_AS5,370,
 NOTE_A5,370, NOTE_G5,370, NOTE_C6,740, NOTE_A5,370, NOTE_G5,370, NOTE_F5,1481, NOTE_G5,370, NOTE_A5,740,
 NOTE_F5,370, NOTE_D5,740, NOTE_F5,370, NOTE_D5,370, NOTE_C5,740, NOTE_C5,740, NOTE_C5,370, NOTE_F5,740,
 NOTE_A5,370, NOTE_G5,185, NOTE_REST,925, NOTE_F5,740, NOTE_A5,370, NOTE_G5,185, NOTE_REST,555, NOTE_A5,185,
 NOTE_AS5,185, NOTE_C6,370, NOTE_A5,370, NOTE_F5,370, NOTE_G5,740, NOTE_C5,370, NOTE_F5,1481,
 TONES_END
};
// This score contains 222 bytes.
