const int score[] = {
// daisy
 NOTE_C6,1111, NOTE_A5,1111, NOTE_F5,1111, NOTE_C5,1111, NOTE_D5,370, NOTE_E5,370, NOTE_F5,370,
 NOTE_D5,740, NOTE_F5,370, NOTE_C5,2222, NOTE_G5,1111, NOTE_C6,1111, NOTE_A5,1111, NOTE_F5,1111, NOTE_D5,370,
 NOTE_E5,370, NOTE_F5,370, NOTE_G5,740, NOTE_A5,370, NOTE_G5,1481,

// mario
 NOTE_REST,10, NOTE_FS5,152, NOTE_REST,0, NOTE_D4,149, NOTE_REST,148, NOTE_D4,148, NOTE_REST,154, NOTE_D4,149,
 NOTE_REST,0, NOTE_D4,148, NOTE_REST,148, NOTE_G5,153, NOTE_REST,446, NOTE_G4,153, NOTE_REST,146, NOTE_REST,37,
 NOTE_REST,37, NOTE_REST,37, NOTE_REST,38, NOTE_REST,38, NOTE_REST,38, NOTE_REST,38, NOTE_REST,38, NOTE_E5,37,
 NOTE_E5,116, NOTE_REST,297, NOTE_C5,148, NOTE_REST,303, NOTE_C4,148, NOTE_REST,302, NOTE_F4,146, NOTE_F4,3,
 NOTE_REST,34, NOTE_REST,37, NOTE_REST,37, NOTE_REST,37, NOTE_REST,1, NOTE_D5,36, NOTE_D5,37, NOTE_D5,38,
 NOTE_D5,38, NOTE_REST,0, NOTE_REST,153, NOTE_CS5,146, NOTE_CS5,3, NOTE_REST,0, NOTE_C5,34, NOTE_C5,37,
 NOTE_C5,37, NOTE_C5,37, NOTE_C5,1, NOTE_REST,36, NOTE_REST,37, NOTE_REST,38, NOTE_REST,38, NOTE_C5,103,
 NOTE_REST,100, NOTE_C5,99, NOTE_REST,100, NOTE_E5,96, NOTE_REST,100, NOTE_F5,153, NOTE_REST,149, NOTE_D5,148,
 NOTE_REST,0, NOTE_E5,148, NOTE_REST,154, NOTE_C5,149, NOTE_REST,148, NOTE_A4,148, NOTE_REST,0, NOTE_B4,153,
 NOTE_REST,0, NOTE_G4,146, NOTE_G4,3, NOTE_REST,34, NOTE_REST,37, NOTE_REST,37, NOTE_REST,38, NOTE_REST,38,
 NOTE_REST,38, NOTE_REST,38, NOTE_REST,38, NOTE_E5,38, NOTE_E5,116, NOTE_REST,297, NOTE_C5,148, NOTE_REST,303,
 NOTE_C4,148, NOTE_REST,302, NOTE_F4,146, NOTE_F4,3, NOTE_REST,34, NOTE_REST,37, NOTE_REST,37, NOTE_REST,37,
 NOTE_REST,1, NOTE_D5,36, NOTE_D5,37, NOTE_D5,38, NOTE_D5,38, NOTE_REST,0, NOTE_REST,153, NOTE_CS5,146,
 NOTE_CS5,3, NOTE_REST,0, NOTE_C5,34, NOTE_C5,37, NOTE_C5,37, NOTE_C5,37, NOTE_C5,1, NOTE_REST,36,
 NOTE_REST,37, NOTE_REST,38, NOTE_REST,38, NOTE_C5,103, NOTE_REST,100, NOTE_C5,99, NOTE_REST,100, NOTE_E5,96,
 
// Viva La Vida
 NOTE_C6,209, NOTE_REST,4, NOTE_C6,357, NOTE_REST,71, NOTE_C6,357, NOTE_REST,71, NOTE_C6,1178, NOTE_REST,107,
 NOTE_CS6,209, NOTE_REST,4, NOTE_AS5,964, NOTE_REST,321, NOTE_AS5,357, NOTE_REST,71, NOTE_AS5,209, NOTE_REST,4,
 NOTE_AS5,357, NOTE_REST,71, NOTE_AS5,209, NOTE_REST,4, NOTE_GS5,209, NOTE_REST,4, NOTE_AS5,209, NOTE_REST,4,
 NOTE_AS5,209, NOTE_REST,4, NOTE_C6,209, NOTE_REST,4, NOTE_GS5,214, NOTE_G5,214, NOTE_F5,571, NOTE_REST,71,
 NOTE_C6,209, NOTE_REST,4, NOTE_C6,209, NOTE_REST,4, NOTE_C6,209, NOTE_REST,4, NOTE_C6,209, NOTE_REST,4,
 NOTE_C6,1066, NOTE_REST,4, NOTE_CS6,357, NOTE_REST,71, NOTE_AS5,964, NOTE_REST,535, NOTE_GS5,209, NOTE_REST,4,
 NOTE_GS5,209, NOTE_REST,4, NOTE_C6,209, NOTE_REST,4, NOTE_AS5,209, NOTE_REST,4, NOTE_GS5,209, NOTE_REST,4,
 NOTE_GS5,571, NOTE_REST,71, NOTE_C6,209, NOTE_REST,4, NOTE_AS5,209, NOTE_REST,4, NOTE_GS5,209, NOTE_REST,4,
 NOTE_GS5,209, NOTE_REST,218, NOTE_F6,209, NOTE_REST,4, NOTE_F6,209, NOTE_REST,4, NOTE_F6,209, NOTE_REST,4,
 NOTE_F6,357, NOTE_REST,71, NOTE_F6,1178, NOTE_REST,107, NOTE_C6,209, NOTE_REST,4, NOTE_DS6,964, NOTE_REST,535,
 NOTE_GS5,209, NOTE_REST,4, NOTE_GS5,209, NOTE_REST,4, NOTE_DS6,638, NOTE_REST,4, NOTE_C6,209, NOTE_REST,4,
 NOTE_DS6,357, NOTE_REST,71, NOTE_CS6,357, NOTE_REST,71, NOTE_C6,209, NOTE_REST,4, NOTE_C6,209, NOTE_REST,4,
 NOTE_C6,209, NOTE_REST,4, NOTE_C6,209, NOTE_REST,4, NOTE_C6,209, NOTE_REST,4, NOTE_C6,209, NOTE_REST,4,

 // wii channel
 NOTE_REST,4, NOTE_D5,209, NOTE_REST,300, NOTE_FS5,96, NOTE_REST,150, NOTE_A5,98, NOTE_REST,399, NOTE_FS5,96,
 NOTE_REST,396, NOTE_D5,97, NOTE_REST,152, NOTE_D5,114, NOTE_REST,150, NOTE_D5,97, NOTE_REST,150, NOTE_D5,96,
 NOTE_REST,1141, NOTE_CS5,249, NOTE_CS5,27, NOTE_REST,86, NOTE_REST,76, NOTE_REST,74, NOTE_D5,32, NOTE_D5,64,
 NOTE_REST,150, NOTE_FS5,96, NOTE_REST,150, NOTE_A5,98, NOTE_REST,399, NOTE_FS5,96, NOTE_REST,396, NOTE_D5,97,
 NOTE_REST,152, NOTE_E5,758, NOTE_REST,0, NOTE_DS5,233, NOTE_REST,14, NOTE_REST,0, NOTE_D5,195, NOTE_REST,796,
 NOTE_GS5,114, NOTE_REST,398, NOTE_CS6,81, NOTE_CS6,14, NOTE_REST,150, NOTE_FS5,98, NOTE_REST,399, NOTE_CS6,96,
 NOTE_REST,396, NOTE_GS5,97, NOTE_REST,416, NOTE_CS6,97, NOTE_REST,396, NOTE_G5,249, NOTE_G5,29, NOTE_REST,182,
 NOTE_REST,283, NOTE_E5,96, NOTE_REST,399, NOTE_FS4,114, NOTE_REST,150, NOTE_FS4,97, NOTE_REST,150, NOTE_FS4,81,
 NOTE_FS4,14, NOTE_REST,895, NOTE_FS4,96, NOTE_REST,150, NOTE_FS4,97, NOTE_REST,152, NOTE_FS4,114, NOTE_REST,15,
 NOTE_REST,878, NOTE_GS4,495, NOTE_REST,0, NOTE_G4,493, NOTE_REST,2, NOTE_D5,212, NOTE_REST,37, NOTE_REST,263,
 NOTE_FS5,96, NOTE_REST,150, NOTE_A5,98, NOTE_REST,399, NOTE_FS5,96, NOTE_REST,396, NOTE_DS5,247, NOTE_DS5,2,
 NOTE_DS5,27, NOTE_REST,86, NOTE_REST,150, NOTE_E5,97, NOTE_REST,150, NOTE_E5,81, NOTE_E5,14, NOTE_REST,399,
 NOTE_GS5,98, NOTE_REST,150, NOTE_GS5,96, NOTE_REST,150, NOTE_GS5,81, NOTE_GS5,14, NOTE_REST,399, NOTE_B3,212,
 
 // mario death sound
 NOTE_REST,250, NOTE_C6,38, NOTE_REST,2, NOTE_CS6,34, NOTE_REST,2, NOTE_D6,29, NOTE_REST,491, NOTE_G5,153,
 NOTE_REST,0, NOTE_D6,146, NOTE_D6,3, NOTE_REST,34, NOTE_REST,37, NOTE_REST,37, NOTE_REST,38, NOTE_REST,1,
 NOTE_D6,36, NOTE_D6,38, NOTE_D6,38, NOTE_D6,38, NOTE_REST,0, NOTE_D6,38, NOTE_D6,65, NOTE_REST,100,
 NOTE_C6,99, NOTE_REST,100, NOTE_B5,96, NOTE_REST,100, NOTE_G5,153, NOTE_REST,0, NOTE_E5,149, NOTE_REST,148,
 NOTE_E5,148, NOTE_REST,0, NOTE_C5,153,
 
 // end stuff
 0, 1, -1, -1
};

