// ArduboyTones stream for file "marioOverworld.mid" created by MIDI2TONES V1.0.0 on Sun Dec 01 18:50:15 2019
// command line: C:\Users\cnorf\Downloads\midi2tones-master\midi2tones_64bit.exe -o2 marioOverworld 
//   From channel 0
const int score[] = {
// daisy

// 
 NOTE_REST,1, NOTE_FS5,152, NOTE_REST,0, NOTE_D4,149, NOTE_REST,148, NOTE_D4,148, NOTE_REST,154, NOTE_D4,149,
 NOTE_REST,0, NOTE_D4,148, NOTE_REST,148, NOTE_G5,153, NOTE_REST,446, NOTE_G4,153, NOTE_REST,146, NOTE_REST,37,
 NOTE_REST,37, NOTE_REST,37, NOTE_REST,38, NOTE_REST,38, NOTE_REST,38, NOTE_REST,38, NOTE_REST,38, NOTE_E5,37,
 NOTE_E5,116, NOTE_REST,297, NOTE_C5,148, NOTE_REST,303, NOTE_C4,148, NOTE_REST,302, NOTE_F4,146, NOTE_F4,3,
 NOTE_REST,34, NOTE_REST,37, NOTE_REST,37, NOTE_REST,37, NOTE_REST,1, NOTE_D5,36, NOTE_D5,37, NOTE_D5,38,
 NOTE_D5,38, NOTE_REST,0, NOTE_REST,153, NOTE_CS5,146, NOTE_CS5,3, NOTE_REST,0, NOTE_C5,34, NOTE_C5,37,
 NOTE_C5,37, NOTE_C5,37, NOTE_C5,1, NOTE_REST,36, NOTE_REST,37, NOTE_REST,38, NOTE_REST,38, NOTE_C5,103,
 NOTE_REST,100, NOTE_C5,99, NOTE_REST,100, NOTE_E5,96, NOTE_REST,100, NOTE_F5,153, NOTE_REST,149, NOTE_D5,148,
 NOTE_REST,0, NOTE_E5,148, NOTE_REST,154, NOTE_C5,149, NOTE_REST,148, NOTE_A4,148, NOTE_REST,0, NOTE_B4,153,
 NOTE_REST,0, NOTE_G4,146, NOTE_G4,3, NOTE_REST,34, NOTE_REST,37, NOTE_REST,37, NOTE_REST,38, NOTE_REST,38,
 NOTE_REST,38, NOTE_REST,38, NOTE_REST,38, NOTE_E5,38, NOTE_E5,116, NOTE_REST,297, NOTE_C5,148, NOTE_REST,303,
 NOTE_C4,148, NOTE_REST,302, NOTE_F4,146, NOTE_F4,3, NOTE_REST,34, NOTE_REST,37, NOTE_REST,37, NOTE_REST,37,
 NOTE_REST,1, NOTE_D5,36, NOTE_D5,37, NOTE_D5,38, NOTE_D5,38, NOTE_REST,0, NOTE_REST,153, NOTE_CS5,146,
 NOTE_CS5,3, NOTE_REST,0, NOTE_C5,34, NOTE_C5,37, NOTE_C5,37, NOTE_C5,37, NOTE_C5,1, NOTE_REST,36,
 NOTE_REST,37, NOTE_REST,38, NOTE_REST,38, NOTE_C5,103, NOTE_REST,100, NOTE_C5,99, NOTE_REST,100, NOTE_E5,96,
 NOTE_REST,100, NOTE_F5,153, NOTE_REST,149, NOTE_D5,148, NOTE_REST,0, NOTE_E5,148, NOTE_REST,154, NOTE_C5,149,
 NOTE_REST,148, NOTE_A4,148, NOTE_REST,0, NOTE_B4,153, NOTE_REST,0, NOTE_G4,146, NOTE_G4,3, NOTE_REST,34,
 NOTE_REST,37, NOTE_REST,37, NOTE_REST,37, NOTE_REST,37, NOTE_REST,37, NOTE_REST,38, NOTE_REST,38, NOTE_C4,153,
 NOTE_REST,146, NOTE_REST,3, NOTE_E6,34, NOTE_E6,37, NOTE_E6,37, NOTE_E6,38, NOTE_E6,1, NOTE_REST,0,
 NOTE_G4,36, NOTE_G4,38, NOTE_G4,38, NOTE_G4,38, NOTE_REST,0, NOTE_D6,38, NOTE_D6,116, NOTE_REST,0,
 NOTE_B5,149, NOTE_REST,0, NOTE_C5,148, NOTE_REST,0, NOTE_C6,148, NOTE_REST,0, NOTE_F4,153, NOTE_REST,0,
 NOTE_E5,149, NOTE_REST,0, NOTE_F5,148, NOTE_REST,0, NOTE_C5,148, NOTE_REST,0, NOTE_C5,153, NOTE_REST,0,
 NOTE_C5,146, NOTE_C5,3, NOTE_REST,0, NOTE_F4,34, NOTE_F4,37, NOTE_F4,37, NOTE_F4,37, NOTE_F4,1,
 NOTE_REST,0, NOTE_F5,36, NOTE_F5,37, NOTE_F5,38, NOTE_F5,38, NOTE_REST,0, NOTE_C4,153, NOTE_REST,149,
 NOTE_E6,148, NOTE_REST,0, NOTE_E4,148, NOTE_REST,0, NOTE_D6,153, NOTE_REST,0, NOTE_B5,149, NOTE_REST,0,
 NOTE_G4,148, NOTE_REST,0, NOTE_C6,148, NOTE_REST,154, NOTE_F6,149, NOTE_REST,148, NOTE_F6,148, NOTE_REST,0,
 NOTE_F6,153, NOTE_REST,146, NOTE_REST,3, NOTE_G4,34, NOTE_G4,37, NOTE_G4,37, NOTE_G4,37, NOTE_G4,1,
 NOTE_REST,36, NOTE_REST,37, NOTE_REST,38, NOTE_REST,38, NOTE_C4,153, NOTE_REST,146, NOTE_REST,3, NOTE_E6,34,
 NOTE_E6,37, NOTE_E6,37, NOTE_E6,38, NOTE_E6,1, NOTE_REST,0, NOTE_G4,36, NOTE_G4,38, NOTE_G4,38,
 NOTE_G4,38, NOTE_REST,0, NOTE_D6,38, NOTE_D6,116, NOTE_REST,0, NOTE_B5,149, NOTE_REST,0, NOTE_C5,148,
 NOTE_REST,0, NOTE_C6,148, NOTE_REST,0, NOTE_F4,153, NOTE_REST,0, NOTE_E5,149, NOTE_REST,0, NOTE_F5,148,
 NOTE_REST,0, NOTE_C5,148, NOTE_REST,0, NOTE_C5,153, NOTE_REST,0, NOTE_C5,146, NOTE_C5,3, NOTE_REST,0,
 NOTE_F4,34, NOTE_F4,37, NOTE_F4,37, NOTE_F4,37, NOTE_F4,1, NOTE_REST,0, NOTE_F5,36, NOTE_F5,37,
 NOTE_F5,38, NOTE_F5,38, NOTE_REST,0, NOTE_C4,153, NOTE_REST,149, NOTE_GS5,148, NOTE_REST,302, NOTE_AS4,149,
 NOTE_REST,296, NOTE_C5,153, NOTE_REST,146, NOTE_REST,37, NOTE_REST,37, NOTE_REST,37, NOTE_REST,38, NOTE_REST,1,
 NOTE_G4,36, NOTE_G4,38, NOTE_G4,38, NOTE_G4,38, NOTE_REST,0, NOTE_G4,38, NOTE_G4,116, NOTE_REST,149,
 NOTE_C4,148, NOTE_REST,148, NOTE_C4,153, NOTE_REST,146, NOTE_REST,3, NOTE_E6,34, NOTE_E6,37, NOTE_E6,37,
 NOTE_E6,38, NOTE_E6,1, NOTE_REST,0, NOTE_G4,36, NOTE_G4,38, NOTE_G4,38, NOTE_G4,38, NOTE_REST,0,
 NOTE_D6,38, NOTE_D6,116, NOTE_REST,0, NOTE_B5,149, NOTE_REST,0, NOTE_C5,148, NOTE_REST,0, NOTE_C6,148,
 NOTE_REST,0, NOTE_F4,153, NOTE_REST,0, NOTE_E5,149, NOTE_REST,0, NOTE_F5,148, NOTE_REST,0, NOTE_C5,148,
 NOTE_REST,0, NOTE_C5,153, NOTE_REST,0, NOTE_C5,146, NOTE_C5,3, NOTE_REST,0, NOTE_F4,34, NOTE_F4,37,
 NOTE_F4,37, NOTE_F4,37, NOTE_F4,1, NOTE_REST,0, NOTE_F5,36, NOTE_F5,37, NOTE_F5,38, NOTE_F5,38,
 NOTE_REST,0, NOTE_C4,153, NOTE_REST,149, NOTE_E6,148, NOTE_REST,0, NOTE_E4,148, NOTE_REST,0, NOTE_D6,153,
 NOTE_REST,0, NOTE_B5,149, NOTE_REST,0, NOTE_G4,148, NOTE_REST,0, NOTE_C6,148, NOTE_REST,154, NOTE_F6,149,
 NOTE_REST,148, NOTE_F6,148, NOTE_REST,0, NOTE_F6,153, NOTE_REST,146, NOTE_REST,3, NOTE_G4,34, NOTE_G4,37,
 NOTE_G4,37, NOTE_G4,37, NOTE_G4,1, NOTE_REST,36, NOTE_REST,37, NOTE_REST,38, NOTE_REST,38, NOTE_C4,153,
 NOTE_REST,146, NOTE_REST,3, NOTE_E6,34, NOTE_E6,37, NOTE_E6,37, NOTE_E6,38, NOTE_E6,1, NOTE_REST,0,
 NOTE_G4,36, NOTE_G4,38, NOTE_G4,38, NOTE_G4,38, NOTE_REST,0, NOTE_D6,38, NOTE_D6,116, NOTE_REST,0,
 NOTE_B5,149, NOTE_REST,0, NOTE_C5,148, NOTE_REST,0, NOTE_C6,148, NOTE_REST,0, NOTE_F4,153, NOTE_REST,0,
 NOTE_E5,149, NOTE_REST,0, NOTE_F5,148, NOTE_REST,0, NOTE_C5,148, NOTE_REST,0, NOTE_C5,153, NOTE_REST,0,
 NOTE_C5,146, NOTE_C5,3, NOTE_REST,0, NOTE_F4,34, NOTE_F4,37, NOTE_F4,37, NOTE_F4,37, NOTE_F4,1,
 NOTE_REST,0, NOTE_F5,36, NOTE_F5,37, NOTE_F5,38, NOTE_F5,38, NOTE_REST,0, NOTE_C4,153, NOTE_REST,149,
 NOTE_GS5,148, NOTE_REST,302, NOTE_AS4,149, NOTE_REST,296, NOTE_C5,153, NOTE_REST,146, NOTE_REST,37, NOTE_REST,37,
 NOTE_REST,37, NOTE_REST,38, NOTE_REST,1, NOTE_G4,36, NOTE_G4,38, NOTE_G4,38, NOTE_G4,38, NOTE_REST,0,
 NOTE_G4,38, NOTE_G4,116, NOTE_REST,149, NOTE_C4,148, NOTE_REST,148, NOTE_GS5,153, NOTE_REST,0, NOTE_GS5,149,
 NOTE_REST,148, NOTE_DS4,148, NOTE_REST,154, NOTE_GS5,149, NOTE_REST,0, NOTE_GS4,148, NOTE_REST,148, NOTE_G4,153,
 NOTE_REST,0, NOTE_E5,149, NOTE_REST,148, NOTE_C4,148, NOTE_REST,0, NOTE_C5,153, NOTE_REST,149, NOTE_G3,148,
 NOTE_REST,148, NOTE_GS5,153, NOTE_REST,0, NOTE_GS5,149, NOTE_REST,148, NOTE_DS4,148, NOTE_REST,154, NOTE_GS5,149,
 NOTE_REST,0, NOTE_GS4,148, NOTE_REST,0, NOTE_G5,148, NOTE_REST,0, NOTE_G4,153, NOTE_REST,297, NOTE_C4,148,
 NOTE_REST,303, NOTE_G3,148, NOTE_REST,148, NOTE_GS5,153, NOTE_REST,0, NOTE_GS5,149, NOTE_REST,148, NOTE_DS4,148,
 NOTE_REST,154, NOTE_GS5,149, NOTE_REST,0, NOTE_GS4,148, NOTE_REST,148, NOTE_G4,153, NOTE_REST,0, NOTE_E5,149,
 NOTE_REST,148, NOTE_C4,148, NOTE_REST,0, NOTE_C5,153, NOTE_REST,146, NOTE_REST,3, NOTE_G3,34, NOTE_G3,37,
 NOTE_G3,37, NOTE_G3,38, NOTE_G3,1, NOTE_REST,36, NOTE_REST,38, NOTE_REST,38, NOTE_REST,38, NOTE_FS5,38,
 NOTE_FS5,116, NOTE_REST,0, NOTE_FS5,149, NOTE_REST,148, NOTE_D4,148, NOTE_REST,154, NOTE_D4,149, NOTE_REST,0,
 NOTE_D4,148, NOTE_REST,148, NOTE_G5,153, NOTE_REST,446, NOTE_G4,153, NOTE_REST,146, NOTE_REST,37, NOTE_REST,37,
 NOTE_REST,37, NOTE_REST,38, NOTE_REST,38, NOTE_REST,38, NOTE_REST,38, NOTE_REST,38, NOTE_E5,38, NOTE_E5,116,
 NOTE_REST,297, NOTE_C5,148, NOTE_REST,303, NOTE_C4,148, NOTE_REST,302, NOTE_F4,146, NOTE_F4,3, NOTE_REST,34,
 NOTE_REST,37, NOTE_REST,37, NOTE_REST,37, NOTE_REST,1, NOTE_D5,36, NOTE_D5,37, NOTE_D5,38, NOTE_D5,38,
 NOTE_REST,0, NOTE_REST,153, NOTE_CS5,146, NOTE_CS5,3, NOTE_REST,0, NOTE_C5,34, NOTE_C5,37, NOTE_C5,37,
 NOTE_C5,37, NOTE_C5,1, NOTE_REST,36, NOTE_REST,37, NOTE_REST,38, NOTE_REST,38, NOTE_C5,103, NOTE_REST,100,
 NOTE_C5,99, NOTE_REST,100, NOTE_E5,96, NOTE_REST,100, NOTE_F5,153, NOTE_REST,149, NOTE_D5,148, NOTE_REST,0,
 NOTE_E5,148, NOTE_REST,154, NOTE_C5,149, NOTE_REST,148, NOTE_A4,148, NOTE_REST,0, NOTE_B4,153, NOTE_REST,0,
 NOTE_G4,146, NOTE_G4,3, NOTE_REST,34, NOTE_REST,37, NOTE_REST,37, NOTE_REST,38, NOTE_REST,38, NOTE_REST,38,
 NOTE_REST,38, NOTE_REST,38, NOTE_E5,38, NOTE_E5,116, NOTE_REST,297, NOTE_C5,148, NOTE_REST,303, NOTE_C4,148,
 NOTE_REST,302, NOTE_F4,146, NOTE_F4,3, NOTE_REST,34, NOTE_REST,37, NOTE_REST,37, NOTE_REST,37, NOTE_REST,1,
 NOTE_D5,36, NOTE_D5,37, NOTE_D5,38, NOTE_D5,38, NOTE_REST,0, NOTE_REST,153, NOTE_CS5,146, NOTE_CS5,3,
 NOTE_REST,0, NOTE_C5,34, NOTE_C5,37, NOTE_C5,37, NOTE_C5,37, NOTE_C5,1, NOTE_REST,36, NOTE_REST,37,
 NOTE_REST,38, NOTE_REST,38, NOTE_C5,103, NOTE_REST,100, NOTE_C5,99, NOTE_REST,100, NOTE_E5,96, NOTE_REST,100,
 NOTE_F5,153, NOTE_REST,149, NOTE_D5,148, NOTE_REST,0, NOTE_E5,148, NOTE_REST,154, NOTE_C5,149, NOTE_REST,148,
 NOTE_A4,148, NOTE_REST,0, NOTE_B4,153, NOTE_REST,0, NOTE_G4,146, NOTE_G4,3, NOTE_REST,34, NOTE_REST,37,
 NOTE_REST,37, NOTE_REST,38, NOTE_REST,38, NOTE_REST,38, NOTE_REST,38, NOTE_REST,38, NOTE_C6,38, NOTE_C6,116,
 NOTE_REST,0, NOTE_A5,149, NOTE_REST,148, NOTE_FS4,148, NOTE_REST,0, NOTE_G4,153, NOTE_REST,149, NOTE_E5,148,
 NOTE_REST,148, NOTE_F4,153, NOTE_REST,0, NOTE_C6,146, NOTE_C6,3, NOTE_REST,0, NOTE_F4,34, NOTE_F4,37,
 NOTE_F4,37, NOTE_F4,37, NOTE_F4,1, NOTE_REST,0, NOTE_C6,36, NOTE_C6,37, NOTE_C6,38, NOTE_C6,38,
 NOTE_REST,0, NOTE_C5,153, NOTE_REST,0, NOTE_C5,146, NOTE_C5,3, NOTE_REST,0, NOTE_F4,34, NOTE_F4,37,
 NOTE_F4,37, NOTE_F4,37, NOTE_F4,1, NOTE_REST,36, NOTE_REST,37, NOTE_REST,38, NOTE_REST,38, NOTE_G5,103,
 NOTE_REST,50, NOTE_REST,49, NOTE_F6,96, NOTE_F6,2, NOTE_REST,34, NOTE_REST,37, NOTE_REST,28, NOTE_F6,9,
 NOTE_F6,37, NOTE_F6,1, NOTE_F6,36, NOTE_F6,12, NOTE_REST,25, NOTE_REST,38, NOTE_REST,38, NOTE_REST,0,
 NOTE_F6,103, NOTE_REST,50, NOTE_REST,49, NOTE_E6,99, NOTE_REST,0, NOTE_B4,99, NOTE_B4,48, NOTE_REST,48,
 NOTE_REST,100, NOTE_G4,153, NOTE_REST,0, NOTE_A5,146, NOTE_A5,3, NOTE_REST,0, NOTE_G4,34, NOTE_G4,37,
 NOTE_G4,37, NOTE_G4,37, NOTE_G4,1, NOTE_REST,0, NOTE_F5,36, NOTE_F5,37, NOTE_F5,38, NOTE_F5,38,
 NOTE_REST,0, NOTE_C5,153, NOTE_REST,0, NOTE_C5,146, NOTE_C5,3, NOTE_REST,0, NOTE_G4,34, NOTE_G4,37,
 NOTE_G4,37, NOTE_G4,38, NOTE_G4,1, NOTE_REST,36, NOTE_REST,38, NOTE_REST,38, NOTE_REST,38, NOTE_C6,38,
 NOTE_C6,116, NOTE_REST,0, NOTE_A5,149, NOTE_REST,148, NOTE_FS4,148, NOTE_REST,0, NOTE_G4,153, NOTE_REST,149,
 NOTE_E5,148, NOTE_REST,148, NOTE_F4,153, NOTE_REST,0, NOTE_C6,146, NOTE_C6,3, NOTE_REST,0, NOTE_F4,34,
 NOTE_F4,37, NOTE_F4,37, NOTE_F4,37, NOTE_F4,1, NOTE_REST,0, NOTE_C6,36, NOTE_C6,37, NOTE_C6,38,
 NOTE_C6,38, NOTE_REST,0, NOTE_C5,153, NOTE_REST,0, NOTE_C5,146, NOTE_C5,3, NOTE_REST,0, NOTE_F4,34,
 NOTE_F4,37, NOTE_F4,37, NOTE_F4,37, NOTE_F4,1, NOTE_REST,36, NOTE_REST,37, NOTE_REST,38, NOTE_REST,38,
 NOTE_G5,153, NOTE_REST,0, NOTE_D6,146, NOTE_D6,3, NOTE_REST,34, NOTE_REST,37, NOTE_REST,37, NOTE_REST,38,
 NOTE_REST,1, NOTE_D6,36, NOTE_D6,38, NOTE_D6,38, NOTE_D6,38, NOTE_REST,0, NOTE_D6,38, NOTE_D6,65,
 NOTE_REST,100, NOTE_C6,99, NOTE_REST,100, NOTE_B4,96, NOTE_REST,100, NOTE_C5,153, NOTE_REST,0, NOTE_E5,146,
 NOTE_E5,3, NOTE_REST,0, NOTE_G4,34, NOTE_G4,37, NOTE_G4,37, NOTE_G4,38, NOTE_G4,1, NOTE_REST,0,
 NOTE_E5,36, NOTE_E5,38, NOTE_E5,38, NOTE_E5,38, NOTE_REST,0, NOTE_C4,38, NOTE_C4,116, NOTE_REST,446,
 NOTE_C6,153, NOTE_REST,0, NOTE_A5,149, NOTE_REST,148, NOTE_FS4,148, NOTE_REST,0, NOTE_G4,153, NOTE_REST,149,
 NOTE_E5,148, NOTE_REST,148, NOTE_F4,153, NOTE_REST,0, NOTE_C6,146, NOTE_C6,3, NOTE_REST,0, NOTE_F4,34,
 NOTE_F4,37, NOTE_F4,37, NOTE_F4,37, NOTE_F4,1, NOTE_REST,0, NOTE_C6,36, NOTE_C6,37, NOTE_C6,38,
 NOTE_C6,38, NOTE_REST,0, NOTE_C5,153, NOTE_REST,0, NOTE_C5,146, NOTE_C5,3, NOTE_REST,0, NOTE_F4,34,
 NOTE_F4,37, NOTE_F4,37, NOTE_F4,37, NOTE_F4,1, NOTE_REST,36, NOTE_REST,37, NOTE_REST,38, NOTE_REST,38,
 NOTE_G5,103, NOTE_REST,50, NOTE_REST,49, NOTE_F6,96, NOTE_F6,2, NOTE_REST,34, NOTE_REST,37, NOTE_REST,28,
 NOTE_F6,9, NOTE_F6,37, NOTE_F6,1, NOTE_F6,36, NOTE_F6,12, NOTE_REST,25, NOTE_REST,38, NOTE_REST,38,
 NOTE_REST,0, NOTE_F6,103, NOTE_REST,50, NOTE_REST,49, NOTE_E6,99, NOTE_REST,0, NOTE_B4,99, NOTE_B4,48,
 NOTE_REST,48, NOTE_REST,100, NOTE_G4,153, NOTE_REST,0, NOTE_A5,146, NOTE_A5,3, NOTE_REST,0, NOTE_G4,34,
 NOTE_G4,37, NOTE_G4,37, NOTE_G4,37, NOTE_G4,1, NOTE_REST,0, NOTE_F5,36, NOTE_F5,37, NOTE_F5,38,
 NOTE_F5,38, NOTE_REST,0, NOTE_C5,153, NOTE_REST,0, NOTE_C5,146, NOTE_C5,3, NOTE_REST,0, NOTE_G4,34,
 NOTE_G4,37, NOTE_G4,37, NOTE_G4,38, NOTE_G4,1, NOTE_REST,36, NOTE_REST,38, NOTE_REST,38, NOTE_REST,38,
 NOTE_C6,38, NOTE_C6,116, NOTE_REST,0, NOTE_A5,149, NOTE_REST,148, NOTE_FS4,148, NOTE_REST,0, NOTE_G4,153,
 NOTE_REST,149, NOTE_E5,148, NOTE_REST,148, NOTE_F4,153, NOTE_REST,0, NOTE_C6,146, NOTE_C6,3, NOTE_REST,0,
 NOTE_F4,34, NOTE_F4,37, NOTE_F4,37, NOTE_F4,37, NOTE_F4,1, NOTE_REST,0, NOTE_C6,36, NOTE_C6,37,
 NOTE_C6,38, NOTE_C6,38, NOTE_REST,0, NOTE_C5,153, NOTE_REST,0, NOTE_C5,146, NOTE_C5,3, NOTE_REST,0,
 NOTE_F4,34, NOTE_F4,37, NOTE_F4,37, NOTE_F4,37, NOTE_F4,1, NOTE_REST,36, NOTE_REST,37, NOTE_REST,38,
 NOTE_REST,38, NOTE_G5,153, NOTE_REST,0, NOTE_D6,146, NOTE_D6,3, NOTE_REST,34, NOTE_REST,37, NOTE_REST,37,
 NOTE_REST,38, NOTE_REST,1, NOTE_D6,36, NOTE_D6,38, NOTE_D6,38, NOTE_D6,38, NOTE_REST,0, NOTE_D6,38,
 NOTE_D6,65, NOTE_REST,100, NOTE_C6,99, NOTE_REST,100, NOTE_B4,96, NOTE_REST,100, NOTE_C5,153, NOTE_REST,0,
 NOTE_E5,146, NOTE_E5,3, NOTE_REST,0, NOTE_G4,34, NOTE_G4,37, NOTE_G4,37, NOTE_G4,38, NOTE_G4,1,
 NOTE_REST,0, NOTE_E5,36, NOTE_E5,38, NOTE_E5,38, NOTE_E5,38, NOTE_REST,0, NOTE_C4,38, NOTE_C4,116,
 NOTE_REST,446, NOTE_GS5,153, NOTE_REST,0, NOTE_GS5,149, NOTE_REST,148, NOTE_DS4,148, NOTE_REST,154, NOTE_GS5,149,
 NOTE_REST,0, NOTE_GS4,148, NOTE_REST,148, NOTE_G4,153, NOTE_REST,0, NOTE_E5,149, NOTE_REST,148, NOTE_C4,148,
 NOTE_REST,0, NOTE_C5,153, NOTE_REST,149, NOTE_G3,148, NOTE_REST,148, NOTE_GS5,153, NOTE_REST,0, NOTE_GS5,149,
 NOTE_REST,148, NOTE_DS4,148, NOTE_REST,154, NOTE_GS5,149, NOTE_REST,0, NOTE_GS4,148, NOTE_REST,0, NOTE_G5,148,
 NOTE_REST,0, NOTE_G4,153, NOTE_REST,297, NOTE_C4,148, NOTE_REST,303, NOTE_G3,148, NOTE_REST,148, NOTE_GS5,153,
 NOTE_REST,0, NOTE_GS5,149, NOTE_REST,148, NOTE_DS4,148, NOTE_REST,154, NOTE_GS5,149, NOTE_REST,0, NOTE_GS4,148,
 NOTE_REST,148, NOTE_G4,153, NOTE_REST,0, NOTE_E5,149, NOTE_REST,148, NOTE_C4,148, NOTE_REST,0, NOTE_C5,153,
 NOTE_REST,146, NOTE_REST,3, NOTE_G3,34, NOTE_G3,37, NOTE_G3,37, NOTE_G3,38, NOTE_G3,1, NOTE_REST,36,
 NOTE_REST,38, NOTE_REST,38, NOTE_REST,38, NOTE_FS5,38, NOTE_FS5,116, NOTE_REST,0, NOTE_FS5,149, NOTE_REST,148,
 NOTE_D4,148, NOTE_REST,154, NOTE_D4,149, NOTE_REST,0, NOTE_D4,148, NOTE_REST,148, NOTE_G5,153, NOTE_REST,446,
 NOTE_G4,153, NOTE_REST,146, NOTE_REST,37, NOTE_REST,37, NOTE_REST,37, NOTE_REST,38, NOTE_REST,38, NOTE_REST,38,
 NOTE_REST,38, NOTE_REST,38, NOTE_C6,38, NOTE_C6,116, NOTE_REST,0, NOTE_A5,149, NOTE_REST,148, NOTE_FS4,148,
 NOTE_REST,0, NOTE_G4,153, NOTE_REST,149, NOTE_E5,148, NOTE_REST,148, NOTE_F4,153, NOTE_REST,0, NOTE_C6,146,
 NOTE_C6,3, NOTE_REST,0, NOTE_F4,34, NOTE_F4,37, NOTE_F4,37, NOTE_F4,37, NOTE_F4,1, NOTE_REST,0,
 NOTE_C6,36, NOTE_C6,37, NOTE_C6,38, NOTE_C6,38, NOTE_REST,0, NOTE_C5,153, NOTE_REST,0, NOTE_C5,146,
 NOTE_C5,3, NOTE_REST,0, NOTE_F4,34, NOTE_F4,37, NOTE_F4,37, NOTE_F4,37, NOTE_F4,1, NOTE_REST,36,
 NOTE_REST,37, NOTE_REST,38, NOTE_REST,38, NOTE_G5,103, NOTE_REST,50, NOTE_REST,49, NOTE_F6,96, NOTE_F6,2,
 NOTE_REST,34, NOTE_REST,37, NOTE_REST,28, NOTE_F6,9, NOTE_F6,37, NOTE_F6,1, NOTE_F6,36, NOTE_F6,12,
 NOTE_REST,25, NOTE_REST,38, NOTE_REST,38, NOTE_REST,0, NOTE_F6,103, NOTE_REST,50, NOTE_REST,49, NOTE_E6,99,
 NOTE_REST,0, NOTE_B4,99, NOTE_B4,48, NOTE_REST,48, NOTE_REST,100, NOTE_G4,153, NOTE_REST,0, NOTE_A5,146,
 NOTE_A5,3, NOTE_REST,0, NOTE_G4,34, NOTE_G4,37, NOTE_G4,37, NOTE_G4,37, NOTE_G4,1, NOTE_REST,0,
 NOTE_F5,36, NOTE_F5,37, NOTE_F5,38, NOTE_F5,38, NOTE_REST,0, NOTE_C5,153, NOTE_REST,0, NOTE_C5,146,
 NOTE_C5,3, NOTE_REST,0, NOTE_G4,34, NOTE_G4,37, NOTE_G4,37, NOTE_G4,38, NOTE_G4,1, NOTE_REST,36,
 NOTE_REST,38, NOTE_REST,38, NOTE_REST,38, NOTE_C6,38, NOTE_C6,116, NOTE_REST,0, NOTE_A5,149, NOTE_REST,148,
 NOTE_FS4,148, NOTE_REST,0, NOTE_G4,153, NOTE_REST,149, NOTE_E5,148, NOTE_REST,148, NOTE_F4,153, NOTE_REST,0,
 NOTE_C6,146, NOTE_C6,3, NOTE_REST,0, NOTE_F4,34, NOTE_F4,37, NOTE_F4,37, NOTE_F4,37, NOTE_F4,1,
 NOTE_REST,0, NOTE_C6,36, NOTE_C6,37, NOTE_C6,38, NOTE_C6,38, NOTE_REST,0, NOTE_C5,153, NOTE_REST,0,
 NOTE_C5,146, NOTE_C5,3, NOTE_REST,0, NOTE_F4,34, NOTE_F4,37, NOTE_F4,37, NOTE_F4,37, NOTE_F4,1,
 NOTE_REST,36, NOTE_REST,37, NOTE_REST,38, NOTE_REST,38, NOTE_G5,153, NOTE_REST,0, NOTE_D6,146, NOTE_D6,3,
 NOTE_REST,34, NOTE_REST,37, NOTE_REST,37, NOTE_REST,38, NOTE_REST,1, NOTE_D6,36, NOTE_D6,38, NOTE_D6,38,
 NOTE_D6,38, NOTE_REST,0, NOTE_D6,38, NOTE_D6,65, NOTE_REST,100, NOTE_C6,99, NOTE_REST,100, NOTE_B4,96,
 NOTE_REST,100, NOTE_C5,153, NOTE_REST,0, NOTE_E5,149, NOTE_REST,0, NOTE_G4,148, NOTE_REST,0, NOTE_E5,148,
 NOTE_REST,0, NOTE_C4,153, NOTE_REST,446, NOTE_G4,37, NOTE_G4,116, NOTE_REST,297, NOTE_C5,148, NOTE_REST,303,
 NOTE_C4,148, NOTE_REST,302, NOTE_F4,146, NOTE_F4,3, NOTE_REST,34, NOTE_REST,37, NOTE_REST,37, NOTE_REST,37,
 NOTE_REST,1, NOTE_D5,36, NOTE_D5,37, NOTE_D5,38, NOTE_D5,38, NOTE_REST,0, NOTE_REST,153, NOTE_CS5,146,
 NOTE_CS5,3, NOTE_REST,0, NOTE_C5,34, NOTE_C5,37, NOTE_C5,37, NOTE_C5,37, NOTE_C5,1, NOTE_REST,36,
 NOTE_REST,37, NOTE_REST,38, NOTE_REST,38, NOTE_C5,103, NOTE_REST,100, NOTE_C5,99, NOTE_REST,100, NOTE_E5,96,
 NOTE_REST,100, NOTE_F5,153, NOTE_REST,149, NOTE_D5,148, NOTE_REST,0, NOTE_E5,148, NOTE_REST,154, NOTE_C5,149,
 NOTE_REST,148, NOTE_A4,148, NOTE_REST,0, NOTE_B4,153, NOTE_REST,0, NOTE_G4,146, NOTE_G4,3, NOTE_REST,34,
 NOTE_REST,37, NOTE_REST,37, NOTE_REST,38, NOTE_REST,38, NOTE_REST,38, NOTE_REST,38, NOTE_REST,38, NOTE_E5,38,
 NOTE_E5,116, NOTE_REST,297, NOTE_C5,148, NOTE_REST,303, NOTE_C4,148, NOTE_REST,302, NOTE_F4,146, NOTE_F4,3,
 NOTE_REST,34, NOTE_REST,37, NOTE_REST,37, NOTE_REST,37, NOTE_REST,1, NOTE_D5,36, NOTE_D5,37, NOTE_D5,38,
 NOTE_D5,38, NOTE_REST,0, NOTE_REST,153, NOTE_CS5,146, NOTE_CS5,3, NOTE_REST,0, NOTE_C5,34, NOTE_C5,37,
 NOTE_C5,37, NOTE_C5,37, NOTE_C5,1, NOTE_REST,36, NOTE_REST,37, NOTE_REST,38, NOTE_REST,38, NOTE_C5,103,
 NOTE_REST,100, NOTE_C5,99, NOTE_REST,100, NOTE_E5,96, NOTE_REST,100, NOTE_F5,153, NOTE_REST,149, NOTE_D5,148,
 NOTE_REST,0, NOTE_E5,148, NOTE_REST,154, NOTE_C5,149, NOTE_REST,148, NOTE_A4,148, NOTE_REST,0, NOTE_B4,153,
 NOTE_REST,0, NOTE_G4,146, NOTE_G4,3, NOTE_REST,34, NOTE_REST,37, NOTE_REST,37, NOTE_REST,37, NOTE_REST,37,
 NOTE_REST,37, NOTE_REST,38, NOTE_REST,38, NOTE_C4,153, NOTE_REST,146, NOTE_REST,3, NOTE_E6,34, NOTE_E6,37,
 NOTE_E6,37, NOTE_E6,38, NOTE_E6,1, NOTE_REST,0, NOTE_G4,36, NOTE_G4,38, NOTE_G4,38, NOTE_G4,38,
 NOTE_REST,0, NOTE_D6,38, NOTE_D6,116, NOTE_REST,0, NOTE_B5,149, NOTE_REST,0, NOTE_C5,148, NOTE_REST,0,
 NOTE_C6,148, NOTE_REST,0, NOTE_F4,153, NOTE_REST,0, NOTE_E5,149, NOTE_REST,0, NOTE_F5,148, NOTE_REST,0,
 NOTE_C5,148, NOTE_REST,0, NOTE_C5,153, NOTE_REST,0, NOTE_C5,146, NOTE_C5,3, NOTE_REST,0, NOTE_F4,34,
 NOTE_F4,37, NOTE_F4,37, NOTE_F4,37, NOTE_F4,1, NOTE_REST,0, NOTE_F5,36, NOTE_F5,37, NOTE_F5,38,
 NOTE_F5,38, NOTE_REST,0, NOTE_C4,153, NOTE_REST,149, NOTE_E6,148, NOTE_REST,0, NOTE_E4,148, NOTE_REST,0,
 NOTE_D6,153, NOTE_REST,0, NOTE_B5,149, NOTE_REST,0, NOTE_G4,148, NOTE_REST,0, NOTE_C6,148, NOTE_REST,154,
 NOTE_F6,149, NOTE_REST,148, NOTE_F6,148, NOTE_REST,0, NOTE_F6,153, NOTE_REST,146, NOTE_REST,3, NOTE_G4,34,
 NOTE_G4,37, NOTE_G4,37, NOTE_G4,37, NOTE_G4,1, NOTE_REST,36, NOTE_REST,37, NOTE_REST,38, NOTE_REST,38,
 NOTE_C4,153, NOTE_REST,146, NOTE_REST,3, NOTE_E6,34, NOTE_E6,37, NOTE_E6,37, NOTE_E6,38, NOTE_E6,1,
 NOTE_REST,0, NOTE_G4,36, NOTE_G4,38, NOTE_G4,38, NOTE_G4,38, NOTE_REST,0, NOTE_D6,38, NOTE_D6,116,
 NOTE_REST,0, NOTE_B5,149, NOTE_REST,0, NOTE_C5,148, NOTE_REST,0, NOTE_C6,148, NOTE_REST,0, NOTE_F4,153,
 NOTE_REST,0, NOTE_E5,149, NOTE_REST,0, NOTE_F5,148, NOTE_REST,0, NOTE_C5,148, NOTE_REST,0, NOTE_C5,153,
 NOTE_REST,0, NOTE_C5,146, NOTE_C5,3, NOTE_REST,0, NOTE_F4,34, NOTE_F4,37, NOTE_F4,37, NOTE_F4,37,
 NOTE_F4,1, NOTE_REST,0, NOTE_F5,36, NOTE_F5,37, NOTE_F5,38, NOTE_F5,38, NOTE_REST,0, NOTE_C4,153,
 NOTE_REST,149, NOTE_GS5,148, NOTE_REST,302, NOTE_AS4,149, NOTE_REST,296, NOTE_C5,153, NOTE_REST,146, NOTE_REST,37,
 NOTE_REST,37, NOTE_REST,37, NOTE_REST,38, NOTE_REST,1, NOTE_G4,36, NOTE_G4,38, NOTE_G4,38, NOTE_G4,38,
 NOTE_REST,0, NOTE_G4,38, NOTE_G4,116, NOTE_REST,149, NOTE_C4,148, NOTE_REST,148, NOTE_C4,153, NOTE_REST,146,
 NOTE_REST,3, NOTE_E6,34, NOTE_E6,37, NOTE_E6,37, NOTE_E6,38, NOTE_E6,1, NOTE_REST,0, NOTE_G4,36,
 NOTE_G4,38, NOTE_G4,38, NOTE_G4,38, NOTE_REST,0, NOTE_D6,38, NOTE_D6,116, NOTE_REST,0, NOTE_B5,149,
 NOTE_REST,0, NOTE_C5,148, NOTE_REST,0, NOTE_C6,148, NOTE_REST,0, NOTE_F4,153, NOTE_REST,0, NOTE_E5,149,
 NOTE_REST,0, NOTE_F5,148, NOTE_REST,0, NOTE_C5,148, NOTE_REST,0, NOTE_C5,153, NOTE_REST,0, NOTE_C5,146,
 NOTE_C5,3, NOTE_REST,0, NOTE_F4,34, NOTE_F4,37, NOTE_F4,37, NOTE_F4,37, NOTE_F4,1, NOTE_REST,0,
 NOTE_F5,36, NOTE_F5,37, NOTE_F5,38, NOTE_F5,38, NOTE_REST,0, NOTE_C4,153, NOTE_REST,149, NOTE_E6,148,
 NOTE_REST,0, NOTE_E4,148, NOTE_REST,0, NOTE_D6,153, NOTE_REST,0, NOTE_B5,149, NOTE_REST,0, NOTE_G4,148,
 NOTE_REST,0, NOTE_C6,148, NOTE_REST,154, NOTE_F6,149, NOTE_REST,148, NOTE_F6,148, NOTE_REST,0, NOTE_F6,153,
 NOTE_REST,146, NOTE_REST,3, NOTE_G4,34, NOTE_G4,37, NOTE_G4,37, NOTE_G4,37, NOTE_G4,1, NOTE_REST,36,
 NOTE_REST,37, NOTE_REST,38, NOTE_REST,38, NOTE_C4,153, NOTE_REST,146, NOTE_REST,3, NOTE_E6,34, NOTE_E6,37,
 NOTE_E6,37, NOTE_E6,38, NOTE_E6,1, NOTE_REST,0, NOTE_G4,36, NOTE_G4,38, NOTE_G4,38, NOTE_G4,38,
 NOTE_REST,0, NOTE_D6,38, NOTE_D6,116, NOTE_REST,0, NOTE_B5,149, NOTE_REST,0, NOTE_C5,148, NOTE_REST,0,
 NOTE_C6,148, NOTE_REST,0, NOTE_F4,153, NOTE_REST,0, NOTE_E5,149, NOTE_REST,0, NOTE_F5,148, NOTE_REST,0,
 NOTE_C5,148, NOTE_REST,0, NOTE_C5,153, NOTE_REST,0, NOTE_C5,146, NOTE_C5,3, NOTE_REST,0, NOTE_F4,34,
 NOTE_F4,37, NOTE_F4,37, NOTE_F4,37, NOTE_F4,1, NOTE_REST,0, NOTE_F5,36, NOTE_F5,37, NOTE_F5,38,
 NOTE_F5,38, NOTE_REST,0, NOTE_C4,153, NOTE_REST,149, NOTE_GS5,148, NOTE_REST,302, NOTE_AS4,149, NOTE_REST,296,
 NOTE_C5,153, NOTE_REST,146, NOTE_REST,37, NOTE_REST,37, NOTE_REST,37, NOTE_REST,38, NOTE_REST,1, NOTE_G4,36,
 NOTE_G4,38, NOTE_G4,38, NOTE_G4,38, NOTE_REST,0, NOTE_G4,38, NOTE_G4,116, NOTE_REST,149, NOTE_C4,148,
 NOTE_REST,148, NOTE_GS5,153, NOTE_REST,0, NOTE_GS5,149, NOTE_REST,148, NOTE_DS4,148, NOTE_REST,154, NOTE_GS5,149,
 NOTE_REST,0, NOTE_GS4,148, NOTE_REST,148, NOTE_G4,153, NOTE_REST,0, NOTE_E5,149, NOTE_REST,148, NOTE_C4,148,
 NOTE_REST,0, NOTE_C5,153, NOTE_REST,149, NOTE_G3,148, NOTE_REST,148, NOTE_GS5,153, NOTE_REST,0, NOTE_GS5,149,
 NOTE_REST,148, NOTE_DS4,148, NOTE_REST,154, NOTE_GS5,149, NOTE_REST,0, NOTE_GS4,148, NOTE_REST,0, NOTE_G5,148,
 NOTE_REST,0, NOTE_G4,153, NOTE_REST,297, NOTE_C4,148, NOTE_REST,303, NOTE_G3,148, NOTE_REST,148, NOTE_GS5,153,
 NOTE_REST,0, NOTE_GS5,149, NOTE_REST,148, NOTE_DS4,148, NOTE_REST,154, NOTE_GS5,149, NOTE_REST,0, NOTE_GS4,148,
 NOTE_REST,148, NOTE_G4,153, NOTE_REST,0, NOTE_E5,149, NOTE_REST,148, NOTE_C4,148, NOTE_REST,0, NOTE_C5,153,
 NOTE_REST,146, NOTE_REST,3, NOTE_G3,34, NOTE_G3,37, NOTE_G3,37, NOTE_G3,38, NOTE_G3,1, NOTE_REST,36,
 NOTE_REST,38, NOTE_REST,38, NOTE_REST,38, NOTE_FS5,38, NOTE_FS5,116, NOTE_REST,0, NOTE_FS5,149, NOTE_REST,148,
 NOTE_D4,148, NOTE_REST,154, NOTE_D4,149, NOTE_REST,0, NOTE_D4,148, NOTE_REST,148, NOTE_G5,153, NOTE_REST,446,
 NOTE_G4,153, NOTE_REST,146, NOTE_REST,37, NOTE_REST,37, NOTE_REST,37, NOTE_REST,38, NOTE_REST,38, NOTE_REST,38,
 NOTE_REST,38, NOTE_REST,38, NOTE_E5,38, NOTE_E5,116, NOTE_REST,297, NOTE_C5,148, NOTE_REST,303, NOTE_C4,148,
 NOTE_REST,302, NOTE_F4,146, NOTE_F4,3, NOTE_REST,34, NOTE_REST,37, NOTE_REST,37, NOTE_REST,37, NOTE_REST,1,
 NOTE_D5,36, NOTE_D5,37, NOTE_D5,38, NOTE_D5,38, NOTE_REST,0, NOTE_REST,153, NOTE_CS5,146, NOTE_CS5,3,
 NOTE_REST,0, NOTE_C5,34, NOTE_C5,37, NOTE_C5,37, NOTE_C5,37, NOTE_C5,1, NOTE_REST,36, NOTE_REST,37,
 NOTE_REST,38, NOTE_REST,38, NOTE_C5,103, NOTE_REST,100, NOTE_C5,99, NOTE_REST,100, NOTE_E5,96, NOTE_REST,100,
 NOTE_F5,153, NOTE_REST,149, NOTE_D5,148, NOTE_REST,0, NOTE_E5,148, NOTE_REST,154, NOTE_C5,149, NOTE_REST,148,
 NOTE_A4,148, NOTE_REST,0, NOTE_B4,153, NOTE_REST,0, NOTE_G4,146, NOTE_G4,3, NOTE_REST,34, NOTE_REST,37,
 NOTE_REST,37, NOTE_REST,38, NOTE_REST,38, NOTE_REST,38, NOTE_REST,38, NOTE_REST,38, NOTE_E5,38, NOTE_E5,116,
 NOTE_REST,297, NOTE_C5,148, NOTE_REST,303, NOTE_C4,148, NOTE_REST,302, NOTE_F4,146, NOTE_F4,3, NOTE_REST,34,
 NOTE_REST,37, NOTE_REST,37, NOTE_REST,37, NOTE_REST,1, NOTE_D5,36, NOTE_D5,37, NOTE_D5,38, NOTE_D5,38,
 NOTE_REST,0, NOTE_REST,153, NOTE_CS5,146, NOTE_CS5,3, NOTE_REST,0, NOTE_C5,34, NOTE_C5,37, NOTE_C5,37,
 NOTE_C5,37, NOTE_C5,1, NOTE_REST,36, NOTE_REST,37, NOTE_REST,38, NOTE_REST,38, NOTE_C5,103, NOTE_REST,100,
 NOTE_C5,99, NOTE_REST,100, NOTE_E5,96, NOTE_REST,100, NOTE_F5,153, NOTE_REST,149, NOTE_D5,148, NOTE_REST,0,
 NOTE_E5,148, NOTE_REST,154, NOTE_C5,149, NOTE_REST,148, NOTE_A4,148, NOTE_REST,0, NOTE_B4,153, NOTE_REST,0,
 NOTE_G4,146, NOTE_G4,3, NOTE_REST,34, NOTE_REST,37, NOTE_REST,37, NOTE_REST,38, NOTE_REST,38, NOTE_REST,38,
 NOTE_REST,38, NOTE_REST,38, NOTE_C6,38, NOTE_C6,116, NOTE_REST,0, NOTE_A5,149, NOTE_REST,148, NOTE_FS4,148,
 NOTE_REST,0, NOTE_G4,153, NOTE_REST,149, NOTE_E5,148, NOTE_REST,148, NOTE_F4,153, NOTE_REST,0, NOTE_C6,146,
 NOTE_C6,3, NOTE_REST,0, NOTE_F4,34, NOTE_F4,37, NOTE_F4,37, NOTE_F4,37, NOTE_F4,1, NOTE_REST,0,
 NOTE_C6,36, NOTE_C6,37, NOTE_C6,38, NOTE_C6,38, NOTE_REST,0, NOTE_C5,153, NOTE_REST,0, NOTE_C5,146,
 NOTE_C5,3, NOTE_REST,0, NOTE_F4,34, NOTE_F4,37, NOTE_F4,37, NOTE_F4,37, NOTE_F4,1, NOTE_REST,36,
 NOTE_REST,37, NOTE_REST,38, NOTE_REST,38, NOTE_G5,103, NOTE_REST,50, NOTE_REST,49, NOTE_F6,96, NOTE_F6,2,
 NOTE_REST,34, NOTE_REST,37, NOTE_REST,28, NOTE_F6,9, NOTE_F6,37, NOTE_F6,1, NOTE_F6,36, NOTE_F6,12,
 NOTE_REST,25, NOTE_REST,38, NOTE_REST,38, NOTE_REST,0, NOTE_F6,103, NOTE_REST,50, NOTE_REST,49, NOTE_E6,99,
 NOTE_REST,0, NOTE_B4,99, NOTE_B4,48, NOTE_REST,48, NOTE_REST,100, NOTE_G4,153, NOTE_REST,0, NOTE_A5,146,
 NOTE_A5,3, NOTE_REST,0, NOTE_G4,34, NOTE_G4,37, NOTE_G4,37, NOTE_G4,37, NOTE_G4,1, NOTE_REST,0,
 NOTE_F5,36, NOTE_F5,37, NOTE_F5,38, NOTE_F5,38, NOTE_REST,0, NOTE_C5,153, NOTE_REST,0, NOTE_C5,146,
 NOTE_C5,3, NOTE_REST,0, NOTE_G4,34, NOTE_G4,37, NOTE_G4,37, NOTE_G4,38, NOTE_G4,1, NOTE_REST,36,
 NOTE_REST,38, NOTE_REST,38, NOTE_REST,38, NOTE_C6,38, NOTE_C6,116, NOTE_REST,0, NOTE_A5,149, NOTE_REST,148,
 NOTE_FS4,148, NOTE_REST,0, NOTE_G4,153, NOTE_REST,149, NOTE_E5,148, NOTE_REST,148, NOTE_F4,153, NOTE_REST,0,
 NOTE_C6,146, NOTE_C6,3, NOTE_REST,0, NOTE_F4,34, NOTE_F4,37, NOTE_F4,37, NOTE_F4,37, NOTE_F4,1,
 NOTE_REST,0, NOTE_C6,36, NOTE_C6,37, NOTE_C6,38, NOTE_C6,38, NOTE_REST,0, NOTE_C5,153, NOTE_REST,0,
 NOTE_C5,146, NOTE_C5,3, NOTE_REST,0, NOTE_F4,34, NOTE_F4,37, NOTE_F4,37, NOTE_F4,37, NOTE_F4,1,
 NOTE_REST,36, NOTE_REST,37, NOTE_REST,38, NOTE_REST,38, NOTE_G5,153, NOTE_REST,0, NOTE_D6,146, NOTE_D6,3,
 NOTE_REST,34, NOTE_REST,37, NOTE_REST,37, NOTE_REST,38, NOTE_REST,1, NOTE_D6,36, NOTE_D6,38, NOTE_D6,38,
 NOTE_D6,38, NOTE_REST,0, NOTE_D6,38, NOTE_D6,65, NOTE_REST,100, NOTE_C6,99, NOTE_REST,100, NOTE_B4,96,
 NOTE_REST,100, NOTE_C5,153, NOTE_REST,0, NOTE_E5,146, NOTE_E5,3, NOTE_REST,0, NOTE_G4,34, NOTE_G4,37,
 NOTE_G4,37, NOTE_G4,38, NOTE_G4,1, NOTE_REST,0, NOTE_E5,36, NOTE_E5,38, NOTE_E5,38, NOTE_E5,38,
 NOTE_REST,0, NOTE_C4,38, NOTE_C4,116, NOTE_REST,446, NOTE_C6,153, NOTE_REST,0, NOTE_A5,149, NOTE_REST,148,
 NOTE_FS4,148, NOTE_REST,0, NOTE_G4,153, NOTE_REST,149, NOTE_E5,148, NOTE_REST,148, NOTE_F4,153, NOTE_REST,0,
 NOTE_C6,146, NOTE_C6,3, NOTE_REST,0, NOTE_F4,34, NOTE_F4,37, NOTE_F4,37, NOTE_F4,37, NOTE_F4,1,
 NOTE_REST,0, NOTE_C6,36, NOTE_C6,37, NOTE_C6,38, NOTE_C6,38, NOTE_REST,0, NOTE_C5,153, NOTE_REST,0,
 NOTE_C5,146, NOTE_C5,3, NOTE_REST,0, NOTE_F4,34, NOTE_F4,37, NOTE_F4,37, NOTE_F4,37, NOTE_F4,1,
 NOTE_REST,36, NOTE_REST,37, NOTE_REST,38, NOTE_REST,38, NOTE_G5,103, NOTE_REST,50, NOTE_REST,49, NOTE_F6,96,
 NOTE_F6,2, NOTE_REST,34, NOTE_REST,37, NOTE_REST,28, NOTE_F6,9, NOTE_F6,37, NOTE_F6,1, NOTE_F6,36,
 NOTE_F6,12, NOTE_REST,25, NOTE_REST,38, NOTE_REST,38, NOTE_REST,0, NOTE_F6,103, NOTE_REST,50, NOTE_REST,49,
 NOTE_E6,99, NOTE_REST,0, NOTE_B4,99, NOTE_B4,48, NOTE_REST,48, NOTE_REST,100, NOTE_G4,153, NOTE_REST,0,
 NOTE_A5,146, NOTE_A5,3, NOTE_REST,0, NOTE_G4,34, NOTE_G4,37, NOTE_G4,37, NOTE_G4,37, NOTE_G4,1,
 NOTE_REST,0, NOTE_F5,36, NOTE_F5,37, NOTE_F5,38, NOTE_F5,38, NOTE_REST,0, NOTE_C5,153, NOTE_REST,0,
 NOTE_C5,146, NOTE_C5,3, NOTE_REST,0, NOTE_G4,34, NOTE_G4,37, NOTE_G4,37, NOTE_G4,38, NOTE_G4,1,
 NOTE_REST,36, NOTE_REST,38, NOTE_REST,38, NOTE_REST,38, NOTE_C6,38, NOTE_C6,116, NOTE_REST,0, NOTE_A5,149,
 NOTE_REST,148, NOTE_FS4,148, NOTE_REST,0, NOTE_G4,153, NOTE_REST,149, NOTE_E5,148, NOTE_REST,148, NOTE_F4,153,
 NOTE_REST,0, NOTE_C6,146, NOTE_C6,3, NOTE_REST,0, NOTE_F4,34, NOTE_F4,37, NOTE_F4,37, NOTE_F4,37,
 NOTE_F4,1, NOTE_REST,0, NOTE_C6,36, NOTE_C6,37, NOTE_C6,38, NOTE_C6,38, NOTE_REST,0, NOTE_C5,153,
 NOTE_REST,0, NOTE_C5,146, NOTE_C5,3, NOTE_REST,0, NOTE_F4,34, NOTE_F4,37, NOTE_F4,37, NOTE_F4,37,
 NOTE_F4,1, NOTE_REST,36, NOTE_REST,37, NOTE_REST,38, NOTE_REST,38, NOTE_G5,153, NOTE_REST,0, NOTE_D6,146,
 NOTE_D6,3, NOTE_REST,34, NOTE_REST,37, NOTE_REST,37, NOTE_REST,38, NOTE_REST,1, NOTE_D6,36, NOTE_D6,38,
 NOTE_D6,38, NOTE_D6,38, NOTE_REST,0, NOTE_D6,38, NOTE_D6,65, NOTE_REST,100, NOTE_C6,99, NOTE_REST,100,
 NOTE_B4,96, NOTE_REST,100, NOTE_C5,153, NOTE_REST,0, NOTE_E5,146, NOTE_E5,3, NOTE_REST,0, NOTE_G4,34,
 NOTE_G4,37, NOTE_G4,37, NOTE_G4,38, NOTE_G4,1, NOTE_REST,0, NOTE_E5,36, NOTE_E5,38, NOTE_E5,38,
 NOTE_E5,38, NOTE_REST,0, NOTE_C4,38, NOTE_C4,116, NOTE_REST,446, NOTE_GS5,153, NOTE_REST,0, NOTE_GS5,149,
 NOTE_REST,148, NOTE_DS4,148, NOTE_REST,154, NOTE_GS5,149, NOTE_REST,0, NOTE_GS4,148, NOTE_REST,148, NOTE_G4,153,
 NOTE_REST,0, NOTE_E5,149, NOTE_REST,148, NOTE_C4,148, NOTE_REST,0, NOTE_C5,153, NOTE_REST,149, NOTE_G3,148,
 NOTE_REST,148, NOTE_GS5,153, NOTE_REST,0, NOTE_GS5,149, NOTE_REST,148, NOTE_DS4,148, NOTE_REST,154, NOTE_GS5,149,
 NOTE_REST,0, NOTE_GS4,148, NOTE_REST,0, NOTE_G5,148, NOTE_REST,0, NOTE_G4,153, NOTE_REST,297, NOTE_C4,148,
 NOTE_REST,303, NOTE_G3,148, NOTE_REST,148, NOTE_GS5,153, NOTE_REST,0, NOTE_GS5,149, NOTE_REST,148, NOTE_DS4,148,
 NOTE_REST,154, NOTE_GS5,149, NOTE_REST,0, NOTE_GS4,148, NOTE_REST,148, NOTE_G4,153, NOTE_REST,0, NOTE_E5,149,
 NOTE_REST,148, NOTE_C4,148, NOTE_REST,0, NOTE_C5,153, NOTE_REST,146, NOTE_REST,3, NOTE_G3,34, NOTE_G3,37,
 NOTE_G3,37, NOTE_G3,38, NOTE_G3,1, NOTE_REST,36, NOTE_REST,38, NOTE_REST,38, NOTE_REST,38, NOTE_FS5,38,
 NOTE_FS5,116, NOTE_REST,0, NOTE_FS5,149, NOTE_REST,148, NOTE_D4,148, NOTE_REST,154, NOTE_D4,149, NOTE_REST,0,
 NOTE_D4,148, NOTE_REST,148, NOTE_G5,153, NOTE_REST,446, NOTE_G4,153, NOTE_REST,146, NOTE_REST,37, NOTE_REST,37,
 NOTE_REST,37, NOTE_REST,38, NOTE_REST,38, NOTE_REST,38, NOTE_REST,38, NOTE_REST,38, NOTE_C6,38, NOTE_C6,116,
 NOTE_REST,0, NOTE_A5,149, NOTE_REST,148, NOTE_FS4,148, NOTE_REST,0, NOTE_G4,153, NOTE_REST,149, NOTE_E5,148,
 NOTE_REST,148, NOTE_F4,153, NOTE_REST,0, NOTE_C6,146, NOTE_C6,3, NOTE_REST,0, NOTE_F4,34, NOTE_F4,37,
 NOTE_F4,37, NOTE_F4,37, NOTE_F4,1, NOTE_REST,0, NOTE_C6,36, NOTE_C6,37, NOTE_C6,38, NOTE_C6,38,
 NOTE_REST,0, NOTE_C5,153, NOTE_REST,0, NOTE_C5,146, NOTE_C5,3, NOTE_REST,0, NOTE_F4,34, NOTE_F4,37,
 NOTE_F4,37, NOTE_F4,37, NOTE_F4,1, NOTE_REST,36, NOTE_REST,37, NOTE_REST,38, NOTE_REST,38, NOTE_G5,103,
 NOTE_REST,50, NOTE_REST,49, NOTE_F6,96, NOTE_F6,2, NOTE_REST,34, NOTE_REST,37, NOTE_REST,28, NOTE_F6,9,
 NOTE_F6,37, NOTE_F6,1, NOTE_F6,36, NOTE_F6,12, NOTE_REST,25, NOTE_REST,38, NOTE_REST,38, NOTE_REST,0,
 NOTE_F6,103, NOTE_REST,50, NOTE_REST,49, NOTE_E6,99, NOTE_REST,0, NOTE_B4,99, NOTE_B4,48, NOTE_REST,48,
 NOTE_REST,100, NOTE_G4,153, NOTE_REST,0, NOTE_A5,146, NOTE_A5,3, NOTE_REST,0, NOTE_G4,34, NOTE_G4,37,
 NOTE_G4,37, NOTE_G4,37, NOTE_G4,1, NOTE_REST,0, NOTE_F5,36, NOTE_F5,37, NOTE_F5,38, NOTE_F5,38,
 NOTE_REST,0, NOTE_C5,153, NOTE_REST,0, NOTE_C5,146, NOTE_C5,3, NOTE_REST,0, NOTE_G4,34, NOTE_G4,37,
 NOTE_G4,37, NOTE_G4,38, NOTE_G4,1, NOTE_REST,36, NOTE_REST,38, NOTE_REST,38, NOTE_REST,38, NOTE_C6,38,
 NOTE_C6,116, NOTE_REST,0, NOTE_A5,149, NOTE_REST,148, NOTE_FS4,148, NOTE_REST,0, NOTE_G4,153, NOTE_REST,149,
 NOTE_E5,148, NOTE_REST,148, NOTE_F4,153, NOTE_REST,0, NOTE_C6,146, NOTE_C6,3, NOTE_REST,0, NOTE_F4,34,
 NOTE_F4,37, NOTE_F4,37, NOTE_F4,37, NOTE_F4,1, NOTE_REST,0, NOTE_C6,36, NOTE_C6,37, NOTE_C6,38,
 NOTE_C6,38, NOTE_REST,0, NOTE_C5,153, NOTE_REST,0, NOTE_C5,146, NOTE_C5,3, NOTE_REST,0, NOTE_F4,34,
 NOTE_F4,37, NOTE_F4,37, NOTE_F4,37, NOTE_F4,1, NOTE_REST,36, NOTE_REST,37, NOTE_REST,38, NOTE_REST,38,
 NOTE_G5,153, NOTE_REST,0, NOTE_D6,146, NOTE_D6,3, NOTE_REST,34, NOTE_REST,37, NOTE_REST,37, NOTE_REST,38,
 NOTE_REST,1, NOTE_D6,36, NOTE_D6,38, NOTE_D6,38, NOTE_D6,38, NOTE_REST,0, NOTE_D6,38, NOTE_D6,65,
 NOTE_REST,100, NOTE_C6,99, NOTE_REST,100, NOTE_B4,96, NOTE_REST,100, NOTE_C5,153, NOTE_REST,0, NOTE_E5,149,
 NOTE_REST,0, NOTE_G4,148, NOTE_REST,0, NOTE_E5,148, NOTE_REST,0, NOTE_C4,153,
 TONES_END
};
// This score contains 9978 bytes.
// 1009 notes had to be skipped.
