// ArduboyTones stream for file "miiChannel.mid" created by MIDI2TONES V1.0.0 on Fri Nov 22 14:11:23 2019
// command line: C:\Users\cnorf\Downloads\midi2tones-master\midi2tones_64bit.exe -o2 miiChannel 
//   From channel 0
const int score[] = {
 NOTE_REST,4, NOTE_D5,209, NOTE_REST,300, NOTE_FS5,96, NOTE_REST,150, NOTE_A5,98, NOTE_REST,399, NOTE_FS5,96,
 NOTE_REST,396, NOTE_D5,97, NOTE_REST,152, NOTE_D5,114, NOTE_REST,150, NOTE_D5,97, NOTE_REST,150, NOTE_D5,96,
 NOTE_REST,1141, NOTE_CS5,249, NOTE_CS5,27, NOTE_REST,86, NOTE_REST,76, NOTE_REST,74, NOTE_D5,32, NOTE_D5,64,
 NOTE_REST,150, NOTE_FS5,96, NOTE_REST,150, NOTE_A5,98, NOTE_REST,399, NOTE_FS5,96, NOTE_REST,396, NOTE_D5,97,
 NOTE_REST,152, NOTE_E5,758, NOTE_REST,0, NOTE_DS5,233, NOTE_REST,14, NOTE_REST,0, NOTE_D5,195, NOTE_REST,796,
 NOTE_GS5,114, NOTE_REST,398, NOTE_CS6,81, NOTE_CS6,14, NOTE_REST,150, NOTE_FS5,98, NOTE_REST,399, NOTE_CS6,96,
 NOTE_REST,396, NOTE_GS5,97, NOTE_REST,416, NOTE_CS6,97, NOTE_REST,396, NOTE_G5,249, NOTE_G5,29, NOTE_REST,182,
 NOTE_REST,283, NOTE_E5,96, NOTE_REST,399, NOTE_FS4,114, NOTE_REST,150, NOTE_FS4,97, NOTE_REST,150, NOTE_FS4,81,
 NOTE_FS4,14, NOTE_REST,895, NOTE_FS4,96, NOTE_REST,150, NOTE_FS4,97, NOTE_REST,152, NOTE_FS4,114, NOTE_REST,15,
 NOTE_REST,878, NOTE_GS4,495, NOTE_REST,0, NOTE_G4,493, NOTE_REST,2, NOTE_D5,212, NOTE_REST,37, NOTE_REST,263,
 NOTE_FS5,96, NOTE_REST,150, NOTE_A5,98, NOTE_REST,399, NOTE_FS5,96, NOTE_REST,396, NOTE_DS5,247, NOTE_DS5,2,
 NOTE_DS5,27, NOTE_REST,86, NOTE_REST,150, NOTE_E5,97, NOTE_REST,150, NOTE_E5,81, NOTE_E5,14, NOTE_REST,399,
 NOTE_GS5,98, NOTE_REST,150, NOTE_GS5,96, NOTE_REST,150, NOTE_GS5,81, NOTE_GS5,14, NOTE_REST,399, NOTE_B3,212,
 NOTE_REST,52, NOTE_D5,97, NOTE_REST,150, NOTE_FS5,96, NOTE_REST,150, NOTE_A5,98, NOTE_REST,140, NOTE_REST,125,
 NOTE_REST,126, NOTE_REST,9, NOTE_FS5,97, NOTE_REST,19, NOTE_REST,127, NOTE_REST,128, NOTE_REST,128, NOTE_REST,2,
 NOTE_D5,100, NOTE_REST,26, NOTE_REST,131, NOTE_E5,127, NOTE_E5,884, NOTE_REST,0, NOTE_D5,195, NOTE_REST,796,
 NOTE_B5,249, NOTE_REST,15, NOTE_G5,232, NOTE_REST,14, NOTE_REST,0, NOTE_D5,96, NOTE_D5,135, NOTE_REST,15,
 NOTE_CS5,482, NOTE_REST,15, NOTE_B5,96, NOTE_B5,135, NOTE_REST,15, NOTE_G5,231, NOTE_REST,15, NOTE_CS5,232,
 NOTE_REST,17, NOTE_A5,249, NOTE_REST,15, NOTE_FS5,232, NOTE_REST,14, NOTE_REST,0, NOTE_C5,96, NOTE_C5,135,
 NOTE_REST,15, NOTE_B4,482, NOTE_REST,15, NOTE_F5,96, NOTE_F5,135, NOTE_REST,15, NOTE_D5,231, NOTE_REST,15,
 NOTE_B4,232, NOTE_REST,17, NOTE_FS4,114, NOTE_REST,150, NOTE_FS4,97, NOTE_REST,150, NOTE_FS4,81, NOTE_FS4,14,
 NOTE_REST,15, NOTE_REST,1126, NOTE_AS5,249, NOTE_AS5,27, NOTE_REST,129, NOTE_REST,107, NOTE_CS6,248, NOTE_CS6,29,
 NOTE_REST,109, NOTE_REST,107, NOTE_FS6,249, NOTE_FS6,29, NOTE_REST,111, NOTE_REST,1858, NOTE_A4,495, NOTE_A4,19,
 NOTE_REST,477, NOTE_B4,17, NOTE_B4,495, NOTE_B4,0, NOTE_B4,231, NOTE_B4,14, NOTE_B4,0, NOTE_B4,29,
 NOTE_REST,219, NOTE_B4,29, NOTE_B4,204, NOTE_B4,15, NOTE_B4,740, NOTE_B4,2, NOTE_B4,249, NOTE_B4,15,
 NOTE_B4,225, NOTE_REST,22, NOTE_A4,246, NOTE_A4,0, NOTE_A4,29, NOTE_REST,219, NOTE_B4,29, NOTE_B4,219,
 NOTE_B4,29, NOTE_REST,216, NOTE_REST,0, NOTE_FS4,246, NOTE_FS4,19, NOTE_FS4,228, NOTE_REST,2, NOTE_B4,27,
 NOTE_B4,484, NOTE_B4,0, NOTE_B4,231, NOTE_B4,14, NOTE_B4,0, NOTE_B4,29, NOTE_REST,219, NOTE_B4,29,
 NOTE_B4,204, NOTE_B4,15, NOTE_B4,492, NOTE_B4,0, NOTE_B4,232, NOTE_B4,17, NOTE_B4,249, NOTE_B4,15,
 NOTE_B4,494, NOTE_B4,0, NOTE_B4,248, NOTE_REST,0, NOTE_B4,495, NOTE_B4,0, NOTE_B4,19, NOTE_REST,474,
 NOTE_REST,2, NOTE_CS5,17, NOTE_CS5,495, NOTE_CS5,0, NOTE_CS5,231, NOTE_CS5,14, NOTE_CS5,0, NOTE_CS5,29,
 NOTE_REST,219, NOTE_CS5,29, NOTE_CS5,219, NOTE_CS5,0, NOTE_CS5,492, NOTE_CS5,0, NOTE_CS5,232, NOTE_CS5,17,
 NOTE_CS5,249, NOTE_CS5,15, NOTE_CS5,247, NOTE_REST,0, NOTE_CS5,246, NOTE_CS5,0, NOTE_CS5,29, NOTE_REST,219,
 NOTE_CS5,29, NOTE_CS5,219, NOTE_CS5,29, NOTE_REST,216, NOTE_REST,0, NOTE_CS4,246, NOTE_CS4,19, NOTE_CS4,228,
 NOTE_REST,2, NOTE_CS5,27, NOTE_CS5,484, NOTE_CS5,0, NOTE_CS5,231, NOTE_CS5,14, NOTE_CS5,0, NOTE_CS5,29,
 NOTE_REST,219, NOTE_B4,29, NOTE_B4,204, NOTE_B4,15, NOTE_B4,470, NOTE_REST,22, NOTE_CS5,247, NOTE_CS5,2,
 NOTE_CS5,27, NOTE_REST,129, NOTE_REST,107, NOTE_FS5,194, NOTE_REST,300, NOTE_D5,233, NOTE_REST,14, NOTE_REST,0,
 NOTE_E5,98, NOTE_REST,150, NOTE_E5,96, NOTE_REST,150, NOTE_E5,193, NOTE_REST,299, NOTE_REST,0, NOTE_REST,4,
 NOTE_D5,209, NOTE_REST,300, NOTE_FS5,96, NOTE_REST,150, NOTE_A5,98, NOTE_REST,399, NOTE_FS5,96, NOTE_REST,396,
 NOTE_D5,97, NOTE_REST,152, NOTE_D5,114, NOTE_REST,150, NOTE_D5,97, NOTE_REST,150, NOTE_D5,96, NOTE_REST,1141,
 NOTE_CS5,249, NOTE_CS5,27, NOTE_REST,86, NOTE_REST,76, NOTE_REST,74, NOTE_D5,32, NOTE_D5,64, NOTE_REST,150,
 NOTE_FS5,96, NOTE_REST,150, NOTE_A5,98, NOTE_REST,399, NOTE_FS5,96, NOTE_REST,396, NOTE_D5,97, NOTE_REST,152,
 NOTE_E5,758, NOTE_REST,0, NOTE_DS5,233, NOTE_REST,14, NOTE_REST,0, NOTE_D5,195, NOTE_REST,796, NOTE_GS5,114,
 NOTE_REST,398, NOTE_CS6,81, NOTE_CS6,14, NOTE_REST,150, NOTE_FS5,98, NOTE_REST,399, NOTE_CS6,96, NOTE_REST,396,
 NOTE_GS5,97, NOTE_REST,416, NOTE_CS6,97, NOTE_REST,396, NOTE_G5,249, NOTE_G5,29, NOTE_REST,182, NOTE_REST,283,
 NOTE_E5,96, NOTE_REST,399, NOTE_FS4,114, NOTE_REST,150, NOTE_FS4,97, NOTE_REST,150, NOTE_FS4,81, NOTE_FS4,14,
 NOTE_REST,895, NOTE_FS4,96, NOTE_REST,150, NOTE_FS4,97, NOTE_REST,152, NOTE_FS4,114, NOTE_REST,15, NOTE_REST,878,
 NOTE_GS4,495, NOTE_REST,0, NOTE_G4,493, NOTE_REST,2, NOTE_D5,212, NOTE_REST,37, NOTE_REST,263, NOTE_FS5,96,
 NOTE_REST,150, NOTE_A5,98, NOTE_REST,399, NOTE_FS5,96, NOTE_REST,396, NOTE_DS5,247, NOTE_DS5,2, NOTE_DS5,27,
 NOTE_REST,86, NOTE_REST,150, NOTE_E5,97, NOTE_REST,150, NOTE_E5,81, NOTE_E5,14, NOTE_REST,399, NOTE_GS5,98,
 NOTE_REST,150, NOTE_GS5,96, NOTE_REST,150, NOTE_GS5,81, NOTE_GS5,14, NOTE_REST,399, NOTE_B3,212, NOTE_REST,52,
 NOTE_D5,97, NOTE_REST,150, NOTE_FS5,96, NOTE_REST,150, NOTE_A5,98, NOTE_REST,140, NOTE_REST,125, NOTE_REST,126,
 NOTE_REST,9, NOTE_FS5,97, NOTE_REST,19, NOTE_REST,127, NOTE_REST,128, NOTE_REST,128, NOTE_REST,2, NOTE_D5,100,
 NOTE_REST,26, NOTE_REST,131, NOTE_E5,127, NOTE_E5,884, NOTE_REST,0, NOTE_D5,195, NOTE_REST,796, NOTE_B5,249,
 NOTE_REST,15, NOTE_G5,232, NOTE_REST,14, NOTE_REST,0, NOTE_D5,96, NOTE_D5,135, NOTE_REST,15, NOTE_CS5,482,
 NOTE_REST,15, NOTE_B5,96, NOTE_B5,135, NOTE_REST,15, NOTE_G5,231, NOTE_REST,15, NOTE_CS5,232, NOTE_REST,17,
 NOTE_A5,249, NOTE_REST,15, NOTE_FS5,232, NOTE_REST,14, NOTE_REST,0, NOTE_C5,96, NOTE_C5,135, NOTE_REST,15,
 NOTE_B4,482, NOTE_REST,15, NOTE_F5,96, NOTE_F5,135, NOTE_REST,15, NOTE_D5,231, NOTE_REST,15, NOTE_B4,232,
 NOTE_REST,17, NOTE_FS4,114, NOTE_REST,150, NOTE_FS4,97, NOTE_REST,150, NOTE_FS4,81, NOTE_FS4,14, NOTE_REST,15,
 NOTE_REST,1126, NOTE_AS5,249, NOTE_AS5,27, NOTE_REST,129, NOTE_REST,107, NOTE_CS6,248, NOTE_CS6,29, NOTE_REST,109,
 NOTE_REST,107, NOTE_FS6,249, NOTE_FS6,29, NOTE_REST,111, NOTE_REST,1858, NOTE_A4,495, NOTE_A4,19, NOTE_REST,477,
 NOTE_B4,17, NOTE_B4,495, NOTE_B4,0, NOTE_B4,231, NOTE_B4,14, NOTE_B4,0, NOTE_B4,29, NOTE_REST,219,
 NOTE_B4,29, NOTE_B4,204, NOTE_B4,15, NOTE_B4,740, NOTE_B4,2, NOTE_B4,249, NOTE_B4,15, NOTE_B4,225,
 NOTE_REST,22, NOTE_A4,246, NOTE_A4,0, NOTE_A4,29, NOTE_REST,219, NOTE_B4,29, NOTE_B4,219, NOTE_B4,29,
 NOTE_REST,216, NOTE_REST,0, NOTE_FS4,246, NOTE_FS4,19, NOTE_FS4,228, NOTE_REST,2, NOTE_B4,27, NOTE_B4,484,
 NOTE_B4,0, NOTE_B4,231, NOTE_B4,14, NOTE_B4,0, NOTE_B4,29, NOTE_REST,219, NOTE_B4,29, NOTE_B4,204,
 NOTE_B4,15, NOTE_B4,492, NOTE_B4,0, NOTE_B4,232, NOTE_B4,17, NOTE_B4,249, NOTE_B4,15, NOTE_B4,494,
 NOTE_B4,0, NOTE_B4,248, NOTE_REST,0, NOTE_B4,495, NOTE_B4,0, NOTE_B4,19, NOTE_REST,474, NOTE_REST,2,
 NOTE_CS5,17, NOTE_CS5,495, NOTE_CS5,0, NOTE_CS5,231, NOTE_CS5,14, NOTE_CS5,0, NOTE_CS5,29, NOTE_REST,219,
 NOTE_CS5,29, NOTE_CS5,219, NOTE_CS5,0, NOTE_CS5,492, NOTE_CS5,0, NOTE_CS5,232, NOTE_CS5,17, NOTE_CS5,249,
 NOTE_CS5,15, NOTE_CS5,247, NOTE_REST,0, NOTE_CS5,246, NOTE_CS5,0, NOTE_CS5,29, NOTE_REST,219, NOTE_CS5,29,
 NOTE_CS5,219, NOTE_CS5,29, NOTE_REST,216, NOTE_REST,0, NOTE_CS4,246, NOTE_CS4,19, NOTE_CS4,228, NOTE_REST,2,
 NOTE_CS5,27, NOTE_CS5,484, NOTE_CS5,0, NOTE_CS5,231, NOTE_CS5,14, NOTE_CS5,0, NOTE_CS5,29, NOTE_REST,219,
 NOTE_B4,29, NOTE_B4,204, NOTE_B4,15, NOTE_B4,470, NOTE_REST,22, NOTE_CS5,247, NOTE_CS5,2, NOTE_CS5,27,
 NOTE_REST,129, NOTE_REST,107, NOTE_FS5,194, NOTE_REST,300, NOTE_D5,233, NOTE_REST,14, NOTE_REST,0, NOTE_E5,98,
 NOTE_REST,150, NOTE_E5,96, NOTE_REST,150, NOTE_E5,193,
 0,0
};
// This score contains 2418 bytes.
// 358 notes had to be skipped.
