// ArduboyTones stream for file "caramelldansen.mid" created by MIDI2TONES V1.0.0 on Fri Nov 22 14:22:24 2019
// command line: C:\Users\cnorf\Downloads\midi2tones-master\midi2tones_64bit.exe -o2 caramelldansen 
//   From channel 0
const int score[] = {
// Candy Mountain Song
 NOTE_REST,1200, NOTE_DS4,300, NOTE_F4,300, NOTE_G4,300, NOTE_GS4,300, NOTE_AS4,450, NOTE_AS4,450, NOTE_AS4,300,
 NOTE_REST,300, NOTE_AS4,300, NOTE_C5,300, NOTE_AS4,900, NOTE_REST,600, NOTE_AS4,300, NOTE_C5,300, NOTE_AS4,300,
 NOTE_GS4,300, NOTE_G4,450, NOTE_G4,450, NOTE_G4,300, NOTE_REST,300, NOTE_GS4,300, NOTE_G4,300, NOTE_DS4,1500,
 NOTE_DS4,300, NOTE_F4,300, NOTE_G4,300, NOTE_GS4,300, NOTE_AS4,450, NOTE_AS4,450, NOTE_AS4,300, NOTE_REST,300,
 NOTE_AS4,300, NOTE_C5,300, NOTE_AS4,900, NOTE_REST,600, NOTE_AS4,300, NOTE_C5,300, NOTE_AS4,300, NOTE_GS4,300,
 NOTE_G4,450, NOTE_G4,450, NOTE_G4,300, NOTE_REST,300, NOTE_GS4,300, NOTE_G4,300, NOTE_DS4,1500, NOTE_DS4,300,
 NOTE_F4,300, NOTE_G4,300, NOTE_GS4,300, NOTE_REST,2400, NOTE_G4,450, NOTE_G4,450, NOTE_G4,450, NOTE_GS4,450,
 NOTE_DS4,300, NOTE_G4,300, NOTE_F4,450, NOTE_F4,450, NOTE_F4,450, NOTE_AS4,450, NOTE_D4,300, NOTE_F4,300,
 NOTE_DS4,450, NOTE_DS4,450, NOTE_DS4,450, NOTE_DS4,450, NOTE_C4,300, NOTE_F4,300, NOTE_DS4,450, NOTE_DS4,450,
 NOTE_DS4,450, NOTE_D4,450, NOTE_DS4,300, NOTE_F4,300, NOTE_G4,450, NOTE_G4,450, NOTE_G4,450, NOTE_GS4,450,
 NOTE_DS4,300, NOTE_G4,300, NOTE_F4,450, NOTE_F4,450, NOTE_F4,450, NOTE_AS4,450, NOTE_REST,300, NOTE_F4,300,
 NOTE_DS4,300, NOTE_DS4,300, NOTE_DS4,300, NOTE_DS4,300, NOTE_DS4,600, NOTE_DS4,300, NOTE_DS4,300, NOTE_F4,300,
 NOTE_G4,300, NOTE_REST,300, NOTE_G4,1500, NOTE_AS3,300, NOTE_DS4,300, NOTE_DS4,300, NOTE_DS4,300, NOTE_DS4,600,
 NOTE_DS4,300, NOTE_DS4,300, NOTE_G4,300, NOTE_F4,300, NOTE_REST,300, NOTE_DS4,1500, NOTE_D4,600, NOTE_C4,300,
 NOTE_AS3,300, NOTE_REST,1500, NOTE_AS3,600, NOTE_AS3,600, NOTE_AS3,300, NOTE_C4,300, NOTE_D4,300, NOTE_DS4,600,
 NOTE_C4,300, NOTE_REST,1500, NOTE_DS5,600, NOTE_C5,300, NOTE_AS4,300, NOTE_REST,900, NOTE_AS3,300, NOTE_DS4,300,
 NOTE_DS4,300, NOTE_DS4,300, NOTE_DS4,300, NOTE_DS4,600, NOTE_DS4,600, NOTE_F4,300, NOTE_G4,300, NOTE_REST,300,
 NOTE_G4,300, NOTE_REST,900, NOTE_AS3,300, NOTE_DS4,300, NOTE_DS4,300, NOTE_DS4,300, NOTE_DS4,300, NOTE_DS4,600,
 NOTE_DS4,300, NOTE_DS4,300, NOTE_AS4,300, NOTE_GS4,300, NOTE_REST,300, NOTE_D5,300, NOTE_REST,900, NOTE_DS3,300,
 NOTE_D4,600, NOTE_F4,300, NOTE_AS3,300, NOTE_REST,1800, NOTE_AS3,300, NOTE_AS3,600, NOTE_AS3,300, NOTE_G4,300,
 NOTE_F4,300, NOTE_DS3,600, NOTE_REST,2400, NOTE_G4,600, NOTE_G4,600, NOTE_F4,2, NOTE_REST,597, NOTE_AS3,600,
 NOTE_G4,300, NOTE_F4,300, NOTE_DS4,900, NOTE_F4,600, NOTE_DS4,300, NOTE_F4,300, NOTE_DS4,300, NOTE_F4,600,
 NOTE_G4,600, NOTE_C4,600, NOTE_G4,300, NOTE_F4,300, NOTE_DS4,300, NOTE_DS4,300, NOTE_DS4,300, NOTE_F4,600,
 NOTE_DS4,300, NOTE_F4,300, NOTE_G4,300, NOTE_F4,600, NOTE_DS4,600, NOTE_AS3,600, NOTE_G4,300, NOTE_F4,300,
 NOTE_DS4,900, NOTE_F4,600, NOTE_DS4,300, NOTE_F4,300, NOTE_DS4,300, NOTE_F4,600, NOTE_G4,600, NOTE_AS4,600,
 NOTE_GS4,300, NOTE_G4,300, NOTE_DS4,300, NOTE_DS4,300, NOTE_DS4,300, NOTE_F4,600, NOTE_F4,300, NOTE_G4,600,
 NOTE_F4,600, NOTE_DS4,600, NOTE_F4,600, NOTE_F4,600, NOTE_F4,300, NOTE_G4,300, NOTE_AS3,300, NOTE_AS3,300,
 NOTE_REST,300, NOTE_F5,300, NOTE_REST,300, NOTE_F5,300, NOTE_REST,300, NOTE_F5,300, NOTE_F5,300, NOTE_REST,300,
 NOTE_F4,600, NOTE_F4,600, NOTE_F4,300, NOTE_G4,300, NOTE_AS3,300, NOTE_AS3,600, NOTE_C4,300, NOTE_AS3,600,
 NOTE_REST,1200, NOTE_G4,600, NOTE_G4,600, NOTE_G4,300, NOTE_AS4,300, NOTE_G4,300, NOTE_F4,300, NOTE_REST,300,
 NOTE_F5,300, NOTE_REST,300, NOTE_F5,300, NOTE_REST,300, NOTE_F5,300, NOTE_F5,300, NOTE_REST,300, NOTE_F4,600,
 NOTE_F4,600, NOTE_F4,300, NOTE_G4,300, NOTE_AS3,300, NOTE_AS3,600, NOTE_C4,300, NOTE_AS3,600, NOTE_REST,900,
 NOTE_AS3,300, NOTE_DS4,300, NOTE_DS4,300, NOTE_DS4,300, NOTE_DS4,300, NOTE_DS4,600, NOTE_DS4,300, NOTE_DS4,300,
 NOTE_F4,300, NOTE_G4,300, NOTE_REST,300, NOTE_G4,1500, NOTE_AS3,300, NOTE_DS4,300, NOTE_DS4,300, NOTE_DS4,300,
 NOTE_DS4,600, NOTE_DS4,300, NOTE_DS4,300, NOTE_G4,300, NOTE_REST,600, NOTE_DS4,1500, NOTE_D4,600, NOTE_C4,300,
 NOTE_REST,1800, NOTE_AS3,600, NOTE_AS3,600, NOTE_AS3,300, NOTE_C4,300, NOTE_D4,300, NOTE_DS4,600, NOTE_C4,300,
 NOTE_REST,1500, NOTE_DS5,600, NOTE_C5,300, NOTE_AS4,300, NOTE_REST,900, NOTE_AS3,300, NOTE_DS4,300, NOTE_DS4,300,
 NOTE_DS4,300, NOTE_DS4,300, NOTE_DS4,600, NOTE_DS4,600, NOTE_F4,300, NOTE_G4,300, NOTE_REST,300, NOTE_G4,300,
 NOTE_REST,900, NOTE_AS3,300, NOTE_DS4,300, NOTE_DS4,300, NOTE_DS4,300, NOTE_DS4,300, NOTE_DS4,600, NOTE_DS4,300,
 NOTE_DS4,300, NOTE_AS4,300, NOTE_GS4,300, NOTE_REST,300, NOTE_G4,300, NOTE_REST,1200, NOTE_D4,600, NOTE_F4,300,
 NOTE_REST,2100, NOTE_AS3,300, NOTE_AS3,600, NOTE_AS3,300, NOTE_G4,300, NOTE_F4,300, NOTE_DS4,600, NOTE_REST,4200,
 NOTE_AS3,600, NOTE_G4,300, NOTE_F4,300, NOTE_DS4,900, NOTE_F4,600, NOTE_DS4,300, NOTE_F4,300, NOTE_DS4,300,
 NOTE_F4,600, NOTE_G4,600, NOTE_C4,600, NOTE_G4,300, NOTE_F4,300, NOTE_DS4,300, NOTE_DS4,300, NOTE_DS4,300,
 NOTE_F4,600, NOTE_DS4,300, NOTE_F4,300, NOTE_G4,300, NOTE_F4,600, NOTE_DS4,600, NOTE_AS3,600, NOTE_G4,300,
 NOTE_F4,300, NOTE_DS4,900, NOTE_F4,600, NOTE_DS4,300, NOTE_F4,300, NOTE_DS4,300, NOTE_F4,600, NOTE_G4,600,
 NOTE_AS4,600, NOTE_GS4,300, NOTE_G4,300, NOTE_DS4,300, NOTE_DS4,300, NOTE_DS4,300, NOTE_F4,600, NOTE_F4,300,
 NOTE_G4,600, NOTE_F4,600, NOTE_DS4,600, NOTE_AS3,300, NOTE_DS3,150, NOTE_DS3,150, NOTE_REST,300, NOTE_G4,450,
 NOTE_GS4,450, NOTE_DS4,300, NOTE_G4,300, NOTE_F4,450, NOTE_F4,450, NOTE_F4,450, NOTE_G4,450, NOTE_D4,300,
 NOTE_F4,300, NOTE_DS4,450, NOTE_DS4,450, NOTE_DS4,450, NOTE_DS4,450, NOTE_C4,300, NOTE_F4,300, NOTE_DS4,450,
 NOTE_DS4,450, NOTE_DS4,450, NOTE_D4,450, NOTE_DS4,300, NOTE_AS3,300, NOTE_AS3,300, NOTE_DS3,150, NOTE_DS3,150,
 NOTE_REST,300, NOTE_G4,450, NOTE_GS4,450, NOTE_DS4,300, NOTE_G4,300, NOTE_F4,450, NOTE_F4,450, NOTE_F4,450,
 NOTE_G4,450, NOTE_D4,300, NOTE_F4,300, NOTE_DS4,450, NOTE_DS4,450, NOTE_DS4,450, NOTE_DS4,450, NOTE_C4,300,
 NOTE_F4,300, NOTE_DS4,450, NOTE_DS4,450, NOTE_DS4,450, NOTE_D4,450, NOTE_DS4,300, NOTE_AS3,300, NOTE_G4,600,
 NOTE_G4,300, NOTE_G4,300, NOTE_G4,900, NOTE_F4,600, NOTE_F4,300, NOTE_F4,300, NOTE_DS4,300, NOTE_F4,600,
 NOTE_G4,600, NOTE_DS4,600, NOTE_DS4,300, NOTE_DS4,300, NOTE_DS4,600, NOTE_DS4,300, NOTE_C4,600, NOTE_C4,300,
 NOTE_D4,300, NOTE_D4,300, NOTE_DS4,600, NOTE_F4,600, NOTE_G4,600, NOTE_G4,300, NOTE_G4,300, NOTE_G4,900,
 NOTE_F4,600, NOTE_F4,300, NOTE_AS4,300, NOTE_AS4,300, NOTE_GS4,600, NOTE_G4,600, NOTE_DS4,600, NOTE_DS4,300,
 NOTE_DS4,300, NOTE_DS4,600, NOTE_DS4,300, NOTE_AS4,600, NOTE_AS4,300, NOTE_DS4,600, NOTE_DS4,600, NOTE_D4,600,
 NOTE_F4,600, NOTE_F4,600, NOTE_F4,300, NOTE_G4,300, NOTE_AS3,300, NOTE_AS3,300, NOTE_REST,300, NOTE_F5,300,
 NOTE_REST,300, NOTE_F5,300, NOTE_REST,300, NOTE_F5,300, NOTE_F5,300, NOTE_REST,300, NOTE_F4,600, NOTE_F4,600,
 NOTE_F4,300, NOTE_G4,300, NOTE_AS3,300, NOTE_AS3,600, NOTE_C4,300, NOTE_AS3,600, NOTE_REST,1200, NOTE_G4,600,
 NOTE_G4,600, NOTE_G4,300, NOTE_AS4,300, NOTE_G4,300, NOTE_F4,300, NOTE_REST,300, NOTE_F5,300, NOTE_REST,300,
 NOTE_F5,300, NOTE_REST,300, NOTE_F5,300, NOTE_F5,300, NOTE_REST,300, NOTE_F4,600, NOTE_F4,600, NOTE_F4,300,
 NOTE_G4,300, NOTE_AS3,300, NOTE_AS3,600, NOTE_C4,300, NOTE_REST,600, NOTE_G4,600, NOTE_F4,600, NOTE_AS3,600,
 NOTE_G4,300, NOTE_F4,300, NOTE_DS4,900, NOTE_F4,600, NOTE_DS4,300, NOTE_F4,300, NOTE_DS4,300, NOTE_F4,600,
 NOTE_G4,600, NOTE_C4,600, NOTE_G4,300, NOTE_F4,300, NOTE_DS4,300, NOTE_DS4,300, NOTE_DS4,300, NOTE_F4,600,
 NOTE_DS4,300, NOTE_F4,300, NOTE_G4,300, NOTE_F4,600, NOTE_DS4,600, NOTE_AS3,600, NOTE_G4,300, NOTE_F4,300,
 NOTE_DS4,900, NOTE_F4,600, NOTE_DS4,300, NOTE_F4,300, NOTE_DS4,300, NOTE_F4,600, NOTE_G4,600, NOTE_AS4,600,
 NOTE_GS4,300, NOTE_G4,300, NOTE_DS4,300, NOTE_DS4,300, NOTE_DS4,300, NOTE_F4,600, NOTE_F4,300, NOTE_G4,600,
 NOTE_F4,600, NOTE_DS4,600, NOTE_AS3,600, NOTE_G4,300, NOTE_F4,300, NOTE_DS4,900, NOTE_F4,600, NOTE_DS4,300,
 NOTE_F4,300, NOTE_DS4,300, NOTE_F4,600, NOTE_G4,600, NOTE_C4,600, NOTE_G4,300, NOTE_F4,300, NOTE_DS4,300,
 NOTE_DS4,300, NOTE_DS4,300, NOTE_F4,600, NOTE_DS4,300, NOTE_F4,300, NOTE_G4,300, NOTE_F4,600, NOTE_DS4,600,
 NOTE_AS3,600, NOTE_G4,300, NOTE_F4,300, NOTE_DS4,900, NOTE_F4,600, NOTE_DS4,300, NOTE_F4,300, NOTE_DS4,300,
 NOTE_F4,600, NOTE_G4,600, NOTE_AS4,600, NOTE_GS4,300, NOTE_G4,300, NOTE_DS4,300, NOTE_DS4,300, NOTE_DS4,300,
 NOTE_F4,600, NOTE_F4,300, NOTE_G4,600, NOTE_F4,600, NOTE_DS4,600,
 0,0
};
// This score contains 2390 bytes.
// 6 notes had to be skipped.
