// ArduboyTones stream for file "closer.mid" created by MIDI2TONES V1.0.0 on Fri Nov 22 14:18:20 2019
// command line: C:\Users\cnorf\Downloads\midi2tones-master\midi2tones_64bit.exe -o2 -c16 closer 
//   From channel 4
const int score[] = {
 NOTE_AS5,236, NOTE_REST,78, NOTE_GS5,236, NOTE_REST,78, NOTE_GS5,236, NOTE_REST,78, NOTE_AS5,236, NOTE_REST,78,
 NOTE_AS5,236, NOTE_REST,78, NOTE_GS5,236, NOTE_REST,78, NOTE_GS5,236, NOTE_REST,78, NOTE_C6,236, NOTE_REST,78,
 NOTE_C6,236, NOTE_REST,78, NOTE_GS5,236, NOTE_REST,78, NOTE_GS5,236, NOTE_REST,78, NOTE_AS5,236, NOTE_REST,78,
 NOTE_AS5,236, NOTE_REST,78, NOTE_GS5,236, NOTE_REST,78, NOTE_GS5,236, NOTE_REST,78, NOTE_AS5,236, NOTE_REST,78,
 NOTE_AS5,236, NOTE_REST,78, NOTE_GS5,236, NOTE_REST,78, NOTE_GS5,236, NOTE_REST,78, NOTE_AS5,236, NOTE_REST,78,
 NOTE_AS5,236, NOTE_REST,78, NOTE_GS5,236, NOTE_REST,78, NOTE_GS5,236, NOTE_REST,78, NOTE_C6,236, NOTE_REST,78,
 NOTE_C6,236, NOTE_REST,78, NOTE_GS5,236, NOTE_REST,78, NOTE_GS5,236, NOTE_REST,78, NOTE_AS5,236, NOTE_REST,78,
 NOTE_AS5,236, NOTE_REST,78, NOTE_GS5,236, NOTE_REST,78, NOTE_GS5,236, NOTE_REST,78, NOTE_AS5,236, NOTE_REST,78,
 NOTE_AS5,236, NOTE_REST,78, NOTE_C6,236, NOTE_REST,78, NOTE_GS5,236, NOTE_REST,78, NOTE_AS5,236, NOTE_REST,78,
 NOTE_AS5,236, NOTE_REST,78, NOTE_GS5,236, NOTE_REST,78, NOTE_GS5,236, NOTE_REST,78, NOTE_C6,236, NOTE_REST,78,
 NOTE_C6,236, NOTE_REST,78, NOTE_GS5,236, NOTE_REST,78, NOTE_GS5,236, NOTE_REST,78, NOTE_AS5,236, NOTE_REST,78,
 NOTE_AS5,236, NOTE_REST,78, NOTE_GS5,236, NOTE_REST,78, NOTE_GS5,236, NOTE_REST,78, NOTE_AS5,236, NOTE_REST,78,
 NOTE_AS5,236, NOTE_REST,78, NOTE_GS5,236, NOTE_REST,78, NOTE_GS5,236, NOTE_REST,78, NOTE_AS5,236, NOTE_REST,78,
 NOTE_AS5,236, NOTE_REST,78, NOTE_GS5,236, NOTE_REST,78, NOTE_GS5,236, NOTE_REST,78, NOTE_C6,236, NOTE_REST,78,
 NOTE_C6,236, NOTE_REST,78, NOTE_GS5,236, NOTE_REST,78, NOTE_GS5,236, NOTE_REST,78, NOTE_AS5,236, NOTE_REST,78,
 NOTE_AS5,236, NOTE_REST,78, NOTE_GS5,236, NOTE_REST,78, NOTE_GS5,236, NOTE_REST,78, NOTE_AS5,236, NOTE_REST,78,
 NOTE_AS5,236, NOTE_REST,78, NOTE_GS5,236, NOTE_REST,78, NOTE_GS5,236, NOTE_REST,78, NOTE_AS5,236, NOTE_REST,78,
 NOTE_AS5,236, NOTE_REST,78, NOTE_GS5,236, NOTE_REST,78, NOTE_GS5,236, NOTE_REST,78, NOTE_C6,236, NOTE_REST,78,
 NOTE_C6,236, NOTE_REST,78, NOTE_GS5,236, NOTE_REST,78, NOTE_GS5,236, NOTE_REST,78, NOTE_AS5,236, NOTE_REST,78,
 NOTE_AS5,236, NOTE_REST,78, NOTE_GS5,236, NOTE_REST,78, NOTE_GS5,236, NOTE_REST,78, NOTE_AS5,236, NOTE_REST,78,
 NOTE_AS5,236, NOTE_REST,78, NOTE_GS5,236, NOTE_REST,78, NOTE_GS5,236, NOTE_REST,78, NOTE_AS5,236, NOTE_REST,78,
 NOTE_AS5,236, NOTE_REST,78, NOTE_GS5,236, NOTE_REST,78, NOTE_GS5,236, NOTE_REST,78, NOTE_C6,236, NOTE_REST,78,
 NOTE_C6,236, NOTE_REST,78, NOTE_GS5,236, NOTE_REST,78, NOTE_GS5,236, NOTE_REST,78, NOTE_AS5,236, NOTE_REST,78,
 NOTE_AS5,236, NOTE_REST,78, NOTE_GS5,236, NOTE_REST,78, NOTE_GS5,236, NOTE_REST,78, NOTE_AS5,236, NOTE_REST,78,
 NOTE_AS5,236, NOTE_REST,78, NOTE_C6,236, NOTE_REST,78, NOTE_GS5,236, NOTE_REST,78, NOTE_AS5,236, NOTE_REST,78,
 NOTE_AS5,236, NOTE_REST,78, NOTE_GS5,236, NOTE_REST,78, NOTE_GS5,236, NOTE_REST,78, NOTE_C6,236, NOTE_REST,78,
 NOTE_C6,236, NOTE_REST,78, NOTE_GS5,236, NOTE_REST,78, NOTE_GS5,236, NOTE_REST,78, NOTE_AS5,236, NOTE_REST,78,
 NOTE_AS5,236, NOTE_REST,78, NOTE_GS5,236, NOTE_REST,78, NOTE_GS5,236, NOTE_REST,78, NOTE_AS5,236, NOTE_REST,78,
 NOTE_AS5,236, NOTE_REST,78, NOTE_GS5,236, NOTE_REST,78, NOTE_GS5,236, NOTE_REST,78, NOTE_AS5,236, NOTE_REST,78,
 NOTE_AS5,236, NOTE_REST,78, NOTE_GS5,236, NOTE_REST,78, NOTE_GS5,236, NOTE_REST,78, NOTE_C6,236, NOTE_REST,78,
 NOTE_C6,236, NOTE_REST,78, NOTE_GS5,236, NOTE_REST,78, NOTE_GS5,236, NOTE_REST,78, NOTE_AS5,236, NOTE_REST,78,
 NOTE_AS5,236, NOTE_REST,78, NOTE_GS5,236, NOTE_REST,78, NOTE_GS5,236, NOTE_REST,78, NOTE_AS5,236,
 0,0
};
// This score contains 1022 bytes.
