// ArduboyTones stream for file "friendInMe.mid" created by MIDI2TONES V1.0.0 on Fri Nov 22 14:34:52 2019
// command line: C:\Users\cnorf\Downloads\midi2tones-master\midi2tones_64bit.exe -o2 -c4 friendInMe 
//   From channel 2
const int score[] = {
// Randy Newman - You've got a fri
 NOTE_G4,313, NOTE_G4,13, NOTE_G4,17, NOTE_G4,113, NOTE_REST,13, NOTE_REST,34,
 NOTE_REST,17, NOTE_G4,278, NOTE_G4,73, NOTE_G4,104, NOTE_REST,21, NOTE_REST,43, NOTE_G4,299, NOTE_G4,47,
 NOTE_G4,73, NOTE_G4,34, NOTE_REST,52, NOTE_REST,13, NOTE_G4,299, NOTE_G4,30, NOTE_G4,17, NOTE_G4,108,
 NOTE_REST,13, NOTE_REST,13, NOTE_REST,8, NOTE_REST,30, NOTE_G4,313, NOTE_G4,13, NOTE_G4,17, NOTE_G4,113,
 NOTE_REST,13, NOTE_REST,34, NOTE_REST,17, NOTE_G4,13, NOTE_G4,265, NOTE_G4,60, NOTE_G4,13, NOTE_G4,104,
 NOTE_REST,17, NOTE_REST,4, NOTE_REST,39, NOTE_DS5,4, NOTE_DS5,295, NOTE_REST,4, NOTE_REST,47, NOTE_B4,73,
 NOTE_B4,34, NOTE_B4,52, NOTE_B4,13, NOTE_B4,299, NOTE_B4,30, NOTE_REST,17, NOTE_B4,108, NOTE_B4,13,
 NOTE_B4,13, NOTE_REST,8, NOTE_REST,30, NOTE_F4,13, NOTE_F4,299, NOTE_F4,13, NOTE_F4,17, NOTE_F4,113,
 NOTE_REST,13, NOTE_REST,21, NOTE_REST,13, NOTE_REST,17, NOTE_F4,13, NOTE_F4,265, NOTE_F4,34, NOTE_F4,34,
 NOTE_F4,4, NOTE_F4,104, NOTE_REST,17, NOTE_REST,4, NOTE_REST,39, NOTE_D5,4, NOTE_D5,295, NOTE_REST,4,
 NOTE_REST,47, NOTE_AS4,73, NOTE_AS4,8, NOTE_AS4,26, NOTE_AS4,52, NOTE_AS4,13, NOTE_AS4,299, NOTE_AS4,30,
 NOTE_REST,17, NOTE_AS4,108, NOTE_AS4,13, NOTE_AS4,4, NOTE_AS4,8, NOTE_REST,8, NOTE_REST,30, NOTE_G4,313,
 NOTE_G4,13, NOTE_G4,17, NOTE_G4,113, NOTE_REST,13, NOTE_REST,34, NOTE_REST,17, NOTE_G4,278, NOTE_G4,73,
 NOTE_G4,104, NOTE_REST,21, NOTE_REST,26, NOTE_REST,17, NOTE_FS4,299, NOTE_FS4,47, NOTE_FS4,73, NOTE_FS4,34,
 NOTE_REST,52, NOTE_REST,13, NOTE_FS4,299, NOTE_FS4,30, NOTE_FS4,17, NOTE_FS4,108, NOTE_REST,13, NOTE_REST,13,
 NOTE_REST,8, NOTE_REST,30, NOTE_F4,313, NOTE_F4,13, NOTE_F4,17, NOTE_F4,113, NOTE_REST,13, NOTE_REST,34,
 NOTE_REST,17, NOTE_F4,278, NOTE_F4,73, NOTE_F4,104, NOTE_REST,21, NOTE_REST,26, NOTE_REST,17, NOTE_FS4,299,
 NOTE_FS4,47, NOTE_FS4,73, NOTE_FS4,34, NOTE_REST,52, NOTE_REST,13, NOTE_FS4,299, NOTE_FS4,30, NOTE_FS4,17,
 NOTE_FS4,108, NOTE_REST,13, NOTE_REST,13, NOTE_REST,8, NOTE_REST,30, NOTE_G4,313, NOTE_G4,13, NOTE_G4,17,
 NOTE_G4,113, NOTE_REST,13, NOTE_REST,34, NOTE_REST,17, NOTE_G4,278, NOTE_G4,73, NOTE_G4,104, NOTE_REST,21,
 NOTE_REST,26, NOTE_REST,17, NOTE_FS4,299, NOTE_FS4,47, NOTE_FS4,73, NOTE_FS4,34, NOTE_REST,52, NOTE_REST,13,
 NOTE_FS4,299, NOTE_FS4,30, NOTE_FS4,17, NOTE_FS4,108, NOTE_REST,13, NOTE_REST,13, NOTE_REST,8, NOTE_REST,30,
 NOTE_G4,8, NOTE_G4,304, NOTE_G4,13, NOTE_G4,17, NOTE_G4,60, NOTE_G4,52, NOTE_REST,13, NOTE_REST,34,
 NOTE_REST,17, NOTE_G4,4, NOTE_G4,273, NOTE_G4,73, NOTE_G4,104, NOTE_REST,21, NOTE_REST,26, NOTE_REST,17,
 NOTE_G4,26, NOTE_G4,256, NOTE_G4,17, NOTE_G4,47, NOTE_G4,4, NOTE_G4,69, NOTE_G4,34, NOTE_REST,52,
 NOTE_REST,13, NOTE_G4,299, NOTE_G4,30, NOTE_G4,17, NOTE_G4,108, NOTE_REST,13, NOTE_REST,13, NOTE_REST,8,
 NOTE_REST,30, NOTE_GS4,313, NOTE_GS4,13, NOTE_GS4,17, NOTE_GS4,113, NOTE_REST,13, NOTE_REST,34, NOTE_REST,17,
 NOTE_GS4,278, NOTE_GS4,73, NOTE_GS4,104, NOTE_REST,21, NOTE_REST,26, NOTE_REST,17, NOTE_A4,299, NOTE_A4,47,
 NOTE_A4,73, NOTE_A4,34, NOTE_REST,52, NOTE_REST,13, NOTE_A4,299, NOTE_A4,30, NOTE_A4,17, NOTE_A4,108,
 NOTE_REST,13, NOTE_REST,13, NOTE_REST,8, NOTE_REST,30, NOTE_G4,313, NOTE_G4,13, NOTE_G4,17, NOTE_G4,113,
 NOTE_REST,13, NOTE_REST,34, NOTE_REST,17, NOTE_G4,278, NOTE_G4,73, NOTE_G4,104, NOTE_REST,21, NOTE_REST,26,
 NOTE_REST,17, NOTE_G4,299, NOTE_G4,47, NOTE_G4,73, NOTE_G4,34, NOTE_REST,52, NOTE_REST,13, NOTE_G4,299,
 NOTE_G4,30, NOTE_G4,17, NOTE_G4,108, NOTE_REST,13, NOTE_REST,13, NOTE_REST,8, NOTE_REST,30, NOTE_GS4,313,
 NOTE_GS4,13, NOTE_GS4,17, NOTE_GS4,113, NOTE_REST,13, NOTE_REST,34, NOTE_REST,17, NOTE_GS4,278, NOTE_GS4,73,
 NOTE_GS4,104, NOTE_REST,21, NOTE_REST,26, NOTE_REST,17, NOTE_G4,299, NOTE_G4,47, NOTE_G4,73, NOTE_G4,34,
 NOTE_REST,52, NOTE_REST,13, NOTE_G4,299, NOTE_G4,30, NOTE_G4,17, NOTE_G4,108, NOTE_REST,13, NOTE_REST,13,
 NOTE_REST,8, NOTE_REST,30, NOTE_G4,13, NOTE_G4,299, NOTE_G4,13, NOTE_G4,17, NOTE_G4,113, NOTE_REST,13,
 NOTE_REST,21, NOTE_REST,13, NOTE_REST,17, NOTE_G4,313, NOTE_G4,39, NOTE_G4,104, NOTE_REST,4, NOTE_REST,17,
 NOTE_REST,43, NOTE_G4,299, NOTE_G4,47, NOTE_G4,73, NOTE_G4,34, NOTE_REST,52, NOTE_REST,13, NOTE_G4,299,
 NOTE_G4,30, NOTE_G4,17, NOTE_G4,108, NOTE_REST,13, NOTE_REST,13, NOTE_REST,8, NOTE_REST,30, NOTE_GS4,313,
 NOTE_GS4,13, NOTE_GS4,17, NOTE_GS4,113, NOTE_REST,13, NOTE_REST,34, NOTE_REST,17, NOTE_GS4,278, NOTE_GS4,73,
 NOTE_GS4,104, NOTE_REST,21, NOTE_REST,26, NOTE_REST,17, NOTE_G4,299, NOTE_G4,47, NOTE_G4,73, NOTE_G4,34,
 NOTE_REST,52, NOTE_REST,13, NOTE_G4,299, NOTE_G4,30, NOTE_G4,17, NOTE_G4,108, NOTE_REST,13, NOTE_REST,13,
 NOTE_REST,8, NOTE_REST,30, NOTE_G4,13, NOTE_G4,299, NOTE_G4,13, NOTE_G4,17, NOTE_G4,113, NOTE_REST,13,
 NOTE_REST,21, NOTE_REST,13, NOTE_REST,17, NOTE_G4,313, NOTE_G4,39, NOTE_G4,104, NOTE_REST,4, NOTE_REST,17,
 NOTE_REST,43, NOTE_G4,299, NOTE_G4,47, NOTE_G4,73, NOTE_G4,34, NOTE_REST,52, NOTE_REST,13,
 0,0
};
// This score contains 1470 bytes.
// 230 notes had to be skipped.
