// ArduboyTones stream for file "marioMedley.mid" created by MIDI2TONES V1.0.0 on Fri Nov 22 12:43:18 2019
// command line: C:\Users\cnorf\Downloads\midi2tones-master\midi2tones_64bit.exe -o2 -t1 marioMedley 
//   From channel 0
const int score[] = {
 NOTE_E6,209, NOTE_REST,4, NOTE_E6,209, NOTE_REST,218, NOTE_E6,209, NOTE_REST,218, NOTE_C6,209, NOTE_REST,4,
 NOTE_E6,357, NOTE_REST,71, NOTE_G6,357, NOTE_REST,500, NOTE_G5,357, NOTE_REST,500, NOTE_G5,146, NOTE_REST,3,
 NOTE_D6,146, NOTE_REST,3, NOTE_D6,146, NOTE_REST,3, NOTE_A5,146, NOTE_REST,153, NOTE_D6,146, NOTE_REST,3,
 NOTE_B5,550, NOTE_REST,200, NOTE_D6,146, NOTE_REST,3, NOTE_B5,146, NOTE_REST,3, NOTE_C6,146, NOTE_REST,3,
 NOTE_D6,250, NOTE_REST,50, NOTE_G5,146, NOTE_REST,3, NOTE_D6,146, NOTE_REST,3, NOTE_D6,146, NOTE_REST,3,
 NOTE_A5,146, NOTE_REST,153, NOTE_D6,146, NOTE_REST,3, NOTE_B5,550, NOTE_REST,950, NOTE_G5,146, NOTE_REST,3,
 NOTE_D6,146, NOTE_REST,3, NOTE_D6,146, NOTE_REST,3, NOTE_A5,146, NOTE_REST,153, NOTE_D6,146, NOTE_REST,3,
 NOTE_B5,550, NOTE_REST,200, NOTE_D6,146, NOTE_REST,3, NOTE_B5,146, NOTE_REST,3, NOTE_C6,146, NOTE_REST,3,
 NOTE_D6,250, NOTE_REST,50, NOTE_G5,146, NOTE_REST,3, NOTE_D6,146, NOTE_REST,3, NOTE_D6,146, NOTE_REST,3,
 NOTE_A5,146, NOTE_REST,153, NOTE_D6,146, NOTE_REST,3, NOTE_B5,550, NOTE_REST,950, NOTE_D6,146, NOTE_REST,3,
 NOTE_C6,146, NOTE_REST,3, NOTE_D6,146, NOTE_REST,3, NOTE_B5,146, NOTE_REST,153, NOTE_D6,146, NOTE_REST,3,
 NOTE_G6,825, NOTE_REST,675, NOTE_D6,146, NOTE_REST,3, NOTE_C6,146, NOTE_REST,3, NOTE_D6,146, NOTE_REST,3,
 NOTE_B5,146, NOTE_REST,153, NOTE_D6,146, NOTE_REST,3, NOTE_C6,825, NOTE_REST,675, NOTE_D6,146, NOTE_REST,3,
 NOTE_C6,146, NOTE_REST,3, NOTE_D6,146, NOTE_REST,3, NOTE_B5,146, NOTE_REST,153, NOTE_D6,146, NOTE_REST,3,
 NOTE_G6,825, NOTE_REST,675, NOTE_A6,146, NOTE_REST,3, NOTE_G6,146, NOTE_REST,3, NOTE_A6,146, NOTE_REST,3,
 NOTE_G6,146, NOTE_REST,153, NOTE_B6,146, NOTE_REST,3, NOTE_G6,825, NOTE_REST,675, NOTE_REST,2000, NOTE_E5,244,
 NOTE_REST,5, NOTE_E5,244, NOTE_REST,755, NOTE_E5,244, NOTE_REST,5, NOTE_E5,244, NOTE_REST,5, NOTE_E5,119,
 NOTE_REST,5, NOTE_E5,119, NOTE_REST,5, NOTE_F5,244, NOTE_REST,5, NOTE_F5,244, NOTE_REST,755, NOTE_F5,244,
 NOTE_REST,5, NOTE_F5,244, NOTE_REST,5, NOTE_F5,119, NOTE_REST,5, NOTE_F5,119, NOTE_REST,5, NOTE_G5,244,
 NOTE_REST,5, NOTE_G5,244, NOTE_REST,755, NOTE_G5,244, NOTE_REST,5, NOTE_G5,244, NOTE_REST,5, NOTE_G5,119,
 NOTE_REST,5, NOTE_G5,119, NOTE_REST,5, NOTE_F5,244, NOTE_REST,5, NOTE_F5,244, NOTE_REST,755, NOTE_F5,244,
 NOTE_REST,5, NOTE_F5,244, NOTE_REST,5, NOTE_F5,119, NOTE_REST,5, NOTE_F5,119, NOTE_REST,5, NOTE_E5,666,
 NOTE_REST,83, NOTE_E5,494, NOTE_REST,5, NOTE_G5,244, NOTE_REST,5, NOTE_A5,244, NOTE_REST,5, NOTE_G5,244,
 NOTE_REST,5, NOTE_C5,1875, NOTE_REST,125, NOTE_F5,666, NOTE_REST,83, NOTE_F5,494, NOTE_REST,5, NOTE_A5,244,
 NOTE_REST,5, NOTE_B5,244, NOTE_REST,5, NOTE_A5,244, NOTE_REST,5, NOTE_DS5,1875, NOTE_REST,125, NOTE_G5,666,
 NOTE_REST,83, NOTE_G5,494, NOTE_REST,5, NOTE_C6,244, NOTE_REST,5, NOTE_D6,244, NOTE_REST,5, NOTE_C6,244,
 NOTE_REST,5, NOTE_G6,666, NOTE_REST,83, NOTE_F6,494, NOTE_REST,5, NOTE_C6,244, NOTE_REST,5, NOTE_G5,244,
 NOTE_REST,5, NOTE_F5,244, NOTE_REST,5, NOTE_E6,666, NOTE_REST,83, NOTE_C6,494, NOTE_REST,5, NOTE_A5,244,
 NOTE_REST,5, NOTE_F5,244, NOTE_REST,5, NOTE_E5,244, NOTE_REST,5, NOTE_DS5,1375, NOTE_REST,125, NOTE_CS5,2376,
 NOTE_REST,3876, NOTE_D5,182, NOTE_REST,67, NOTE_E5,119, NOTE_REST,5, NOTE_DS5,119, NOTE_REST,5, NOTE_E5,119,
 NOTE_REST,5, NOTE_G5,244, NOTE_REST,5, NOTE_A5,119, NOTE_REST,5, NOTE_G5,244, NOTE_REST,5, NOTE_C5,416,
 NOTE_REST,333, NOTE_G4,119, NOTE_REST,5, NOTE_GS4,119, NOTE_REST,5, NOTE_A4,119, NOTE_REST,5, NOTE_GS4,119,
 NOTE_REST,5, NOTE_A4,119, NOTE_REST,5, NOTE_C5,244, NOTE_REST,5, NOTE_D5,119, NOTE_REST,5, NOTE_C5,244,
 NOTE_REST,5, NOTE_A4,416, NOTE_REST,333, NOTE_A4,244, NOTE_REST,5, NOTE_G4,119, NOTE_REST,5, NOTE_E4,119,
 NOTE_REST,5, NOTE_F4,119, NOTE_REST,5, NOTE_G5,369, NOTE_REST,5, NOTE_G4,119, NOTE_REST,5, NOTE_E4,119,
 NOTE_REST,5, NOTE_F4,119, NOTE_REST,5, NOTE_G5,369, NOTE_REST,5, NOTE_G4,307, NOTE_REST,5, NOTE_G5,181,
 NOTE_REST,5, NOTE_F5,244, NOTE_REST,5, NOTE_G5,244, NOTE_REST,5, NOTE_A5,119, NOTE_REST,5, NOTE_G5,244,
 NOTE_REST,5, NOTE_D5,541, NOTE_REST,333, NOTE_D5,182, NOTE_REST,67, NOTE_E5,119, NOTE_REST,5, NOTE_DS5,119,
 NOTE_REST,5, NOTE_E5,119, NOTE_REST,5, NOTE_G5,244, NOTE_REST,5, NOTE_A5,119, NOTE_REST,5, NOTE_G5,244,
 NOTE_REST,5, NOTE_AS5,416, NOTE_REST,333, NOTE_GS5,244, NOTE_REST,5, NOTE_A5,119, NOTE_REST,5, NOTE_GS5,119,
 NOTE_REST,5, NOTE_A5,119, NOTE_REST,5, NOTE_C6,244, NOTE_REST,5, NOTE_D6,119, NOTE_REST,5, NOTE_C6,244,
 NOTE_REST,5, NOTE_A5,416, NOTE_REST,333, NOTE_A5,244, NOTE_REST,5, NOTE_G5,119, NOTE_REST,5, NOTE_FS5,119,
 NOTE_REST,5, NOTE_G5,119, NOTE_REST,5, NOTE_G4,369, NOTE_REST,5, NOTE_G5,119, NOTE_REST,5, NOTE_FS5,119,
 NOTE_REST,5, NOTE_G5,119, NOTE_REST,5, NOTE_G4,244, NOTE_REST,5, NOTE_G4,119, NOTE_REST,5, NOTE_D5,244,
 NOTE_REST,5, NOTE_E5,244, NOTE_REST,5, NOTE_E4,1375, NOTE_REST,375, NOTE_D5,119, NOTE_REST,5, NOTE_DS5,119,
 NOTE_REST,5, NOTE_E5,119, NOTE_REST,5, NOTE_DS5,119, NOTE_REST,5, NOTE_E5,119, NOTE_REST,5, NOTE_G5,244,
 NOTE_REST,5, NOTE_A5,119, NOTE_REST,5, NOTE_G5,244, NOTE_REST,5, NOTE_C5,416, NOTE_REST,333, NOTE_G4,119,
 NOTE_REST,5, NOTE_GS4,119, NOTE_REST,5, NOTE_A4,119, NOTE_REST,5, NOTE_GS4,119, NOTE_REST,5, NOTE_A4,119,
 NOTE_REST,5, NOTE_C5,244, NOTE_REST,5, NOTE_D5,119, NOTE_REST,5, NOTE_C5,244, NOTE_REST,5, NOTE_A4,416,
 NOTE_REST,333, NOTE_A4,244, NOTE_REST,5, NOTE_G4,119, NOTE_REST,5, NOTE_E4,119, NOTE_REST,5, NOTE_F4,119,
 NOTE_REST,5, NOTE_G5,432, NOTE_REST,5, NOTE_G4,57, NOTE_REST,5, NOTE_F4,119, NOTE_REST,5, NOTE_E4,119,
 NOTE_REST,5, NOTE_G4,369, NOTE_REST,5, NOTE_G4,307, NOTE_REST,5, NOTE_G5,181, NOTE_REST,5, NOTE_F5,244,
 NOTE_REST,5, NOTE_G5,244, NOTE_REST,5, NOTE_A5,119, NOTE_REST,5, NOTE_G5,244, NOTE_REST,5, NOTE_D5,541,
 NOTE_REST,333, NOTE_D5,182, NOTE_REST,67, NOTE_E5,119, NOTE_REST,5, NOTE_DS5,119, NOTE_REST,5, NOTE_E5,119,
 NOTE_REST,5, NOTE_G5,244, NOTE_REST,5, NOTE_A5,119, NOTE_REST,5, NOTE_G5,244, NOTE_REST,5, NOTE_AS5,416,
 NOTE_REST,333, NOTE_GS5,244, NOTE_REST,5, NOTE_A5,119, NOTE_REST,5, NOTE_GS5,119, NOTE_REST,5, NOTE_A5,119,
 NOTE_REST,5, NOTE_C6,119, NOTE_REST,130, NOTE_D6,119, NOTE_REST,5, NOTE_C6,244, NOTE_REST,5, NOTE_A5,416,
 NOTE_REST,333, NOTE_A5,244, NOTE_REST,5, NOTE_G5,119, NOTE_REST,5, NOTE_FS5,119, NOTE_REST,5, NOTE_G5,119,
 NOTE_REST,5, NOTE_G4,369, NOTE_REST,5, NOTE_G5,119, NOTE_REST,5, NOTE_FS5,119, NOTE_REST,5, NOTE_G5,119,
 NOTE_REST,5, NOTE_G4,244, NOTE_REST,5, NOTE_G4,119, NOTE_REST,5, NOTE_F5,244, NOTE_REST,5, NOTE_E5,244,
 NOTE_REST,5, NOTE_C5,1875, NOTE_REST,125, NOTE_F6,666, NOTE_REST,83, NOTE_C6,244, NOTE_REST,5, NOTE_E6,666,
 NOTE_REST,83, NOTE_C6,244, NOTE_REST,5, NOTE_F6,369, NOTE_REST,5, NOTE_G6,119, NOTE_REST,318, NOTE_E6,103,
 NOTE_REST,83, NOTE_E6,182, NOTE_REST,5, NOTE_F6,57, NOTE_REST,5, NOTE_G6,119, NOTE_REST,5, NOTE_GS6,119,
 NOTE_REST,505, NOTE_F6,666, NOTE_REST,83, NOTE_F6,244, NOTE_REST,5, NOTE_E6,666, NOTE_REST,83, NOTE_FS6,244,
 NOTE_REST,5, NOTE_F6,369, NOTE_REST,5, NOTE_E6,369, NOTE_REST,5, NOTE_C6,666, NOTE_REST,583, NOTE_F6,244,
 NOTE_REST,5, NOTE_F6,244, NOTE_REST,5, NOTE_F6,244, NOTE_REST,5, NOTE_F6,244, NOTE_REST,5, NOTE_E6,244,
 NOTE_REST,5, NOTE_E6,244, NOTE_REST,5, NOTE_DS6,244, NOTE_REST,5, NOTE_DS6,244, NOTE_REST,5, NOTE_D6,369,
 NOTE_REST,5, NOTE_E6,119, NOTE_REST,255, NOTE_C6,1125, NOTE_REST,125, NOTE_F6,244, NOTE_REST,5, NOTE_F6,244,
 NOTE_REST,5, NOTE_F6,244, NOTE_REST,5, NOTE_F6,244, NOTE_REST,5, NOTE_E6,244, NOTE_REST,5, NOTE_E6,244,
 NOTE_REST,5, NOTE_DS6,244, NOTE_REST,5, NOTE_DS6,244, NOTE_REST,5, NOTE_D6,369, NOTE_REST,5, NOTE_C6,119,
 NOTE_REST,255, NOTE_G5,1125, NOTE_REST,125, NOTE_C6,119, NOTE_REST,5, NOTE_E5,244, NOTE_REST,5, NOTE_AS5,119,
 NOTE_REST,505, NOTE_C6,119, NOTE_REST,5, NOTE_E5,244, NOTE_REST,5, NOTE_AS5,119, NOTE_REST,505, NOTE_A5,119,
 NOTE_REST,5, NOTE_C5,244, NOTE_REST,5, NOTE_DS5,119, NOTE_REST,505, NOTE_A5,119, NOTE_REST,5, NOTE_C5,244,
 NOTE_REST,5, NOTE_DS5,119, NOTE_REST,505, NOTE_C6,119, NOTE_REST,5, NOTE_E5,244, NOTE_REST,5, NOTE_AS5,119,
 NOTE_REST,505, NOTE_C6,119, NOTE_REST,5, NOTE_E5,244, NOTE_REST,5, NOTE_AS5,119, NOTE_REST,505, NOTE_F5,244,
 NOTE_REST,5, NOTE_F5,244, NOTE_REST,5, NOTE_F5,244, NOTE_REST,5, NOTE_F5,244, NOTE_REST,5, NOTE_F5,416,
 NOTE_REST,83, NOTE_G5,57, NOTE_REST,5, NOTE_F5,57, NOTE_REST,5, NOTE_E5,57, NOTE_REST,5, NOTE_D5,57,
 NOTE_REST,5, NOTE_C5,57, NOTE_REST,5, NOTE_AS4,57, NOTE_REST,5, NOTE_G4,119, NOTE_REST,5, NOTE_C6,119,
 NOTE_REST,5, NOTE_E5,244, NOTE_REST,5, NOTE_AS5,119, NOTE_REST,505, NOTE_C6,119, NOTE_REST,5, NOTE_E5,244,
 NOTE_REST,5, NOTE_AS5,119, NOTE_REST,505, NOTE_A5,119, NOTE_REST,5, NOTE_C5,244, NOTE_REST,5, NOTE_DS5,119,
 NOTE_REST,505, NOTE_A5,119, NOTE_REST,5, NOTE_C5,244, NOTE_REST,5, NOTE_DS5,119, NOTE_REST,505, NOTE_C6,119,
 NOTE_REST,5, NOTE_E5,244, NOTE_REST,5, NOTE_AS5,119, NOTE_REST,505, NOTE_C6,119, NOTE_REST,5, NOTE_E5,244,
 NOTE_REST,5, NOTE_AS5,119, NOTE_REST,505, NOTE_C6,357, NOTE_REST,285, NOTE_C6,209, NOTE_REST,218, NOTE_C6,209,
 NOTE_REST,218, NOTE_C6,209, NOTE_REST,4, NOTE_C6,209, NOTE_REST,4, NOTE_E6,209, NOTE_REST,4, NOTE_G6,357,
 NOTE_REST,500, NOTE_G5,209, NOTE_REST,4, NOTE_C6,209, NOTE_REST,4, NOTE_B5,357, NOTE_REST,285, NOTE_B5,209,
 NOTE_REST,218, NOTE_B5,209, NOTE_REST,218, NOTE_AS5,209, NOTE_REST,4, NOTE_B5,209, NOTE_REST,4, NOTE_D6,209,
 NOTE_REST,4, NOTE_G6,357, NOTE_REST,500, NOTE_G5,209, NOTE_REST,4, NOTE_B5,209, NOTE_REST,4, NOTE_A5,357,
 NOTE_REST,285, NOTE_A5,209, NOTE_REST,218, NOTE_A5,209, NOTE_REST,218, NOTE_GS5,209, NOTE_REST,4, NOTE_A5,209,
 NOTE_REST,4, NOTE_C6,209, NOTE_REST,4, NOTE_E6,357, NOTE_REST,285, NOTE_C6,209, NOTE_REST,4, NOTE_D6,209,
 NOTE_REST,4, NOTE_A5,209, NOTE_REST,4, NOTE_FS6,209, NOTE_REST,4, NOTE_FS6,209, NOTE_REST,4, NOTE_FS6,209,
 NOTE_REST,4, NOTE_FS6,424, NOTE_REST,4, NOTE_D6,209, NOTE_REST,4, NOTE_C6,209, NOTE_REST,4, NOTE_A5,209,
 NOTE_REST,4, NOTE_A5,209, NOTE_REST,4, NOTE_A5,209, NOTE_REST,1290, NOTE_REST,643, NOTE_A4,209, NOTE_REST,218,
 NOTE_B4,209, NOTE_REST,218, NOTE_D5,209, NOTE_REST,4, NOTE_G5,357, NOTE_REST,285, NOTE_D6,209, NOTE_REST,1505,
 NOTE_A4,209, NOTE_REST,218, NOTE_B4,209, NOTE_REST,218, NOTE_D5,209, NOTE_REST,4, NOTE_G5,357, NOTE_REST,285,
 NOTE_D6,209, NOTE_REST,1505, NOTE_A4,209, NOTE_REST,218, NOTE_B4,209, NOTE_REST,218, NOTE_D5,209, NOTE_REST,4,
 NOTE_G5,357, NOTE_REST,285, NOTE_D6,209, NOTE_REST,1505, NOTE_A4,209, NOTE_REST,218, NOTE_B4,209, NOTE_REST,218,
 NOTE_D5,209, NOTE_REST,4, NOTE_G5,357, NOTE_REST,285, NOTE_D6,209, NOTE_REST,1505, NOTE_A4,209, NOTE_REST,218,
 NOTE_AS4,209, NOTE_REST,218, NOTE_D5,209, NOTE_REST,4, NOTE_G5,357, NOTE_REST,285, NOTE_D6,209, NOTE_REST,1505,
 NOTE_A4,209, NOTE_REST,218, NOTE_AS4,209, NOTE_REST,218, NOTE_D5,209, NOTE_REST,4, NOTE_G5,357, NOTE_REST,285,
 NOTE_D6,209, NOTE_REST,1076, NOTE_D5,209, NOTE_REST,4, NOTE_G5,209, NOTE_REST,4, NOTE_A5,209, NOTE_REST,4,
 NOTE_B5,209, NOTE_REST,4, NOTE_C6,209, NOTE_REST,4, NOTE_B5,209, NOTE_REST,4, NOTE_A5,209, NOTE_REST,4,
 NOTE_G5,357, NOTE_REST,71, NOTE_D5,357, NOTE_REST,71, NOTE_C5,357, NOTE_REST,71, NOTE_G5,357, NOTE_REST,71,
 NOTE_D5,357, NOTE_REST,285, NOTE_G4,209, NOTE_REST,647, NOTE_G4,209, NOTE_REST,1076, NOTE_C5,209, NOTE_REST,218,
 NOTE_C5,209, NOTE_REST,4, NOTE_B4,209, NOTE_REST,4, NOTE_D5,209, NOTE_REST,4, NOTE_G5,357, NOTE_REST,285,
 NOTE_A4,209, NOTE_REST,218, NOTE_B4,209, NOTE_REST,647, NOTE_D5,209, NOTE_REST,218, NOTE_G5,209, NOTE_REST,647,
 NOTE_D5,209, NOTE_REST,4, NOTE_G5,209, NOTE_REST,4, NOTE_A5,209, NOTE_REST,4, NOTE_B5,209, NOTE_REST,4,
 NOTE_C6,209, NOTE_REST,4, NOTE_B5,209, NOTE_REST,4, NOTE_A5,209, NOTE_REST,4, NOTE_G5,357, NOTE_REST,71,
 NOTE_D5,357, NOTE_REST,71, NOTE_C5,357, NOTE_REST,71, NOTE_G5,357, NOTE_REST,71, NOTE_D5,357, NOTE_REST,285,
 NOTE_G4,209, NOTE_REST,218, NOTE_G4,209, NOTE_REST,218, NOTE_G4,209, NOTE_REST,647, NOTE_C5,209, NOTE_REST,218,
 NOTE_C5,209, NOTE_REST,218, NOTE_C5,209, NOTE_REST,4, NOTE_B4,209, NOTE_REST,4, NOTE_D5,209, NOTE_REST,4,
 NOTE_G5,357, NOTE_REST,285, NOTE_A4,209, NOTE_REST,218, NOTE_B4,209, NOTE_REST,647, NOTE_B4,209, NOTE_REST,1505,
 NOTE_G5,209, NOTE_REST,4, NOTE_E6,209, NOTE_REST,4, NOTE_D6,209, NOTE_REST,4, NOTE_C6,209, NOTE_REST,4,
 NOTE_E6,209, NOTE_REST,4, NOTE_D6,357, NOTE_REST,285, NOTE_G5,209, NOTE_REST,1505, NOTE_E5,209, NOTE_REST,4,
 NOTE_D6,209, NOTE_REST,4, NOTE_C6,209, NOTE_REST,4, NOTE_B5,209, NOTE_REST,4, NOTE_C6,209, NOTE_REST,4,
 NOTE_B5,357, NOTE_REST,285, NOTE_G5,209, NOTE_REST,1505, NOTE_G5,209, NOTE_REST,4, NOTE_E6,209, NOTE_REST,4,
 NOTE_D6,209, NOTE_REST,4, NOTE_C6,209, NOTE_REST,4, NOTE_E6,209, NOTE_REST,4, NOTE_D6,357, NOTE_REST,285,
 NOTE_G5,209, NOTE_REST,1719, NOTE_C6,209, NOTE_REST,4, NOTE_D6,209, NOTE_REST,4, NOTE_C6,209, NOTE_REST,4,
 NOTE_B5,209, NOTE_REST,433, NOTE_G5,357, NOTE_REST,71, NOTE_E5,357, NOTE_REST,714, NOTE_D5,209, NOTE_REST,4,
 NOTE_G5,209, NOTE_REST,4, NOTE_A5,209, NOTE_REST,4, NOTE_B5,209, NOTE_REST,4, NOTE_C6,209, NOTE_REST,4,
 NOTE_B5,209, NOTE_REST,4, NOTE_A5,209, NOTE_REST,4, NOTE_G5,357, NOTE_REST,71, NOTE_D5,357, NOTE_REST,71,
 NOTE_C5,357, NOTE_REST,71, NOTE_G5,357, NOTE_REST,71, NOTE_D5,357, NOTE_REST,285, NOTE_G4,209, NOTE_REST,647,
 NOTE_G4,209, NOTE_REST,1505, NOTE_C5,209, NOTE_REST,4, NOTE_B4,209, NOTE_REST,4, NOTE_D5,209, NOTE_REST,4,
 NOTE_G5,357, NOTE_REST,285, NOTE_A4,209, NOTE_REST,218, NOTE_B4,209, NOTE_REST,647, NOTE_D5,209, NOTE_REST,1076,
 NOTE_D5,209, NOTE_REST,4, NOTE_G5,209, NOTE_REST,4, NOTE_A5,209, NOTE_REST,4, NOTE_B5,209, NOTE_REST,4,
 NOTE_C6,209, NOTE_REST,4, NOTE_B5,209, NOTE_REST,4, NOTE_A5,209, NOTE_REST,4, NOTE_G5,357, NOTE_REST,71,
 NOTE_D5,357, NOTE_REST,71, NOTE_C5,357, NOTE_REST,71, NOTE_G5,357, NOTE_REST,71, NOTE_D5,357, NOTE_REST,285,
 NOTE_G4,209, NOTE_REST,218, NOTE_C5,209, NOTE_REST,218, NOTE_G4,209, NOTE_REST,1076, NOTE_C5,209, NOTE_REST,218,
 NOTE_C5,209, NOTE_REST,4, NOTE_B4,209, NOTE_REST,4, NOTE_D5,209, NOTE_REST,4, NOTE_G5,357, NOTE_REST,285,
 NOTE_A4,209, NOTE_REST,218, NOTE_B4,209, NOTE_REST,1076, NOTE_B4,209, NOTE_REST,1076, NOTE_A4,209, NOTE_REST,218,
 NOTE_A4,209, NOTE_REST,4, NOTE_A4,209, NOTE_REST,4, NOTE_A4,209, NOTE_REST,218, NOTE_A4,209, NOTE_REST,4,
 NOTE_A4,209, NOTE_REST,4, NOTE_A4,209, NOTE_REST,218, NOTE_A4,209, NOTE_REST,4, NOTE_A4,209, NOTE_REST,4,
 NOTE_A4,209, NOTE_REST,647, NOTE_AS4,209, NOTE_REST,218, NOTE_AS4,209, NOTE_REST,218, NOTE_AS4,209, NOTE_REST,218,
 NOTE_AS4,209, NOTE_REST,4, NOTE_AS4,209, NOTE_REST,4, NOTE_AS4,209, NOTE_REST,4, NOTE_AS4,209, NOTE_REST,4,
 NOTE_AS4,209, NOTE_REST,4, NOTE_AS4,209, NOTE_REST,4, NOTE_AS4,209, NOTE_REST,647, NOTE_C5,209, NOTE_REST,218,
 NOTE_C5,209, NOTE_REST,218, NOTE_C5,209, NOTE_REST,218, NOTE_C5,209, NOTE_REST,218, NOTE_C5,209, NOTE_REST,218,
 NOTE_C5,209, NOTE_REST,433, NOTE_REST,2250, NOTE_A4,625, NOTE_REST,125, NOTE_D6,156, NOTE_REST,4, NOTE_C6,156,
 NOTE_REST,4, NOTE_G5,102, NOTE_REST,4, NOTE_D5,156, NOTE_REST,4, NOTE_C5,156, NOTE_REST,4, NOTE_G4,102,
 NOTE_REST,4, NOTE_D4,357, NOTE_REST,2215, NOTE_A4,1607, NOTE_REST,107, NOTE_B4,1607, NOTE_REST,107, NOTE_C5,1607,
 NOTE_REST,107, NOTE_D5,1607, NOTE_REST,107, NOTE_A4,1607, NOTE_REST,107, NOTE_B4,1607, NOTE_REST,107, NOTE_C5,1607,
 NOTE_REST,107, NOTE_D5,750, NOTE_REST,964, NOTE_D5,1067, NOTE_REST,4, NOTE_A4,209, NOTE_REST,4, NOTE_D5,209,
 NOTE_REST,4, NOTE_C6,209, NOTE_REST,4, NOTE_B5,209, NOTE_REST,4, NOTE_G5,209, NOTE_REST,4, NOTE_D5,1179,
 NOTE_REST,107, NOTE_D5,571, NOTE_REST,71, NOTE_C5,424, NOTE_REST,4, NOTE_D5,209, NOTE_REST,4, NOTE_G5,209,
 NOTE_REST,4, NOTE_F5,209, NOTE_REST,4, NOTE_G5,1607, NOTE_REST,107, NOTE_D5,1067, NOTE_REST,4, NOTE_A4,209,
 NOTE_REST,4, NOTE_D5,209, NOTE_REST,4, NOTE_C6,209, NOTE_REST,4, NOTE_B5,209, NOTE_REST,4, NOTE_G5,209,
 NOTE_REST,4, NOTE_D5,571, NOTE_REST,71, NOTE_A4,209, NOTE_REST,4, NOTE_D5,209, NOTE_REST,4, NOTE_D6,209,
 NOTE_REST,4, NOTE_C6,357, NOTE_REST,71, NOTE_B5,1067, NOTE_REST,4, NOTE_A5,209, NOTE_REST,4, NOTE_G5,1607,
 NOTE_REST,107, NOTE_DS5,1067, NOTE_REST,4, NOTE_C5,209, NOTE_REST,4, NOTE_F5,209, NOTE_REST,4, NOTE_DS6,209,
 NOTE_REST,4, NOTE_D6,209, NOTE_REST,4, NOTE_AS5,209, NOTE_REST,4, NOTE_F5,1174, NOTE_REST,4, NOTE_DS5,316,
 NOTE_REST,4, NOTE_F5,1281, NOTE_REST,4, NOTE_GS5,209, NOTE_REST,4, NOTE_F5,1607, NOTE_REST,107, NOTE_D5,1067,
 NOTE_REST,4, NOTE_A4,209, NOTE_REST,4, NOTE_D5,209, NOTE_REST,4, NOTE_C6,209, NOTE_REST,4, NOTE_B5,209,
 NOTE_REST,4, NOTE_G5,209, NOTE_REST,4, NOTE_D5,1179, NOTE_REST,107, NOTE_DS5,1607, NOTE_REST,107, NOTE_F5,1607,
 NOTE_REST,107, NOTE_GS5,750, NOTE_REST,107, NOTE_G6,750, NOTE_REST,107, NOTE_F6,357, NOTE_REST,71, NOTE_B5,1179,
 NOTE_REST,107, NOTE_GS5,750, NOTE_REST,107, NOTE_G6,750, NOTE_REST,107, NOTE_F6,357, NOTE_REST,71, NOTE_D6,750,
 NOTE_REST,107, NOTE_B6,357, NOTE_REST,71, NOTE_C6,750, NOTE_REST,107, NOTE_G5,750, NOTE_REST,107, NOTE_G5,750,
 NOTE_REST,107, NOTE_G5,750, NOTE_REST,107, NOTE_GS5,2465, NOTE_REST,107, NOTE_C6,750, NOTE_REST,107, NOTE_D6,3322,
 NOTE_REST,107, NOTE_GS5,1607, NOTE_REST,107, NOTE_GS6,750, NOTE_REST,107, NOTE_DS6,750, NOTE_REST,107, NOTE_G5,1607,
 NOTE_REST,107, NOTE_G6,1067, NOTE_REST,4, NOTE_G5,48, NOTE_REST,4, NOTE_F5,48, NOTE_REST,4, NOTE_E5,48,
 NOTE_REST,4, NOTE_D5,48, NOTE_REST,4, NOTE_G5,48, NOTE_REST,4, NOTE_F5,48, NOTE_REST,4, NOTE_E5,48,
 NOTE_REST,4, NOTE_D5,48, NOTE_REST,4, NOTE_G5,48, NOTE_REST,4, NOTE_F5,48, NOTE_REST,4, NOTE_E5,48,
 NOTE_REST,58, NOTE_REST,8003, NOTE_D6,666, NOTE_REST,83, NOTE_CS6,1125, NOTE_REST,125, NOTE_C6,666, NOTE_REST,83,
 NOTE_A5,1125, NOTE_REST,125, NOTE_D6,666, NOTE_REST,83, NOTE_CS6,494, NOTE_REST,5, NOTE_C6,494, NOTE_REST,5,
 NOTE_A5,494, NOTE_REST,5, NOTE_A5,1625, NOTE_REST,125, NOTE_D6,666, NOTE_REST,83, NOTE_CS6,1125, NOTE_REST,125,
 NOTE_C6,666, NOTE_REST,83, NOTE_A5,1125, NOTE_REST,125, NOTE_D6,666, NOTE_REST,83, NOTE_CS6,494, NOTE_REST,5,
 NOTE_C6,494, NOTE_REST,5, NOTE_A5,494, NOTE_REST,5, NOTE_A5,1625, NOTE_REST,125, NOTE_A5,666, NOTE_REST,83,
 NOTE_A5,1125, NOTE_REST,125, NOTE_A5,666, NOTE_REST,83, NOTE_GS5,1125, NOTE_REST,125, NOTE_A5,666, NOTE_REST,83,
 NOTE_A5,1125, NOTE_REST,125, NOTE_A5,666, NOTE_REST,83, NOTE_GS5,1125, NOTE_REST,125, NOTE_A5,666, NOTE_REST,83,
 NOTE_A5,1125, NOTE_REST,125, NOTE_A5,666, NOTE_REST,83, NOTE_GS5,1125, NOTE_REST,125, NOTE_A5,666, NOTE_REST,83,
 NOTE_A5,1125, NOTE_REST,125, NOTE_A5,666, NOTE_REST,83, NOTE_GS5,1125, NOTE_REST,8128, NOTE_REST,6645, NOTE_C6,424,
 NOTE_REST,4, NOTE_C6,209, NOTE_REST,4, NOTE_A5,209, NOTE_REST,4, NOTE_A5,209, NOTE_REST,4, NOTE_AS5,209,
 NOTE_REST,4, NOTE_AS5,209, NOTE_REST,3649, NOTE_C6,424, NOTE_REST,4, NOTE_C6,209, NOTE_REST,4, NOTE_A5,209,
 NOTE_REST,4, NOTE_A5,209, NOTE_REST,4, NOTE_AS5,209, NOTE_REST,4, NOTE_AS5,209, NOTE_REST,1934, NOTE_F5,424,
 NOTE_REST,4, NOTE_F5,209, NOTE_REST,4, NOTE_D5,209, NOTE_REST,4, NOTE_D5,209, NOTE_REST,4, NOTE_DS5,209,
 NOTE_REST,4, NOTE_DS5,209, NOTE_REST,1934, NOTE_F5,424, NOTE_REST,4, NOTE_F5,209, NOTE_REST,4, NOTE_D5,209,
 NOTE_REST,4, NOTE_D5,209, NOTE_REST,4, NOTE_DS5,209, NOTE_REST,4, NOTE_DS5,209, NOTE_REST,3863, NOTE_C5,209,
 NOTE_REST,4, NOTE_C6,209, NOTE_REST,4, NOTE_A4,209, NOTE_REST,4, NOTE_A5,209, NOTE_REST,4, NOTE_AS4,209,
 NOTE_REST,4, NOTE_AS5,209, NOTE_REST,2148, NOTE_C5,209, NOTE_REST,4, NOTE_C6,209, NOTE_REST,4, NOTE_A4,209,
 NOTE_REST,4, NOTE_A5,209, NOTE_REST,4, NOTE_AS4,209, NOTE_REST,4, NOTE_AS5,209, NOTE_REST,2148, NOTE_F4,209,
 NOTE_REST,4, NOTE_F5,209, NOTE_REST,4, NOTE_D4,209, NOTE_REST,4, NOTE_D5,209, NOTE_REST,4, NOTE_DS4,209,
 NOTE_REST,4, NOTE_DS5,209, NOTE_REST,2148, NOTE_F4,209, NOTE_REST,4, NOTE_F5,209, NOTE_REST,4, NOTE_D4,209,
 NOTE_REST,4, NOTE_D5,209, NOTE_REST,4, NOTE_DS4,209, NOTE_REST,4, NOTE_DS5,209, NOTE_REST,1826, NOTE_DS5,102,
 NOTE_REST,4, NOTE_D5,102, NOTE_REST,4, NOTE_CS5,102, NOTE_REST,4, NOTE_C5,357, NOTE_REST,71, NOTE_DS5,357,
 NOTE_REST,71, NOTE_D5,357, NOTE_REST,71, NOTE_GS4,357, NOTE_REST,71, NOTE_G4,357, NOTE_REST,71, NOTE_CS5,357,
 NOTE_REST,71, NOTE_C5,156, NOTE_REST,4, NOTE_FS5,156, NOTE_REST,4, NOTE_F5,102, NOTE_REST,4, NOTE_E5,156,
 NOTE_REST,4, NOTE_B5,156, NOTE_REST,4, NOTE_AS5,102, NOTE_REST,4, NOTE_A5,316, NOTE_REST,4, NOTE_DS5,102,
 NOTE_REST,111, NOTE_B4,316, NOTE_REST,4, NOTE_AS4,316, NOTE_REST,4, NOTE_A4,102, NOTE_REST,218, NOTE_GS4,209,
 NOTE_REST,1719, NOTE_C5,209, NOTE_REST,4, NOTE_C6,209, NOTE_REST,4, NOTE_A4,209, NOTE_REST,4, NOTE_A5,209,
 NOTE_REST,4, NOTE_AS4,209, NOTE_REST,4, NOTE_AS5,209, NOTE_REST,2148, NOTE_C5,209, NOTE_REST,4, NOTE_C6,209,
 NOTE_REST,4, NOTE_A4,209, NOTE_REST,4, NOTE_A5,209, NOTE_REST,4, NOTE_AS4,209, NOTE_REST,4, NOTE_AS5,209,
 NOTE_REST,2148, NOTE_F4,209, NOTE_REST,4, NOTE_F5,209, NOTE_REST,4, NOTE_D4,209, NOTE_REST,4, NOTE_D5,209,
 NOTE_REST,4, NOTE_DS4,209, NOTE_REST,4, NOTE_DS5,209, NOTE_REST,2148, NOTE_F4,209, NOTE_REST,4, NOTE_F5,209,
 NOTE_REST,4, NOTE_D4,209, NOTE_REST,4, NOTE_D5,209, NOTE_REST,4, NOTE_DS4,209, NOTE_REST,4, NOTE_DS5,209,
 NOTE_REST,1826, NOTE_DS5,102, NOTE_REST,4, NOTE_D5,102, NOTE_REST,4, NOTE_CS5,102, NOTE_REST,4, NOTE_C5,357,
 NOTE_REST,71, NOTE_DS5,357, NOTE_REST,71, NOTE_D5,357, NOTE_REST,71, NOTE_GS4,357, NOTE_REST,71, NOTE_G4,357,
 NOTE_REST,71, NOTE_CS5,357, NOTE_REST,71, NOTE_C5,156, NOTE_REST,4, NOTE_FS5,156, NOTE_REST,4, NOTE_F5,102,
 NOTE_REST,4, NOTE_E5,156, NOTE_REST,4, NOTE_B5,156, NOTE_REST,4, NOTE_AS5,102, NOTE_REST,4, NOTE_A5,316,
 NOTE_REST,4, NOTE_DS5,102, NOTE_REST,111, NOTE_B4,316, NOTE_REST,4, NOTE_AS4,316, NOTE_REST,4, NOTE_A4,102,
 NOTE_REST,218, NOTE_GS4,209, NOTE_REST,1719, NOTE_C6,357, NOTE_REST,285, NOTE_C6,209, NOTE_REST,218, NOTE_C6,209, /*
 NOTE_REST,218, NOTE_C6,209, NOTE_REST,4, NOTE_C6,209, NOTE_REST,4, NOTE_E6,209, NOTE_REST,4, NOTE_G6,357,
 NOTE_REST,500, NOTE_G5,209, NOTE_REST,4, NOTE_C6,209, NOTE_REST,4, NOTE_B5,357, NOTE_REST,285, NOTE_B5,209,
 NOTE_REST,218, NOTE_B5,209, NOTE_REST,218, NOTE_AS5,209, NOTE_REST,4, NOTE_B5,209, NOTE_REST,4, NOTE_D6,209,
 NOTE_REST,4, NOTE_G6,357, NOTE_REST,500, NOTE_G5,209, NOTE_REST,4, NOTE_B5,209, NOTE_REST,4, NOTE_A5,357,
 NOTE_REST,285, NOTE_A5,209, NOTE_REST,218, NOTE_A5,209, NOTE_REST,218, NOTE_GS5,209, NOTE_REST,4, NOTE_A5,209,
 NOTE_REST,4, NOTE_C6,209, NOTE_REST,4, NOTE_E6,357, NOTE_REST,285, NOTE_C6,209, NOTE_REST,4, NOTE_D6,209,
 NOTE_REST,4, NOTE_A5,209, NOTE_REST,4, NOTE_FS6,209, NOTE_REST,4, NOTE_FS6,209, NOTE_REST,4, NOTE_FS6,209,
 NOTE_REST,4, NOTE_FS6,424, NOTE_REST,4, NOTE_D6,209, NOTE_REST,4, NOTE_C6,209, NOTE_REST,4, NOTE_A5,209,
 NOTE_REST,4, NOTE_A5,209, NOTE_REST,4, NOTE_A5,209, NOTE_REST,1290, NOTE_A5,308, NOTE_REST,432, NOTE_A5,308,
 NOTE_REST,432, NOTE_A5,308, NOTE_REST,61, NOTE_CS6,181, NOTE_REST,3, NOTE_A4,181, NOTE_REST,3, NOTE_B5,308,
 NOTE_REST,61, NOTE_AS5,308, NOTE_REST,61, NOTE_A5,648, NOTE_REST,92, NOTE_B5,308, NOTE_REST,61, NOTE_A5,308,
 NOTE_REST,61, NOTE_D5,1018, NOTE_REST,463, NOTE_B4,308, NOTE_REST,61, NOTE_B4,308, NOTE_REST,61, NOTE_E5,308,
 NOTE_REST,61, NOTE_D5,308, NOTE_REST,61, NOTE_B4,1018, NOTE_REST,463, NOTE_A4,493, NOTE_REST,61, NOTE_A4,493,
 NOTE_REST,61, NOTE_A5,551, NOTE_REST,3, NOTE_A4,493, NOTE_REST,61, NOTE_A4,308, NOTE_REST,61, NOTE_A5,308,
 NOTE_REST,61, NOTE_A4,648, NOTE_REST,463, NOTE_A5,308, NOTE_REST,61, NOTE_E5,1018, NOTE_REST,463, NOTE_FS5,648,
 NOTE_REST,92, NOTE_B5,308, NOTE_REST,61, NOTE_A5,308, NOTE_REST,61, NOTE_C6,1018, NOTE_REST,463, NOTE_B5,308,
 NOTE_REST,61, NOTE_B5,308, NOTE_REST,61, NOTE_E6,308, NOTE_REST,61, NOTE_D6,308, NOTE_REST,61, NOTE_B5,1018,
 NOTE_REST,463, NOTE_A5,493, NOTE_REST,61, NOTE_A5,493, NOTE_REST,61, NOTE_A4,551, NOTE_REST,3, NOTE_A5,493,
 NOTE_REST,61, NOTE_A4,308, NOTE_REST,61, NOTE_E5,308, NOTE_REST,61, NOTE_D5,2130, NOTE_REST,833, NOTE_A5,648,
 NOTE_REST,92, NOTE_B5,308, NOTE_REST,61, NOTE_A5,308, NOTE_REST,61, NOTE_D5,1018, NOTE_REST,463, NOTE_B4,308,
 NOTE_REST,61, NOTE_B4,308, NOTE_REST,61, NOTE_E5,308, NOTE_REST,61, NOTE_D5,308, NOTE_REST,61, NOTE_B4,1018,
 NOTE_REST,463, NOTE_A4,493, NOTE_REST,61, NOTE_A4,493, NOTE_REST,61, NOTE_A5,551, NOTE_REST,3, NOTE_A4,493,
 NOTE_REST,61, NOTE_A4,308, NOTE_REST,61, NOTE_A5,308, NOTE_REST,61, NOTE_A4,648, NOTE_REST,463, NOTE_A5,308,
 NOTE_REST,61, NOTE_E5,1018, NOTE_REST,463, NOTE_FS5,648, NOTE_REST,92, NOTE_B5,308, NOTE_REST,61, NOTE_A5,308,
 NOTE_REST,61, NOTE_C6,1018, NOTE_REST,463, NOTE_B5,308, NOTE_REST,61, NOTE_B5,308, NOTE_REST,61, NOTE_E6,308,
 NOTE_REST,61, NOTE_D6,308, NOTE_REST,61, NOTE_B5,1018, NOTE_REST,463, NOTE_A5,493, NOTE_REST,61, NOTE_A5,493,
 NOTE_REST,61, NOTE_A4,551, NOTE_REST,3, NOTE_A5,493, NOTE_REST,61, NOTE_A4,308, NOTE_REST,61, NOTE_E5,308,
 NOTE_REST,61, NOTE_D5,1389, NOTE_REST,277, NOTE_D6,181, NOTE_REST,3, NOTE_CS6,181, NOTE_REST,3, NOTE_D6,181,
 NOTE_REST,3, NOTE_E6,181, NOTE_REST,3, NOTE_FS6,181, NOTE_REST,3, NOTE_G6,181, NOTE_REST,3, NOTE_A6,181,
 NOTE_REST,3, NOTE_B6,648, NOTE_REST,92, NOTE_AS6,648, NOTE_REST,92, NOTE_A6,648, NOTE_REST,92, NOTE_B6,308,
 NOTE_REST,61, NOTE_FS6,308, NOTE_REST,61, NOTE_G6,648, NOTE_REST,92, NOTE_A6,648, NOTE_REST,92, NOTE_FS6,648,
 NOTE_REST,277, NOTE_A6,181, NOTE_REST,3, NOTE_B6,181, NOTE_REST,3, NOTE_CS7,181, NOTE_REST,3, NOTE_D7,648,
 NOTE_REST,277, NOTE_CS7,181, NOTE_REST,3, NOTE_D7,181, NOTE_REST,3, NOTE_E7,181, NOTE_REST,3, NOTE_FS7,648,
 NOTE_REST,92, NOTE_A6,308, NOTE_REST,61, NOTE_FS7,308, NOTE_REST,61, NOTE_E7,648, NOTE_REST,92, NOTE_D7,308,
 NOTE_REST,61, NOTE_CS7,308, NOTE_REST,61, NOTE_D7,1389, NOTE_REST,92, NOTE_CS5,88, NOTE_REST,3, NOTE_D5,88,
 NOTE_REST,3, NOTE_CS5,88, NOTE_REST,3, NOTE_D5,88, NOTE_REST,3, NOTE_E5,88, NOTE_REST,3, NOTE_D5,88,
 NOTE_REST,3, NOTE_CS5,88, NOTE_REST,3, NOTE_D5,88, NOTE_REST,3, NOTE_CS5,88, NOTE_REST,3, NOTE_D5,88,
 NOTE_REST,3, NOTE_CS5,88, NOTE_REST,3, NOTE_D5,88, NOTE_REST,3, NOTE_E5,88, NOTE_REST,3, NOTE_D5,88,
 NOTE_REST,3, NOTE_CS5,88, NOTE_REST,3, NOTE_D5,88, NOTE_REST,3, NOTE_CS5,88, NOTE_REST,3, NOTE_D5,88,
 NOTE_REST,3, NOTE_CS5,88, NOTE_REST,3, NOTE_D5,88, NOTE_REST,3, NOTE_G5,88, NOTE_REST,3, NOTE_D5,88,
 NOTE_REST,3, NOTE_CS5,88, NOTE_REST,3, NOTE_D5,88, NOTE_REST,3, NOTE_A5,88, NOTE_REST,3, NOTE_D5,88,
 NOTE_REST,3, NOTE_CS5,88, NOTE_REST,3, NOTE_D5,88, NOTE_REST,3, NOTE_G5,88, NOTE_REST,3, NOTE_D5,88,
 NOTE_REST,3, NOTE_CS5,88, NOTE_REST,3, NOTE_D5,88, NOTE_REST,3, NOTE_CS5,88, NOTE_REST,3, NOTE_D5,88,
 NOTE_REST,3, NOTE_CS5,88, NOTE_REST,3, NOTE_D5,88, NOTE_REST,3, NOTE_E5,88, NOTE_REST,3, NOTE_D5,88,
 NOTE_REST,3, NOTE_CS5,88, NOTE_REST,3, NOTE_D5,88, NOTE_REST,3, NOTE_CS5,88, NOTE_REST,3, NOTE_D5,88,
 NOTE_REST,3, NOTE_CS5,88, NOTE_REST,3, NOTE_D5,88, NOTE_REST,3, NOTE_E5,88, NOTE_REST,3, NOTE_D5,88,
 NOTE_REST,3, NOTE_CS5,88, NOTE_REST,3, NOTE_D5,88, NOTE_REST,3, NOTE_CS5,88, NOTE_REST,3, NOTE_D5,88,
 NOTE_REST,3, NOTE_CS5,88, NOTE_REST,3, NOTE_D5,88, NOTE_REST,3, NOTE_G5,88, NOTE_REST,3, NOTE_D5,88,
 NOTE_REST,3, NOTE_CS5,88, NOTE_REST,3, NOTE_D5,88, NOTE_REST,3, NOTE_A5,88, NOTE_REST,3, NOTE_D5,88,
 NOTE_REST,3, NOTE_CS5,88, NOTE_REST,3, NOTE_D5,88, NOTE_REST,3, NOTE_G5,88, NOTE_REST,3, NOTE_D5,88,
 NOTE_REST,3, NOTE_CS5,88, NOTE_REST,3, NOTE_D5,88, NOTE_REST,3, NOTE_D6,308, NOTE_REST,432, NOTE_D6,308,
 NOTE_REST,432, NOTE_D6,308, NOTE_REST,61, NOTE_FS6,308, NOTE_REST,61, NOTE_E6,308, NOTE_REST,61, NOTE_DS6,308,
 NOTE_REST,61, NOTE_G5,308, NOTE_REST,432, NOTE_G5,308, NOTE_REST,432, NOTE_G5,308, NOTE_REST,247, NOTE_G5,88,
 NOTE_REST,3, NOTE_G5,88, NOTE_REST,3, NOTE_G5,308, NOTE_REST,61, NOTE_G5,308, NOTE_REST,61, NOTE_A5,308,
 NOTE_REST,247, NOTE_D6,181, NOTE_REST,3, NOTE_A5,308, NOTE_REST,61, NOTE_A6,308, NOTE_REST,61, NOTE_GS6,308,
 NOTE_REST,61, NOTE_A6,308, NOTE_REST,61, NOTE_GS6,88, NOTE_REST,3, NOTE_A6,88, NOTE_REST,3, NOTE_GS6,88,
 NOTE_REST,3, NOTE_FS6,88, NOTE_REST,3, NOTE_D6,181, NOTE_REST,3, NOTE_A5,181, NOTE_REST,3, NOTE_B5,273,
 NOTE_REST,3, NOTE_CS6,88, NOTE_REST,3, NOTE_D6,273, NOTE_REST,3, NOTE_E6,88, NOTE_REST,3, NOTE_FS6,88,
 NOTE_REST,3, NOTE_F6,88, NOTE_REST,3, NOTE_FS6,88, NOTE_REST,3, NOTE_G6,88, NOTE_REST,3, NOTE_A6,88,
 NOTE_REST,3, NOTE_G6,88, NOTE_REST,3, NOTE_FS6,88, NOTE_REST,3, NOTE_E6,88, NOTE_REST,3, NOTE_D6,88,
 NOTE_REST,3, NOTE_CS6,88, NOTE_REST,3, NOTE_D6,88, NOTE_REST,3, NOTE_A6,88, NOTE_REST,3, NOTE_CS6,88,
 NOTE_REST,3, NOTE_C6,88, NOTE_REST,3, NOTE_CS6,88, NOTE_REST,3, NOTE_A6,88, NOTE_REST,3, NOTE_CS6,88,
 NOTE_REST,3, NOTE_C6,88, NOTE_REST,3, NOTE_B5,88, NOTE_REST,3, NOTE_AS5,88, NOTE_REST,3, NOTE_A5,88,
 NOTE_REST,3, NOTE_GS5,88, NOTE_REST,3, NOTE_G5,88, NOTE_REST,3, NOTE_E5,88, NOTE_REST,3, NOTE_REST,2401,
 NOTE_A5,293, NOTE_REST,6, NOTE_D6,293, NOTE_REST,6, NOTE_F6,293, NOTE_REST,6, NOTE_E6,2551, NOTE_REST,6152,
 NOTE_A5,293, NOTE_REST,6, NOTE_D6,293, NOTE_REST,6, NOTE_F6,293, NOTE_REST,6, NOTE_E6,2000, NOTE_REST,100,
 NOTE_B6,500, NOTE_REST,6102, NOTE_A5,293, NOTE_REST,6, NOTE_D6,293, NOTE_REST,6, NOTE_F6,293, NOTE_REST,6,
 NOTE_E6,1350, NOTE_REST,300, NOTE_A5,143, NOTE_REST,6, NOTE_D6,143, NOTE_REST,6, NOTE_A6,143, NOTE_REST,6,
 NOTE_GS6,143, NOTE_REST,6, NOTE_A5,143, NOTE_REST,6, NOTE_D6,143, NOTE_REST,6, NOTE_G6,143, NOTE_REST,6,
 NOTE_F6,143, NOTE_REST,6, NOTE_A5,143, NOTE_REST,6, NOTE_D6,143, NOTE_REST,6, NOTE_F6,143, NOTE_REST,6,
 NOTE_E6,143, NOTE_REST,6, NOTE_G5,143, NOTE_REST,6, NOTE_CS6,143, NOTE_REST,6, NOTE_E6,143, NOTE_REST,6,
 NOTE_D6,293, NOTE_REST,6, NOTE_A5,143, NOTE_REST,6, NOTE_D6,143, NOTE_REST,6, NOTE_CS6,293, NOTE_REST,6,
 NOTE_G5,143, NOTE_REST,6, NOTE_AS5,143, NOTE_REST,6, NOTE_A5,293, NOTE_REST,6, NOTE_A5,143, NOTE_REST,6,
 NOTE_D6,143, NOTE_REST,6, NOTE_F6,143, NOTE_REST,6, NOTE_A5,143, NOTE_REST,6, NOTE_D6,143, NOTE_REST,6,
 NOTE_F6,143, NOTE_REST,6, NOTE_AS5,143, NOTE_REST,6, NOTE_G5,143, NOTE_REST,6, NOTE_AS5,143, NOTE_REST,6,
 NOTE_CS6,143, NOTE_REST,6, NOTE_E6,143, NOTE_REST,6, NOTE_AS5,143, NOTE_REST,6, NOTE_CS6,143, NOTE_REST,6,
 NOTE_E6,143, NOTE_REST,6, NOTE_F6,143, NOTE_REST,6, NOTE_A6,143, NOTE_REST,6, NOTE_D7,143, NOTE_REST,6,
 NOTE_A6,143, NOTE_REST,6, NOTE_F6,143, NOTE_REST,6, NOTE_D7,143, NOTE_REST,6, NOTE_A6,143, NOTE_REST,6,
 NOTE_F6,143, NOTE_REST,6, NOTE_E6,143, NOTE_REST,6, NOTE_G6,143, NOTE_REST,6, NOTE_CS7,143, NOTE_REST,6,
 NOTE_G6,143, NOTE_REST,6, NOTE_E6,143, NOTE_REST,6, NOTE_CS7,143, NOTE_REST,6, NOTE_G6,143, NOTE_REST,6,
 NOTE_E6,143, NOTE_REST,6, NOTE_D6,143, NOTE_REST,6, NOTE_F6,143, NOTE_REST,6, NOTE_A6,143, NOTE_REST,6,
 NOTE_F6,143, NOTE_REST,6, NOTE_D6,143, NOTE_REST,6, NOTE_A6,143, NOTE_REST,6, NOTE_F6,143, NOTE_REST,6,
 NOTE_D6,143, NOTE_REST,6, NOTE_CS6,293, NOTE_REST,6, NOTE_A5,293, NOTE_REST,6, NOTE_D6,293, NOTE_REST,6,
 NOTE_CS6,293, NOTE_REST,6, NOTE_A5,1050, NOTE_REST,300, NOTE_D6,143, NOTE_REST,6, NOTE_CS6,143, NOTE_REST,6,
 NOTE_D6,143, NOTE_REST,6, NOTE_DS6,143, NOTE_REST,6, NOTE_D6,143, NOTE_REST,6, NOTE_CS6,143, NOTE_REST,6,
 NOTE_GS5,143, NOTE_REST,6, NOTE_A5,143, NOTE_REST,6, NOTE_F6,143, NOTE_REST,6, NOTE_E6,143, NOTE_REST,6,
 NOTE_F6,143, NOTE_REST,6, NOTE_G5,143, NOTE_REST,6, NOTE_F6,143, NOTE_REST,6, NOTE_E6,143, NOTE_REST,6,
 NOTE_CS6,143, NOTE_REST,6, NOTE_D6,500, NOTE_REST,2801, NOTE_G5,293, NOTE_REST,306, NOTE_AS5,293, NOTE_REST,6,
 NOTE_G5,293, NOTE_REST,6, NOTE_CS6,293, NOTE_REST,6, NOTE_A5,143, NOTE_REST,6, NOTE_A5,143, NOTE_REST,6,
 NOTE_D6,143, NOTE_REST,6, NOTE_A6,143, NOTE_REST,6, NOTE_GS6,143, NOTE_REST,6, NOTE_A5,143, NOTE_REST,6,
 NOTE_D6,143, NOTE_REST,6, NOTE_G6,143, NOTE_REST,6, NOTE_F6,143, NOTE_REST,6, NOTE_A5,143, NOTE_REST,6,
 NOTE_D6,143, NOTE_REST,6, NOTE_F6,143, NOTE_REST,6, NOTE_E6,143, NOTE_REST,6, NOTE_G5,143, NOTE_REST,6,
 NOTE_CS6,143, NOTE_REST,6, NOTE_E6,143, NOTE_REST,6, NOTE_D6,293, NOTE_REST,6, NOTE_A5,143, NOTE_REST,6,
 NOTE_D6,143, NOTE_REST,6, NOTE_CS6,293, NOTE_REST,6, NOTE_G5,143, NOTE_REST,6, NOTE_AS5,143, NOTE_REST,6,
 NOTE_A5,293, NOTE_REST,6, NOTE_A5,143, NOTE_REST,6, NOTE_D6,143, NOTE_REST,6, NOTE_F6,143, NOTE_REST,6,
 NOTE_A5,143, NOTE_REST,6, NOTE_D6,143, NOTE_REST,6, NOTE_F6,143, NOTE_REST,6, NOTE_E6,143, NOTE_REST,6,
 NOTE_G5,143, NOTE_REST,6, NOTE_AS5,143, NOTE_REST,6, NOTE_CS6,143, NOTE_REST,6, NOTE_E6,143, NOTE_REST,6,
 NOTE_CS6,143, NOTE_REST,6, NOTE_E6,143, NOTE_REST,6, NOTE_G6,143, NOTE_REST,6, NOTE_F6,143, NOTE_REST,6,
 NOTE_A6,143, NOTE_REST,6, NOTE_D7,143, NOTE_REST,6, NOTE_A6,143, NOTE_REST,6, NOTE_F6,143, NOTE_REST,6,
 NOTE_D7,143, NOTE_REST,6, NOTE_A6,143, NOTE_REST,6, NOTE_F6,143, NOTE_REST,6, NOTE_E6,143, NOTE_REST,6,
 NOTE_G6,143, NOTE_REST,6, NOTE_CS7,143, NOTE_REST,6, NOTE_G6,143, NOTE_REST,6, NOTE_E6,143, NOTE_REST,6,
 NOTE_CS7,143, NOTE_REST,6, NOTE_G6,143, NOTE_REST,6, NOTE_E6,143, NOTE_REST,156, NOTE_A5,143, NOTE_REST,6,
 NOTE_D6,143, NOTE_REST,6, NOTE_A5,143, NOTE_REST,6, NOTE_F6,143, NOTE_REST,6, NOTE_A5,143, NOTE_REST,6,
 NOTE_D6,143, NOTE_REST,6, NOTE_A5,143, NOTE_REST,6, NOTE_DS6,143, NOTE_REST,6, NOTE_G5,143, NOTE_REST,6,
 NOTE_D6,143, NOTE_REST,6, NOTE_A5,143, NOTE_REST,6, NOTE_DS6,143, NOTE_REST,6, NOTE_A5,143, NOTE_REST,6,
 NOTE_D6,143, NOTE_REST,6, NOTE_A5,143, NOTE_REST,156, NOTE_G5,143, NOTE_REST,6, NOTE_CS6,143, NOTE_REST,6,
 NOTE_G5,143, NOTE_REST,156, NOTE_G5,143, NOTE_REST,6, NOTE_CS6,143, NOTE_REST,6, NOTE_G5,143, NOTE_REST,156,
 NOTE_G5,143, NOTE_REST,6, NOTE_CS6,143, NOTE_REST,6, NOTE_G5,143, NOTE_REST,156, NOTE_G5,143, NOTE_REST,6,
 NOTE_CS6,143, NOTE_REST,6, NOTE_G5,143, NOTE_REST,156, NOTE_GS5,143, NOTE_REST,6, NOTE_B5,143, NOTE_REST,6,
 NOTE_GS5,143, NOTE_REST,6, NOTE_D6,143, NOTE_REST,6, NOTE_GS5,143, NOTE_REST,6, NOTE_B5,143, NOTE_REST,6,
 NOTE_GS5,143, NOTE_REST,156, NOTE_GS5,143, NOTE_REST,6, NOTE_B5,143, NOTE_REST,6, NOTE_GS5,143, NOTE_REST,6,
 NOTE_CS6,143, NOTE_REST,6, NOTE_G5,143, NOTE_REST,6, NOTE_AS5,143, NOTE_REST,6, NOTE_G5,143, NOTE_REST,156,
 NOTE_A5,143, NOTE_REST,6, NOTE_D6,143, NOTE_REST,6, NOTE_A5,143, NOTE_REST,6, NOTE_F6,143, NOTE_REST,6,
 NOTE_A5,143, NOTE_REST,6, NOTE_D6,143, NOTE_REST,6, NOTE_A5,143, NOTE_REST,156, NOTE_A5,143, NOTE_REST,6,
 NOTE_D6,143, NOTE_REST,6, NOTE_A5,143, NOTE_REST,6, NOTE_F6,143, NOTE_REST,6, NOTE_D6,143, NOTE_REST,6,
 NOTE_F6,143, NOTE_REST,6, NOTE_A6,143, NOTE_REST,6, NOTE_D6,143, NOTE_REST,6, NOTE_D6,143, NOTE_REST,6,
 NOTE_F6,143, NOTE_REST,6, NOTE_D6,143, NOTE_REST,6, NOTE_A6,143, NOTE_REST,6, NOTE_D6,143, NOTE_REST,6,
 NOTE_F6,143, NOTE_REST,6, NOTE_D6,143, NOTE_REST,6, NOTE_DS6,143, NOTE_REST,6, NOTE_D6,143, NOTE_REST,6,
 NOTE_D6,293, NOTE_REST,6, NOTE_CS6,143, NOTE_REST,6, NOTE_D6,143, NOTE_REST,6, NOTE_GS5,143, NOTE_REST,6,
 NOTE_D6,143, NOTE_REST,6, NOTE_A5,143, NOTE_REST,6, NOTE_CS6,143, NOTE_REST,6, NOTE_E6,143, NOTE_REST,6,
 NOTE_CS6,143, NOTE_REST,6, NOTE_G6,143, NOTE_REST,6, NOTE_CS6,143, NOTE_REST,6, NOTE_E6,143, NOTE_REST,6,
 NOTE_CS6,143, NOTE_REST,6, NOTE_A5,143, NOTE_REST,6, NOTE_CS6,143, NOTE_REST,6, NOTE_E6,143, NOTE_REST,6,
 NOTE_CS6,143, NOTE_REST,6, NOTE_G6,143, NOTE_REST,6, NOTE_CS6,143, NOTE_REST,6, NOTE_E6,143, NOTE_REST,6,
 NOTE_CS6,143, NOTE_REST,6, NOTE_GS5,143, NOTE_REST,6, NOTE_D6,143, NOTE_REST,6, NOTE_F6,143, NOTE_REST,6,
 NOTE_D6,143, NOTE_REST,6, NOTE_GS6,143, NOTE_REST,6, NOTE_D6,143, NOTE_REST,6, NOTE_F6,143, NOTE_REST,6,
 NOTE_D6,143, NOTE_REST,6, NOTE_A5,143, NOTE_REST,6, NOTE_D6,143, NOTE_REST,6, NOTE_F6,143, NOTE_REST,6,
 NOTE_D6,143, NOTE_REST,6, NOTE_G5,143, NOTE_REST,6, NOTE_AS5,143, NOTE_REST,6, NOTE_CS6,143, NOTE_REST,6,
 NOTE_AS5,143, NOTE_REST,6, NOTE_A5,143, NOTE_REST,6, NOTE_D6,143, NOTE_REST,6, NOTE_F6,143, NOTE_REST,6,
 NOTE_D6,143, NOTE_REST,6, NOTE_A6,143, NOTE_REST,6, NOTE_A5,143, NOTE_REST,6, NOTE_D6,143, NOTE_REST,6,
 NOTE_F6,143, NOTE_REST,6, NOTE_D6,293, NOTE_REST,6, NOTE_D6,293, NOTE_REST,6, NOTE_D6,293, NOTE_REST,6,
 NOTE_D6,293, NOTE_REST,156, NOTE_A4,143, NOTE_REST,6, NOTE_A4,143, NOTE_REST,6, NOTE_A4,143, NOTE_REST,6,
 NOTE_AS4,143, NOTE_REST,6, NOTE_AS4,143, NOTE_REST,6, NOTE_G4,143, NOTE_REST,6, NOTE_G4,143, NOTE_REST,6,
 NOTE_A4,143, NOTE_REST,6, NOTE_A4,143, NOTE_REST,6, NOTE_A4,143, NOTE_REST,6, NOTE_A4,143, NOTE_REST,6,
 NOTE_AS4,143, NOTE_REST,6, NOTE_AS4,143, NOTE_REST,6, NOTE_G4,143, NOTE_REST,6, NOTE_G4,143, NOTE_REST,156,
 NOTE_D5,143, NOTE_REST,6, NOTE_D5,143, NOTE_REST,6, NOTE_D5,143, NOTE_REST,6, NOTE_D5,143, NOTE_REST,6,
 NOTE_D5,143, NOTE_REST,6, NOTE_D5,143, NOTE_REST,6, NOTE_D5,143, NOTE_REST,6, NOTE_G5,143, NOTE_REST,6,
 NOTE_G5,143, NOTE_REST,6, NOTE_G5,143, NOTE_REST,6, NOTE_G5,143, NOTE_REST,6, NOTE_G5,143, NOTE_REST,6,
 NOTE_G5,143, NOTE_REST,6, NOTE_G5,143, NOTE_REST,6, NOTE_G5,143, NOTE_REST,156, NOTE_A5,143, NOTE_REST,6,
 NOTE_D6,143, NOTE_REST,6, NOTE_A6,143, NOTE_REST,6, NOTE_GS6,143, NOTE_REST,6, NOTE_A5,143, NOTE_REST,6,
 NOTE_D6,143, NOTE_REST,6, NOTE_G6,143, NOTE_REST,6, NOTE_F6,143, NOTE_REST,6, NOTE_A5,143, NOTE_REST,6,
 NOTE_D6,143, NOTE_REST,6, NOTE_F6,143, NOTE_REST,6, NOTE_E6,143, NOTE_REST,6, NOTE_G5,143, NOTE_REST,6,
 NOTE_CS6,143, NOTE_REST,6, NOTE_E6,143, NOTE_REST,6, NOTE_D6,293, NOTE_REST,6, NOTE_A5,143, NOTE_REST,6,
 NOTE_D6,143, NOTE_REST,6, NOTE_CS6,293, NOTE_REST,6, NOTE_G5,143, NOTE_REST,6, NOTE_AS5,143, NOTE_REST,6,
 NOTE_A5,293, NOTE_REST,6, NOTE_A5,143, NOTE_REST,6, NOTE_D6,143, NOTE_REST,6, NOTE_F6,143, NOTE_REST,6,
 NOTE_A5,143, NOTE_REST,6, NOTE_D6,143, NOTE_REST,6, NOTE_F6,143, NOTE_REST,6, NOTE_AS5,143, NOTE_REST,6,
 NOTE_G5,143, NOTE_REST,6, NOTE_AS5,143, NOTE_REST,6, NOTE_CS6,143, NOTE_REST,6, NOTE_E6,143, NOTE_REST,6,
 NOTE_AS5,143, NOTE_REST,6, NOTE_CS6,143, NOTE_REST,6, NOTE_E6,143, NOTE_REST,6, NOTE_F6,143, NOTE_REST,6,
 NOTE_A6,143, NOTE_REST,6, NOTE_D7,143, NOTE_REST,6, NOTE_A6,143, NOTE_REST,6, NOTE_F6,143, NOTE_REST,6,
 NOTE_D7,143, NOTE_REST,6, NOTE_A6,143, NOTE_REST,6, NOTE_F6,143, NOTE_REST,6, NOTE_E6,143, NOTE_REST,6,
 NOTE_G6,143, NOTE_REST,6, NOTE_CS7,143, NOTE_REST,6, NOTE_G6,143, NOTE_REST,6, NOTE_E6,143, NOTE_REST,6,
 NOTE_CS7,143, NOTE_REST,6, NOTE_G6,143, NOTE_REST,6, NOTE_E6,143, NOTE_REST,6, NOTE_D6,143, NOTE_REST,6,
 NOTE_F6,143, NOTE_REST,6, NOTE_A6,143, NOTE_REST,6, NOTE_F6,143, NOTE_REST,6, NOTE_D6,143, NOTE_REST,6,
 NOTE_A6,143, NOTE_REST,6, NOTE_F6,143, NOTE_REST,6, NOTE_D6,143, NOTE_REST,6, NOTE_CS6,293, NOTE_REST,6,
 NOTE_A5,293, NOTE_REST,6, NOTE_D6,293, NOTE_REST,6, NOTE_CS6,293, NOTE_REST,6, NOTE_A5,1050, NOTE_REST,300,
 NOTE_D6,143, NOTE_REST,6, NOTE_C6,143, NOTE_REST,6, NOTE_D6,143, NOTE_REST,6, NOTE_DS6,143, NOTE_REST,6,
 NOTE_D6,143, NOTE_REST,6, NOTE_C6,143, NOTE_REST,6, NOTE_GS5,143, NOTE_REST,6, NOTE_A5,143, NOTE_REST,6,
 NOTE_F6,143, NOTE_REST,6, NOTE_E6,143, NOTE_REST,6, NOTE_F6,143, NOTE_REST,6, NOTE_G5,143, NOTE_REST,6,
 NOTE_F6,143, NOTE_REST,6, NOTE_E6,143, NOTE_REST,6, NOTE_CS6,143, NOTE_REST,6, NOTE_D6,500, NOTE_REST,2801,
 NOTE_G5,293, NOTE_REST,306, NOTE_AS5,293, NOTE_REST,6, NOTE_G5,293, NOTE_REST,6, NOTE_CS6,293, NOTE_REST,6,
 NOTE_A5,143, NOTE_REST,6, NOTE_A5,143, NOTE_REST,6, NOTE_D6,143, NOTE_REST,6, NOTE_A6,143, NOTE_REST,6,
 NOTE_GS6,143, NOTE_REST,6, NOTE_A5,143, NOTE_REST,6, NOTE_D6,143, NOTE_REST,6, NOTE_G6,143, NOTE_REST,6,
 NOTE_F6,143, NOTE_REST,6, NOTE_A5,143, NOTE_REST,6, NOTE_D6,143, NOTE_REST,6, NOTE_F6,143, NOTE_REST,6,
 NOTE_E6,143, NOTE_REST,6, NOTE_G5,143, NOTE_REST,6, NOTE_CS6,143, NOTE_REST,6, NOTE_E6,143, NOTE_REST,6,
 NOTE_D6,143, NOTE_REST,6, NOTE_F5,143, NOTE_REST,6, NOTE_A5,143, NOTE_REST,6, NOTE_D6,143, NOTE_REST,6,
 NOTE_CS6,293, NOTE_REST,6, NOTE_G5,143, NOTE_REST,6, NOTE_AS5,143, NOTE_REST,6, NOTE_A5,143, NOTE_REST,6,
 NOTE_F5,143, NOTE_REST,6, NOTE_A5,143, NOTE_REST,6, NOTE_D6,143, NOTE_REST,6, NOTE_F6,143, NOTE_REST,6,
 NOTE_A5,143, NOTE_REST,6, NOTE_D6,143, NOTE_REST,6, NOTE_F6,143, NOTE_REST,6, NOTE_E6,143, NOTE_REST,6,
 NOTE_G5,143, NOTE_REST,6, NOTE_AS5,143, NOTE_REST,6, NOTE_CS6,143, NOTE_REST,6, NOTE_E6,143, NOTE_REST,6,
 NOTE_CS6,143, NOTE_REST,6, NOTE_E6,143, NOTE_REST,6, NOTE_G6,143, NOTE_REST,6, NOTE_F6,143, NOTE_REST,6,
 NOTE_A6,143, NOTE_REST,6, NOTE_D7,143, NOTE_REST,6, NOTE_A6,143, NOTE_REST,6, NOTE_F6,143, NOTE_REST,6,
 NOTE_D7,143, NOTE_REST,6, NOTE_A6,143, NOTE_REST,6, NOTE_F6,143, NOTE_REST,6, NOTE_E6,143, NOTE_REST,6,
 NOTE_G6,143, NOTE_REST,6, NOTE_CS7,143, NOTE_REST,6, NOTE_G6,143, NOTE_REST,6, NOTE_E6,143, NOTE_REST,6,
 NOTE_CS7,143, NOTE_REST,6, NOTE_G6,143, NOTE_REST,6, NOTE_E6,143, NOTE_REST,156, NOTE_A5,143, NOTE_REST,6,
 NOTE_D6,143, NOTE_REST,6, NOTE_A5,143, NOTE_REST,6, NOTE_F6,143, NOTE_REST,6, NOTE_A5,143, NOTE_REST,6,
 NOTE_D6,143, NOTE_REST,6, NOTE_A5,143, NOTE_REST,6, NOTE_DS6,143, NOTE_REST,6, NOTE_G5,143, NOTE_REST,6,
 NOTE_D6,143, NOTE_REST,6, NOTE_A5,143, NOTE_REST,6, NOTE_DS6,143, NOTE_REST,6, NOTE_A5,143, NOTE_REST,6,
 NOTE_D6,143, NOTE_REST,6, NOTE_A5,143, NOTE_REST,156, NOTE_G5,143, NOTE_REST,6, NOTE_CS6,143, NOTE_REST,6,
 NOTE_G5,143, NOTE_REST,156, NOTE_G5,143, NOTE_REST,6, NOTE_CS6,143, NOTE_REST,6, NOTE_G5,143, NOTE_REST,156,
 NOTE_G5,143, NOTE_REST,6, NOTE_CS6,143, NOTE_REST,6, NOTE_G5,143, NOTE_REST,156, NOTE_G5,143, NOTE_REST,6,
 NOTE_CS6,143, NOTE_REST,6, NOTE_G5,143, NOTE_REST,156, NOTE_GS5,143, NOTE_REST,6, NOTE_B5,143, NOTE_REST,6,
 NOTE_GS5,143, NOTE_REST,6, NOTE_D6,143, NOTE_REST,6, NOTE_GS5,143, NOTE_REST,6, NOTE_B5,143, NOTE_REST,6,
 NOTE_GS5,143, NOTE_REST,156, NOTE_GS5,143, NOTE_REST,6, NOTE_B5,143, NOTE_REST,6, NOTE_GS5,143, NOTE_REST,6,
 NOTE_CS6,143, NOTE_REST,6, NOTE_G5,143, NOTE_REST,6, NOTE_AS5,143, NOTE_REST,6, NOTE_G5,143, NOTE_REST,156,
 NOTE_A5,143, NOTE_REST,6, NOTE_D6,143, NOTE_REST,6, NOTE_A5,143, NOTE_REST,6, NOTE_F6,143, NOTE_REST,6,
 NOTE_A5,143, NOTE_REST,6, NOTE_D6,143, NOTE_REST,6, NOTE_A5,143, NOTE_REST,156, NOTE_A5,143, NOTE_REST,6,
 NOTE_D6,143, NOTE_REST,6, NOTE_A5,143, NOTE_REST,6, NOTE_F6,143, NOTE_REST,6, NOTE_D6,143, NOTE_REST,6,
 NOTE_F6,143, NOTE_REST,6, NOTE_A6,143, NOTE_REST,6, NOTE_D6,143, NOTE_REST,6, NOTE_D6,143, NOTE_REST,6,
 NOTE_F6,143, NOTE_REST,6, NOTE_D6,143, NOTE_REST,6, NOTE_A6,143, NOTE_REST,6, NOTE_D6,143, NOTE_REST,6,
 NOTE_F6,143, NOTE_REST,6, NOTE_D6,143, NOTE_REST,6, NOTE_DS6,143, NOTE_REST,6, NOTE_D6,143, NOTE_REST,6,
 NOTE_D6,293, NOTE_REST,6, NOTE_CS6,143, NOTE_REST,6, NOTE_D6,143, NOTE_REST,6, NOTE_GS5,143, NOTE_REST,6,
 NOTE_D6,143, NOTE_REST,6, NOTE_A5,143, NOTE_REST,6, NOTE_CS6,143, NOTE_REST,6, NOTE_E6,143, NOTE_REST,6,
 NOTE_CS6,143, NOTE_REST,6, NOTE_G6,143, NOTE_REST,6, NOTE_CS6,143, NOTE_REST,6, NOTE_E6,143, NOTE_REST,6,
 NOTE_CS6,143, NOTE_REST,6, NOTE_A5,143, NOTE_REST,6, NOTE_CS6,143, NOTE_REST,6, NOTE_E6,143, NOTE_REST,6,
 NOTE_CS6,143, NOTE_REST,6, NOTE_G6,143, NOTE_REST,6, NOTE_CS6,143, NOTE_REST,6, NOTE_E6,143, NOTE_REST,6,
 NOTE_CS6,143, NOTE_REST,6, NOTE_GS5,143, NOTE_REST,6, NOTE_D6,143, NOTE_REST,6, NOTE_F6,143, NOTE_REST,6,
 NOTE_D6,143, NOTE_REST,6, NOTE_GS6,143, NOTE_REST,6, NOTE_D6,143, NOTE_REST,6, NOTE_F6,143, NOTE_REST,6,
 NOTE_D6,143, NOTE_REST,6, NOTE_A5,143, NOTE_REST,6, NOTE_D6,143, NOTE_REST,6, NOTE_F6,143, NOTE_REST,6,
 NOTE_D6,143, NOTE_REST,6, NOTE_G5,143, NOTE_REST,6, NOTE_AS5,143, NOTE_REST,6, NOTE_CS6,143, NOTE_REST,6,
 NOTE_AS5,143, NOTE_REST,6, NOTE_A5,143, NOTE_REST,6, NOTE_D6,143, NOTE_REST,6, NOTE_F6,143, NOTE_REST,6,
 NOTE_D6,143, NOTE_REST,6, NOTE_A6,143, NOTE_REST,6, NOTE_A5,143, NOTE_REST,6, NOTE_D6,143, NOTE_REST,6,
 NOTE_F6,143, NOTE_REST,6, NOTE_D6,293, NOTE_REST,6, NOTE_D6,293, NOTE_REST,6, NOTE_D6,293, NOTE_REST,6,
 NOTE_D6,293, NOTE_REST,156, NOTE_A4,143, NOTE_REST,6, NOTE_A4,143, NOTE_REST,6, NOTE_A4,143, NOTE_REST,6,
 NOTE_AS4,143, NOTE_REST,6, NOTE_AS4,143, NOTE_REST,6, NOTE_G4,143, NOTE_REST,6, NOTE_G4,143, NOTE_REST,6,
 NOTE_A4,143, NOTE_REST,6, NOTE_A4,143, NOTE_REST,6, NOTE_A4,143, NOTE_REST,6, NOTE_A4,143, NOTE_REST,6,
 NOTE_AS4,143, NOTE_REST,6, NOTE_AS4,143, NOTE_REST,6, NOTE_G4,143, NOTE_REST,6, NOTE_G4,143, NOTE_REST,156,
 NOTE_D5,143, NOTE_REST,6, NOTE_D5,143, NOTE_REST,6, NOTE_D5,143, NOTE_REST,6, NOTE_D5,143, NOTE_REST,6,
 NOTE_D5,143, NOTE_REST,6, NOTE_D5,143, NOTE_REST,6, NOTE_D5,143, NOTE_REST,6, NOTE_G5,143, NOTE_REST,6,
 NOTE_G5,143, NOTE_REST,6, NOTE_G5,143, NOTE_REST,6, NOTE_G5,143, NOTE_REST,6, NOTE_G5,143, NOTE_REST,6,
 NOTE_G5,143, NOTE_REST,6, NOTE_G5,143, NOTE_REST,6, NOTE_G5,143, NOTE_REST,6, NOTE_REST,900, NOTE_D5,195,
 NOTE_REST,4, NOTE_F5,195, NOTE_REST,4, NOTE_FS5,95, NOTE_REST,4, NOTE_G5,195, NOTE_REST,4, NOTE_A4,195,
 NOTE_REST,4, NOTE_A4,195, NOTE_REST,4, NOTE_A4,195, NOTE_REST,4, NOTE_F4,95, NOTE_REST,4, NOTE_A4,95,
 NOTE_REST,104, NOTE_A4,195, NOTE_REST,4, NOTE_F4,95, NOTE_REST,4, NOTE_A4,95, NOTE_REST,4, NOTE_F4,95,
 NOTE_REST,4, NOTE_A4,195, NOTE_REST,4, NOTE_G4,195, NOTE_REST,4, NOTE_G4,195, NOTE_REST,4, NOTE_G4,195,
 NOTE_REST,4, NOTE_E4,95, NOTE_REST,4, NOTE_G4,95, NOTE_REST,104, NOTE_G4,195, NOTE_REST,4, NOTE_E4,95,
 NOTE_REST,4, NOTE_G4,95, NOTE_REST,4, NOTE_E4,95, NOTE_REST,4, NOTE_G4,195, NOTE_REST,4, NOTE_A4,195,
 NOTE_REST,4, NOTE_A4,195, NOTE_REST,4, NOTE_A4,195, NOTE_REST,4, NOTE_F4,95, NOTE_REST,4, NOTE_A4,95,
 NOTE_REST,104, NOTE_A4,195, NOTE_REST,4, NOTE_F4,95, NOTE_REST,4, NOTE_A4,95, NOTE_REST,4, NOTE_F4,95,
 NOTE_REST,4, NOTE_A4,195, NOTE_REST,4, NOTE_G4,195, NOTE_REST,4, NOTE_G4,195, NOTE_REST,4, NOTE_G4,195,
 NOTE_REST,4, NOTE_E4,95, NOTE_REST,4, NOTE_G4,95, NOTE_REST,104, NOTE_G4,195, NOTE_REST,4, NOTE_E4,95,
 NOTE_REST,4, NOTE_G4,95, NOTE_REST,4, NOTE_E4,95, NOTE_REST,4, NOTE_G4,195, NOTE_REST,4, NOTE_A4,1500,
 NOTE_REST,100, NOTE_G4,954, NOTE_REST,409, NOTE_E5,266, NOTE_REST,5, NOTE_F5,198, NOTE_REST,5, NOTE_G5,335,
 NOTE_REST,5, NOTE_C5,954, NOTE_REST,409, NOTE_A5,266, NOTE_REST,5, NOTE_G5,198, NOTE_REST,5, NOTE_F5,335,
 NOTE_REST,5, NOTE_G4,954, NOTE_REST,409, NOTE_E5,266, NOTE_REST,5, NOTE_F5,198, NOTE_REST,5, NOTE_G5,335,
 NOTE_REST,5, NOTE_C5,954, NOTE_REST,409, NOTE_B5,266, NOTE_REST,5, NOTE_C6,198, NOTE_REST,5, NOTE_D6,335,
 NOTE_REST,5, NOTE_G4,954, NOTE_REST,409, NOTE_E5,266, NOTE_REST,5, NOTE_F5,198, NOTE_REST,5, NOTE_G5,335,
 NOTE_REST,5, NOTE_C5,954, NOTE_REST,136, NOTE_D5,266, NOTE_REST,5, NOTE_D5,266, NOTE_REST,210, NOTE_D5,335,
 NOTE_REST,5, NOTE_E5,727, NOTE_REST,91, NOTE_E5,266, NOTE_REST,5, NOTE_F5,266, NOTE_REST,5, NOTE_E5,266,
 NOTE_REST,5, NOTE_F5,266, NOTE_REST,5, NOTE_G5,266, NOTE_REST,5, NOTE_E5,954, NOTE_REST,136, NOTE_C5,454,
 NOTE_REST,91, NOTE_E5,266, NOTE_REST,5, NOTE_G5,266, NOTE_REST,5, NOTE_A5,454, NOTE_REST,91, NOTE_A5,266,
 NOTE_REST,5, NOTE_A5,266, NOTE_REST,5, NOTE_B5,454, NOTE_REST,91, NOTE_D6,266, NOTE_REST,5, NOTE_C6,266,
 NOTE_REST,5, NOTE_G5,1500, NOTE_REST,682, NOTE_A5,727, NOTE_REST,91, NOTE_A5,266, NOTE_REST,5, NOTE_B5,454,
 NOTE_REST,91, NOTE_D6,266, NOTE_REST,5, NOTE_C6,266, NOTE_REST,5, NOTE_G5,954, NOTE_REST,136, NOTE_C6,454,
 NOTE_REST,91, NOTE_C5,266, NOTE_REST,5, NOTE_D5,266, NOTE_REST,5, NOTE_F5,727, NOTE_REST,91, NOTE_G5,335,
 NOTE_REST,5, NOTE_F5,266, NOTE_REST,5, NOTE_E5,198, NOTE_REST,5, NOTE_D5,266, NOTE_REST,5, NOTE_C5,266,
 NOTE_REST,5, NOTE_G5,2046, NOTE_REST,136, NOTE_E5,727, NOTE_REST,91, NOTE_E5,266, NOTE_REST,5, NOTE_F5,266,
 NOTE_REST,5, NOTE_E5,266, NOTE_REST,5, NOTE_F5,266, NOTE_REST,5, NOTE_G5,266, NOTE_REST,5, NOTE_E5,954,
 NOTE_REST,136, NOTE_C5,454, NOTE_REST,91, NOTE_E5,266, NOTE_REST,5, NOTE_G5,266, NOTE_REST,5, NOTE_A5,454,
 NOTE_REST,91, NOTE_A5,266, NOTE_REST,5, NOTE_A5,266, NOTE_REST,5, NOTE_B5,454, NOTE_REST,91, NOTE_D6,266,
 NOTE_REST,5, NOTE_C6,266, NOTE_REST,5, NOTE_G5,1500, NOTE_REST,682, NOTE_A5,727, NOTE_REST,91, NOTE_A5,266,
 NOTE_REST,5, NOTE_B5,454, NOTE_REST,91, NOTE_D6,266, NOTE_REST,5, NOTE_C6,266, NOTE_REST,5, NOTE_G5,954,
 NOTE_REST,136, NOTE_C6,454, NOTE_REST,91, NOTE_C6,266, NOTE_REST,5, NOTE_D6,266, NOTE_REST,5, NOTE_F6,454,
 NOTE_REST,91, NOTE_E6,454, NOTE_REST,91, NOTE_B5,454, NOTE_REST,363, NOTE_C6,266, NOTE_REST,5, NOTE_C6,954,
 NOTE_REST,1227, NOTE_C6,454, NOTE_REST,363, NOTE_D6,266, NOTE_REST,551, NOTE_E6,454, NOTE_REST,91, NOTE_B5,454,
 NOTE_REST,363, NOTE_G5,266, NOTE_REST,551, NOTE_E5,454, NOTE_REST,91, NOTE_A5,454, NOTE_REST,363, NOTE_B5,266,
 NOTE_REST,551, NOTE_C6,454, NOTE_REST,91, NOTE_G5,454, NOTE_REST,1728, NOTE_F5,454, NOTE_REST,363, NOTE_G5,266,
 NOTE_REST,551, NOTE_A5,454, NOTE_REST,91, NOTE_G5,454, NOTE_REST,363, NOTE_B5,266, NOTE_REST,551, NOTE_C6,454,
 NOTE_REST,91, NOTE_A5,454, NOTE_REST,1182, NOTE_C6,454, NOTE_REST,91, NOTE_D6,454, NOTE_REST,1728, NOTE_C6,266,
 NOTE_REST,5, NOTE_B5,266, NOTE_REST,5, NOTE_C6,266, NOTE_REST,5, NOTE_D6,266, NOTE_REST,5, NOTE_E6,454,
 NOTE_REST,91, NOTE_C6,266, NOTE_REST,5, NOTE_B5,266, NOTE_REST,5, NOTE_B5,727, NOTE_REST,91, NOTE_G5,266,
 NOTE_REST,5, NOTE_G5,454, NOTE_REST,91, NOTE_C6,266, NOTE_REST,5, NOTE_E6,266, NOTE_REST,5, NOTE_F6,266,
 NOTE_REST,5, NOTE_E6,266, NOTE_REST,5, NOTE_F6,266, NOTE_REST,5, NOTE_F6,266, NOTE_REST,5, NOTE_E6,454,
 NOTE_REST,91, NOTE_E6,266, NOTE_REST,5, NOTE_D6,266, NOTE_REST,5, NOTE_C6,454, NOTE_REST,91, NOTE_C6,266,
 NOTE_REST,5, NOTE_D6,266, NOTE_REST,5, NOTE_B5,954, NOTE_REST,136, NOTE_C6,266, NOTE_REST,5, NOTE_B5,266,
 NOTE_REST,5, NOTE_C6,266, NOTE_REST,5, NOTE_D6,266, NOTE_REST,5, NOTE_E6,454, NOTE_REST,91, NOTE_C6,266,
 NOTE_REST,5, NOTE_B5,266, NOTE_REST,5, NOTE_B5,727, NOTE_REST,91, NOTE_G5,266, NOTE_REST,5, NOTE_G5,454,
 NOTE_REST,91, NOTE_C6,266, NOTE_REST,5, NOTE_E6,266, NOTE_REST,5, NOTE_F6,266, NOTE_REST,5, NOTE_E6,266,
 NOTE_REST,5, NOTE_F6,266, NOTE_REST,5, NOTE_F6,266, NOTE_REST,5, NOTE_E6,454, NOTE_REST,91, NOTE_E6,266,
 NOTE_REST,5, NOTE_D6,266, NOTE_REST,5, NOTE_C6,266, NOTE_REST,5, NOTE_C6,266, NOTE_REST,5, NOTE_B5,266,
 NOTE_REST,5, NOTE_G5,266, NOTE_REST,5, NOTE_D6,454, NOTE_REST,91, NOTE_D5,454, NOTE_REST,91, NOTE_E6,727,
 NOTE_REST,91, NOTE_E6,266, NOTE_REST,5, NOTE_F6,266, NOTE_REST,5, NOTE_E6,266, NOTE_REST,5, NOTE_F6,266,
 NOTE_REST,5, NOTE_G6,266, NOTE_REST,5, NOTE_E6,954, NOTE_REST,136, NOTE_C6,454, NOTE_REST,91, NOTE_E6,266,
 NOTE_REST,5, NOTE_G6,266, NOTE_REST,5, NOTE_A6,454, NOTE_REST,91, NOTE_A6,266, NOTE_REST,5, NOTE_A6,266,
 NOTE_REST,5, NOTE_B6,454, NOTE_REST,91, NOTE_D7,266, NOTE_REST,5, NOTE_C7,266, NOTE_REST,5, NOTE_G6,1500,
 NOTE_REST,682, NOTE_A6,727, NOTE_REST,91, NOTE_A6,266, NOTE_REST,5, NOTE_B6,454, NOTE_REST,91, NOTE_D7,266,
 NOTE_REST,5, NOTE_C7,266, NOTE_REST,5, NOTE_G6,954, NOTE_REST,136, NOTE_C7,454, NOTE_REST,91, NOTE_C6,266,
 NOTE_REST,5, NOTE_D6,266, NOTE_REST,5, NOTE_F6,727, NOTE_REST,91, NOTE_G6,335, NOTE_REST,5, NOTE_F6,266,
 NOTE_REST,5, NOTE_E6,198, NOTE_REST,5, NOTE_D6,266, NOTE_REST,5, NOTE_C6,266, NOTE_REST,5, NOTE_G6,2046,
 NOTE_REST,136, NOTE_E5,727, NOTE_REST,91, NOTE_E5,266, NOTE_REST,5, NOTE_F5,266, NOTE_REST,5, NOTE_E5,266,
 NOTE_REST,5, NOTE_F5,266, NOTE_REST,5, NOTE_G5,266, NOTE_REST,5, NOTE_E5,954, NOTE_REST,136, NOTE_C5,454,
 NOTE_REST,91, NOTE_E5,266, NOTE_REST,5, NOTE_G5,266, NOTE_REST,5, NOTE_A5,454, NOTE_REST,91, NOTE_A5,266,
 NOTE_REST,5, NOTE_A5,266, NOTE_REST,5, NOTE_B5,454, NOTE_REST,91, NOTE_D6,266, NOTE_REST,5, NOTE_C6,266,
 NOTE_REST,5, NOTE_G5,1500, NOTE_REST,682, NOTE_A5,727, NOTE_REST,91, NOTE_A5,266, NOTE_REST,5, NOTE_B5,454,
 NOTE_REST,91, NOTE_D6,266, NOTE_REST,5, NOTE_C6,266, NOTE_REST,5, NOTE_G5,954, NOTE_REST,136, NOTE_C6,454,
 NOTE_REST,91, NOTE_C6,266, NOTE_REST,5, NOTE_D6,266, NOTE_REST,5, NOTE_F6,454, NOTE_REST,91, NOTE_E6,454,
 NOTE_REST,91, NOTE_B5,454, NOTE_REST,363, NOTE_C6,266, NOTE_REST,5, NOTE_C6,954, NOTE_REST,1227, NOTE_C6,454,
 NOTE_REST,363, NOTE_D6,266, NOTE_REST,551, NOTE_E6,454, NOTE_REST,91, NOTE_B5,454, NOTE_REST,363, NOTE_G5,266,
 NOTE_REST,551, NOTE_E5,454, NOTE_REST,91, NOTE_A5,454, NOTE_REST,363, NOTE_B5,266, NOTE_REST,551, NOTE_C6,454,
 NOTE_REST,91, NOTE_G5,454, NOTE_REST,1728, NOTE_F5,454, NOTE_REST,363, NOTE_G5,266, NOTE_REST,551, NOTE_A5,454,
 NOTE_REST,91, NOTE_G5,454, NOTE_REST,363, NOTE_B5,266, NOTE_REST,551, NOTE_C6,454, NOTE_REST,91, NOTE_A5,454,
 NOTE_REST,1182, NOTE_C6,454, NOTE_REST,91, NOTE_D6,454, NOTE_REST,1728, NOTE_C6,266, NOTE_REST,5, NOTE_B5,266,
 NOTE_REST,5, NOTE_C6,266, NOTE_REST,5, NOTE_D6,266, NOTE_REST,5, NOTE_E6,454, NOTE_REST,91, NOTE_C6,266,
 NOTE_REST,5, NOTE_B5,266, NOTE_REST,5, NOTE_B5,727, NOTE_REST,91, NOTE_G5,266, NOTE_REST,5, NOTE_G5,454,
 NOTE_REST,91, NOTE_C6,266, NOTE_REST,5, NOTE_E6,266, NOTE_REST,5, NOTE_F6,266, NOTE_REST,5, NOTE_E6,266,
 NOTE_REST,5, NOTE_F6,266, NOTE_REST,5, NOTE_F6,266, NOTE_REST,5, NOTE_E6,454, NOTE_REST,91, NOTE_E6,266,
 NOTE_REST,5, NOTE_D6,266, NOTE_REST,5, NOTE_C6,454, NOTE_REST,91, NOTE_C6,266, NOTE_REST,5, NOTE_D6,266,
 NOTE_REST,5, NOTE_B5,954, NOTE_REST,136, NOTE_C6,266, NOTE_REST,5, NOTE_B5,266, NOTE_REST,5, NOTE_C6,266,
 NOTE_REST,5, NOTE_D6,266, NOTE_REST,5, NOTE_E6,454, NOTE_REST,91, NOTE_C6,266, NOTE_REST,5, NOTE_B5,266,
 NOTE_REST,5, NOTE_B5,727, NOTE_REST,91, NOTE_G5,266, NOTE_REST,5, NOTE_G5,454, NOTE_REST,91, NOTE_C6,266,
 NOTE_REST,5, NOTE_E6,266, NOTE_REST,5, NOTE_F6,266, NOTE_REST,5, NOTE_E6,266, NOTE_REST,5, NOTE_F6,266,
 NOTE_REST,5, NOTE_F6,266, NOTE_REST,5, NOTE_E6,454, NOTE_REST,91, NOTE_E6,266, NOTE_REST,5, NOTE_D6,266,
 NOTE_REST,5, NOTE_C6,266, NOTE_REST,5, NOTE_C6,266, NOTE_REST,5, NOTE_B5,266, NOTE_REST,5, NOTE_G5,266,
 NOTE_REST,5, NOTE_D6,454, NOTE_REST,91, NOTE_D5,454, NOTE_REST,91, NOTE_CS6,266, NOTE_REST,5, NOTE_C6,266,
 NOTE_REST,5, NOTE_CS6,266, NOTE_REST,5, NOTE_DS6,266, NOTE_REST,5, NOTE_F6,454, NOTE_REST,91, NOTE_CS6,266,
 NOTE_REST,5, NOTE_C6,266, NOTE_REST,5, NOTE_C6,727, NOTE_REST,91, NOTE_GS5,266, NOTE_REST,5, NOTE_GS5,454,
 NOTE_REST,91, NOTE_CS6,266, NOTE_REST,5, NOTE_F6,266, NOTE_REST,5, NOTE_FS6,266, NOTE_REST,5, NOTE_F6,266,
 NOTE_REST,5, NOTE_FS6,266, NOTE_REST,5, NOTE_FS6,266, NOTE_REST,5, NOTE_F6,454, NOTE_REST,91, NOTE_F6,266,
 NOTE_REST,5, NOTE_DS6,266, NOTE_REST,5, NOTE_CS6,454, NOTE_REST,91, NOTE_CS6,266, NOTE_REST,5, NOTE_DS6,266,
 NOTE_REST,5, NOTE_C6,954, NOTE_REST,136, NOTE_CS6,266, NOTE_REST,5, NOTE_C6,266, NOTE_REST,5, NOTE_CS6,266,
 NOTE_REST,5, NOTE_DS6,266, NOTE_REST,5, NOTE_F6,454, NOTE_REST,91, NOTE_CS6,266, NOTE_REST,5, NOTE_C6,266,
 NOTE_REST,5, NOTE_C6,727, NOTE_REST,91, NOTE_GS5,266, NOTE_REST,5, NOTE_GS5,454, NOTE_REST,91, NOTE_CS6,266,
 NOTE_REST,5, NOTE_F6,266, NOTE_REST,5, NOTE_FS6,266, NOTE_REST,5, NOTE_F6,266, NOTE_REST,5, NOTE_FS6,266,
 NOTE_REST,5, NOTE_FS6,266, NOTE_REST,5, NOTE_F6,454, NOTE_REST,91, NOTE_F6,266, NOTE_REST,5, NOTE_DS6,266,
 NOTE_REST,5, NOTE_CS6,266, NOTE_REST,5, NOTE_CS6,266, NOTE_REST,5, NOTE_C6,266, NOTE_REST,5, NOTE_GS5,266,
 NOTE_REST,5, NOTE_DS6,454, NOTE_REST,91, NOTE_GS5,454, NOTE_REST,91, NOTE_GS4,954, NOTE_REST,409, NOTE_F5,266,
 NOTE_REST,5, NOTE_FS5,198, NOTE_REST,5, NOTE_GS5,335, NOTE_REST,5, NOTE_CS5,954, NOTE_REST,409, NOTE_AS5,266,
 NOTE_REST,5, NOTE_GS5,198, NOTE_REST,5, NOTE_FS5,335, NOTE_REST,5, NOTE_GS4,954, NOTE_REST,409, NOTE_F5,266,
 NOTE_REST,5, NOTE_FS5,198, NOTE_REST,5, NOTE_GS5,335, NOTE_REST,5, NOTE_CS5,954, NOTE_REST,409, NOTE_AS5,266,
 NOTE_REST,5, NOTE_GS5,198, NOTE_REST,5, NOTE_FS5,335, NOTE_REST,5, NOTE_GS4,954, NOTE_REST,409, NOTE_F5,266,
 NOTE_REST,5, NOTE_FS5,198, NOTE_REST,5, NOTE_GS5,335, NOTE_REST,5, NOTE_CS5,954, NOTE_REST,136, NOTE_FS5,1358,
 NOTE_REST,5, NOTE_GS5,62, NOTE_REST,5, NOTE_F5,1159, */
 TONES_END, TONES_END
};
// This score contains 16210 bytes.
// 685 notes had to be skipped.
