// ArduboyTones stream for file "rainbow.mid" created by MIDI2TONES V1.0.0 on Fri Nov 22 14:27:00 2019
// command line: C:\Users\cnorf\Downloads\midi2tones-master\midi2tones_64bit.exe -o2 -c16 rainbow 
//   From channel 4
const int score[] = {
 NOTE_REST,44444, NOTE_AS4,1481, NOTE_AS5,1481, NOTE_A5,740, NOTE_F5,370, NOTE_G5,370, NOTE_A5,740, NOTE_AS5,740,
 NOTE_AS4,1481, NOTE_G5,1481, NOTE_F5,2962, NOTE_AS4,1481, NOTE_DS5,1481, NOTE_D5,740, NOTE_AS4,370, NOTE_C5,370,
 NOTE_D5,740, NOTE_DS5,740, NOTE_C5,740, NOTE_A4,370, NOTE_AS4,370, NOTE_C5,740, NOTE_D5,740, NOTE_AS4,2962,
 NOTE_REST,23703, NOTE_AS4,1481, NOTE_AS5,1481, NOTE_A5,740, NOTE_F5,370, NOTE_G5,370, NOTE_A5,740, NOTE_AS5,740,
 NOTE_AS4,1481, NOTE_G5,1481, NOTE_F5,2962, NOTE_AS4,1481, NOTE_DS5,1481, NOTE_D5,740, NOTE_AS4,370, NOTE_C5,370,
 NOTE_D5,740, NOTE_DS5,740, NOTE_C5,740, NOTE_A4,370, NOTE_AS4,370, NOTE_C5,740, NOTE_D5,740, NOTE_AS4,2962,
 NOTE_AS4,1481, NOTE_AS5,1481, NOTE_A5,740, NOTE_F5,370, NOTE_G5,370, NOTE_A5,740, NOTE_AS5,740, NOTE_AS4,1481,
 NOTE_G5,1481, NOTE_F5,2962, NOTE_AS4,1481, NOTE_DS5,1481, NOTE_D5,740, NOTE_AS4,370, NOTE_C5,370, NOTE_D5,740,
 NOTE_DS5,740, NOTE_C5,740, NOTE_A4,370, NOTE_AS4,370, NOTE_C5,740, NOTE_D5,740, NOTE_AS4,2962,
 0,0
};
// This score contains 286 bytes.
