// ArduboyTones stream for file "rudolph.mid" created by MIDI2TONES V1.0.0 on Fri Nov 22 13:43:58 2019
// command line: C:\Users\cnorf\Downloads\midi2tones-master\midi2tones_64bit.exe -o2 rudolph 
//   From channel 0
const int score[] = {
 NOTE_C4,248, NOTE_C4,1, NOTE_C4,248, NOTE_REST,1, NOTE_E4,248, NOTE_E4,1, NOTE_E4,248, NOTE_REST,1,
 NOTE_G3,498, NOTE_REST,1, NOTE_E4,498, NOTE_REST,1, NOTE_A5,498, NOTE_REST,1, NOTE_G5,498, NOTE_G5,1,
 NOTE_G5,498, NOTE_REST,1, NOTE_E4,498, NOTE_REST,1, NOTE_G5,373, NOTE_REST,1, NOTE_A5,123, NOTE_REST,1,
 NOTE_E4,373, NOTE_E4,1, NOTE_E4,123, NOTE_REST,1, NOTE_G3,498, NOTE_REST,1, NOTE_E4,498, NOTE_REST,1,
 NOTE_F5,498, NOTE_F5,1, NOTE_F5,498, NOTE_F5,1, NOTE_F5,498, NOTE_REST,1, NOTE_G4,498, NOTE_REST,1,
 NOTE_F5,248, NOTE_REST,1, NOTE_G5,248, NOTE_G5,1, NOTE_G5,248, NOTE_REST,1, NOTE_F5,248, NOTE_REST,1,
 NOTE_G3,498, NOTE_REST,1, NOTE_G4,498, NOTE_REST,1, NOTE_D4,498, NOTE_REST,1, NOTE_G4,498, NOTE_REST,1,
 NOTE_G3,498, NOTE_REST,1, NOTE_G4,498, NOTE_REST,1, NOTE_G5,373, NOTE_REST,1, NOTE_A5,123, NOTE_REST,1,
 NOTE_G4,373, NOTE_G4,1, NOTE_G4,123, NOTE_REST,1, NOTE_G3,498, NOTE_REST,1, NOTE_D4,498, NOTE_REST,1,
 NOTE_E5,498, NOTE_E5,1, NOTE_E5,498, NOTE_E5,1, NOTE_E5,498, NOTE_REST,501, NOTE_G5,248, NOTE_REST,1,
 NOTE_A5,248, NOTE_A5,1, NOTE_A5,248, NOTE_REST,1, NOTE_G5,248, NOTE_REST,1, NOTE_G3,498, NOTE_REST,1,
 NOTE_E4,498, NOTE_REST,1, NOTE_A5,498, NOTE_REST,1, NOTE_G5,498, NOTE_G5,1, NOTE_G5,498, NOTE_REST,1,
 NOTE_E4,498, NOTE_REST,1, NOTE_G5,373, NOTE_REST,1, NOTE_A5,123, NOTE_REST,1, NOTE_E4,373, NOTE_E4,1,
 NOTE_E4,123, NOTE_REST,1, NOTE_G3,498, NOTE_REST,1, NOTE_E4,498, NOTE_REST,1, NOTE_F5,498, NOTE_F5,1,
 NOTE_F5,498, NOTE_F5,1, NOTE_F5,498, NOTE_REST,1, NOTE_G4,498, NOTE_REST,1, NOTE_F5,248, NOTE_REST,1,
 NOTE_G5,248, NOTE_G5,1, NOTE_G5,248, NOTE_REST,1, NOTE_F5,248, NOTE_REST,1, NOTE_G3,498, NOTE_REST,1,
 NOTE_G4,498, NOTE_REST,1, NOTE_D4,498, NOTE_REST,1, NOTE_G4,498, NOTE_REST,1, NOTE_G3,498, NOTE_REST,1,
 NOTE_G4,498, NOTE_REST,1, NOTE_G5,373, NOTE_REST,1, NOTE_A5,123, NOTE_REST,1, NOTE_D4,373, NOTE_D4,1,
 NOTE_D4,123, NOTE_REST,1, NOTE_G3,498, NOTE_REST,1, NOTE_D4,498, NOTE_REST,1, NOTE_E5,498, NOTE_E5,1,
 NOTE_E5,498, NOTE_E5,1, NOTE_E5,498, NOTE_REST,501, NOTE_A5,498, NOTE_REST,1, NOTE_A5,498, NOTE_REST,1,
 NOTE_C4,498, NOTE_C4,1, NOTE_C4,498, NOTE_REST,1, NOTE_C4,498, NOTE_C4,1, NOTE_C4,498, NOTE_C4,1,
 NOTE_C4,498, NOTE_REST,1, NOTE_CS4,498, NOTE_REST,1, NOTE_F5,498, NOTE_REST,1, NOTE_A5,498, NOTE_REST,1,
 NOTE_G3,498, NOTE_G3,1, NOTE_G3,498, NOTE_REST,1, NOTE_G3,1498, NOTE_REST,1, NOTE_CS4,498, NOTE_REST,1,
 NOTE_D5,498, NOTE_REST,1, NOTE_E5,498, NOTE_REST,1, NOTE_G3,498, NOTE_G3,1, NOTE_G3,498, NOTE_REST,1,
 NOTE_G3,498, NOTE_G3,1, NOTE_G3,498, NOTE_G3,1, NOTE_G3,498, NOTE_REST,1, NOTE_GS4,498, NOTE_REST,1,
 NOTE_C6,498, NOTE_REST,1, NOTE_C6,498, NOTE_REST,1, NOTE_D4,498, NOTE_D4,1, NOTE_D4,498, NOTE_REST,1,
 NOTE_B3,498, NOTE_B3,1, NOTE_B3,498, NOTE_B3,1, NOTE_B3,498, NOTE_REST,501, NOTE_C4,248, NOTE_C4,1,
 NOTE_C4,248, NOTE_REST,1, NOTE_E4,248, NOTE_E4,1, NOTE_E4,248, NOTE_REST,1, NOTE_G3,498, NOTE_REST,1,
 NOTE_E4,498, NOTE_REST,1, NOTE_A5,498, NOTE_REST,1, NOTE_G5,498, NOTE_G5,1, NOTE_G5,498, NOTE_REST,1,
 NOTE_E4,498, NOTE_REST,1, NOTE_G5,373, NOTE_REST,1, NOTE_A5,123, NOTE_REST,1, NOTE_E4,373, NOTE_E4,1,
 NOTE_E4,123, NOTE_REST,1, NOTE_G3,498, NOTE_REST,1, NOTE_E4,498, NOTE_REST,1, NOTE_F5,498, NOTE_F5,1,
 NOTE_F5,498, NOTE_F5,1, NOTE_F5,498, NOTE_REST,1, NOTE_G4,498, NOTE_REST,1, NOTE_F5,248, NOTE_REST,1,
 NOTE_G5,248, NOTE_G5,1, NOTE_G5,248, NOTE_REST,1, NOTE_F5,248, NOTE_REST,1, NOTE_G3,498, NOTE_REST,1,
 NOTE_G4,498, NOTE_REST,1, NOTE_D4,498, NOTE_REST,1, NOTE_G4,498, NOTE_REST,1, NOTE_G3,498, NOTE_REST,1,
 NOTE_G4,498, NOTE_REST,1, NOTE_G5,373, NOTE_REST,1, NOTE_A5,123, NOTE_REST,1, NOTE_D4,373, NOTE_D4,1,
 NOTE_D4,123, NOTE_REST,1, NOTE_G3,498, NOTE_REST,1, NOTE_D4,498, NOTE_REST,1, NOTE_E5,498, NOTE_E5,1,
 NOTE_E5,498, NOTE_E5,1, NOTE_E5,498, NOTE_REST,501, NOTE_A5,498, NOTE_REST,1, NOTE_A5,498, NOTE_REST,1,
 NOTE_C4,498, NOTE_C4,1, NOTE_C4,498, NOTE_REST,1, NOTE_C4,498, NOTE_C4,1, NOTE_C4,498, NOTE_C4,1,
 NOTE_C4,498, NOTE_REST,1, NOTE_CS4,498, NOTE_REST,1, NOTE_F5,498, NOTE_REST,1, NOTE_A5,498, NOTE_REST,1,
 NOTE_G3,498, NOTE_G3,1, NOTE_G3,498, NOTE_REST,1, NOTE_G3,1498, NOTE_REST,1, NOTE_CS4,498, NOTE_REST,1,
 NOTE_D5,498, NOTE_REST,1, NOTE_E5,498, NOTE_REST,1, NOTE_G3,498, NOTE_G3,1, NOTE_G3,498, NOTE_REST,1,
 NOTE_G3,498, NOTE_G3,1, NOTE_G3,498, NOTE_G3,1, NOTE_G3,498, NOTE_REST,1, NOTE_GS4,498, NOTE_REST,1,
 NOTE_C6,498, NOTE_REST,1, NOTE_C6,498, NOTE_REST,1, NOTE_D4,498, NOTE_D4,1, NOTE_D4,498, NOTE_REST,1,
 NOTE_B3,498, NOTE_B3,1, NOTE_B3,498, NOTE_B3,1, NOTE_B3,498, NOTE_REST,501, NOTE_C4,248, NOTE_C4,1,
 NOTE_C4,248, NOTE_REST,1, NOTE_E4,248, NOTE_E4,1, NOTE_E4,248, NOTE_REST,1, NOTE_G3,498, NOTE_REST,1,
 NOTE_E4,498, NOTE_REST,1, NOTE_A5,498, NOTE_REST,1, NOTE_G5,498, NOTE_G5,1, NOTE_G5,498, NOTE_REST,1,
 NOTE_E4,498, NOTE_REST,1, NOTE_G5,373, NOTE_REST,1, NOTE_A5,123, NOTE_REST,1, NOTE_E4,373, NOTE_E4,1,
 NOTE_E4,123, NOTE_REST,1, NOTE_G3,498, NOTE_REST,1, NOTE_E4,498, NOTE_REST,1, NOTE_F5,498, NOTE_F5,1,
 NOTE_F5,498, NOTE_F5,1, NOTE_F5,498, NOTE_REST,1, NOTE_G4,498, NOTE_REST,1, NOTE_F5,248, NOTE_REST,1,
 NOTE_G5,248, NOTE_G5,1, NOTE_G5,248, NOTE_REST,1, NOTE_F5,248, NOTE_REST,1, NOTE_G3,498, NOTE_REST,1,
 NOTE_G4,498, NOTE_REST,1, NOTE_D4,498, NOTE_REST,1, NOTE_G4,498, NOTE_REST,1, NOTE_G3,498, NOTE_REST,1,
 NOTE_G4,498, NOTE_REST,1, NOTE_G5,498, NOTE_REST,1, NOTE_A5,498, NOTE_REST,1, NOTE_G3,498, NOTE_G3,1,
 NOTE_G3,498, NOTE_REST,1, NOTE_G3,498, NOTE_G3,1, NOTE_G3,498, NOTE_REST,1, NOTE_D6,498, NOTE_D6,1,
 NOTE_D6,498, NOTE_REST,1, NOTE_C6,1998,
 TONES_END
};
// This score contains 1710 bytes.
// 241 notes had to be skipped.
