// ArduboyTones stream for file "StarWarsMainTheme.mid" created by MIDI2TONES V1.0.0 on Fri Nov 22 13:37:37 2019
// command line: C:\Users\cnorf\Downloads\midi2tones-master\midi2tones_64bit.exe -o2 -c64 StarWarsMainTheme 
//   From channel 6
const int score[] = {
// Piccolo
 NOTE_AS4,911, NOTE_REST,1, NOTE_AS4,65, NOTE_REST,6, NOTE_AS4,66, NOTE_REST,7, NOTE_AS4,66, NOTE_REST,7,
 NOTE_AS4,72, NOTE_REST,6, NOTE_AS4,890, NOTE_REST,1, NOTE_AS4,65, NOTE_REST,8, NOTE_AS4,65, NOTE_REST,6,
 NOTE_AS4,67, NOTE_REST,6, NOTE_AS4,71, NOTE_REST,8, NOTE_AS4,203, NOTE_REST,17, NOTE_F4,177, NOTE_REST,16,
 NOTE_DS5,183, NOTE_REST,17, NOTE_F5,182, NOTE_REST,16, NOTE_DS5,177, NOTE_REST,16, NOTE_AS4,185, NOTE_REST,16,
 NOTE_AS4,186, NOTE_REST,17, NOTE_F4,176, NOTE_REST,16, NOTE_DS5,182, NOTE_REST,17, NOTE_F5,271, NOTE_REST,23,
 NOTE_AS4,88, NOTE_REST,7, NOTE_AS4,88, NOTE_REST,8, NOTE_AS4,105, NOTE_AS4,1, NOTE_REST,202, NOTE_REST,17,
 NOTE_AS4,177, NOTE_REST,16, NOTE_F5,183, NOTE_REST,17, NOTE_GS5,868, NOTE_REST,315, NOTE_REST,7, NOTE_F4,221,
 NOTE_REST,22, NOTE_F4,213, NOTE_REST,19, NOTE_F4,246, NOTE_F4,2, NOTE_REST,373, NOTE_F4,83, NOTE_REST,7,
 NOTE_F4,85, NOTE_REST,8, NOTE_F4,549, NOTE_F4,135, NOTE_REST,148, NOTE_F4,83, NOTE_REST,8, NOTE_F4,83,
 NOTE_REST,7, NOTE_F4,85, NOTE_REST,8, NOTE_F4,273, NOTE_REST,1, NOTE_GS4,273, NOTE_REST,285, NOTE_GS4,276,
 NOTE_REST,275, NOTE_AS4,273, NOTE_REST,1, NOTE_AS4,177, NOTE_REST,15, NOTE_AS4,83, NOTE_REST,7, NOTE_AS4,83,
 NOTE_REST,8, NOTE_AS4,170, NOTE_REST,14, NOTE_F4,169, NOTE_REST,15, NOTE_F4,163, NOTE_REST,15, NOTE_F4,169,
 NOTE_REST,299, NOTE_GS4,276, NOTE_REST,275, NOTE_AS4,273, NOTE_REST,1, NOTE_AS4,177, NOTE_REST,15, NOTE_AS4,83,
 NOTE_REST,7, NOTE_AS4,83, NOTE_REST,8, NOTE_AS4,170, NOTE_REST,14, NOTE_F4,169, NOTE_REST,15, NOTE_F4,163,
 NOTE_REST,15, NOTE_F4,169, NOTE_REST,15, NOTE_C5,177, NOTE_REST,15, NOTE_B4,167, NOTE_REST,15, NOTE_C5,170,
 NOTE_REST,14, NOTE_A4,685, NOTE_A4,148, NOTE_A4,83, NOTE_A4,8, NOTE_A4,83, NOTE_A4,7, NOTE_A4,85,
 NOTE_A4,8, NOTE_A4,127, NOTE_REST,145, NOTE_REST,1, NOTE_F4,273, NOTE_REST,1, NOTE_F4,561, NOTE_F4,549,
 NOTE_F4,420, NOTE_REST,0, NOTE_F4,128, NOTE_REST,11, NOTE_F4,169, NOTE_REST,15, NOTE_F4,163, NOTE_REST,15,
 NOTE_F4,169, NOTE_F4,15, NOTE_F4,5, NOTE_REST,555, NOTE_AS4,364, NOTE_AS4,169, NOTE_AS4,14, NOTE_REST,1,
 NOTE_AS4,561, NOTE_AS4,548, NOTE_REST,1, NOTE_AS4,561, NOTE_AS4,169, NOTE_REST,15, NOTE_AS4,163, NOTE_REST,15,
 NOTE_AS4,169, NOTE_REST,15, NOTE_AS4,5, NOTE_AS4,555, NOTE_AS4,169, NOTE_REST,15, NOTE_AS4,163, NOTE_REST,15,
 NOTE_AS4,169, NOTE_REST,15, NOTE_C5,177, NOTE_REST,15, NOTE_B4,167, NOTE_REST,15, NOTE_C5,170, NOTE_REST,14,
 NOTE_A4,1111, NOTE_A4,169, NOTE_REST,15, NOTE_A4,163, NOTE_REST,15, NOTE_A4,190, NOTE_REST,7222, NOTE_F4,169,
 NOTE_REST,15, NOTE_F4,163, NOTE_REST,15, NOTE_F4,169, NOTE_REST,15, NOTE_F4,561, NOTE_F4,169, NOTE_REST,15,
 NOTE_F4,163, NOTE_REST,15, NOTE_F4,185, NOTE_F4,5, NOTE_REST,1104, NOTE_REST,1, NOTE_GS4,1109, NOTE_REST,1,
 NOTE_GS4,561, NOTE_C5,548, NOTE_REST,1, NOTE_A4,177, NOTE_A4,15, NOTE_A4,167, NOTE_A4,15, NOTE_A4,170,
 NOTE_A4,14, NOTE_F4,409, NOTE_REST,0, NOTE_F4,127, NOTE_REST,12, NOTE_AS4,374, NOTE_REST,1, NOTE_F5,170,
 NOTE_REST,14, NOTE_DS5,318, NOTE_DS5,7, NOTE_REST,38, NOTE_CS5,169, NOTE_REST,15, NOTE_C5,374, NOTE_REST,1,
 NOTE_AS4,170, NOTE_REST,14, NOTE_AS4,302, NOTE_AS4,23, NOTE_REST,38, NOTE_FS4,169, NOTE_REST,576, NOTE_F4,273,
 NOTE_REST,1, NOTE_F4,81, NOTE_REST,8, NOTE_F4,83, NOTE_REST,6, NOTE_F4,85, NOTE_REST,8, NOTE_F4,561,
 NOTE_F4,273, NOTE_REST,1, NOTE_F4,81, NOTE_REST,8, NOTE_F4,83, NOTE_REST,6, NOTE_F4,94, NOTE_F4,2,
 NOTE_REST,832, NOTE_REST,1, NOTE_AS4,273, NOTE_REST,1, NOTE_AS4,561, NOTE_F4,548, NOTE_REST,562, NOTE_F4,833,
 NOTE_F4,83, NOTE_REST,8, NOTE_F4,83, NOTE_REST,7, NOTE_F4,85, NOTE_REST,8, NOTE_F4,273, NOTE_REST,1,
 NOTE_F4,273, NOTE_REST,285, NOTE_GS4,62, NOTE_REST,6, NOTE_GS4,62, NOTE_REST,5, NOTE_GS4,63, NOTE_REST,5,
 NOTE_GS4,64, NOTE_REST,6, NOTE_GS4,127, NOTE_REST,146, NOTE_GS4,61, NOTE_REST,5, NOTE_GS4,62, NOTE_REST,5,
 NOTE_GS4,62, NOTE_REST,5, NOTE_GS4,65, NOTE_REST,6, NOTE_GS4,135, NOTE_REST,148, NOTE_GS4,62, NOTE_REST,6,
 NOTE_GS4,62, NOTE_REST,5, NOTE_GS4,63, NOTE_REST,5, NOTE_GS4,64, NOTE_GS4,6, NOTE_GS4,1, NOTE_REST,167,
 NOTE_REST,15, NOTE_F4,163, NOTE_REST,15, NOTE_F4,190, NOTE_REST,278, NOTE_AS4,276, NOTE_REST,275, NOTE_AS4,273,
 NOTE_REST,285, NOTE_DS5,62, NOTE_REST,6, NOTE_DS5,62, NOTE_REST,5, NOTE_DS5,63, NOTE_REST,5, NOTE_DS5,64,
 NOTE_DS5,6, NOTE_DS5,1, NOTE_REST,167, NOTE_REST,15, NOTE_D5,163, NOTE_REST,15, NOTE_D5,190, NOTE_REST,278,
 NOTE_AS4,276, NOTE_REST,275, NOTE_AS4,273, NOTE_REST,285, NOTE_AS4,276, NOTE_REST,0, NOTE_AS4,169, NOTE_REST,15,
 NOTE_AS4,163, NOTE_REST,15, NOTE_AS4,169, NOTE_REST,15, NOTE_AS4,5, NOTE_AS4,555, NOTE_AS4,169, NOTE_REST,15,
 NOTE_AS4,163, NOTE_REST,15, NOTE_AS4,169, NOTE_REST,15, NOTE_AS4,561, NOTE_AS4,548, NOTE_REST,1, NOTE_GS4,561,
 NOTE_GS4,169, NOTE_REST,15, NOTE_GS4,163, NOTE_REST,15, NOTE_GS4,185, NOTE_GS4,5, NOTE_REST,555, NOTE_A4,548,
 NOTE_REST,1, NOTE_GS4,561, NOTE_GS4,169, NOTE_REST,15, NOTE_GS4,163, NOTE_REST,15, NOTE_GS4,185, NOTE_GS4,5,
 NOTE_REST,555, NOTE_D5,548, NOTE_REST,1, NOTE_C5,177, NOTE_REST,15, NOTE_B4,167, NOTE_REST,15, NOTE_AS4,170,
 NOTE_REST,14, NOTE_F4,169, NOTE_REST,15, NOTE_A4,163, NOTE_REST,15, NOTE_A4,169, NOTE_REST,15, NOTE_A4,135,
 NOTE_REST,2507, NOTE_F4,128, NOTE_REST,11, NOTE_F4,169, NOTE_REST,15, NOTE_F4,163, NOTE_REST,15, NOTE_F4,185,
 NOTE_F4,5, NOTE_REST,278, NOTE_DS4,83, NOTE_REST,8, NOTE_DS4,83, NOTE_REST,7, NOTE_DS4,85, NOTE_REST,8,
 NOTE_DS4,273, NOTE_REST,1, NOTE_AS4,81, NOTE_REST,8, NOTE_AS4,83, NOTE_REST,6, NOTE_AS4,85, NOTE_REST,8,
 NOTE_AS4,284, NOTE_DS4,83, NOTE_REST,8, NOTE_DS4,83, NOTE_REST,7, NOTE_DS4,85, NOTE_REST,8, NOTE_DS4,273,
 NOTE_REST,1, NOTE_GS4,81, NOTE_REST,8, NOTE_GS4,83, NOTE_REST,6, NOTE_GS4,85, NOTE_REST,8, NOTE_GS4,284,
 NOTE_GS4,83, NOTE_REST,8, NOTE_GS4,83, NOTE_REST,7, NOTE_GS4,85, NOTE_REST,8, NOTE_GS4,273, NOTE_REST,1,
 NOTE_GS4,81, NOTE_REST,8, NOTE_GS4,83, NOTE_REST,6, NOTE_GS4,85, NOTE_REST,8, NOTE_GS4,2, NOTE_GS4,3329,
 NOTE_REST,1, NOTE_REST,7384, NOTE_REST,8666, NOTE_FS4,835, NOTE_REST,1, NOTE_FS4,274, NOTE_FS4,12, NOTE_REST,822,
 NOTE_REST,1, NOTE_FS4,274, NOTE_FS4,12, NOTE_REST,822, NOTE_REST,1, NOTE_FS4,274, NOTE_FS4,12, NOTE_REST,822,
 NOTE_REST,1, NOTE_FS4,274, NOTE_FS4,12, NOTE_REST,1098, NOTE_B3,135, NOTE_REST,835, NOTE_D5,127, NOTE_REST,12,
 NOTE_D5,1109, NOTE_REST,1, NOTE_B4,135, NOTE_REST,285, NOTE_F5,128, NOTE_REST,11, NOTE_F5,273, NOTE_REST,1,
 NOTE_E5,81, NOTE_REST,8, NOTE_F5,83, NOTE_REST,6, NOTE_E5,85, NOTE_REST,8, NOTE_CS5,561, NOTE_REST,0,
 NOTE_CS5,170, NOTE_REST,14, NOTE_CS5,168, NOTE_REST,15, NOTE_CS5,169, NOTE_REST,15, NOTE_CS5,550, NOTE_REST,563,
 NOTE_CS5,170, NOTE_REST,14, NOTE_CS5,168, NOTE_REST,15, NOTE_CS5,169, NOTE_REST,15, NOTE_CS5,168, NOTE_REST,15,
 NOTE_CS5,166, NOTE_REST,14, NOTE_CS5,170, NOTE_REST,15, NOTE_CS5,561, NOTE_REST,0, NOTE_CS5,170, NOTE_REST,14,
 NOTE_CS5,168, NOTE_REST,15, NOTE_CS5,169, NOTE_REST,15, NOTE_CS5,550, NOTE_REST,563, NOTE_CS5,276, NOTE_REST,0,
 NOTE_CS5,275, NOTE_REST,0, NOTE_CS5,168, NOTE_REST,15, NOTE_CS5,166, NOTE_REST,14, NOTE_CS5,170, NOTE_REST,15,
 NOTE_CS5,561, NOTE_REST,0, NOTE_CS5,552, NOTE_REST,0, NOTE_CS5,168, NOTE_REST,15, NOTE_CS5,166, NOTE_REST,14,
 NOTE_CS5,170, NOTE_REST,15, NOTE_CS5,561, NOTE_REST,0, NOTE_CS5,552, NOTE_REST,0, NOTE_CS5,168, NOTE_REST,15,
 NOTE_CS5,166, NOTE_REST,14, NOTE_CS5,170, NOTE_REST,15, NOTE_CS5,600, NOTE_CS5,7, NOTE_REST,0, NOTE_CS5,697,
 NOTE_CS5,5, NOTE_REST,0, NOTE_CS5,792, NOTE_REST,1, NOTE_C4,408, NOTE_REST,0, NOTE_C4,395, NOTE_REST,0,
 NOTE_C4,120, NOTE_REST,10, NOTE_C4,117, NOTE_REST,11, NOTE_C4,120, NOTE_REST,12, NOTE_C4,195, NOTE_REST,213,
 NOTE_REST,0, NOTE_C4,395, NOTE_REST,0, NOTE_C4,120, NOTE_REST,10, NOTE_C4,117, NOTE_REST,11, NOTE_GS4,120,
 NOTE_REST,12, NOTE_AS4,408, NOTE_AS4,0, NOTE_AS4,395, NOTE_AS4,0, NOTE_AS4,120, NOTE_AS4,10, NOTE_AS4,117,
 NOTE_AS4,11, NOTE_AS4,120, NOTE_AS4,11, NOTE_REST,0, NOTE_F4,195, NOTE_REST,213, NOTE_REST,0, NOTE_C4,395,
 NOTE_REST,0, NOTE_C4,120, NOTE_REST,10, NOTE_C4,117, NOTE_REST,11, NOTE_GS4,120, NOTE_REST,12, NOTE_GS4,408,
 NOTE_GS4,0, NOTE_GS4,395, NOTE_GS4,0, NOTE_GS4,120, NOTE_GS4,10, NOTE_GS4,117, NOTE_GS4,11, NOTE_GS4,120,
 NOTE_GS4,11, NOTE_REST,0, NOTE_F4,195, NOTE_REST,213, NOTE_REST,0, NOTE_C4,395, NOTE_REST,0, NOTE_C4,120,
 NOTE_REST,10, NOTE_C4,117, NOTE_REST,11, NOTE_GS4,120, NOTE_REST,12, NOTE_GS4,408, NOTE_GS4,0, NOTE_GS4,395,
 NOTE_GS4,0, NOTE_GS4,120, NOTE_GS4,10, NOTE_GS4,117, NOTE_GS4,11, NOTE_GS4,120, NOTE_GS4,12, NOTE_GS4,408,
 NOTE_GS4,0, NOTE_GS4,395, NOTE_REST,0, NOTE_G4,120, NOTE_REST,10, NOTE_GS4,117, NOTE_REST,11, NOTE_G4,120,
 NOTE_REST,12, NOTE_F4,193, NOTE_REST,215, NOTE_B3,120, NOTE_REST,10, NOTE_B3,115, NOTE_REST,11, NOTE_B3,133,
 NOTE_B3,4, NOTE_REST,228, NOTE_REST,255, NOTE_G4,215, NOTE_REST,493, NOTE_A4,216, NOTE_REST,253, NOTE_A4,216,
 NOTE_REST,273, NOTE_G4,216, NOTE_REST,254, NOTE_B4,218, NOTE_REST,17, NOTE_A4,218, NOTE_REST,254, NOTE_A4,143,
 NOTE_REST,14, NOTE_A4,138, NOTE_REST,12, NOTE_A4,145, NOTE_A4,14, NOTE_A4,3, NOTE_REST,229, NOTE_REST,255,
 NOTE_B4,215, NOTE_REST,493, NOTE_A4,216, NOTE_REST,253, NOTE_A4,216, NOTE_REST,273, NOTE_G4,216, NOTE_REST,254,
 NOTE_B4,218, NOTE_REST,17, NOTE_A4,218, NOTE_REST,254, NOTE_A4,143, NOTE_REST,14, NOTE_A4,138, NOTE_REST,12,
 NOTE_A4,164, NOTE_REST,485, NOTE_G4,243, NOTE_REST,465, NOTE_G4,244, NOTE_REST,226, NOTE_G4,244, NOTE_REST,482,
 NOTE_A4,144, NOTE_REST,12, NOTE_A4,140, NOTE_REST,12, NOTE_A4,165, NOTE_REST,231, NOTE_A4,216, NOTE_REST,27,
 NOTE_REST,226, NOTE_G4,216, NOTE_REST,27, NOTE_REST,482, NOTE_A4,144, NOTE_REST,12, NOTE_A4,140, NOTE_REST,12,
 NOTE_A4,165, NOTE_REST,231, NOTE_G4,244, NOTE_REST,226, NOTE_G4,244, NOTE_REST,482, NOTE_AS4,471, NOTE_AS4,23,
 NOTE_REST,124, NOTE_REST,13, NOTE_AS4,139, NOTE_REST,12, NOTE_AS4,162, NOTE_REST,230, NOTE_B4,216, NOTE_REST,509,
 NOTE_G4,619, NOTE_REST,13, NOTE_G4,139, NOTE_REST,12, NOTE_G4,144, NOTE_REST,13, NOTE_G4,143, NOTE_REST,14,
 NOTE_G4,158, NOTE_REST,406, NOTE_F4,244, NOTE_REST,227, NOTE_F4,245, NOTE_REST,152, NOTE_F4,139, NOTE_REST,12,
 NOTE_F4,144, NOTE_REST,13, NOTE_F4,143, NOTE_REST,14, NOTE_F4,138, NOTE_REST,12, NOTE_F4,164, NOTE_REST,249,
 NOTE_A4,244, NOTE_REST,227, NOTE_A4,245, NOTE_REST,152, NOTE_A4,139, NOTE_REST,12, NOTE_A4,144, NOTE_REST,13,
 NOTE_G4,3, NOTE_G4,139, NOTE_REST,14, NOTE_G4,138, NOTE_REST,19, NOTE_REST,153, NOTE_AS4,489, NOTE_AS4,22,
 NOTE_REST,596, NOTE_REST,13, NOTE_B4,139, NOTE_REST,12, NOTE_B4,144, NOTE_REST,13, NOTE_B4,215, NOTE_REST,11684,
 NOTE_GS4,1902, NOTE_REST,1, NOTE_C5,488, NOTE_C5,0, NOTE_C5,462, NOTE_REST,8, NOTE_B4,218, NOTE_B4,18,
 NOTE_B4,379, NOTE_B4,14, NOTE_B4,138, NOTE_B4,12, NOTE_B4,158, NOTE_REST,5, NOTE_REST,485, NOTE_G4,495,
 NOTE_REST,213, NOTE_G4,244, NOTE_REST,226, NOTE_G4,244, NOTE_REST,482, NOTE_F4,144, NOTE_REST,12, NOTE_F4,140,
 NOTE_REST,12, NOTE_F4,165, NOTE_REST,231, NOTE_F4,216, NOTE_REST,253, NOTE_E4,216, NOTE_REST,509, NOTE_F4,144,
 NOTE_REST,12, NOTE_F4,140, NOTE_REST,12, NOTE_F4,165, NOTE_REST,231, NOTE_F4,216, NOTE_REST,253, NOTE_E4,216,
 NOTE_REST,20, NOTE_F4,233, NOTE_REST,255, NOTE_G4,619, NOTE_REST,13, NOTE_G4,139, NOTE_REST,12, NOTE_G4,144,
 NOTE_REST,13, NOTE_G4,3, NOTE_G4,139, NOTE_REST,14, NOTE_G4,138, NOTE_REST,12, NOTE_G4,164, NOTE_REST,249,
 NOTE_G4,244, NOTE_REST,227, NOTE_G4,245, NOTE_REST,152, NOTE_G4,139, NOTE_REST,12, NOTE_G4,144, NOTE_REST,13,
 NOTE_G4,143, NOTE_REST,14, NOTE_G4,138, NOTE_G4,19, NOTE_REST,642, NOTE_F4,689, NOTE_REST,18, NOTE_G4,216,
 NOTE_REST,253, NOTE_G4,216, NOTE_REST,509, NOTE_F4,689, NOTE_REST,18, NOTE_G4,216, NOTE_REST,253, NOTE_G4,216,
 NOTE_REST,509, NOTE_F4,471, NOTE_C5,147, NOTE_REST,13, NOTE_C5,139, NOTE_REST,12, NOTE_C5,374, NOTE_REST,18,
 NOTE_C5,216, NOTE_REST,20, NOTE_C5,6, NOTE_C5,226, NOTE_C5,27, NOTE_REST,22596, NOTE_F4,2867, NOTE_F4,940,
 NOTE_REST,1, NOTE_AS4,1902, NOTE_REST,1, NOTE_AS4,1431, NOTE_REST,1, NOTE_AS4,471, NOTE_AS4,21, NOTE_REST,940,
 NOTE_GS4,942, NOTE_A4,962, NOTE_B4,466, NOTE_REST,4, NOTE_GS4,21, NOTE_GS4,447, NOTE_REST,1, NOTE_G4,21,
 NOTE_G4,1880, NOTE_REST,1, NOTE_G4,962, NOTE_G4,940, NOTE_REST,1, NOTE_A4,962, NOTE_A4,940, NOTE_REST,1,
 NOTE_A4,962, NOTE_A4,940, NOTE_REST,1, NOTE_FS4,1431, NOTE_REST,1, NOTE_GS4,211, NOTE_REST,259, NOTE_FS4,1431,
 NOTE_REST,1, NOTE_GS4,211, NOTE_REST,27, NOTE_REST,232, NOTE_G4,233, NOTE_REST,27, NOTE_REST,3077, NOTE_G4,139,
 NOTE_REST,13, NOTE_G4,143, NOTE_REST,11, NOTE_G4,146, NOTE_REST,14, NOTE_G4,962, NOTE_D5,940, NOTE_REST,1,
 NOTE_C5,159, NOTE_REST,13, NOTE_B4,143, NOTE_REST,12, NOTE_A4,143, NOTE_REST,12, NOTE_G5,944, NOTE_REST,1,
 NOTE_D5,469, NOTE_REST,1, NOTE_C5,159, NOTE_REST,13, NOTE_B4,143, NOTE_REST,12, NOTE_A4,143, NOTE_REST,12,
 NOTE_G5,944, NOTE_REST,1, NOTE_D5,469, NOTE_REST,1, NOTE_C5,159, NOTE_REST,13, NOTE_B4,143, NOTE_REST,12,
 NOTE_C5,143, NOTE_REST,12, NOTE_A4,944, NOTE_REST,1, NOTE_D4,139, NOTE_REST,13, NOTE_D4,143, NOTE_REST,11,
 NOTE_D4,161, NOTE_D4,3, NOTE_REST,958, NOTE_D5,940, NOTE_REST,1, NOTE_C5,159, NOTE_REST,13, NOTE_B4,143,
 NOTE_REST,12, NOTE_A4,143, NOTE_REST,12, NOTE_G5,944, NOTE_REST,1, NOTE_D5,469, NOTE_REST,1, NOTE_C5,159,
 NOTE_REST,13, NOTE_B4,143, NOTE_REST,12, NOTE_A4,143, NOTE_REST,12, NOTE_G5,944, NOTE_REST,1, NOTE_D5,469,
 NOTE_REST,1, NOTE_C5,159, NOTE_REST,13, NOTE_B4,143, NOTE_REST,12, NOTE_C5,143, NOTE_REST,12, NOTE_A4,1157,
 NOTE_REST,259, NOTE_REST,15870, NOTE_D5,117, NOTE_REST,11, NOTE_D5,952, NOTE_D5,9, NOTE_B4,469, NOTE_REST,350,
 NOTE_D5,112, NOTE_REST,10, NOTE_D5,952, NOTE_D5,9, NOTE_B4,469, NOTE_REST,350, NOTE_F5,112, NOTE_REST,10,
 NOTE_F5,1431, NOTE_REST,1, NOTE_E5,348, NOTE_F5,54, NOTE_REST,4, NOTE_E5,56, NOTE_REST,6, NOTE_D5,90,
 NOTE_D5,18, NOTE_REST,143, NOTE_B4,3083, NOTE_REST,350, NOTE_D5,112, NOTE_REST,10, NOTE_D5,952, NOTE_D5,9,
 NOTE_B4,469, NOTE_REST,350, NOTE_D5,112, NOTE_REST,10, NOTE_D5,952, NOTE_D5,9, NOTE_B4,469, NOTE_REST,350,
 NOTE_D5,112, NOTE_REST,10, NOTE_CS5,721, NOTE_REST,0, NOTE_AS4,72, NOTE_REST,6, NOTE_G4,71, NOTE_REST,6,
 NOTE_AS4,74, NOTE_REST,7, NOTE_CS5,701, NOTE_REST,0, NOTE_AS4,71, NOTE_REST,6, NOTE_G4,71, NOTE_REST,6,
 NOTE_AS4,75, NOTE_REST,7, NOTE_CS5,90, NOTE_CS5,18, NOTE_REST,143, NOTE_AS4,70, NOTE_REST,6, NOTE_G4,71,
 NOTE_REST,6, NOTE_AS4,71, NOTE_REST,6, NOTE_CS5,73, NOTE_CS5,18, NOTE_REST,142, NOTE_AS4,72, NOTE_REST,6,
 NOTE_G4,71, NOTE_REST,6, NOTE_AS4,74, NOTE_REST,7, NOTE_CS5,76, NOTE_CS5,17, NOTE_REST,143, NOTE_AS4,70,
 NOTE_REST,8, NOTE_G4,69, NOTE_REST,5, NOTE_AS4,70, NOTE_REST,7, NOTE_CS5,87, NOTE_CS5,124, NOTE_REST,19,
 NOTE_CS5,71, NOTE_REST,6, NOTE_C5,71, NOTE_REST,6, NOTE_CS5,75, NOTE_REST,7, NOTE_DS5,1904, NOTE_DS5,1644,
 NOTE_REST,259, NOTE_REST,12000, NOTE_G4,767, NOTE_FS4,368, NOTE_FS4,1, NOTE_FS4,346, NOTE_FS4,29, NOTE_REST,1,
 NOTE_G4,345, NOTE_REST,29, NOTE_A4,334, NOTE_REST,29, NOTE_REST,3, NOTE_FS4,548, NOTE_D4,176, NOTE_REST,14,
 NOTE_REST,3, NOTE_G4,367, NOTE_REST,31, NOTE_A4,339, NOTE_REST,29, NOTE_C5,368, NOTE_C5,1, NOTE_C5,346,
 NOTE_C5,31, NOTE_C5,345, NOTE_C5,29, NOTE_C5,334, NOTE_C5,29, NOTE_REST,3, NOTE_B4,332, NOTE_REST,31,
 NOTE_A4,345, NOTE_REST,29, NOTE_REST,3, NOTE_D5,1135, NOTE_REST,1, NOTE_G4,114, NOTE_REST,10, NOTE_G4,112,
 NOTE_REST,10, NOTE_G4,129, NOTE_G4,3, NOTE_REST,1101, NOTE_REST,1, NOTE_G4,112, NOTE_REST,10, NOTE_G4,112,
 NOTE_REST,10, NOTE_G4,131, NOTE_G4,1, NOTE_REST,1134, NOTE_REST,1, NOTE_G4,114, NOTE_REST,10, NOTE_G4,112,
 NOTE_REST,10, NOTE_G4,129, NOTE_G4,3, NOTE_REST,735, NOTE_REST,3, NOTE_G4,739, NOTE_REST,3, NOTE_B4,4321,
 NOTE_REST,178, NOTE_REST,15, NOTE_B4,284, NOTE_B4,280, NOTE_B4,300, NOTE_B4,324, NOTE_B4,344, NOTE_B4,3573,
 NOTE_REST,119, NOTE_B4,293,
 TONES_END
};
// This score contains 4554 bytes.
// 938 notes had to be skipped.
