// ArduboyTones stream for file "su.mid" created by MIDI2TONES V1.0.0 on Fri Nov 22 13:54:55 2019
// command line: C:\Users\cnorf\Downloads\midi2tones-master\midi2tones_64bit.exe -o2 -c2 su 
//   From channel 1
const int score[] = {
// MIDI out
 NOTE_B4,1329, NOTE_B5,336, NOTE_A5,163, NOTE_G5,336, NOTE_A5,500, NOTE_B4,1000, NOTE_B4,329, NOTE_B5,336,
 NOTE_A5,333, NOTE_G5,329, NOTE_FS5,170, NOTE_G5,1166, NOTE_REST,163, NOTE_E5,170, NOTE_B5,163, NOTE_A5,336,
 NOTE_G5,329, NOTE_FS5,336, NOTE_G5,833, NOTE_DS5,663, NOTE_B5,336, NOTE_A5,329, NOTE_G5,336, NOTE_A5,163,
 NOTE_G5,1170, NOTE_D6,329, NOTE_B6,503, NOTE_A6,166, NOTE_G6,163, NOTE_A6,503, NOTE_B5,663, NOTE_A5,670,
 NOTE_FS5,1000, NOTE_A5,163, NOTE_A5,336, NOTE_G5,1000, NOTE_REST,163, NOTE_B5,336, NOTE_A5,329, NOTE_G5,170,
 NOTE_A5,329, NOTE_G5,833, NOTE_DS5,666, NOTE_B5,1000, NOTE_A5,170, NOTE_A5,329, NOTE_G5,1336, NOTE_REST,163,
 NOTE_G5,336, NOTE_B5,333, NOTE_D6,329, NOTE_A5,170, NOTE_G6,163, NOTE_A6,166, NOTE_A5,333, NOTE_G6,166,
 NOTE_A6,336, NOTE_A5,163, NOTE_G6,170, NOTE_A6,163, NOTE_A5,336, NOTE_G6,163, NOTE_A6,336, NOTE_A5,163,
 NOTE_G6,166, NOTE_B6,170, NOTE_A5,329, NOTE_G6,170, NOTE_B6,329, NOTE_A5,170, NOTE_G6,163, NOTE_B6,166,
 NOTE_A5,333, NOTE_G6,166, NOTE_B6,336, NOTE_A5,163, NOTE_G6,170, NOTE_A6,329, NOTE_G6,170, NOTE_G6,163,
 NOTE_G6,166, NOTE_G6,170, NOTE_G6,663, NOTE_F6,336, NOTE_DS6,329, NOTE_DS6,336, NOTE_D6,163, NOTE_D6,170,
 NOTE_D6,500, NOTE_REST,163, NOTE_C6,336, NOTE_C6,163, NOTE_C6,166, NOTE_C6,170, NOTE_D6,163, NOTE_D6,170,
 NOTE_REST,166, NOTE_B5,663, NOTE_G6,336, NOTE_G6,163, NOTE_G6,166, NOTE_G6,670, NOTE_F6,329, NOTE_DS6,336,
 NOTE_DS6,163, NOTE_D6,170, NOTE_D6,329, NOTE_D6,503, NOTE_REST,166, NOTE_C6,329, NOTE_C6,170, NOTE_C6,163,
 NOTE_C6,166, NOTE_D6,170, NOTE_D6,166, NOTE_REST,163, NOTE_G5,1336, NOTE_REST,333, NOTE_G6,163, NOTE_G6,166,
 NOTE_G6,170, NOTE_A6,163, NOTE_AS6,336, NOTE_C6,500, NOTE_F6,500, NOTE_A6,329, NOTE_AS5,503, NOTE_F6,166,
 NOTE_G6,329, NOTE_F6,336, NOTE_DS6,163, NOTE_D6,670, NOTE_REST,163, NOTE_D6,336, NOTE_B5,329, NOTE_B5,336,
 NOTE_B5,163, NOTE_A6,336, NOTE_B5,500, NOTE_E6,333, NOTE_G6,329, NOTE_A6,170, NOTE_AS5,666, NOTE_REST,163,
 NOTE_AS5,503, NOTE_REST,496, NOTE_D6,170, NOTE_D6,163, NOTE_G5,336, NOTE_D6,329, NOTE_G5,336, NOTE_F6,333,
 NOTE_G6,500, NOTE_F5,1500, NOTE_REST,329, NOTE_G5,170, NOTE_G5,163, NOTE_D6,166, NOTE_D6,336, NOTE_B5,166,
 NOTE_REST,333, NOTE_D6,163, NOTE_D6,170, NOTE_D6,329, NOTE_D6,336, NOTE_AS5,333, NOTE_A5,329, NOTE_G5,503,
 NOTE_F5,1500, NOTE_REST,333, NOTE_D6,163, NOTE_D6,170, NOTE_C6,163, NOTE_D6,336, NOTE_DS6,833, NOTE_REST,333,
 NOTE_AS5,333, NOTE_A5,329, NOTE_AS5,336, NOTE_C6,333, NOTE_C6,329, NOTE_AS5,336, NOTE_AS5,663, NOTE_AS5,336,
 NOTE_C6,500, NOTE_AS5,163, NOTE_A5,336, NOTE_G5,333, NOTE_A5,329, NOTE_A6,336, NOTE_A6,163, NOTE_C7,336,
 NOTE_D6,500, NOTE_F6,333, NOTE_D6,329, NOTE_D6,336, NOTE_D6,163, NOTE_C6,170, NOTE_C6,329, NOTE_C6,670,
 NOTE_A5,163, NOTE_G6,166, NOTE_A6,170, NOTE_A5,329, NOTE_G6,170, NOTE_A6,329, NOTE_A5,170, NOTE_G6,163,
 NOTE_A6,166, NOTE_A5,333, NOTE_G6,166, NOTE_A6,336, NOTE_A5,163, NOTE_G6,170, NOTE_A6,163, NOTE_A5,336,
 NOTE_G6,163, NOTE_A6,336, NOTE_REST,500, NOTE_F5,500, NOTE_C6,329, NOTE_REST,500, NOTE_C5,500, NOTE_E5,336,
 NOTE_REST,496, NOTE_F5,503, NOTE_C6,152, NOTE_C6,90, NOTE_C6,90, NOTE_D6,329, NOTE_C6,170, NOTE_B5,329,
 NOTE_C6,503, NOTE_REST,496, NOTE_F5,500, NOTE_C6,336, NOTE_G5,333, NOTE_C6,163, NOTE_B5,503, NOTE_C6,333,
 NOTE_G5,663, NOTE_G5,666, NOTE_DS5,503, NOTE_A5,496, NOTE_G5,1000, NOTE_B5,336, NOTE_G6,333, NOTE_REST,500,
 NOTE_FS6,500, NOTE_B5,329, NOTE_REST,670, NOTE_B5,329, NOTE_G6,156, NOTE_G6,90, NOTE_G6,90, NOTE_A6,333,
 NOTE_G6,163, NOTE_FS6,503, NOTE_G6,333, NOTE_REST,663, NOTE_B5,336, NOTE_G6,329, NOTE_B5,336, NOTE_G6,163,
 NOTE_FS6,500, NOTE_G6,336, NOTE_E6,500, NOTE_D6,500, NOTE_REST,333, NOTE_C6,500, NOTE_B5,500, NOTE_C6,329,
 NOTE_REST,500, NOTE_A5,500, NOTE_C6,336, NOTE_REST,496, NOTE_B5,503, NOTE_E5,333, NOTE_REST,500, NOTE_A5,500,
 NOTE_C6,152, NOTE_C6,90, NOTE_C6,86, NOTE_D6,503, NOTE_C6,166, NOTE_B5,329, NOTE_C6,336, NOTE_REST,663,
 NOTE_A5,336, NOTE_C6,333, NOTE_B5,500, NOTE_A5,163, NOTE_G5,336, NOTE_A5,329, NOTE_G5,670, NOTE_G5,663,
 NOTE_DS5,503, NOTE_A5,500, NOTE_G5,996, NOTE_G6,336, NOTE_G6,329, NOTE_FS6,336, NOTE_DS6,163, NOTE_B5,500,
 NOTE_A5,336, NOTE_REST,663, NOTE_G6,336, NOTE_G6,333, NOTE_FS6,329, NOTE_DS6,170, NOTE_B5,500, NOTE_A5,329,
 NOTE_REST,670, NOTE_G6,329, NOTE_G6,336, NOTE_A6,333, NOTE_G6,163, NOTE_FS6,503, NOTE_G6,333, NOTE_E6,500,
 NOTE_D6,500, NOTE_REST,329, NOTE_C6,503, NOTE_B5,496, NOTE_C6,336, NOTE_E5,500, NOTE_G5,500, NOTE_C5,333,
 NOTE_B4,663, NOTE_A6,166, NOTE_G6,336, NOTE_G6,163, NOTE_G6,503, NOTE_G5,496, NOTE_E5,336, NOTE_B5,663,
 NOTE_G6,170, NOTE_F6,329, NOTE_E6,170, NOTE_E6,500, NOTE_D6,500, NOTE_C5,329, NOTE_B4,670, NOTE_A5,163,
 NOTE_G5,336, NOTE_G5,163, NOTE_G5,503, NOTE_G5,500, NOTE_E5,333, NOTE_B5,663, NOTE_C7,166, NOTE_C7,336,
 NOTE_C7,163, NOTE_E6,503, NOTE_C6,166, NOTE_B5,329, NOTE_A5,336, NOTE_G5,500, NOTE_G5,163, NOTE_D6,225,
 NOTE_C6,222, NOTE_B5,222, NOTE_C6,333, NOTE_C6,333, NOTE_C6,350, NOTE_C6,350, NOTE_C6,366, NOTE_C6,366,
 NOTE_C6,746, NOTE_C6,20, NOTE_A5,375, NOTE_AS5,375, NOTE_C6,1500, NOTE_AS5,375, NOTE_A5,375, NOTE_G5,375,
 NOTE_A5,375, NOTE_AS5,1500, NOTE_A5,375, NOTE_G5,375, NOTE_FS5,375, NOTE_A5,2250, NOTE_REST,750, NOTE_D5,375,
 NOTE_E5,357, NOTE_FS5,357, NOTE_G5,113, NOTE_A5,113, NOTE_AS5,113, NOTE_C6,113, NOTE_D6,113, NOTE_E6,109,
 NOTE_FS6,3, NOTE_FS6,80, NOTE_G6,80, NOTE_A6,77, NOTE_AS6,84, NOTE_C7,323, NOTE_AS5,663, NOTE_AS5,670,
 NOTE_A5,444, NOTE_G5,222, NOTE_REST,333, NOTE_D5,1666, NOTE_REST,333, NOTE_D5,500, NOTE_REST,163, NOTE_CS5,336,
 NOTE_C5,444, NOTE_DS5,222, NOTE_G5,444, NOTE_A5,888, NOTE_REST,218, NOTE_AS5,225, NOTE_C6,20, NOTE_C6,65,
 NOTE_C6,65, NOTE_C6,69, NOTE_D6,663, NOTE_D6,670, NOTE_C6,444, NOTE_A5,444, NOTE_REST,222, NOTE_AS5,218,
 NOTE_G5,447, NOTE_D5,222, NOTE_DS5,218, NOTE_G5,225, NOTE_AS5,20, NOTE_AS5,65, NOTE_AS5,65, NOTE_AS5,69,
 NOTE_D6,663, NOTE_C6,670, NOTE_FS5,444, NOTE_C5,222, NOTE_D5,222, NOTE_FS5,222, NOTE_A5,20, NOTE_A5,65,
 NOTE_A5,65, NOTE_A5,65, NOTE_C6,670, NOTE_AS5,663, NOTE_AS4,329, NOTE_AS4,7, NOTE_AS4,338, NOTE_AS4,7,
 NOTE_AS4,349, NOTE_AS4,7, NOTE_AS4,361, NOTE_AS4,7, NOTE_D5,738, NOTE_D5,25, NOTE_D5,564, NOTE_D5,80,
 NOTE_D5,80, NOTE_D5,59, NOTE_D5,26, NOTE_E5,750, NOTE_E5,375, NOTE_G4,375, NOTE_D5,1500, NOTE_REST,1875,
 NOTE_G5,375, NOTE_A5,375, NOTE_AS5,375, NOTE_D6,1500, NOTE_REST,375, NOTE_D6,375, NOTE_C6,375, NOTE_AS5,375,
 NOTE_A5,1500, NOTE_REST,375, NOTE_A5,375, NOTE_AS5,375, NOTE_A5,375, NOTE_G5,4500, NOTE_REST,375, NOTE_D5,375,
 NOTE_E5,375, NOTE_F5,375, NOTE_A5,1500, NOTE_REST,375, NOTE_A5,375, NOTE_G5,375, NOTE_F5,375, NOTE_E5,1500,
 NOTE_REST,375, NOTE_D5,375, NOTE_CS5,375, NOTE_D5,375, NOTE_E5,1500, NOTE_REST,3000, NOTE_F5,367, NOTE_F5,7,
 NOTE_F5,375, NOTE_F5,8, NOTE_E5,384, NOTE_E5,8, NOTE_E5,393, NOTE_E5,8, NOTE_D5,402, NOTE_D5,8,
 NOTE_D5,410, NOTE_D5,8, NOTE_D5,1709, NOTE_REST,1718, NOTE_A5,428, NOTE_GS5,424, NOTE_G5,4, NOTE_G5,333,
 NOTE_AS5,164, NOTE_G5,1002, NOTE_GS5,500, NOTE_DS6,166, NOTE_REST,166, NOTE_DS6,666, NOTE_AS5,333, NOTE_D6,164,
 NOTE_AS5,1002, NOTE_B5,500, NOTE_F6,166, NOTE_REST,166, NOTE_F6,416, NOTE_DS6,125, NOTE_F6,125, NOTE_G6,333,
 NOTE_F6,164, NOTE_DS6,335, NOTE_D6,333, NOTE_REST,166, NOTE_DS6,164, NOTE_C6,502, NOTE_REST,333, NOTE_CS6,164,
 NOTE_C6,335, NOTE_G5,164, NOTE_F5,502, NOTE_REST,333, NOTE_F5,164, NOTE_A5,335, NOTE_C6,164, NOTE_GS5,752,
 NOTE_GS5,750, NOTE_G5,333, NOTE_AS5,164, NOTE_G5,1002, NOTE_GS5,500, NOTE_DS6,166, NOTE_REST,166, NOTE_DS6,666,
 NOTE_AS5,333, NOTE_D6,164, NOTE_AS5,1002, NOTE_B5,500, NOTE_F6,166, NOTE_REST,166, NOTE_F6,416, NOTE_DS6,125,
 NOTE_F6,125, NOTE_G6,333, NOTE_F6,164, NOTE_DS6,335, NOTE_D6,333, NOTE_REST,166, NOTE_DS6,164, NOTE_C6,502,
 NOTE_REST,333, NOTE_CS6,164, NOTE_C6,335, NOTE_G5,164, NOTE_F5,502, NOTE_REST,333, NOTE_F5,164, NOTE_A5,335,
 NOTE_C6,164, NOTE_AS5,752, NOTE_AS5,750, NOTE_DS5,1200, NOTE_F5,300, NOTE_AS5,300, NOTE_G6,300, NOTE_F6,150,
 NOTE_D6,150, NOTE_DS6,1200, NOTE_REST,300, NOTE_AS5,300, NOTE_G6,300, NOTE_F6,150, NOTE_D6,150, NOTE_D6,1200,
 NOTE_REST,300, NOTE_B5,300, NOTE_G6,300, NOTE_F6,150, NOTE_D6,150, NOTE_DS6,1200, NOTE_REST,300, NOTE_C6,300,
 NOTE_G6,300, NOTE_F6,150, NOTE_D6,150, NOTE_D6,2400, NOTE_AS5,150, NOTE_AS5,150, NOTE_AS5,150, NOTE_AS5,150,
 NOTE_AS5,300, NOTE_G5,300, NOTE_G5,300, NOTE_C6,300, NOTE_AS5,300, NOTE_G5,300, NOTE_REST,300, NOTE_G5,150,
 NOTE_G5,150, NOTE_G5,150, NOTE_F5,300, NOTE_F5,600, NOTE_REST,150, NOTE_F5,150, NOTE_F5,150, NOTE_DS5,300,
 NOTE_C5,300, NOTE_GS5,150, NOTE_GS5,150, NOTE_GS5,300, NOTE_G5,150, NOTE_G5,150, NOTE_C5,300, NOTE_F5,900,
 NOTE_REST,300, NOTE_GS5,150, NOTE_GS5,150, NOTE_GS5,300, NOTE_G5,150, NOTE_G5,150, NOTE_C5,300, NOTE_F5,300,
 NOTE_F5,200, NOTE_F5,200, NOTE_DS5,200, NOTE_C5,1200, NOTE_GS5,300, NOTE_GS5,150, NOTE_GS5,300, NOTE_G5,150,
 NOTE_G5,1500, NOTE_REST,300, NOTE_AS5,300, NOTE_G6,300, NOTE_F6,150, NOTE_D6,150, NOTE_DS6,1200, NOTE_REST,300,
 NOTE_AS5,300, NOTE_G6,300, NOTE_F6,150, NOTE_D6,150, NOTE_D6,1200, NOTE_REST,300, NOTE_B5,300, NOTE_G6,300,
 NOTE_F6,150, NOTE_D6,150, NOTE_DS6,1200, NOTE_REST,300, NOTE_C6,300, NOTE_G6,300, NOTE_F6,150, NOTE_D6,150,
 NOTE_D6,1200, NOTE_F5,1200, NOTE_C5,300, NOTE_C6,150, NOTE_C6,150, NOTE_C6,300, NOTE_AS5,150, NOTE_AS5,300,
 NOTE_G5,900, NOTE_REST,150, NOTE_C5,300, NOTE_C6,150, NOTE_C6,150, NOTE_C6,300, NOTE_AS5,150, NOTE_AS5,300,
 NOTE_G5,450, NOTE_D5,150, NOTE_G5,150, NOTE_F5,300, NOTE_C5,300, NOTE_C6,150, NOTE_C6,150, NOTE_C6,300,
 NOTE_AS5,300, NOTE_AS5,150, NOTE_G5,900, NOTE_REST,150, NOTE_C5,150, NOTE_C6,150, NOTE_C6,300, NOTE_C6,150,
 NOTE_AS5,150, NOTE_AS5,300, NOTE_AS5,150, NOTE_G5,450, NOTE_G5,300, NOTE_G5,300, NOTE_F5,300, NOTE_F5,300,
 NOTE_GS5,300, NOTE_CS6,150, NOTE_B5,450, NOTE_C6,150, NOTE_C6,300, NOTE_D6,150, NOTE_DS6,300, NOTE_DS6,150,
 NOTE_D6,150, NOTE_C6,150, NOTE_AS5,150, NOTE_GS5,150, NOTE_G5,150, NOTE_F5,150, NOTE_DS5,450, NOTE_DS5,150,
 NOTE_G5,300, NOTE_DS5,300, NOTE_DS5,1350, NOTE_REST,300, NOTE_DS5,150, NOTE_G5,300, NOTE_DS5,300, NOTE_F5,450,
 NOTE_F5,300, NOTE_B4,300, NOTE_B4,300, NOTE_B4,300, NOTE_REST,900, NOTE_GS4,545, NOTE_GS5,269, NOTE_G6,272,
 NOTE_AS5,411, NOTE_AS5,406, NOTE_G5,821, NOTE_G5,269, NOTE_G6,272, NOTE_F5,411, NOTE_DS6,406, NOTE_GS5,821,
 NOTE_GS5,269, NOTE_G6,272, NOTE_AS5,411, NOTE_AS5,406, NOTE_G5,1366, NOTE_G5,542, NOTE_G5,548, NOTE_GS5,542,
 NOTE_GS5,275, NOTE_G6,269, NOTE_AS5,411, NOTE_AS5,409, NOTE_G5,815, NOTE_G5,275, NOTE_G6,269, NOTE_F5,411,
 NOTE_DS6,406, NOTE_GS5,821, NOTE_GS5,269, NOTE_G6,272, NOTE_AS5,411, NOTE_AS5,406, NOTE_G5,2454, NOTE_C5,139,
 NOTE_C5,269, NOTE_C5,275, NOTE_D5,133, NOTE_DS5,275, NOTE_C5,818, NOTE_REST,272, NOTE_D5,133, NOTE_D5,275,
 NOTE_D5,272, NOTE_AS4,133, NOTE_G5,1093, NOTE_REST,272, NOTE_F5,269, NOTE_DS5,139, NOTE_F5,272, NOTE_F5,269,
 NOTE_DS5,139, NOTE_F5,269, NOTE_DS5,272, NOTE_C5,275, NOTE_AS4,269, NOTE_C5,272, NOTE_C5,139, NOTE_C5,269,
 NOTE_AS4,139, NOTE_C5,1090, NOTE_REST,269, NOTE_C5,139, NOTE_C5,269, NOTE_C5,272, NOTE_D5,139, NOTE_DS5,269,
 NOTE_C5,821, NOTE_REST,269, NOTE_D5,139, NOTE_D5,269, NOTE_D5,275, NOTE_AS4,133, NOTE_G5,821, NOTE_REST,269,
 NOTE_F5,139, NOTE_DS5,136, NOTE_F5,269, NOTE_DS5,272, NOTE_F5,272, NOTE_DS5,139, NOTE_F5,136, NOTE_DS5,542,
 NOTE_C5,272, NOTE_AS4,275, NOTE_C5,269, NOTE_C5,139, NOTE_C5,272, NOTE_AS4,136, NOTE_C5,1090, NOTE_C6,269,
 NOTE_C6,272, NOTE_C6,139, NOTE_C6,133, NOTE_DS6,139, NOTE_D6,136, NOTE_C6,133, NOTE_D6,139, NOTE_D6,269,
 NOTE_DS6,545, NOTE_C6,272, NOTE_C6,272, NOTE_C6,139, NOTE_C6,136, NOTE_DS6,133, NOTE_D6,139, NOTE_C6,136,
 NOTE_D6,133, NOTE_G5,272, NOTE_C6,545, NOTE_C6,272, NOTE_C6,275, NOTE_C6,133, NOTE_C6,139, NOTE_DS6,133,
 NOTE_D6,139, NOTE_C6,136, NOTE_D6,133, NOTE_D6,275, NOTE_DS6,542, NOTE_DS6,272, NOTE_GS5,275, NOTE_GS5,133,
 NOTE_DS6,139, NOTE_F6,269, NOTE_F6,139, NOTE_G6,136, NOTE_B5,269, NOTE_B5,272, NOTE_G6,139, NOTE_F6,133,
 NOTE_DS6,139, NOTE_F6,136, NOTE_C6,269, NOTE_C6,272, NOTE_G6,272, NOTE_AS5,139, NOTE_AS5,269, NOTE_AS5,411,
 NOTE_G6,136, NOTE_F6,133, NOTE_DS6,139, NOTE_F6,136, NOTE_G6,269, NOTE_C6,272, NOTE_C6,275, NOTE_GS5,133,
 NOTE_GS5,272, NOTE_G5,411, NOTE_G6,136, NOTE_F6,269, NOTE_DS6,139, NOTE_C6,269, NOTE_C6,272, NOTE_G6,139,
 NOTE_F6,269, NOTE_DS6,139, NOTE_C6,269, NOTE_C6,275, NOTE_G6,133, NOTE_F6,272, NOTE_DS6,139, NOTE_D6,269,
 NOTE_C6,139, NOTE_F6,406, NOTE_D6,821, NOTE_G6,133, NOTE_F6,139, NOTE_DS6,269, NOTE_C6,548, NOTE_C5,269,
 NOTE_G5,272, NOTE_F5,411, NOTE_AS5,406, NOTE_G5,821, NOTE_C5,269, NOTE_G5,275, NOTE_F5,406, NOTE_DS5,409,
 NOTE_C5,818, NOTE_C5,272, NOTE_G5,275, NOTE_F5,409, NOTE_AS5,409, NOTE_G5,1090, NOTE_DS5,133, NOTE_DS5,139,
 NOTE_CS5,269, NOTE_DS5,272, NOTE_F5,275, NOTE_DS5,272, NOTE_REST,545, NOTE_C5,269, NOTE_G5,272, NOTE_F5,411,
 NOTE_AS5,406, NOTE_G5,821, NOTE_C5,269, NOTE_G5,272, NOTE_F5,411, NOTE_DS5,406, NOTE_C5,821, NOTE_C5,269,
 NOTE_G5,272, NOTE_F5,411, NOTE_AS5,406, NOTE_G5,1090, NOTE_DS5,139, NOTE_DS5,136, NOTE_CS5,269, NOTE_DS5,272,
 NOTE_F5,272, NOTE_DS5,275, NOTE_REST,542, NOTE_C6,275, NOTE_AS5,269, NOTE_G5,411, NOTE_AS5,409, NOTE_G5,815,
 NOTE_C5,275, NOTE_G5,269, NOTE_F5,411, NOTE_DS5,406, NOTE_C5,821, NOTE_C6,269, NOTE_AS5,272, NOTE_G5,411,
 NOTE_AS5,406, NOTE_G5,1090, NOTE_DS5,139, NOTE_DS5,133, NOTE_CS5,275, NOTE_DS5,269, NOTE_F5,272, NOTE_DS5,275,
 NOTE_REST,545, NOTE_C6,269, NOTE_AS5,275, NOTE_G5,406, NOTE_AS5,409, NOTE_G5,818, NOTE_C5,272, NOTE_G5,275,
 NOTE_F5,409, NOTE_DS5,409, NOTE_C5,815, NOTE_C6,275, NOTE_AS5,269, NOTE_G5,411, NOTE_AS5,409, NOTE_G5,1088,
 NOTE_DS5,139, NOTE_DS5,127, NOTE_DS5,5, NOTE_CS5,2, NOTE_CS5,283, NOTE_DS5,259, NOTE_DS5,25, NOTE_F5,298,
 NOTE_F5,6, NOTE_DS5,309, NOTE_DS5,6, NOTE_C5,653, NOTE_C5,671, NOTE_C5,26, NOTE_B4,717, NOTE_B4,24,
 NOTE_B4,546, NOTE_B4,61, NOTE_B4,17, NOTE_B4,80, NOTE_B4,85, NOTE_D5,206, NOTE_DS5,206, NOTE_G5,202,
 NOTE_AS5,211, NOTE_D6,213, NOTE_DS6,222, NOTE_G6,217, NOTE_AS6,217, NOTE_D7,228, NOTE_DS7,223, NOTE_G7,233,
 NOTE_AS7,223, NOTE_D8,4, NOTE_D8,931, NOTE_D8,10,
 TONES_END
};
// This score contains 4114 bytes.
// 409 notes had to be skipped.
