// ArduboyTones stream for file "VivaLaVida.mid" created by MIDI2TONES V1.0.0 on Mon Dec 09 23:45:10 2019
// command line: C:\Users\cnorf\Downloads\midi2tones-master\midi2tones_64bit.exe -o2 -c256 VivaLaVida 
//   From channel 8
const int score4[] = {
// Viva La Vida
 NOTE_CS3,107, NOTE_REST,321, NOTE_CS3,107, NOTE_REST,321, NOTE_CS3,107, NOTE_REST,321, NOTE_CS3,71, NOTE_REST,142,
 NOTE_DS3,285, NOTE_REST,142, NOTE_DS3,107, NOTE_REST,321, NOTE_DS3,71, NOTE_REST,142, NOTE_DS3,107, NOTE_REST,321,
 NOTE_DS3,107, NOTE_REST,321, NOTE_GS3,107, NOTE_REST,321, NOTE_GS3,107, NOTE_REST,321, NOTE_GS3,107, NOTE_REST,321,
 NOTE_GS3,71, NOTE_REST,142, NOTE_F3,285, NOTE_REST,142, NOTE_F3,107, NOTE_REST,321, NOTE_F3,71, NOTE_REST,142,
 NOTE_F3,107, NOTE_REST,321, NOTE_F3,107, NOTE_REST,321, NOTE_CS3,107, NOTE_REST,321, NOTE_CS3,107, NOTE_REST,321,
 NOTE_CS3,107, NOTE_REST,321, NOTE_CS3,71, NOTE_REST,142, NOTE_DS3,285, NOTE_REST,142, NOTE_DS3,107, NOTE_REST,321,
 NOTE_DS3,71, NOTE_REST,142, NOTE_DS3,107, NOTE_REST,321, NOTE_DS3,107, NOTE_REST,321, NOTE_GS3,107, NOTE_REST,321,
 NOTE_GS3,107, NOTE_REST,321, NOTE_GS3,107, NOTE_REST,321, NOTE_GS3,71, NOTE_REST,142, NOTE_F3,424, NOTE_REST,4,
 NOTE_F3,357, NOTE_REST,14857, NOTE_CS3,357, NOTE_REST,71, NOTE_CS3,357, NOTE_REST,71, NOTE_CS3,357, NOTE_REST,71,
 NOTE_CS3,209, NOTE_REST,4, NOTE_DS3,424, NOTE_REST,4, NOTE_DS3,357, NOTE_REST,71, NOTE_DS3,209, NOTE_REST,4,
 NOTE_DS3,357, NOTE_REST,71, NOTE_DS3,357, NOTE_REST,71, NOTE_GS3,357, NOTE_REST,71, NOTE_GS3,357, NOTE_REST,71,
 NOTE_GS3,357, NOTE_REST,71, NOTE_GS3,209, NOTE_REST,4, NOTE_F3,424, NOTE_REST,4, NOTE_F3,357, NOTE_REST,71,
 NOTE_F3,209, NOTE_REST,4, NOTE_F3,357, NOTE_REST,71, NOTE_F3,357, NOTE_REST,71, NOTE_CS3,357, NOTE_REST,71,
 NOTE_CS3,357, NOTE_REST,71, NOTE_CS3,357, NOTE_REST,71, NOTE_CS3,209, NOTE_REST,4, NOTE_DS3,424, NOTE_REST,4,
 NOTE_DS3,357, NOTE_REST,71, NOTE_DS3,209, NOTE_REST,4, NOTE_DS3,357, NOTE_REST,71, NOTE_DS3,357, NOTE_REST,71,
 NOTE_GS3,357, NOTE_REST,71, NOTE_GS3,357, NOTE_REST,71, NOTE_GS3,357, NOTE_REST,71, NOTE_GS3,209, NOTE_REST,4,
 NOTE_F3,424, NOTE_REST,4, NOTE_F3,357,
 0, 1, -1, -1
};
// This score contains 526 bytes.
// 132 notes had to be skipped.
