// ArduboyTones stream for file "VivaLaVida.mid" created by MIDI2TONES V1.0.0 on Mon Dec 09 23:43:01 2019
// command line: C:\Users\cnorf\Downloads\midi2tones-master\midi2tones_64bit.exe -o2 -c4 VivaLaVida 
//   From channel 2
const int score2[] = {
// Viva La Vida
 NOTE_REST,6857, NOTE_REST,5785, NOTE_C6,209, NOTE_REST,4, NOTE_C6,357, NOTE_REST,71, NOTE_C6,357, NOTE_REST,71,
 NOTE_C6,1178, NOTE_REST,107, NOTE_CS6,209, NOTE_REST,4, NOTE_AS5,964, NOTE_REST,321, NOTE_AS5,357, NOTE_REST,71,
 NOTE_AS5,209, NOTE_REST,4, NOTE_AS5,357, NOTE_REST,71, NOTE_AS5,209, NOTE_REST,4, NOTE_GS5,209, NOTE_REST,4,
 NOTE_C6,357, NOTE_REST,71, NOTE_DS5,209, NOTE_REST,4, NOTE_F5,424, NOTE_REST,4, NOTE_C6,209, NOTE_REST,4,
 NOTE_C6,209, NOTE_REST,4, NOTE_C6,209, NOTE_REST,4, NOTE_C6,209, NOTE_REST,4, NOTE_C6,209, NOTE_REST,4,
 NOTE_C6,357, NOTE_REST,71, NOTE_C6,1178, NOTE_REST,107, NOTE_CS6,209, NOTE_REST,4, NOTE_AS5,964, NOTE_REST,321,
 NOTE_AS5,357, NOTE_REST,71, NOTE_AS5,209, NOTE_REST,4, NOTE_AS5,357, NOTE_REST,71, NOTE_AS5,357, NOTE_REST,71,
 NOTE_AS5,357, NOTE_REST,71, NOTE_C6,209, NOTE_REST,4, NOTE_GS5,428, NOTE_G5,214, NOTE_F5,357, NOTE_REST,13571,
 NOTE_C6,209, NOTE_REST,4, NOTE_C6,357, NOTE_REST,71, NOTE_C6,357, NOTE_REST,71, NOTE_C6,1178, NOTE_REST,107,
 NOTE_CS6,209, NOTE_REST,4, NOTE_AS5,964, NOTE_REST,321, NOTE_AS5,357, NOTE_REST,71, NOTE_AS5,209, NOTE_REST,4,
 NOTE_AS5,357, NOTE_REST,71, NOTE_AS5,209, NOTE_REST,4, NOTE_GS5,209, NOTE_REST,4, NOTE_AS5,209, NOTE_REST,4,
 NOTE_AS5,209, NOTE_REST,4, NOTE_C6,209, NOTE_REST,4, NOTE_GS5,214, NOTE_G5,214, NOTE_F5,571, NOTE_REST,71,
 NOTE_C6,209, NOTE_REST,4, NOTE_C6,209, NOTE_REST,4, NOTE_C6,209, NOTE_REST,4, NOTE_C6,209, NOTE_REST,4,
 NOTE_C6,1066, NOTE_REST,4, NOTE_CS6,357, NOTE_REST,71, NOTE_AS5,964, NOTE_REST,535, NOTE_GS5,209, NOTE_REST,4,
 NOTE_GS5,209, NOTE_REST,4, NOTE_C6,209, NOTE_REST,4, NOTE_AS5,209, NOTE_REST,4, NOTE_GS5,209, NOTE_REST,4,
 NOTE_GS5,571, NOTE_REST,71, NOTE_C6,209, NOTE_REST,4, NOTE_AS5,209, NOTE_REST,4, NOTE_GS5,209, NOTE_REST,4,
 NOTE_GS5,209, NOTE_REST,218, NOTE_F6,209, NOTE_REST,4, NOTE_F6,209, NOTE_REST,4, NOTE_F6,209, NOTE_REST,4,
 NOTE_F6,357, NOTE_REST,71, NOTE_F6,1178, NOTE_REST,107, NOTE_C6,209, NOTE_REST,4, NOTE_DS6,964, NOTE_REST,535,
 NOTE_GS5,209, NOTE_REST,4, NOTE_GS5,209, NOTE_REST,4, NOTE_DS6,638, NOTE_REST,4, NOTE_C6,209, NOTE_REST,4,
 NOTE_DS6,357, NOTE_REST,71, NOTE_CS6,357, NOTE_REST,71, NOTE_C6,209, NOTE_REST,4, NOTE_C6,209, NOTE_REST,4,
 NOTE_C6,209, NOTE_REST,4, NOTE_C6,209, NOTE_REST,4, NOTE_C6,209, NOTE_REST,4, NOTE_C6,209, NOTE_REST,4,
 NOTE_C6,209, NOTE_REST,4, NOTE_C6,209, NOTE_REST,4, NOTE_C6,1066, NOTE_REST,4, NOTE_CS6,357, NOTE_REST,71,
 NOTE_AS5,1281, NOTE_REST,4, NOTE_GS5,209, NOTE_REST,4, NOTE_GS5,357, NOTE_REST,71, NOTE_B5,209, NOTE_REST,4,
 NOTE_AS5,209, NOTE_REST,4, NOTE_GS5,209, NOTE_REST,4, NOTE_GS5,571, NOTE_REST,71, NOTE_B5,209, NOTE_REST,4,
 NOTE_AS5,209, NOTE_REST,4, NOTE_GS5,209, NOTE_REST,4, NOTE_GS5,571, NOTE_REST,714, NOTE_GS5,209, NOTE_REST,4,
 NOTE_F6,357, NOTE_REST,71, NOTE_F6,357, NOTE_REST,71, NOTE_F6,209, NOTE_REST,4, NOTE_DS6,209, NOTE_REST,4,
 NOTE_F6,209, NOTE_REST,4, NOTE_DS6,424, NOTE_REST,4, NOTE_AS5,357, NOTE_REST,71, NOTE_C6,424, NOTE_REST,4,
 NOTE_CS6,571, NOTE_REST,71, NOTE_DS6,357, NOTE_REST,71, NOTE_DS6,357, NOTE_REST,71, NOTE_DS6,209, NOTE_REST,4,
 NOTE_C6,209, NOTE_REST,4, NOTE_DS6,209, NOTE_REST,4, NOTE_C6,571, NOTE_REST,71, NOTE_F5,209, NOTE_REST,4,
 NOTE_G5,424, NOTE_REST,4, NOTE_GS5,571, NOTE_REST,71, NOTE_F6,357, NOTE_REST,71, NOTE_F6,357, NOTE_REST,71,
 NOTE_F6,209, NOTE_REST,4, NOTE_DS6,209, NOTE_REST,4, NOTE_F6,209, NOTE_REST,4, NOTE_DS6,571, NOTE_REST,71,
 NOTE_AS5,209, NOTE_REST,4, NOTE_C6,428, NOTE_CS6,357, NOTE_REST,71, NOTE_GS5,209, NOTE_REST,4, NOTE_DS6,209,
 NOTE_REST,4, NOTE_C6,209, NOTE_REST,4, NOTE_DS6,357, NOTE_REST,71, NOTE_DS6,209, NOTE_REST,4, NOTE_C6,209,
 NOTE_REST,4, NOTE_DS6,209, NOTE_REST,4, NOTE_C6,424, NOTE_REST,4, NOTE_F5,357, NOTE_REST,71, NOTE_G5,428,
 NOTE_GS5,571, NOTE_REST,71, NOTE_F6,357, NOTE_REST,71, NOTE_F6,357, NOTE_REST,71, NOTE_F6,209, NOTE_REST,4,
 NOTE_DS6,209, NOTE_REST,4, NOTE_F6,209, NOTE_REST,4, NOTE_G6,424, NOTE_REST,4, NOTE_G6,357, NOTE_REST,71,
 NOTE_G6,571, NOTE_REST,499, NOTE_DS6,357, NOTE_REST,71, NOTE_DS6,357, NOTE_REST,71, NOTE_DS6,357, NOTE_REST,71,
 NOTE_DS6,209, NOTE_REST,4, NOTE_CS6,209, NOTE_REST,4, NOTE_CS6,209, NOTE_REST,4, NOTE_C6,357, NOTE_REST,285,
 NOTE_C6,209, NOTE_REST,4, NOTE_C6,209, NOTE_REST,4, NOTE_C6,209, NOTE_REST,4, NOTE_C6,1392, NOTE_REST,107,
 NOTE_CS6,209, NOTE_REST,4, NOTE_AS5,964, NOTE_REST,535, NOTE_AS5,209, NOTE_REST,4, NOTE_GS5,209, NOTE_REST,4,
 NOTE_G5,209, NOTE_REST,4, NOTE_G5,571, NOTE_REST,71, NOTE_C6,357, NOTE_REST,71, NOTE_G5,209, NOTE_REST,4,
 NOTE_GS5,1392, NOTE_REST,12749, NOTE_C6,209, NOTE_REST,4, NOTE_C6,209, NOTE_REST,4, NOTE_C6,209, NOTE_REST,4,
 NOTE_C6,357, NOTE_REST,71, NOTE_C6,357, NOTE_REST,71, NOTE_C6,1178, NOTE_REST,107, NOTE_CS6,209, NOTE_REST,4,
 NOTE_AS5,964, NOTE_REST,321, NOTE_AS5,209, NOTE_REST,4, NOTE_AS5,209, NOTE_REST,4, NOTE_GS5,209, NOTE_REST,4,
 NOTE_AS5,357, NOTE_REST,71, NOTE_AS5,209, NOTE_REST,4, NOTE_GS5,209, NOTE_REST,4, NOTE_C6,357, NOTE_REST,71,
 NOTE_DS5,209, NOTE_REST,4, NOTE_F5,571, NOTE_REST,71, NOTE_C6,209, NOTE_REST,4, NOTE_C6,209, NOTE_REST,4,
 NOTE_C6,209, NOTE_REST,4, NOTE_C6,209, NOTE_REST,4, NOTE_C6,209, NOTE_REST,4, NOTE_C6,209, NOTE_REST,4,
 NOTE_C6,1066, NOTE_REST,4, NOTE_CS6,357, NOTE_REST,71, NOTE_AS5,964, NOTE_REST,535, NOTE_GS5,209, NOTE_REST,4,
 NOTE_GS5,209, NOTE_REST,4, NOTE_C6,209, NOTE_REST,4, NOTE_AS5,209, NOTE_REST,4, NOTE_GS5,209, NOTE_REST,4,
 NOTE_GS5,571, NOTE_REST,71, NOTE_C6,209, NOTE_REST,4, NOTE_AS5,209, NOTE_REST,4, NOTE_GS5,209, NOTE_REST,4,
 NOTE_GS5,209, NOTE_REST,218, NOTE_F6,209, NOTE_REST,4, NOTE_F6,209, NOTE_REST,4, NOTE_F6,209, NOTE_REST,4,
 NOTE_F6,357, NOTE_REST,71, NOTE_F6,1178, NOTE_REST,107, NOTE_C6,209, NOTE_REST,4, NOTE_DS6,964, NOTE_REST,321,
 NOTE_DS6,357, NOTE_REST,71, NOTE_DS6,209, NOTE_REST,4, NOTE_DS6,357, NOTE_REST,71, NOTE_DS6,209, NOTE_REST,4,
 NOTE_C6,209, NOTE_REST,4, NOTE_DS6,357, NOTE_REST,71, NOTE_CS6,209, NOTE_REST,4, NOTE_C6,424, NOTE_REST,4,
 NOTE_C6,209, NOTE_REST,4, NOTE_C6,209, NOTE_REST,4, NOTE_C6,209, NOTE_REST,4, NOTE_C6,209, NOTE_REST,4,
 NOTE_C6,209, NOTE_REST,4, NOTE_C6,209, NOTE_REST,4, NOTE_C6,209, NOTE_REST,4, NOTE_C6,1066, NOTE_REST,4,
 NOTE_CS6,357, NOTE_REST,71, NOTE_AS5,1281, NOTE_REST,4, NOTE_GS5,209, NOTE_REST,4, NOTE_GS5,357, NOTE_REST,71,
 NOTE_B5,209, NOTE_REST,4, NOTE_AS5,209, NOTE_REST,4, NOTE_GS5,209, NOTE_REST,4, NOTE_GS5,209, NOTE_REST,4,
 NOTE_GS5,209, NOTE_REST,4, NOTE_GS5,209, NOTE_REST,4, NOTE_F5,209, NOTE_REST,4, NOTE_GS5,428, NOTE_GS5,571,
 NOTE_REST,714, NOTE_GS5,209, NOTE_REST,4, NOTE_F6,357, NOTE_REST,71, NOTE_F6,357, NOTE_REST,71, NOTE_F6,209,
 NOTE_REST,4, NOTE_DS6,209, NOTE_REST,4, NOTE_F6,209, NOTE_REST,4, NOTE_DS6,424, NOTE_REST,4, NOTE_AS5,357,
 NOTE_REST,71, NOTE_C6,424, NOTE_REST,4, NOTE_CS6,571, NOTE_REST,71, NOTE_DS6,357, NOTE_REST,71, NOTE_DS6,357,
 NOTE_REST,71, NOTE_DS6,209, NOTE_REST,4, NOTE_C6,209, NOTE_REST,4, NOTE_DS6,209, NOTE_REST,4, NOTE_C6,571,
 NOTE_REST,71, NOTE_F5,209, NOTE_REST,4, NOTE_G5,424, NOTE_REST,4, NOTE_GS5,571, NOTE_REST,71, NOTE_F6,357,
 NOTE_REST,71, NOTE_F6,357, NOTE_REST,71, NOTE_F6,209, NOTE_REST,4, NOTE_DS6,209, NOTE_REST,4, NOTE_F6,209,
 NOTE_REST,4, NOTE_DS6,571, NOTE_REST,71, NOTE_AS5,209, NOTE_REST,4, NOTE_C6,428, NOTE_CS6,357, NOTE_REST,71,
 NOTE_GS5,209, NOTE_REST,4, NOTE_DS6,209, NOTE_REST,4, NOTE_C6,209, NOTE_REST,4, NOTE_DS6,357, NOTE_REST,71,
 NOTE_DS6,209, NOTE_REST,4, NOTE_C6,209, NOTE_REST,4, NOTE_DS6,209, NOTE_REST,4, NOTE_C6,424, NOTE_REST,4,
 NOTE_F5,357, NOTE_REST,71, NOTE_G5,428, NOTE_GS5,571, NOTE_REST,71, NOTE_F6,357, NOTE_REST,71, NOTE_F6,357,
 NOTE_REST,71, NOTE_F6,209, NOTE_REST,4, NOTE_DS6,209, NOTE_REST,4, NOTE_F6,209, NOTE_REST,4, NOTE_G6,424,
 NOTE_REST,4, NOTE_G6,357, NOTE_REST,71, NOTE_G6,571, NOTE_REST,285, NOTE_DS6,209, NOTE_REST,4, NOTE_DS6,357,
 NOTE_REST,71, NOTE_DS6,357, NOTE_REST,71, NOTE_DS6,209, NOTE_REST,4, NOTE_CS6,209, NOTE_REST,4, NOTE_CS6,209,
 NOTE_REST,4, NOTE_CS6,424, NOTE_REST,4, NOTE_C6,357, NOTE_REST,71, NOTE_C6,571, NOTE_REST,71, NOTE_C6,209,
 NOTE_REST,4, NOTE_C6,209, NOTE_REST,4, NOTE_C6,209, NOTE_REST,4, NOTE_C6,214, NOTE_C6,749, NOTE_REST,107,
 NOTE_CS6,209, NOTE_REST,4, NOTE_AS5,964, NOTE_REST,535, NOTE_AS5,209, NOTE_REST,4, NOTE_GS5,209, NOTE_REST,4,
 NOTE_G5,209, NOTE_REST,4, NOTE_G5,571, NOTE_REST,71, NOTE_C6,357, NOTE_REST,71, NOTE_G5,209, NOTE_REST,4,
 NOTE_GS5,1392, NOTE_REST,27964, NOTE_F6,357, NOTE_REST,71, NOTE_F6,357, NOTE_REST,71, NOTE_F6,209, NOTE_REST,4,
 NOTE_DS6,209, NOTE_REST,4, NOTE_F6,209, NOTE_REST,4, NOTE_DS6,424, NOTE_REST,4, NOTE_AS5,357, NOTE_REST,71,
 NOTE_C6,424, NOTE_REST,4, NOTE_CS6,571, NOTE_REST,71, NOTE_DS6,357, NOTE_REST,71, NOTE_DS6,357, NOTE_REST,71,
 NOTE_DS6,209, NOTE_REST,4, NOTE_C6,209, NOTE_REST,4, NOTE_DS6,209, NOTE_REST,4, NOTE_C6,424, NOTE_REST,4,
 NOTE_F5,357, NOTE_REST,71, NOTE_G5,424, NOTE_REST,4, NOTE_GS5,571, NOTE_REST,71, NOTE_F6,357, NOTE_REST,71,
 NOTE_F6,357, NOTE_REST,71, NOTE_F6,209, NOTE_REST,4, NOTE_DS6,209, NOTE_REST,4, NOTE_F6,209, NOTE_REST,4,
 NOTE_DS6,424, NOTE_REST,4, NOTE_AS5,357, NOTE_REST,71, NOTE_C6,428, NOTE_CS6,357, NOTE_REST,71, NOTE_GS5,209,
 NOTE_REST,4, NOTE_DS6,209, NOTE_REST,4, NOTE_C6,209, NOTE_REST,4, NOTE_DS6,357, NOTE_REST,71, NOTE_DS6,209,
 NOTE_REST,4, NOTE_C6,209, NOTE_REST,4, NOTE_DS6,209, NOTE_REST,4, NOTE_C6,424, NOTE_REST,4, NOTE_F5,357,
 NOTE_REST,71, NOTE_G5,428, NOTE_GS5,571, NOTE_REST,71, NOTE_F6,357, NOTE_REST,71, NOTE_F6,357, NOTE_REST,71,
 NOTE_F6,209, NOTE_REST,4, NOTE_DS6,209, NOTE_REST,4, NOTE_F6,209, NOTE_REST,4, NOTE_G6,424, NOTE_REST,4,
 NOTE_G6,357, NOTE_REST,71, NOTE_G6,571, NOTE_REST,285, NOTE_DS6,209, NOTE_REST,4, NOTE_DS6,357, NOTE_REST,71,
 NOTE_DS6,357, NOTE_REST,71, NOTE_DS6,209, NOTE_REST,4, NOTE_DS6,209, NOTE_REST,4, NOTE_CS6,209, NOTE_REST,4,
 NOTE_CS6,424, NOTE_REST,4, NOTE_C6,357, NOTE_REST,71, NOTE_C6,571, NOTE_REST,71, NOTE_C6,209, NOTE_REST,4,
 NOTE_C6,209, NOTE_REST,4, NOTE_C6,209, NOTE_REST,4, NOTE_C6,964, NOTE_REST,107, NOTE_CS6,209, NOTE_REST,4,
 NOTE_AS5,964, NOTE_REST,321, NOTE_AS5,209, NOTE_REST,4, NOTE_AS5,209, NOTE_REST,4, NOTE_GS5,209, NOTE_REST,4,
 NOTE_G5,209, NOTE_REST,4, NOTE_G5,571, NOTE_REST,71, NOTE_C6,357, NOTE_REST,71, NOTE_G5,209, NOTE_REST,4,
 NOTE_GS5,1392, NOTE_REST,535, NOTE_C6,1714, NOTE_CS6,1714, NOTE_C6,1285, NOTE_AS5,214, NOTE_C6,428, NOTE_REST,1499,
 NOTE_C6,1714, NOTE_CS6,1714, NOTE_C6,1285, NOTE_AS5,214, NOTE_C6,428, NOTE_REST,1499, NOTE_C6,1714, NOTE_CS6,1714,
 NOTE_C6,1285, NOTE_AS5,214, NOTE_C6,424,
 0, 1, -1, -1
};
// This score contains 3054 bytes.
