// ArduboyTones stream for file "VivaLaVida.mid" created by MIDI2TONES V1.0.0 on Mon Dec 09 23:43:42 2019
// command line: C:\Users\cnorf\Downloads\midi2tones-master\midi2tones_64bit.exe -o2 -c8 VivaLaVida 
//   From channel 3
const int score3[] = {
// Viva La Vida
 NOTE_REST,6857, NOTE_REST,20571, NOTE_GS5,1178, NOTE_REST,107, NOTE_GS5,209, NOTE_REST,4, NOTE_G5,1821, NOTE_REST,107,
 NOTE_GS5,1178, NOTE_REST,107, NOTE_GS5,209, NOTE_REST,4, NOTE_G5,1821, NOTE_REST,107, NOTE_GS5,1178, NOTE_REST,107,
 NOTE_GS5,209, NOTE_REST,4, NOTE_G5,1821, NOTE_REST,107, NOTE_GS5,1178, NOTE_REST,107, NOTE_GS5,209, NOTE_REST,4,
 NOTE_G5,964, NOTE_REST,107, NOTE_GS5,209, NOTE_REST,4, NOTE_G5,209, NOTE_REST,4, NOTE_F5,209, NOTE_REST,4,
 NOTE_DS5,209, NOTE_REST,4, NOTE_F5,1607, NOTE_REST,107, NOTE_DS5,749, NOTE_REST,107, NOTE_GS5,209, NOTE_REST,4,
 NOTE_G5,209, NOTE_REST,4, NOTE_DS5,209, NOTE_REST,4, NOTE_C5,209, NOTE_REST,4, NOTE_DS5,1495, NOTE_REST,4,
 NOTE_C5,964, NOTE_REST,107, NOTE_GS5,209, NOTE_REST,4, NOTE_G5,209, NOTE_REST,4, NOTE_F5,209, NOTE_REST,4,
 NOTE_DS5,209, NOTE_REST,4, NOTE_F5,1607, NOTE_REST,107, NOTE_DS5,749, NOTE_REST,107, NOTE_GS5,209, NOTE_REST,4,
 NOTE_G5,209, NOTE_REST,4, NOTE_DS5,209, NOTE_REST,4, NOTE_C5,209, NOTE_REST,4, NOTE_DS5,1495, NOTE_REST,4,
 NOTE_C5,1821, NOTE_REST,107, NOTE_GS5,357, NOTE_REST,71, NOTE_AS5,209, NOTE_REST,4, NOTE_GS5,571, NOTE_REST,71,
 NOTE_AS5,209, NOTE_REST,4, NOTE_GS5,571, NOTE_REST,71, NOTE_AS5,209, NOTE_REST,4, NOTE_GS5,964, NOTE_REST,107,
 NOTE_AS5,357, NOTE_REST,71, NOTE_C6,209, NOTE_REST,4, NOTE_AS5,571, NOTE_REST,71, NOTE_C6,209, NOTE_REST,4,
 NOTE_AS5,964, NOTE_REST,107, NOTE_GS5,209, NOTE_REST,4, NOTE_G5,209, NOTE_REST,4, NOTE_F5,209, NOTE_REST,4,
 NOTE_DS5,209, NOTE_REST,4, NOTE_F5,1607, NOTE_REST,107, NOTE_DS5,749, NOTE_REST,107, NOTE_GS5,209, NOTE_REST,4,
 NOTE_G5,209, NOTE_REST,4, NOTE_DS5,209, NOTE_REST,4, NOTE_C5,209, NOTE_REST,4, NOTE_DS5,1495, NOTE_REST,4,
 NOTE_F5,1392, NOTE_REST,107, NOTE_GS5,357, NOTE_REST,71, NOTE_F6,357, NOTE_REST,71, NOTE_GS5,357, NOTE_REST,71,
 NOTE_F6,209, NOTE_REST,4, NOTE_DS6,209, NOTE_REST,4, NOTE_GS5,209, NOTE_REST,4, NOTE_DS6,424, NOTE_REST,4,
 NOTE_AS5,214, NOTE_AS5,209, NOTE_REST,4, NOTE_C6,424, NOTE_REST,4, NOTE_CS6,214, NOTE_CS6,357, NOTE_REST,71,
 NOTE_C6,357, NOTE_REST,71, NOTE_GS5,357, NOTE_REST,71, NOTE_DS6,209, NOTE_REST,4, NOTE_C6,209, NOTE_REST,4,
 NOTE_GS5,209, NOTE_REST,4, NOTE_F5,571, NOTE_REST,71, NOTE_C5,209, NOTE_REST,4, NOTE_C5,424, NOTE_REST,4,
 NOTE_C5,571, NOTE_REST,71, NOTE_F6,357, NOTE_REST,71, NOTE_GS5,357, NOTE_REST,71, NOTE_F6,209, NOTE_REST,4,
 NOTE_DS6,209, NOTE_REST,4, NOTE_GS5,209, NOTE_REST,4, NOTE_DS6,571, NOTE_REST,71, NOTE_GS5,209, NOTE_REST,4,
 NOTE_C6,424, NOTE_REST,4, NOTE_CS6,214, NOTE_CS6,357, NOTE_REST,71, NOTE_DS6,209, NOTE_REST,4, NOTE_C6,209,
 NOTE_REST,4, NOTE_GS5,357, NOTE_GS5,71, NOTE_GS5,209, NOTE_REST,4, NOTE_C6,209, NOTE_REST,4, NOTE_GS5,209,
 NOTE_REST,4, NOTE_F5,424, NOTE_REST,4, NOTE_C5,357, NOTE_REST,71, NOTE_C5,424, NOTE_REST,4, NOTE_C5,571,
 NOTE_REST,71, NOTE_F6,357, NOTE_REST,71, NOTE_GS5,357, NOTE_REST,71, NOTE_F6,209, NOTE_REST,4, NOTE_DS6,209,
 NOTE_REST,4, NOTE_GS5,209, NOTE_REST,4, NOTE_DS6,424, NOTE_REST,4, NOTE_DS6,357, NOTE_REST,71, NOTE_DS6,964,
 NOTE_REST,107, NOTE_DS5,357, NOTE_REST,71, NOTE_DS5,357, NOTE_REST,71, NOTE_DS5,357, NOTE_REST,71, NOTE_GS5,209,
 NOTE_REST,4, NOTE_CS6,209, NOTE_REST,4, NOTE_F5,209, NOTE_REST,4, NOTE_C6,214, NOTE_C6,357, NOTE_REST,71,
 NOTE_C6,357, NOTE_REST,71, NOTE_GS5,357, NOTE_REST,71, NOTE_F5,428, NOTE_F5,749, NOTE_REST,107, NOTE_F5,209,
 NOTE_REST,4, NOTE_AS5,214, NOTE_AS5,428, NOTE_AS5,749, NOTE_REST,107, NOTE_AS5,209, NOTE_REST,4, NOTE_GS5,209,
 NOTE_REST,4, NOTE_G5,209, NOTE_REST,4, NOTE_G5,214, NOTE_G5,357, NOTE_REST,71, NOTE_C6,357, NOTE_REST,71,
 NOTE_C5,209, NOTE_REST,4, NOTE_C5,1392, NOTE_REST,1392, NOTE_C6,209, NOTE_REST,4, NOTE_F5,357, NOTE_REST,71,
 NOTE_F5,424, NOTE_REST,4, NOTE_F5,357, NOTE_REST,71, NOTE_F5,424, NOTE_REST,4, NOTE_F5,357, NOTE_REST,71,
 NOTE_F5,1392, NOTE_REST,107, NOTE_F5,785, NOTE_REST,71, NOTE_DS5,1178, NOTE_REST,964, NOTE_C6,209, NOTE_REST,4,
 NOTE_F5,357, NOTE_REST,71, NOTE_F5,424, NOTE_REST,4, NOTE_F5,357, NOTE_REST,71, NOTE_F5,424, NOTE_REST,4,
 NOTE_F5,357, NOTE_REST,71, NOTE_F5,1281, NOTE_REST,4, NOTE_DS5,209, NOTE_REST,4, NOTE_DS5,209, NOTE_REST,4,
 NOTE_DS5,209, NOTE_REST,861, NOTE_GS5,209, NOTE_REST,4, NOTE_G5,209, NOTE_REST,4, NOTE_F5,209, NOTE_REST,4,
 NOTE_DS5,209, NOTE_REST,4, NOTE_F5,1607, NOTE_REST,107, NOTE_DS5,749, NOTE_REST,107, NOTE_GS5,209, NOTE_REST,4,
 NOTE_G5,209, NOTE_REST,4, NOTE_DS5,209, NOTE_REST,4, NOTE_C5,209, NOTE_REST,4, NOTE_DS5,1495, NOTE_REST,4,
 NOTE_C5,964, NOTE_REST,107, NOTE_GS5,209, NOTE_REST,4, NOTE_G5,209, NOTE_REST,4, NOTE_F5,209, NOTE_REST,4,
 NOTE_DS5,209, NOTE_REST,4, NOTE_F5,1607, NOTE_REST,107, NOTE_DS5,749, NOTE_REST,107, NOTE_GS5,209, NOTE_REST,4,
 NOTE_G5,209, NOTE_REST,4, NOTE_DS5,209, NOTE_REST,4, NOTE_C5,209, NOTE_REST,4, NOTE_DS5,1495, NOTE_REST,4,
 NOTE_C5,1821, NOTE_REST,107, NOTE_GS5,357, NOTE_REST,71, NOTE_AS5,209, NOTE_REST,4, NOTE_GS5,571, NOTE_REST,71,
 NOTE_AS5,209, NOTE_REST,4, NOTE_GS5,571, NOTE_REST,71, NOTE_AS5,209, NOTE_REST,4, NOTE_GS5,964, NOTE_REST,107,
 NOTE_AS5,357, NOTE_REST,71, NOTE_C6,209, NOTE_REST,4, NOTE_AS5,571, NOTE_REST,71, NOTE_C6,209, NOTE_REST,4,
 NOTE_AS5,964, NOTE_REST,107, NOTE_GS5,209, NOTE_REST,4, NOTE_G5,209, NOTE_REST,4, NOTE_F5,209, NOTE_REST,4,
 NOTE_DS5,209, NOTE_REST,4, NOTE_F5,1607, NOTE_REST,107, NOTE_DS5,749, NOTE_REST,107, NOTE_GS5,209, NOTE_REST,4,
 NOTE_G5,209, NOTE_REST,4, NOTE_DS5,209, NOTE_REST,4, NOTE_C5,209, NOTE_REST,4, NOTE_DS5,1495, NOTE_REST,4,
 NOTE_F5,1392, NOTE_REST,107, NOTE_GS5,357, NOTE_REST,71, NOTE_F6,357, NOTE_REST,71, NOTE_GS5,357, NOTE_REST,71,
 NOTE_F6,209, NOTE_REST,4, NOTE_DS6,209, NOTE_REST,4, NOTE_GS5,209, NOTE_REST,4, NOTE_DS6,424, NOTE_REST,4,
 NOTE_AS5,214, NOTE_AS5,209, NOTE_REST,4, NOTE_C6,424, NOTE_REST,4, NOTE_CS6,214, NOTE_CS6,357, NOTE_REST,71,
 NOTE_C6,357, NOTE_REST,71, NOTE_GS5,357, NOTE_REST,71, NOTE_DS6,209, NOTE_REST,4, NOTE_C6,209, NOTE_REST,4,
 NOTE_GS5,209, NOTE_REST,4, NOTE_F5,571, NOTE_REST,71, NOTE_C5,209, NOTE_REST,4, NOTE_C5,424, NOTE_REST,4,
 NOTE_C5,571, NOTE_REST,71, NOTE_F6,357, NOTE_REST,71, NOTE_GS5,357, NOTE_REST,71, NOTE_F6,209, NOTE_REST,4,
 NOTE_DS6,209, NOTE_REST,4, NOTE_GS5,209, NOTE_REST,4, NOTE_DS6,571, NOTE_REST,71, NOTE_GS5,209, NOTE_REST,4,
 NOTE_C6,424, NOTE_REST,4, NOTE_CS6,214, NOTE_CS6,357, NOTE_REST,71, NOTE_DS6,209, NOTE_REST,4, NOTE_C6,209,
 NOTE_REST,4, NOTE_GS5,357, NOTE_GS5,71, NOTE_GS5,209, NOTE_REST,4, NOTE_C6,209, NOTE_REST,4, NOTE_GS5,209,
 NOTE_REST,4, NOTE_F5,424, NOTE_REST,4, NOTE_C5,357, NOTE_REST,71, NOTE_C5,424, NOTE_REST,4, NOTE_C5,571,
 NOTE_REST,71, NOTE_F6,357, NOTE_REST,71, NOTE_GS5,357, NOTE_REST,71, NOTE_F6,209, NOTE_REST,4, NOTE_DS6,209,
 NOTE_REST,4, NOTE_GS5,209, NOTE_REST,4, NOTE_DS6,424, NOTE_REST,4, NOTE_DS6,357, NOTE_REST,71, NOTE_DS6,964,
 NOTE_REST,107, NOTE_DS5,357, NOTE_REST,71, NOTE_DS5,357, NOTE_REST,71, NOTE_DS5,357, NOTE_REST,71, NOTE_GS5,209,
 NOTE_REST,4, NOTE_CS6,209, NOTE_REST,4, NOTE_F5,209, NOTE_REST,4, NOTE_C6,214, NOTE_C6,357, NOTE_REST,71,
 NOTE_C6,357, NOTE_REST,71, NOTE_GS5,357, NOTE_REST,71, NOTE_F5,428, NOTE_F5,749, NOTE_REST,107, NOTE_F5,209,
 NOTE_REST,4, NOTE_AS5,214, NOTE_AS5,428, NOTE_AS5,749, NOTE_REST,107, NOTE_AS5,209, NOTE_REST,4, NOTE_GS5,209,
 NOTE_REST,4, NOTE_G5,209, NOTE_REST,4, NOTE_G5,214, NOTE_G5,357, NOTE_REST,71, NOTE_C6,357, NOTE_REST,71,
 NOTE_C5,209, NOTE_REST,4, NOTE_C5,1392, NOTE_REST,535, NOTE_F5,357, NOTE_REST,71, NOTE_F5,357, NOTE_REST,71,
 NOTE_F5,357, NOTE_REST,71, NOTE_F5,209, NOTE_REST,4, NOTE_F5,424, NOTE_REST,4, NOTE_F5,357, NOTE_REST,71,
 NOTE_F5,209, NOTE_REST,4, NOTE_F5,357, NOTE_REST,71, NOTE_F5,357, NOTE_REST,71, NOTE_F5,357, NOTE_REST,71,
 NOTE_F5,357, NOTE_REST,71, NOTE_F5,357, NOTE_REST,71, NOTE_F5,209, NOTE_REST,4, NOTE_F5,424, NOTE_REST,4,
 NOTE_F5,357, NOTE_REST,71, NOTE_F5,209, NOTE_REST,4, NOTE_F5,357, NOTE_REST,71, NOTE_F5,357, NOTE_REST,71,
 NOTE_CS5,1607, NOTE_REST,107, NOTE_C5,1607, NOTE_REST,321, NOTE_GS5,357, NOTE_REST,71, NOTE_GS5,209, NOTE_REST,4,
 NOTE_GS5,357, NOTE_REST,71, NOTE_GS5,357, NOTE_REST,285, NOTE_GS5,357, NOTE_REST,71, NOTE_GS5,209, NOTE_REST,4,
 NOTE_GS5,357, NOTE_REST,71, NOTE_GS5,357, NOTE_REST,71, NOTE_CS5,357, NOTE_REST,71, NOTE_CS5,357, NOTE_REST,71,
 NOTE_CS5,357, NOTE_REST,71, NOTE_CS5,209, NOTE_REST,4, NOTE_CS5,424, NOTE_REST,4, NOTE_CS5,357, NOTE_REST,71,
 NOTE_CS5,209, NOTE_REST,4, NOTE_CS5,357, NOTE_REST,71, NOTE_CS5,321, NOTE_CS5,35, NOTE_REST,71, NOTE_C5,357,
 NOTE_REST,71, NOTE_C5,357, NOTE_REST,71, NOTE_C5,357, NOTE_REST,71, NOTE_C5,209, NOTE_C5,4, NOTE_C5,142,
 NOTE_REST,281, NOTE_REST,4, NOTE_GS4,357, NOTE_REST,71, NOTE_GS4,209, NOTE_REST,4, NOTE_GS4,357, NOTE_REST,71,
 NOTE_GS4,321, NOTE_GS4,35, NOTE_REST,71, NOTE_CS5,357, NOTE_REST,71, NOTE_CS5,357, NOTE_REST,71, NOTE_CS5,357,
 NOTE_REST,71, NOTE_CS5,209, NOTE_REST,4, NOTE_CS5,424, NOTE_REST,4, NOTE_CS5,357, NOTE_REST,71, NOTE_CS5,209,
 NOTE_REST,4, NOTE_CS5,357, NOTE_REST,71, NOTE_CS5,321, NOTE_CS5,35, NOTE_REST,71, NOTE_C5,357, NOTE_REST,71,
 NOTE_C5,357, NOTE_REST,71, NOTE_C5,357, NOTE_REST,71, NOTE_C5,209, NOTE_C5,4, NOTE_C5,142, NOTE_REST,281,
 NOTE_REST,4, NOTE_GS4,357, NOTE_REST,71, NOTE_GS4,209, NOTE_REST,4, NOTE_GS4,357, NOTE_REST,71, NOTE_GS4,321,
 NOTE_GS4,35, NOTE_REST,71, NOTE_F6,1178, NOTE_REST,107, NOTE_F6,209, NOTE_REST,4, NOTE_DS6,209, NOTE_REST,4,
 NOTE_C6,214, NOTE_DS6,214, NOTE_GS6,642, NOTE_REST,214, NOTE_G6,214, NOTE_DS6,1714, NOTE_C6,209, NOTE_REST,4,
 NOTE_F5,357, NOTE_REST,71, NOTE_C5,209, NOTE_REST,4, NOTE_C5,424, NOTE_REST,4, NOTE_C5,571, NOTE_REST,71,
 NOTE_F6,357, NOTE_REST,71, NOTE_GS5,357, NOTE_REST,71, NOTE_F6,209, NOTE_REST,4, NOTE_DS6,209, NOTE_REST,4,
 NOTE_GS5,209, NOTE_REST,4, NOTE_DS6,571, NOTE_REST,71, NOTE_GS5,209, NOTE_REST,4, NOTE_C6,424, NOTE_REST,4,
 NOTE_CS6,214, NOTE_CS6,357, NOTE_REST,71, NOTE_DS6,209, NOTE_REST,4, NOTE_C6,209, NOTE_REST,4, NOTE_GS5,357,
 NOTE_REST,71, NOTE_DS6,209, NOTE_REST,4, NOTE_C6,209, NOTE_REST,4, NOTE_GS5,209, NOTE_REST,4, NOTE_F5,424,
 NOTE_REST,4, NOTE_C5,357, NOTE_REST,71, NOTE_C5,424, NOTE_REST,4, NOTE_C5,571, NOTE_REST,71, NOTE_F6,357,
 NOTE_REST,71, NOTE_GS5,357, NOTE_REST,71, NOTE_F6,209, NOTE_REST,4, NOTE_DS6,209, NOTE_REST,4, NOTE_GS5,209,
 NOTE_REST,4, NOTE_DS6,424, NOTE_REST,4, NOTE_DS6,357, NOTE_REST,71, NOTE_DS6,964, NOTE_REST,107, NOTE_C6,357,
 NOTE_REST,71, NOTE_GS5,357, NOTE_REST,71, NOTE_C6,357, NOTE_REST,71, NOTE_GS5,209, NOTE_REST,4, NOTE_CS6,214,
 NOTE_CS6,209, NOTE_REST,4, NOTE_C6,214, NOTE_C6,357, NOTE_REST,71, NOTE_C6,357, NOTE_REST,71, NOTE_AS5,357,
 NOTE_REST,71, NOTE_C6,1495, NOTE_REST,4, NOTE_AS5,214, NOTE_AS5,749, NOTE_AS5,316, NOTE_REST,4, NOTE_F6,209,
 NOTE_REST,4, NOTE_DS6,209, NOTE_REST,4, NOTE_CS6,209, NOTE_REST,4, NOTE_C6,749, NOTE_REST,107, NOTE_G5,571,
 NOTE_REST,71, NOTE_GS5,1821, NOTE_REST,107, NOTE_F5,1714, NOTE_G5,1714, NOTE_DS5,1285, NOTE_DS5,214, NOTE_DS5,107,
 NOTE_REST,107, NOTE_F5,1714, NOTE_F5,1714, NOTE_G5,1714, NOTE_DS5,1285, NOTE_DS5,214, NOTE_DS5,107, NOTE_REST,107,
 NOTE_F5,1714, NOTE_F5,1714, NOTE_G5,1714, NOTE_DS5,1285, NOTE_DS5,214, NOTE_DS5,107, NOTE_REST,107, NOTE_F5,1714,
 0, 1, -1, -1
};
// This score contains 3202 bytes.
// 258 notes had to be skipped.
