// ArduboyTones stream for file "VivaLaVida.mid" created by MIDI2TONES V1.0.0 on Mon Dec 09 23:41:57 2019
// command line: C:\Users\cnorf\Downloads\midi2tones-master\midi2tones_64bit.exe -o2 -c2 VivaLaVida 
//   From channel 1
const int score1[] = {
// Viva La Vida
 NOTE_CS3,107, NOTE_REST,321, NOTE_CS3,107, NOTE_REST,321, NOTE_CS3,107, NOTE_REST,321, NOTE_CS3,71, NOTE_REST,142,
 NOTE_DS3,285, NOTE_REST,142, NOTE_DS3,107, NOTE_REST,321, NOTE_DS3,71, NOTE_REST,142, NOTE_DS3,107, NOTE_REST,321,
 NOTE_DS3,107, NOTE_REST,321, NOTE_GS3,107, NOTE_REST,321, NOTE_GS3,107, NOTE_REST,321, NOTE_GS3,107, NOTE_REST,321,
 NOTE_GS3,71, NOTE_REST,142, NOTE_F3,285, NOTE_REST,142, NOTE_F3,107, NOTE_REST,321, NOTE_F3,71, NOTE_REST,142,
 NOTE_F3,107, NOTE_REST,321, NOTE_F3,107, NOTE_REST,321, NOTE_CS3,107, NOTE_REST,321, NOTE_CS3,107, NOTE_REST,321,
 NOTE_CS3,107, NOTE_REST,321, NOTE_CS3,71, NOTE_REST,142, NOTE_DS3,285, NOTE_REST,142, NOTE_DS3,107, NOTE_REST,321,
 NOTE_DS3,71, NOTE_REST,142, NOTE_DS3,107, NOTE_REST,321, NOTE_DS3,107, NOTE_REST,321, NOTE_GS3,107, NOTE_REST,321,
 NOTE_GS3,107, NOTE_REST,321, NOTE_GS3,107, NOTE_REST,321, NOTE_GS3,71, NOTE_REST,142, NOTE_F3,424, NOTE_REST,4,
 NOTE_F3,357, NOTE_REST,71, NOTE_F3,209, NOTE_REST,4, NOTE_F3,357, NOTE_REST,71, NOTE_F3,357, NOTE_REST,71,
 NOTE_CS3,357, NOTE_REST,71, NOTE_CS3,357, NOTE_REST,71, NOTE_CS3,357, NOTE_REST,71, NOTE_CS3,209, NOTE_REST,4,
 NOTE_DS3,424, NOTE_REST,4, NOTE_DS3,357, NOTE_REST,71, NOTE_DS3,209, NOTE_REST,4, NOTE_DS3,357, NOTE_REST,71,
 NOTE_DS3,357, NOTE_REST,71, NOTE_GS3,357, NOTE_REST,71, NOTE_GS3,357, NOTE_REST,71, NOTE_GS3,357, NOTE_REST,71,
 NOTE_GS3,209, NOTE_REST,4, NOTE_F3,424, NOTE_REST,4, NOTE_F3,357, NOTE_REST,71, NOTE_F3,209, NOTE_REST,4,
 NOTE_F3,357, NOTE_REST,71, NOTE_F3,357, NOTE_REST,71, NOTE_CS3,357, NOTE_REST,71, NOTE_CS3,357, NOTE_REST,71,
 NOTE_CS3,357, NOTE_REST,71, NOTE_CS3,209, NOTE_REST,4, NOTE_DS3,424, NOTE_REST,4, NOTE_DS3,357, NOTE_REST,71,
 NOTE_DS3,209, NOTE_REST,4, NOTE_DS3,357, NOTE_REST,71, NOTE_DS3,357, NOTE_REST,71, NOTE_GS3,357, NOTE_REST,71,
 NOTE_GS3,357, NOTE_REST,71, NOTE_GS3,357, NOTE_REST,71, NOTE_GS3,209, NOTE_REST,4, NOTE_F3,424, NOTE_REST,4,
 NOTE_F3,357, NOTE_REST,71, NOTE_F3,209, NOTE_REST,4, NOTE_F3,357, NOTE_REST,71, NOTE_F3,357, NOTE_REST,71,
 NOTE_CS3,357, NOTE_REST,71, NOTE_CS3,357, NOTE_REST,71, NOTE_CS3,357, NOTE_REST,71, NOTE_CS3,209, NOTE_REST,4,
 NOTE_DS3,424, NOTE_REST,4, NOTE_DS3,357, NOTE_REST,71, NOTE_DS3,209, NOTE_REST,4, NOTE_DS3,357, NOTE_REST,71,
 NOTE_DS3,357, NOTE_REST,71, NOTE_GS3,357, NOTE_REST,71, NOTE_GS3,357, NOTE_REST,71, NOTE_GS3,357, NOTE_REST,71,
 NOTE_GS3,209, NOTE_REST,4, NOTE_F3,424, NOTE_REST,4, NOTE_F3,357, NOTE_REST,71, NOTE_F3,209, NOTE_REST,4,
 NOTE_F3,357, NOTE_REST,71, NOTE_F3,357, NOTE_REST,71, NOTE_CS3,357, NOTE_REST,71, NOTE_CS3,357, NOTE_REST,71,
 NOTE_CS3,357, NOTE_REST,71, NOTE_CS3,209, NOTE_REST,4, NOTE_DS3,424, NOTE_REST,4, NOTE_DS3,357, NOTE_REST,71,
 NOTE_DS3,209, NOTE_REST,4, NOTE_DS3,357, NOTE_REST,71, NOTE_DS3,357, NOTE_REST,71, NOTE_GS3,357, NOTE_REST,71,
 NOTE_GS3,357, NOTE_REST,71, NOTE_GS3,357, NOTE_REST,71, NOTE_GS3,209, NOTE_REST,4, NOTE_F3,214, NOTE_F3,209,
 NOTE_REST,4, NOTE_F3,357, NOTE_REST,71, NOTE_F3,209, NOTE_REST,4, NOTE_F3,357, NOTE_REST,71, NOTE_F3,357,
 NOTE_REST,71, NOTE_CS3,357, NOTE_REST,71, NOTE_CS3,357, NOTE_REST,71, NOTE_CS3,357, NOTE_REST,71, NOTE_CS3,209,
 NOTE_REST,4, NOTE_DS3,424, NOTE_REST,4, NOTE_DS3,357, NOTE_REST,71, NOTE_DS3,209, NOTE_REST,4, NOTE_DS3,357,
 NOTE_REST,71, NOTE_DS3,357, NOTE_REST,71, NOTE_GS3,357, NOTE_REST,71, NOTE_GS3,357, NOTE_REST,71, NOTE_GS3,357,
 NOTE_REST,71, NOTE_GS3,209, NOTE_REST,4, NOTE_F3,424, NOTE_REST,4, NOTE_F3,357, NOTE_REST,71, NOTE_F3,209,
 NOTE_REST,4, NOTE_F3,357, NOTE_REST,71, NOTE_F3,357, NOTE_REST,71, NOTE_CS3,357, NOTE_REST,71, NOTE_CS3,357,
 NOTE_REST,71, NOTE_CS3,357, NOTE_REST,71, NOTE_CS3,209, NOTE_REST,4, NOTE_DS3,424, NOTE_REST,4, NOTE_DS3,357,
 NOTE_REST,71, NOTE_DS3,209, NOTE_REST,4, NOTE_DS3,357, NOTE_REST,71, NOTE_DS3,357, NOTE_REST,71, NOTE_GS3,357,
 NOTE_REST,71, NOTE_GS3,357, NOTE_REST,71, NOTE_GS3,357, NOTE_REST,71, NOTE_GS3,209, NOTE_REST,4, NOTE_F3,424,
 NOTE_REST,4, NOTE_F3,357, NOTE_REST,71, NOTE_F3,209, NOTE_REST,4, NOTE_F3,357, NOTE_REST,71, NOTE_F3,357,
 NOTE_REST,71, NOTE_CS3,357, NOTE_REST,71, NOTE_CS3,357, NOTE_REST,71, NOTE_CS3,357, NOTE_REST,71, NOTE_CS3,209,
 NOTE_REST,4, NOTE_DS3,424, NOTE_REST,4, NOTE_DS3,357, NOTE_REST,71, NOTE_DS3,209, NOTE_REST,4, NOTE_DS3,357,
 NOTE_REST,71, NOTE_DS3,357, NOTE_REST,71, NOTE_GS3,357, NOTE_REST,71, NOTE_GS3,357, NOTE_REST,71, NOTE_GS3,357,
 NOTE_REST,71, NOTE_GS3,209, NOTE_REST,4, NOTE_F3,424, NOTE_REST,4, NOTE_F3,357, NOTE_REST,71, NOTE_F3,209,
 NOTE_REST,4, NOTE_F3,357, NOTE_REST,71, NOTE_F3,357, NOTE_REST,71, NOTE_CS3,357, NOTE_REST,71, NOTE_CS3,357,
 NOTE_REST,71, NOTE_CS3,357, NOTE_REST,71, NOTE_CS3,209, NOTE_REST,4, NOTE_DS3,424, NOTE_REST,4, NOTE_DS3,357,
 NOTE_REST,71, NOTE_DS3,209, NOTE_REST,4, NOTE_DS3,357, NOTE_REST,71, NOTE_DS3,357, NOTE_REST,71, NOTE_GS3,357,
 NOTE_REST,71, NOTE_GS3,357, NOTE_REST,71, NOTE_GS3,357, NOTE_REST,71, NOTE_GS3,209, NOTE_REST,4, NOTE_F3,424,
 NOTE_REST,4, NOTE_F3,357, NOTE_REST,71, NOTE_F3,209, NOTE_REST,4, NOTE_F3,357, NOTE_REST,71, NOTE_F3,357,
 NOTE_REST,71, NOTE_CS3,357, NOTE_REST,71, NOTE_CS3,357, NOTE_REST,71, NOTE_CS3,357, NOTE_REST,71, NOTE_CS3,357,
 NOTE_REST,71, NOTE_DS3,357, NOTE_REST,71, NOTE_DS3,357, NOTE_REST,71, NOTE_DS3,357, NOTE_REST,71, NOTE_DS3,357,
 NOTE_REST,71, NOTE_GS3,357, NOTE_REST,71, NOTE_GS3,357, NOTE_REST,71, NOTE_GS3,357, NOTE_REST,71, NOTE_GS3,357,
 NOTE_REST,71, NOTE_F3,357, NOTE_REST,71, NOTE_F3,357, NOTE_REST,71, NOTE_F3,357, NOTE_REST,71, NOTE_F3,357,
 NOTE_REST,71, NOTE_CS3,357, NOTE_REST,71, NOTE_CS3,357, NOTE_REST,71, NOTE_CS3,357, NOTE_REST,71, NOTE_CS3,357,
 NOTE_REST,71, NOTE_DS3,357, NOTE_REST,71, NOTE_DS3,357, NOTE_REST,71, NOTE_DS3,357, NOTE_REST,71, NOTE_DS3,357,
 NOTE_REST,71, NOTE_GS3,357, NOTE_REST,71, NOTE_GS3,357, NOTE_REST,71, NOTE_GS3,357, NOTE_REST,71, NOTE_GS3,357,
 NOTE_REST,71, NOTE_F3,357, NOTE_REST,71, NOTE_F3,357, NOTE_REST,71, NOTE_F3,357, NOTE_REST,71, NOTE_F3,357,
 NOTE_REST,71, NOTE_CS3,357, NOTE_REST,71, NOTE_CS3,357, NOTE_REST,71, NOTE_CS3,357, NOTE_REST,71, NOTE_CS3,357,
 NOTE_REST,71, NOTE_DS3,357, NOTE_REST,71, NOTE_DS3,357, NOTE_REST,71, NOTE_DS3,357, NOTE_REST,71, NOTE_DS3,357,
 NOTE_REST,71, NOTE_C3,357, NOTE_REST,71, NOTE_C3,357, NOTE_REST,71, NOTE_C3,357, NOTE_REST,71, NOTE_C3,357,
 NOTE_REST,71, NOTE_F3,357, NOTE_REST,71, NOTE_F3,357, NOTE_REST,71, NOTE_F3,357, NOTE_REST,71, NOTE_F3,357,
 NOTE_REST,71, NOTE_CS3,357, NOTE_REST,71, NOTE_CS3,357, NOTE_REST,71, NOTE_CS3,357, NOTE_REST,71, NOTE_CS3,357,
 NOTE_REST,71, NOTE_DS3,357, NOTE_REST,71, NOTE_DS3,357, NOTE_REST,71, NOTE_DS3,357, NOTE_REST,71, NOTE_DS3,357,
 NOTE_REST,71, NOTE_GS3,357, NOTE_REST,71, NOTE_GS3,357, NOTE_REST,71, NOTE_GS3,357, NOTE_REST,71, NOTE_GS3,357,
 NOTE_REST,71, NOTE_F3,357, NOTE_REST,71, NOTE_F3,357, NOTE_REST,71, NOTE_F3,357, NOTE_REST,71, NOTE_F3,357,
 NOTE_REST,71, NOTE_CS3,357, NOTE_REST,71, NOTE_CS3,357, NOTE_REST,71, NOTE_CS3,357, NOTE_REST,71, NOTE_CS3,209,
 NOTE_REST,4, NOTE_DS3,424, NOTE_REST,4, NOTE_DS3,357, NOTE_REST,71, NOTE_DS3,209, NOTE_REST,4, NOTE_DS3,357,
 NOTE_REST,71, NOTE_DS3,357, NOTE_REST,71, NOTE_GS3,357, NOTE_REST,71, NOTE_GS3,357, NOTE_REST,71, NOTE_GS3,357,
 NOTE_REST,71, NOTE_GS3,209, NOTE_REST,4, NOTE_F3,424, NOTE_REST,4, NOTE_F3,357, NOTE_REST,71, NOTE_F3,209,
 NOTE_REST,4, NOTE_F3,357, NOTE_REST,71, NOTE_F3,357, NOTE_REST,71, NOTE_CS3,357, NOTE_REST,71, NOTE_CS3,357,
 NOTE_REST,71, NOTE_CS3,357, NOTE_REST,71, NOTE_CS3,209, NOTE_REST,4, NOTE_DS3,424, NOTE_REST,4, NOTE_DS3,357,
 NOTE_REST,71, NOTE_DS3,209, NOTE_REST,4, NOTE_DS3,357, NOTE_REST,71, NOTE_DS3,357, NOTE_REST,71, NOTE_GS3,357,
 NOTE_REST,71, NOTE_GS3,357, NOTE_REST,71, NOTE_GS3,357, NOTE_REST,71, NOTE_GS3,209, NOTE_REST,4, NOTE_F3,209,
 NOTE_REST,4, NOTE_F3,209, NOTE_REST,4, NOTE_F3,357, NOTE_REST,71, NOTE_F3,209, NOTE_REST,4, NOTE_F3,357,
 NOTE_REST,71, NOTE_F3,357, NOTE_REST,71, NOTE_CS3,357, NOTE_REST,71, NOTE_CS3,357, NOTE_REST,71, NOTE_CS3,357,
 NOTE_REST,71, NOTE_CS3,209, NOTE_REST,4, NOTE_DS3,424, NOTE_REST,4, NOTE_DS3,357, NOTE_REST,71, NOTE_DS3,209,
 NOTE_REST,4, NOTE_DS3,357, NOTE_REST,71, NOTE_DS3,357, NOTE_REST,71, NOTE_GS3,357, NOTE_REST,71, NOTE_GS3,357,
 NOTE_REST,71, NOTE_GS3,357, NOTE_REST,71, NOTE_GS3,209, NOTE_REST,4, NOTE_F3,424, NOTE_REST,4, NOTE_F3,357,
 NOTE_REST,71, NOTE_F3,209, NOTE_REST,4, NOTE_F3,357, NOTE_REST,71, NOTE_F3,357, NOTE_REST,71, NOTE_CS3,357,
 NOTE_REST,71, NOTE_CS3,357, NOTE_REST,71, NOTE_CS3,357, NOTE_REST,71, NOTE_CS3,209, NOTE_REST,4, NOTE_DS3,424,
 NOTE_REST,4, NOTE_DS3,357, NOTE_REST,71, NOTE_DS3,209, NOTE_REST,4, NOTE_DS3,357, NOTE_REST,71, NOTE_DS3,357,
 NOTE_REST,71, NOTE_GS3,357, NOTE_REST,71, NOTE_GS3,357, NOTE_REST,71, NOTE_GS3,357, NOTE_REST,71, NOTE_GS3,209,
 NOTE_REST,4, NOTE_F3,424, NOTE_REST,4, NOTE_F3,357, NOTE_REST,71, NOTE_F3,209, NOTE_REST,4, NOTE_F3,357,
 NOTE_REST,71, NOTE_F3,357, NOTE_REST,71, NOTE_CS3,357, NOTE_REST,71, NOTE_CS3,357, NOTE_REST,71, NOTE_CS3,357,
 NOTE_REST,71, NOTE_CS3,209, NOTE_REST,4, NOTE_DS3,424, NOTE_REST,4, NOTE_DS3,357, NOTE_REST,71, NOTE_DS3,209,
 NOTE_REST,4, NOTE_DS3,357, NOTE_REST,71, NOTE_DS3,357, NOTE_REST,71, NOTE_GS3,357, NOTE_REST,71, NOTE_GS3,357,
 NOTE_REST,71, NOTE_GS3,357, NOTE_REST,71, NOTE_GS3,209, NOTE_REST,4, NOTE_F3,424, NOTE_REST,4, NOTE_F3,357,
 NOTE_REST,71, NOTE_F3,209, NOTE_REST,4, NOTE_F3,357, NOTE_REST,71, NOTE_F3,357, NOTE_REST,71, NOTE_CS3,357,
 NOTE_REST,71, NOTE_CS3,357, NOTE_REST,71, NOTE_CS3,357, NOTE_REST,71, NOTE_CS3,209, NOTE_REST,4, NOTE_DS3,424,
 NOTE_REST,4, NOTE_DS3,357, NOTE_REST,71, NOTE_DS3,209, NOTE_REST,4, NOTE_DS3,357, NOTE_REST,71, NOTE_DS3,357,
 NOTE_REST,71, NOTE_GS3,357, NOTE_REST,71, NOTE_GS3,357, NOTE_REST,71, NOTE_GS3,357, NOTE_REST,71, NOTE_GS3,209,
 NOTE_REST,4, NOTE_F3,424, NOTE_REST,4, NOTE_F3,357, NOTE_REST,71, NOTE_F3,209, NOTE_REST,4, NOTE_F3,357,
 NOTE_REST,71, NOTE_F3,357, NOTE_REST,71, NOTE_CS3,357, NOTE_REST,71, NOTE_CS3,357, NOTE_REST,71, NOTE_CS3,357,
 NOTE_REST,71, NOTE_CS3,357, NOTE_REST,71, NOTE_DS3,357, NOTE_REST,71, NOTE_DS3,357, NOTE_REST,71, NOTE_DS3,357,
 NOTE_REST,71, NOTE_DS3,357, NOTE_REST,71, NOTE_GS3,357, NOTE_REST,71, NOTE_GS3,357, NOTE_REST,71, NOTE_GS3,357,
 NOTE_REST,71, NOTE_GS3,357, NOTE_REST,71, NOTE_F3,357, NOTE_REST,71, NOTE_F3,357, NOTE_REST,71, NOTE_F3,357,
 NOTE_REST,71, NOTE_F3,357, NOTE_REST,71, NOTE_CS3,357, NOTE_REST,71, NOTE_CS3,357, NOTE_REST,71, NOTE_CS3,357,
 NOTE_REST,71, NOTE_CS3,357, NOTE_REST,71, NOTE_DS3,357, NOTE_REST,71, NOTE_DS3,357, NOTE_REST,71, NOTE_DS3,357,
 NOTE_REST,71, NOTE_DS3,357, NOTE_REST,71, NOTE_GS3,357, NOTE_REST,71, NOTE_GS3,357, NOTE_REST,71, NOTE_GS3,357,
 NOTE_REST,71, NOTE_GS3,357, NOTE_REST,71, NOTE_F3,357, NOTE_REST,71, NOTE_F3,357, NOTE_REST,71, NOTE_F3,357,
 NOTE_REST,71, NOTE_F3,357, NOTE_REST,71, NOTE_CS3,357, NOTE_REST,71, NOTE_CS3,357, NOTE_REST,71, NOTE_CS3,357,
 NOTE_REST,71, NOTE_CS3,357, NOTE_REST,71, NOTE_DS3,357, NOTE_REST,71, NOTE_DS3,357, NOTE_REST,71, NOTE_DS3,357,
 NOTE_REST,71, NOTE_DS3,357, NOTE_REST,71, NOTE_C3,357, NOTE_REST,71, NOTE_C3,357, NOTE_REST,71, NOTE_C3,357,
 NOTE_REST,71, NOTE_C3,357, NOTE_REST,71, NOTE_F3,357, NOTE_REST,71, NOTE_F3,357, NOTE_REST,71, NOTE_F3,357,
 NOTE_REST,71, NOTE_F3,357, NOTE_REST,71, NOTE_CS3,357, NOTE_REST,71, NOTE_CS3,357, NOTE_REST,71, NOTE_CS3,357,
 NOTE_REST,71, NOTE_CS3,357, NOTE_REST,71, NOTE_DS3,357, NOTE_REST,71, NOTE_DS3,357, NOTE_REST,71, NOTE_DS3,357,
 NOTE_REST,71, NOTE_DS3,357, NOTE_REST,71, NOTE_GS3,357, NOTE_REST,71, NOTE_GS3,357, NOTE_REST,71, NOTE_GS3,357,
 NOTE_REST,71, NOTE_GS3,357, NOTE_REST,71, NOTE_F3,357, NOTE_REST,71, NOTE_F3,357, NOTE_REST,71, NOTE_F3,357,
 NOTE_REST,71, NOTE_F3,357, NOTE_REST,71, NOTE_CS3,357, NOTE_REST,71, NOTE_CS3,357, NOTE_REST,71, NOTE_CS3,357,
 NOTE_REST,71, NOTE_CS3,209, NOTE_REST,4, NOTE_F3,424, NOTE_REST,4, NOTE_F3,357, NOTE_REST,71, NOTE_F3,209,
 NOTE_REST,4, NOTE_F3,357, NOTE_REST,71, NOTE_F3,357, NOTE_REST,71, NOTE_CS3,357, NOTE_REST,71, NOTE_CS3,357,
 NOTE_REST,71, NOTE_CS3,357, NOTE_REST,71, NOTE_CS3,209, NOTE_REST,4, NOTE_F3,424, NOTE_REST,4, NOTE_F3,357,
 NOTE_REST,71, NOTE_F3,209, NOTE_REST,4, NOTE_F3,357, NOTE_REST,71, NOTE_F3,357, NOTE_REST,71, NOTE_CS3,357,
 NOTE_REST,71, NOTE_CS3,357, NOTE_REST,71, NOTE_CS3,357, NOTE_REST,71, NOTE_CS3,209, NOTE_REST,4, NOTE_F3,424,
 NOTE_REST,4, NOTE_F3,357, NOTE_REST,71, NOTE_F3,209, NOTE_REST,4, NOTE_F3,357, NOTE_REST,71, NOTE_F3,357,
 NOTE_REST,285, NOTE_DS3,357, NOTE_REST,71, NOTE_DS3,209, NOTE_REST,4, NOTE_DS3,357, NOTE_REST,71, NOTE_DS3,357,
 NOTE_REST,285, NOTE_DS3,357, NOTE_REST,71, NOTE_DS3,209, NOTE_REST,4, NOTE_DS3,357, NOTE_REST,71, NOTE_DS3,357,
 NOTE_REST,71, NOTE_CS4,357, NOTE_REST,71, NOTE_CS4,357, NOTE_REST,71, NOTE_CS4,357, NOTE_REST,71, NOTE_CS4,209,
 NOTE_REST,4, NOTE_DS4,424, NOTE_REST,4, NOTE_DS4,357, NOTE_REST,71, NOTE_DS4,209, NOTE_REST,4, NOTE_DS4,357,
 NOTE_REST,71, NOTE_DS4,357, NOTE_REST,71, NOTE_GS3,357, NOTE_REST,71, NOTE_GS3,357, NOTE_REST,71, NOTE_GS3,357,
 NOTE_REST,71, NOTE_GS3,209, NOTE_REST,4, NOTE_F3,424, NOTE_REST,4, NOTE_F3,357, NOTE_REST,71, NOTE_F3,209,
 NOTE_REST,4, NOTE_F3,357, NOTE_REST,71, NOTE_F3,357, NOTE_REST,71, NOTE_CS4,357, NOTE_REST,71, NOTE_CS4,357,
 NOTE_REST,71, NOTE_CS4,357, NOTE_REST,71, NOTE_CS4,209, NOTE_REST,4, NOTE_DS4,424, NOTE_REST,4, NOTE_DS4,357,
 NOTE_REST,71, NOTE_DS4,209, NOTE_REST,4, NOTE_DS4,357, NOTE_REST,71, NOTE_DS4,357, NOTE_REST,71, NOTE_GS3,357,
 NOTE_REST,71, NOTE_GS3,357, NOTE_REST,71, NOTE_GS3,357, NOTE_REST,71, NOTE_GS3,209, NOTE_REST,4, NOTE_F3,424,
 NOTE_REST,4, NOTE_F3,357, NOTE_REST,71, NOTE_F3,209, NOTE_REST,4, NOTE_F3,357, NOTE_REST,71, NOTE_F3,357,
 NOTE_REST,71, NOTE_CS3,357, NOTE_REST,71, NOTE_CS3,357, NOTE_REST,71, NOTE_CS3,357, NOTE_REST,71, NOTE_CS3,357,
 NOTE_REST,71, NOTE_DS3,357, NOTE_REST,71, NOTE_DS3,357, NOTE_REST,71, NOTE_DS3,357, NOTE_REST,71, NOTE_DS3,357,
 NOTE_REST,71, NOTE_GS3,357, NOTE_REST,71, NOTE_GS3,357, NOTE_REST,71, NOTE_GS3,357, NOTE_REST,71, NOTE_GS3,357,
 NOTE_REST,71, NOTE_F3,357, NOTE_REST,71, NOTE_F3,357, NOTE_REST,71, NOTE_F3,357, NOTE_REST,71, NOTE_F3,357,
 NOTE_REST,71, NOTE_CS3,357, NOTE_REST,71, NOTE_CS3,357, NOTE_REST,71, NOTE_CS3,357, NOTE_REST,71, NOTE_CS3,357,
 NOTE_REST,71, NOTE_DS3,357, NOTE_REST,71, NOTE_DS3,357, NOTE_REST,71, NOTE_DS3,357, NOTE_REST,71, NOTE_DS3,357,
 NOTE_REST,71, NOTE_GS3,357, NOTE_REST,71, NOTE_GS3,357, NOTE_REST,71, NOTE_GS3,357, NOTE_REST,71, NOTE_GS3,357,
 NOTE_REST,71, NOTE_F3,357, NOTE_REST,71, NOTE_F3,357, NOTE_REST,71, NOTE_F3,357, NOTE_REST,71, NOTE_F3,357,
 NOTE_REST,71, NOTE_CS3,357, NOTE_REST,71, NOTE_CS3,357, NOTE_REST,71, NOTE_CS3,357, NOTE_REST,71, NOTE_CS3,357,
 NOTE_REST,71, NOTE_DS3,357, NOTE_REST,71, NOTE_DS3,357, NOTE_REST,71, NOTE_DS3,357, NOTE_REST,71, NOTE_DS3,357,
 NOTE_REST,71, NOTE_GS3,357, NOTE_REST,71, NOTE_GS3,357, NOTE_REST,71, NOTE_GS3,357, NOTE_REST,71, NOTE_GS3,357,
 NOTE_REST,71, NOTE_F3,357, NOTE_REST,71, NOTE_F3,357, NOTE_REST,71, NOTE_F3,357, NOTE_REST,71, NOTE_F3,357,
 NOTE_REST,71, NOTE_CS4,1495, NOTE_REST,4, NOTE_DS4,1821, NOTE_REST,107, NOTE_C4,1495, NOTE_REST,4, NOTE_F4,1821,
 NOTE_REST,107, NOTE_CS4,1714, NOTE_AS3,1714, NOTE_C4,1714, NOTE_F4,1714, NOTE_CS4,1714, NOTE_AS3,1714, NOTE_C4,1714,
 NOTE_F4,1714, NOTE_CS4,1714, NOTE_AS3,1714, NOTE_C4,1714, NOTE_F4,1714,
 0, 1, -1, -1
};
// This score contains 4374 bytes.
// 1087 notes had to be skipped.
