// ArduboyTones stream for file "payphone.mid" created by MIDI2TONES V1.0.0 on Tue Dec 10 00:58:14 2019
// command line: C:\Users\cnorf\Downloads\midi2tones-master\midi2tones_64bit.exe -o2 -c2 payphone 
//   From channel 1
const int score2[] = {
 NOTE_REST,2222, NOTE_GS4,277, NOTE_GS4,262, NOTE_GS4,15, NOTE_GS4,262, NOTE_GS4,15, NOTE_GS4,526, NOTE_GS4,28,
 NOTE_GS4,526, NOTE_GS4,28, NOTE_GS4,165, NOTE_REST,97, NOTE_REST,15, NOTE_DS4,277, NOTE_DS4,262, NOTE_DS4,15,
 NOTE_DS4,262, NOTE_DS4,15, NOTE_DS4,526, NOTE_DS4,28, NOTE_DS4,526, NOTE_DS4,28, NOTE_DS4,165, NOTE_REST,97,
 NOTE_REST,15, NOTE_C4,277, NOTE_C4,262, NOTE_C4,15, NOTE_C4,262, NOTE_C4,15, NOTE_C4,526, NOTE_C4,28,
 NOTE_C4,526, NOTE_C4,28, NOTE_C4,165, NOTE_REST,97, NOTE_REST,15, NOTE_AS3,277, NOTE_AS3,262, NOTE_AS3,15,
 NOTE_AS3,262, NOTE_AS3,15, NOTE_AS3,526, NOTE_AS3,28, NOTE_AS3,526, NOTE_AS3,28, NOTE_AS3,165, NOTE_REST,97,
 NOTE_REST,15, NOTE_GS4,277, NOTE_GS4,262, NOTE_GS4,15, NOTE_GS4,262, NOTE_GS4,15, NOTE_GS4,526, NOTE_GS4,28,
 NOTE_GS4,526, NOTE_GS4,28, NOTE_GS4,165, NOTE_REST,97, NOTE_REST,15, NOTE_DS4,277, NOTE_DS4,262, NOTE_DS4,15,
 NOTE_DS4,262, NOTE_DS4,15, NOTE_DS4,526, NOTE_DS4,28, NOTE_DS4,526, NOTE_DS4,28, NOTE_DS4,165, NOTE_REST,97,
 NOTE_REST,15, NOTE_C4,277, NOTE_C4,262, NOTE_C4,15, NOTE_C4,262, NOTE_C4,15, NOTE_C4,526, NOTE_C4,28,
 NOTE_C4,526, NOTE_C4,28, NOTE_C4,165, NOTE_REST,97, NOTE_REST,2237, NOTE_GS4,277, NOTE_GS4,138, NOTE_GS4,123,
 NOTE_GS4,13, NOTE_GS4,1, NOTE_GS4,137, NOTE_GS4,1, NOTE_GS4,123, NOTE_GS4,6, NOTE_GS4,8, NOTE_GS4,138,
 NOTE_GS4,130, NOTE_GS4,146, NOTE_GS4,109, NOTE_GS4,20, NOTE_GS4,8, NOTE_GS4,138, NOTE_GS4,137, NOTE_GS4,1,
 NOTE_GS4,137, NOTE_GS4,111, NOTE_GS4,28, NOTE_GS4,137, NOTE_GS4,27, NOTE_REST,97, NOTE_REST,15, NOTE_DS4,277,
 NOTE_DS4,138, NOTE_DS4,123, NOTE_DS4,13, NOTE_DS4,1, NOTE_DS4,137, NOTE_DS4,1, NOTE_DS4,123, NOTE_DS4,6,
 NOTE_DS4,8, NOTE_DS4,138, NOTE_DS4,130, NOTE_DS4,146, NOTE_DS4,109, NOTE_DS4,20, NOTE_DS4,8, NOTE_DS4,138,
 NOTE_DS4,137, NOTE_DS4,1, NOTE_DS4,248, NOTE_DS4,27, NOTE_DS4,1, NOTE_DS4,165, NOTE_REST,97, NOTE_REST,15,
 NOTE_C4,277, NOTE_C4,138, NOTE_C4,123, NOTE_C4,13, NOTE_C4,1, NOTE_C4,137, NOTE_C4,1, NOTE_C4,123,
 NOTE_C4,6, NOTE_C4,8, NOTE_C4,138, NOTE_C4,130, NOTE_C4,146, NOTE_C4,109, NOTE_C4,20, NOTE_C4,8,
 NOTE_C4,138, NOTE_C4,137, NOTE_C4,1, NOTE_C4,137, NOTE_C4,111, NOTE_C4,28, NOTE_C4,137, NOTE_C4,27,
 NOTE_REST,97, NOTE_REST,15, NOTE_AS3,277, NOTE_AS3,138, NOTE_AS3,123, NOTE_AS3,13, NOTE_AS3,1, NOTE_AS3,137,
 NOTE_AS3,1, NOTE_AS3,123, NOTE_AS3,13, NOTE_AS3,1, NOTE_AS3,138, NOTE_AS3,130, NOTE_AS3,146, NOTE_AS3,109,
 NOTE_AS3,27, NOTE_AS3,1, NOTE_AS3,138, NOTE_AS3,137, NOTE_AS3,1, NOTE_AS3,248, NOTE_AS3,27, NOTE_AS3,1,
 NOTE_AS3,165, NOTE_REST,97, NOTE_REST,15, NOTE_GS4,277, NOTE_GS4,138, NOTE_GS4,123, NOTE_GS4,13, NOTE_GS4,1,
 NOTE_GS4,137, NOTE_GS4,1, NOTE_GS4,123, NOTE_GS4,6, NOTE_GS4,8, NOTE_GS4,138, NOTE_GS4,130, NOTE_GS4,146,
 NOTE_GS4,109, NOTE_GS4,20, NOTE_GS4,8, NOTE_GS4,138, NOTE_GS4,137, NOTE_GS4,1, NOTE_GS4,137, NOTE_GS4,111,
 NOTE_GS4,28, NOTE_GS4,137, NOTE_GS4,27, NOTE_REST,97, NOTE_REST,15, NOTE_DS4,277, NOTE_DS4,138, NOTE_DS4,123,
 NOTE_DS4,13, NOTE_DS4,1, NOTE_DS4,137, NOTE_DS4,1, NOTE_DS4,123, NOTE_DS4,6, NOTE_DS4,8, NOTE_DS4,138,
 NOTE_DS4,130, NOTE_DS4,146, NOTE_DS4,109, NOTE_DS4,20, NOTE_DS4,8, NOTE_DS4,138, NOTE_DS4,137, NOTE_DS4,1,
 NOTE_DS4,248, NOTE_DS4,27, NOTE_DS4,1, NOTE_DS4,165, NOTE_REST,97, NOTE_REST,15, NOTE_C4,277, NOTE_C4,138,
 NOTE_C4,123, NOTE_C4,13, NOTE_C4,1, NOTE_C4,137, NOTE_C4,1, NOTE_C4,123, NOTE_C4,6, NOTE_C4,8,
 NOTE_C4,138, NOTE_C4,130, NOTE_C4,146, NOTE_C4,109, NOTE_C4,20, NOTE_C4,8, NOTE_C4,138, NOTE_C4,137,
 NOTE_C4,1, NOTE_C4,137, NOTE_C4,111, NOTE_C4,28, NOTE_C4,137, NOTE_C4,27, NOTE_REST,97, NOTE_REST,15,
 NOTE_AS3,277, NOTE_AS3,116, NOTE_AS3,21, NOTE_AS3,123, NOTE_AS3,15, NOTE_AS3,255, NOTE_AS3,6, NOTE_AS3,15,
 NOTE_AS3,262, NOTE_AS3,15, NOTE_AS3,248, NOTE_AS3,28, NOTE_AS3,116, NOTE_AS3,21, NOTE_AS3,387, NOTE_AS3,6,
 NOTE_AS3,21, NOTE_AS3,165, NOTE_REST,97, NOTE_REST,15, NOTE_GS4,277, NOTE_GS4,262, NOTE_GS4,15, NOTE_GS4,262,
 NOTE_GS4,15, NOTE_GS4,526, NOTE_GS4,28, NOTE_GS4,526, NOTE_GS4,28, NOTE_GS4,165, NOTE_REST,97, NOTE_REST,15,
 NOTE_DS4,277, NOTE_DS4,262, NOTE_DS4,15, NOTE_DS4,262, NOTE_DS4,15, NOTE_DS4,526, NOTE_DS4,28, NOTE_DS4,526,
 NOTE_DS4,28, NOTE_DS4,165, NOTE_REST,97, NOTE_REST,15, NOTE_C4,277, NOTE_C4,262, NOTE_C4,15, NOTE_C4,262,
 NOTE_C4,15, NOTE_C4,526, NOTE_C4,28, NOTE_C4,526, NOTE_C4,28, NOTE_C4,165, NOTE_REST,97, NOTE_REST,15,
 NOTE_AS3,277, NOTE_AS3,262, NOTE_AS3,15, NOTE_AS3,262, NOTE_AS3,15, NOTE_AS3,526, NOTE_AS3,28, NOTE_AS3,526,
 NOTE_AS3,28, NOTE_AS3,165, NOTE_REST,97, NOTE_REST,15, NOTE_GS4,277, NOTE_GS4,262, NOTE_GS4,15, NOTE_GS4,262,
 NOTE_GS4,15, NOTE_GS4,526, NOTE_GS4,28, NOTE_GS4,526, NOTE_GS4,28, NOTE_GS4,165, NOTE_REST,97, NOTE_REST,15,
 NOTE_DS4,277, NOTE_DS4,262, NOTE_DS4,15, NOTE_DS4,262, NOTE_DS4,15, NOTE_DS4,526, NOTE_DS4,28, NOTE_DS4,526,
 NOTE_DS4,28, NOTE_DS4,165, NOTE_REST,97, NOTE_REST,15, NOTE_C4,277, NOTE_C4,262, NOTE_C4,15, NOTE_C4,262,
 NOTE_C4,15, NOTE_C4,526, NOTE_C4,28, NOTE_C4,526, NOTE_C4,28, NOTE_C4,165, NOTE_REST,97, NOTE_REST,15,
 NOTE_AS5,790, NOTE_REST,320, NOTE_G6,262, NOTE_REST,15, NOTE_GS6,262, NOTE_REST,15, NOTE_AS6,262, NOTE_REST,15,
 NOTE_F7,262, NOTE_REST,15, NOTE_GS4,277, NOTE_GS4,248, NOTE_GS4,13, NOTE_GS4,15, NOTE_GS4,262, NOTE_GS4,15,
 NOTE_GS4,248, NOTE_GS4,28, NOTE_GS4,248, NOTE_GS4,13, NOTE_GS4,15, NOTE_GS4,262, NOTE_GS4,15, NOTE_GS4,248,
 NOTE_GS4,13, NOTE_GS4,15, NOTE_GS4,165, NOTE_REST,97, NOTE_REST,15, NOTE_DS4,277, NOTE_DS4,234, NOTE_DS4,27,
 NOTE_DS4,15, NOTE_DS4,262, NOTE_DS4,15, NOTE_DS4,248, NOTE_DS4,28, NOTE_DS4,248, NOTE_DS4,13, NOTE_DS4,15,
 NOTE_DS4,262, NOTE_DS4,15, NOTE_DS4,248, NOTE_DS4,13, NOTE_DS4,15, NOTE_DS4,165, NOTE_REST,97, NOTE_REST,15,
 NOTE_C4,248, NOTE_C4,28, NOTE_C4,262, NOTE_C4,15, NOTE_C4,248, NOTE_C4,13, NOTE_C4,15, NOTE_C4,526,
 NOTE_C4,28, NOTE_C4,262, NOTE_C4,15, NOTE_C4,248, NOTE_C4,13, NOTE_C4,15, NOTE_C4,165, NOTE_REST,97,
 NOTE_REST,15, NOTE_AS3,277, NOTE_AS3,234, NOTE_AS3,27, NOTE_AS3,15, NOTE_AS3,262, NOTE_AS3,15, NOTE_AS3,277,
 NOTE_AS3,248, NOTE_AS3,13, NOTE_AS3,15, NOTE_AS3,262, NOTE_AS3,15, NOTE_AS3,248, NOTE_AS3,13, NOTE_AS3,15,
 NOTE_AS3,165, NOTE_REST,97, NOTE_REST,15, NOTE_GS4,277, NOTE_GS4,234, NOTE_GS4,27, NOTE_GS4,15, NOTE_GS4,262,
 NOTE_GS4,15, NOTE_GS4,248, NOTE_GS4,28, NOTE_GS4,248, NOTE_GS4,13, NOTE_GS4,15, NOTE_GS4,262, NOTE_GS4,15,
 NOTE_GS4,248, NOTE_GS4,13, NOTE_GS4,15, NOTE_GS4,165, NOTE_REST,97, NOTE_REST,15, NOTE_DS4,277, NOTE_DS4,234,
 NOTE_DS4,27, NOTE_DS4,15, NOTE_DS4,262, NOTE_DS4,15, NOTE_DS4,248, NOTE_DS4,28, NOTE_DS4,248, NOTE_DS4,13,
 NOTE_DS4,15, NOTE_DS4,262, NOTE_DS4,15, NOTE_DS4,248, NOTE_DS4,13, NOTE_DS4,15, NOTE_DS4,165, NOTE_REST,97,
 NOTE_REST,15, NOTE_C4,248, NOTE_C4,28, NOTE_C4,262, NOTE_C4,15, NOTE_C4,248, NOTE_C4,13, NOTE_C4,15,
 NOTE_C4,526, NOTE_C4,28, NOTE_C4,262, NOTE_C4,15, NOTE_C4,248, NOTE_C4,13, NOTE_C4,15, NOTE_C4,165,
 NOTE_REST,97, NOTE_REST,15, NOTE_AS3,277, NOTE_AS3,234, NOTE_AS3,27, NOTE_AS3,15, NOTE_AS3,262, NOTE_AS3,15,
 NOTE_AS3,262, NOTE_AS3,15, NOTE_AS3,248, NOTE_AS3,13, NOTE_AS3,15, NOTE_AS3,262, NOTE_AS3,15, NOTE_AS3,248,
 NOTE_AS3,13, NOTE_AS3,15, NOTE_AS3,165, NOTE_REST,97, NOTE_REST,15, NOTE_GS4,277, NOTE_GS4,116, NOTE_GS4,21,
 NOTE_GS4,123, NOTE_GS4,15, NOTE_GS4,255, NOTE_GS4,6, NOTE_GS4,15, NOTE_GS4,394, NOTE_GS4,21, NOTE_GS4,109,
 NOTE_GS4,28, NOTE_GS4,255, NOTE_GS4,21, NOTE_GS4,248, NOTE_GS4,28, NOTE_GS4,165, NOTE_REST,97, NOTE_REST,15,
 NOTE_DS4,277, NOTE_DS4,221, NOTE_DS4,41, NOTE_DS4,15, NOTE_DS4,262, NOTE_DS4,15, NOTE_DS4,277, NOTE_DS4,248,
 NOTE_DS4,13, NOTE_DS4,15, NOTE_DS4,262, NOTE_DS4,15, NOTE_DS4,248, NOTE_DS4,13, NOTE_DS4,15, NOTE_DS4,165,
 NOTE_REST,97, NOTE_REST,15, NOTE_C4,277, NOTE_C4,116, NOTE_C4,21, NOTE_C4,123, NOTE_C4,15, NOTE_C4,255,
 NOTE_C4,6, NOTE_C4,15, NOTE_C4,394, NOTE_C4,21, NOTE_C4,109, NOTE_C4,28, NOTE_C4,255, NOTE_C4,21,
 NOTE_C4,248, NOTE_C4,28, NOTE_C4,165, NOTE_REST,97, NOTE_REST,15, NOTE_AS3,277, NOTE_AS3,221, NOTE_AS3,41,
 NOTE_AS3,15, NOTE_AS3,262, NOTE_AS3,15, NOTE_AS3,277, NOTE_AS3,248, NOTE_AS3,13, NOTE_AS3,15, NOTE_AS3,262,
 NOTE_AS3,15, NOTE_AS3,248, NOTE_AS3,13, NOTE_AS3,15, NOTE_AS3,165, NOTE_REST,97, NOTE_REST,15, NOTE_GS4,277,
 NOTE_GS4,116, NOTE_GS4,21, NOTE_GS4,123, NOTE_GS4,15, NOTE_GS4,255, NOTE_GS4,6, NOTE_GS4,15, NOTE_GS4,394,
 NOTE_GS4,21, NOTE_GS4,109, NOTE_GS4,28, NOTE_GS4,255, NOTE_GS4,21, NOTE_GS4,248, NOTE_GS4,28, NOTE_GS4,165,
 NOTE_REST,97, NOTE_REST,15, NOTE_DS4,277, NOTE_DS4,221, NOTE_DS4,41, NOTE_DS4,15, NOTE_DS4,262, NOTE_DS4,15,
 NOTE_DS4,277, NOTE_DS4,248, NOTE_DS4,13, NOTE_DS4,15, NOTE_DS4,262, NOTE_DS4,15, NOTE_DS4,248, NOTE_DS4,13,
 NOTE_DS4,15, NOTE_DS4,165, NOTE_REST,97, NOTE_REST,15, NOTE_C4,277, NOTE_C4,116, NOTE_C4,21, NOTE_C4,123,
 NOTE_C4,15, NOTE_C4,255, NOTE_C4,6, NOTE_C4,15, NOTE_C4,394, NOTE_C4,21, NOTE_C4,109, NOTE_C4,28,
 NOTE_C4,255, NOTE_C4,21, NOTE_C4,248, NOTE_C4,28, NOTE_C4,165, NOTE_REST,97, NOTE_REST,15, NOTE_AS3,277,
 NOTE_AS3,221, NOTE_AS3,41, NOTE_AS3,15, NOTE_AS3,262, NOTE_AS3,15, NOTE_AS3,526, NOTE_AS3,28, NOTE_AS3,526,
 NOTE_AS3,28, NOTE_AS3,165, NOTE_REST,97,
 0, 1, -1, -1
};
// This score contains 2670 bytes.
// 331 notes had to be skipped.
