// ArduboyTones stream for file "payphone.mid" created by MIDI2TONES V1.0.0 on Tue Dec 10 00:57:59 2019
// command line: C:\Users\cnorf\Downloads\midi2tones-master\midi2tones_64bit.exe -o2 -c1 payphone 
//   From channel 0
const int score1[] = {
 NOTE_REST,11111, NOTE_DS6,2109, NOTE_REST,112, NOTE_DS6,2109, NOTE_REST,112, NOTE_DS6,2109, NOTE_REST,1501, NOTE_DS6,276,
 NOTE_REST,278, NOTE_DS6,276, NOTE_REST,1, NOTE_GS4,416, NOTE_GS4,137, NOTE_GS4,1, NOTE_GS4,137, NOTE_GS4,1,
 NOTE_GS4,130, NOTE_GS4,146, NOTE_GS4,130, NOTE_GS4,146, NOTE_GS4,130, NOTE_GS4,146, NOTE_GS4,137, NOTE_GS4,1,
 NOTE_GS4,137, NOTE_GS4,140, NOTE_GS4,137, NOTE_GS4,138, NOTE_REST,1, NOTE_DS4,416, NOTE_DS4,137, NOTE_DS4,1,
 NOTE_DS4,137, NOTE_DS4,1, NOTE_DS4,130, NOTE_DS4,146, NOTE_DS4,130, NOTE_DS4,146, NOTE_DS4,130, NOTE_DS4,146,
 NOTE_DS4,137, NOTE_DS4,1, NOTE_DS4,276, NOTE_DS4,277, NOTE_REST,1, NOTE_C4,416, NOTE_C4,137, NOTE_C4,1,
 NOTE_C4,137, NOTE_C4,1, NOTE_C4,130, NOTE_C4,146, NOTE_C4,130, NOTE_C4,146, NOTE_C4,130, NOTE_C4,146,
 NOTE_C4,137, NOTE_C4,1, NOTE_C4,137, NOTE_C4,140, NOTE_C4,137, NOTE_C4,138, NOTE_REST,1, NOTE_AS3,416,
 NOTE_AS3,137, NOTE_AS3,1, NOTE_AS3,137, NOTE_AS3,1, NOTE_AS3,137, NOTE_AS3,140, NOTE_AS3,130, NOTE_AS3,146,
 NOTE_AS3,137, NOTE_AS3,140, NOTE_AS3,137, NOTE_AS3,1, NOTE_AS3,276, NOTE_AS3,277, NOTE_REST,1, NOTE_GS4,416,
 NOTE_GS4,137, NOTE_GS4,1, NOTE_GS4,137, NOTE_GS4,1, NOTE_GS4,130, NOTE_GS4,146, NOTE_GS4,130, NOTE_GS4,146,
 NOTE_GS4,130, NOTE_GS4,146, NOTE_GS4,137, NOTE_GS4,1, NOTE_GS4,137, NOTE_GS4,140, NOTE_GS4,137, NOTE_GS4,138,
 NOTE_REST,1, NOTE_DS4,416, NOTE_DS4,137, NOTE_DS4,1, NOTE_DS4,137, NOTE_DS4,1, NOTE_DS4,130, NOTE_DS4,146,
 NOTE_DS4,130, NOTE_DS4,146, NOTE_DS4,130, NOTE_DS4,146, NOTE_DS4,137, NOTE_DS4,1, NOTE_DS4,276, NOTE_DS4,277,
 NOTE_REST,1, NOTE_C4,416, NOTE_C4,137, NOTE_C4,1, NOTE_C4,137, NOTE_C4,1, NOTE_C4,130, NOTE_C4,146,
 NOTE_C4,130, NOTE_C4,146, NOTE_C4,130, NOTE_C4,146, NOTE_C4,137, NOTE_C4,1, NOTE_C4,137, NOTE_C4,140,
 NOTE_C4,137, NOTE_C4,138, NOTE_REST,1, NOTE_GS6,394, NOTE_REST,21, NOTE_G6,394, NOTE_REST,21, NOTE_DS6,262,
 NOTE_REST,15, NOTE_GS6,394, NOTE_REST,21, NOTE_G6,394, NOTE_REST,21, NOTE_F6,262, NOTE_REST,13, NOTE_REST,1,
 NOTE_G6,554, NOTE_G6,1, NOTE_G6,554, NOTE_G6,1, NOTE_G6,415, NOTE_G6,1, NOTE_G6,415, NOTE_G6,1,
 NOTE_G6,165, NOTE_REST,111, NOTE_REST,1, NOTE_DS6,554, NOTE_DS6,1, NOTE_DS6,554, NOTE_DS6,1, NOTE_DS6,415,
 NOTE_DS6,1, NOTE_DS6,415, NOTE_DS6,1, NOTE_DS6,165, NOTE_REST,111, NOTE_REST,1, NOTE_C6,554, NOTE_C6,1,
 NOTE_C6,554, NOTE_C6,1, NOTE_C6,415, NOTE_C6,1, NOTE_C6,415, NOTE_C6,1, NOTE_C6,165, NOTE_REST,111,
 NOTE_REST,1, NOTE_AS5,554, NOTE_AS5,1, NOTE_AS5,554, NOTE_AS5,1, NOTE_AS5,415, NOTE_AS5,1, NOTE_AS5,415,
 NOTE_AS5,1, NOTE_AS5,165, NOTE_REST,111, NOTE_REST,1, NOTE_G6,554, NOTE_G6,1, NOTE_G6,554, NOTE_G6,1,
 NOTE_G6,415, NOTE_G6,1, NOTE_G6,415, NOTE_G6,1, NOTE_G6,165, NOTE_REST,111, NOTE_REST,1, NOTE_DS6,554,
 NOTE_DS6,1, NOTE_DS6,554, NOTE_DS6,1, NOTE_DS6,415, NOTE_DS6,1, NOTE_DS6,415, NOTE_DS6,1, NOTE_DS6,165,
 NOTE_REST,111, NOTE_REST,1, NOTE_C6,554, NOTE_C6,1, NOTE_C6,554, NOTE_C6,1, NOTE_C6,415, NOTE_C6,1,
 NOTE_C6,415, NOTE_C6,1, NOTE_C6,165, NOTE_REST,111, NOTE_REST,1, NOTE_AS5,790, NOTE_REST,41, NOTE_REST,278,
 NOTE_G6,262, NOTE_REST,15, NOTE_GS6,262, NOTE_REST,15, NOTE_AS6,262, NOTE_REST,15, NOTE_F7,277, NOTE_F7,512,
 NOTE_REST,42, NOTE_DS7,526, NOTE_REST,28, NOTE_DS7,262, NOTE_REST,15, NOTE_D7,262, NOTE_REST,15, NOTE_AS6,262,
 NOTE_REST,15, NOTE_GS6,276, NOTE_GS6,1, NOTE_GS6,512, NOTE_REST,42, NOTE_GS6,526, NOTE_REST,28, NOTE_GS6,262,
 NOTE_REST,15, NOTE_G6,262, NOTE_REST,15, NOTE_DS6,262, NOTE_REST,15, NOTE_GS6,276, NOTE_GS6,1, NOTE_GS6,248,
 NOTE_REST,28, NOTE_G6,526, NOTE_REST,28, NOTE_F6,526, NOTE_REST,28, NOTE_DS6,262, NOTE_REST,15, NOTE_G6,262,
 NOTE_REST,15, NOTE_F6,276, NOTE_F6,1, NOTE_F6,512, NOTE_REST,598, NOTE_G6,262, NOTE_REST,15, NOTE_GS6,262,
 NOTE_REST,15, NOTE_AS6,262, NOTE_REST,15, NOTE_F7,276, NOTE_F7,1, NOTE_F7,512, NOTE_REST,42, NOTE_DS7,526,
 NOTE_REST,28, NOTE_DS7,262, NOTE_REST,15, NOTE_D7,262, NOTE_REST,15, NOTE_AS6,262, NOTE_REST,15, NOTE_GS6,276,
 NOTE_GS6,1, NOTE_GS6,512, NOTE_REST,42, NOTE_GS6,526, NOTE_REST,28, NOTE_GS6,262, NOTE_REST,15, NOTE_G6,262,
 NOTE_REST,15, NOTE_DS6,262, NOTE_REST,15, NOTE_GS6,276, NOTE_GS6,1, NOTE_GS6,248, NOTE_REST,28, NOTE_G6,526,
 NOTE_REST,28, NOTE_F6,526, NOTE_REST,28, NOTE_DS6,262, NOTE_REST,15, NOTE_G6,262, NOTE_REST,15, NOTE_F6,276,
 NOTE_F6,1, NOTE_F6,512, NOTE_REST,320, NOTE_DS6,262, NOTE_REST,15, NOTE_G6,262, NOTE_REST,15, NOTE_GS6,262,
 NOTE_REST,15, NOTE_G6,262, NOTE_REST,15, NOTE_F6,262, NOTE_REST,13, NOTE_REST,1, NOTE_F6,394, NOTE_REST,21,
 NOTE_DS6,394, NOTE_REST,21, NOTE_DS6,394, NOTE_REST,21, NOTE_F6,394, NOTE_REST,21, NOTE_G6,554, NOTE_G6,1,
 NOTE_G6,498, NOTE_REST,612, NOTE_G6,262, NOTE_REST,15, NOTE_GS6,262, NOTE_REST,15, NOTE_G6,262, NOTE_REST,15,
 NOTE_F6,262, NOTE_REST,13, NOTE_REST,1, NOTE_F6,394, NOTE_REST,21, NOTE_DS6,394, NOTE_REST,21, NOTE_DS6,394,
 NOTE_REST,21, NOTE_AS6,394, NOTE_REST,21, NOTE_F6,554, NOTE_F6,1, NOTE_F6,498, NOTE_REST,612, NOTE_G6,262,
 NOTE_REST,15, NOTE_GS6,262, NOTE_REST,15, NOTE_G6,262, NOTE_REST,15, NOTE_F6,262, NOTE_REST,13, NOTE_REST,1,
 NOTE_F6,394, NOTE_REST,21, NOTE_DS6,394, NOTE_REST,21, NOTE_DS6,394, NOTE_REST,21, NOTE_F6,394, NOTE_REST,21,
 NOTE_G6,554, NOTE_G6,1, NOTE_G6,498, NOTE_REST,612, NOTE_G6,262, NOTE_REST,15, NOTE_GS6,262, NOTE_REST,15,
 NOTE_G6,262, NOTE_REST,15, NOTE_F6,262, NOTE_REST,13, NOTE_REST,1, NOTE_F6,394, NOTE_REST,21, NOTE_DS6,394,
 NOTE_REST,21, NOTE_DS6,394, NOTE_REST,21, NOTE_AS6,394, NOTE_REST,21, NOTE_F6,554, NOTE_F6,1, NOTE_F6,498,
 NOTE_REST,1722,
 0, 1, -1, -1
};
// This score contains 1606 bytes.
// 106 notes had to be skipped.
