// ArduboyTones stream for file "payphone.mid" created by MIDI2TONES V1.0.0 on Tue Dec 10 00:58:38 2019
// command line: C:\Users\cnorf\Downloads\midi2tones-master\midi2tones_64bit.exe -o2 -c16 payphone 
//   From channel 4
const int score4[] = {
 NOTE_REST,11111, NOTE_GS6,2221, NOTE_REST,1, NOTE_DS6,2221, NOTE_REST,1, NOTE_C6,2221, NOTE_REST,2640, NOTE_DS5,137,
 NOTE_REST,1, NOTE_G5,137, NOTE_REST,1, NOTE_AS5,137, NOTE_REST,140, NOTE_AS5,137, NOTE_REST,140, NOTE_G5,137,
 NOTE_REST,140, NOTE_F5,137, NOTE_REST,1, NOTE_F5,137, NOTE_REST,140, NOTE_F5,137, NOTE_REST,556, NOTE_DS5,137,
 NOTE_REST,1, NOTE_G5,137, NOTE_REST,1, NOTE_AS5,137, NOTE_REST,140, NOTE_AS5,137, NOTE_REST,140, NOTE_G5,137,
 NOTE_REST,140, NOTE_F5,137, NOTE_REST,1, NOTE_G5,276, NOTE_REST,695, NOTE_DS5,137, NOTE_REST,1, NOTE_G5,137,
 NOTE_REST,1, NOTE_AS5,137, NOTE_REST,140, NOTE_AS5,137, NOTE_REST,140, NOTE_G5,137, NOTE_REST,140, NOTE_F5,137,
 NOTE_REST,1, NOTE_F5,137, NOTE_REST,140, NOTE_F5,137, NOTE_REST,556, NOTE_DS5,137, NOTE_REST,1, NOTE_G5,137,
 NOTE_REST,1, NOTE_AS5,137, NOTE_REST,140, NOTE_C6,137, NOTE_REST,140, NOTE_G5,137, NOTE_REST,140, NOTE_F5,137,
 NOTE_REST,1, NOTE_G5,276, NOTE_REST,695, NOTE_DS5,137, NOTE_REST,1, NOTE_G5,137, NOTE_REST,1, NOTE_AS5,137,
 NOTE_REST,140, NOTE_AS5,137, NOTE_REST,140, NOTE_G5,137, NOTE_REST,140, NOTE_F5,137, NOTE_REST,1, NOTE_F5,137,
 NOTE_REST,140, NOTE_F5,137, NOTE_REST,556, NOTE_DS5,137, NOTE_REST,1, NOTE_G5,137, NOTE_REST,1, NOTE_AS5,137,
 NOTE_REST,140, NOTE_AS5,137, NOTE_REST,140, NOTE_G5,137, NOTE_REST,140, NOTE_F5,137, NOTE_REST,1, NOTE_G5,276,
 NOTE_REST,695, NOTE_DS5,137, NOTE_REST,1, NOTE_G5,137, NOTE_REST,1, NOTE_AS5,137, NOTE_REST,140, NOTE_AS5,137,
 NOTE_REST,140, NOTE_G5,137, NOTE_REST,140, NOTE_F5,137, NOTE_REST,1, NOTE_F5,137, NOTE_REST,140, NOTE_F5,137,
 NOTE_REST,140, NOTE_GS5,415, NOTE_REST,1, NOTE_G5,415, NOTE_REST,1, NOTE_DS5,276, NOTE_REST,1, NOTE_GS5,415,
 NOTE_REST,1, NOTE_G5,415, NOTE_REST,1, NOTE_F5,276, NOTE_REST,1, NOTE_G5,2221, NOTE_REST,1, NOTE_DS5,2221,
 NOTE_REST,1, NOTE_C5,2221, NOTE_REST,1, NOTE_AS4,2221, NOTE_REST,1, NOTE_G5,2221, NOTE_REST,1, NOTE_DS5,2221,
 NOTE_REST,1, NOTE_C5,2221, NOTE_REST,1, NOTE_AS4,832, NOTE_REST,278, NOTE_G5,276, NOTE_REST,1, NOTE_GS5,276,
 NOTE_REST,1, NOTE_AS5,276, NOTE_REST,1, NOTE_F6,276, NOTE_REST,1, NOTE_F6,554, NOTE_REST,1, NOTE_DS6,554,
 NOTE_REST,1, NOTE_DS6,276, NOTE_REST,1, NOTE_D6,276, NOTE_REST,1, NOTE_AS5,276, NOTE_REST,1, NOTE_GS5,832,
 NOTE_REST,1, NOTE_GS5,554, NOTE_REST,1, NOTE_GS5,276, NOTE_REST,1, NOTE_G5,276, NOTE_REST,1, NOTE_DS5,276,
 NOTE_REST,1, NOTE_GS5,554, NOTE_REST,1, NOTE_G5,554, NOTE_REST,1, NOTE_F5,554, NOTE_REST,1, NOTE_DS5,276,
 NOTE_REST,1, NOTE_G5,276, NOTE_REST,1, NOTE_F5,832, NOTE_REST,556, NOTE_G5,276, NOTE_REST,1, NOTE_GS5,276,
 NOTE_REST,1, NOTE_AS5,276, NOTE_REST,1, NOTE_F6,832, NOTE_REST,1, NOTE_DS6,554, NOTE_REST,1, NOTE_DS6,276,
 NOTE_REST,1, NOTE_D6,276, NOTE_REST,1, NOTE_AS5,276, NOTE_REST,1, NOTE_GS5,832, NOTE_REST,1, NOTE_GS5,554,
 NOTE_REST,1, NOTE_GS5,276, NOTE_REST,1, NOTE_G5,276, NOTE_REST,1, NOTE_DS5,276, NOTE_REST,1, NOTE_GS5,554,
 NOTE_REST,1, NOTE_G5,554, NOTE_REST,1, NOTE_F5,554, NOTE_REST,1, NOTE_DS5,276, NOTE_REST,1, NOTE_G5,276,
 NOTE_REST,1, NOTE_F5,832, NOTE_REST,278, NOTE_DS5,276, NOTE_REST,1, NOTE_G5,276, NOTE_REST,1, NOTE_GS5,276,
 NOTE_REST,1, NOTE_G5,276, NOTE_REST,1, NOTE_F5,276, NOTE_REST,1, NOTE_F5,415, NOTE_REST,1, NOTE_DS5,415,
 NOTE_REST,1, NOTE_DS5,415, NOTE_REST,1, NOTE_F5,415, NOTE_REST,1, NOTE_G5,1109, NOTE_REST,556, NOTE_G5,276,
 NOTE_REST,1, NOTE_GS5,276, NOTE_REST,1, NOTE_G5,276, NOTE_REST,1, NOTE_F5,276, NOTE_REST,1, NOTE_F5,415,
 NOTE_REST,1, NOTE_DS5,415, NOTE_REST,1, NOTE_DS5,415, NOTE_REST,1, NOTE_AS5,415, NOTE_REST,1, NOTE_F5,1109,
 NOTE_REST,556, NOTE_G5,276, NOTE_REST,1, NOTE_GS5,276, NOTE_REST,1, NOTE_G5,276, NOTE_REST,1, NOTE_F5,276,
 NOTE_REST,1, NOTE_F5,415, NOTE_REST,1, NOTE_DS5,415, NOTE_REST,1, NOTE_DS5,415, NOTE_REST,1, NOTE_F5,415,
 NOTE_REST,1, NOTE_G5,1109, NOTE_REST,556, NOTE_G5,276, NOTE_REST,1, NOTE_GS5,276, NOTE_REST,1, NOTE_G5,276,
 NOTE_REST,1, NOTE_F5,276, NOTE_REST,1, NOTE_F5,415, NOTE_REST,1, NOTE_DS5,415, NOTE_REST,1, NOTE_DS5,415,
 NOTE_REST,1, NOTE_AS5,415, NOTE_REST,1, NOTE_F5,1109,
 0, 1, -1, -1
};
// This score contains 1170 bytes.
